<svg xmlns="http://www.w3.org/2000/svg" width="31.319" height="28.26" viewBox="0 0 31.319 28.26">
  <g id="calendar" transform="translate(0 -25)">
    <path id="Path_2235" data-name="Path 2235" d="M31.319,33.808V30.2a2.756,2.756,0,0,0-2.753-2.753H28.2v3.364a.918.918,0,1,1-1.835,0V25.918a.918.918,0,1,0-1.835,0v1.529H18.412v3.364a.918.918,0,1,1-1.835,0V25.918a.918.918,0,0,0-1.835,0v1.529H8.625v3.364a.918.918,0,1,1-1.835,0V25.918a.918.918,0,0,0-1.835,0v1.529h-2.2A2.756,2.756,0,0,0,0,30.2v3.609Z" transform="translate(0 0)" fill="#8d6827"/>
    <path id="Path_2236" data-name="Path 2236" d="M0,199v14.864a2.756,2.756,0,0,0,2.753,2.753H28.566a2.756,2.756,0,0,0,2.753-2.753V199Zm8.808,12.723H6.851a.918.918,0,0,1,0-1.835H8.808a.918.918,0,0,1,0,1.835Zm0-3.915H6.851a.918.918,0,0,1,0-1.835H8.808a.918.918,0,0,1,0,1.835Zm0-3.915H6.851a.918.918,0,0,1,0-1.835H8.808a.918.918,0,0,1,0,1.835Zm7.83,7.83H14.681a.918.918,0,0,1,0-1.835h1.957a.918.918,0,0,1,0,1.835Zm0-3.915H14.681a.918.918,0,0,1,0-1.835h1.957a.918.918,0,0,1,0,1.835Zm0-3.915H14.681a.918.918,0,0,1,0-1.835h1.957a.918.918,0,0,1,0,1.835Zm7.83,7.83H22.51a.918.918,0,0,1,0-1.835h1.957a.918.918,0,0,1,0,1.835Zm0-3.915H22.51a.918.918,0,0,1,0-1.835h1.957a.918.918,0,0,1,0,1.835Zm0-3.915H22.51a.918.918,0,0,1,0-1.835h1.957a.918.918,0,0,1,0,1.835Z" transform="translate(0 -163.357)" fill="#8d6827"/>
  </g>
</svg>
