<svg id="Group_595" data-name="Group 595" xmlns="http://www.w3.org/2000/svg" xmlns:xlink="http://www.w3.org/1999/xlink" width="233.758" height="197.666" viewBox="0 0 233.758 197.666">
  <defs>
    <clipPath id="clip-path">
      <rect id="Rectangle_441" data-name="Rectangle 441" width="56.862" height="36.336" fill="none"/>
    </clipPath>
    <clipPath id="clip-path-2">
      <rect id="Rectangle_445" data-name="Rectangle 445" width="56.861" height="36.336" fill="none"/>
    </clipPath>
  </defs>
  <path id="Path_4488" data-name="Path 4488" d="M1627.282,1177.541V1255H1508.774v-77.457Z" transform="translate(-1445.735 -1156.599)" fill="#d3e7f2"/>
  <rect id="Rectangle_439" data-name="Rectangle 439" width="113.723" height="72.672" transform="translate(65.432 23.334)"/>
  <g id="Group_578" data-name="Group 578" transform="translate(122.293 59.671)">
    <g id="Group_577" data-name="Group 577" clip-path="url(#clip-path)">
      <rect id="Rectangle_440" data-name="Rectangle 440" width="56.862" height="36.336" fill="#c2c8da"/>
      <g id="Group_576" data-name="Group 576" transform="translate(18.765 13.145)">
        <g id="Group_574" data-name="Group 574" transform="translate(0 1.74)">
          <path id="Path_4489" data-name="Path 4489" d="M1641.287,1255.278a2.53,2.53,0,0,1,.224,1.253,2.085,2.085,0,0,1-1.847,2.1l-.058-.019c.111-.345.2-.7.283-1.057a13.833,13.833,0,0,0,.33-3.025c0-.071,0-.148-.005-.219h.053A1.919,1.919,0,0,1,1641.287,1255.278Z" transform="translate(-1622.901 -1252.341)" fill="#fed4d0"/>
          <path id="Path_4490" data-name="Path 4490" d="M1634.342,1253.557c.005.072.005.148.005.219a13.835,13.835,0,0,1-.33,3.025c-.081.358-.172.712-.283,1.057-.951,3.1-2.966,5.47-5.435,6.3a6.1,6.1,0,0,1-3.929,0c-2.469-.833-4.479-3.2-5.436-6.3-.11-.345-.2-.7-.282-1.062a13.844,13.844,0,0,1-.326-3.025c0-.071,0-.148.005-.219,0-.3.015-.594.038-.885a29.907,29.907,0,0,1,15.93,0C1634.328,1252.963,1634.342,1253.26,1634.342,1253.557Z" transform="translate(-1617.027 -1251.591)" fill="#fed4d0"/>
          <path id="Path_4491" data-name="Path 4491" d="M1618.439,1258.613l-.053.014a2.086,2.086,0,0,1-1.847-2.1,2.533,2.533,0,0,1,.225-1.253,1.914,1.914,0,0,1,1.019-.971h.052c-.005.072-.005.148-.005.219a13.835,13.835,0,0,0,.326,3.025C1618.238,1257.914,1618.329,1258.268,1618.439,1258.613Z" transform="translate(-1616.532 -1252.341)" fill="#fed4d0"/>
        </g>
        <g id="Group_575" data-name="Group 575" transform="translate(3.797)">
          <path id="Path_4492" data-name="Path 4492" d="M1626.429,1262.832a3.036,3.036,0,0,0,4.288,0" transform="translate(-1623.06 -1252.953)" fill="none" stroke="#8c6239" stroke-linecap="round" stroke-miterlimit="10" stroke-width="0.661"/>
          <path id="Path_4493" data-name="Path 4493" d="M1621.776,1249.615a3.043,3.043,0,0,1,2.837-.143" transform="translate(-1621.776 -1249.188)" fill="none" stroke="#000" stroke-linecap="round" stroke-miterlimit="10" stroke-width="0.661"/>
          <path id="Path_4494" data-name="Path 4494" d="M1635.921,1249.615a3.053,3.053,0,0,0-2.843-.143" transform="translate(-1624.895 -1249.188)" fill="none" stroke="#000" stroke-linecap="round" stroke-miterlimit="10" stroke-width="0.661"/>
        </g>
      </g>
    </g>
  </g>
  <path id="Path_4495" data-name="Path 4495" d="M1618.22,1250.96l-.368-5.014.822-2.95s7.4-3.687,7.515-3.715,2.525-.255,2.639-.227,4.282,1.645,4.282,1.645l1.5,2.979-.454,5.9-.114,1.616s-8.735,1.39-9.047,1.39S1618.22,1250.96,1618.22,1250.96Z" transform="translate(-1475.838 -1173.574)" fill="#fed4d0"/>
  <rect id="Rectangle_442" data-name="Rectangle 442" width="14.009" height="4.642" transform="translate(88.736 111.595)" fill="#c1d6de"/>
  <path id="Path_4496" data-name="Path 4496" d="M1705.56,1413.387q-2.541.359-5.01.723" transform="translate(-1498.661 -1221.687)" fill="none"/>
  <rect id="Rectangle_443" data-name="Rectangle 443" width="114.13" height="73.078" transform="translate(65.228 23.132)" fill="none" stroke="#000" stroke-miterlimit="10" stroke-width="1.512"/>
  <g id="Group_584" data-name="Group 584" transform="translate(65.432 23.334)">
    <g id="Group_583" data-name="Group 583" clip-path="url(#clip-path-2)">
      <rect id="Rectangle_444" data-name="Rectangle 444" width="56.861" height="36.336" fill="#c9f8c1"/>
      <g id="Group_582" data-name="Group 582" transform="translate(18.926 13.406)">
        <g id="Group_581" data-name="Group 581">
          <g id="Group_579" data-name="Group 579" transform="translate(0 1.74)">
            <path id="Path_4497" data-name="Path 4497" d="M1538.451,1205.451a2.523,2.523,0,0,0-.224,1.253,2.087,2.087,0,0,0,1.846,2.1l.057-.02c-.109-.344-.2-.7-.282-1.057a13.784,13.784,0,0,1-.33-3.024c0-.072,0-.148.005-.221h-.053A1.921,1.921,0,0,0,1538.451,1205.451Z" transform="translate(-1538.219 -1202.514)" fill="#fed4d0"/>
            <path id="Path_4498" data-name="Path 4498" d="M1540.061,1202.845a29.912,29.912,0,0,1,15.93,0c.024.292.038.589.038.885.005.073.005.149.005.221a13.778,13.778,0,0,1-.326,3.024c-.081.363-.172.718-.282,1.062-.957,3.1-2.967,5.465-5.436,6.3a6.1,6.1,0,0,1-3.929,0c-2.469-.833-4.483-3.2-5.436-6.3-.109-.344-.2-.7-.282-1.057a13.784,13.784,0,0,1-.33-3.024c0-.072,0-.149.005-.221C1540.018,1203.434,1540.032,1203.137,1540.061,1202.845Z" transform="translate(-1538.714 -1201.765)" fill="#fed4d0"/>
            <path id="Path_4499" data-name="Path 4499" d="M1561.3,1208.786l.052.015a2.088,2.088,0,0,0,1.848-2.1,2.533,2.533,0,0,0-.225-1.253,1.92,1.92,0,0,0-1.019-.972h-.053c.005.072.005.149.005.221a13.786,13.786,0,0,1-.326,3.024C1561.5,1208.087,1561.411,1208.442,1561.3,1208.786Z" transform="translate(-1544.589 -1202.514)" fill="#fed4d0"/>
          </g>
          <g id="Group_580" data-name="Group 580" transform="translate(3.797)">
            <path id="Path_4500" data-name="Path 4500" d="M1552.4,1213.005a3.036,3.036,0,0,1-4.288,0" transform="translate(-1544.747 -1203.127)" fill="none" stroke="#8c6239" stroke-linecap="round" stroke-miterlimit="10" stroke-width="0.661"/>
            <path id="Path_4501" data-name="Path 4501" d="M1557.608,1199.79a3.041,3.041,0,0,0-2.837-.144" transform="translate(-1546.584 -1199.362)" fill="none" stroke="#000" stroke-linecap="round" stroke-miterlimit="10" stroke-width="0.661"/>
            <path id="Path_4502" data-name="Path 4502" d="M1543.463,1199.79a3.049,3.049,0,0,1,2.842-.144" transform="translate(-1543.463 -1199.362)" fill="none" stroke="#000" stroke-linecap="round" stroke-miterlimit="10" stroke-width="0.661"/>
          </g>
        </g>
      </g>
      <path id="Path_4503" data-name="Path 4503" d="M1555.858,1201.134l.369-5.015-.822-2.95s-7.4-3.687-7.514-3.715-2.525-.255-2.639-.227-4.282,1.646-4.282,1.646l-1.5,2.977.454,5.9.113,1.616s8.735,1.39,9.047,1.39S1555.858,1201.134,1555.858,1201.134Z" transform="translate(-1519.637 -1183.158)" fill="#fed4d0"/>
      <path id="Path_4504" data-name="Path 4504" d="M1539.479,1198.269c.026.214.061.426.088.625a2,2,0,0,0,.054.432,1.173,1.173,0,0,0,.092.149c.021.037.175,0,.226-.028a.06.06,0,0,0,.027-.053c.024-.351,0-1.048,0-1.055-.035-.405-.109-.8-.177-1.193.5-2.271-.854-7.185,2.389-6.8.327.039,1.132-1.28,1.52-1.249.911.07,1.033,1.537,1.858,1.2,2.16-.882,4.519-1.887,6.806-1.049a3.383,3.383,0,0,0,.31.214,4.821,4.821,0,0,1,.547.618c.146.191.286.387.416.589.617,3.026,1.795,3.553,2.192,6.062-.08.535-.2,1.062-.246,1.61,0,.007-.022.7,0,1.055a.061.061,0,0,0,.027.053c.052.025.206.066.226.028a1.3,1.3,0,0,0,.093-.149c.01-.043.019-.083.025-.124v.018c.588-3.979,1.465-9.276-1.015-12.764-1.982-2.787-8.546-4.782-12.8-1.437C1537.617,1186.073,1538.823,1195.812,1539.479,1198.269Zm9.005-9.944c.1-.029.211-.057.316-.082-.071.02-.142.041-.212.064C1548.553,1188.311,1548.519,1188.318,1548.484,1188.324Z" transform="translate(-1519.461 -1181.514)" fill="#783b2d"/>
      <path id="Path_4505" data-name="Path 4505" d="M1547.106,1186.689s3.664-2.552,6.935-1.177,6.15,1.9,6.869.982c0,0,2.029,4.252-1.767,6.476a8.216,8.216,0,0,1-9.356-.916c-1.243-1.374-3.271-3.6-4.383-3.14S1547.106,1186.689,1547.106,1186.689Z" transform="translate(-1521.205 -1182.021)" fill="#783b2d"/>
      <ellipse id="Ellipse_288" data-name="Ellipse 288" cx="0.938" cy="0.938" rx="0.938" ry="0.938" transform="translate(23.307 16.351)"/>
      <path id="Path_4506" data-name="Path 4506" d="M1556.914,1203.429a.938.938,0,1,0,.938.938A.939.939,0,0,0,1556.914,1203.429Z" transform="translate(-1524.194 -1187.078)"/>
      <line id="Line_10" data-name="Line 10" y2="2.014" transform="translate(28.078 19.108)" fill="none" stroke="#7d5d3e" stroke-linecap="round" stroke-miterlimit="10" stroke-width="0.661"/>
      <path id="Path_4507" data-name="Path 4507" d="M1554.581,1198.935a3.175,3.175,0,0,1,2.714-.541" transform="translate(-1523.809 -1185.66)" fill="none" stroke="#42210b" stroke-linecap="round" stroke-miterlimit="10" stroke-width="0.661"/>
      <path id="Path_4508" data-name="Path 4508" d="M1546.1,1198.935a3.163,3.163,0,0,0-2.708-.541" transform="translate(-1520.721 -1185.66)" fill="none" stroke="#42210b" stroke-linecap="round" stroke-miterlimit="10" stroke-width="0.661"/>
      <path id="Path_4509" data-name="Path 4509" d="M1531.028,1223.882a5.534,5.534,0,0,0-4.518,4.974l35.52,0a5.528,5.528,0,0,0-4.512-4.97c-1.474-.259-3.016.091-4.479-.224a5.023,5.023,0,0,1-.569-.163,11.927,11.927,0,0,1-16.4,0,4.8,4.8,0,0,1-.565.158C1534.042,1223.974,1532.5,1223.624,1531.028,1223.882Z" transform="translate(-1516.062 -1192.616)" fill="#dd7537"/>
      <path id="Path_4510" data-name="Path 4510" d="M1542.467,1219.2a5.145,5.145,0,0,1-2.752,2.278,11.926,11.926,0,0,0,16.4-.005,5.005,5.005,0,0,1-3.365-5.307,6.914,6.914,0,0,1-9.646.282A5.125,5.125,0,0,1,1542.467,1219.2Z" transform="translate(-1519.706 -1190.593)" fill="#fed4d0"/>
    </g>
  </g>
  <g id="Group_589" data-name="Group 589" transform="translate(122.293 23.334)">
    <g id="Group_588" data-name="Group 588" clip-path="url(#clip-path)">
      <rect id="Rectangle_446" data-name="Rectangle 446" width="56.862" height="36.336" fill="#f6edf1"/>
      <g id="Group_587" data-name="Group 587" transform="translate(8.379 5.006)">
        <g id="Group_585" data-name="Group 585">
          <path id="Path_4511" data-name="Path 4511" d="M1637.195,1224.146a6.433,6.433,0,0,1,5.1,5.78,83.408,83.408,0,0,1-40.1,0,6.428,6.428,0,0,1,5.1-5.776c1.665-.3,3.4.1,5.053-.258a5.882,5.882,0,0,0,.646-.182,13.474,13.474,0,0,0,18.519,0,5.359,5.359,0,0,0,.636.177C1633.788,1224.242,1635.525,1223.849,1637.195,1224.146Z" transform="translate(-1602.187 -1197.68)"/>
          <path id="Path_4512" data-name="Path 4512" d="M1642.57,1203.016a2.8,2.8,0,0,1,.339,1.354,2.242,2.242,0,0,1-2.014,2.422h-.038c.015-.172.019-.344.019-.517v-4.325h.02A1.971,1.971,0,0,1,1642.57,1203.016Z" transform="translate(-1612.859 -1191.675)" fill="#fed4d0"/>
          <path id="Path_4513" data-name="Path 4513" d="M1634.928,1198.033v4.325c0,.172,0,.345-.019.517-.02.254-.044.5-.086.746-.01.053-.024.106-.033.163-.033.186-.072.369-.12.555-.019.072-.043.148-.067.22-.048.159-.091.311-.143.464-.033.086-.072.172-.106.258-.052.13-.109.269-.171.392-.044.1-.091.187-.14.278-.057.115-.124.234-.19.344s-.111.187-.168.278c-.073.11-.143.211-.215.316s-.125.177-.2.263-.159.2-.24.3c-.072.077-.143.158-.211.234-.032.038-.067.072-.1.11-.053.053-.106.1-.163.148s-.1.11-.163.167c-.038.034-.081.067-.119.1-.086.077-.172.149-.264.22s-.206.167-.316.244c-.077.053-.148.1-.22.154a4.811,4.811,0,0,0,.594-2.321v-1.536a1.941,1.941,0,0,0-1.943-1.943h-5.761a1.944,1.944,0,0,0-1.943,1.943v1.536a4.786,4.786,0,0,0,.756,2.593c-.009-.005-.014-.01-.024-.014-.12-.077-.229-.143-.349-.22-.091-.062-.187-.125-.278-.192s-.21-.158-.316-.244c-.086-.072-.172-.143-.259-.22-.043-.033-.086-.067-.125-.1-.057-.057-.1-.114-.167-.167s-.106-.1-.158-.148c-.033-.038-.067-.072-.1-.11-.072-.077-.138-.158-.206-.234-.086-.1-.167-.2-.244-.3s-.13-.172-.192-.263-.153-.206-.22-.316c-.057-.091-.11-.182-.167-.278s-.13-.23-.191-.344c-.048-.091-.1-.182-.139-.278-.062-.124-.115-.263-.167-.392a2.565,2.565,0,0,1-.106-.263c-.052-.149-.1-.3-.143-.455-.024-.077-.052-.148-.072-.225-.048-.182-.082-.369-.119-.55-.009-.057-.024-.115-.034-.167a6.442,6.442,0,0,1-.081-.746c-.014-.172-.02-.344-.02-.517v-8.183a7.779,7.779,0,0,1,3.35-6.416l4.46,3.823,4.464-3.823a7.815,7.815,0,0,1,3.349,6.416Zm-3.043.607a.938.938,0,1,0-.937.938A.94.94,0,0,0,1631.885,1198.64Zm-8.474,0a.938.938,0,1,0-.938.938A.94.94,0,0,0,1623.411,1198.64Z" transform="translate(-1606.911 -1187.759)" fill="#fed4d0"/>
          <path id="Path_4514" data-name="Path 4514" d="M1632.505,1218.852a5.767,5.767,0,0,0,3.111,2.575,13.474,13.474,0,0,1-18.519,0,5.66,5.66,0,0,0,3.8-5.991c.052.053.11.1.158.148s.11.11.167.167c.039.034.082.067.125.1.086.077.172.148.259.22q.159.129.316.244c.091.067.187.13.278.192.12.077.229.143.349.22l.024.014a4.825,4.825,0,0,0,8.3-.272c.072-.048.143-.1.22-.153.11-.077.211-.158.316-.244s.177-.143.264-.22c.038-.033.082-.067.119-.1A5.728,5.728,0,0,0,1632.505,1218.852Z" transform="translate(-1606.302 -1195.396)" fill="#fed4d0"/>
          <path id="Path_4515" data-name="Path 4515" d="M1633.261,1210.792v1.536a4.823,4.823,0,1,1-9.647,0v-1.536a1.944,1.944,0,0,1,1.943-1.943h5.761A1.941,1.941,0,0,1,1633.261,1210.792Z" transform="translate(-1608.1 -1193.579)" fill="#fed4d0"/>
          <path id="Path_4516" data-name="Path 4516" d="M1635.027,1201.492a.938.938,0,1,1-.938.938A.94.94,0,0,1,1635.027,1201.492Z" transform="translate(-1610.991 -1191.549)"/>
          <path id="Path_4517" data-name="Path 4517" d="M1623.322,1201.492a.938.938,0,1,1-.938.938A.94.94,0,0,1,1623.322,1201.492Z" transform="translate(-1607.761 -1191.549)"/>
          <path id="Path_4518" data-name="Path 4518" d="M1618.554,1206.791h-.02a2.243,2.243,0,0,1-2.018-2.422,2.8,2.8,0,0,1,.34-1.354,1.971,1.971,0,0,1,1.679-1.067v4.325C1618.534,1206.447,1618.54,1206.619,1618.554,1206.791Z" transform="translate(-1606.142 -1191.675)" fill="#fed4d0"/>
        </g>
        <g id="Group_586" data-name="Group 586" transform="translate(14.795 6.223)">
          <line id="Line_11" data-name="Line 11" y2="2.015" transform="translate(5.408 6.477)" fill="none" stroke="#7d5d3e" stroke-linecap="round" stroke-miterlimit="10" stroke-width="0.661"/>
          <path id="Path_4519" data-name="Path 4519" d="M1626.839,1211.387a5.26,5.26,0,0,0,4.149.694" transform="translate(-1623.786 -1200.503)" fill="none" stroke="#a67c52" stroke-linecap="round" stroke-miterlimit="10" stroke-width="0.661"/>
          <path id="Path_4520" data-name="Path 4520" d="M1625.336,1197a3.175,3.175,0,0,0-2.714-.541" transform="translate(-1622.622 -1196.354)" fill="none" stroke="#42210b" stroke-linecap="round" stroke-miterlimit="10" stroke-width="0.661"/>
          <path id="Path_4521" data-name="Path 4521" d="M1633.818,1197a3.165,3.165,0,0,1,2.708-.541" transform="translate(-1625.712 -1196.354)" fill="none" stroke="#42210b" stroke-linecap="round" stroke-miterlimit="10" stroke-width="0.661"/>
        </g>
      </g>
    </g>
  </g>
  <g id="Group_594" data-name="Group 594" transform="translate(65.432 59.671)">
    <g id="Group_593" data-name="Group 593" clip-path="url(#clip-path-2)">
      <rect id="Rectangle_448" data-name="Rectangle 448" width="56.861" height="36.336" fill="#a9ddf3"/>
      <g id="Group_592" data-name="Group 592" transform="translate(10.671 2.605)">
        <g id="Group_590" data-name="Group 590">
          <path id="Path_4522" data-name="Path 4522" d="M1557.82,1275.109a5.7,5.7,0,0,1,4.517,5.125,73.9,73.9,0,0,1-35.52-.005,5.7,5.7,0,0,1,4.512-5.12c1.474-.258,3.015.091,4.479-.224a4.994,4.994,0,0,0,.569-.162,11.927,11.927,0,0,0,16.4,0,4.891,4.891,0,0,0,.565.158C1554.806,1275.2,1556.346,1274.85,1557.82,1275.109Z" transform="translate(-1526.817 -1245.695)" fill="#fff"/>
          <path id="Path_4523" data-name="Path 4523" d="M1543.528,1240.607a6.775,6.775,0,0,0-.943.785,6.934,6.934,0,0,0-2.029,4.9v3.422a1.74,1.74,0,0,0-1.484.943,13.088,13.088,0,0,1-1.321-2.68,12.08,12.08,0,0,1-.77-6.226A6.422,6.422,0,0,1,1539,1238.1a4.733,4.733,0,0,1,3.9-1.1,5.377,5.377,0,0,1,4.168-2.326,8.774,8.774,0,0,1,4.632.866,8.872,8.872,0,0,1,2.723,1.685,6.521,6.521,0,0,1,1.756,2.579,8.18,8.18,0,0,1,.387,3.1,17.931,17.931,0,0,0,0,3.5,4.346,4.346,0,0,0,1.657,2.77,6.436,6.436,0,0,1-3.034.761h0a7.227,7.227,0,0,1-.785-.02c-.216-.014-.427-.033-.641-.062a15,15,0,0,1-5.412-1.938A10,10,0,0,1,1543.528,1240.607Z" transform="translate(-1529.584 -1234.63)" fill="#8c6239"/>
          <path id="Path_4524" data-name="Path 4524" d="M1562.864,1257.677a1.99,1.99,0,0,1-1.78,2.144h-.02c.015-.153.02-.306.02-.454v-3.627a7.285,7.285,0,0,0,.785.02h0A2.2,2.2,0,0,1,1562.864,1257.677Z" transform="translate(-1536.269 -1240.456)" fill="#fed4d0"/>
          <path id="Path_4525" data-name="Path 4525" d="M1555.816,1252.192v3.627c0,.148-.005.3-.02.454a6.918,6.918,0,0,1-13.8,0c-.014-.153-.019-.306-.019-.454v-7.255a6.934,6.934,0,0,1,2.029-4.9,6.759,6.759,0,0,1,.943-.785,10,10,0,0,0,4.818,7.307,15.007,15.007,0,0,0,5.412,1.938C1555.389,1252.159,1555.6,1252.178,1555.816,1252.192Zm-2.7.33a.828.828,0,1,0-.828.828A.825.825,0,0,0,1553.116,1252.522Zm-7.5,0a.83.83,0,1,0-.833.828A.829.829,0,0,0,1545.613,1252.522Z" transform="translate(-1530.999 -1236.908)" fill="#fed4d0"/>
          <path id="Path_4526" data-name="Path 4526" d="M1553.669,1270.426a5.15,5.15,0,0,0,2.751,2.278,11.927,11.927,0,0,1-16.4,0,5.006,5.006,0,0,0,3.364-5.307,6.916,6.916,0,0,0,9.647.282A5.116,5.116,0,0,0,1553.669,1270.426Z" transform="translate(-1530.461 -1243.672)" fill="#fed4d0"/>
          <path id="Path_4527" data-name="Path 4527" d="M1555.906,1255.053a.828.828,0,1,1-.827.828A.825.825,0,0,1,1555.906,1255.053Z" transform="translate(-1534.617 -1240.266)"/>
          <path id="Path_4528" data-name="Path 4528" d="M1545.536,1255.053a.828.828,0,1,1-.828.828A.829.829,0,0,1,1545.536,1255.053Z" transform="translate(-1531.755 -1240.266)"/>
          <path id="Path_4529" data-name="Path 4529" d="M1541.31,1259.743h-.019a1.99,1.99,0,0,1-1.786-2.144,2.463,2.463,0,0,1,.3-1.2,1.74,1.74,0,0,1,1.484-.943v3.833C1541.292,1259.437,1541.3,1259.59,1541.31,1259.743Z" transform="translate(-1530.319 -1240.378)" fill="#fed4d0"/>
        </g>
        <g id="Group_591" data-name="Group 591" transform="translate(12.542 11.489)">
          <line id="Line_12" data-name="Line 12" y2="1.79" transform="translate(5.349 5.733)" fill="none" stroke="#f9c0b8" stroke-linecap="round" stroke-miterlimit="10" stroke-width="0.661"/>
          <path id="Path_4530" data-name="Path 4530" d="M1548.653,1263.81a4.662,4.662,0,0,0,3.675.617" transform="translate(-1545.385 -1254.172)" fill="none" stroke="#8c6239" stroke-linecap="round" stroke-miterlimit="10" stroke-width="0.661"/>
          <path id="Path_4531" data-name="Path 4531" d="M1544.14,1251.068a2.8,2.8,0,0,1,2.4-.478" transform="translate(-1544.14 -1250.499)" fill="none" stroke="#8c6239" stroke-linecap="round" stroke-miterlimit="10" stroke-width="0.661"/>
        </g>
      </g>
    </g>
  </g>
  <rect id="Rectangle_450" data-name="Rectangle 450" width="5.005" height="13.197" transform="translate(119.791 98.399)" fill="#c1d6de"/>
  <rect id="Rectangle_451" data-name="Rectangle 451" width="5.005" height="13.197" transform="translate(119.791 98.399)" fill="#c1d6de"/>
  <path id="Path_4532" data-name="Path 4532" d="M1588.948,1160.457a4.366,4.366,0,1,0,0,8.732,4.431,4.431,0,0,0,1.5-.258,4.369,4.369,0,0,0-1.5-8.474Z" transform="translate(-1466.657 -1151.884)" fill="#d3e7f2"/>
  <path id="Path_4533" data-name="Path 4533" d="M1590.091,1176.417h-6.79v2.933h10.589v-2.933Z" transform="translate(-1466.303 -1156.289)" fill="#d3e7f2"/>
  <path id="Path_4534" data-name="Path 4534" d="M1591.8,1163.45a2.2,2.2,0,1,1-2.2,2.2A2.2,2.2,0,0,1,1591.8,1163.45Z" transform="translate(-1468.042 -1152.71)"/>
  <path id="Path_4535" data-name="Path 4535" d="M1591.54,1172.161v3.081h-2.991v-3.081a4.379,4.379,0,0,0,1.493.258A4.433,4.433,0,0,0,1591.54,1172.161Z" transform="translate(-1467.751 -1155.114)" fill="#c1d6de"/>
  <path id="Path_4536" data-name="Path 4536" d="M1506.912,1177.541V1255h-1.656a3.23,3.23,0,0,1-3.23-3.23v-71a3.23,3.23,0,0,1,3.23-3.23Z" transform="translate(-1443.873 -1156.599)" fill="#c1d6de"/>
  <path id="Path_4537" data-name="Path 4537" d="M1488.79,1293.313h-1.67c-.022.521-.069,1.032-.129,1.536h1.84a2.071,2.071,0,0,1,0,4.143h-2.81a16.4,16.4,0,0,1-.644,1.527l.024.009h3.388a3.608,3.608,0,1,0,0-7.216Z" transform="translate(-1439.278 -1188.55)" fill="#ff6d6d"/>
  <path id="Path_4538" data-name="Path 4538" d="M1480.319,1291.424c0,.282-.005.565-.019.847a18.293,18.293,0,0,1-1.742,7.206,12.326,12.326,0,0,1-3.278,4.268h-9.575c-3-2.412-5.039-7.029-5.039-12.321q0-.338.012-.671a1.265,1.265,0,0,1,1.267-1.214h17.095a1.264,1.264,0,0,1,1.266,1.214Q1480.319,1291.087,1480.319,1291.424Z" transform="translate(-1432.458 -1187.508)" fill="#ff6d6d"/>
  <path id="Path_4539" data-name="Path 4539" d="M1655.931,1338.945a6.548,6.548,0,0,1-2.532.866,40.917,40.917,0,0,1-5.981.383c-3.866.048-6.986-.072-9.556.55-1.871.45-2.134,2-4.818,2.871-1.876-8.307-2.771-17.269,1.3-22.317s19.14-8.8,33.151-12.46a77.871,77.871,0,0,0,3-11.078c.541-2.608,1.005-5.259,1.3-7.575.12-.928.211-1.809.269-2.6q.057-.7.072-1.306c-.8-3.312-3.044-11.844-4.254-17.734-.278-1.345-.5-2.546-.637-3.522h0c-1.584,2.962-4.455,9.13-7.226,14.7-2.23,4.488-4.4,8.585-5.762,10.307a1.913,1.913,0,0,1-.129.158h-16.04c-.885-4.02.02-7.771,2.384-10.054a31.37,31.37,0,0,1,6.2-.478c1.713-3.541,7.512-16.652,9.953-22.639a41.335,41.335,0,0,1,7.881-12.948c2.3-2.575,4.651-3.521,8.809-3.666,1.66,2,4.776,4.9,11.594,4.948,7,.057,9.8-1.966,11.628-4.771,4.033.536,6.58,1.966,8.264,4.321,2.627,3.665,4.4,10.082,1.282,24.313-2.349,10.752-3.072,14.212-3.886,18.853a20.042,20.042,0,0,0-.258,2.12,37.291,37.291,0,0,0,.277,7.575,56.145,56.145,0,0,0,1.689,8.144c1.875,6.6,6.206,16.566,5.541,23.538-.459,4.834-2.138,7.159-3.531,8.227h-49.981Z" transform="translate(-1479.594 -1173.947)" fill="#f066a3"/>
  <path id="Path_4540" data-name="Path 4540" d="M1721.373,1374.744v8.556h-56.115v-8.556h56.115Z" transform="translate(-1488.921 -1211.023)" fill="#816280"/>
  <path id="Path_4541" data-name="Path 4541" d="M1720.4,1206.538c-3.1.976-5.7,1.058-10.508-1.712-2.446,3.665-9.37,3.99-13.279,1.468-.215.187-.436.369-.675.541-2.517,1.851-6.3,2.718-10.876,1.019a18.483,18.483,0,0,1-2.211-.99c-3.178,3.1-8.226,3.1-13.2,1.3a13.282,13.282,0,0,0,3.981-3.058c2.794-3.149,4.172-7.637,4.737-12.948a13.192,13.192,0,0,0-7.006-7.45c-.259-.029-.516-.062-.77-.1-.129-1.033-.583-1.8-1.125-1.8-.468,0-.871.579-1.052,1.411a21.685,21.685,0,0,1-2.34-.646c-6.431-2.153-9.375-6.69-9.049-12.064.407-6.68,5.211-11.977,11.078-11.24,3.909-7.087,13.192-10.589,19.14-11.484s14.824,1.628,16.939,8.8c9.164,2.565,11.671,8.714,12,16.288s-2.545,14.418-2.79,19.141S1714.211,1202.547,1720.4,1206.538Z" transform="translate(-1486.645 -1148.616)" fill="#564340"/>
  <path id="Path_4542" data-name="Path 4542" d="M1735.13,1309.161v7.575h-6.087a37.29,37.29,0,0,1-.277-7.575Z" transform="translate(-1506.424 -1192.923)" fill="#d3e7f2"/>
  <path id="Path_4543" data-name="Path 4543" d="M1706.111,1237.261a35.834,35.834,0,0,1,6.374.177c-1.823,2.8-4.627,4.828-11.628,4.771-6.819-.053-9.934-2.943-11.594-4.948,1.364-.048,2.929-.009,4.752.091a44.577,44.577,0,0,0-.048-7.307c4.579,1.7,8.359.832,10.876-1.019A25.329,25.329,0,0,0,1706.111,1237.261Z" transform="translate(-1495.546 -1170.808)" fill="#fed4d0"/>
  <path id="Path_4544" data-name="Path 4544" d="M1705.56,1386.56v19.423q-2.541.359-5.01.723V1386.56Z" transform="translate(-1498.661 -1214.284)" fill="#cdbdc1"/>
  <path id="Path_4545" data-name="Path 4545" d="M1680.827,1297c-.01.406-.033.842-.072,1.306a20.484,20.484,0,0,1-1.737,2.6h-16.04c-.009-.052-.024-.1-.034-.158,1.364-1.723,3.532-5.819,5.762-10.307.9-.062,1.842-.086,2.852-.067.9-1.861,2.934-6.378,5.015-11.111C1677.783,1285.159,1680.027,1293.691,1680.827,1297Z" transform="translate(-1488.283 -1184.674)" fill="#c85588"/>
  <path id="Path_4546" data-name="Path 4546" d="M1612.442,1309.161h1.468c-.3,2.316-.76,4.967-1.3,7.575h-190.9v-7.575h190.735Z" transform="translate(-1421.706 -1192.923)" fill="#d3e7f2"/>
  <path id="Path_4547" data-name="Path 4547" d="M1681.833,1205.486c-.565,5.312-1.943,9.8-4.737,12.948a10.308,10.308,0,0,1-2.229-.728c-1.723-.8-2.866-2.608-3.633-5.106-.048-.153-.1-.306-.138-.464-1.1-3.9-1.373-9.336-1.555-15.231a21.685,21.685,0,0,0,2.34.646,4.715,4.715,0,0,0-.106,1c0,1.331.517,2.412,1.158,2.412s1.163-1.082,1.163-2.412a4.95,4.95,0,0,0-.039-.617c.254.034.512.067.771.1A13.192,13.192,0,0,1,1681.833,1205.486Z" transform="translate(-1490.103 -1161.943)" fill="#fed4d0"/>
  <path id="Path_4548" data-name="Path 4548" d="M1674.73,1395.638a114.162,114.162,0,0,0,2.063,13.408q-3.467.61-6.708,1.244a121.425,121.425,0,0,1-2.317-14.652,46.32,46.32,0,0,0-1.235-9.078h6.963A46.809,46.809,0,0,1,1674.73,1395.638Z" transform="translate(-1489.273 -1214.284)" fill="#f9c0b8"/>
  <path id="Path_4549" data-name="Path 4549" d="M1674.909,1198.185a4.95,4.95,0,0,1,.038.617c0,1.331-.521,2.412-1.163,2.412s-1.158-1.082-1.158-2.412a4.706,4.706,0,0,1,.106-1C1673.426,1197.951,1674.149,1198.08,1674.909,1198.185Z" transform="translate(-1490.955 -1162.189)"/>
  <path id="Path_4550" data-name="Path 4550" d="M1673.825,1195.849c.541,0,1,.765,1.125,1.8-.76-.1-1.484-.235-2.177-.387C1672.954,1196.427,1673.357,1195.849,1673.825,1195.849Z" transform="translate(-1490.995 -1161.652)"/>
  <path id="Path_4551" data-name="Path 4551" d="M1660.528,1393.194a121.444,121.444,0,0,0,2.317,14.652q-4.279.826-8.126,1.66l-14.417-30.869c2.569-.622,5.689-.5,9.556-.55a40.939,40.939,0,0,0,5.981-.383,14.215,14.215,0,0,1,2.532,3.842v2.57h.923A46.319,46.319,0,0,1,1660.528,1393.194Z" transform="translate(-1482.034 -1211.84)" fill="#fed4d0"/>
  <path id="Path_4552" data-name="Path 4552" d="M1664.293,1376.508v4.708a14.22,14.22,0,0,0-2.532-3.842A6.55,6.55,0,0,0,1664.293,1376.508Z" transform="translate(-1487.956 -1211.51)" fill="#f9c0b8"/>
  <path id="Path_4553" data-name="Path 4553" d="M1608.868,1300.084h-4.388c.718-6.135,2.373-6.437,4.135-5.5,1.038-1.895,3.052-2.138,4.947.12,1.345-1.77,4.216.488,5.924,3.3.551-.119,1.082-.244,1.593-.363,4.968-1.168,8.236-2.283,11.642-2.915h.005c.1-.023.2-.038.3-.057-2.364,2.283-3.268,6.034-2.383,10.054h-15.327A22.152,22.152,0,0,1,1608.868,1300.084Z" transform="translate(-1472.148 -1188.487)" fill="#fed4d0"/>
  <path id="Path_4554" data-name="Path 4554" d="M1636.092,1294.705c.7-.924,1.809-.751,2.957.023-3.406.632-6.675,1.747-11.642,2.915.833-3.757,2.25-3.852,3.737-3.058C1632.183,1292.69,1634.2,1292.447,1636.092,1294.705Z" transform="translate(-1478.475 -1188.487)" fill="#f9c0b8"/>
  <path id="Path_4555" data-name="Path 4555" d="M1604.036,1307.392h-40.42v-4.641h33.975A22.144,22.144,0,0,0,1604.036,1307.392Z" transform="translate(-1460.87 -1191.154)" fill="#d3e7f2"/>
  <path id="Path_4556" data-name="Path 4556" d="M1673.741,1216.655a2.572,2.572,0,0,1-1.914,1.3c-.048-.153-.1-.306-.138-.464a2.1,2.1,0,0,0,1.622-1.048.239.239,0,1,1,.43.211Z" transform="translate(-1490.696 -1167.298)" fill="#e5729c"/>
  <rect id="Rectangle_452" data-name="Rectangle 452" width="66.541" height="7.575" transform="translate(0 116.238)" fill="#c1d6de"/>
  <path id="Path_4557" data-name="Path 4557" d="M1579,1231.207" transform="translate(-1465.116 -1171.41)" fill="none" stroke="#fff" stroke-linecap="round" stroke-miterlimit="10" stroke-width="0.432"/>
  <path id="Path_4558" data-name="Path 4558" d="M1581.717,1233.923" transform="translate(-1465.866 -1172.159)" fill="none" stroke="#fff" stroke-linecap="round" stroke-miterlimit="10" stroke-width="0.432"/>
  <path id="Path_4559" data-name="Path 4559" d="M1584.434,1231.207" transform="translate(-1466.616 -1171.41)" fill="none" stroke="#fff" stroke-linecap="round" stroke-miterlimit="10" stroke-width="0.432"/>
  <path id="Path_4560" data-name="Path 4560" d="M1583.374,1235.546" transform="translate(-1466.323 -1172.607)" fill="none" stroke="#fff" stroke-linecap="round" stroke-miterlimit="10" stroke-width="0.432"/>
  <path id="Path_4561" data-name="Path 4561" d="M1580.061,1235.546" transform="translate(-1465.409 -1172.607)" fill="none" stroke="#fff" stroke-linecap="round" stroke-miterlimit="10" stroke-width="0.432"/>
  <path id="Path_4562" data-name="Path 4562" d="M1630.239,1187.836a6.621,6.621,0,0,1,.943.7,5.886,5.886,0,0,1,2.029,4.375v3.059a1.769,1.769,0,0,1,1.484.842,11.2,11.2,0,0,0,1.321-2.4,9.748,9.748,0,0,0,.771-5.565,5.613,5.613,0,0,0-2.019-3.264,5.137,5.137,0,0,0-3.9-.98,5.555,5.555,0,0,0-4.168-2.079,9.684,9.684,0,0,0-4.631.775,9.113,9.113,0,0,0-2.723,1.505,5.84,5.84,0,0,0-1.756,2.306,6.6,6.6,0,0,0-.388,2.767,14.257,14.257,0,0,1,0,3.131,3.829,3.829,0,0,1-1.655,2.477,7.041,7.041,0,0,0,3.034.681h0c.259,0,.522,0,.785-.017.216-.013.427-.03.641-.056a16.187,16.187,0,0,0,5.412-1.732A8.951,8.951,0,0,0,1630.239,1187.836Z" transform="translate(-1475.201 -1157.966)" fill="#8c6239"/>
  <path id="Path_4563" data-name="Path 4563" d="M1631.547,1234.845c-4.251-3.345-10.814-1.351-12.8,1.437-2.48,3.488-1.6,8.785-1.016,12.764v-.017c.007.04.015.081.026.123a1.263,1.263,0,0,0,.093.15c.021.038.175,0,.226-.028a.062.062,0,0,0,.028-.054c.023-.352,0-1.048,0-1.055-.046-.548-.166-1.075-.245-1.61.4-2.51,1.574-3.036,2.192-6.063.129-.2.27-.4.416-.589a4.833,4.833,0,0,1,.547-.618,3.281,3.281,0,0,0,.31-.214c2.288-.839,4.646.167,6.806,1.048.826.337.948-1.129,1.859-1.2.389-.03,1.193,1.288,1.521,1.25,3.241-.383,1.886,4.532,2.388,6.8-.069.394-.143.788-.177,1.193,0,.007-.022.7,0,1.055a.064.064,0,0,0,.028.054c.052.025.206.065.226.028a1.174,1.174,0,0,0,.093-.15,1.982,1.982,0,0,0,.054-.431c.026-.2.062-.411.087-.625C1634.87,1245.638,1636.075,1235.9,1631.547,1234.845Zm-6.443,3.287c-.071-.022-.141-.043-.212-.063q.158.038.316.082Z" transform="translate(-1475.629 -1171.93)" fill="#343434"/>
  <path id="Path_4564" data-name="Path 4564" d="M1627.145,1236.515s-3.664-2.551-6.935-1.177-6.15,1.9-6.87.981c0,0-2.028,4.252,1.767,6.477a8.214,8.214,0,0,0,9.355-.916c1.244-1.374,3.272-3.6,4.384-3.141S1627.145,1236.515,1627.145,1236.515Z" transform="translate(-1474.444 -1172.437)" fill="#343434"/>
  <path id="Path_4565" data-name="Path 4565" d="M1634.543,1253.255a.938.938,0,1,1-.938.938A.94.94,0,0,1,1634.543,1253.255Z" transform="translate(-1480.186 -1177.495)"/>
  <path id="Path_4566" data-name="Path 4566" d="M1622.839,1253.255a.938.938,0,1,1-.938.938A.939.939,0,0,1,1622.839,1253.255Z" transform="translate(-1476.956 -1177.495)"/>
  <line id="Line_13" data-name="Line 13" y2="2.014" transform="translate(150.525 78.517)" fill="none" stroke="#7d5d3e" stroke-linecap="round" stroke-miterlimit="10" stroke-width="0.661"/>
  <path id="Path_4567" data-name="Path 4567" d="M1624.852,1248.76a3.178,3.178,0,0,0-2.713-.541" transform="translate(-1477.021 -1176.076)" fill="none" stroke="#42210b" stroke-linecap="round" stroke-miterlimit="10" stroke-width="0.661"/>
  <path id="Path_4568" data-name="Path 4568" d="M1633.334,1248.76a3.168,3.168,0,0,1,2.708-.541" transform="translate(-1480.111 -1176.076)" fill="none" stroke="#42210b" stroke-linecap="round" stroke-miterlimit="10" stroke-width="0.661"/>
  <path id="Path_4569" data-name="Path 4569" d="M1635.9,1273.708a5.537,5.537,0,0,1,4.517,4.975l-35.521-.005a5.53,5.53,0,0,1,4.512-4.97c1.474-.258,3.015.091,4.479-.224a4.813,4.813,0,0,0,.57-.162,11.926,11.926,0,0,0,16.4,0,4.708,4.708,0,0,0,.564.158C1632.885,1273.8,1634.426,1273.45,1635.9,1273.708Z" transform="translate(-1472.263 -1183.032)" fill="#77be57"/>
  <path id="Path_4570" data-name="Path 4570" d="M1631.749,1269.025a5.138,5.138,0,0,0,2.752,2.278,11.926,11.926,0,0,1-16.4,0,5,5,0,0,0,3.364-5.307,6.915,6.915,0,0,0,9.647.282A5.116,5.116,0,0,0,1631.749,1269.025Z" transform="translate(-1475.907 -1181.009)" fill="#fed4d0"/>
</svg>
