<svg id="Group_573" data-name="Group 573" xmlns="http://www.w3.org/2000/svg" xmlns:xlink="http://www.w3.org/1999/xlink" width="233.758" height="197.666" viewBox="0 0 233.758 197.666">
  <defs>
    <clipPath id="clip-path">
      <rect id="Rectangle_434" data-name="Rectangle 434" width="56.861" height="36.336" fill="none"/>
    </clipPath>
    <clipPath id="clip-path-2">
      <rect id="Rectangle_435" data-name="Rectangle 435" width="106.181" height="67.852" fill="none"/>
    </clipPath>
  </defs>
  <path id="Path_4450" data-name="Path 4450" d="M1201.859,1177.541V1255H1083.351v-77.457Z" transform="translate(-1020.311 -1156.599)" fill="#d3e7f2"/>
  <rect id="Rectangle_431" data-name="Rectangle 431" width="113.723" height="72.672" transform="translate(65.432 23.334)" fill="#a9ddf3"/>
  <rect id="Rectangle_432" data-name="Rectangle 432" width="14.01" height="4.642" transform="translate(88.737 111.595)" fill="#c1d6de"/>
  <path id="Path_4451" data-name="Path 4451" d="M1280.137,1413.387q-2.54.359-5.01.723" transform="translate(-1073.237 -1221.687)" fill="none"/>
  <rect id="Rectangle_433" data-name="Rectangle 433" width="114.129" height="73.078" transform="translate(65.229 23.132)" fill="none" stroke="#000" stroke-miterlimit="10" stroke-width="1.512"/>
  <g id="Group_567" data-name="Group 567" transform="translate(65.432 23.334)">
    <g id="Group_566" data-name="Group 566" clip-path="url(#clip-path)">
      <path id="Path_4452" data-name="Path 4452" d="M1126.742,1190.221c.105-.029.21-.056.316-.082q-.107.03-.212.064C1126.811,1190.208,1126.776,1190.214,1126.742,1190.221Z" transform="translate(-1097.718 -1183.41)" fill="#783b2d"/>
    </g>
  </g>
  <g id="Group_572" data-name="Group 572" transform="translate(68.073 27.648)">
    <g id="Group_571" data-name="Group 571" clip-path="url(#clip-path-2)">
      <g id="Group_570" data-name="Group 570" transform="translate(19.927 4.866)">
        <g id="Group_568" data-name="Group 568">
          <path id="Path_4453" data-name="Path 4453" d="M1175.718,1269.11a10.645,10.645,0,0,1,8.435,9.569c-20.087,5.389-46.241,5.389-66.328-.009a10.637,10.637,0,0,1,8.426-9.561c2.753-.482,5.63.17,8.364-.42a9.1,9.1,0,0,0,1.063-.3,22.269,22.269,0,0,0,30.622.009,8.809,8.809,0,0,0,1.054.295C1170.089,1269.28,1172.965,1268.628,1175.718,1269.11Z" transform="translate(-1117.825 -1214.184)" fill="#fff"/>
          <path id="Path_4454" data-name="Path 4454" d="M1149.029,1204.684a12.68,12.68,0,0,0-1.76,1.465,12.946,12.946,0,0,0-3.789,9.141v6.389a3.251,3.251,0,0,0-2.77,1.76,24.331,24.331,0,0,1-2.466-5,22.577,22.577,0,0,1-1.439-11.626,12,12,0,0,1,3.771-6.818,8.847,8.847,0,0,1,7.283-2.046,10.041,10.041,0,0,1,7.783-4.342,16.385,16.385,0,0,1,8.649,1.617,16.609,16.609,0,0,1,5.085,3.145,12.179,12.179,0,0,1,3.279,4.816,15.281,15.281,0,0,1,.724,5.782,33.4,33.4,0,0,0,0,6.54,8.1,8.1,0,0,0,3.092,5.174,11.992,11.992,0,0,1-5.665,1.42h-.01a13.255,13.255,0,0,1-1.465-.036c-.4-.027-.795-.063-1.2-.116a27.979,27.979,0,0,1-10.106-3.619A18.667,18.667,0,0,1,1149.029,1204.684Z" transform="translate(-1122.991 -1193.524)" fill="#8c6239"/>
          <path id="Path_4455" data-name="Path 4455" d="M1185.137,1236.561c0,2.207-1.492,4-3.324,4h-.035c.027-.286.035-.571.035-.849v-6.773a13.194,13.194,0,0,0,1.465.036h.01A4.115,4.115,0,0,1,1185.137,1236.561Z" transform="translate(-1135.475 -1204.402)" fill="#fed4d0"/>
          <path id="Path_4456" data-name="Path 4456" d="M1171.973,1226.317v6.773c0,.277-.009.562-.036.849a12.918,12.918,0,0,1-25.779,0c-.027-.286-.036-.571-.036-.849v-13.547a12.946,12.946,0,0,1,3.789-9.141,12.673,12.673,0,0,1,1.76-1.465,18.667,18.667,0,0,0,9,13.644,27.979,27.979,0,0,0,10.106,3.619C1171.178,1226.255,1171.572,1226.291,1171.973,1226.317Zm-5.04.617a1.545,1.545,0,1,0-1.546,1.546A1.541,1.541,0,0,0,1166.934,1226.934Zm-14.011,0a1.55,1.55,0,1,0-1.554,1.546A1.548,1.548,0,0,0,1152.923,1226.934Z" transform="translate(-1125.635 -1197.778)" fill="#fed4d0"/>
          <path id="Path_4457" data-name="Path 4457" d="M1167.967,1260.365a9.6,9.6,0,0,0,5.138,4.254,22.27,22.27,0,0,1-30.622-.009,9.344,9.344,0,0,0,6.282-9.91,12.912,12.912,0,0,0,18.014.527A9.544,9.544,0,0,0,1167.967,1260.365Z" transform="translate(-1124.63 -1210.407)" fill="#fed4d0"/>
          <path id="Path_4458" data-name="Path 4458" d="M1172.142,1231.658a1.546,1.546,0,1,1-1.545,1.547A1.541,1.541,0,0,1,1172.142,1231.658Z" transform="translate(-1132.389 -1204.048)"/>
          <path id="Path_4459" data-name="Path 4459" d="M1152.779,1231.658a1.546,1.546,0,1,1-1.546,1.547A1.548,1.548,0,0,1,1152.779,1231.658Z" transform="translate(-1127.045 -1204.048)"/>
          <path id="Path_4460" data-name="Path 4460" d="M1144.889,1240.417h-.036c-1.841,0-3.333-1.8-3.333-4a4.611,4.611,0,0,1,.563-2.243,3.25,3.25,0,0,1,2.769-1.76v7.158C1144.853,1239.846,1144.862,1240.131,1144.889,1240.417Z" transform="translate(-1124.364 -1204.256)" fill="#fed4d0"/>
        </g>
        <g id="Group_569" data-name="Group 569" transform="translate(23.419 21.454)">
          <line id="Line_9" data-name="Line 9" y2="3.342" transform="translate(9.99 10.705)" fill="none" stroke="#f9c0b8" stroke-linecap="round" stroke-miterlimit="10" stroke-width="1.234"/>
          <path id="Path_4461" data-name="Path 4461" d="M1158.6,1248.01c1.76,1.332,4.11,1.609,6.862,1.153" transform="translate(-1152.498 -1230.014)" fill="none" stroke="#8c6239" stroke-linecap="round" stroke-miterlimit="10" stroke-width="1.234"/>
          <path id="Path_4462" data-name="Path 4462" d="M1150.171,1224.218a5.237,5.237,0,0,1,4.477-.893" transform="translate(-1150.171 -1223.155)" fill="none" stroke="#8c6239" stroke-linecap="round" stroke-miterlimit="10" stroke-width="1.234"/>
        </g>
      </g>
    </g>
  </g>
  <rect id="Rectangle_436" data-name="Rectangle 436" width="5.005" height="13.197" transform="translate(119.791 98.399)" fill="#c1d6de"/>
  <rect id="Rectangle_437" data-name="Rectangle 437" width="5.005" height="13.197" transform="translate(119.791 98.399)" fill="#c1d6de"/>
  <path id="Path_4463" data-name="Path 4463" d="M1163.524,1160.457a4.366,4.366,0,1,0,0,8.732,4.425,4.425,0,0,0,1.5-.258,4.369,4.369,0,0,0-1.5-8.474Z" transform="translate(-1041.233 -1151.884)" fill="#d3e7f2"/>
  <path id="Path_4464" data-name="Path 4464" d="M1164.668,1176.417h-6.79v2.933h10.589v-2.933Z" transform="translate(-1040.879 -1156.289)" fill="#d3e7f2"/>
  <path id="Path_4465" data-name="Path 4465" d="M1166.375,1163.45a2.2,2.2,0,1,1-2.2,2.2A2.2,2.2,0,0,1,1166.375,1163.45Z" transform="translate(-1042.618 -1152.71)"/>
  <path id="Path_4466" data-name="Path 4466" d="M1166.116,1172.161v3.081h-2.99v-3.081a4.38,4.38,0,0,0,1.493.258A4.427,4.427,0,0,0,1166.116,1172.161Z" transform="translate(-1042.327 -1155.114)" fill="#c1d6de"/>
  <path id="Path_4467" data-name="Path 4467" d="M1081.489,1177.541V1255h-1.656a3.23,3.23,0,0,1-3.23-3.23v-71a3.23,3.23,0,0,1,3.23-3.23Z" transform="translate(-1018.449 -1156.599)" fill="#c1d6de"/>
  <path id="Path_4468" data-name="Path 4468" d="M1063.366,1293.313h-1.67c-.022.521-.068,1.032-.128,1.536h1.84a2.071,2.071,0,0,1,0,4.143H1060.6a16.271,16.271,0,0,1-.644,1.527l.024.009h3.389a3.608,3.608,0,0,0,0-7.216Z" transform="translate(-1013.854 -1188.55)" fill="#ff6d6d"/>
  <path id="Path_4469" data-name="Path 4469" d="M1054.9,1291.424c0,.282,0,.565-.019.847a18.278,18.278,0,0,1-1.742,7.206,12.319,12.319,0,0,1-3.277,4.268h-9.575c-3-2.412-5.038-7.029-5.038-12.321,0-.225,0-.449.012-.671a1.265,1.265,0,0,1,1.267-1.214h17.1a1.265,1.265,0,0,1,1.266,1.214Q1054.9,1291.087,1054.9,1291.424Z" transform="translate(-1007.034 -1187.508)" fill="#ff6d6d"/>
  <path id="Path_4470" data-name="Path 4470" d="M1230.507,1338.945a6.544,6.544,0,0,1-2.531.866,40.931,40.931,0,0,1-5.982.383c-3.866.048-6.986-.072-9.556.55-1.871.45-2.134,2-4.818,2.871-1.876-8.307-2.771-17.269,1.3-22.317s19.14-8.8,33.151-12.46a78.012,78.012,0,0,0,3-11.078c.541-2.608,1-5.259,1.3-7.575.12-.928.211-1.809.268-2.6q.058-.7.072-1.306c-.8-3.312-3.043-11.844-4.254-17.734-.278-1.345-.5-2.546-.636-3.522h-.005c-1.583,2.962-4.455,9.13-7.225,14.7-2.231,4.488-4.4,8.585-5.762,10.307-.043.058-.086.11-.129.158h-16.04c-.885-4.02.019-7.771,2.383-10.054a31.381,31.381,0,0,1,6.2-.478c1.713-3.541,7.512-16.652,9.953-22.639a41.344,41.344,0,0,1,7.881-12.948c2.3-2.575,4.651-3.521,8.81-3.666,1.66,2,4.776,4.9,11.594,4.948,7,.057,9.806-1.966,11.628-4.771,4.034.536,6.58,1.966,8.264,4.321,2.627,3.665,4.4,10.082,1.283,24.313-2.349,10.752-3.072,14.212-3.886,18.853a19.848,19.848,0,0,0-.258,2.12,37.352,37.352,0,0,0,.277,7.575,56.242,56.242,0,0,0,1.689,8.144c1.876,6.6,6.207,16.566,5.541,23.538-.459,4.834-2.138,7.159-3.531,8.227h-49.981Z" transform="translate(-1054.17 -1173.947)" fill="#f066a3"/>
  <path id="Path_4471" data-name="Path 4471" d="M1295.95,1374.744v8.556h-56.116v-8.556h56.116Z" transform="translate(-1063.497 -1211.023)" fill="#816280"/>
  <path id="Path_4472" data-name="Path 4472" d="M1294.979,1206.538c-3.1.976-5.7,1.058-10.508-1.712-2.446,3.665-9.369,3.99-13.278,1.468-.216.187-.435.369-.676.541-2.517,1.851-6.3,2.718-10.876,1.019a18.474,18.474,0,0,1-2.21-.99c-3.177,3.1-8.226,3.1-13.2,1.3a13.291,13.291,0,0,0,3.981-3.058c2.794-3.149,4.173-7.637,4.737-12.948a13.2,13.2,0,0,0-7.005-7.45c-.259-.029-.517-.062-.77-.1-.13-1.033-.584-1.8-1.124-1.8-.469,0-.871.579-1.053,1.411a21.708,21.708,0,0,1-2.34-.646c-6.431-2.153-9.374-6.69-9.049-12.064.407-6.68,5.211-11.977,11.078-11.24,3.91-7.087,13.193-10.589,19.14-11.484s14.825,1.628,16.94,8.8c9.163,2.565,11.671,8.714,12,16.288s-2.546,14.418-2.79,19.141S1288.787,1202.547,1294.979,1206.538Z" transform="translate(-1061.221 -1148.616)" fill="#564340"/>
  <path id="Path_4473" data-name="Path 4473" d="M1309.706,1309.161v7.575h-6.087a37.352,37.352,0,0,1-.277-7.575Z" transform="translate(-1081 -1192.923)" fill="#d3e7f2"/>
  <path id="Path_4474" data-name="Path 4474" d="M1280.687,1237.261a35.83,35.83,0,0,1,6.374.177c-1.822,2.8-4.627,4.828-11.628,4.771-6.818-.053-9.933-2.943-11.594-4.948,1.363-.048,2.929-.009,4.751.091a44.564,44.564,0,0,0-.048-7.307c4.58,1.7,8.36.832,10.876-1.019A25.349,25.349,0,0,0,1280.687,1237.261Z" transform="translate(-1070.122 -1170.808)" fill="#fed4d0"/>
  <path id="Path_4475" data-name="Path 4475" d="M1280.137,1386.56v19.423q-2.54.359-5.01.723V1386.56Z" transform="translate(-1073.237 -1214.284)" fill="#cdbdc1"/>
  <path id="Path_4476" data-name="Path 4476" d="M1255.4,1297q-.014.609-.072,1.306a20.415,20.415,0,0,1-1.737,2.6h-16.04c-.009-.052-.024-.1-.033-.158,1.363-1.723,3.531-5.819,5.762-10.307.9-.062,1.842-.086,2.851-.067.9-1.861,2.934-6.378,5.015-11.111C1252.36,1285.159,1254.6,1293.691,1255.4,1297Z" transform="translate(-1062.859 -1184.674)" fill="#c85588"/>
  <path id="Path_4477" data-name="Path 4477" d="M1187.017,1309.161h1.469c-.3,2.316-.761,4.967-1.3,7.575h-190.9v-7.575h190.735Z" transform="translate(-996.282 -1192.923)" fill="#d3e7f2"/>
  <path id="Path_4478" data-name="Path 4478" d="M1256.41,1205.486c-.565,5.312-1.943,9.8-4.737,12.948a10.305,10.305,0,0,1-2.23-.728c-1.723-.8-2.866-2.608-3.632-5.106-.048-.153-.1-.306-.139-.464-1.1-3.9-1.373-9.336-1.555-15.231a21.745,21.745,0,0,0,2.34.646,4.707,4.707,0,0,0-.106,1c0,1.331.517,2.412,1.158,2.412s1.163-1.082,1.163-2.412a5.1,5.1,0,0,0-.038-.617c.253.034.512.067.77.1A13.2,13.2,0,0,1,1256.41,1205.486Z" transform="translate(-1064.679 -1161.943)" fill="#fed4d0"/>
  <path id="Path_4479" data-name="Path 4479" d="M1249.307,1395.638a114.059,114.059,0,0,0,2.063,13.408q-3.468.61-6.709,1.244a121.5,121.5,0,0,1-2.316-14.652,46.413,46.413,0,0,0-1.234-9.078h6.962A46.749,46.749,0,0,1,1249.307,1395.638Z" transform="translate(-1063.849 -1214.284)" fill="#f9c0b8"/>
  <path id="Path_4480" data-name="Path 4480" d="M1249.486,1198.185a5.093,5.093,0,0,1,.038.617c0,1.331-.521,2.412-1.163,2.412s-1.158-1.082-1.158-2.412a4.7,4.7,0,0,1,.106-1C1248,1197.951,1248.725,1198.08,1249.486,1198.185Z" transform="translate(-1065.531 -1162.189)"/>
  <path id="Path_4481" data-name="Path 4481" d="M1248.4,1195.849c.54,0,.995.765,1.124,1.8-.761-.1-1.483-.235-2.177-.387C1247.531,1196.427,1247.932,1195.849,1248.4,1195.849Z" transform="translate(-1065.571 -1161.652)"/>
  <path id="Path_4482" data-name="Path 4482" d="M1235.105,1393.194a121.471,121.471,0,0,0,2.316,14.652q-4.279.826-8.125,1.66l-14.418-30.869c2.569-.622,5.689-.5,9.556-.55a40.946,40.946,0,0,0,5.982-.383,14.212,14.212,0,0,1,2.531,3.842v2.57h.924A46.421,46.421,0,0,1,1235.105,1393.194Z" transform="translate(-1056.61 -1211.84)" fill="#fed4d0"/>
  <path id="Path_4483" data-name="Path 4483" d="M1238.869,1376.508v4.708a14.208,14.208,0,0,0-2.531-3.842A6.542,6.542,0,0,0,1238.869,1376.508Z" transform="translate(-1062.533 -1211.51)" fill="#f9c0b8"/>
  <path id="Path_4484" data-name="Path 4484" d="M1183.445,1300.084h-4.388c.718-6.135,2.373-6.437,4.135-5.5,1.037-1.895,3.052-2.138,4.947.12,1.345-1.77,4.215.488,5.924,3.3.55-.119,1.081-.244,1.594-.363,4.967-1.168,8.235-2.283,11.642-2.915h0c.1-.023.2-.038.3-.057-2.364,2.283-3.268,6.034-2.383,10.054h-15.327A22.134,22.134,0,0,1,1183.445,1300.084Z" transform="translate(-1046.724 -1188.487)" fill="#fed4d0"/>
  <path id="Path_4485" data-name="Path 4485" d="M1210.669,1294.705c.7-.924,1.809-.751,2.957.023-3.407.632-6.675,1.747-11.642,2.915.833-3.757,2.249-3.852,3.737-3.058C1206.76,1292.69,1208.774,1292.447,1210.669,1294.705Z" transform="translate(-1053.051 -1188.487)" fill="#f9c0b8"/>
  <path id="Path_4486" data-name="Path 4486" d="M1178.613,1307.392h-40.42v-4.641h33.975A22.13,22.13,0,0,0,1178.613,1307.392Z" transform="translate(-1035.446 -1191.154)" fill="#d3e7f2"/>
  <path id="Path_4487" data-name="Path 4487" d="M1248.318,1216.655a2.574,2.574,0,0,1-1.914,1.3c-.048-.153-.1-.306-.139-.464a2.093,2.093,0,0,0,1.622-1.048.24.24,0,0,1,.431.211Z" transform="translate(-1065.272 -1167.298)" fill="#e5729c"/>
  <rect id="Rectangle_438" data-name="Rectangle 438" width="66.542" height="7.575" transform="translate(0 116.238)" fill="#c1d6de"/>
</svg>
