<svg xmlns="http://www.w3.org/2000/svg" width="37.527" height="37.527" viewBox="0 0 37.527 37.527">
  <g id="Group_554" data-name="Group 554" transform="translate(-369.448 -246.142)">
    <path id="Path_399" data-name="Path 399" d="M398.844,283.669H377.579a8.131,8.131,0,0,1-8.131-8.131V254.273a8.131,8.131,0,0,1,8.131-8.131h21.265a8.131,8.131,0,0,1,8.131,8.131v21.265a8.131,8.131,0,0,1-8.131,8.131" transform="translate(0 0)" fill="#00b900"/>
    <path id="Path_400" data-name="Path 400" d="M412.889,276.5c0-6.114-6.129-11.088-13.663-11.088s-13.663,4.974-13.663,11.088c0,5.481,4.861,10.072,11.427,10.94.445.1,1.051.293,1.2.674a2.8,2.8,0,0,1,.044,1.235s-.16.964-.195,1.17c-.06.345-.275,1.351,1.183.737s7.869-4.633,10.736-7.933h0a9.865,9.865,0,0,0,2.928-6.822" transform="translate(-11.075 -13.242)" fill="#fff"/>
    <path id="Path_401" data-name="Path 401" d="M417.685,291.418h-.958a.266.266,0,0,0-.266.266v5.953a.266.266,0,0,0,.266.265h.958a.266.266,0,0,0,.266-.265v-5.953a.266.266,0,0,0-.266-.266" transform="translate(-32.31 -31.117)" fill="#00b900"/>
    <path id="Path_402" data-name="Path 402" d="M429.605,291.418h-.959a.266.266,0,0,0-.266.266v3.537l-2.729-3.685-.021-.027,0,0-.017-.016,0,0-.015-.012-.007-.006-.013-.009-.008,0-.014-.008-.008,0-.015-.006-.009,0-.016-.005-.009,0-.015,0-.011,0-.014,0h-.982a.267.267,0,0,0-.266.266v5.953a.266.266,0,0,0,.266.265h.958a.266.266,0,0,0,.266-.265V294.1l2.732,3.689a.265.265,0,0,0,.068.066l0,0,.016.01.008,0,.013.006.013.005.007,0,.019.006h0a.255.255,0,0,0,.068.009h.959a.266.266,0,0,0,.266-.265v-5.953a.266.266,0,0,0-.266-.266" transform="translate(-37.634 -31.117)" fill="#00b900"/>
    <path id="Path_403" data-name="Path 403" d="M403.99,296.412h-2.6v-4.728a.266.266,0,0,0-.266-.266h-.959a.266.266,0,0,0-.266.266v5.953h0a.264.264,0,0,0,.075.184l0,0,0,0a.265.265,0,0,0,.184.074h3.829a.266.266,0,0,0,.266-.266v-.958a.266.266,0,0,0-.266-.266" transform="translate(-20.925 -31.117)" fill="#00b900"/>
    <path id="Path_404" data-name="Path 404" d="M449.4,292.909a.266.266,0,0,0,.266-.266v-.958a.266.266,0,0,0-.266-.266h-3.829a.266.266,0,0,0-.185.075l0,0,0,0a.265.265,0,0,0-.074.183h0v5.952h0a.263.263,0,0,0,.074.184l0,0,0,0a.266.266,0,0,0,.184.075H449.4a.266.266,0,0,0,.266-.266v-.958a.266.266,0,0,0-.266-.266h-2.6v-1.006h2.6a.266.266,0,0,0,.266-.266v-.958a.266.266,0,0,0-.266-.266h-2.6v-1.006Z" transform="translate(-52.132 -31.117)" fill="#00b900"/>
  </g>
</svg>
