<?xml version="1.0" encoding="utf-8"?>
<!-- Generator: Adobe Illustrator 24.0.1, SVG Export Plug-In . SVG Version: 6.00 Build 0)  -->
<svg version="1.1" id="Layer_1" xmlns="http://www.w3.org/2000/svg" xmlns:xlink="http://www.w3.org/1999/xlink" x="0px" y="0px"
	 viewBox="0 0 206 66.478" enable-background="new 0 0 206 66.478" xml:space="preserve">
<g>
	<path fill="#EAAC6D" d="M34.901,5.567L20.123,45.478h-5.149L0.501,5.567h5.205l11.049,31.646c0.352,1.021,0.622,2.198,0.807,3.534
		h0.111c0.148-1.113,0.455-2.31,0.918-3.591L29.864,5.567H34.901z"/>
</g>
<g>
	<path fill="#EAAC6D" d="M56.249,45.478h-4.564v-4.453h-0.111c-1.986,3.414-4.908,5.121-8.767,5.121
		c-2.839,0-5.061-0.752-6.666-2.254c-1.605-1.504-2.407-3.498-2.407-5.984c0-5.325,3.135-8.424,9.407-9.296l8.544-1.196
		c0-4.844-1.958-7.265-5.873-7.265c-3.433,0-6.531,1.169-9.296,3.507v-4.676c2.801-1.781,6.03-2.672,9.686-2.672
		c6.698,0,10.047,3.544,10.047,10.632V45.478z M51.684,31.061l-6.875,0.946c-2.115,0.297-3.711,0.821-4.787,1.572
		c-1.076,0.752-1.614,2.083-1.614,3.994c0,1.392,0.496,2.528,1.489,3.409c0.992,0.882,2.314,1.322,3.966,1.322
		c2.264,0,4.133-0.793,5.608-2.38c1.475-1.586,2.212-3.595,2.212-6.025V31.061z"/>
	<path fill="#EAAC6D" d="M69.413,45.478h-4.564V3.285h4.564V45.478z"/>
	<path fill="#EAAC6D" d="M101.559,32.369H81.437c0.074,3.174,0.928,5.623,2.561,7.348c1.632,1.727,3.878,2.589,6.735,2.589
		c3.21,0,6.16-1.058,8.851-3.173v4.286c-2.505,1.818-5.817,2.728-9.936,2.728c-4.026,0-7.19-1.294-9.491-3.883
		c-2.301-2.588-3.451-6.229-3.451-10.924c0-4.435,1.257-8.048,3.771-10.841c2.514-2.792,5.636-4.188,9.365-4.188
		s6.614,1.206,8.656,3.618c2.041,2.412,3.062,5.761,3.062,10.048V32.369z M96.883,28.501c-0.019-2.635-0.654-4.685-1.907-6.151
		c-1.252-1.465-2.992-2.198-5.218-2.198c-2.153,0-3.98,0.771-5.483,2.31c-1.503,1.541-2.431,3.554-2.783,6.04H96.883z"/>
	<path fill="#EAAC6D" d="M132.119,45.478h-4.564V29.224c0-6.049-2.208-9.073-6.624-9.073c-2.282,0-4.171,0.858-5.664,2.574
		c-1.493,1.717-2.24,3.883-2.24,6.499v16.254h-4.564v-28.5h4.564v4.731h0.111c2.152-3.6,5.27-5.399,9.352-5.399
		c3.117,0,5.501,1.007,7.153,3.02c1.65,2.014,2.477,4.922,2.477,8.726V45.478z"/>
	<path fill="#EAAC6D" d="M160.146,44.17c-2.189,1.317-4.787,1.977-7.793,1.977c-4.063,0-7.344-1.322-9.839-3.966
		c-2.495-2.645-3.743-6.072-3.743-10.284c0-4.694,1.345-8.465,4.035-11.313s6.281-4.272,10.771-4.272
		c2.505,0,4.713,0.464,6.624,1.392v4.676c-2.115-1.484-4.379-2.227-6.791-2.227c-2.913,0-5.302,1.044-7.167,3.131
		c-1.864,2.088-2.797,4.829-2.797,8.225c0,3.34,0.877,5.975,2.63,7.904c1.754,1.93,4.105,2.895,7.056,2.895
		c2.486,0,4.824-0.825,7.014-2.478V44.17z"/>
	<path fill="#EAAC6D" d="M169.386,9.742c-0.816,0-1.513-0.278-2.087-0.835c-0.576-0.557-0.863-1.262-0.863-2.115
		s0.287-1.563,0.863-2.129c0.574-0.566,1.271-0.849,2.087-0.849c0.835,0,1.545,0.283,2.129,0.849
		c0.585,0.566,0.877,1.275,0.877,2.129c0,0.816-0.292,1.513-0.877,2.087C170.931,9.455,170.221,9.742,169.386,9.742z
		 M171.612,45.478h-4.564v-28.5h4.564V45.478z"/>
	<path fill="#EAAC6D" d="M201.254,45.478h-4.564v-4.453h-0.111c-1.986,3.414-4.908,5.121-8.768,5.121
		c-2.839,0-5.062-0.752-6.666-2.254c-1.604-1.504-2.407-3.498-2.407-5.984c0-5.325,3.136-8.424,9.407-9.296l8.545-1.196
		c0-4.844-1.958-7.265-5.873-7.265c-3.433,0-6.531,1.169-9.296,3.507v-4.676c2.802-1.781,6.03-2.672,9.686-2.672
		c6.698,0,10.048,3.544,10.048,10.632V45.478z M196.689,31.061l-6.875,0.946c-2.115,0.297-3.711,0.821-4.787,1.572
		c-1.076,0.752-1.614,2.083-1.614,3.994c0,1.392,0.496,2.528,1.489,3.409c0.992,0.882,2.314,1.322,3.966,1.322
		c2.264,0,4.133-0.793,5.608-2.38c1.475-1.586,2.213-3.595,2.213-6.025V31.061z"/>
</g>
<g>
	<path fill="#EAAC6D" d="M61.336,63.25c0.727-1.062,1.285-2.338,1.676-3.826c0.332-1.277,0.578-2.846,0.738-4.705l0.955,0.094
		c-0.207,2.156-0.531,3.967-0.973,5.432c-0.406,1.336-0.938,2.486-1.594,3.451L61.336,63.25z M68.982,63.695
		c-1.301-2.496-2.143-5.465-2.525-8.906l0.914-0.082c0.387,3.391,1.219,6.219,2.496,8.484L68.982,63.695L68.982,63.695z
		 M68.49,56.002c-0.289-0.859-0.574-1.543-0.855-2.051l0.615-0.24c0.23,0.402,0.525,1.078,0.885,2.027L68.49,56.002L68.49,56.002z
		 M69.797,55.545c-0.254-0.793-0.529-1.461-0.826-2.004l0.598-0.217c0.305,0.508,0.588,1.164,0.85,1.969L69.797,55.545
		L69.797,55.545z M73.166,62.869c1.145-0.355,2.164-0.988,3.059-1.898c0.789-0.797,1.408-1.74,1.857-2.83l0.686,0.656
		c-0.629,1.379-1.48,2.51-2.555,3.393c-0.934,0.766-2.074,1.379-3.422,1.84l-0.551-0.393v-9.328h0.926V62.869z M80.59,54.935
		c1.129,0.609,2.068,1.205,2.818,1.787l-0.598,0.791c-0.723-0.617-1.643-1.24-2.76-1.869L80.59,54.935z M80.109,62.892
		c3.754-0.926,5.93-3.379,6.527-7.359l0.902,0.434c-0.355,2.051-1.1,3.709-2.232,4.975c-1.164,1.301-2.76,2.223-4.787,2.766
		L80.109,62.892L80.109,62.892z M91.787,59.013c-0.66-0.41-1.588-0.846-2.783-1.307l0.41-0.721c1.418,0.551,2.357,0.959,2.818,1.225
		L91.787,59.013L91.787,59.013z M94.26,60.431c0.961-1.062,1.664-2.562,2.109-4.5l0.832,0.469c-0.223,0.934-0.551,1.834-0.984,2.701
		c-0.391,0.785-0.811,1.424-1.26,1.916c-1.18,1.293-2.768,2.148-4.764,2.566l-0.492-0.756C91.572,62.504,93.092,61.705,94.26,60.431
		L94.26,60.431z M92.783,56.529c-0.652-0.449-1.553-0.912-2.701-1.389l0.445-0.709c1.184,0.469,2.096,0.904,2.736,1.307
		L92.783,56.529L92.783,56.529z M98.613,54.549h7.811c-0.141,1.078-0.385,1.963-0.732,2.654c-0.336,0.664-0.818,1.268-1.447,1.811
		l-0.709-0.586c0.523-0.43,0.945-0.934,1.266-1.512c0.285-0.516,0.455-1.035,0.51-1.559h-6.697V54.549z M98.971,63.215
		c1.035-0.496,1.754-1.098,2.156-1.805c0.437-0.762,0.656-1.82,0.656-3.176v-1.898h0.92v1.922c0,1.645-0.32,2.928-0.961,3.85
		c-0.465,0.672-1.195,1.27-2.191,1.793L98.971,63.215z"/>
</g>
</svg>
