<svg id="Group_69" data-name="Group 69" xmlns="http://www.w3.org/2000/svg" width="36.531" height="36.531" viewBox="0 0 36.531 36.531">
  <path id="Path_409" data-name="Path 409" d="M33.647,24.053a20.885,20.885,0,0,1-6.553-1.042,2.808,2.808,0,0,0-2.851.6L20.1,26.747A23.165,23.165,0,0,1,9.787,16.439l3.047-4.049a2.91,2.91,0,0,0,.713-2.942A20.876,20.876,0,0,1,12.5,2.884,2.888,2.888,0,0,0,9.613,0H2.884A2.888,2.888,0,0,0,0,2.884,33.686,33.686,0,0,0,33.647,36.531a2.888,2.888,0,0,0,2.884-2.884v-6.71A2.888,2.888,0,0,0,33.647,24.053Z" fill="#fff"/>
</svg>
