<?xml version="1.0" encoding="utf-8"?>
<!-- Generator: Adobe Illustrator 24.0.1, SVG Export Plug-In . SVG Version: 6.00 Build 0)  -->
<svg version="1.1" id="Layer_1" xmlns="http://www.w3.org/2000/svg" xmlns:xlink="http://www.w3.org/1999/xlink" x="0px" y="0px"
	 viewBox="0 0 982.416 193.252" enable-background="new 0 0 982.416 193.252" xml:space="preserve">
<g>
	<path fill="#FFFFFF" d="M155.104,10.29L88.469,190.24H65.254L0,10.29h23.466l49.819,142.681c1.588,4.602,2.802,9.913,3.639,15.937
		h0.502c0.668-5.02,2.049-10.415,4.141-16.188L132.39,10.29H155.104z"/>
	<path fill="#FFFFFF" d="M251.353,190.24h-20.58v-20.078h-0.502c-8.953,15.394-22.129,23.09-39.529,23.09
		c-12.8,0-22.819-3.389-30.055-10.164c-7.237-6.777-10.854-15.769-10.854-26.98c0-24.01,14.137-37.979,42.415-41.913l38.525-5.396
		c0-21.836-8.827-32.753-26.478-32.753c-15.478,0-29.449,5.271-41.913,15.812V70.775c12.631-8.031,27.188-12.047,43.67-12.047
		c30.2,0,45.301,15.98,45.301,47.937V190.24z M230.773,125.237l-30.996,4.267c-9.537,1.339-16.733,3.702-21.584,7.09
		c-4.853,3.389-7.278,9.393-7.278,18.008c0,6.274,2.237,11.399,6.714,15.372c4.474,3.975,10.435,5.961,17.882,5.961
		c10.206,0,18.635-3.576,25.286-10.729c6.65-7.152,9.976-16.207,9.976-27.168V125.237z"/>
	<path fill="#FFFFFF" d="M310.709,190.24h-20.58V0h20.58V190.24z"/>
	<path fill="#FFFFFF" d="M455.648,131.135H364.92c0.333,14.307,4.182,25.35,11.545,33.129c7.361,7.781,17.484,11.671,30.368,11.671
		c14.472,0,27.774-4.769,39.905-14.306v19.325c-11.294,8.2-26.227,12.298-44.799,12.298c-18.155,0-32.419-5.835-42.792-17.506
		c-10.375-11.67-15.561-28.088-15.561-49.254c0-19.994,5.667-36.286,17.004-48.878c11.335-12.59,25.411-18.886,42.227-18.886
		s29.823,5.439,39.027,16.313c9.202,10.876,13.804,25.976,13.804,45.302V131.135z M434.566,113.692
		c-0.084-11.878-2.949-21.123-8.596-27.733c-5.646-6.607-13.49-9.913-23.529-9.913c-9.706,0-17.945,3.473-24.721,10.415
		c-6.776,6.945-10.96,16.021-12.549,27.231H434.566z"/>
	<path fill="#FFFFFF" d="M593.434,190.24h-20.58v-73.285c0-27.272-9.956-40.909-29.866-40.909c-10.29,0-18.804,3.87-25.537,11.607
		c-6.734,7.739-10.102,17.506-10.102,29.302v73.285h-20.58V61.74h20.58v21.333h0.502c9.704-16.229,23.759-24.345,42.164-24.345
		c14.055,0,24.804,4.539,32.251,13.615c7.444,9.078,11.168,22.192,11.168,39.341V190.24z"/>
	<path fill="#FFFFFF" d="M719.801,184.342c-9.873,5.939-21.584,8.91-35.137,8.91c-18.321,0-33.109-5.961-44.36-17.882
		c-11.253-11.922-16.878-27.376-16.878-46.368c0-21.164,6.064-38.168,18.195-51.011c12.13-12.841,28.317-19.263,48.564-19.263
		c11.294,0,21.248,2.092,29.866,6.274v21.082c-9.537-6.692-19.745-10.039-30.619-10.039c-13.136,0-23.905,4.706-32.313,14.117
		c-8.407,9.412-12.611,21.772-12.611,37.082c0,15.059,3.953,26.938,11.858,35.639c7.906,8.702,18.51,13.051,31.812,13.051
		c11.209,0,21.75-3.722,31.623-11.169V184.342z"/>
	<path fill="#FFFFFF" d="M761.463,29.113c-3.683,0-6.819-1.255-9.412-3.765c-2.594-2.51-3.89-5.688-3.89-9.537
		c0-3.847,1.296-7.047,3.89-9.6c2.593-2.551,5.729-3.827,9.412-3.827c3.765,0,6.965,1.276,9.6,3.827
		c2.636,2.553,3.953,5.753,3.953,9.6c0,3.683-1.317,6.819-3.953,9.411C768.428,27.817,765.228,29.113,761.463,29.113z
		 M771.502,190.24h-20.58V61.74h20.58V190.24z"/>
	<path fill="#FFFFFF" d="M905.146,190.24h-20.58v-20.078h-0.502c-8.952,15.394-22.129,23.09-39.528,23.09
		c-12.8,0-22.819-3.389-30.055-10.164c-7.237-6.777-10.854-15.769-10.854-26.98c0-24.01,14.137-37.979,42.415-41.913l38.524-5.396
		c0-21.836-8.827-32.753-26.478-32.753c-15.479,0-29.449,5.271-41.913,15.812V70.775c12.631-8.031,27.188-12.047,43.67-12.047
		c30.199,0,45.301,15.98,45.301,47.937V190.24z M884.566,125.237l-30.995,4.267c-9.537,1.339-16.733,3.702-21.584,7.09
		c-4.854,3.389-7.278,9.393-7.278,18.008c0,6.274,2.237,11.399,6.714,15.372c4.474,3.975,10.435,5.961,17.882,5.961
		c10.205,0,18.635-3.576,25.286-10.729c6.65-7.152,9.976-16.207,9.976-27.168V125.237z"/>
</g>
</svg>
