<svg xmlns="http://www.w3.org/2000/svg" xmlns:xlink="http://www.w3.org/1999/xlink" width="277.551" height="236.105" viewBox="0 0 277.551 236.105">
  <defs>
    <clipPath id="clip-path">
      <path id="Path_1388" data-name="Path 1388" d="M239.48-253.619c46-5.5,81.019,35.028,91.556,76.331a127.773,127.773,0,0,1,2.24,13.859,119.517,119.517,0,0,1-2.858,42.067,102.9,102.9,0,0,1-4.405,13.35c-12.948,40.517-57.078,66.9-98.711,55.1a88.069,88.069,0,0,1-14.933-2.994c-33.811-9.877-64.419-30.167-72.708-64.222-1.184-4.865-3.7-12.454-4.3-17.428-10.967-52.261,39.8-101.9,87.549-112.838A115.226,115.226,0,0,1,239.48-253.619Z" transform="translate(-133.854 254.123)" fill="none"/>
    </clipPath>
  </defs>
  <g id="Group_613" data-name="Group 613" transform="translate(-111.151 -336.83)">
    <path id="Path_661" data-name="Path 661" d="M86.746-192.849c46-5.5,81.019,35.028,91.556,76.331a127.727,127.727,0,0,1,2.24,13.859,119.5,119.5,0,0,1-2.858,42.067,102.834,102.834,0,0,1-4.405,13.35C160.33-6.725,116.2,19.657,74.567,7.857A88.07,88.07,0,0,1,59.634,4.862C25.823-5.015-.282-34.415-8.571-68.47a126.7,126.7,0,0,1-2.647-14.785c-10.967-52.261,33.642-95.432,81.4-106.37A115.233,115.233,0,0,1,86.746-192.849Z" transform="translate(124.047 562.247)" fill="#82c5de"/>
    <g id="Group_439" data-name="Group 439" transform="translate(188.582 336.83)">
      <g id="Group_438" data-name="Group 438" clip-path="url(#clip-path)">
        <circle id="Ellipse_105" data-name="Ellipse 105" cx="3.217" cy="3.217" r="3.217" transform="translate(-3.872 199.52)" fill="#e5eaeb"/>
        <path id="Path_1255" data-name="Path 1255" d="M129.731,92.2a3.217,3.217,0,1,1-3.216,3.217A3.217,3.217,0,0,1,129.731,92.2Z" transform="translate(-130.387 90.532)" fill="#e5eaeb"/>
        <path id="Path_1256" data-name="Path 1256" d="M129.731,60.389a3.217,3.217,0,1,1-3.216,3.216A3.216,3.216,0,0,1,129.731,60.389Z" transform="translate(-130.387 105.559)" fill="#e5eaeb"/>
        <circle id="Ellipse_106" data-name="Ellipse 106" cx="3.217" cy="3.217" r="3.217" transform="translate(-3.872 149.162)" fill="#e5eaeb"/>
        <circle id="Ellipse_107" data-name="Ellipse 107" cx="3.217" cy="3.217" r="3.217" transform="translate(-3.872 132.376)" fill="#e5eaeb"/>
        <path id="Path_1257" data-name="Path 1257" d="M129.731-35.052a3.216,3.216,0,0,1,3.217,3.216,3.217,3.217,0,0,1-3.217,3.217,3.216,3.216,0,0,1-3.216-3.217A3.216,3.216,0,0,1,129.731-35.052Z" transform="translate(-130.387 150.642)" fill="#e5eaeb"/>
        <path id="Path_1258" data-name="Path 1258" d="M129.731-66.866a3.217,3.217,0,0,1,3.217,3.217,3.217,3.217,0,0,1-3.217,3.217,3.217,3.217,0,0,1-3.216-3.217A3.217,3.217,0,0,1,129.731-66.866Z" transform="translate(-130.387 165.67)" fill="#e5eaeb"/>
        <path id="Path_1259" data-name="Path 1259" d="M129.731-98.68a3.217,3.217,0,0,1,3.217,3.217,3.217,3.217,0,0,1-3.217,3.217,3.217,3.217,0,0,1-3.216-3.217A3.217,3.217,0,0,1,129.731-98.68Z" transform="translate(-130.387 180.697)" fill="#e5eaeb"/>
        <circle id="Ellipse_108" data-name="Ellipse 108" cx="3.217" cy="3.217" r="3.217" transform="translate(-3.872 65.232)" fill="#e5eaeb"/>
        <path id="Path_1260" data-name="Path 1260" d="M129.731-162.307a3.217,3.217,0,0,1,3.217,3.217,3.217,3.217,0,0,1-3.217,3.217,3.217,3.217,0,0,1-3.216-3.217A3.217,3.217,0,0,1,129.731-162.307Z" transform="translate(-130.387 210.752)" fill="#e5eaeb"/>
        <path id="Path_1261" data-name="Path 1261" d="M129.731-194.12a3.217,3.217,0,0,1,3.217,3.217,3.216,3.216,0,0,1-3.217,3.216,3.216,3.216,0,0,1-3.216-3.216A3.216,3.216,0,0,1,129.731-194.12Z" transform="translate(-130.387 225.78)" fill="#e5eaeb"/>
        <circle id="Ellipse_109" data-name="Ellipse 109" cx="3.217" cy="3.217" r="3.217" transform="translate(-3.872 14.874)" fill="#e5eaeb"/>
        <circle id="Ellipse_110" data-name="Ellipse 110" cx="3.217" cy="3.217" r="3.217" transform="translate(-3.872 -1.912)" fill="#e5eaeb"/>
        <circle id="Ellipse_111" data-name="Ellipse 111" cx="3.217" cy="3.217" r="3.217" transform="translate(12.914 199.52)" fill="#e5eaeb"/>
        <path id="Path_1262" data-name="Path 1262" d="M161.545,92.2a3.217,3.217,0,1,1-3.217,3.217A3.217,3.217,0,0,1,161.545,92.2Z" transform="translate(-145.414 90.532)" fill="#e5eaeb"/>
        <path id="Path_1263" data-name="Path 1263" d="M161.545,60.389a3.217,3.217,0,1,1-3.217,3.216A3.216,3.216,0,0,1,161.545,60.389Z" transform="translate(-145.414 105.559)" fill="#e5eaeb"/>
        <circle id="Ellipse_112" data-name="Ellipse 112" cx="3.217" cy="3.217" r="3.217" transform="translate(12.914 149.162)" fill="#e5eaeb"/>
        <circle id="Ellipse_113" data-name="Ellipse 113" cx="3.217" cy="3.217" r="3.217" transform="translate(12.914 132.376)" fill="#e5eaeb"/>
        <path id="Path_1264" data-name="Path 1264" d="M161.545-35.052a3.216,3.216,0,0,1,3.216,3.216,3.216,3.216,0,0,1-3.216,3.217,3.217,3.217,0,0,1-3.217-3.217A3.217,3.217,0,0,1,161.545-35.052Z" transform="translate(-145.414 150.642)" fill="#e5eaeb"/>
        <path id="Path_1265" data-name="Path 1265" d="M161.545-66.866a3.217,3.217,0,0,1,3.216,3.217,3.217,3.217,0,0,1-3.216,3.217,3.217,3.217,0,0,1-3.217-3.217A3.217,3.217,0,0,1,161.545-66.866Z" transform="translate(-145.414 165.67)" fill="#e5eaeb"/>
        <path id="Path_1266" data-name="Path 1266" d="M161.545-98.68a3.217,3.217,0,0,1,3.216,3.217,3.217,3.217,0,0,1-3.216,3.217,3.217,3.217,0,0,1-3.217-3.217A3.217,3.217,0,0,1,161.545-98.68Z" transform="translate(-145.414 180.697)" fill="#e5eaeb"/>
        <circle id="Ellipse_114" data-name="Ellipse 114" cx="3.217" cy="3.217" r="3.217" transform="translate(12.914 65.232)" fill="#e5eaeb"/>
        <path id="Path_1267" data-name="Path 1267" d="M161.545-162.307a3.217,3.217,0,0,1,3.216,3.217,3.217,3.217,0,0,1-3.216,3.217,3.217,3.217,0,0,1-3.217-3.217A3.217,3.217,0,0,1,161.545-162.307Z" transform="translate(-145.414 210.752)" fill="#e5eaeb"/>
        <path id="Path_1268" data-name="Path 1268" d="M161.545-194.12a3.216,3.216,0,0,1,3.216,3.217,3.216,3.216,0,0,1-3.216,3.216,3.217,3.217,0,0,1-3.217-3.216A3.217,3.217,0,0,1,161.545-194.12Z" transform="translate(-145.414 225.78)" fill="#e5eaeb"/>
        <circle id="Ellipse_115" data-name="Ellipse 115" cx="3.217" cy="3.217" r="3.217" transform="translate(12.914 14.874)" fill="#e5eaeb"/>
        <circle id="Ellipse_116" data-name="Ellipse 116" cx="3.217" cy="3.217" r="3.217" transform="translate(12.914 -1.912)" fill="#e5eaeb"/>
        <path id="Path_1269" data-name="Path 1269" d="M193.358,124.016a3.217,3.217,0,1,1-3.216,3.216A3.217,3.217,0,0,1,193.358,124.016Z" transform="translate(-160.442 75.504)" fill="#e5eaeb"/>
        <path id="Path_1270" data-name="Path 1270" d="M193.358,92.2a3.217,3.217,0,1,1-3.216,3.217A3.217,3.217,0,0,1,193.358,92.2Z" transform="translate(-160.442 90.532)" fill="#e5eaeb"/>
        <path id="Path_1271" data-name="Path 1271" d="M193.358,60.389a3.217,3.217,0,1,1-3.216,3.216A3.217,3.217,0,0,1,193.358,60.389Z" transform="translate(-160.442 105.559)" fill="#e5eaeb"/>
        <path id="Path_1272" data-name="Path 1272" d="M193.358,28.575a3.217,3.217,0,1,1-3.216,3.216A3.217,3.217,0,0,1,193.358,28.575Z" transform="translate(-160.442 120.587)" fill="#e5eaeb"/>
        <path id="Path_1273" data-name="Path 1273" d="M193.358-3.239a3.217,3.217,0,0,1,3.217,3.217A3.217,3.217,0,0,1,193.358,3.2a3.217,3.217,0,0,1-3.216-3.217A3.217,3.217,0,0,1,193.358-3.239Z" transform="translate(-160.442 135.615)" fill="#e5eaeb"/>
        <path id="Path_1274" data-name="Path 1274" d="M193.358-35.052a3.217,3.217,0,0,1,3.217,3.216,3.217,3.217,0,0,1-3.217,3.217,3.217,3.217,0,0,1-3.216-3.217A3.217,3.217,0,0,1,193.358-35.052Z" transform="translate(-160.442 150.642)" fill="#e5eaeb"/>
        <path id="Path_1275" data-name="Path 1275" d="M193.358-66.866a3.217,3.217,0,0,1,3.217,3.217,3.217,3.217,0,0,1-3.217,3.217,3.217,3.217,0,0,1-3.216-3.217A3.217,3.217,0,0,1,193.358-66.866Z" transform="translate(-160.442 165.67)" fill="#e5eaeb"/>
        <path id="Path_1276" data-name="Path 1276" d="M193.358-98.68a3.217,3.217,0,0,1,3.217,3.217,3.217,3.217,0,0,1-3.217,3.217,3.217,3.217,0,0,1-3.216-3.217A3.217,3.217,0,0,1,193.358-98.68Z" transform="translate(-160.442 180.697)" fill="#e5eaeb"/>
        <path id="Path_1277" data-name="Path 1277" d="M193.358-130.493a3.217,3.217,0,0,1,3.217,3.217,3.217,3.217,0,0,1-3.217,3.216,3.217,3.217,0,0,1-3.216-3.216A3.217,3.217,0,0,1,193.358-130.493Z" transform="translate(-160.442 195.725)" fill="#e5eaeb"/>
        <path id="Path_1278" data-name="Path 1278" d="M193.358-162.307a3.217,3.217,0,0,1,3.217,3.217,3.217,3.217,0,0,1-3.217,3.217,3.217,3.217,0,0,1-3.216-3.217A3.217,3.217,0,0,1,193.358-162.307Z" transform="translate(-160.442 210.752)" fill="#e5eaeb"/>
        <path id="Path_1279" data-name="Path 1279" d="M193.358-194.12a3.217,3.217,0,0,1,3.217,3.217,3.217,3.217,0,0,1-3.217,3.216,3.217,3.217,0,0,1-3.216-3.216A3.217,3.217,0,0,1,193.358-194.12Z" transform="translate(-160.442 225.78)" fill="#e5eaeb"/>
        <path id="Path_1280" data-name="Path 1280" d="M193.358-225.934a3.217,3.217,0,0,1,3.217,3.217,3.217,3.217,0,0,1-3.217,3.217,3.217,3.217,0,0,1-3.216-3.217A3.217,3.217,0,0,1,193.358-225.934Z" transform="translate(-160.442 240.807)" fill="#e5eaeb"/>
        <path id="Path_1281" data-name="Path 1281" d="M193.358-257.747a3.217,3.217,0,0,1,3.217,3.217,3.217,3.217,0,0,1-3.217,3.216,3.217,3.217,0,0,1-3.216-3.216A3.217,3.217,0,0,1,193.358-257.747Z" transform="translate(-160.442 255.835)" fill="#e5eaeb"/>
        <path id="Path_1282" data-name="Path 1282" d="M225.172,124.016a3.217,3.217,0,1,1-3.217,3.216A3.217,3.217,0,0,1,225.172,124.016Z" transform="translate(-175.469 75.504)" fill="#e5eaeb"/>
        <path id="Path_1283" data-name="Path 1283" d="M225.172,92.2a3.217,3.217,0,1,1-3.217,3.217A3.217,3.217,0,0,1,225.172,92.2Z" transform="translate(-175.469 90.532)" fill="#e5eaeb"/>
        <path id="Path_1284" data-name="Path 1284" d="M225.172,60.389a3.217,3.217,0,1,1-3.217,3.216A3.217,3.217,0,0,1,225.172,60.389Z" transform="translate(-175.469 105.559)" fill="#e5eaeb"/>
        <path id="Path_1285" data-name="Path 1285" d="M225.172,28.575a3.217,3.217,0,1,1-3.217,3.216A3.217,3.217,0,0,1,225.172,28.575Z" transform="translate(-175.469 120.587)" fill="#e5eaeb"/>
        <path id="Path_1286" data-name="Path 1286" d="M225.172-3.239a3.217,3.217,0,0,1,3.217,3.217A3.217,3.217,0,0,1,225.172,3.2a3.217,3.217,0,0,1-3.217-3.217A3.217,3.217,0,0,1,225.172-3.239Z" transform="translate(-175.469 135.615)" fill="#e5eaeb"/>
        <path id="Path_1287" data-name="Path 1287" d="M225.172-35.052a3.217,3.217,0,0,1,3.217,3.216,3.217,3.217,0,0,1-3.217,3.217,3.217,3.217,0,0,1-3.217-3.217A3.217,3.217,0,0,1,225.172-35.052Z" transform="translate(-175.469 150.642)" fill="#e5eaeb"/>
        <path id="Path_1288" data-name="Path 1288" d="M225.172-66.866a3.217,3.217,0,0,1,3.217,3.217,3.217,3.217,0,0,1-3.217,3.217,3.217,3.217,0,0,1-3.217-3.217A3.217,3.217,0,0,1,225.172-66.866Z" transform="translate(-175.469 165.67)" fill="#e5eaeb"/>
        <path id="Path_1289" data-name="Path 1289" d="M225.172-98.68a3.217,3.217,0,0,1,3.217,3.217,3.217,3.217,0,0,1-3.217,3.217,3.217,3.217,0,0,1-3.217-3.217A3.217,3.217,0,0,1,225.172-98.68Z" transform="translate(-175.469 180.697)" fill="#e5eaeb"/>
        <path id="Path_1290" data-name="Path 1290" d="M225.172-130.493a3.217,3.217,0,0,1,3.217,3.217,3.217,3.217,0,0,1-3.217,3.216,3.217,3.217,0,0,1-3.217-3.216A3.217,3.217,0,0,1,225.172-130.493Z" transform="translate(-175.469 195.725)" fill="#e5eaeb"/>
        <path id="Path_1291" data-name="Path 1291" d="M225.172-162.307a3.217,3.217,0,0,1,3.217,3.217,3.217,3.217,0,0,1-3.217,3.217,3.217,3.217,0,0,1-3.217-3.217A3.217,3.217,0,0,1,225.172-162.307Z" transform="translate(-175.469 210.752)" fill="#e5eaeb"/>
        <path id="Path_1292" data-name="Path 1292" d="M225.172-194.12a3.217,3.217,0,0,1,3.217,3.217,3.217,3.217,0,0,1-3.217,3.216,3.217,3.217,0,0,1-3.217-3.216A3.217,3.217,0,0,1,225.172-194.12Z" transform="translate(-175.469 225.78)" fill="#e5eaeb"/>
        <path id="Path_1293" data-name="Path 1293" d="M225.172-225.934a3.217,3.217,0,0,1,3.217,3.217,3.217,3.217,0,0,1-3.217,3.217,3.217,3.217,0,0,1-3.217-3.217A3.217,3.217,0,0,1,225.172-225.934Z" transform="translate(-175.469 240.807)" fill="#e5eaeb"/>
        <path id="Path_1294" data-name="Path 1294" d="M225.172-257.747a3.217,3.217,0,0,1,3.217,3.217,3.217,3.217,0,0,1-3.217,3.216,3.217,3.217,0,0,1-3.217-3.216A3.217,3.217,0,0,1,225.172-257.747Z" transform="translate(-175.469 255.835)" fill="#e5eaeb"/>
        <circle id="Ellipse_117" data-name="Ellipse 117" cx="3.217" cy="3.217" r="3.217" transform="translate(63.272 199.52)" fill="#e5eaeb"/>
        <path id="Path_1295" data-name="Path 1295" d="M256.986,92.2a3.217,3.217,0,1,1-3.217,3.217A3.217,3.217,0,0,1,256.986,92.2Z" transform="translate(-190.497 90.532)" fill="#e5eaeb"/>
        <path id="Path_1296" data-name="Path 1296" d="M256.986,60.389a3.217,3.217,0,1,1-3.217,3.216A3.216,3.216,0,0,1,256.986,60.389Z" transform="translate(-190.497 105.559)" fill="#e5eaeb"/>
        <circle id="Ellipse_118" data-name="Ellipse 118" cx="3.217" cy="3.217" r="3.217" transform="translate(63.272 149.162)" fill="#e5eaeb"/>
        <circle id="Ellipse_119" data-name="Ellipse 119" cx="3.217" cy="3.217" r="3.217" transform="translate(63.272 132.376)" fill="#e5eaeb"/>
        <path id="Path_1297" data-name="Path 1297" d="M256.986-35.052a3.216,3.216,0,0,1,3.216,3.216,3.216,3.216,0,0,1-3.216,3.217,3.217,3.217,0,0,1-3.217-3.217A3.216,3.216,0,0,1,256.986-35.052Z" transform="translate(-190.497 150.642)" fill="#e5eaeb"/>
        <path id="Path_1298" data-name="Path 1298" d="M256.986-66.866a3.217,3.217,0,0,1,3.216,3.217,3.217,3.217,0,0,1-3.216,3.217,3.217,3.217,0,0,1-3.217-3.217A3.217,3.217,0,0,1,256.986-66.866Z" transform="translate(-190.497 165.67)" fill="#e5eaeb"/>
        <path id="Path_1299" data-name="Path 1299" d="M256.986-98.68a3.217,3.217,0,0,1,3.216,3.217,3.217,3.217,0,0,1-3.216,3.217,3.217,3.217,0,0,1-3.217-3.217A3.217,3.217,0,0,1,256.986-98.68Z" transform="translate(-190.497 180.697)" fill="#e5eaeb"/>
        <circle id="Ellipse_120" data-name="Ellipse 120" cx="3.217" cy="3.217" r="3.217" transform="translate(63.272 65.232)" fill="#e5eaeb"/>
        <path id="Path_1300" data-name="Path 1300" d="M256.986-162.307a3.217,3.217,0,0,1,3.216,3.217,3.217,3.217,0,0,1-3.216,3.217,3.217,3.217,0,0,1-3.217-3.217A3.217,3.217,0,0,1,256.986-162.307Z" transform="translate(-190.497 210.752)" fill="#e5eaeb"/>
        <path id="Path_1301" data-name="Path 1301" d="M256.986-194.12A3.216,3.216,0,0,1,260.2-190.9a3.216,3.216,0,0,1-3.216,3.216,3.216,3.216,0,0,1-3.217-3.216A3.216,3.216,0,0,1,256.986-194.12Z" transform="translate(-190.497 225.78)" fill="#e5eaeb"/>
        <circle id="Ellipse_121" data-name="Ellipse 121" cx="3.217" cy="3.217" r="3.217" transform="translate(63.272 14.874)" fill="#e5eaeb"/>
        <circle id="Ellipse_122" data-name="Ellipse 122" cx="3.217" cy="3.217" r="3.217" transform="translate(63.272 -1.912)" fill="#e5eaeb"/>
        <circle id="Ellipse_123" data-name="Ellipse 123" cx="3.217" cy="3.217" r="3.217" transform="translate(80.058 199.52)" fill="#e5eaeb"/>
        <path id="Path_1302" data-name="Path 1302" d="M288.8,92.2a3.217,3.217,0,1,1-3.216,3.217A3.217,3.217,0,0,1,288.8,92.2Z" transform="translate(-205.525 90.532)" fill="#e5eaeb"/>
        <path id="Path_1303" data-name="Path 1303" d="M288.8,60.389a3.217,3.217,0,1,1-3.216,3.216A3.217,3.217,0,0,1,288.8,60.389Z" transform="translate(-205.525 105.559)" fill="#e5eaeb"/>
        <circle id="Ellipse_124" data-name="Ellipse 124" cx="3.217" cy="3.217" r="3.217" transform="translate(80.058 149.162)" fill="#e5eaeb"/>
        <circle id="Ellipse_125" data-name="Ellipse 125" cx="3.217" cy="3.217" r="3.217" transform="translate(80.058 132.376)" fill="#e5eaeb"/>
        <path id="Path_1304" data-name="Path 1304" d="M288.8-35.052a3.217,3.217,0,0,1,3.217,3.216,3.217,3.217,0,0,1-3.217,3.217,3.216,3.216,0,0,1-3.216-3.217A3.216,3.216,0,0,1,288.8-35.052Z" transform="translate(-205.525 150.642)" fill="#e5eaeb"/>
        <path id="Path_1305" data-name="Path 1305" d="M288.8-66.866a3.217,3.217,0,0,1,3.217,3.217,3.217,3.217,0,0,1-3.217,3.217,3.217,3.217,0,0,1-3.216-3.217A3.217,3.217,0,0,1,288.8-66.866Z" transform="translate(-205.525 165.67)" fill="#e5eaeb"/>
        <path id="Path_1306" data-name="Path 1306" d="M288.8-98.68a3.217,3.217,0,0,1,3.217,3.217,3.217,3.217,0,0,1-3.217,3.217,3.217,3.217,0,0,1-3.216-3.217A3.217,3.217,0,0,1,288.8-98.68Z" transform="translate(-205.525 180.697)" fill="#e5eaeb"/>
        <circle id="Ellipse_126" data-name="Ellipse 126" cx="3.217" cy="3.217" r="3.217" transform="translate(80.058 65.232)" fill="#e5eaeb"/>
        <path id="Path_1307" data-name="Path 1307" d="M288.8-162.307a3.217,3.217,0,0,1,3.217,3.217,3.217,3.217,0,0,1-3.217,3.217,3.217,3.217,0,0,1-3.216-3.217A3.217,3.217,0,0,1,288.8-162.307Z" transform="translate(-205.525 210.752)" fill="#e5eaeb"/>
        <path id="Path_1308" data-name="Path 1308" d="M288.8-194.12a3.217,3.217,0,0,1,3.217,3.217,3.217,3.217,0,0,1-3.217,3.216,3.216,3.216,0,0,1-3.216-3.216A3.216,3.216,0,0,1,288.8-194.12Z" transform="translate(-205.525 225.78)" fill="#e5eaeb"/>
        <circle id="Ellipse_127" data-name="Ellipse 127" cx="3.217" cy="3.217" r="3.217" transform="translate(80.058 14.874)" fill="#e5eaeb"/>
        <circle id="Ellipse_128" data-name="Ellipse 128" cx="3.217" cy="3.217" r="3.217" transform="translate(80.058 -1.912)" fill="#e5eaeb"/>
        <circle id="Ellipse_129" data-name="Ellipse 129" cx="3.217" cy="3.217" r="3.217" transform="translate(96.844 199.52)" fill="#e5eaeb"/>
        <path id="Path_1309" data-name="Path 1309" d="M320.613,92.2a3.217,3.217,0,1,1-3.217,3.217A3.217,3.217,0,0,1,320.613,92.2Z" transform="translate(-220.552 90.532)" fill="#e5eaeb"/>
        <path id="Path_1310" data-name="Path 1310" d="M320.613,60.389a3.217,3.217,0,1,1-3.217,3.216A3.216,3.216,0,0,1,320.613,60.389Z" transform="translate(-220.552 105.559)" fill="#e5eaeb"/>
        <circle id="Ellipse_130" data-name="Ellipse 130" cx="3.217" cy="3.217" r="3.217" transform="translate(96.844 149.162)" fill="#e5eaeb"/>
        <circle id="Ellipse_131" data-name="Ellipse 131" cx="3.217" cy="3.217" r="3.217" transform="translate(96.844 132.376)" fill="#e5eaeb"/>
        <path id="Path_1311" data-name="Path 1311" d="M320.613-35.052a3.216,3.216,0,0,1,3.216,3.216,3.216,3.216,0,0,1-3.216,3.217,3.217,3.217,0,0,1-3.217-3.217A3.217,3.217,0,0,1,320.613-35.052Z" transform="translate(-220.552 150.642)" fill="#e5eaeb"/>
        <path id="Path_1312" data-name="Path 1312" d="M320.613-66.866a3.217,3.217,0,0,1,3.216,3.217,3.217,3.217,0,0,1-3.216,3.217,3.217,3.217,0,0,1-3.217-3.217A3.217,3.217,0,0,1,320.613-66.866Z" transform="translate(-220.552 165.67)" fill="#e5eaeb"/>
        <path id="Path_1313" data-name="Path 1313" d="M320.613-98.68a3.217,3.217,0,0,1,3.216,3.217,3.217,3.217,0,0,1-3.216,3.217,3.217,3.217,0,0,1-3.217-3.217A3.217,3.217,0,0,1,320.613-98.68Z" transform="translate(-220.552 180.697)" fill="#e5eaeb"/>
        <circle id="Ellipse_132" data-name="Ellipse 132" cx="3.217" cy="3.217" r="3.217" transform="translate(96.844 65.232)" fill="#e5eaeb"/>
        <path id="Path_1314" data-name="Path 1314" d="M320.613-162.307a3.217,3.217,0,0,1,3.216,3.217,3.217,3.217,0,0,1-3.216,3.217,3.217,3.217,0,0,1-3.217-3.217A3.217,3.217,0,0,1,320.613-162.307Z" transform="translate(-220.552 210.752)" fill="#e5eaeb"/>
        <path id="Path_1315" data-name="Path 1315" d="M320.613-194.12a3.216,3.216,0,0,1,3.216,3.217,3.216,3.216,0,0,1-3.216,3.216A3.217,3.217,0,0,1,317.4-190.9,3.217,3.217,0,0,1,320.613-194.12Z" transform="translate(-220.552 225.78)" fill="#e5eaeb"/>
        <circle id="Ellipse_133" data-name="Ellipse 133" cx="3.217" cy="3.217" r="3.217" transform="translate(96.844 14.874)" fill="#e5eaeb"/>
        <circle id="Ellipse_134" data-name="Ellipse 134" cx="3.217" cy="3.217" r="3.217" transform="translate(96.844 -1.912)" fill="#e5eaeb"/>
        <path id="Path_1316" data-name="Path 1316" d="M352.427,124.016a3.217,3.217,0,1,1-3.218,3.216A3.217,3.217,0,0,1,352.427,124.016Z" transform="translate(-235.579 75.504)" fill="#e5eaeb"/>
        <path id="Path_1317" data-name="Path 1317" d="M352.427,92.2a3.217,3.217,0,1,1-3.218,3.217A3.217,3.217,0,0,1,352.427,92.2Z" transform="translate(-235.579 90.532)" fill="#e5eaeb"/>
        <path id="Path_1318" data-name="Path 1318" d="M352.427,60.389a3.217,3.217,0,1,1-3.218,3.216A3.217,3.217,0,0,1,352.427,60.389Z" transform="translate(-235.579 105.559)" fill="#e5eaeb"/>
        <path id="Path_1319" data-name="Path 1319" d="M352.427,28.575a3.217,3.217,0,1,1-3.218,3.216A3.217,3.217,0,0,1,352.427,28.575Z" transform="translate(-235.579 120.587)" fill="#e5eaeb"/>
        <path id="Path_1320" data-name="Path 1320" d="M352.427-3.239a3.217,3.217,0,0,1,3.216,3.217A3.217,3.217,0,0,1,352.427,3.2a3.218,3.218,0,0,1-3.218-3.217A3.218,3.218,0,0,1,352.427-3.239Z" transform="translate(-235.579 135.615)" fill="#e5eaeb"/>
        <path id="Path_1321" data-name="Path 1321" d="M352.427-35.052a3.217,3.217,0,0,1,3.216,3.216,3.217,3.217,0,0,1-3.216,3.217,3.217,3.217,0,0,1-3.218-3.217A3.217,3.217,0,0,1,352.427-35.052Z" transform="translate(-235.579 150.642)" fill="#e5eaeb"/>
        <path id="Path_1322" data-name="Path 1322" d="M352.427-66.866a3.217,3.217,0,0,1,3.216,3.217,3.217,3.217,0,0,1-3.216,3.217,3.218,3.218,0,0,1-3.218-3.217A3.218,3.218,0,0,1,352.427-66.866Z" transform="translate(-235.579 165.67)" fill="#e5eaeb"/>
        <path id="Path_1323" data-name="Path 1323" d="M352.427-98.68a3.217,3.217,0,0,1,3.216,3.217,3.217,3.217,0,0,1-3.216,3.217,3.218,3.218,0,0,1-3.218-3.217A3.218,3.218,0,0,1,352.427-98.68Z" transform="translate(-235.579 180.697)" fill="#e5eaeb"/>
        <path id="Path_1324" data-name="Path 1324" d="M352.427-130.493a3.217,3.217,0,0,1,3.216,3.217,3.217,3.217,0,0,1-3.216,3.216,3.217,3.217,0,0,1-3.218-3.216A3.218,3.218,0,0,1,352.427-130.493Z" transform="translate(-235.579 195.725)" fill="#e5eaeb"/>
        <path id="Path_1325" data-name="Path 1325" d="M352.427-162.307a3.217,3.217,0,0,1,3.216,3.217,3.217,3.217,0,0,1-3.216,3.217,3.218,3.218,0,0,1-3.218-3.217A3.218,3.218,0,0,1,352.427-162.307Z" transform="translate(-235.579 210.752)" fill="#e5eaeb"/>
        <path id="Path_1326" data-name="Path 1326" d="M352.427-194.12a3.217,3.217,0,0,1,3.216,3.217,3.217,3.217,0,0,1-3.216,3.216,3.217,3.217,0,0,1-3.218-3.216A3.217,3.217,0,0,1,352.427-194.12Z" transform="translate(-235.579 225.78)" fill="#e5eaeb"/>
        <path id="Path_1327" data-name="Path 1327" d="M352.427-225.934a3.217,3.217,0,0,1,3.216,3.217,3.217,3.217,0,0,1-3.216,3.217,3.218,3.218,0,0,1-3.218-3.217A3.218,3.218,0,0,1,352.427-225.934Z" transform="translate(-235.579 240.807)" fill="#e5eaeb"/>
        <path id="Path_1328" data-name="Path 1328" d="M352.427-257.747a3.217,3.217,0,0,1,3.216,3.217,3.217,3.217,0,0,1-3.216,3.216,3.217,3.217,0,0,1-3.218-3.216A3.217,3.217,0,0,1,352.427-257.747Z" transform="translate(-235.579 255.835)" fill="#e5eaeb"/>
        <path id="Path_1329" data-name="Path 1329" d="M384.24,124.016a3.217,3.217,0,1,1-3.217,3.216A3.216,3.216,0,0,1,384.24,124.016Z" transform="translate(-250.607 75.504)" fill="#e5eaeb"/>
        <path id="Path_1330" data-name="Path 1330" d="M384.24,92.2a3.217,3.217,0,1,1-3.217,3.217A3.217,3.217,0,0,1,384.24,92.2Z" transform="translate(-250.607 90.532)" fill="#e5eaeb"/>
        <path id="Path_1331" data-name="Path 1331" d="M384.24,60.389a3.217,3.217,0,1,1-3.217,3.216A3.216,3.216,0,0,1,384.24,60.389Z" transform="translate(-250.607 105.559)" fill="#e5eaeb"/>
        <path id="Path_1332" data-name="Path 1332" d="M384.24,28.575a3.217,3.217,0,1,1-3.217,3.216A3.217,3.217,0,0,1,384.24,28.575Z" transform="translate(-250.607 120.587)" fill="#e5eaeb"/>
        <path id="Path_1333" data-name="Path 1333" d="M384.24-3.239a3.217,3.217,0,0,1,3.216,3.217A3.217,3.217,0,0,1,384.24,3.2a3.217,3.217,0,0,1-3.217-3.217A3.217,3.217,0,0,1,384.24-3.239Z" transform="translate(-250.607 135.615)" fill="#e5eaeb"/>
        <path id="Path_1334" data-name="Path 1334" d="M384.24-35.052a3.216,3.216,0,0,1,3.216,3.216,3.216,3.216,0,0,1-3.216,3.217,3.217,3.217,0,0,1-3.217-3.217A3.217,3.217,0,0,1,384.24-35.052Z" transform="translate(-250.607 150.642)" fill="#e5eaeb"/>
        <path id="Path_1335" data-name="Path 1335" d="M384.24-66.866a3.217,3.217,0,0,1,3.216,3.217,3.217,3.217,0,0,1-3.216,3.217,3.217,3.217,0,0,1-3.217-3.217A3.217,3.217,0,0,1,384.24-66.866Z" transform="translate(-250.607 165.67)" fill="#e5eaeb"/>
        <path id="Path_1336" data-name="Path 1336" d="M384.24-98.68a3.217,3.217,0,0,1,3.216,3.217,3.217,3.217,0,0,1-3.216,3.217,3.217,3.217,0,0,1-3.217-3.217A3.217,3.217,0,0,1,384.24-98.68Z" transform="translate(-250.607 180.697)" fill="#e5eaeb"/>
        <path id="Path_1337" data-name="Path 1337" d="M384.24-130.493a3.217,3.217,0,0,1,3.216,3.217,3.216,3.216,0,0,1-3.216,3.216,3.217,3.217,0,0,1-3.217-3.216A3.217,3.217,0,0,1,384.24-130.493Z" transform="translate(-250.607 195.725)" fill="#e5eaeb"/>
        <path id="Path_1338" data-name="Path 1338" d="M384.24-162.307a3.217,3.217,0,0,1,3.216,3.217,3.217,3.217,0,0,1-3.216,3.217,3.217,3.217,0,0,1-3.217-3.217A3.217,3.217,0,0,1,384.24-162.307Z" transform="translate(-250.607 210.752)" fill="#e5eaeb"/>
        <path id="Path_1339" data-name="Path 1339" d="M384.24-194.12a3.216,3.216,0,0,1,3.216,3.217,3.216,3.216,0,0,1-3.216,3.216,3.217,3.217,0,0,1-3.217-3.216A3.217,3.217,0,0,1,384.24-194.12Z" transform="translate(-250.607 225.78)" fill="#e5eaeb"/>
        <path id="Path_1340" data-name="Path 1340" d="M384.24-225.934a3.217,3.217,0,0,1,3.216,3.217,3.217,3.217,0,0,1-3.216,3.217,3.217,3.217,0,0,1-3.217-3.217A3.217,3.217,0,0,1,384.24-225.934Z" transform="translate(-250.607 240.807)" fill="#e5eaeb"/>
        <path id="Path_1341" data-name="Path 1341" d="M384.24-257.747a3.216,3.216,0,0,1,3.216,3.217,3.216,3.216,0,0,1-3.216,3.216,3.217,3.217,0,0,1-3.217-3.216A3.217,3.217,0,0,1,384.24-257.747Z" transform="translate(-250.607 255.835)" fill="#e5eaeb"/>
        <path id="Path_1342" data-name="Path 1342" d="M416.054,124.016a3.217,3.217,0,1,1-3.217,3.216A3.217,3.217,0,0,1,416.054,124.016Z" transform="translate(-265.635 75.504)" fill="#e5eaeb"/>
        <path id="Path_1343" data-name="Path 1343" d="M416.054,92.2a3.217,3.217,0,1,1-3.217,3.217A3.217,3.217,0,0,1,416.054,92.2Z" transform="translate(-265.635 90.532)" fill="#e5eaeb"/>
        <path id="Path_1344" data-name="Path 1344" d="M416.054,60.389a3.217,3.217,0,1,1-3.217,3.216A3.217,3.217,0,0,1,416.054,60.389Z" transform="translate(-265.635 105.559)" fill="#e5eaeb"/>
        <path id="Path_1345" data-name="Path 1345" d="M416.054,28.575a3.217,3.217,0,1,1-3.217,3.216A3.217,3.217,0,0,1,416.054,28.575Z" transform="translate(-265.635 120.587)" fill="#e5eaeb"/>
        <path id="Path_1346" data-name="Path 1346" d="M416.054-3.239a3.217,3.217,0,0,1,3.216,3.217A3.217,3.217,0,0,1,416.054,3.2a3.217,3.217,0,0,1-3.217-3.217A3.217,3.217,0,0,1,416.054-3.239Z" transform="translate(-265.635 135.615)" fill="#e5eaeb"/>
        <path id="Path_1347" data-name="Path 1347" d="M416.054-35.052a3.217,3.217,0,0,1,3.216,3.216,3.217,3.217,0,0,1-3.216,3.217,3.216,3.216,0,0,1-3.217-3.217A3.216,3.216,0,0,1,416.054-35.052Z" transform="translate(-265.635 150.642)" fill="#e5eaeb"/>
        <path id="Path_1348" data-name="Path 1348" d="M416.054-66.866a3.217,3.217,0,0,1,3.216,3.217,3.217,3.217,0,0,1-3.216,3.217,3.217,3.217,0,0,1-3.217-3.217A3.217,3.217,0,0,1,416.054-66.866Z" transform="translate(-265.635 165.67)" fill="#e5eaeb"/>
        <path id="Path_1349" data-name="Path 1349" d="M416.054-98.68a3.217,3.217,0,0,1,3.216,3.217,3.217,3.217,0,0,1-3.216,3.217,3.217,3.217,0,0,1-3.217-3.217A3.217,3.217,0,0,1,416.054-98.68Z" transform="translate(-265.635 180.697)" fill="#e5eaeb"/>
        <path id="Path_1350" data-name="Path 1350" d="M416.054-130.493a3.217,3.217,0,0,1,3.216,3.217,3.217,3.217,0,0,1-3.216,3.216,3.216,3.216,0,0,1-3.217-3.216A3.217,3.217,0,0,1,416.054-130.493Z" transform="translate(-265.635 195.725)" fill="#e5eaeb"/>
        <path id="Path_1351" data-name="Path 1351" d="M416.054-162.307a3.217,3.217,0,0,1,3.216,3.217,3.217,3.217,0,0,1-3.216,3.217,3.217,3.217,0,0,1-3.217-3.217A3.217,3.217,0,0,1,416.054-162.307Z" transform="translate(-265.635 210.752)" fill="#e5eaeb"/>
        <path id="Path_1352" data-name="Path 1352" d="M416.054-194.12a3.217,3.217,0,0,1,3.216,3.217,3.217,3.217,0,0,1-3.216,3.216,3.216,3.216,0,0,1-3.217-3.216A3.216,3.216,0,0,1,416.054-194.12Z" transform="translate(-265.635 225.78)" fill="#e5eaeb"/>
        <path id="Path_1353" data-name="Path 1353" d="M416.054-225.934a3.217,3.217,0,0,1,3.216,3.217,3.217,3.217,0,0,1-3.216,3.217,3.217,3.217,0,0,1-3.217-3.217A3.217,3.217,0,0,1,416.054-225.934Z" transform="translate(-265.635 240.807)" fill="#e5eaeb"/>
        <path id="Path_1354" data-name="Path 1354" d="M416.054-257.747a3.217,3.217,0,0,1,3.216,3.217,3.217,3.217,0,0,1-3.216,3.216,3.216,3.216,0,0,1-3.217-3.216A3.216,3.216,0,0,1,416.054-257.747Z" transform="translate(-265.635 255.835)" fill="#e5eaeb"/>
        <path id="Path_1355" data-name="Path 1355" d="M447.867,124.016a3.217,3.217,0,1,1-3.217,3.216A3.217,3.217,0,0,1,447.867,124.016Z" transform="translate(-280.662 75.504)" fill="#e5eaeb"/>
        <path id="Path_1356" data-name="Path 1356" d="M447.867,92.2a3.217,3.217,0,1,1-3.217,3.217A3.217,3.217,0,0,1,447.867,92.2Z" transform="translate(-280.662 90.532)" fill="#e5eaeb"/>
        <path id="Path_1357" data-name="Path 1357" d="M447.867,60.389a3.217,3.217,0,1,1-3.217,3.216A3.217,3.217,0,0,1,447.867,60.389Z" transform="translate(-280.662 105.559)" fill="#e5eaeb"/>
        <path id="Path_1358" data-name="Path 1358" d="M447.867,28.575a3.217,3.217,0,1,1-3.217,3.216A3.217,3.217,0,0,1,447.867,28.575Z" transform="translate(-280.662 120.587)" fill="#e5eaeb"/>
        <path id="Path_1359" data-name="Path 1359" d="M447.867-3.239a3.217,3.217,0,0,1,3.217,3.217A3.217,3.217,0,0,1,447.867,3.2,3.217,3.217,0,0,1,444.65-.022,3.217,3.217,0,0,1,447.867-3.239Z" transform="translate(-280.662 135.615)" fill="#e5eaeb"/>
        <path id="Path_1360" data-name="Path 1360" d="M447.867-35.052a3.217,3.217,0,0,1,3.217,3.216,3.217,3.217,0,0,1-3.217,3.217,3.217,3.217,0,0,1-3.217-3.217A3.217,3.217,0,0,1,447.867-35.052Z" transform="translate(-280.662 150.642)" fill="#e5eaeb"/>
        <path id="Path_1361" data-name="Path 1361" d="M447.867-66.866a3.217,3.217,0,0,1,3.217,3.217,3.217,3.217,0,0,1-3.217,3.217,3.217,3.217,0,0,1-3.217-3.217A3.217,3.217,0,0,1,447.867-66.866Z" transform="translate(-280.662 165.67)" fill="#e5eaeb"/>
        <path id="Path_1362" data-name="Path 1362" d="M447.867-98.68a3.217,3.217,0,0,1,3.217,3.217,3.217,3.217,0,0,1-3.217,3.217,3.217,3.217,0,0,1-3.217-3.217A3.217,3.217,0,0,1,447.867-98.68Z" transform="translate(-280.662 180.697)" fill="#e5eaeb"/>
        <path id="Path_1363" data-name="Path 1363" d="M447.867-130.493a3.217,3.217,0,0,1,3.217,3.217,3.217,3.217,0,0,1-3.217,3.216,3.217,3.217,0,0,1-3.217-3.216A3.217,3.217,0,0,1,447.867-130.493Z" transform="translate(-280.662 195.725)" fill="#e5eaeb"/>
        <path id="Path_1364" data-name="Path 1364" d="M447.867-162.307a3.217,3.217,0,0,1,3.217,3.217,3.217,3.217,0,0,1-3.217,3.217,3.217,3.217,0,0,1-3.217-3.217A3.217,3.217,0,0,1,447.867-162.307Z" transform="translate(-280.662 210.752)" fill="#e5eaeb"/>
        <path id="Path_1365" data-name="Path 1365" d="M447.867-194.12a3.217,3.217,0,0,1,3.217,3.217,3.217,3.217,0,0,1-3.217,3.216,3.217,3.217,0,0,1-3.217-3.216A3.217,3.217,0,0,1,447.867-194.12Z" transform="translate(-280.662 225.78)" fill="#e5eaeb"/>
        <path id="Path_1366" data-name="Path 1366" d="M447.867-225.934a3.217,3.217,0,0,1,3.217,3.217,3.217,3.217,0,0,1-3.217,3.217,3.217,3.217,0,0,1-3.217-3.217A3.217,3.217,0,0,1,447.867-225.934Z" transform="translate(-280.662 240.807)" fill="#e5eaeb"/>
        <path id="Path_1367" data-name="Path 1367" d="M447.867-257.747a3.217,3.217,0,0,1,3.217,3.217,3.217,3.217,0,0,1-3.217,3.216,3.217,3.217,0,0,1-3.217-3.216A3.217,3.217,0,0,1,447.867-257.747Z" transform="translate(-280.662 255.835)" fill="#e5eaeb"/>
        <path id="Path_1368" data-name="Path 1368" d="M479.68,124.016a3.217,3.217,0,1,1-3.216,3.216A3.216,3.216,0,0,1,479.68,124.016Z" transform="translate(-295.69 75.504)" fill="#e5eaeb"/>
        <path id="Path_1369" data-name="Path 1369" d="M479.68,92.2a3.217,3.217,0,1,1-3.216,3.217A3.217,3.217,0,0,1,479.68,92.2Z" transform="translate(-295.69 90.532)" fill="#e5eaeb"/>
        <path id="Path_1370" data-name="Path 1370" d="M479.68,60.389a3.217,3.217,0,1,1-3.216,3.216A3.216,3.216,0,0,1,479.68,60.389Z" transform="translate(-295.69 105.559)" fill="#e5eaeb"/>
        <path id="Path_1371" data-name="Path 1371" d="M479.68,28.575a3.217,3.217,0,1,1-3.216,3.216A3.217,3.217,0,0,1,479.68,28.575Z" transform="translate(-295.69 120.587)" fill="#e5eaeb"/>
        <path id="Path_1372" data-name="Path 1372" d="M479.68-3.239A3.217,3.217,0,0,1,482.9-.022,3.217,3.217,0,0,1,479.68,3.2a3.217,3.217,0,0,1-3.216-3.217A3.217,3.217,0,0,1,479.68-3.239Z" transform="translate(-295.69 135.615)" fill="#e5eaeb"/>
        <path id="Path_1373" data-name="Path 1373" d="M479.68-35.052a3.216,3.216,0,0,1,3.217,3.216,3.217,3.217,0,0,1-3.217,3.217,3.216,3.216,0,0,1-3.216-3.217A3.216,3.216,0,0,1,479.68-35.052Z" transform="translate(-295.69 150.642)" fill="#e5eaeb"/>
        <path id="Path_1374" data-name="Path 1374" d="M479.68-66.866a3.217,3.217,0,0,1,3.217,3.217,3.217,3.217,0,0,1-3.217,3.217,3.217,3.217,0,0,1-3.216-3.217A3.217,3.217,0,0,1,479.68-66.866Z" transform="translate(-295.69 165.67)" fill="#e5eaeb"/>
        <path id="Path_1375" data-name="Path 1375" d="M479.68-98.68a3.217,3.217,0,0,1,3.217,3.217,3.217,3.217,0,0,1-3.217,3.217,3.217,3.217,0,0,1-3.216-3.217A3.217,3.217,0,0,1,479.68-98.68Z" transform="translate(-295.69 180.697)" fill="#e5eaeb"/>
        <path id="Path_1376" data-name="Path 1376" d="M479.68-130.493a3.217,3.217,0,0,1,3.217,3.217,3.216,3.216,0,0,1-3.217,3.216,3.216,3.216,0,0,1-3.216-3.216A3.217,3.217,0,0,1,479.68-130.493Z" transform="translate(-295.69 195.725)" fill="#e5eaeb"/>
        <path id="Path_1377" data-name="Path 1377" d="M479.68-162.307a3.217,3.217,0,0,1,3.217,3.217,3.217,3.217,0,0,1-3.217,3.217,3.217,3.217,0,0,1-3.216-3.217A3.217,3.217,0,0,1,479.68-162.307Z" transform="translate(-295.69 210.752)" fill="#e5eaeb"/>
        <path id="Path_1378" data-name="Path 1378" d="M479.68-194.12A3.217,3.217,0,0,1,482.9-190.9a3.216,3.216,0,0,1-3.217,3.216,3.216,3.216,0,0,1-3.216-3.216A3.216,3.216,0,0,1,479.68-194.12Z" transform="translate(-295.69 225.78)" fill="#e5eaeb"/>
        <path id="Path_1379" data-name="Path 1379" d="M479.68-225.934a3.217,3.217,0,0,1,3.217,3.217,3.217,3.217,0,0,1-3.217,3.217,3.217,3.217,0,0,1-3.216-3.217A3.217,3.217,0,0,1,479.68-225.934Z" transform="translate(-295.69 240.807)" fill="#e5eaeb"/>
        <path id="Path_1380" data-name="Path 1380" d="M479.68-257.747a3.217,3.217,0,0,1,3.217,3.217,3.216,3.216,0,0,1-3.217,3.216,3.216,3.216,0,0,1-3.216-3.216A3.216,3.216,0,0,1,479.68-257.747Z" transform="translate(-295.69 255.835)" fill="#e5eaeb"/>
        <circle id="Ellipse_135" data-name="Ellipse 135" cx="3.217" cy="3.217" r="3.217" transform="translate(197.56 199.52)" fill="#e5eaeb"/>
        <path id="Path_1381" data-name="Path 1381" d="M511.494,92.2a3.217,3.217,0,1,1-3.217,3.217A3.217,3.217,0,0,1,511.494,92.2Z" transform="translate(-310.717 90.532)" fill="#e5eaeb"/>
        <path id="Path_1382" data-name="Path 1382" d="M511.494,60.389a3.217,3.217,0,1,1-3.217,3.216A3.217,3.217,0,0,1,511.494,60.389Z" transform="translate(-310.717 105.559)" fill="#e5eaeb"/>
        <circle id="Ellipse_136" data-name="Ellipse 136" cx="3.217" cy="3.217" r="3.217" transform="translate(197.56 149.162)" fill="#e5eaeb"/>
        <circle id="Ellipse_137" data-name="Ellipse 137" cx="3.217" cy="3.217" r="3.217" transform="translate(197.56 132.376)" fill="#e5eaeb"/>
        <path id="Path_1383" data-name="Path 1383" d="M511.494-35.052a3.217,3.217,0,0,1,3.217,3.216,3.217,3.217,0,0,1-3.217,3.217,3.217,3.217,0,0,1-3.217-3.217A3.217,3.217,0,0,1,511.494-35.052Z" transform="translate(-310.717 150.642)" fill="#e5eaeb"/>
        <path id="Path_1384" data-name="Path 1384" d="M511.494-66.866a3.217,3.217,0,0,1,3.217,3.217,3.217,3.217,0,0,1-3.217,3.217,3.217,3.217,0,0,1-3.217-3.217A3.217,3.217,0,0,1,511.494-66.866Z" transform="translate(-310.717 165.67)" fill="#e5eaeb"/>
        <path id="Path_1385" data-name="Path 1385" d="M511.494-98.68a3.217,3.217,0,0,1,3.217,3.217,3.217,3.217,0,0,1-3.217,3.217,3.217,3.217,0,0,1-3.217-3.217A3.217,3.217,0,0,1,511.494-98.68Z" transform="translate(-310.717 180.697)" fill="#e5eaeb"/>
        <circle id="Ellipse_138" data-name="Ellipse 138" cx="3.217" cy="3.217" r="3.217" transform="translate(197.56 65.232)" fill="#e5eaeb"/>
        <path id="Path_1386" data-name="Path 1386" d="M511.494-162.307a3.217,3.217,0,0,1,3.217,3.217,3.217,3.217,0,0,1-3.217,3.217,3.217,3.217,0,0,1-3.217-3.217A3.217,3.217,0,0,1,511.494-162.307Z" transform="translate(-310.717 210.752)" fill="#e5eaeb"/>
        <path id="Path_1387" data-name="Path 1387" d="M511.494-194.12a3.217,3.217,0,0,1,3.217,3.217,3.217,3.217,0,0,1-3.217,3.216,3.217,3.217,0,0,1-3.217-3.216A3.217,3.217,0,0,1,511.494-194.12Z" transform="translate(-310.717 225.78)" fill="#e5eaeb"/>
        <circle id="Ellipse_139" data-name="Ellipse 139" cx="3.217" cy="3.217" r="3.217" transform="translate(197.56 14.874)" fill="#e5eaeb"/>
        <circle id="Ellipse_140" data-name="Ellipse 140" cx="3.217" cy="3.217" r="3.217" transform="translate(197.56 -1.912)" fill="#e5eaeb"/>
      </g>
    </g>
  </g>
</svg>
