<svg xmlns="http://www.w3.org/2000/svg" xmlns:xlink="http://www.w3.org/1999/xlink" width="105.728" height="137.797" viewBox="0 0 105.728 137.797">
  <defs>
    <clipPath id="clip-path">
      <path id="Path_2028" data-name="Path 2028" d="M-206.635,1636.1c1.256,1.181,2.535,2.327,3.863,3.4a33.615,33.615,0,0,0,4.179,2.878c8.73,5.093,19.529,6.246,29.576,4.117a46.659,46.659,0,0,0,5.64-1.569c10.227-3.565,20.253-8.8,26.242-18.421,7.143-11.587,6.877-25.637,2.031-37.616a41.351,41.351,0,0,0-2.368-5.375,41.734,41.734,0,0,0-32.2-22.011,42,42,0,0,0-4.939-.736,40.887,40.887,0,0,0-10.313.4c-18.876,3.11-30.939,18.394-33.625,35.466-.336,2.134-.55,4.288-.737,6.433-1.284,9.9.833,20.6,7.769,28.151A62.912,62.912,0,0,0-206.635,1636.1Z" transform="translate(219.638 -1560.605)" fill="none"/>
    </clipPath>
  </defs>
  <g id="Group_614" data-name="Group 614" transform="translate(-321.861 -187.074)">
    <path id="Path_617" data-name="Path 617" d="M-220.294,1633.153c20-2.394,35.226,15.23,39.808,33.188a55.472,55.472,0,0,1,.974,6.026,51.961,51.961,0,0,1-1.242,18.291,44.766,44.766,0,0,1-1.915,5.8c-5.63,17.616-24.817,29.087-42.919,23.957a38.271,38.271,0,0,1-6.493-1.3c-14.7-4.294-26.051-17.078-29.655-31.885a55.05,55.05,0,0,1-1.151-6.429c-4.768-22.723,14.627-41.493,35.391-46.249A50.086,50.086,0,0,1-220.294,1633.153Z" transform="translate(585.479 -1396.779)" fill="#f7f3ee"/>
    <path id="Path_628" data-name="Path 628" d="M-127.366,1419.214c20-2.393,35.227,15.23,39.808,33.189a55.53,55.53,0,0,1,.974,6.026,51.955,51.955,0,0,1-1.243,18.291,44.7,44.7,0,0,1-1.916,5.8c-5.63,17.616-24.817,29.087-42.919,23.957a38.29,38.29,0,0,1-6.493-1.3c-14.7-4.295-26.051-17.078-29.655-31.884a55.1,55.1,0,0,1-1.151-6.429c-4.769-22.723,14.627-41.493,35.391-46.249A50.123,50.123,0,0,1-127.366,1419.214Z" transform="translate(513.869 -1231.921)" fill="#f6d1cf"/>
    <g id="Group_456" data-name="Group 456" transform="translate(331.95 219.562)" clip-path="url(#clip-path)">
      <path id="Path_2010" data-name="Path 2010" d="M-372.03,1314.172c-9.133,8.719-.763,17.487-9.9,26.206s-17.5-.048-26.636,8.67-.763,17.487-9.9,26.206-17.5-.049-26.636,8.671-.763,17.487-9.9,26.205-17.5-.049-26.636,8.671-.763,17.487-9.9,26.206-17.5-.048-26.636,8.671" transform="translate(449.673 -1370.707)" fill="none" stroke="#96d1bf" stroke-miterlimit="10" stroke-width="2.468"/>
      <path id="Path_2011" data-name="Path 2011" d="M-356.285,1330.665c-9.133,8.719-.763,17.487-9.9,26.206s-17.5-.049-26.636,8.671-.763,17.486-9.9,26.206-17.5-.048-26.636,8.671-.763,17.487-9.9,26.206-17.5-.048-26.636,8.67-.763,17.487-9.9,26.206-17.5-.048-26.636,8.671" transform="translate(437.54 -1383.417)" fill="none" stroke="#96d1bf" stroke-miterlimit="10" stroke-width="2.468"/>
      <path id="Path_2012" data-name="Path 2012" d="M-340.54,1347.157c-9.133,8.719-.763,17.487-9.9,26.206s-17.5-.049-26.636,8.671-.763,17.487-9.9,26.205-17.5-.048-26.636,8.671-.763,17.487-9.9,26.206-17.5-.049-26.637,8.671-.763,17.487-9.9,26.206-17.5-.049-26.637,8.671" transform="translate(425.407 -1396.125)" fill="none" stroke="#96d1bf" stroke-miterlimit="10" stroke-width="2.468"/>
      <path id="Path_2013" data-name="Path 2013" d="M-324.794,1363.65c-9.133,8.719-.763,17.487-9.9,26.206s-17.5-.049-26.636,8.67-.763,17.487-9.9,26.206-17.5-.048-26.636,8.67-.763,17.487-9.9,26.206-17.5-.048-26.636,8.671-.763,17.487-9.9,26.206-17.5-.048-26.637,8.671" transform="translate(413.274 -1408.834)" fill="none" stroke="#96d1bf" stroke-miterlimit="10" stroke-width="2.468"/>
      <path id="Path_2014" data-name="Path 2014" d="M-309.049,1380.143c-9.133,8.719-.763,17.486-9.9,26.206s-17.5-.049-26.636,8.67-.763,17.487-9.9,26.206-17.5-.049-26.636,8.671-.763,17.486-9.9,26.205-17.5-.048-26.636,8.671-.763,17.487-9.9,26.206-17.5-.049-26.637,8.671" transform="translate(401.141 -1421.544)" fill="none" stroke="#96d1bf" stroke-miterlimit="10" stroke-width="2.468"/>
      <path id="Path_2015" data-name="Path 2015" d="M-293.3,1396.635c-9.133,8.719-.763,17.487-9.9,26.206s-17.5-.048-26.636,8.67-.763,17.487-9.9,26.206-17.5-.049-26.636,8.67-.762,17.487-9.9,26.206-17.5-.049-26.636,8.671-.763,17.487-9.9,26.206-17.5-.049-26.637,8.671" transform="translate(389.008 -1434.252)" fill="none" stroke="#96d1bf" stroke-miterlimit="10" stroke-width="2.468"/>
      <path id="Path_2016" data-name="Path 2016" d="M-277.559,1413.128c-9.133,8.719-.763,17.487-9.9,26.205s-17.5-.048-26.636,8.671-.763,17.487-9.9,26.206-17.5-.048-26.636,8.671-.762,17.486-9.9,26.205-17.5-.049-26.636,8.671-.763,17.487-9.9,26.206-17.5-.049-26.636,8.671" transform="translate(376.875 -1446.962)" fill="none" stroke="#96d1bf" stroke-miterlimit="10" stroke-width="2.468"/>
      <path id="Path_2017" data-name="Path 2017" d="M-261.814,1429.62c-9.133,8.719-.763,17.487-9.9,26.206s-17.5-.049-26.636,8.67-.763,17.487-9.9,26.205-17.5-.048-26.636,8.671-.763,17.487-9.9,26.206-17.5-.049-26.636,8.671-.763,17.487-9.9,26.206-17.5-.049-26.636,8.671" transform="translate(364.742 -1459.67)" fill="none" stroke="#96d1bf" stroke-miterlimit="10" stroke-width="2.468"/>
      <path id="Path_2018" data-name="Path 2018" d="M-246.069,1446.113c-9.133,8.719-.762,17.487-9.9,26.206s-17.5-.049-26.636,8.67-.763,17.487-9.9,26.206-17.5-.049-26.636,8.671-.763,17.487-9.9,26.206-17.5-.048-26.636,8.671-.763,17.487-9.9,26.206-17.5-.048-26.636,8.671" transform="translate(352.609 -1472.379)" fill="none" stroke="#96d1bf" stroke-miterlimit="10" stroke-width="2.468"/>
      <path id="Path_2019" data-name="Path 2019" d="M-230.324,1462.6c-9.133,8.719-.762,17.487-9.9,26.206s-17.5-.049-26.636,8.671-.763,17.487-9.9,26.205-17.5-.048-26.636,8.671-.763,17.487-9.9,26.206-17.5-.048-26.636,8.671-.763,17.487-9.9,26.206-17.5-.049-26.636,8.671" transform="translate(340.476 -1485.088)" fill="none" stroke="#96d1bf" stroke-miterlimit="10" stroke-width="2.468"/>
      <path id="Path_2020" data-name="Path 2020" d="M-214.579,1479.1c-9.133,8.719-.762,17.487-9.9,26.206s-17.5-.048-26.636,8.671-.763,17.487-9.9,26.206-17.5-.049-26.636,8.67-.763,17.487-9.9,26.206-17.5-.049-26.636,8.671-.763,17.487-9.9,26.206-17.5-.048-26.636,8.671" transform="translate(328.343 -1497.797)" fill="none" stroke="#96d1bf" stroke-miterlimit="10" stroke-width="2.468"/>
      <path id="Path_2021" data-name="Path 2021" d="M-198.833,1495.591c-9.133,8.719-.763,17.487-9.9,26.206s-17.5-.049-26.636,8.67-.763,17.487-9.9,26.206-17.5-.049-26.636,8.671-.763,17.487-9.9,26.206-17.5-.048-26.636,8.671-.763,17.487-9.9,26.206-17.5-.048-26.636,8.671" transform="translate(316.209 -1510.506)" fill="none" stroke="#96d1bf" stroke-miterlimit="10" stroke-width="2.468"/>
      <path id="Path_2022" data-name="Path 2022" d="M-183.088,1512.083c-9.133,8.719-.763,17.487-9.9,26.206s-17.5-.048-26.636,8.67-.763,17.487-9.9,26.206-17.5-.048-26.636,8.671-.763,17.487-9.9,26.206-17.5-.048-26.636,8.67-.763,17.487-9.9,26.206-17.5-.049-26.636,8.671" transform="translate(304.077 -1523.215)" fill="none" stroke="#96d1bf" stroke-miterlimit="10" stroke-width="2.468"/>
      <path id="Path_2023" data-name="Path 2023" d="M-167.343,1528.576c-9.133,8.719-.763,17.487-9.9,26.206s-17.5-.049-26.636,8.67-.763,17.487-9.9,26.206-17.5-.049-26.636,8.67-.763,17.487-9.9,26.206-17.5-.048-26.636,8.671-.763,17.487-9.9,26.206-17.5-.048-26.636,8.671" transform="translate(291.944 -1535.924)" fill="none" stroke="#96d1bf" stroke-miterlimit="10" stroke-width="2.468"/>
      <path id="Path_2024" data-name="Path 2024" d="M-151.6,1545.068c-9.133,8.719-.763,17.487-9.9,26.206s-17.5-.049-26.636,8.67-.763,17.487-9.9,26.206-17.5-.049-26.636,8.67-.763,17.487-9.9,26.206-17.5-.048-26.636,8.671-.763,17.487-9.9,26.206-17.5-.049-26.636,8.671" transform="translate(279.811 -1548.633)" fill="none" stroke="#96d1bf" stroke-miterlimit="10" stroke-width="2.468"/>
      <path id="Path_2025" data-name="Path 2025" d="M-135.852,1561.56c-9.133,8.719-.763,17.487-9.9,26.206s-17.5-.049-26.636,8.67-.763,17.487-9.9,26.206-17.5-.049-26.636,8.67-.763,17.487-9.9,26.206-17.5-.049-26.636,8.67-.763,17.487-9.9,26.206-17.5-.048-26.637,8.671" transform="translate(267.678 -1561.341)" fill="none" stroke="#96d1bf" stroke-miterlimit="10" stroke-width="2.468"/>
      <path id="Path_2026" data-name="Path 2026" d="M-120.107,1578.053c-9.133,8.719-.763,17.487-9.9,26.206s-17.5-.049-26.636,8.67-.762,17.487-9.9,26.206-17.5-.048-26.636,8.67-.763,17.487-9.9,26.206-17.5-.049-26.636,8.671-.763,17.487-9.9,26.206-17.5-.048-26.637,8.67" transform="translate(255.545 -1574.05)" fill="none" stroke="#96d1bf" stroke-miterlimit="10" stroke-width="2.468"/>
      <path id="Path_2027" data-name="Path 2027" d="M-104.362,1594.546c-9.133,8.719-.763,17.487-9.9,26.205s-17.5-.048-26.636,8.671-.762,17.487-9.9,26.206-17.5-.048-26.636,8.671-.763,17.487-9.9,26.205-17.5-.049-26.636,8.671-.763,17.487-9.9,26.206-17.5-.049-26.637,8.671" transform="translate(243.412 -1586.76)" fill="none" stroke="#96d1bf" stroke-miterlimit="10" stroke-width="2.468"/>
    </g>
  </g>
</svg>
