<svg xmlns="http://www.w3.org/2000/svg" xmlns:xlink="http://www.w3.org/1999/xlink" width="169.991" height="168.609" viewBox="0 0 169.991 168.609">
  <defs>
    <clipPath id="clip-path">
      <path id="Path_832" data-name="Path 832" d="M2236.493,1205.031c31.056-3.715,54.694,23.647,61.808,51.53a86.242,86.242,0,0,1,1.512,9.356,80.681,80.681,0,0,1-1.929,28.4,69.44,69.44,0,0,1-2.975,9.012c-8.741,27.352-38.532,45.162-66.637,37.2a59.453,59.453,0,0,1-10.081-2.021c-22.825-6.668-43.488-20.365-49.083-43.355-.8-3.284-2.5-8.408-2.9-11.766-7.4-35.28,26.865-68.79,59.1-76.174A77.774,77.774,0,0,1,2236.493,1205.031Z" transform="translate(-2165.187 -1204.692)" fill="none"/>
    </clipPath>
  </defs>
  <g id="Group_615" data-name="Group 615" transform="translate(-1018.207 -265.555)">
    <path id="Path_625" data-name="Path 625" d="M2293.73,1293.406a57.706,57.706,0,0,1,5.774-3.161,50.251,50.251,0,0,1,32.244-4c21,4.329,34.651,21.272,41.5,39.9,1.256,2.321,2.62,4.654,3.932,7.033,7.875,14.275,12.321,30.515,6.986,47.27-4.1,13-13.245,22.993-24.615,29.38-2.982,1.787-5.966,3.668-9.034,5.468-18.41,10.8-41.963,13.241-61.871,4.562a62.186,62.186,0,0,1-8.067-4.093,65.264,65.264,0,0,1-17.793-16.127,69.3,69.3,0,0,1-4.426-6.56,59.6,59.6,0,0,1-7.227-15.906,67.334,67.334,0,0,1-1.852-8.476c-12.969-28.21,4.142-63.43,34.546-70.5A71,71,0,0,0,2293.73,1293.406Z" transform="translate(-1198.3 -990.95)" fill="#96d1bf"/>
    <g id="Group_431" data-name="Group 431" transform="translate(1018.207 265.555)">
      <g id="Group_430" data-name="Group 430" clip-path="url(#clip-path)">
        <path id="Path_675" data-name="Path 675" d="M2160.019,1582.83a2.172,2.172,0,1,1-2.171,2.172A2.172,2.172,0,0,1,2160.019,1582.83Z" transform="translate(-2160.462 -1448.138)" fill="#e5eaeb"/>
        <path id="Path_676" data-name="Path 676" d="M2160.019,1551.017a2.172,2.172,0,1,1-2.171,2.171A2.171,2.171,0,0,1,2160.019,1551.017Z" transform="translate(-2160.462 -1427.657)" fill="#e5eaeb"/>
        <path id="Path_677" data-name="Path 677" d="M2160.019,1519.2a2.172,2.172,0,1,1-2.171,2.171A2.171,2.171,0,0,1,2160.019,1519.2Z" transform="translate(-2160.462 -1407.175)" fill="#e5eaeb"/>
        <path id="Path_678" data-name="Path 678" d="M2160.019,1487.389a2.172,2.172,0,1,1-2.171,2.172A2.171,2.171,0,0,1,2160.019,1487.389Z" transform="translate(-2160.462 -1386.693)" fill="#e5eaeb"/>
        <path id="Path_679" data-name="Path 679" d="M2160.019,1455.576a2.172,2.172,0,1,1-2.171,2.171A2.171,2.171,0,0,1,2160.019,1455.576Z" transform="translate(-2160.462 -1366.212)" fill="#e5eaeb"/>
        <path id="Path_680" data-name="Path 680" d="M2160.019,1423.762a2.172,2.172,0,1,1-2.171,2.172A2.172,2.172,0,0,1,2160.019,1423.762Z" transform="translate(-2160.462 -1345.73)" fill="#e5eaeb"/>
        <path id="Path_681" data-name="Path 681" d="M2160.019,1391.948a2.172,2.172,0,1,1-2.171,2.172A2.172,2.172,0,0,1,2160.019,1391.948Z" transform="translate(-2160.462 -1325.248)" fill="#e5eaeb"/>
        <path id="Path_682" data-name="Path 682" d="M2160.019,1360.135a2.172,2.172,0,1,1-2.171,2.171A2.171,2.171,0,0,1,2160.019,1360.135Z" transform="translate(-2160.462 -1304.766)" fill="#e5eaeb"/>
        <path id="Path_683" data-name="Path 683" d="M2160.019,1328.321a2.172,2.172,0,1,1-2.171,2.172A2.172,2.172,0,0,1,2160.019,1328.321Z" transform="translate(-2160.462 -1284.285)" fill="#e5eaeb"/>
        <path id="Path_684" data-name="Path 684" d="M2160.019,1296.508a2.172,2.172,0,1,1-2.171,2.171A2.171,2.171,0,0,1,2160.019,1296.508Z" transform="translate(-2160.462 -1263.803)" fill="#e5eaeb"/>
        <path id="Path_685" data-name="Path 685" d="M2160.019,1264.694a2.172,2.172,0,1,1-2.171,2.172A2.172,2.172,0,0,1,2160.019,1264.694Z" transform="translate(-2160.462 -1243.321)" fill="#e5eaeb"/>
        <path id="Path_686" data-name="Path 686" d="M2160.019,1232.881a2.172,2.172,0,1,1-2.171,2.172A2.171,2.171,0,0,1,2160.019,1232.881Z" transform="translate(-2160.462 -1222.84)" fill="#e5eaeb"/>
        <path id="Path_687" data-name="Path 687" d="M2160.019,1201.067a2.172,2.172,0,1,1-2.171,2.172A2.172,2.172,0,0,1,2160.019,1201.067Z" transform="translate(-2160.462 -1202.358)" fill="#e5eaeb"/>
        <path id="Path_688" data-name="Path 688" d="M2191.833,1582.83a2.172,2.172,0,1,1-2.172,2.172A2.172,2.172,0,0,1,2191.833,1582.83Z" transform="translate(-2180.943 -1448.138)" fill="#e5eaeb"/>
        <circle id="Ellipse_5" data-name="Ellipse 5" cx="2.172" cy="2.172" r="2.172" transform="translate(8.718 123.36)" fill="#e5eaeb"/>
        <path id="Path_689" data-name="Path 689" d="M2191.833,1519.2a2.172,2.172,0,1,1-2.172,2.171A2.172,2.172,0,0,1,2191.833,1519.2Z" transform="translate(-2180.943 -1407.175)" fill="#e5eaeb"/>
        <path id="Path_690" data-name="Path 690" d="M2191.833,1487.389a2.172,2.172,0,1,1-2.172,2.172A2.172,2.172,0,0,1,2191.833,1487.389Z" transform="translate(-2180.943 -1386.693)" fill="#e5eaeb"/>
        <path id="Path_691" data-name="Path 691" d="M2191.833,1455.576a2.172,2.172,0,1,1-2.172,2.171A2.171,2.171,0,0,1,2191.833,1455.576Z" transform="translate(-2180.943 -1366.212)" fill="#e5eaeb"/>
        <path id="Path_692" data-name="Path 692" d="M2191.833,1423.762a2.172,2.172,0,1,1-2.172,2.172A2.172,2.172,0,0,1,2191.833,1423.762Z" transform="translate(-2180.943 -1345.73)" fill="#e5eaeb"/>
        <circle id="Ellipse_6" data-name="Ellipse 6" cx="2.172" cy="2.172" r="2.172" transform="translate(8.718 66.7)" fill="#e5eaeb"/>
        <path id="Path_693" data-name="Path 693" d="M2191.833,1360.135a2.172,2.172,0,1,1-2.172,2.171A2.171,2.171,0,0,1,2191.833,1360.135Z" transform="translate(-2180.943 -1304.766)" fill="#e5eaeb"/>
        <path id="Path_694" data-name="Path 694" d="M2191.833,1328.321a2.172,2.172,0,1,1-2.172,2.172A2.172,2.172,0,0,1,2191.833,1328.321Z" transform="translate(-2180.943 -1284.285)" fill="#e5eaeb"/>
        <circle id="Ellipse_7" data-name="Ellipse 7" cx="2.172" cy="2.172" r="2.172" transform="translate(8.718 32.705)" fill="#e5eaeb"/>
        <circle id="Ellipse_8" data-name="Ellipse 8" cx="2.172" cy="2.172" r="2.172" transform="translate(8.718 21.373)" fill="#e5eaeb"/>
        <path id="Path_695" data-name="Path 695" d="M2191.833,1232.881a2.172,2.172,0,1,1-2.172,2.172A2.171,2.171,0,0,1,2191.833,1232.881Z" transform="translate(-2180.943 -1222.84)" fill="#e5eaeb"/>
        <path id="Path_696" data-name="Path 696" d="M2191.833,1201.067a2.172,2.172,0,1,1-2.172,2.172A2.172,2.172,0,0,1,2191.833,1201.067Z" transform="translate(-2180.943 -1202.358)" fill="#e5eaeb"/>
        <path id="Path_697" data-name="Path 697" d="M2223.646,1582.83a2.172,2.172,0,1,1-2.171,2.172A2.172,2.172,0,0,1,2223.646,1582.83Z" transform="translate(-2201.426 -1448.138)" fill="#e5eaeb"/>
        <circle id="Ellipse_9" data-name="Ellipse 9" cx="2.172" cy="2.172" r="2.172" transform="translate(20.05 123.36)" fill="#e5eaeb"/>
        <path id="Path_698" data-name="Path 698" d="M2223.646,1519.2a2.172,2.172,0,1,1-2.171,2.171A2.172,2.172,0,0,1,2223.646,1519.2Z" transform="translate(-2201.426 -1407.175)" fill="#e5eaeb"/>
        <path id="Path_699" data-name="Path 699" d="M2223.646,1487.389a2.172,2.172,0,1,1-2.171,2.172A2.172,2.172,0,0,1,2223.646,1487.389Z" transform="translate(-2201.426 -1386.693)" fill="#e5eaeb"/>
        <path id="Path_700" data-name="Path 700" d="M2223.646,1455.576a2.172,2.172,0,1,1-2.171,2.171A2.171,2.171,0,0,1,2223.646,1455.576Z" transform="translate(-2201.426 -1366.212)" fill="#e5eaeb"/>
        <path id="Path_701" data-name="Path 701" d="M2223.646,1423.762a2.172,2.172,0,1,1-2.171,2.172A2.172,2.172,0,0,1,2223.646,1423.762Z" transform="translate(-2201.426 -1345.73)" fill="#e5eaeb"/>
        <circle id="Ellipse_10" data-name="Ellipse 10" cx="2.172" cy="2.172" r="2.172" transform="translate(20.05 66.7)" fill="#e5eaeb"/>
        <path id="Path_702" data-name="Path 702" d="M2223.646,1360.135a2.172,2.172,0,1,1-2.171,2.171A2.171,2.171,0,0,1,2223.646,1360.135Z" transform="translate(-2201.426 -1304.766)" fill="#e5eaeb"/>
        <path id="Path_703" data-name="Path 703" d="M2223.646,1328.321a2.172,2.172,0,1,1-2.171,2.172A2.172,2.172,0,0,1,2223.646,1328.321Z" transform="translate(-2201.426 -1284.285)" fill="#e5eaeb"/>
        <circle id="Ellipse_11" data-name="Ellipse 11" cx="2.172" cy="2.172" r="2.172" transform="translate(20.05 32.705)" fill="#e5eaeb"/>
        <circle id="Ellipse_12" data-name="Ellipse 12" cx="2.172" cy="2.172" r="2.172" transform="translate(20.05 21.373)" fill="#e5eaeb"/>
        <path id="Path_704" data-name="Path 704" d="M2223.646,1232.881a2.172,2.172,0,1,1-2.171,2.172A2.171,2.171,0,0,1,2223.646,1232.881Z" transform="translate(-2201.426 -1222.84)" fill="#e5eaeb"/>
        <path id="Path_705" data-name="Path 705" d="M2223.646,1201.067a2.172,2.172,0,1,1-2.171,2.172A2.172,2.172,0,0,1,2223.646,1201.067Z" transform="translate(-2201.426 -1202.358)" fill="#e5eaeb"/>
        <path id="Path_706" data-name="Path 706" d="M2255.46,1582.83a2.172,2.172,0,1,1-2.172,2.172A2.172,2.172,0,0,1,2255.46,1582.83Z" transform="translate(-2221.907 -1448.138)" fill="#e5eaeb"/>
        <path id="Path_707" data-name="Path 707" d="M2255.46,1551.017a2.172,2.172,0,1,1-2.172,2.171A2.171,2.171,0,0,1,2255.46,1551.017Z" transform="translate(-2221.907 -1427.657)" fill="#e5eaeb"/>
        <path id="Path_708" data-name="Path 708" d="M2255.46,1519.2a2.172,2.172,0,1,1-2.172,2.171A2.172,2.172,0,0,1,2255.46,1519.2Z" transform="translate(-2221.907 -1407.175)" fill="#e5eaeb"/>
        <path id="Path_709" data-name="Path 709" d="M2255.46,1487.389a2.172,2.172,0,1,1-2.172,2.172A2.172,2.172,0,0,1,2255.46,1487.389Z" transform="translate(-2221.907 -1386.693)" fill="#e5eaeb"/>
        <path id="Path_710" data-name="Path 710" d="M2255.46,1455.576a2.172,2.172,0,1,1-2.172,2.171A2.171,2.171,0,0,1,2255.46,1455.576Z" transform="translate(-2221.907 -1366.212)" fill="#e5eaeb"/>
        <path id="Path_711" data-name="Path 711" d="M2255.46,1423.762a2.172,2.172,0,1,1-2.172,2.172A2.172,2.172,0,0,1,2255.46,1423.762Z" transform="translate(-2221.907 -1345.73)" fill="#e5eaeb"/>
        <path id="Path_712" data-name="Path 712" d="M2255.46,1391.948a2.172,2.172,0,1,1-2.172,2.172A2.172,2.172,0,0,1,2255.46,1391.948Z" transform="translate(-2221.907 -1325.248)" fill="#e5eaeb"/>
        <path id="Path_713" data-name="Path 713" d="M2255.46,1360.135a2.172,2.172,0,1,1-2.172,2.171A2.171,2.171,0,0,1,2255.46,1360.135Z" transform="translate(-2221.907 -1304.766)" fill="#e5eaeb"/>
        <path id="Path_714" data-name="Path 714" d="M2255.46,1328.321a2.172,2.172,0,1,1-2.172,2.172A2.172,2.172,0,0,1,2255.46,1328.321Z" transform="translate(-2221.907 -1284.285)" fill="#e5eaeb"/>
        <path id="Path_715" data-name="Path 715" d="M2255.46,1296.508a2.172,2.172,0,1,1-2.172,2.171A2.171,2.171,0,0,1,2255.46,1296.508Z" transform="translate(-2221.907 -1263.803)" fill="#e5eaeb"/>
        <path id="Path_716" data-name="Path 716" d="M2255.46,1264.694a2.172,2.172,0,1,1-2.172,2.172A2.172,2.172,0,0,1,2255.46,1264.694Z" transform="translate(-2221.907 -1243.321)" fill="#e5eaeb"/>
        <path id="Path_717" data-name="Path 717" d="M2255.46,1232.881a2.172,2.172,0,1,1-2.172,2.172A2.171,2.171,0,0,1,2255.46,1232.881Z" transform="translate(-2221.907 -1222.84)" fill="#e5eaeb"/>
        <path id="Path_718" data-name="Path 718" d="M2255.46,1201.067a2.172,2.172,0,1,1-2.172,2.172A2.172,2.172,0,0,1,2255.46,1201.067Z" transform="translate(-2221.907 -1202.358)" fill="#e5eaeb"/>
        <path id="Path_719" data-name="Path 719" d="M2287.273,1582.83A2.172,2.172,0,1,1,2285.1,1585,2.172,2.172,0,0,1,2287.273,1582.83Z" transform="translate(-2242.389 -1448.138)" fill="#e5eaeb"/>
        <path id="Path_720" data-name="Path 720" d="M2287.273,1551.017a2.172,2.172,0,1,1-2.171,2.171A2.172,2.172,0,0,1,2287.273,1551.017Z" transform="translate(-2242.389 -1427.657)" fill="#e5eaeb"/>
        <path id="Path_721" data-name="Path 721" d="M2287.273,1519.2a2.172,2.172,0,1,1-2.171,2.171A2.172,2.172,0,0,1,2287.273,1519.2Z" transform="translate(-2242.389 -1407.175)" fill="#e5eaeb"/>
        <path id="Path_722" data-name="Path 722" d="M2287.273,1487.389a2.172,2.172,0,1,1-2.171,2.172A2.172,2.172,0,0,1,2287.273,1487.389Z" transform="translate(-2242.389 -1386.693)" fill="#e5eaeb"/>
        <path id="Path_723" data-name="Path 723" d="M2287.273,1455.576a2.172,2.172,0,1,1-2.171,2.171A2.171,2.171,0,0,1,2287.273,1455.576Z" transform="translate(-2242.389 -1366.212)" fill="#e5eaeb"/>
        <path id="Path_724" data-name="Path 724" d="M2287.273,1423.762a2.172,2.172,0,1,1-2.171,2.172A2.172,2.172,0,0,1,2287.273,1423.762Z" transform="translate(-2242.389 -1345.73)" fill="#e5eaeb"/>
        <path id="Path_725" data-name="Path 725" d="M2287.273,1391.948a2.172,2.172,0,1,1-2.171,2.172A2.172,2.172,0,0,1,2287.273,1391.948Z" transform="translate(-2242.389 -1325.248)" fill="#e5eaeb"/>
        <path id="Path_726" data-name="Path 726" d="M2287.273,1360.135a2.172,2.172,0,1,1-2.171,2.171A2.172,2.172,0,0,1,2287.273,1360.135Z" transform="translate(-2242.389 -1304.766)" fill="#e5eaeb"/>
        <path id="Path_727" data-name="Path 727" d="M2287.273,1328.321a2.172,2.172,0,1,1-2.171,2.172A2.172,2.172,0,0,1,2287.273,1328.321Z" transform="translate(-2242.389 -1284.285)" fill="#e5eaeb"/>
        <path id="Path_728" data-name="Path 728" d="M2287.273,1296.508a2.172,2.172,0,1,1-2.171,2.171A2.172,2.172,0,0,1,2287.273,1296.508Z" transform="translate(-2242.389 -1263.803)" fill="#e5eaeb"/>
        <path id="Path_729" data-name="Path 729" d="M2287.273,1264.694a2.172,2.172,0,1,1-2.171,2.172A2.172,2.172,0,0,1,2287.273,1264.694Z" transform="translate(-2242.389 -1243.321)" fill="#e5eaeb"/>
        <path id="Path_730" data-name="Path 730" d="M2287.273,1232.881a2.172,2.172,0,1,1-2.171,2.172A2.172,2.172,0,0,1,2287.273,1232.881Z" transform="translate(-2242.389 -1222.84)" fill="#e5eaeb"/>
        <path id="Path_731" data-name="Path 731" d="M2287.273,1201.067a2.172,2.172,0,1,1-2.171,2.172A2.172,2.172,0,0,1,2287.273,1201.067Z" transform="translate(-2242.389 -1202.358)" fill="#e5eaeb"/>
        <path id="Path_732" data-name="Path 732" d="M2319.087,1582.83a2.172,2.172,0,1,1-2.171,2.172A2.172,2.172,0,0,1,2319.087,1582.83Z" transform="translate(-2262.87 -1448.138)" fill="#e5eaeb"/>
        <path id="Path_733" data-name="Path 733" d="M2319.087,1551.017a2.172,2.172,0,1,1-2.171,2.171A2.171,2.171,0,0,1,2319.087,1551.017Z" transform="translate(-2262.87 -1427.657)" fill="#e5eaeb"/>
        <path id="Path_734" data-name="Path 734" d="M2319.087,1519.2a2.172,2.172,0,1,1-2.171,2.171A2.172,2.172,0,0,1,2319.087,1519.2Z" transform="translate(-2262.87 -1407.175)" fill="#e5eaeb"/>
        <path id="Path_735" data-name="Path 735" d="M2319.087,1487.389a2.172,2.172,0,1,1-2.171,2.172A2.172,2.172,0,0,1,2319.087,1487.389Z" transform="translate(-2262.87 -1386.693)" fill="#e5eaeb"/>
        <path id="Path_736" data-name="Path 736" d="M2319.087,1455.576a2.172,2.172,0,1,1-2.171,2.171A2.171,2.171,0,0,1,2319.087,1455.576Z" transform="translate(-2262.87 -1366.212)" fill="#e5eaeb"/>
        <path id="Path_737" data-name="Path 737" d="M2319.087,1423.762a2.172,2.172,0,1,1-2.171,2.172A2.172,2.172,0,0,1,2319.087,1423.762Z" transform="translate(-2262.87 -1345.73)" fill="#e5eaeb"/>
        <path id="Path_738" data-name="Path 738" d="M2319.087,1391.948a2.172,2.172,0,1,1-2.171,2.172A2.172,2.172,0,0,1,2319.087,1391.948Z" transform="translate(-2262.87 -1325.248)" fill="#e5eaeb"/>
        <path id="Path_739" data-name="Path 739" d="M2319.087,1360.135a2.172,2.172,0,1,1-2.171,2.171A2.171,2.171,0,0,1,2319.087,1360.135Z" transform="translate(-2262.87 -1304.766)" fill="#e5eaeb"/>
        <path id="Path_740" data-name="Path 740" d="M2319.087,1328.321a2.172,2.172,0,1,1-2.171,2.172A2.172,2.172,0,0,1,2319.087,1328.321Z" transform="translate(-2262.87 -1284.285)" fill="#e5eaeb"/>
        <path id="Path_741" data-name="Path 741" d="M2319.087,1296.508a2.172,2.172,0,1,1-2.171,2.171A2.171,2.171,0,0,1,2319.087,1296.508Z" transform="translate(-2262.87 -1263.803)" fill="#e5eaeb"/>
        <path id="Path_742" data-name="Path 742" d="M2319.087,1264.694a2.172,2.172,0,1,1-2.171,2.172A2.172,2.172,0,0,1,2319.087,1264.694Z" transform="translate(-2262.87 -1243.321)" fill="#e5eaeb"/>
        <path id="Path_743" data-name="Path 743" d="M2319.087,1232.881a2.172,2.172,0,1,1-2.171,2.172A2.171,2.171,0,0,1,2319.087,1232.881Z" transform="translate(-2262.87 -1222.84)" fill="#e5eaeb"/>
        <path id="Path_744" data-name="Path 744" d="M2319.087,1201.067a2.172,2.172,0,1,1-2.171,2.172A2.172,2.172,0,0,1,2319.087,1201.067Z" transform="translate(-2262.87 -1202.358)" fill="#e5eaeb"/>
        <path id="Path_745" data-name="Path 745" d="M2350.9,1582.83a2.172,2.172,0,1,1-2.171,2.172A2.172,2.172,0,0,1,2350.9,1582.83Z" transform="translate(-2283.353 -1448.138)" fill="#e5eaeb"/>
        <path id="Path_746" data-name="Path 746" d="M2350.9,1551.017a2.172,2.172,0,1,1-2.171,2.171A2.171,2.171,0,0,1,2350.9,1551.017Z" transform="translate(-2283.353 -1427.657)" fill="#e5eaeb"/>
        <path id="Path_747" data-name="Path 747" d="M2350.9,1519.2a2.172,2.172,0,1,1-2.171,2.171A2.172,2.172,0,0,1,2350.9,1519.2Z" transform="translate(-2283.353 -1407.175)" fill="#e5eaeb"/>
        <path id="Path_748" data-name="Path 748" d="M2350.9,1487.389a2.172,2.172,0,1,1-2.171,2.172A2.172,2.172,0,0,1,2350.9,1487.389Z" transform="translate(-2283.353 -1386.693)" fill="#e5eaeb"/>
        <path id="Path_749" data-name="Path 749" d="M2350.9,1455.576a2.172,2.172,0,1,1-2.171,2.171A2.171,2.171,0,0,1,2350.9,1455.576Z" transform="translate(-2283.353 -1366.212)" fill="#e5eaeb"/>
        <path id="Path_750" data-name="Path 750" d="M2350.9,1423.762a2.172,2.172,0,1,1-2.171,2.172A2.172,2.172,0,0,1,2350.9,1423.762Z" transform="translate(-2283.353 -1345.73)" fill="#e5eaeb"/>
        <path id="Path_751" data-name="Path 751" d="M2350.9,1391.948a2.172,2.172,0,1,1-2.171,2.172A2.172,2.172,0,0,1,2350.9,1391.948Z" transform="translate(-2283.353 -1325.248)" fill="#e5eaeb"/>
        <path id="Path_752" data-name="Path 752" d="M2350.9,1360.135a2.172,2.172,0,1,1-2.171,2.171A2.171,2.171,0,0,1,2350.9,1360.135Z" transform="translate(-2283.353 -1304.766)" fill="#e5eaeb"/>
        <path id="Path_753" data-name="Path 753" d="M2350.9,1328.321a2.172,2.172,0,1,1-2.171,2.172A2.172,2.172,0,0,1,2350.9,1328.321Z" transform="translate(-2283.353 -1284.285)" fill="#e5eaeb"/>
        <path id="Path_754" data-name="Path 754" d="M2350.9,1296.508a2.172,2.172,0,1,1-2.171,2.171A2.171,2.171,0,0,1,2350.9,1296.508Z" transform="translate(-2283.353 -1263.803)" fill="#e5eaeb"/>
        <path id="Path_755" data-name="Path 755" d="M2350.9,1264.694a2.172,2.172,0,1,1-2.171,2.172A2.172,2.172,0,0,1,2350.9,1264.694Z" transform="translate(-2283.353 -1243.321)" fill="#e5eaeb"/>
        <path id="Path_756" data-name="Path 756" d="M2350.9,1232.881a2.172,2.172,0,1,1-2.171,2.172A2.171,2.171,0,0,1,2350.9,1232.881Z" transform="translate(-2283.353 -1222.84)" fill="#e5eaeb"/>
        <path id="Path_757" data-name="Path 757" d="M2350.9,1201.067a2.172,2.172,0,1,1-2.171,2.172A2.172,2.172,0,0,1,2350.9,1201.067Z" transform="translate(-2283.353 -1202.358)" fill="#e5eaeb"/>
        <path id="Path_758" data-name="Path 758" d="M2382.714,1582.83a2.172,2.172,0,1,1-2.172,2.172A2.172,2.172,0,0,1,2382.714,1582.83Z" transform="translate(-2303.833 -1448.138)" fill="#e5eaeb"/>
        <path id="Path_759" data-name="Path 759" d="M2382.714,1551.017a2.172,2.172,0,1,1-2.172,2.171A2.172,2.172,0,0,1,2382.714,1551.017Z" transform="translate(-2303.833 -1427.657)" fill="#e5eaeb"/>
        <path id="Path_760" data-name="Path 760" d="M2382.714,1519.2a2.172,2.172,0,1,1-2.172,2.171A2.172,2.172,0,0,1,2382.714,1519.2Z" transform="translate(-2303.833 -1407.175)" fill="#e5eaeb"/>
        <path id="Path_761" data-name="Path 761" d="M2382.714,1487.389a2.172,2.172,0,1,1-2.172,2.172A2.172,2.172,0,0,1,2382.714,1487.389Z" transform="translate(-2303.833 -1386.693)" fill="#e5eaeb"/>
        <path id="Path_762" data-name="Path 762" d="M2382.714,1455.576a2.172,2.172,0,1,1-2.172,2.171A2.172,2.172,0,0,1,2382.714,1455.576Z" transform="translate(-2303.833 -1366.212)" fill="#e5eaeb"/>
        <path id="Path_763" data-name="Path 763" d="M2382.714,1423.762a2.172,2.172,0,1,1-2.172,2.172A2.172,2.172,0,0,1,2382.714,1423.762Z" transform="translate(-2303.833 -1345.73)" fill="#e5eaeb"/>
        <path id="Path_764" data-name="Path 764" d="M2382.714,1391.948a2.172,2.172,0,1,1-2.172,2.172A2.172,2.172,0,0,1,2382.714,1391.948Z" transform="translate(-2303.833 -1325.248)" fill="#e5eaeb"/>
        <path id="Path_765" data-name="Path 765" d="M2382.714,1360.135a2.172,2.172,0,1,1-2.172,2.171A2.172,2.172,0,0,1,2382.714,1360.135Z" transform="translate(-2303.833 -1304.766)" fill="#e5eaeb"/>
        <path id="Path_766" data-name="Path 766" d="M2382.714,1328.321a2.172,2.172,0,1,1-2.172,2.172A2.172,2.172,0,0,1,2382.714,1328.321Z" transform="translate(-2303.833 -1284.285)" fill="#e5eaeb"/>
        <path id="Path_767" data-name="Path 767" d="M2382.714,1296.508a2.172,2.172,0,1,1-2.172,2.171A2.172,2.172,0,0,1,2382.714,1296.508Z" transform="translate(-2303.833 -1263.803)" fill="#e5eaeb"/>
        <path id="Path_768" data-name="Path 768" d="M2382.714,1264.694a2.172,2.172,0,1,1-2.172,2.172A2.172,2.172,0,0,1,2382.714,1264.694Z" transform="translate(-2303.833 -1243.321)" fill="#e5eaeb"/>
        <path id="Path_769" data-name="Path 769" d="M2382.714,1232.881a2.172,2.172,0,1,1-2.172,2.172A2.172,2.172,0,0,1,2382.714,1232.881Z" transform="translate(-2303.833 -1222.84)" fill="#e5eaeb"/>
        <path id="Path_770" data-name="Path 770" d="M2382.714,1201.067a2.172,2.172,0,1,1-2.172,2.172A2.172,2.172,0,0,1,2382.714,1201.067Z" transform="translate(-2303.833 -1202.358)" fill="#e5eaeb"/>
        <path id="Path_771" data-name="Path 771" d="M2414.527,1582.83a2.172,2.172,0,1,1-2.172,2.172A2.172,2.172,0,0,1,2414.527,1582.83Z" transform="translate(-2324.314 -1448.138)" fill="#e5eaeb"/>
        <path id="Path_772" data-name="Path 772" d="M2414.527,1551.017a2.172,2.172,0,1,1-2.172,2.171A2.172,2.172,0,0,1,2414.527,1551.017Z" transform="translate(-2324.314 -1427.657)" fill="#e5eaeb"/>
        <path id="Path_773" data-name="Path 773" d="M2414.527,1519.2a2.172,2.172,0,1,1-2.172,2.171A2.172,2.172,0,0,1,2414.527,1519.2Z" transform="translate(-2324.314 -1407.175)" fill="#e5eaeb"/>
        <path id="Path_774" data-name="Path 774" d="M2414.527,1487.389a2.172,2.172,0,1,1-2.172,2.172A2.172,2.172,0,0,1,2414.527,1487.389Z" transform="translate(-2324.314 -1386.693)" fill="#e5eaeb"/>
        <path id="Path_775" data-name="Path 775" d="M2414.527,1455.576a2.172,2.172,0,1,1-2.172,2.171A2.172,2.172,0,0,1,2414.527,1455.576Z" transform="translate(-2324.314 -1366.212)" fill="#e5eaeb"/>
        <path id="Path_776" data-name="Path 776" d="M2414.527,1423.762a2.172,2.172,0,1,1-2.172,2.172A2.172,2.172,0,0,1,2414.527,1423.762Z" transform="translate(-2324.314 -1345.73)" fill="#e5eaeb"/>
        <path id="Path_777" data-name="Path 777" d="M2414.527,1391.948a2.172,2.172,0,1,1-2.172,2.172A2.172,2.172,0,0,1,2414.527,1391.948Z" transform="translate(-2324.314 -1325.248)" fill="#e5eaeb"/>
        <path id="Path_778" data-name="Path 778" d="M2414.527,1360.135a2.172,2.172,0,1,1-2.172,2.171A2.172,2.172,0,0,1,2414.527,1360.135Z" transform="translate(-2324.314 -1304.766)" fill="#e5eaeb"/>
        <path id="Path_779" data-name="Path 779" d="M2414.527,1328.321a2.172,2.172,0,1,1-2.172,2.172A2.172,2.172,0,0,1,2414.527,1328.321Z" transform="translate(-2324.314 -1284.285)" fill="#e5eaeb"/>
        <path id="Path_780" data-name="Path 780" d="M2414.527,1296.508a2.172,2.172,0,1,1-2.172,2.171A2.172,2.172,0,0,1,2414.527,1296.508Z" transform="translate(-2324.314 -1263.803)" fill="#e5eaeb"/>
        <path id="Path_781" data-name="Path 781" d="M2414.527,1264.694a2.172,2.172,0,1,1-2.172,2.172A2.172,2.172,0,0,1,2414.527,1264.694Z" transform="translate(-2324.314 -1243.321)" fill="#e5eaeb"/>
        <path id="Path_782" data-name="Path 782" d="M2414.527,1232.881a2.172,2.172,0,1,1-2.172,2.172A2.172,2.172,0,0,1,2414.527,1232.881Z" transform="translate(-2324.314 -1222.84)" fill="#e5eaeb"/>
        <path id="Path_783" data-name="Path 783" d="M2414.527,1201.067a2.172,2.172,0,1,1-2.172,2.172A2.172,2.172,0,0,1,2414.527,1201.067Z" transform="translate(-2324.314 -1202.358)" fill="#e5eaeb"/>
        <path id="Path_784" data-name="Path 784" d="M2446.342,1582.83a2.172,2.172,0,1,1-2.172,2.172A2.172,2.172,0,0,1,2446.342,1582.83Z" transform="translate(-2344.797 -1448.138)" fill="#e5eaeb"/>
        <circle id="Ellipse_13" data-name="Ellipse 13" cx="2.172" cy="2.172" r="2.172" transform="translate(99.373 123.36)" fill="#e5eaeb"/>
        <path id="Path_785" data-name="Path 785" d="M2446.342,1519.2a2.172,2.172,0,1,1-2.172,2.171A2.172,2.172,0,0,1,2446.342,1519.2Z" transform="translate(-2344.797 -1407.175)" fill="#e5eaeb"/>
        <path id="Path_786" data-name="Path 786" d="M2446.342,1487.389a2.172,2.172,0,1,1-2.172,2.172A2.172,2.172,0,0,1,2446.342,1487.389Z" transform="translate(-2344.797 -1386.693)" fill="#e5eaeb"/>
        <path id="Path_787" data-name="Path 787" d="M2446.342,1455.576a2.172,2.172,0,1,1-2.172,2.171A2.171,2.171,0,0,1,2446.342,1455.576Z" transform="translate(-2344.797 -1366.212)" fill="#e5eaeb"/>
        <path id="Path_788" data-name="Path 788" d="M2446.342,1423.762a2.172,2.172,0,1,1-2.172,2.172A2.172,2.172,0,0,1,2446.342,1423.762Z" transform="translate(-2344.797 -1345.73)" fill="#e5eaeb"/>
        <circle id="Ellipse_14" data-name="Ellipse 14" cx="2.172" cy="2.172" r="2.172" transform="translate(99.373 66.7)" fill="#e5eaeb"/>
        <path id="Path_789" data-name="Path 789" d="M2446.342,1360.135a2.172,2.172,0,1,1-2.172,2.171A2.171,2.171,0,0,1,2446.342,1360.135Z" transform="translate(-2344.797 -1304.766)" fill="#e5eaeb"/>
        <path id="Path_790" data-name="Path 790" d="M2446.342,1328.321a2.172,2.172,0,1,1-2.172,2.172A2.172,2.172,0,0,1,2446.342,1328.321Z" transform="translate(-2344.797 -1284.285)" fill="#e5eaeb"/>
        <circle id="Ellipse_15" data-name="Ellipse 15" cx="2.172" cy="2.172" r="2.172" transform="translate(99.373 32.705)" fill="#e5eaeb"/>
        <circle id="Ellipse_16" data-name="Ellipse 16" cx="2.172" cy="2.172" r="2.172" transform="translate(99.373 21.373)" fill="#e5eaeb"/>
        <path id="Path_791" data-name="Path 791" d="M2446.342,1232.881a2.172,2.172,0,1,1-2.172,2.172A2.171,2.171,0,0,1,2446.342,1232.881Z" transform="translate(-2344.797 -1222.84)" fill="#e5eaeb"/>
        <path id="Path_792" data-name="Path 792" d="M2446.342,1201.067a2.172,2.172,0,1,1-2.172,2.172A2.172,2.172,0,0,1,2446.342,1201.067Z" transform="translate(-2344.797 -1202.358)" fill="#e5eaeb"/>
        <path id="Path_793" data-name="Path 793" d="M2478.155,1582.83a2.172,2.172,0,1,1-2.172,2.172A2.172,2.172,0,0,1,2478.155,1582.83Z" transform="translate(-2365.278 -1448.138)" fill="#e5eaeb"/>
        <path id="Path_794" data-name="Path 794" d="M2478.155,1551.017a2.172,2.172,0,1,1-2.172,2.171A2.171,2.171,0,0,1,2478.155,1551.017Z" transform="translate(-2365.278 -1427.657)" fill="#e5eaeb"/>
        <path id="Path_795" data-name="Path 795" d="M2478.155,1519.2a2.172,2.172,0,1,1-2.172,2.171A2.172,2.172,0,0,1,2478.155,1519.2Z" transform="translate(-2365.278 -1407.175)" fill="#e5eaeb"/>
        <path id="Path_796" data-name="Path 796" d="M2478.155,1487.389a2.172,2.172,0,1,1-2.172,2.172A2.172,2.172,0,0,1,2478.155,1487.389Z" transform="translate(-2365.278 -1386.693)" fill="#e5eaeb"/>
        <path id="Path_797" data-name="Path 797" d="M2478.155,1455.576a2.172,2.172,0,1,1-2.172,2.171A2.171,2.171,0,0,1,2478.155,1455.576Z" transform="translate(-2365.278 -1366.212)" fill="#e5eaeb"/>
        <path id="Path_798" data-name="Path 798" d="M2478.155,1423.762a2.172,2.172,0,1,1-2.172,2.172A2.172,2.172,0,0,1,2478.155,1423.762Z" transform="translate(-2365.278 -1345.73)" fill="#e5eaeb"/>
        <path id="Path_799" data-name="Path 799" d="M2478.155,1391.948a2.172,2.172,0,1,1-2.172,2.172A2.172,2.172,0,0,1,2478.155,1391.948Z" transform="translate(-2365.278 -1325.248)" fill="#e5eaeb"/>
        <path id="Path_800" data-name="Path 800" d="M2478.155,1360.135a2.172,2.172,0,1,1-2.172,2.171A2.171,2.171,0,0,1,2478.155,1360.135Z" transform="translate(-2365.278 -1304.766)" fill="#e5eaeb"/>
        <path id="Path_801" data-name="Path 801" d="M2478.155,1328.321a2.172,2.172,0,1,1-2.172,2.172A2.172,2.172,0,0,1,2478.155,1328.321Z" transform="translate(-2365.278 -1284.285)" fill="#e5eaeb"/>
        <path id="Path_802" data-name="Path 802" d="M2478.155,1296.508a2.172,2.172,0,1,1-2.172,2.171A2.171,2.171,0,0,1,2478.155,1296.508Z" transform="translate(-2365.278 -1263.803)" fill="#e5eaeb"/>
        <path id="Path_803" data-name="Path 803" d="M2478.155,1264.694a2.172,2.172,0,1,1-2.172,2.172A2.172,2.172,0,0,1,2478.155,1264.694Z" transform="translate(-2365.278 -1243.321)" fill="#e5eaeb"/>
        <path id="Path_804" data-name="Path 804" d="M2478.155,1232.881a2.172,2.172,0,1,1-2.172,2.172A2.171,2.171,0,0,1,2478.155,1232.881Z" transform="translate(-2365.278 -1222.84)" fill="#e5eaeb"/>
        <path id="Path_805" data-name="Path 805" d="M2478.155,1201.067a2.172,2.172,0,1,1-2.172,2.172A2.172,2.172,0,0,1,2478.155,1201.067Z" transform="translate(-2365.278 -1202.358)" fill="#e5eaeb"/>
        <path id="Path_806" data-name="Path 806" d="M2509.969,1582.83A2.172,2.172,0,1,1,2507.8,1585,2.172,2.172,0,0,1,2509.969,1582.83Z" transform="translate(-2385.76 -1448.138)" fill="#e5eaeb"/>
        <path id="Path_807" data-name="Path 807" d="M2509.969,1551.017a2.172,2.172,0,1,1-2.172,2.171A2.172,2.172,0,0,1,2509.969,1551.017Z" transform="translate(-2385.76 -1427.657)" fill="#e5eaeb"/>
        <path id="Path_808" data-name="Path 808" d="M2509.969,1519.2a2.172,2.172,0,1,1-2.172,2.171A2.172,2.172,0,0,1,2509.969,1519.2Z" transform="translate(-2385.76 -1407.175)" fill="#e5eaeb"/>
        <path id="Path_809" data-name="Path 809" d="M2509.969,1487.389a2.172,2.172,0,1,1-2.172,2.172A2.172,2.172,0,0,1,2509.969,1487.389Z" transform="translate(-2385.76 -1386.693)" fill="#e5eaeb"/>
        <path id="Path_810" data-name="Path 810" d="M2509.969,1455.576a2.172,2.172,0,1,1-2.172,2.171A2.171,2.171,0,0,1,2509.969,1455.576Z" transform="translate(-2385.76 -1366.212)" fill="#e5eaeb"/>
        <path id="Path_811" data-name="Path 811" d="M2509.969,1423.762a2.172,2.172,0,1,1-2.172,2.172A2.172,2.172,0,0,1,2509.969,1423.762Z" transform="translate(-2385.76 -1345.73)" fill="#e5eaeb"/>
        <path id="Path_812" data-name="Path 812" d="M2509.969,1391.948a2.172,2.172,0,1,1-2.172,2.172A2.172,2.172,0,0,1,2509.969,1391.948Z" transform="translate(-2385.76 -1325.248)" fill="#e5eaeb"/>
        <path id="Path_813" data-name="Path 813" d="M2509.969,1360.135a2.172,2.172,0,1,1-2.172,2.171A2.171,2.171,0,0,1,2509.969,1360.135Z" transform="translate(-2385.76 -1304.766)" fill="#e5eaeb"/>
        <path id="Path_814" data-name="Path 814" d="M2509.969,1328.321a2.172,2.172,0,1,1-2.172,2.172A2.172,2.172,0,0,1,2509.969,1328.321Z" transform="translate(-2385.76 -1284.285)" fill="#e5eaeb"/>
        <path id="Path_815" data-name="Path 815" d="M2509.969,1296.508a2.172,2.172,0,1,1-2.172,2.171A2.171,2.171,0,0,1,2509.969,1296.508Z" transform="translate(-2385.76 -1263.803)" fill="#e5eaeb"/>
        <path id="Path_816" data-name="Path 816" d="M2509.969,1264.694a2.172,2.172,0,1,1-2.172,2.172A2.172,2.172,0,0,1,2509.969,1264.694Z" transform="translate(-2385.76 -1243.321)" fill="#e5eaeb"/>
        <path id="Path_817" data-name="Path 817" d="M2509.969,1232.881a2.172,2.172,0,1,1-2.172,2.172A2.172,2.172,0,0,1,2509.969,1232.881Z" transform="translate(-2385.76 -1222.84)" fill="#e5eaeb"/>
        <path id="Path_818" data-name="Path 818" d="M2509.969,1201.067a2.172,2.172,0,1,1-2.172,2.172A2.172,2.172,0,0,1,2509.969,1201.067Z" transform="translate(-2385.76 -1202.358)" fill="#e5eaeb"/>
        <path id="Path_819" data-name="Path 819" d="M2541.782,1582.83a2.172,2.172,0,1,1-2.172,2.172A2.172,2.172,0,0,1,2541.782,1582.83Z" transform="translate(-2406.242 -1448.138)" fill="#e5eaeb"/>
        <path id="Path_820" data-name="Path 820" d="M2541.782,1551.017a2.172,2.172,0,1,1-2.172,2.171A2.172,2.172,0,0,1,2541.782,1551.017Z" transform="translate(-2406.242 -1427.657)" fill="#e5eaeb"/>
        <path id="Path_821" data-name="Path 821" d="M2541.782,1519.2a2.172,2.172,0,1,1-2.172,2.171A2.172,2.172,0,0,1,2541.782,1519.2Z" transform="translate(-2406.242 -1407.175)" fill="#e5eaeb"/>
        <path id="Path_822" data-name="Path 822" d="M2541.782,1487.389a2.172,2.172,0,1,1-2.172,2.172A2.172,2.172,0,0,1,2541.782,1487.389Z" transform="translate(-2406.242 -1386.693)" fill="#e5eaeb"/>
        <path id="Path_823" data-name="Path 823" d="M2541.782,1455.576a2.172,2.172,0,1,1-2.172,2.171A2.171,2.171,0,0,1,2541.782,1455.576Z" transform="translate(-2406.242 -1366.212)" fill="#e5eaeb"/>
        <path id="Path_824" data-name="Path 824" d="M2541.782,1423.762a2.172,2.172,0,1,1-2.172,2.172A2.172,2.172,0,0,1,2541.782,1423.762Z" transform="translate(-2406.242 -1345.73)" fill="#e5eaeb"/>
        <path id="Path_825" data-name="Path 825" d="M2541.782,1391.948a2.172,2.172,0,1,1-2.172,2.172A2.172,2.172,0,0,1,2541.782,1391.948Z" transform="translate(-2406.242 -1325.248)" fill="#e5eaeb"/>
        <path id="Path_826" data-name="Path 826" d="M2541.782,1360.135a2.172,2.172,0,1,1-2.172,2.171A2.172,2.172,0,0,1,2541.782,1360.135Z" transform="translate(-2406.242 -1304.766)" fill="#e5eaeb"/>
        <path id="Path_827" data-name="Path 827" d="M2541.782,1328.321a2.172,2.172,0,1,1-2.172,2.172A2.172,2.172,0,0,1,2541.782,1328.321Z" transform="translate(-2406.242 -1284.285)" fill="#e5eaeb"/>
        <path id="Path_828" data-name="Path 828" d="M2541.782,1296.508a2.172,2.172,0,1,1-2.172,2.171A2.172,2.172,0,0,1,2541.782,1296.508Z" transform="translate(-2406.242 -1263.803)" fill="#e5eaeb"/>
        <path id="Path_829" data-name="Path 829" d="M2541.782,1264.694a2.172,2.172,0,1,1-2.172,2.172A2.172,2.172,0,0,1,2541.782,1264.694Z" transform="translate(-2406.242 -1243.321)" fill="#e5eaeb"/>
        <path id="Path_830" data-name="Path 830" d="M2541.782,1232.881a2.172,2.172,0,1,1-2.172,2.172A2.172,2.172,0,0,1,2541.782,1232.881Z" transform="translate(-2406.242 -1222.84)" fill="#e5eaeb"/>
        <path id="Path_831" data-name="Path 831" d="M2541.782,1201.067a2.172,2.172,0,1,1-2.172,2.172A2.172,2.172,0,0,1,2541.782,1201.067Z" transform="translate(-2406.242 -1202.358)" fill="#e5eaeb"/>
      </g>
    </g>
  </g>
</svg>
