<svg xmlns="http://www.w3.org/2000/svg" width="46.079" height="78.22" viewBox="0 0 46.079 78.22">
  <path id="Subtraction_3" data-name="Subtraction 3" d="M-2520.4,134.1c-.219,0-.457,0-.706-.007a40.29,40.29,0,0,1-26-9.658,39.075,39.075,0,0,1-12.863-27.8,40.167,40.167,0,0,1,.25-6.222,57.634,57.634,0,0,1,2.853-14.175,28.469,28.469,0,0,1,7.9-12.085c5.294-4.825,12.205-7.272,20.542-7.272a52.488,52.488,0,0,1,10.822,1.212c.9.039,1.8.111,2.682.213V133.7c-.327.049-.644.091-.943.127A37.3,37.3,0,0,1-2520.4,134.1Z" transform="translate(2560.5 -56.381)" fill="#82c5de" stroke="rgba(0,0,0,0)" stroke-miterlimit="10" stroke-width="1"/>
</svg>
