<svg xmlns="http://www.w3.org/2000/svg" xmlns:xlink="http://www.w3.org/1999/xlink" width="236.604" height="302.7" viewBox="0 0 236.604 302.7">
  <defs>
    <clipPath id="clip-path">
      <path id="Path_1952" data-name="Path 1952" d="M487.075,312.02c3.45-3.1,6.96-6.1,10.6-8.889a90.533,90.533,0,0,1,11.414-7.477c23.786-13.147,52.89-15.573,79.767-9.223A125.536,125.536,0,0,1,603.915,291c27.271,10.223,53.9,24.927,69.4,51.157,18.48,31.594,16.89,69.349,3.115,101.249a111.255,111.255,0,0,1-6.7,14.3c-17.861,32-50.8,54-87.929,57.166a113.17,113.17,0,0,1-13.324,1.672,110,110,0,0,1-27.7-1.712c-50.551-9.538-82.026-51.378-88.183-97.44-.77-5.758-1.211-11.562-1.581-17.34-2.834-26.7,3.525-55.314,22.639-75.193A169.464,169.464,0,0,1,487.075,312.02Z" transform="translate(-450.368 -283.072)" fill="none"/>
    </clipPath>
  </defs>
  <g id="Group_620" data-name="Group 620" transform="translate(-1618.586 -939.279)">
    <path id="Path_627" data-name="Path 627" d="M554.831,152.837c48.229-5.77,84.94,36.724,95.987,80.026a133.931,133.931,0,0,1,2.348,14.53,125.281,125.281,0,0,1-3,44.1,107.945,107.945,0,0,1-4.618,14c-13.575,42.477-59.84,70.136-103.488,57.765a92.281,92.281,0,0,1-15.656-3.139c-35.447-10.355-62.816-41.178-71.506-76.882a132.782,132.782,0,0,1-2.775-15.5c-11.5-54.79,35.27-100.05,85.335-111.517A120.839,120.839,0,0,1,554.831,152.837Z" transform="translate(1168.218 786.969)" fill="#f6d1cf"/>
    <g id="Group_449" data-name="Group 449" transform="translate(1618.586 1008.274)">
      <g id="Group_448" data-name="Group 448" clip-path="url(#clip-path)">
        <path id="Path_1934" data-name="Path 1934" d="M489.779,674.368c-24.009-24.009-.961-47.057-24.969-71.065s-47.056-.96-71.065-24.969-.96-47.057-24.968-71.065-47.057-.96-71.066-24.969-.96-47.056-24.969-71.065-47.057-.961-71.066-24.97-.961-47.057-24.969-71.066-47.057-.961-71.066-24.969" transform="translate(-287.531 -286.453)" fill="none" stroke="#96d1bf" stroke-miterlimit="10" stroke-width="2.885"/>
        <path id="Path_1935" data-name="Path 1935" d="M508.63,655.517c-24.009-24.008-.96-47.057-24.968-71.065s-47.057-.961-71.065-24.969-.961-47.057-24.969-71.065-47.057-.96-71.066-24.969-.96-47.057-24.968-71.065-47.058-.96-71.066-24.969-.961-47.057-24.97-71.066-47.057-.961-71.066-24.969" transform="translate(-296.436 -277.548)" fill="none" stroke="#96d1bf" stroke-miterlimit="10" stroke-width="2.885"/>
        <path id="Path_1936" data-name="Path 1936" d="M527.481,636.666c-24.009-24.009-.96-47.057-24.968-71.066s-47.057-.96-71.066-24.968-.96-47.057-24.969-71.066-47.057-.96-71.066-24.969-.96-47.057-24.968-71.065-47.057-.96-71.066-24.969-.96-47.057-24.969-71.066-47.057-.961-71.066-24.97" transform="translate(-305.34 -268.644)" fill="none" stroke="#96d1bf" stroke-miterlimit="10" stroke-width="2.885"/>
        <path id="Path_1937" data-name="Path 1937" d="M546.331,617.815c-24.009-24.009-.96-47.057-24.969-71.066s-47.057-.96-71.065-24.968-.96-47.057-24.969-71.065-47.057-.961-71.066-24.969-.96-47.057-24.968-71.065-47.057-.96-71.066-24.969-.96-47.058-24.969-71.067-47.057-.96-71.066-24.969" transform="translate(-314.244 -259.739)" fill="none" stroke="#96d1bf" stroke-miterlimit="10" stroke-width="2.885"/>
        <path id="Path_1938" data-name="Path 1938" d="M565.182,598.964c-24.009-24.009-.96-47.057-24.969-71.065s-47.057-.96-71.065-24.969-.96-47.057-24.969-71.065-47.057-.96-71.066-24.969-.96-47.057-24.968-71.065-47.057-.96-71.066-24.969-.961-47.057-24.97-71.066-47.057-.96-71.066-24.969" transform="translate(-323.149 -250.835)" fill="none" stroke="#96d1bf" stroke-miterlimit="10" stroke-width="2.885"/>
        <path id="Path_1939" data-name="Path 1939" d="M584.033,580.114c-24.009-24.009-.96-47.057-24.969-71.065s-47.056-.96-71.065-24.969-.96-47.057-24.969-71.065-47.057-.96-71.066-24.969S391,340.988,367,316.98s-47.057-.961-71.066-24.97-.961-47.057-24.969-71.066-47.058-.961-71.066-24.969" transform="translate(-332.053 -241.931)" fill="none" stroke="#96d1bf" stroke-miterlimit="10" stroke-width="2.885"/>
        <path id="Path_1940" data-name="Path 1940" d="M602.884,561.263c-24.009-24.008-.96-47.056-24.969-71.065s-47.057-.961-71.065-24.969-.96-47.057-24.968-71.065-47.057-.96-71.066-24.969-.96-47.057-24.969-71.065-47.057-.96-71.066-24.969-.96-47.057-24.969-71.066-47.057-.96-71.066-24.969" transform="translate(-340.958 -233.026)" fill="none" stroke="#96d1bf" stroke-miterlimit="10" stroke-width="2.885"/>
        <path id="Path_1941" data-name="Path 1941" d="M621.735,542.412c-24.009-24.009-.96-47.057-24.969-71.066s-47.057-.96-71.065-24.968-.96-47.057-24.969-71.066-47.057-.96-71.066-24.969-.96-47.057-24.968-71.065-47.057-.96-71.066-24.969-.96-47.057-24.969-71.066-47.057-.96-71.066-24.969" transform="translate(-349.862 -224.122)" fill="none" stroke="#96d1bf" stroke-miterlimit="10" stroke-width="2.885"/>
        <path id="Path_1942" data-name="Path 1942" d="M640.585,523.561c-24.009-24.009-.96-47.057-24.969-71.065s-47.057-.96-71.065-24.969-.96-47.057-24.969-71.065-47.057-.961-71.066-24.969-.96-47.057-24.968-71.065-47.057-.961-71.066-24.969-.96-47.057-24.969-71.066-47.057-.961-71.066-24.97" transform="translate(-358.766 -215.217)" fill="none" stroke="#96d1bf" stroke-miterlimit="10" stroke-width="2.885"/>
        <path id="Path_1943" data-name="Path 1943" d="M659.436,504.71c-24.009-24.009-.96-47.057-24.969-71.065s-47.057-.96-71.065-24.969-.96-47.057-24.969-71.065-47.057-.96-71.066-24.969-.96-47.057-24.968-71.065-47.058-.96-71.066-24.969-.961-47.057-24.969-71.066-47.057-.961-71.066-24.97" transform="translate(-367.671 -206.313)" fill="none" stroke="#96d1bf" stroke-miterlimit="10" stroke-width="2.885"/>
        <path id="Path_1944" data-name="Path 1944" d="M678.287,485.86c-24.009-24.009-.96-47.057-24.969-71.065s-47.057-.96-71.065-24.969-.961-47.057-24.969-71.065-47.057-.96-71.066-24.969-.96-47.056-24.968-71.065-47.057-.961-71.066-24.97-.961-47.057-24.97-71.066-47.057-.96-71.066-24.969" transform="translate(-376.575 -197.409)" fill="none" stroke="#96d1bf" stroke-miterlimit="10" stroke-width="2.885"/>
        <path id="Path_1945" data-name="Path 1945" d="M697.138,467.009c-24.009-24.009-.96-47.056-24.968-71.065s-47.057-.961-71.066-24.969-.96-47.057-24.968-71.065-47.057-.96-71.066-24.969-.96-47.057-24.969-71.065-47.057-.961-71.066-24.969-.96-47.057-24.97-71.066S337.008,106.879,313,82.87" transform="translate(-385.48 -188.504)" fill="none" stroke="#96d1bf" stroke-miterlimit="10" stroke-width="2.885"/>
        <path id="Path_1946" data-name="Path 1946" d="M715.989,448.158c-24.009-24.009-.96-47.057-24.968-71.065s-47.057-.96-71.066-24.969-.96-47.057-24.968-71.066-47.057-.96-71.066-24.969-.96-47.057-24.968-71.065-47.057-.96-71.066-24.969-.96-47.057-24.969-71.066-47.057-.96-71.066-24.969" transform="translate(-394.384 -179.6)" fill="none" stroke="#96d1bf" stroke-miterlimit="10" stroke-width="2.885"/>
        <path id="Path_1947" data-name="Path 1947" d="M734.839,429.307c-24.009-24.009-.96-47.057-24.969-71.065s-47.057-.96-71.065-24.969-.96-47.057-24.969-71.065-47.057-.961-71.066-24.969-.96-47.057-24.969-71.065-47.057-.96-71.066-24.969-.96-47.057-24.969-71.066-47.057-.96-71.066-24.969" transform="translate(-403.288 -170.695)" fill="none" stroke="#96d1bf" stroke-miterlimit="10" stroke-width="2.885"/>
        <path id="Path_1948" data-name="Path 1948" d="M753.69,410.456c-24.008-24.009-.96-47.057-24.969-71.065s-47.057-.96-71.065-24.969-.96-47.057-24.969-71.065-47.057-.96-71.066-24.969-.96-47.057-24.969-71.065-47.057-.96-71.066-24.969-.961-47.057-24.969-71.066-47.057-.961-71.066-24.97" transform="translate(-412.193 -161.791)" fill="none" stroke="#96d1bf" stroke-miterlimit="10" stroke-width="2.885"/>
        <path id="Path_1949" data-name="Path 1949" d="M772.541,391.606c-24.009-24.009-.96-47.057-24.969-71.065s-47.057-.96-71.065-24.969-.96-47.057-24.969-71.065-47.057-.96-71.065-24.969-.96-47.057-24.968-71.065-47.057-.961-71.066-24.97-.961-47.057-24.969-71.066S412.411,31.476,388.4,7.467" transform="translate(-421.098 -152.887)" fill="none" stroke="#96d1bf" stroke-miterlimit="10" stroke-width="2.885"/>
        <path id="Path_1950" data-name="Path 1950" d="M791.392,372.755c-24.009-24.009-.96-47.057-24.968-71.065s-47.057-.96-71.066-24.968-.96-47.057-24.969-71.066-47.057-.96-71.065-24.969-.96-47.057-24.969-71.065-47.057-.961-71.066-24.969-.961-47.057-24.97-71.066-47.057-.96-71.066-24.969" transform="translate(-430.002 -143.982)" fill="none" stroke="#96d1bf" stroke-miterlimit="10" stroke-width="2.885"/>
        <path id="Path_1951" data-name="Path 1951" d="M810.243,353.9c-24.009-24.009-.96-47.057-24.969-71.066s-47.057-.96-71.065-24.968-.96-47.057-24.969-71.066-47.057-.96-71.066-24.969-.96-47.057-24.968-71.065-47.057-.961-71.066-24.969-.96-47.057-24.969-71.066-47.057-.96-71.066-24.969" transform="translate(-438.907 -135.078)" fill="none" stroke="#96d1bf" stroke-miterlimit="10" stroke-width="2.885"/>
      </g>
    </g>
  </g>
</svg>
