<svg xmlns="http://www.w3.org/2000/svg" width="29.758" height="29.872" viewBox="0 0 29.758 29.872">
  <path id="Path_631" data-name="Path 631" d="M2396.827,1875.2c-4.422,1.886-9.487.835-13.635-1.776a12.34,12.34,0,0,1-4.142-4.293,13.985,13.985,0,0,1-.86-1.76c-2.221-3.608-2.2-7.142-.442-11.341,1.465-3.646,3.365-6.56,6.713-8.123a15.4,15.4,0,0,1,2.224-.9,15.048,15.048,0,0,1,11.751,1.066,15.541,15.541,0,0,1,6.87,8.183,14.443,14.443,0,0,1,.582,1.936,14.115,14.115,0,0,1,.3,2.025,15.554,15.554,0,0,1,.016,2.024,15.3,15.3,0,0,1-.245,2,14.681,14.681,0,0,1-6.916,9.86A15.216,15.216,0,0,1,2396.827,1875.2Z" transform="translate(-2376.473 -1846.289)" fill="#96d1bf"/>
</svg>
