<svg xmlns="http://www.w3.org/2000/svg" width="33.992" height="33.479" viewBox="0 0 33.992 33.479">
  <path id="Path_652" data-name="Path 652" d="M2495.011,1117.742c.262,5.443-2.851,10.412-7.26,13.79a13.987,13.987,0,0,1-6.195,2.71,15.823,15.823,0,0,1-2.21.222c-4.709.938-8.457-.477-12.228-4-3.3-2.993-5.644-6.161-5.986-10.335a17.416,17.416,0,0,1-.077-2.718,17.056,17.056,0,0,1,5.763-12.067,17.607,17.607,0,0,1,11.4-4.078,16.386,16.386,0,0,1,2.287.145,15.934,15.934,0,0,1,2.271.476,17.988,17.988,0,0,1,2.157.78,17.38,17.38,0,0,1,2.028,1.048,16.637,16.637,0,0,1,7.753,11.235A17.263,17.263,0,0,1,2495.011,1117.742Z" transform="translate(-2461.034 -1101.267)" fill="#96d1bf"/>
</svg>
