<svg xmlns="http://www.w3.org/2000/svg" width="43.306" height="44.147" viewBox="0 0 43.306 44.147">
  <path id="Path_643" data-name="Path 643" d="M-7.455,254.152c-7.075-.182-13.212-4.689-17.165-10.723a18.162,18.162,0,0,1-2.916-8.282,20.59,20.59,0,0,1-.076-2.883c-.764-6.189,1.427-10.907,6.35-15.453,4.192-3.983,8.519-6.721,13.958-6.764a22.568,22.568,0,0,1,3.526.161A22.15,22.15,0,0,1,11.3,218.827a22.871,22.871,0,0,1,4.189,15.16,21.221,21.221,0,0,1-.408,2.948,20.626,20.626,0,0,1-.834,2.9,23.163,23.163,0,0,1-1.217,2.719,22.683,22.683,0,0,1-1.551,2.526,21.607,21.607,0,0,1-15.294,8.966A22.438,22.438,0,0,1-7.455,254.152Z" transform="translate(27.761 -210.035)" fill="#82c5de"/>
</svg>
