<svg xmlns="http://www.w3.org/2000/svg" width="33.68" height="33.779" viewBox="0 0 33.68 33.779">
  <path id="Path_649" data-name="Path 649" d="M240.89,1874.65c-4.769,2.636-10.6,2.033-15.578-.434a13.986,13.986,0,0,1-5.164-4.364,15.837,15.837,0,0,1-1.174-1.886c-2.919-3.813-3.3-7.8-1.8-12.737,1.232-4.279,3.04-7.783,6.634-9.931a17.419,17.419,0,0,1,2.406-1.267,17.058,17.058,0,0,1,13.372-.149,17.609,17.609,0,0,1,8.689,8.436,16.325,16.325,0,0,1,.879,2.117,15.9,15.9,0,0,1,.574,2.249,17.841,17.841,0,0,1,.251,2.28,17.508,17.508,0,0,1-.046,2.282,16.638,16.638,0,0,1-6.664,11.914A17.34,17.34,0,0,1,240.89,1874.65Z" transform="translate(-216.312 -1842.588)" fill="#82c5de"/>
</svg>
