<svg xmlns="http://www.w3.org/2000/svg" xmlns:xlink="http://www.w3.org/1999/xlink" width="88.404" height="132.851" viewBox="0 0 88.404 132.851">
  <defs>
    <clipPath id="clip-path">
      <path id="Path_2009" data-name="Path 2009" d="M1695.372,1125.772c1.261,1.132,2.544,2.228,3.872,3.249a33.06,33.06,0,0,0,4.172,2.732c8.692,4.8,19.328,5.691,29.15,3.37a45.881,45.881,0,0,0,5.5-1.67c9.966-3.736,19.7-9.11,25.361-18.695,6.753-11.546,6.172-25.343,1.138-37a41.036,41.036,0,0,0-34.582-26.117,41.253,41.253,0,0,0-4.869-.611,40.189,40.189,0,0,0-10.123.625c-18.473,3.486-29.976,18.776-32.226,35.609-.281,2.1-.442,4.225-.577,6.337-1.036,9.757,1.288,20.214,8.273,27.479A61.972,61.972,0,0,0,1695.372,1125.772Z" transform="translate(-1681.958 -1050.945)" fill="none"/>
    </clipPath>
  </defs>
  <g id="Group_608" data-name="Group 608" transform="translate(-1211.861 -1058.389)">
    <path id="Path_2049" data-name="Path 2049" d="M1748.735,840.706c19.655-2.352,34.616,14.966,39.119,32.614a54.5,54.5,0,0,1,.957,5.922,51.067,51.067,0,0,1-1.221,17.974,43.935,43.935,0,0,1-1.882,5.7c-5.532,17.312-24.387,28.584-42.176,23.542a37.64,37.64,0,0,1-6.38-1.279c-14.446-4.22-25.6-16.782-29.142-31.333a54.134,54.134,0,0,1-1.13-6.318c-4.686-22.329,14.374-40.775,34.778-45.448A49.259,49.259,0,0,1,1748.735,840.706Z" transform="translate(-488.844 217.898)" fill="#f6d1cf"/>
    <g id="Group_460" data-name="Group 460" transform="translate(1211.861 1105.834)">
      <g id="Group_454" data-name="Group 454" clip-path="url(#clip-path)">
        <path id="Path_1991" data-name="Path 1991" d="M1527.491,800.968c-8.774,8.774-.351,17.2-9.125,25.971s-17.2.351-25.97,9.125-.351,17.2-9.125,25.97-17.2.351-25.971,9.125-.351,17.2-9.125,25.97-17.2.351-25.971,9.125-.351,17.2-9.125,25.971-17.2.351-25.971,9.125" transform="translate(-1453.58 -857.323)" fill="none" stroke="#96d1bf" stroke-miterlimit="10" stroke-width="2.468"/>
        <path id="Path_1992" data-name="Path 1992" d="M1543.614,817.091c-8.774,8.774-.351,17.2-9.125,25.971s-17.2.351-25.97,9.125-.351,17.2-9.125,25.971-17.2.351-25.971,9.125-.351,17.2-9.125,25.971-17.2.351-25.971,9.124-.351,17.2-9.125,25.971-17.2.351-25.971,9.125" transform="translate(-1466.069 -869.812)" fill="none" stroke="#96d1bf" stroke-miterlimit="10" stroke-width="2.468"/>
        <path id="Path_1993" data-name="Path 1993" d="M1559.737,833.215c-8.774,8.774-.351,17.2-9.125,25.97s-17.2.351-25.97,9.125-.351,17.2-9.125,25.97-17.2.351-25.971,9.125-.351,17.2-9.125,25.971-17.2.351-25.971,9.125-.351,17.2-9.125,25.971-17.2.351-25.971,9.125" transform="translate(-1478.557 -882.301)" fill="none" stroke="#96d1bf" stroke-miterlimit="10" stroke-width="2.468"/>
        <path id="Path_1994" data-name="Path 1994" d="M1575.861,849.338c-8.774,8.774-.351,17.2-9.125,25.97s-17.2.351-25.971,9.125-.351,17.2-9.125,25.971-17.2.351-25.97,9.125-.351,17.2-9.125,25.97-17.2.351-25.971,9.125-.351,17.2-9.125,25.971-17.2.351-25.971,9.125" transform="translate(-1491.046 -894.789)" fill="none" stroke="#96d1bf" stroke-miterlimit="10" stroke-width="2.468"/>
        <path id="Path_1995" data-name="Path 1995" d="M1591.984,865.461c-8.774,8.774-.351,17.2-9.125,25.971s-17.2.351-25.971,9.125-.351,17.2-9.125,25.971-17.2.351-25.97,9.125-.351,17.2-9.125,25.97-17.2.351-25.971,9.125-.351,17.2-9.125,25.971-17.2.351-25.971,9.125" transform="translate(-1503.534 -907.277)" fill="none" stroke="#96d1bf" stroke-miterlimit="10" stroke-width="2.468"/>
        <path id="Path_1996" data-name="Path 1996" d="M1608.107,881.584c-8.774,8.774-.351,17.2-9.125,25.971s-17.2.351-25.971,9.125-.351,17.2-9.125,25.97-17.2.351-25.971,9.125-.351,17.2-9.124,25.97-17.2.351-25.971,9.125-.351,17.2-9.125,25.971-17.2.351-25.971,9.125" transform="translate(-1516.023 -919.765)" fill="none" stroke="#96d1bf" stroke-miterlimit="10" stroke-width="2.468"/>
        <path id="Path_1997" data-name="Path 1997" d="M1624.231,897.707c-8.774,8.774-.351,17.2-9.125,25.971s-17.2.351-25.971,9.125-.351,17.2-9.125,25.971-17.2.351-25.971,9.125-.351,17.2-9.125,25.97-17.2.351-25.971,9.125-.351,17.2-9.125,25.97-17.2.351-25.971,9.125" transform="translate(-1528.511 -932.253)" fill="none" stroke="#96d1bf" stroke-miterlimit="10" stroke-width="2.468"/>
        <path id="Path_1998" data-name="Path 1998" d="M1640.354,913.831c-8.774,8.773-.351,17.2-9.125,25.97s-17.2.351-25.971,9.125-.351,17.2-9.125,25.971-17.2.351-25.971,9.125-.351,17.2-9.125,25.97-17.2.351-25.971,9.125-.351,17.2-9.125,25.971-17.2.351-25.971,9.125" transform="translate(-1540.999 -944.742)" fill="none" stroke="#96d1bf" stroke-miterlimit="10" stroke-width="2.468"/>
        <path id="Path_1999" data-name="Path 1999" d="M1656.478,929.954c-8.774,8.774-.351,17.2-9.125,25.97s-17.2.351-25.971,9.125-.351,17.2-9.125,25.971-17.2.351-25.971,9.125-.351,17.2-9.125,25.97-17.2.351-25.971,9.125-.351,17.2-9.125,25.971-17.2.351-25.971,9.125" transform="translate(-1553.488 -957.231)" fill="none" stroke="#96d1bf" stroke-miterlimit="10" stroke-width="2.468"/>
        <path id="Path_2000" data-name="Path 2000" d="M1672.6,946.077c-8.774,8.774-.351,17.2-9.125,25.97s-17.2.351-25.971,9.125-.351,17.2-9.125,25.971-17.2.351-25.971,9.125-.351,17.2-9.125,25.97-17.2.351-25.971,9.125-.351,17.2-9.125,25.971-17.2.351-25.971,9.125" transform="translate(-1565.976 -969.719)" fill="none" stroke="#96d1bf" stroke-miterlimit="10" stroke-width="2.468"/>
        <path id="Path_2001" data-name="Path 2001" d="M1688.724,962.2c-8.774,8.774-.351,17.2-9.125,25.97s-17.2.351-25.971,9.125-.351,17.2-9.125,25.97-17.2.351-25.97,9.125-.351,17.2-9.125,25.97-17.2.351-25.971,9.125-.351,17.2-9.125,25.971-17.2.351-25.97,9.125" transform="translate(-1578.465 -982.207)" fill="none" stroke="#96d1bf" stroke-miterlimit="10" stroke-width="2.468"/>
        <path id="Path_2002" data-name="Path 2002" d="M1704.846,978.323c-8.774,8.774-.351,17.2-9.125,25.971s-17.2.351-25.971,9.125-.35,17.2-9.124,25.97-17.2.351-25.971,9.125-.351,17.2-9.125,25.97-17.2.351-25.97,9.125-.351,17.2-9.125,25.971-17.2.351-25.971,9.125" transform="translate(-1590.953 -994.695)" fill="none" stroke="#96d1bf" stroke-miterlimit="10" stroke-width="2.468"/>
        <path id="Path_2003" data-name="Path 2003" d="M1720.969,994.446c-8.774,8.774-.351,17.2-9.125,25.971s-17.2.351-25.971,9.125-.351,17.2-9.125,25.97-17.2.351-25.971,9.125-.351,17.2-9.125,25.97-17.2.351-25.97,9.125-.351,17.2-9.125,25.971-17.2.351-25.971,9.125" transform="translate(-1603.441 -1007.183)" fill="none" stroke="#96d1bf" stroke-miterlimit="10" stroke-width="2.468"/>
        <path id="Path_2004" data-name="Path 2004" d="M1737.093,1010.569c-8.774,8.774-.351,17.2-9.125,25.971s-17.2.351-25.971,9.125-.351,17.2-9.125,25.97-17.2.351-25.971,9.125-.351,17.2-9.125,25.97-17.2.351-25.971,9.125-.351,17.2-9.125,25.971-17.2.351-25.971,9.125" transform="translate(-1615.929 -1019.671)" fill="none" stroke="#96d1bf" stroke-miterlimit="10" stroke-width="2.468"/>
        <path id="Path_2005" data-name="Path 2005" d="M1753.216,1026.693c-8.774,8.774-.351,17.2-9.125,25.971s-17.2.351-25.971,9.125-.351,17.2-9.125,25.971-17.2.351-25.971,9.125-.351,17.2-9.125,25.971-17.2.351-25.971,9.125-.351,17.2-9.125,25.971-17.2.351-25.971,9.125" transform="translate(-1628.417 -1032.161)" fill="none" stroke="#96d1bf" stroke-miterlimit="10" stroke-width="2.468"/>
        <path id="Path_2006" data-name="Path 2006" d="M1769.339,1042.816c-8.774,8.774-.351,17.2-9.125,25.971s-17.2.351-25.97,9.125-.351,17.2-9.125,25.97-17.2.351-25.971,9.125-.351,17.2-9.125,25.97-17.2.351-25.971,9.125-.351,17.2-9.125,25.97-17.2.351-25.971,9.125" transform="translate(-1640.906 -1044.649)" fill="none" stroke="#96d1bf" stroke-miterlimit="10" stroke-width="2.468"/>
        <path id="Path_2007" data-name="Path 2007" d="M1785.462,1058.94c-8.774,8.774-.351,17.2-9.125,25.97s-17.2.351-25.97,9.125-.351,17.2-9.125,25.971-17.2.351-25.971,9.125-.351,17.2-9.125,25.97-17.2.351-25.97,9.125-.351,17.2-9.125,25.971-17.2.351-25.971,9.125" transform="translate(-1653.394 -1057.138)" fill="none" stroke="#96d1bf" stroke-miterlimit="10" stroke-width="2.468"/>
        <path id="Path_2008" data-name="Path 2008" d="M1801.585,1075.063c-8.774,8.774-.351,17.2-9.125,25.97s-17.2.351-25.971,9.125-.351,17.2-9.125,25.971-17.2.351-25.971,9.125-.351,17.2-9.125,25.97-17.2.351-25.97,9.125-.351,17.2-9.125,25.971-17.2.351-25.971,9.125" transform="translate(-1665.882 -1069.626)" fill="none" stroke="#96d1bf" stroke-miterlimit="10" stroke-width="2.468"/>
      </g>
    </g>
  </g>
</svg>
