<svg xmlns="http://www.w3.org/2000/svg" xmlns:xlink="http://www.w3.org/1999/xlink" width="200.189" height="192.07" viewBox="0 0 200.189 192.07">
  <defs>
    <clipPath id="clip-path">
      <path id="Path_1665" data-name="Path 1665" d="M2307.852,281.877c27.416-3.28,48.285,20.875,54.564,45.491a76.1,76.1,0,0,1,1.335,8.259,71.228,71.228,0,0,1-1.7,25.07,61.339,61.339,0,0,1-2.626,7.956c-7.717,24.147-34.017,39.869-58.828,32.837a52.479,52.479,0,0,1-8.9-1.785c-20.15-5.887-38.392-17.979-43.332-38.274-.706-2.9-2.2-7.422-2.561-10.386-6.536-31.146,23.717-60.729,52.176-67.248A68.721,68.721,0,0,1,2307.852,281.877Z" transform="translate(-2244.902 -281.576)" fill="none"/>
    </clipPath>
  </defs>
  <g id="Group_607" data-name="Group 607" transform="translate(34.765 -1172.93)">
    <path id="Path_668" data-name="Path 668" d="M2095.068,278.63c8.053.109,15.695,2.628,22.679,6.357a76.479,76.479,0,0,1,6.756,4.088c10.6,7.138,21.324,15.143,26.184,27.578,4.717,11.578,3.716,24.442-.627,35.938-.542,2.118-.96,4.31-1.463,6.479-3.02,13.015-9.452,25.048-21.351,33.624-16.409,11.807-36.39,11.777-52.958,3.832a61.96,61.96,0,0,1-6.878-3.864c-27.5-12.975-41.647-48.423-26.676-75.741a55.5,55.5,0,0,1,3.035-6.117,60.17,60.17,0,0,1,13.04-15.637c2.073-1.776,4.232-3.444,6.4-5.053,6.576-4.906,13.866-9.051,21.991-10.5A54.61,54.61,0,0,1,2095.068,278.63Z" transform="translate(-2069.426 894.3)" fill="#f6d1cf"/>
    <path id="Path_670" data-name="Path 670" d="M2352.821,496.833c8.053.109,15.694,2.629,22.679,6.357a76.5,76.5,0,0,1,6.756,4.087c10.6,7.138,21.324,15.143,26.184,27.578,4.717,11.578,3.716,24.442-.627,35.938-.542,2.118-.959,4.31-1.463,6.479-3.02,13.015-9.452,25.048-21.351,33.624-16.409,11.807-36.389,11.777-52.958,3.832a61.8,61.8,0,0,1-6.878-3.864c-27.5-12.975-41.647-48.423-26.676-75.741a55.42,55.42,0,0,1,3.035-6.117,60.174,60.174,0,0,1,13.04-15.637c2.073-1.776,4.231-3.444,6.4-5.053,6.577-4.906,13.866-9.051,21.99-10.5A54.61,54.61,0,0,1,2352.821,496.833Z" transform="translate(-2246.127 744.712)" fill="#82c5de"/>
    <g id="Group_443" data-name="Group 443" transform="translate(31.346 1173.856)">
      <g id="Group_442" data-name="Group 442" clip-path="url(#clip-path)">
        <path id="Path_1511" data-name="Path 1511" d="M2239.479,659.714a1.917,1.917,0,1,1-1.917,1.917A1.918,1.918,0,0,1,2239.479,659.714Z" transform="translate(-2239.871 -540.807)" fill="#96d1bf"/>
        <path id="Path_1512" data-name="Path 1512" d="M2239.479,627.9a1.917,1.917,0,1,1-1.917,1.917A1.917,1.917,0,0,1,2239.479,627.9Z" transform="translate(-2239.871 -518.998)" fill="#96d1bf"/>
        <path id="Path_1513" data-name="Path 1513" d="M2239.479,596.087a1.917,1.917,0,1,1-1.917,1.917A1.918,1.918,0,0,1,2239.479,596.087Z" transform="translate(-2239.871 -497.188)" fill="#96d1bf"/>
        <path id="Path_1514" data-name="Path 1514" d="M2239.479,564.273a1.917,1.917,0,1,1-1.917,1.917A1.918,1.918,0,0,1,2239.479,564.273Z" transform="translate(-2239.871 -475.378)" fill="#96d1bf"/>
        <path id="Path_1515" data-name="Path 1515" d="M2239.479,532.46a1.917,1.917,0,1,1-1.917,1.917A1.918,1.918,0,0,1,2239.479,532.46Z" transform="translate(-2239.871 -453.569)" fill="#96d1bf"/>
        <path id="Path_1516" data-name="Path 1516" d="M2239.479,500.646a1.917,1.917,0,1,1-1.917,1.917A1.918,1.918,0,0,1,2239.479,500.646Z" transform="translate(-2239.871 -431.759)" fill="#96d1bf"/>
        <path id="Path_1517" data-name="Path 1517" d="M2239.479,468.833a1.917,1.917,0,1,1-1.917,1.917A1.918,1.918,0,0,1,2239.479,468.833Z" transform="translate(-2239.871 -409.949)" fill="#96d1bf"/>
        <path id="Path_1518" data-name="Path 1518" d="M2239.479,437.02a1.917,1.917,0,1,1-1.917,1.917A1.917,1.917,0,0,1,2239.479,437.02Z" transform="translate(-2239.871 -388.14)" fill="#96d1bf"/>
        <path id="Path_1519" data-name="Path 1519" d="M2239.479,405.206a1.917,1.917,0,1,1-1.917,1.917A1.917,1.917,0,0,1,2239.479,405.206Z" transform="translate(-2239.871 -366.33)" fill="#96d1bf"/>
        <path id="Path_1520" data-name="Path 1520" d="M2239.479,373.393a1.917,1.917,0,1,1-1.917,1.917A1.917,1.917,0,0,1,2239.479,373.393Z" transform="translate(-2239.871 -344.521)" fill="#96d1bf"/>
        <path id="Path_1521" data-name="Path 1521" d="M2239.479,341.579a1.917,1.917,0,1,1-1.917,1.917A1.918,1.918,0,0,1,2239.479,341.579Z" transform="translate(-2239.871 -322.711)" fill="#96d1bf"/>
        <path id="Path_1522" data-name="Path 1522" d="M2239.479,309.765a1.917,1.917,0,1,1-1.917,1.917A1.918,1.918,0,0,1,2239.479,309.765Z" transform="translate(-2239.871 -300.901)" fill="#96d1bf"/>
        <path id="Path_1523" data-name="Path 1523" d="M2239.479,277.952a1.917,1.917,0,1,1-1.917,1.917A1.917,1.917,0,0,1,2239.479,277.952Z" transform="translate(-2239.871 -279.092)" fill="#96d1bf"/>
        <path id="Path_1524" data-name="Path 1524" d="M2271.293,659.714a1.917,1.917,0,1,1-1.917,1.917A1.917,1.917,0,0,1,2271.293,659.714Z" transform="translate(-2261.68 -540.807)" fill="#96d1bf"/>
        <path id="Path_1525" data-name="Path 1525" d="M2271.293,627.9a1.917,1.917,0,1,1-1.917,1.917A1.917,1.917,0,0,1,2271.293,627.9Z" transform="translate(-2261.68 -518.998)" fill="#96d1bf"/>
        <path id="Path_1526" data-name="Path 1526" d="M2271.293,596.087a1.917,1.917,0,1,1-1.917,1.917A1.917,1.917,0,0,1,2271.293,596.087Z" transform="translate(-2261.68 -497.188)" fill="#96d1bf"/>
        <path id="Path_1527" data-name="Path 1527" d="M2271.293,564.273a1.917,1.917,0,1,1-1.917,1.917A1.917,1.917,0,0,1,2271.293,564.273Z" transform="translate(-2261.68 -475.378)" fill="#96d1bf"/>
        <path id="Path_1528" data-name="Path 1528" d="M2271.293,532.46a1.917,1.917,0,1,1-1.917,1.917A1.917,1.917,0,0,1,2271.293,532.46Z" transform="translate(-2261.68 -453.569)" fill="#96d1bf"/>
        <path id="Path_1529" data-name="Path 1529" d="M2271.293,500.646a1.917,1.917,0,1,1-1.917,1.917A1.917,1.917,0,0,1,2271.293,500.646Z" transform="translate(-2261.68 -431.759)" fill="#96d1bf"/>
        <path id="Path_1530" data-name="Path 1530" d="M2271.293,468.833a1.917,1.917,0,1,1-1.917,1.917A1.917,1.917,0,0,1,2271.293,468.833Z" transform="translate(-2261.68 -409.949)" fill="#96d1bf"/>
        <path id="Path_1531" data-name="Path 1531" d="M2271.293,437.02a1.917,1.917,0,1,1-1.917,1.917A1.917,1.917,0,0,1,2271.293,437.02Z" transform="translate(-2261.68 -388.14)" fill="#96d1bf"/>
        <path id="Path_1532" data-name="Path 1532" d="M2271.293,405.206a1.917,1.917,0,1,1-1.917,1.917A1.917,1.917,0,0,1,2271.293,405.206Z" transform="translate(-2261.68 -366.33)" fill="#96d1bf"/>
        <path id="Path_1533" data-name="Path 1533" d="M2271.293,373.393a1.917,1.917,0,1,1-1.917,1.917A1.917,1.917,0,0,1,2271.293,373.393Z" transform="translate(-2261.68 -344.521)" fill="#96d1bf"/>
        <path id="Path_1534" data-name="Path 1534" d="M2271.293,341.579a1.917,1.917,0,1,1-1.917,1.917A1.917,1.917,0,0,1,2271.293,341.579Z" transform="translate(-2261.68 -322.711)" fill="#96d1bf"/>
        <path id="Path_1535" data-name="Path 1535" d="M2271.293,309.765a1.917,1.917,0,1,1-1.917,1.917A1.917,1.917,0,0,1,2271.293,309.765Z" transform="translate(-2261.68 -300.901)" fill="#96d1bf"/>
        <path id="Path_1536" data-name="Path 1536" d="M2271.293,277.952a1.917,1.917,0,1,1-1.917,1.917A1.917,1.917,0,0,1,2271.293,277.952Z" transform="translate(-2261.68 -279.092)" fill="#96d1bf"/>
        <path id="Path_1537" data-name="Path 1537" d="M2303.107,659.714a1.917,1.917,0,1,1-1.917,1.917A1.917,1.917,0,0,1,2303.107,659.714Z" transform="translate(-2283.49 -540.807)" fill="#96d1bf"/>
        <path id="Path_1538" data-name="Path 1538" d="M2303.107,627.9a1.917,1.917,0,1,1-1.917,1.917A1.917,1.917,0,0,1,2303.107,627.9Z" transform="translate(-2283.49 -518.998)" fill="#96d1bf"/>
        <path id="Path_1539" data-name="Path 1539" d="M2303.107,596.087A1.917,1.917,0,1,1,2301.19,598,1.917,1.917,0,0,1,2303.107,596.087Z" transform="translate(-2283.49 -497.188)" fill="#96d1bf"/>
        <path id="Path_1540" data-name="Path 1540" d="M2303.107,564.273a1.917,1.917,0,1,1-1.917,1.917A1.917,1.917,0,0,1,2303.107,564.273Z" transform="translate(-2283.49 -475.378)" fill="#96d1bf"/>
        <path id="Path_1541" data-name="Path 1541" d="M2303.107,532.46a1.917,1.917,0,1,1-1.917,1.917A1.917,1.917,0,0,1,2303.107,532.46Z" transform="translate(-2283.49 -453.569)" fill="#96d1bf"/>
        <path id="Path_1542" data-name="Path 1542" d="M2303.107,500.646a1.917,1.917,0,1,1-1.917,1.917A1.917,1.917,0,0,1,2303.107,500.646Z" transform="translate(-2283.49 -431.759)" fill="#96d1bf"/>
        <path id="Path_1543" data-name="Path 1543" d="M2303.107,468.833a1.917,1.917,0,1,1-1.917,1.917A1.917,1.917,0,0,1,2303.107,468.833Z" transform="translate(-2283.49 -409.949)" fill="#96d1bf"/>
        <path id="Path_1544" data-name="Path 1544" d="M2303.107,437.02a1.917,1.917,0,1,1-1.917,1.917A1.917,1.917,0,0,1,2303.107,437.02Z" transform="translate(-2283.49 -388.14)" fill="#96d1bf"/>
        <path id="Path_1545" data-name="Path 1545" d="M2303.107,405.206a1.917,1.917,0,1,1-1.917,1.917A1.917,1.917,0,0,1,2303.107,405.206Z" transform="translate(-2283.49 -366.33)" fill="#96d1bf"/>
        <path id="Path_1546" data-name="Path 1546" d="M2303.107,373.393a1.917,1.917,0,1,1-1.917,1.917A1.917,1.917,0,0,1,2303.107,373.393Z" transform="translate(-2283.49 -344.521)" fill="#96d1bf"/>
        <path id="Path_1547" data-name="Path 1547" d="M2303.107,341.579a1.917,1.917,0,1,1-1.917,1.917A1.917,1.917,0,0,1,2303.107,341.579Z" transform="translate(-2283.49 -322.711)" fill="#96d1bf"/>
        <path id="Path_1548" data-name="Path 1548" d="M2303.107,309.765a1.917,1.917,0,1,1-1.917,1.917A1.917,1.917,0,0,1,2303.107,309.765Z" transform="translate(-2283.49 -300.901)" fill="#96d1bf"/>
        <path id="Path_1549" data-name="Path 1549" d="M2303.107,277.952a1.917,1.917,0,1,1-1.917,1.917A1.917,1.917,0,0,1,2303.107,277.952Z" transform="translate(-2283.49 -279.092)" fill="#96d1bf"/>
        <path id="Path_1550" data-name="Path 1550" d="M2334.92,659.714a1.917,1.917,0,1,1-1.917,1.917A1.917,1.917,0,0,1,2334.92,659.714Z" transform="translate(-2305.299 -540.807)" fill="#96d1bf"/>
        <path id="Path_1551" data-name="Path 1551" d="M2334.92,627.9a1.917,1.917,0,1,1-1.917,1.917A1.917,1.917,0,0,1,2334.92,627.9Z" transform="translate(-2305.299 -518.998)" fill="#96d1bf"/>
        <path id="Path_1552" data-name="Path 1552" d="M2334.92,596.087A1.917,1.917,0,1,1,2333,598,1.917,1.917,0,0,1,2334.92,596.087Z" transform="translate(-2305.299 -497.188)" fill="#96d1bf"/>
        <path id="Path_1553" data-name="Path 1553" d="M2334.92,564.273A1.917,1.917,0,1,1,2333,566.19,1.917,1.917,0,0,1,2334.92,564.273Z" transform="translate(-2305.299 -475.378)" fill="#96d1bf"/>
        <path id="Path_1554" data-name="Path 1554" d="M2334.92,532.46a1.917,1.917,0,1,1-1.917,1.917A1.917,1.917,0,0,1,2334.92,532.46Z" transform="translate(-2305.299 -453.569)" fill="#96d1bf"/>
        <path id="Path_1555" data-name="Path 1555" d="M2334.92,500.646a1.917,1.917,0,1,1-1.917,1.917A1.917,1.917,0,0,1,2334.92,500.646Z" transform="translate(-2305.299 -431.759)" fill="#96d1bf"/>
        <path id="Path_1556" data-name="Path 1556" d="M2334.92,468.833A1.917,1.917,0,1,1,2333,470.75,1.917,1.917,0,0,1,2334.92,468.833Z" transform="translate(-2305.299 -409.949)" fill="#96d1bf"/>
        <path id="Path_1557" data-name="Path 1557" d="M2334.92,437.02a1.917,1.917,0,1,1-1.917,1.917A1.917,1.917,0,0,1,2334.92,437.02Z" transform="translate(-2305.299 -388.14)" fill="#96d1bf"/>
        <path id="Path_1558" data-name="Path 1558" d="M2334.92,405.206a1.917,1.917,0,1,1-1.917,1.917A1.917,1.917,0,0,1,2334.92,405.206Z" transform="translate(-2305.299 -366.33)" fill="#96d1bf"/>
        <path id="Path_1559" data-name="Path 1559" d="M2334.92,373.393A1.917,1.917,0,1,1,2333,375.31,1.917,1.917,0,0,1,2334.92,373.393Z" transform="translate(-2305.299 -344.521)" fill="#96d1bf"/>
        <path id="Path_1560" data-name="Path 1560" d="M2334.92,341.579A1.917,1.917,0,1,1,2333,343.5,1.917,1.917,0,0,1,2334.92,341.579Z" transform="translate(-2305.299 -322.711)" fill="#96d1bf"/>
        <path id="Path_1561" data-name="Path 1561" d="M2334.92,309.765a1.917,1.917,0,1,1-1.917,1.917A1.917,1.917,0,0,1,2334.92,309.765Z" transform="translate(-2305.299 -300.901)" fill="#96d1bf"/>
        <path id="Path_1562" data-name="Path 1562" d="M2334.92,277.952a1.917,1.917,0,1,1-1.917,1.917A1.917,1.917,0,0,1,2334.92,277.952Z" transform="translate(-2305.299 -279.092)" fill="#96d1bf"/>
        <path id="Path_1563" data-name="Path 1563" d="M2366.733,659.714a1.917,1.917,0,1,1-1.917,1.917A1.917,1.917,0,0,1,2366.733,659.714Z" transform="translate(-2327.108 -540.807)" fill="#96d1bf"/>
        <path id="Path_1564" data-name="Path 1564" d="M2366.733,627.9a1.917,1.917,0,1,1-1.917,1.917A1.917,1.917,0,0,1,2366.733,627.9Z" transform="translate(-2327.108 -518.998)" fill="#96d1bf"/>
        <circle id="Ellipse_189" data-name="Ellipse 189" cx="1.917" cy="1.917" r="1.917" transform="translate(37.708 98.899)" fill="#96d1bf"/>
        <circle id="Ellipse_190" data-name="Ellipse 190" cx="1.917" cy="1.917" r="1.917" transform="translate(37.708 88.895)" fill="#96d1bf"/>
        <path id="Path_1565" data-name="Path 1565" d="M2366.733,532.46a1.917,1.917,0,1,1-1.917,1.917A1.917,1.917,0,0,1,2366.733,532.46Z" transform="translate(-2327.108 -453.569)" fill="#96d1bf"/>
        <path id="Path_1566" data-name="Path 1566" d="M2366.733,500.646a1.917,1.917,0,1,1-1.917,1.917A1.917,1.917,0,0,1,2366.733,500.646Z" transform="translate(-2327.108 -431.759)" fill="#96d1bf"/>
        <circle id="Ellipse_191" data-name="Ellipse 191" cx="1.917" cy="1.917" r="1.917" transform="translate(37.708 58.884)" fill="#96d1bf"/>
        <circle id="Ellipse_192" data-name="Ellipse 192" cx="1.917" cy="1.917" r="1.917" transform="translate(37.708 48.88)" fill="#96d1bf"/>
        <path id="Path_1567" data-name="Path 1567" d="M2366.733,405.206a1.917,1.917,0,1,1-1.917,1.917A1.917,1.917,0,0,1,2366.733,405.206Z" transform="translate(-2327.108 -366.33)" fill="#96d1bf"/>
        <path id="Path_1568" data-name="Path 1568" d="M2366.733,373.393a1.917,1.917,0,1,1-1.917,1.917A1.917,1.917,0,0,1,2366.733,373.393Z" transform="translate(-2327.108 -344.521)" fill="#96d1bf"/>
        <path id="Path_1569" data-name="Path 1569" d="M2366.733,341.579a1.917,1.917,0,1,1-1.917,1.917A1.917,1.917,0,0,1,2366.733,341.579Z" transform="translate(-2327.108 -322.711)" fill="#96d1bf"/>
        <circle id="Ellipse_193" data-name="Ellipse 193" cx="1.917" cy="1.917" r="1.917" transform="translate(37.708 8.864)" fill="#96d1bf"/>
        <path id="Path_1570" data-name="Path 1570" d="M2366.733,277.952a1.917,1.917,0,1,1-1.917,1.917A1.917,1.917,0,0,1,2366.733,277.952Z" transform="translate(-2327.108 -279.092)" fill="#96d1bf"/>
        <path id="Path_1571" data-name="Path 1571" d="M2398.547,659.714a1.917,1.917,0,1,1-1.917,1.917A1.917,1.917,0,0,1,2398.547,659.714Z" transform="translate(-2348.918 -540.807)" fill="#96d1bf"/>
        <path id="Path_1572" data-name="Path 1572" d="M2398.547,627.9a1.917,1.917,0,1,1-1.917,1.917A1.917,1.917,0,0,1,2398.547,627.9Z" transform="translate(-2348.918 -518.998)" fill="#96d1bf"/>
        <path id="Path_1573" data-name="Path 1573" d="M2398.547,596.087A1.917,1.917,0,1,1,2396.63,598,1.917,1.917,0,0,1,2398.547,596.087Z" transform="translate(-2348.918 -497.188)" fill="#96d1bf"/>
        <path id="Path_1574" data-name="Path 1574" d="M2398.547,564.273a1.917,1.917,0,1,1-1.917,1.917A1.917,1.917,0,0,1,2398.547,564.273Z" transform="translate(-2348.918 -475.378)" fill="#96d1bf"/>
        <path id="Path_1575" data-name="Path 1575" d="M2398.547,532.46a1.917,1.917,0,1,1-1.917,1.917A1.917,1.917,0,0,1,2398.547,532.46Z" transform="translate(-2348.918 -453.569)" fill="#96d1bf"/>
        <path id="Path_1576" data-name="Path 1576" d="M2398.547,500.646a1.917,1.917,0,1,1-1.917,1.917A1.917,1.917,0,0,1,2398.547,500.646Z" transform="translate(-2348.918 -431.759)" fill="#96d1bf"/>
        <path id="Path_1577" data-name="Path 1577" d="M2398.547,468.833a1.917,1.917,0,1,1-1.917,1.917A1.917,1.917,0,0,1,2398.547,468.833Z" transform="translate(-2348.918 -409.949)" fill="#96d1bf"/>
        <path id="Path_1578" data-name="Path 1578" d="M2398.547,437.02a1.917,1.917,0,1,1-1.917,1.917A1.917,1.917,0,0,1,2398.547,437.02Z" transform="translate(-2348.918 -388.14)" fill="#96d1bf"/>
        <path id="Path_1579" data-name="Path 1579" d="M2398.547,405.206a1.917,1.917,0,1,1-1.917,1.917A1.917,1.917,0,0,1,2398.547,405.206Z" transform="translate(-2348.918 -366.33)" fill="#96d1bf"/>
        <path id="Path_1580" data-name="Path 1580" d="M2398.547,373.393a1.917,1.917,0,1,1-1.917,1.917A1.917,1.917,0,0,1,2398.547,373.393Z" transform="translate(-2348.918 -344.521)" fill="#96d1bf"/>
        <path id="Path_1581" data-name="Path 1581" d="M2398.547,341.579a1.917,1.917,0,1,1-1.917,1.917A1.917,1.917,0,0,1,2398.547,341.579Z" transform="translate(-2348.918 -322.711)" fill="#96d1bf"/>
        <path id="Path_1582" data-name="Path 1582" d="M2398.547,309.765a1.917,1.917,0,1,1-1.917,1.917A1.917,1.917,0,0,1,2398.547,309.765Z" transform="translate(-2348.918 -300.901)" fill="#96d1bf"/>
        <path id="Path_1583" data-name="Path 1583" d="M2398.547,277.952a1.917,1.917,0,1,1-1.917,1.917A1.917,1.917,0,0,1,2398.547,277.952Z" transform="translate(-2348.918 -279.092)" fill="#96d1bf"/>
        <path id="Path_1584" data-name="Path 1584" d="M2430.36,659.714a1.917,1.917,0,1,1-1.917,1.917A1.917,1.917,0,0,1,2430.36,659.714Z" transform="translate(-2370.728 -540.807)" fill="#96d1bf"/>
        <path id="Path_1585" data-name="Path 1585" d="M2430.36,627.9a1.917,1.917,0,1,1-1.917,1.917A1.917,1.917,0,0,1,2430.36,627.9Z" transform="translate(-2370.728 -518.998)" fill="#96d1bf"/>
        <path id="Path_1586" data-name="Path 1586" d="M2430.36,596.087a1.917,1.917,0,1,1-1.917,1.917A1.917,1.917,0,0,1,2430.36,596.087Z" transform="translate(-2370.728 -497.188)" fill="#96d1bf"/>
        <path id="Path_1587" data-name="Path 1587" d="M2430.36,564.273a1.917,1.917,0,1,1-1.917,1.917A1.917,1.917,0,0,1,2430.36,564.273Z" transform="translate(-2370.728 -475.378)" fill="#96d1bf"/>
        <path id="Path_1588" data-name="Path 1588" d="M2430.36,532.46a1.917,1.917,0,1,1-1.917,1.917A1.917,1.917,0,0,1,2430.36,532.46Z" transform="translate(-2370.728 -453.569)" fill="#96d1bf"/>
        <path id="Path_1589" data-name="Path 1589" d="M2430.36,500.646a1.917,1.917,0,1,1-1.917,1.917A1.917,1.917,0,0,1,2430.36,500.646Z" transform="translate(-2370.728 -431.759)" fill="#96d1bf"/>
        <path id="Path_1590" data-name="Path 1590" d="M2430.36,468.833a1.917,1.917,0,1,1-1.917,1.917A1.917,1.917,0,0,1,2430.36,468.833Z" transform="translate(-2370.728 -409.949)" fill="#96d1bf"/>
        <path id="Path_1591" data-name="Path 1591" d="M2430.36,437.02a1.917,1.917,0,1,1-1.917,1.917A1.917,1.917,0,0,1,2430.36,437.02Z" transform="translate(-2370.728 -388.14)" fill="#96d1bf"/>
        <path id="Path_1592" data-name="Path 1592" d="M2430.36,405.206a1.917,1.917,0,1,1-1.917,1.917A1.917,1.917,0,0,1,2430.36,405.206Z" transform="translate(-2370.728 -366.33)" fill="#96d1bf"/>
        <path id="Path_1593" data-name="Path 1593" d="M2430.36,373.393a1.917,1.917,0,1,1-1.917,1.917A1.917,1.917,0,0,1,2430.36,373.393Z" transform="translate(-2370.728 -344.521)" fill="#96d1bf"/>
        <path id="Path_1594" data-name="Path 1594" d="M2430.36,341.579a1.917,1.917,0,1,1-1.917,1.917A1.917,1.917,0,0,1,2430.36,341.579Z" transform="translate(-2370.728 -322.711)" fill="#96d1bf"/>
        <path id="Path_1595" data-name="Path 1595" d="M2430.36,309.765a1.917,1.917,0,1,1-1.917,1.917A1.917,1.917,0,0,1,2430.36,309.765Z" transform="translate(-2370.728 -300.901)" fill="#96d1bf"/>
        <path id="Path_1596" data-name="Path 1596" d="M2430.36,277.952a1.917,1.917,0,1,1-1.917,1.917A1.917,1.917,0,0,1,2430.36,277.952Z" transform="translate(-2370.728 -279.092)" fill="#96d1bf"/>
        <path id="Path_1597" data-name="Path 1597" d="M2462.174,659.714a1.917,1.917,0,1,1-1.917,1.917A1.917,1.917,0,0,1,2462.174,659.714Z" transform="translate(-2392.538 -540.807)" fill="#96d1bf"/>
        <path id="Path_1598" data-name="Path 1598" d="M2462.174,627.9a1.917,1.917,0,1,1-1.917,1.917A1.917,1.917,0,0,1,2462.174,627.9Z" transform="translate(-2392.538 -518.998)" fill="#96d1bf"/>
        <circle id="Ellipse_194" data-name="Ellipse 194" cx="1.917" cy="1.917" r="1.917" transform="translate(67.719 98.899)" fill="#96d1bf"/>
        <circle id="Ellipse_195" data-name="Ellipse 195" cx="1.917" cy="1.917" r="1.917" transform="translate(67.719 88.895)" fill="#96d1bf"/>
        <path id="Path_1599" data-name="Path 1599" d="M2462.174,532.46a1.917,1.917,0,1,1-1.917,1.917A1.917,1.917,0,0,1,2462.174,532.46Z" transform="translate(-2392.538 -453.569)" fill="#96d1bf"/>
        <path id="Path_1600" data-name="Path 1600" d="M2462.174,500.646a1.917,1.917,0,1,1-1.917,1.917A1.917,1.917,0,0,1,2462.174,500.646Z" transform="translate(-2392.538 -431.759)" fill="#96d1bf"/>
        <circle id="Ellipse_196" data-name="Ellipse 196" cx="1.917" cy="1.917" r="1.917" transform="translate(67.719 58.884)" fill="#96d1bf"/>
        <circle id="Ellipse_197" data-name="Ellipse 197" cx="1.917" cy="1.917" r="1.917" transform="translate(67.719 48.88)" fill="#96d1bf"/>
        <path id="Path_1601" data-name="Path 1601" d="M2462.174,405.206a1.917,1.917,0,1,1-1.917,1.917A1.917,1.917,0,0,1,2462.174,405.206Z" transform="translate(-2392.538 -366.33)" fill="#96d1bf"/>
        <path id="Path_1602" data-name="Path 1602" d="M2462.174,373.393a1.917,1.917,0,1,1-1.917,1.917A1.917,1.917,0,0,1,2462.174,373.393Z" transform="translate(-2392.538 -344.521)" fill="#96d1bf"/>
        <path id="Path_1603" data-name="Path 1603" d="M2462.174,341.579a1.917,1.917,0,1,1-1.917,1.917A1.917,1.917,0,0,1,2462.174,341.579Z" transform="translate(-2392.538 -322.711)" fill="#96d1bf"/>
        <circle id="Ellipse_198" data-name="Ellipse 198" cx="1.917" cy="1.917" r="1.917" transform="translate(67.719 8.864)" fill="#96d1bf"/>
        <path id="Path_1604" data-name="Path 1604" d="M2462.174,277.952a1.917,1.917,0,1,1-1.917,1.917A1.917,1.917,0,0,1,2462.174,277.952Z" transform="translate(-2392.538 -279.092)" fill="#96d1bf"/>
        <path id="Path_1605" data-name="Path 1605" d="M2493.987,659.714a1.917,1.917,0,1,1-1.917,1.917A1.917,1.917,0,0,1,2493.987,659.714Z" transform="translate(-2414.347 -540.807)" fill="#96d1bf"/>
        <path id="Path_1606" data-name="Path 1606" d="M2493.987,627.9a1.917,1.917,0,1,1-1.917,1.917A1.917,1.917,0,0,1,2493.987,627.9Z" transform="translate(-2414.347 -518.998)" fill="#96d1bf"/>
        <circle id="Ellipse_199" data-name="Ellipse 199" cx="1.917" cy="1.917" r="1.917" transform="translate(77.723 98.899)" fill="#96d1bf"/>
        <circle id="Ellipse_200" data-name="Ellipse 200" cx="1.917" cy="1.917" r="1.917" transform="translate(77.723 88.895)" fill="#96d1bf"/>
        <path id="Path_1607" data-name="Path 1607" d="M2493.987,532.46a1.917,1.917,0,1,1-1.917,1.917A1.917,1.917,0,0,1,2493.987,532.46Z" transform="translate(-2414.347 -453.569)" fill="#96d1bf"/>
        <path id="Path_1608" data-name="Path 1608" d="M2493.987,500.646a1.917,1.917,0,1,1-1.917,1.917A1.917,1.917,0,0,1,2493.987,500.646Z" transform="translate(-2414.347 -431.759)" fill="#96d1bf"/>
        <circle id="Ellipse_201" data-name="Ellipse 201" cx="1.917" cy="1.917" r="1.917" transform="translate(77.723 58.884)" fill="#96d1bf"/>
        <circle id="Ellipse_202" data-name="Ellipse 202" cx="1.917" cy="1.917" r="1.917" transform="translate(77.723 48.88)" fill="#96d1bf"/>
        <path id="Path_1609" data-name="Path 1609" d="M2493.987,405.206a1.917,1.917,0,1,1-1.917,1.917A1.917,1.917,0,0,1,2493.987,405.206Z" transform="translate(-2414.347 -366.33)" fill="#96d1bf"/>
        <path id="Path_1610" data-name="Path 1610" d="M2493.987,373.393a1.917,1.917,0,1,1-1.917,1.917A1.917,1.917,0,0,1,2493.987,373.393Z" transform="translate(-2414.347 -344.521)" fill="#96d1bf"/>
        <path id="Path_1611" data-name="Path 1611" d="M2493.987,341.579a1.917,1.917,0,1,1-1.917,1.917A1.917,1.917,0,0,1,2493.987,341.579Z" transform="translate(-2414.347 -322.711)" fill="#96d1bf"/>
        <circle id="Ellipse_203" data-name="Ellipse 203" cx="1.917" cy="1.917" r="1.917" transform="translate(77.723 8.864)" fill="#96d1bf"/>
        <path id="Path_1612" data-name="Path 1612" d="M2493.987,277.952a1.917,1.917,0,1,1-1.917,1.917A1.917,1.917,0,0,1,2493.987,277.952Z" transform="translate(-2414.347 -279.092)" fill="#96d1bf"/>
        <path id="Path_1613" data-name="Path 1613" d="M2525.8,659.714a1.917,1.917,0,1,1-1.917,1.917A1.917,1.917,0,0,1,2525.8,659.714Z" transform="translate(-2436.157 -540.807)" fill="#96d1bf"/>
        <path id="Path_1614" data-name="Path 1614" d="M2525.8,627.9a1.917,1.917,0,1,1-1.917,1.917A1.917,1.917,0,0,1,2525.8,627.9Z" transform="translate(-2436.157 -518.998)" fill="#96d1bf"/>
        <path id="Path_1615" data-name="Path 1615" d="M2525.8,596.087a1.917,1.917,0,1,1-1.917,1.917A1.917,1.917,0,0,1,2525.8,596.087Z" transform="translate(-2436.157 -497.188)" fill="#96d1bf"/>
        <path id="Path_1616" data-name="Path 1616" d="M2525.8,564.273a1.917,1.917,0,1,1-1.917,1.917A1.917,1.917,0,0,1,2525.8,564.273Z" transform="translate(-2436.157 -475.378)" fill="#96d1bf"/>
        <path id="Path_1617" data-name="Path 1617" d="M2525.8,532.46a1.917,1.917,0,1,1-1.917,1.917A1.917,1.917,0,0,1,2525.8,532.46Z" transform="translate(-2436.157 -453.569)" fill="#96d1bf"/>
        <path id="Path_1618" data-name="Path 1618" d="M2525.8,500.646a1.917,1.917,0,1,1-1.917,1.917A1.917,1.917,0,0,1,2525.8,500.646Z" transform="translate(-2436.157 -431.759)" fill="#96d1bf"/>
        <path id="Path_1619" data-name="Path 1619" d="M2525.8,468.833a1.917,1.917,0,1,1-1.917,1.917A1.917,1.917,0,0,1,2525.8,468.833Z" transform="translate(-2436.157 -409.949)" fill="#96d1bf"/>
        <path id="Path_1620" data-name="Path 1620" d="M2525.8,437.02a1.917,1.917,0,1,1-1.917,1.917A1.917,1.917,0,0,1,2525.8,437.02Z" transform="translate(-2436.157 -388.14)" fill="#96d1bf"/>
        <path id="Path_1621" data-name="Path 1621" d="M2525.8,405.206a1.917,1.917,0,1,1-1.917,1.917A1.917,1.917,0,0,1,2525.8,405.206Z" transform="translate(-2436.157 -366.33)" fill="#96d1bf"/>
        <path id="Path_1622" data-name="Path 1622" d="M2525.8,373.393a1.917,1.917,0,1,1-1.917,1.917A1.917,1.917,0,0,1,2525.8,373.393Z" transform="translate(-2436.157 -344.521)" fill="#96d1bf"/>
        <path id="Path_1623" data-name="Path 1623" d="M2525.8,341.579a1.917,1.917,0,1,1-1.917,1.917A1.917,1.917,0,0,1,2525.8,341.579Z" transform="translate(-2436.157 -322.711)" fill="#96d1bf"/>
        <path id="Path_1624" data-name="Path 1624" d="M2525.8,309.765a1.917,1.917,0,1,1-1.917,1.917A1.917,1.917,0,0,1,2525.8,309.765Z" transform="translate(-2436.157 -300.901)" fill="#96d1bf"/>
        <path id="Path_1625" data-name="Path 1625" d="M2525.8,277.952a1.917,1.917,0,1,1-1.917,1.917A1.917,1.917,0,0,1,2525.8,277.952Z" transform="translate(-2436.157 -279.092)" fill="#96d1bf"/>
        <path id="Path_1626" data-name="Path 1626" d="M2557.614,659.714a1.917,1.917,0,1,1-1.917,1.917A1.918,1.918,0,0,1,2557.614,659.714Z" transform="translate(-2457.966 -540.807)" fill="#96d1bf"/>
        <path id="Path_1627" data-name="Path 1627" d="M2557.614,627.9a1.917,1.917,0,1,1-1.917,1.917A1.917,1.917,0,0,1,2557.614,627.9Z" transform="translate(-2457.966 -518.998)" fill="#96d1bf"/>
        <path id="Path_1628" data-name="Path 1628" d="M2557.614,596.087A1.917,1.917,0,1,1,2555.7,598,1.918,1.918,0,0,1,2557.614,596.087Z" transform="translate(-2457.966 -497.188)" fill="#96d1bf"/>
        <path id="Path_1629" data-name="Path 1629" d="M2557.614,564.273a1.917,1.917,0,1,1-1.917,1.917A1.918,1.918,0,0,1,2557.614,564.273Z" transform="translate(-2457.966 -475.378)" fill="#96d1bf"/>
        <path id="Path_1630" data-name="Path 1630" d="M2557.614,532.46a1.917,1.917,0,1,1-1.917,1.917A1.918,1.918,0,0,1,2557.614,532.46Z" transform="translate(-2457.966 -453.569)" fill="#96d1bf"/>
        <path id="Path_1631" data-name="Path 1631" d="M2557.614,500.646a1.917,1.917,0,1,1-1.917,1.917A1.918,1.918,0,0,1,2557.614,500.646Z" transform="translate(-2457.966 -431.759)" fill="#96d1bf"/>
        <path id="Path_1632" data-name="Path 1632" d="M2557.614,468.833a1.917,1.917,0,1,1-1.917,1.917A1.918,1.918,0,0,1,2557.614,468.833Z" transform="translate(-2457.966 -409.949)" fill="#96d1bf"/>
        <path id="Path_1633" data-name="Path 1633" d="M2557.614,437.02a1.917,1.917,0,1,1-1.917,1.917A1.917,1.917,0,0,1,2557.614,437.02Z" transform="translate(-2457.966 -388.14)" fill="#96d1bf"/>
        <path id="Path_1634" data-name="Path 1634" d="M2557.614,405.206a1.917,1.917,0,1,1-1.917,1.917A1.917,1.917,0,0,1,2557.614,405.206Z" transform="translate(-2457.966 -366.33)" fill="#96d1bf"/>
        <path id="Path_1635" data-name="Path 1635" d="M2557.614,373.393a1.917,1.917,0,1,1-1.917,1.917A1.917,1.917,0,0,1,2557.614,373.393Z" transform="translate(-2457.966 -344.521)" fill="#96d1bf"/>
        <path id="Path_1636" data-name="Path 1636" d="M2557.614,341.579a1.917,1.917,0,1,1-1.917,1.917A1.918,1.918,0,0,1,2557.614,341.579Z" transform="translate(-2457.966 -322.711)" fill="#96d1bf"/>
        <path id="Path_1637" data-name="Path 1637" d="M2557.614,309.765a1.917,1.917,0,1,1-1.917,1.917A1.918,1.918,0,0,1,2557.614,309.765Z" transform="translate(-2457.966 -300.901)" fill="#96d1bf"/>
        <path id="Path_1638" data-name="Path 1638" d="M2557.614,277.952a1.917,1.917,0,1,1-1.917,1.917A1.917,1.917,0,0,1,2557.614,277.952Z" transform="translate(-2457.966 -279.092)" fill="#96d1bf"/>
        <path id="Path_1639" data-name="Path 1639" d="M2589.428,659.714a1.917,1.917,0,1,1-1.917,1.917A1.917,1.917,0,0,1,2589.428,659.714Z" transform="translate(-2479.776 -540.807)" fill="#96d1bf"/>
        <path id="Path_1640" data-name="Path 1640" d="M2589.428,627.9a1.917,1.917,0,1,1-1.917,1.917A1.917,1.917,0,0,1,2589.428,627.9Z" transform="translate(-2479.776 -518.998)" fill="#96d1bf"/>
        <path id="Path_1641" data-name="Path 1641" d="M2589.428,596.087a1.917,1.917,0,1,1-1.917,1.917A1.917,1.917,0,0,1,2589.428,596.087Z" transform="translate(-2479.776 -497.188)" fill="#96d1bf"/>
        <path id="Path_1642" data-name="Path 1642" d="M2589.428,564.273a1.917,1.917,0,1,1-1.917,1.917A1.917,1.917,0,0,1,2589.428,564.273Z" transform="translate(-2479.776 -475.378)" fill="#96d1bf"/>
        <path id="Path_1643" data-name="Path 1643" d="M2589.428,532.46a1.917,1.917,0,1,1-1.917,1.917A1.917,1.917,0,0,1,2589.428,532.46Z" transform="translate(-2479.776 -453.569)" fill="#96d1bf"/>
        <path id="Path_1644" data-name="Path 1644" d="M2589.428,500.646a1.917,1.917,0,1,1-1.917,1.917A1.917,1.917,0,0,1,2589.428,500.646Z" transform="translate(-2479.776 -431.759)" fill="#96d1bf"/>
        <path id="Path_1645" data-name="Path 1645" d="M2589.428,468.833a1.917,1.917,0,1,1-1.917,1.917A1.917,1.917,0,0,1,2589.428,468.833Z" transform="translate(-2479.776 -409.949)" fill="#96d1bf"/>
        <path id="Path_1646" data-name="Path 1646" d="M2589.428,437.02a1.917,1.917,0,1,1-1.917,1.917A1.917,1.917,0,0,1,2589.428,437.02Z" transform="translate(-2479.776 -388.14)" fill="#96d1bf"/>
        <path id="Path_1647" data-name="Path 1647" d="M2589.428,405.206a1.917,1.917,0,1,1-1.917,1.917A1.917,1.917,0,0,1,2589.428,405.206Z" transform="translate(-2479.776 -366.33)" fill="#96d1bf"/>
        <path id="Path_1648" data-name="Path 1648" d="M2589.428,373.393a1.917,1.917,0,1,1-1.917,1.917A1.917,1.917,0,0,1,2589.428,373.393Z" transform="translate(-2479.776 -344.521)" fill="#96d1bf"/>
        <path id="Path_1649" data-name="Path 1649" d="M2589.428,341.579a1.917,1.917,0,1,1-1.917,1.917A1.917,1.917,0,0,1,2589.428,341.579Z" transform="translate(-2479.776 -322.711)" fill="#96d1bf"/>
        <path id="Path_1650" data-name="Path 1650" d="M2589.428,309.765a1.917,1.917,0,1,1-1.917,1.917A1.917,1.917,0,0,1,2589.428,309.765Z" transform="translate(-2479.776 -300.901)" fill="#96d1bf"/>
        <path id="Path_1651" data-name="Path 1651" d="M2589.428,277.952a1.917,1.917,0,1,1-1.917,1.917A1.917,1.917,0,0,1,2589.428,277.952Z" transform="translate(-2479.776 -279.092)" fill="#96d1bf"/>
        <path id="Path_1652" data-name="Path 1652" d="M2621.242,659.714a1.917,1.917,0,1,1-1.917,1.917A1.917,1.917,0,0,1,2621.242,659.714Z" transform="translate(-2501.585 -540.807)" fill="#96d1bf"/>
        <path id="Path_1653" data-name="Path 1653" d="M2621.242,627.9a1.917,1.917,0,1,1-1.917,1.917A1.917,1.917,0,0,1,2621.242,627.9Z" transform="translate(-2501.585 -518.998)" fill="#96d1bf"/>
        <path id="Path_1654" data-name="Path 1654" d="M2621.242,596.087a1.917,1.917,0,1,1-1.917,1.917A1.917,1.917,0,0,1,2621.242,596.087Z" transform="translate(-2501.585 -497.188)" fill="#96d1bf"/>
        <path id="Path_1655" data-name="Path 1655" d="M2621.242,564.273a1.917,1.917,0,1,1-1.917,1.917A1.917,1.917,0,0,1,2621.242,564.273Z" transform="translate(-2501.585 -475.378)" fill="#96d1bf"/>
        <path id="Path_1656" data-name="Path 1656" d="M2621.242,532.46a1.917,1.917,0,1,1-1.917,1.917A1.917,1.917,0,0,1,2621.242,532.46Z" transform="translate(-2501.585 -453.569)" fill="#96d1bf"/>
        <path id="Path_1657" data-name="Path 1657" d="M2621.242,500.646a1.917,1.917,0,1,1-1.917,1.917A1.917,1.917,0,0,1,2621.242,500.646Z" transform="translate(-2501.585 -431.759)" fill="#96d1bf"/>
        <path id="Path_1658" data-name="Path 1658" d="M2621.242,468.833a1.917,1.917,0,1,1-1.917,1.917A1.917,1.917,0,0,1,2621.242,468.833Z" transform="translate(-2501.585 -409.949)" fill="#96d1bf"/>
        <path id="Path_1659" data-name="Path 1659" d="M2621.242,437.02a1.917,1.917,0,1,1-1.917,1.917A1.917,1.917,0,0,1,2621.242,437.02Z" transform="translate(-2501.585 -388.14)" fill="#96d1bf"/>
        <path id="Path_1660" data-name="Path 1660" d="M2621.242,405.206a1.917,1.917,0,1,1-1.917,1.917A1.917,1.917,0,0,1,2621.242,405.206Z" transform="translate(-2501.585 -366.33)" fill="#96d1bf"/>
        <path id="Path_1661" data-name="Path 1661" d="M2621.242,373.393a1.917,1.917,0,1,1-1.917,1.917A1.917,1.917,0,0,1,2621.242,373.393Z" transform="translate(-2501.585 -344.521)" fill="#96d1bf"/>
        <path id="Path_1662" data-name="Path 1662" d="M2621.242,341.579a1.917,1.917,0,1,1-1.917,1.917A1.917,1.917,0,0,1,2621.242,341.579Z" transform="translate(-2501.585 -322.711)" fill="#96d1bf"/>
        <path id="Path_1663" data-name="Path 1663" d="M2621.242,309.765a1.917,1.917,0,1,1-1.917,1.917A1.917,1.917,0,0,1,2621.242,309.765Z" transform="translate(-2501.585 -300.901)" fill="#96d1bf"/>
        <path id="Path_1664" data-name="Path 1664" d="M2621.242,277.952a1.917,1.917,0,1,1-1.917,1.917A1.917,1.917,0,0,1,2621.242,277.952Z" transform="translate(-2501.585 -279.092)" fill="#96d1bf"/>
      </g>
    </g>
  </g>
</svg>
