<svg xmlns="http://www.w3.org/2000/svg" xmlns:xlink="http://www.w3.org/1999/xlink" width="281.492" height="248.313" viewBox="0 0 281.492 248.313">
  <defs>
    <clipPath id="clip-path">
      <path id="Path_1254" data-name="Path 1254" d="M-83.772,2307.089c40.324-4.825,71.019,30.7,80.255,66.91a111.979,111.979,0,0,1,1.963,12.148,104.747,104.747,0,0,1-2.505,36.875,90.122,90.122,0,0,1-3.862,11.7c-11.35,35.516-50.033,58.642-86.527,48.3a77.171,77.171,0,0,1-13.09-2.625c-29.638-8.658-56.468-26.444-63.734-56.295-1.038-4.265-3.241-10.917-3.767-15.277-9.613-45.81,34.884-89.322,76.743-98.91A101.058,101.058,0,0,1-83.772,2307.089Z" transform="translate(176.362 -2306.647)" fill="none"/>
    </clipPath>
  </defs>
  <g id="Group_610" data-name="Group 610" transform="translate(-121.9 -1709.75)">
    <path id="Path_2055" data-name="Path 2055" d="M-83.347,2156.915c40.324-4.825,71.019,30.7,80.255,66.91a111.958,111.958,0,0,1,1.963,12.148,104.746,104.746,0,0,1-2.5,36.875,90.169,90.169,0,0,1-3.862,11.7c-11.35,35.516-50.033,58.641-86.527,48.3a77.148,77.148,0,0,1-13.09-2.625c-29.638-8.658-52.52-34.429-59.786-64.281a111.054,111.054,0,0,1-2.32-12.96c-9.614-45.811,29.489-83.652,71.349-93.241A101.006,101.006,0,0,1-83.347,2156.915Z" transform="translate(295.213 -446.723)" fill="#f7f3ee"/>
    <path id="Path_2054" data-name="Path 2054" d="M151.663,2287.995c40.324-4.824,71.018,30.7,80.255,66.91a111.975,111.975,0,0,1,1.963,12.148,104.757,104.757,0,0,1-2.505,36.875,90.235,90.235,0,0,1-3.861,11.7c-11.351,35.516-50.033,58.641-86.527,48.3a77.094,77.094,0,0,1-13.09-2.624c-29.638-8.659-52.521-34.43-59.787-64.281a111.05,111.05,0,0,1-2.32-12.96c-9.614-45.811,29.49-83.652,71.349-93.241A101.046,101.046,0,0,1,151.663,2287.995Z" transform="translate(168.898 -517.177)" fill="#96d1bf"/>
    <g id="Group_461" data-name="Group 461" transform="translate(121.9 1779.207)">
      <g id="Group_436" data-name="Group 436" clip-path="url(#clip-path)">
        <path id="Path_1133" data-name="Path 1133" d="M-180.881,2684.785a2.819,2.819,0,0,1,2.819,2.82,2.82,2.82,0,0,1-2.819,2.82,2.821,2.821,0,0,1-2.82-2.82A2.82,2.82,0,0,1-180.881,2684.785Z" transform="translate(180.307 -2509.892)" fill="#82c5de"/>
        <path id="Path_1134" data-name="Path 1134" d="M-180.881,2652.971a2.82,2.82,0,0,1,2.819,2.82,2.819,2.819,0,0,1-2.819,2.82,2.82,2.82,0,0,1-2.82-2.82A2.82,2.82,0,0,1-180.881,2652.971Z" transform="translate(180.307 -2492.792)" fill="#82c5de"/>
        <path id="Path_1135" data-name="Path 1135" d="M-180.881,2621.158a2.819,2.819,0,0,1,2.819,2.82,2.82,2.82,0,0,1-2.819,2.82,2.82,2.82,0,0,1-2.82-2.82A2.82,2.82,0,0,1-180.881,2621.158Z" transform="translate(180.307 -2475.693)" fill="#82c5de"/>
        <path id="Path_1136" data-name="Path 1136" d="M-180.881,2589.344a2.819,2.819,0,0,1,2.819,2.819,2.819,2.819,0,0,1-2.819,2.82,2.82,2.82,0,0,1-2.82-2.82A2.82,2.82,0,0,1-180.881,2589.344Z" transform="translate(180.307 -2458.594)" fill="#82c5de"/>
        <path id="Path_1137" data-name="Path 1137" d="M-180.881,2557.53a2.82,2.82,0,0,1,2.819,2.82,2.82,2.82,0,0,1-2.819,2.82,2.82,2.82,0,0,1-2.82-2.82A2.82,2.82,0,0,1-180.881,2557.53Z" transform="translate(180.307 -2441.494)" fill="#82c5de"/>
        <path id="Path_1138" data-name="Path 1138" d="M-180.881,2525.717a2.819,2.819,0,0,1,2.819,2.82,2.819,2.819,0,0,1-2.819,2.819,2.82,2.82,0,0,1-2.82-2.819A2.82,2.82,0,0,1-180.881,2525.717Z" transform="translate(180.307 -2424.395)" fill="#82c5de"/>
        <path id="Path_1139" data-name="Path 1139" d="M-180.881,2493.9a2.82,2.82,0,0,1,2.819,2.82,2.82,2.82,0,0,1-2.819,2.82,2.82,2.82,0,0,1-2.82-2.82A2.82,2.82,0,0,1-180.881,2493.9Z" transform="translate(180.307 -2407.295)" fill="#82c5de"/>
        <path id="Path_1140" data-name="Path 1140" d="M-180.881,2462.09a2.819,2.819,0,0,1,2.819,2.82,2.819,2.819,0,0,1-2.819,2.819,2.82,2.82,0,0,1-2.82-2.819A2.82,2.82,0,0,1-180.881,2462.09Z" transform="translate(180.307 -2390.196)" fill="#82c5de"/>
        <path id="Path_1141" data-name="Path 1141" d="M-180.881,2430.276a2.82,2.82,0,0,1,2.819,2.82,2.82,2.82,0,0,1-2.819,2.82,2.82,2.82,0,0,1-2.82-2.82A2.82,2.82,0,0,1-180.881,2430.276Z" transform="translate(180.307 -2373.096)" fill="#82c5de"/>
        <path id="Path_1142" data-name="Path 1142" d="M-180.881,2398.463a2.819,2.819,0,0,1,2.819,2.82,2.819,2.819,0,0,1-2.819,2.819,2.82,2.82,0,0,1-2.82-2.819A2.82,2.82,0,0,1-180.881,2398.463Z" transform="translate(180.307 -2355.997)" fill="#82c5de"/>
        <path id="Path_1143" data-name="Path 1143" d="M-180.881,2366.649a2.82,2.82,0,0,1,2.819,2.82,2.82,2.82,0,0,1-2.819,2.82,2.82,2.82,0,0,1-2.82-2.82A2.82,2.82,0,0,1-180.881,2366.649Z" transform="translate(180.307 -2338.898)" fill="#82c5de"/>
        <path id="Path_1144" data-name="Path 1144" d="M-180.881,2334.836a2.819,2.819,0,0,1,2.819,2.82,2.82,2.82,0,0,1-2.819,2.82,2.82,2.82,0,0,1-2.82-2.82A2.82,2.82,0,0,1-180.881,2334.836Z" transform="translate(180.307 -2321.798)" fill="#82c5de"/>
        <path id="Path_1145" data-name="Path 1145" d="M-180.881,2303.022a2.819,2.819,0,0,1,2.819,2.82,2.819,2.819,0,0,1-2.819,2.82,2.82,2.82,0,0,1-2.82-2.82A2.82,2.82,0,0,1-180.881,2303.022Z" transform="translate(180.307 -2304.699)" fill="#82c5de"/>
        <path id="Path_1146" data-name="Path 1146" d="M-149.068,2684.785a2.82,2.82,0,0,1,2.82,2.82,2.82,2.82,0,0,1-2.82,2.82,2.82,2.82,0,0,1-2.819-2.82A2.819,2.819,0,0,1-149.068,2684.785Z" transform="translate(163.207 -2509.892)" fill="#82c5de"/>
        <path id="Path_1147" data-name="Path 1147" d="M-149.068,2652.971a2.82,2.82,0,0,1,2.82,2.82,2.82,2.82,0,0,1-2.82,2.82,2.819,2.819,0,0,1-2.819-2.82A2.82,2.82,0,0,1-149.068,2652.971Z" transform="translate(163.207 -2492.792)" fill="#82c5de"/>
        <path id="Path_1148" data-name="Path 1148" d="M-149.068,2621.158a2.82,2.82,0,0,1,2.82,2.82,2.82,2.82,0,0,1-2.82,2.82,2.82,2.82,0,0,1-2.819-2.82A2.819,2.819,0,0,1-149.068,2621.158Z" transform="translate(163.207 -2475.693)" fill="#82c5de"/>
        <path id="Path_1149" data-name="Path 1149" d="M-149.068,2589.344a2.82,2.82,0,0,1,2.82,2.819,2.82,2.82,0,0,1-2.82,2.82,2.819,2.819,0,0,1-2.819-2.82A2.819,2.819,0,0,1-149.068,2589.344Z" transform="translate(163.207 -2458.594)" fill="#82c5de"/>
        <path id="Path_1150" data-name="Path 1150" d="M-149.068,2557.53a2.82,2.82,0,0,1,2.82,2.82,2.82,2.82,0,0,1-2.82,2.82,2.82,2.82,0,0,1-2.819-2.82A2.82,2.82,0,0,1-149.068,2557.53Z" transform="translate(163.207 -2441.494)" fill="#82c5de"/>
        <circle id="Ellipse_57" data-name="Ellipse 57" cx="2.82" cy="2.82" r="2.82" transform="translate(11.32 101.322)" fill="#82c5de"/>
        <circle id="Ellipse_58" data-name="Ellipse 58" cx="2.82" cy="2.82" r="2.82" transform="translate(11.32 86.608)" fill="#82c5de"/>
        <circle id="Ellipse_59" data-name="Ellipse 59" cx="2.82" cy="2.82" r="2.82" transform="translate(11.32 71.894)" fill="#82c5de"/>
        <path id="Path_1151" data-name="Path 1151" d="M-149.068,2430.276a2.82,2.82,0,0,1,2.82,2.82,2.82,2.82,0,0,1-2.82,2.82,2.82,2.82,0,0,1-2.819-2.82A2.82,2.82,0,0,1-149.068,2430.276Z" transform="translate(163.207 -2373.096)" fill="#82c5de"/>
        <circle id="Ellipse_60" data-name="Ellipse 60" cx="2.82" cy="2.82" r="2.82" transform="translate(11.32 42.466)" fill="#82c5de"/>
        <circle id="Ellipse_61" data-name="Ellipse 61" cx="2.82" cy="2.82" r="2.82" transform="translate(11.32 27.752)" fill="#82c5de"/>
        <circle id="Ellipse_62" data-name="Ellipse 62" cx="2.82" cy="2.82" r="2.82" transform="translate(11.32 13.037)" fill="#82c5de"/>
        <path id="Path_1152" data-name="Path 1152" d="M-149.068,2303.022a2.82,2.82,0,0,1,2.82,2.82,2.82,2.82,0,0,1-2.82,2.82,2.819,2.819,0,0,1-2.819-2.82A2.819,2.819,0,0,1-149.068,2303.022Z" transform="translate(163.207 -2304.699)" fill="#82c5de"/>
        <path id="Path_1153" data-name="Path 1153" d="M-117.254,2684.785a2.82,2.82,0,0,1,2.82,2.82,2.821,2.821,0,0,1-2.82,2.82,2.821,2.821,0,0,1-2.82-2.82A2.82,2.82,0,0,1-117.254,2684.785Z" transform="translate(146.108 -2509.892)" fill="#82c5de"/>
        <path id="Path_1154" data-name="Path 1154" d="M-117.254,2652.971a2.82,2.82,0,0,1,2.82,2.82,2.82,2.82,0,0,1-2.82,2.82,2.82,2.82,0,0,1-2.82-2.82A2.82,2.82,0,0,1-117.254,2652.971Z" transform="translate(146.108 -2492.792)" fill="#82c5de"/>
        <path id="Path_1155" data-name="Path 1155" d="M-117.254,2621.158a2.82,2.82,0,0,1,2.82,2.82,2.82,2.82,0,0,1-2.82,2.82,2.82,2.82,0,0,1-2.82-2.82A2.82,2.82,0,0,1-117.254,2621.158Z" transform="translate(146.108 -2475.693)" fill="#82c5de"/>
        <path id="Path_1156" data-name="Path 1156" d="M-117.254,2589.344a2.82,2.82,0,0,1,2.82,2.819,2.82,2.82,0,0,1-2.82,2.82,2.82,2.82,0,0,1-2.82-2.82A2.82,2.82,0,0,1-117.254,2589.344Z" transform="translate(146.108 -2458.594)" fill="#82c5de"/>
        <path id="Path_1157" data-name="Path 1157" d="M-117.254,2557.53a2.82,2.82,0,0,1,2.82,2.82,2.82,2.82,0,0,1-2.82,2.82,2.82,2.82,0,0,1-2.82-2.82A2.82,2.82,0,0,1-117.254,2557.53Z" transform="translate(146.108 -2441.494)" fill="#82c5de"/>
        <path id="Path_1158" data-name="Path 1158" d="M-117.254,2525.717a2.82,2.82,0,0,1,2.82,2.82,2.82,2.82,0,0,1-2.82,2.819,2.82,2.82,0,0,1-2.82-2.819A2.82,2.82,0,0,1-117.254,2525.717Z" transform="translate(146.108 -2424.395)" fill="#82c5de"/>
        <path id="Path_1159" data-name="Path 1159" d="M-117.254,2493.9a2.82,2.82,0,0,1,2.82,2.82,2.82,2.82,0,0,1-2.82,2.82,2.82,2.82,0,0,1-2.82-2.82A2.82,2.82,0,0,1-117.254,2493.9Z" transform="translate(146.108 -2407.295)" fill="#82c5de"/>
        <path id="Path_1160" data-name="Path 1160" d="M-117.254,2462.09a2.82,2.82,0,0,1,2.82,2.82,2.82,2.82,0,0,1-2.82,2.819,2.82,2.82,0,0,1-2.82-2.819A2.82,2.82,0,0,1-117.254,2462.09Z" transform="translate(146.108 -2390.196)" fill="#82c5de"/>
        <path id="Path_1161" data-name="Path 1161" d="M-117.254,2430.276a2.82,2.82,0,0,1,2.82,2.82,2.82,2.82,0,0,1-2.82,2.82,2.82,2.82,0,0,1-2.82-2.82A2.82,2.82,0,0,1-117.254,2430.276Z" transform="translate(146.108 -2373.096)" fill="#82c5de"/>
        <path id="Path_1162" data-name="Path 1162" d="M-117.254,2398.463a2.82,2.82,0,0,1,2.82,2.82,2.82,2.82,0,0,1-2.82,2.819,2.82,2.82,0,0,1-2.82-2.819A2.82,2.82,0,0,1-117.254,2398.463Z" transform="translate(146.108 -2355.997)" fill="#82c5de"/>
        <path id="Path_1163" data-name="Path 1163" d="M-117.254,2366.649a2.82,2.82,0,0,1,2.82,2.82,2.82,2.82,0,0,1-2.82,2.82,2.82,2.82,0,0,1-2.82-2.82A2.82,2.82,0,0,1-117.254,2366.649Z" transform="translate(146.108 -2338.898)" fill="#82c5de"/>
        <path id="Path_1164" data-name="Path 1164" d="M-117.254,2334.836a2.82,2.82,0,0,1,2.82,2.82,2.82,2.82,0,0,1-2.82,2.82,2.82,2.82,0,0,1-2.82-2.82A2.82,2.82,0,0,1-117.254,2334.836Z" transform="translate(146.108 -2321.798)" fill="#82c5de"/>
        <path id="Path_1165" data-name="Path 1165" d="M-117.254,2303.022a2.82,2.82,0,0,1,2.82,2.82,2.82,2.82,0,0,1-2.82,2.82,2.82,2.82,0,0,1-2.82-2.82A2.82,2.82,0,0,1-117.254,2303.022Z" transform="translate(146.108 -2304.699)" fill="#82c5de"/>
        <path id="Path_1166" data-name="Path 1166" d="M-85.441,2684.785a2.819,2.819,0,0,1,2.82,2.82,2.82,2.82,0,0,1-2.82,2.82,2.82,2.82,0,0,1-2.819-2.82A2.819,2.819,0,0,1-85.441,2684.785Z" transform="translate(129.008 -2509.892)" fill="#82c5de"/>
        <path id="Path_1167" data-name="Path 1167" d="M-85.441,2652.971a2.82,2.82,0,0,1,2.82,2.82,2.819,2.819,0,0,1-2.82,2.82,2.819,2.819,0,0,1-2.819-2.82A2.82,2.82,0,0,1-85.441,2652.971Z" transform="translate(129.008 -2492.792)" fill="#82c5de"/>
        <path id="Path_1168" data-name="Path 1168" d="M-85.441,2621.158a2.819,2.819,0,0,1,2.82,2.82,2.82,2.82,0,0,1-2.82,2.82,2.82,2.82,0,0,1-2.819-2.82A2.819,2.819,0,0,1-85.441,2621.158Z" transform="translate(129.008 -2475.693)" fill="#82c5de"/>
        <path id="Path_1169" data-name="Path 1169" d="M-85.441,2589.344a2.819,2.819,0,0,1,2.82,2.819,2.819,2.819,0,0,1-2.82,2.82,2.819,2.819,0,0,1-2.819-2.82A2.819,2.819,0,0,1-85.441,2589.344Z" transform="translate(129.008 -2458.594)" fill="#82c5de"/>
        <path id="Path_1170" data-name="Path 1170" d="M-85.441,2557.53a2.82,2.82,0,0,1,2.82,2.82,2.82,2.82,0,0,1-2.82,2.82,2.82,2.82,0,0,1-2.819-2.82A2.82,2.82,0,0,1-85.441,2557.53Z" transform="translate(129.008 -2441.494)" fill="#82c5de"/>
        <circle id="Ellipse_63" data-name="Ellipse 63" cx="2.82" cy="2.82" r="2.82" transform="translate(40.748 101.322)" fill="#82c5de"/>
        <circle id="Ellipse_64" data-name="Ellipse 64" cx="2.82" cy="2.82" r="2.82" transform="translate(40.748 86.608)" fill="#82c5de"/>
        <circle id="Ellipse_65" data-name="Ellipse 65" cx="2.82" cy="2.82" r="2.82" transform="translate(40.748 71.894)" fill="#82c5de"/>
        <path id="Path_1171" data-name="Path 1171" d="M-85.441,2430.276a2.82,2.82,0,0,1,2.82,2.82,2.82,2.82,0,0,1-2.82,2.82,2.82,2.82,0,0,1-2.819-2.82A2.82,2.82,0,0,1-85.441,2430.276Z" transform="translate(129.008 -2373.096)" fill="#82c5de"/>
        <circle id="Ellipse_66" data-name="Ellipse 66" cx="2.82" cy="2.82" r="2.82" transform="translate(40.748 42.466)" fill="#82c5de"/>
        <circle id="Ellipse_67" data-name="Ellipse 67" cx="2.82" cy="2.82" r="2.82" transform="translate(40.748 27.752)" fill="#82c5de"/>
        <circle id="Ellipse_68" data-name="Ellipse 68" cx="2.82" cy="2.82" r="2.82" transform="translate(40.748 13.037)" fill="#82c5de"/>
        <path id="Path_1172" data-name="Path 1172" d="M-85.441,2303.022a2.82,2.82,0,0,1,2.82,2.82,2.819,2.819,0,0,1-2.82,2.82,2.819,2.819,0,0,1-2.819-2.82A2.819,2.819,0,0,1-85.441,2303.022Z" transform="translate(129.008 -2304.699)" fill="#82c5de"/>
        <path id="Path_1173" data-name="Path 1173" d="M-53.627,2684.785a2.82,2.82,0,0,1,2.82,2.82,2.821,2.821,0,0,1-2.82,2.82,2.821,2.821,0,0,1-2.82-2.82A2.82,2.82,0,0,1-53.627,2684.785Z" transform="translate(111.909 -2509.892)" fill="#82c5de"/>
        <path id="Path_1174" data-name="Path 1174" d="M-53.627,2652.971a2.82,2.82,0,0,1,2.82,2.82,2.82,2.82,0,0,1-2.82,2.82,2.82,2.82,0,0,1-2.82-2.82A2.82,2.82,0,0,1-53.627,2652.971Z" transform="translate(111.909 -2492.792)" fill="#82c5de"/>
        <path id="Path_1175" data-name="Path 1175" d="M-53.627,2621.158a2.82,2.82,0,0,1,2.82,2.82,2.82,2.82,0,0,1-2.82,2.82,2.82,2.82,0,0,1-2.82-2.82A2.82,2.82,0,0,1-53.627,2621.158Z" transform="translate(111.909 -2475.693)" fill="#82c5de"/>
        <path id="Path_1176" data-name="Path 1176" d="M-53.627,2589.344a2.82,2.82,0,0,1,2.82,2.819,2.82,2.82,0,0,1-2.82,2.82,2.82,2.82,0,0,1-2.82-2.82A2.82,2.82,0,0,1-53.627,2589.344Z" transform="translate(111.909 -2458.594)" fill="#82c5de"/>
        <path id="Path_1177" data-name="Path 1177" d="M-53.627,2557.53a2.82,2.82,0,0,1,2.82,2.82,2.82,2.82,0,0,1-2.82,2.82,2.82,2.82,0,0,1-2.82-2.82A2.82,2.82,0,0,1-53.627,2557.53Z" transform="translate(111.909 -2441.494)" fill="#82c5de"/>
        <circle id="Ellipse_69" data-name="Ellipse 69" cx="2.82" cy="2.82" r="2.82" transform="translate(55.462 101.322)" fill="#82c5de"/>
        <circle id="Ellipse_70" data-name="Ellipse 70" cx="2.82" cy="2.82" r="2.82" transform="translate(55.462 86.608)" fill="#82c5de"/>
        <circle id="Ellipse_71" data-name="Ellipse 71" cx="2.82" cy="2.82" r="2.82" transform="translate(55.462 71.894)" fill="#82c5de"/>
        <path id="Path_1178" data-name="Path 1178" d="M-53.627,2430.276a2.82,2.82,0,0,1,2.82,2.82,2.82,2.82,0,0,1-2.82,2.82,2.82,2.82,0,0,1-2.82-2.82A2.82,2.82,0,0,1-53.627,2430.276Z" transform="translate(111.909 -2373.096)" fill="#82c5de"/>
        <circle id="Ellipse_72" data-name="Ellipse 72" cx="2.82" cy="2.82" r="2.82" transform="translate(55.462 42.466)" fill="#82c5de"/>
        <circle id="Ellipse_73" data-name="Ellipse 73" cx="2.82" cy="2.82" r="2.82" transform="translate(55.462 27.752)" fill="#82c5de"/>
        <circle id="Ellipse_74" data-name="Ellipse 74" cx="2.82" cy="2.82" r="2.82" transform="translate(55.462 13.037)" fill="#82c5de"/>
        <path id="Path_1179" data-name="Path 1179" d="M-53.627,2303.022a2.82,2.82,0,0,1,2.82,2.82,2.82,2.82,0,0,1-2.82,2.82,2.82,2.82,0,0,1-2.82-2.82A2.82,2.82,0,0,1-53.627,2303.022Z" transform="translate(111.909 -2304.699)" fill="#82c5de"/>
        <path id="Path_1180" data-name="Path 1180" d="M-21.813,2684.785a2.819,2.819,0,0,1,2.819,2.82,2.82,2.82,0,0,1-2.819,2.82,2.821,2.821,0,0,1-2.82-2.82A2.82,2.82,0,0,1-21.813,2684.785Z" transform="translate(94.809 -2509.892)" fill="#82c5de"/>
        <path id="Path_1181" data-name="Path 1181" d="M-21.813,2652.971a2.82,2.82,0,0,1,2.819,2.82,2.819,2.819,0,0,1-2.819,2.82,2.82,2.82,0,0,1-2.82-2.82A2.82,2.82,0,0,1-21.813,2652.971Z" transform="translate(94.809 -2492.792)" fill="#82c5de"/>
        <path id="Path_1182" data-name="Path 1182" d="M-21.813,2621.158a2.819,2.819,0,0,1,2.819,2.82,2.82,2.82,0,0,1-2.819,2.82,2.82,2.82,0,0,1-2.82-2.82A2.82,2.82,0,0,1-21.813,2621.158Z" transform="translate(94.809 -2475.693)" fill="#82c5de"/>
        <path id="Path_1183" data-name="Path 1183" d="M-21.813,2589.344a2.819,2.819,0,0,1,2.819,2.819,2.819,2.819,0,0,1-2.819,2.82,2.82,2.82,0,0,1-2.82-2.82A2.82,2.82,0,0,1-21.813,2589.344Z" transform="translate(94.809 -2458.594)" fill="#82c5de"/>
        <path id="Path_1184" data-name="Path 1184" d="M-21.813,2557.53a2.82,2.82,0,0,1,2.819,2.82,2.82,2.82,0,0,1-2.819,2.82,2.82,2.82,0,0,1-2.82-2.82A2.82,2.82,0,0,1-21.813,2557.53Z" transform="translate(94.809 -2441.494)" fill="#82c5de"/>
        <path id="Path_1185" data-name="Path 1185" d="M-21.813,2525.717a2.819,2.819,0,0,1,2.819,2.82,2.819,2.819,0,0,1-2.819,2.819,2.82,2.82,0,0,1-2.82-2.819A2.82,2.82,0,0,1-21.813,2525.717Z" transform="translate(94.809 -2424.395)" fill="#82c5de"/>
        <path id="Path_1186" data-name="Path 1186" d="M-21.813,2493.9a2.82,2.82,0,0,1,2.819,2.82,2.82,2.82,0,0,1-2.819,2.82,2.82,2.82,0,0,1-2.82-2.82A2.82,2.82,0,0,1-21.813,2493.9Z" transform="translate(94.809 -2407.295)" fill="#82c5de"/>
        <path id="Path_1187" data-name="Path 1187" d="M-21.813,2462.09a2.819,2.819,0,0,1,2.819,2.82,2.819,2.819,0,0,1-2.819,2.819,2.82,2.82,0,0,1-2.82-2.819A2.82,2.82,0,0,1-21.813,2462.09Z" transform="translate(94.809 -2390.196)" fill="#82c5de"/>
        <path id="Path_1188" data-name="Path 1188" d="M-21.813,2430.276a2.82,2.82,0,0,1,2.819,2.82,2.82,2.82,0,0,1-2.819,2.82,2.82,2.82,0,0,1-2.82-2.82A2.82,2.82,0,0,1-21.813,2430.276Z" transform="translate(94.809 -2373.096)" fill="#82c5de"/>
        <path id="Path_1189" data-name="Path 1189" d="M-21.813,2398.463a2.819,2.819,0,0,1,2.819,2.82,2.819,2.819,0,0,1-2.819,2.819,2.82,2.82,0,0,1-2.82-2.819A2.82,2.82,0,0,1-21.813,2398.463Z" transform="translate(94.809 -2355.997)" fill="#82c5de"/>
        <path id="Path_1190" data-name="Path 1190" d="M-21.813,2366.649a2.82,2.82,0,0,1,2.819,2.82,2.82,2.82,0,0,1-2.819,2.82,2.82,2.82,0,0,1-2.82-2.82A2.82,2.82,0,0,1-21.813,2366.649Z" transform="translate(94.809 -2338.898)" fill="#82c5de"/>
        <path id="Path_1191" data-name="Path 1191" d="M-21.813,2334.836a2.819,2.819,0,0,1,2.819,2.82,2.82,2.82,0,0,1-2.819,2.82,2.82,2.82,0,0,1-2.82-2.82A2.82,2.82,0,0,1-21.813,2334.836Z" transform="translate(94.809 -2321.798)" fill="#82c5de"/>
        <path id="Path_1192" data-name="Path 1192" d="M-21.813,2303.022a2.819,2.819,0,0,1,2.819,2.82,2.819,2.819,0,0,1-2.819,2.82,2.82,2.82,0,0,1-2.82-2.82A2.82,2.82,0,0,1-21.813,2303.022Z" transform="translate(94.809 -2304.699)" fill="#82c5de"/>
        <path id="Path_1193" data-name="Path 1193" d="M10,2684.785a2.82,2.82,0,1,1-2.819,2.82A2.82,2.82,0,0,1,10,2684.785Z" transform="translate(77.71 -2509.892)" fill="#82c5de"/>
        <path id="Path_1194" data-name="Path 1194" d="M10,2652.971a2.82,2.82,0,1,1-2.819,2.82A2.82,2.82,0,0,1,10,2652.971Z" transform="translate(77.71 -2492.792)" fill="#82c5de"/>
        <path id="Path_1195" data-name="Path 1195" d="M10,2621.158a2.82,2.82,0,1,1-2.819,2.82A2.82,2.82,0,0,1,10,2621.158Z" transform="translate(77.71 -2475.693)" fill="#82c5de"/>
        <path id="Path_1196" data-name="Path 1196" d="M10,2589.344a2.82,2.82,0,1,1-2.819,2.819A2.82,2.82,0,0,1,10,2589.344Z" transform="translate(77.71 -2458.594)" fill="#82c5de"/>
        <path id="Path_1197" data-name="Path 1197" d="M10,2557.53a2.82,2.82,0,1,1-2.819,2.82A2.82,2.82,0,0,1,10,2557.53Z" transform="translate(77.71 -2441.494)" fill="#82c5de"/>
        <path id="Path_1198" data-name="Path 1198" d="M10,2525.717a2.82,2.82,0,1,1-2.819,2.82A2.82,2.82,0,0,1,10,2525.717Z" transform="translate(77.71 -2424.395)" fill="#82c5de"/>
        <path id="Path_1199" data-name="Path 1199" d="M10,2493.9a2.82,2.82,0,1,1-2.819,2.82A2.82,2.82,0,0,1,10,2493.9Z" transform="translate(77.71 -2407.295)" fill="#82c5de"/>
        <path id="Path_1200" data-name="Path 1200" d="M10,2462.09a2.82,2.82,0,1,1-2.819,2.82A2.82,2.82,0,0,1,10,2462.09Z" transform="translate(77.71 -2390.196)" fill="#82c5de"/>
        <path id="Path_1201" data-name="Path 1201" d="M10,2430.276a2.82,2.82,0,1,1-2.819,2.82A2.82,2.82,0,0,1,10,2430.276Z" transform="translate(77.71 -2373.096)" fill="#82c5de"/>
        <path id="Path_1202" data-name="Path 1202" d="M10,2398.463a2.82,2.82,0,1,1-2.819,2.82A2.82,2.82,0,0,1,10,2398.463Z" transform="translate(77.71 -2355.997)" fill="#82c5de"/>
        <path id="Path_1203" data-name="Path 1203" d="M10,2366.649a2.82,2.82,0,1,1-2.819,2.82A2.82,2.82,0,0,1,10,2366.649Z" transform="translate(77.71 -2338.898)" fill="#82c5de"/>
        <path id="Path_1204" data-name="Path 1204" d="M10,2334.836a2.82,2.82,0,1,1-2.819,2.82A2.82,2.82,0,0,1,10,2334.836Z" transform="translate(77.71 -2321.798)" fill="#82c5de"/>
        <path id="Path_1205" data-name="Path 1205" d="M10,2303.022a2.82,2.82,0,1,1-2.819,2.82A2.82,2.82,0,0,1,10,2303.022Z" transform="translate(77.71 -2304.699)" fill="#82c5de"/>
        <path id="Path_1206" data-name="Path 1206" d="M41.814,2684.785a2.82,2.82,0,1,1-2.82,2.82A2.82,2.82,0,0,1,41.814,2684.785Z" transform="translate(60.611 -2509.892)" fill="#82c5de"/>
        <path id="Path_1207" data-name="Path 1207" d="M41.814,2652.971a2.82,2.82,0,1,1-2.82,2.82A2.82,2.82,0,0,1,41.814,2652.971Z" transform="translate(60.611 -2492.792)" fill="#82c5de"/>
        <path id="Path_1208" data-name="Path 1208" d="M41.814,2621.158a2.82,2.82,0,1,1-2.82,2.82A2.82,2.82,0,0,1,41.814,2621.158Z" transform="translate(60.611 -2475.693)" fill="#82c5de"/>
        <path id="Path_1209" data-name="Path 1209" d="M41.814,2589.344a2.82,2.82,0,1,1-2.82,2.819A2.82,2.82,0,0,1,41.814,2589.344Z" transform="translate(60.611 -2458.594)" fill="#82c5de"/>
        <path id="Path_1210" data-name="Path 1210" d="M41.814,2557.53a2.82,2.82,0,1,1-2.82,2.82A2.82,2.82,0,0,1,41.814,2557.53Z" transform="translate(60.611 -2441.494)" fill="#82c5de"/>
        <circle id="Ellipse_75" data-name="Ellipse 75" cx="2.82" cy="2.82" r="2.82" transform="translate(99.605 101.322)" fill="#82c5de"/>
        <circle id="Ellipse_76" data-name="Ellipse 76" cx="2.82" cy="2.82" r="2.82" transform="translate(99.605 86.608)" fill="#82c5de"/>
        <circle id="Ellipse_77" data-name="Ellipse 77" cx="2.82" cy="2.82" r="2.82" transform="translate(99.605 71.894)" fill="#82c5de"/>
        <path id="Path_1211" data-name="Path 1211" d="M41.814,2430.276a2.82,2.82,0,1,1-2.82,2.82A2.82,2.82,0,0,1,41.814,2430.276Z" transform="translate(60.611 -2373.096)" fill="#82c5de"/>
        <circle id="Ellipse_78" data-name="Ellipse 78" cx="2.82" cy="2.82" r="2.82" transform="translate(99.605 42.466)" fill="#82c5de"/>
        <circle id="Ellipse_79" data-name="Ellipse 79" cx="2.82" cy="2.82" r="2.82" transform="translate(99.605 27.752)" fill="#82c5de"/>
        <circle id="Ellipse_80" data-name="Ellipse 80" cx="2.82" cy="2.82" r="2.82" transform="translate(99.605 13.037)" fill="#82c5de"/>
        <path id="Path_1212" data-name="Path 1212" d="M41.814,2303.022a2.82,2.82,0,1,1-2.82,2.82A2.82,2.82,0,0,1,41.814,2303.022Z" transform="translate(60.611 -2304.699)" fill="#82c5de"/>
        <path id="Path_1213" data-name="Path 1213" d="M73.627,2684.785a2.82,2.82,0,1,1-2.819,2.82A2.82,2.82,0,0,1,73.627,2684.785Z" transform="translate(43.511 -2509.892)" fill="#82c5de"/>
        <path id="Path_1214" data-name="Path 1214" d="M73.627,2652.971a2.82,2.82,0,1,1-2.819,2.82A2.82,2.82,0,0,1,73.627,2652.971Z" transform="translate(43.511 -2492.792)" fill="#82c5de"/>
        <path id="Path_1215" data-name="Path 1215" d="M73.627,2621.158a2.82,2.82,0,1,1-2.819,2.82A2.82,2.82,0,0,1,73.627,2621.158Z" transform="translate(43.511 -2475.693)" fill="#82c5de"/>
        <path id="Path_1216" data-name="Path 1216" d="M73.627,2589.344a2.82,2.82,0,1,1-2.819,2.819A2.82,2.82,0,0,1,73.627,2589.344Z" transform="translate(43.511 -2458.594)" fill="#82c5de"/>
        <path id="Path_1217" data-name="Path 1217" d="M73.627,2557.53a2.82,2.82,0,1,1-2.819,2.82A2.82,2.82,0,0,1,73.627,2557.53Z" transform="translate(43.511 -2441.494)" fill="#82c5de"/>
        <circle id="Ellipse_81" data-name="Ellipse 81" cx="2.82" cy="2.82" r="2.82" transform="translate(114.319 101.322)" fill="#82c5de"/>
        <circle id="Ellipse_82" data-name="Ellipse 82" cx="2.82" cy="2.82" r="2.82" transform="translate(114.319 86.608)" fill="#82c5de"/>
        <circle id="Ellipse_83" data-name="Ellipse 83" cx="2.82" cy="2.82" r="2.82" transform="translate(114.319 71.894)" fill="#82c5de"/>
        <path id="Path_1218" data-name="Path 1218" d="M73.627,2430.276a2.82,2.82,0,1,1-2.819,2.82A2.82,2.82,0,0,1,73.627,2430.276Z" transform="translate(43.511 -2373.096)" fill="#82c5de"/>
        <circle id="Ellipse_84" data-name="Ellipse 84" cx="2.82" cy="2.82" r="2.82" transform="translate(114.319 42.466)" fill="#82c5de"/>
        <circle id="Ellipse_85" data-name="Ellipse 85" cx="2.82" cy="2.82" r="2.82" transform="translate(114.319 27.752)" fill="#82c5de"/>
        <circle id="Ellipse_86" data-name="Ellipse 86" cx="2.82" cy="2.82" r="2.82" transform="translate(114.319 13.037)" fill="#82c5de"/>
        <path id="Path_1219" data-name="Path 1219" d="M73.627,2303.022a2.82,2.82,0,1,1-2.819,2.82A2.82,2.82,0,0,1,73.627,2303.022Z" transform="translate(43.511 -2304.699)" fill="#82c5de"/>
        <path id="Path_1220" data-name="Path 1220" d="M105.441,2684.785a2.82,2.82,0,1,1-2.82,2.82A2.82,2.82,0,0,1,105.441,2684.785Z" transform="translate(26.412 -2509.892)" fill="#82c5de"/>
        <path id="Path_1221" data-name="Path 1221" d="M105.441,2652.971a2.82,2.82,0,1,1-2.82,2.82A2.82,2.82,0,0,1,105.441,2652.971Z" transform="translate(26.412 -2492.792)" fill="#82c5de"/>
        <path id="Path_1222" data-name="Path 1222" d="M105.441,2621.158a2.82,2.82,0,1,1-2.82,2.82A2.82,2.82,0,0,1,105.441,2621.158Z" transform="translate(26.412 -2475.693)" fill="#82c5de"/>
        <path id="Path_1223" data-name="Path 1223" d="M105.441,2589.344a2.82,2.82,0,1,1-2.82,2.819A2.82,2.82,0,0,1,105.441,2589.344Z" transform="translate(26.412 -2458.594)" fill="#82c5de"/>
        <path id="Path_1224" data-name="Path 1224" d="M105.441,2557.53a2.82,2.82,0,1,1-2.82,2.82A2.82,2.82,0,0,1,105.441,2557.53Z" transform="translate(26.412 -2441.494)" fill="#82c5de"/>
        <circle id="Ellipse_87" data-name="Ellipse 87" cx="2.82" cy="2.82" r="2.82" transform="translate(129.033 101.322)" fill="#82c5de"/>
        <circle id="Ellipse_88" data-name="Ellipse 88" cx="2.82" cy="2.82" r="2.82" transform="translate(129.033 86.608)" fill="#82c5de"/>
        <circle id="Ellipse_89" data-name="Ellipse 89" cx="2.82" cy="2.82" r="2.82" transform="translate(129.033 71.894)" fill="#82c5de"/>
        <path id="Path_1225" data-name="Path 1225" d="M105.441,2430.276a2.82,2.82,0,1,1-2.82,2.82A2.82,2.82,0,0,1,105.441,2430.276Z" transform="translate(26.412 -2373.096)" fill="#82c5de"/>
        <circle id="Ellipse_90" data-name="Ellipse 90" cx="2.82" cy="2.82" r="2.82" transform="translate(129.033 42.466)" fill="#82c5de"/>
        <circle id="Ellipse_91" data-name="Ellipse 91" cx="2.82" cy="2.82" r="2.82" transform="translate(129.033 27.752)" fill="#82c5de"/>
        <circle id="Ellipse_92" data-name="Ellipse 92" cx="2.82" cy="2.82" r="2.82" transform="translate(129.033 13.037)" fill="#82c5de"/>
        <path id="Path_1226" data-name="Path 1226" d="M105.441,2303.022a2.82,2.82,0,1,1-2.82,2.82A2.82,2.82,0,0,1,105.441,2303.022Z" transform="translate(26.412 -2304.699)" fill="#82c5de"/>
        <path id="Path_1227" data-name="Path 1227" d="M137.254,2684.785a2.82,2.82,0,1,1-2.819,2.82A2.82,2.82,0,0,1,137.254,2684.785Z" transform="translate(9.312 -2509.892)" fill="#82c5de"/>
        <path id="Path_1228" data-name="Path 1228" d="M137.254,2652.971a2.82,2.82,0,1,1-2.819,2.82A2.82,2.82,0,0,1,137.254,2652.971Z" transform="translate(9.312 -2492.792)" fill="#82c5de"/>
        <path id="Path_1229" data-name="Path 1229" d="M137.254,2621.158a2.82,2.82,0,1,1-2.819,2.82A2.82,2.82,0,0,1,137.254,2621.158Z" transform="translate(9.312 -2475.693)" fill="#82c5de"/>
        <path id="Path_1230" data-name="Path 1230" d="M137.254,2589.344a2.82,2.82,0,1,1-2.819,2.819A2.82,2.82,0,0,1,137.254,2589.344Z" transform="translate(9.312 -2458.594)" fill="#82c5de"/>
        <path id="Path_1231" data-name="Path 1231" d="M137.254,2557.53a2.82,2.82,0,1,1-2.819,2.82A2.82,2.82,0,0,1,137.254,2557.53Z" transform="translate(9.312 -2441.494)" fill="#82c5de"/>
        <path id="Path_1232" data-name="Path 1232" d="M137.254,2525.717a2.82,2.82,0,1,1-2.819,2.82A2.82,2.82,0,0,1,137.254,2525.717Z" transform="translate(9.312 -2424.395)" fill="#82c5de"/>
        <path id="Path_1233" data-name="Path 1233" d="M137.254,2493.9a2.82,2.82,0,1,1-2.819,2.82A2.82,2.82,0,0,1,137.254,2493.9Z" transform="translate(9.312 -2407.295)" fill="#82c5de"/>
        <path id="Path_1234" data-name="Path 1234" d="M137.254,2462.09a2.82,2.82,0,1,1-2.819,2.82A2.82,2.82,0,0,1,137.254,2462.09Z" transform="translate(9.312 -2390.196)" fill="#82c5de"/>
        <path id="Path_1235" data-name="Path 1235" d="M137.254,2430.276a2.82,2.82,0,1,1-2.819,2.82A2.82,2.82,0,0,1,137.254,2430.276Z" transform="translate(9.312 -2373.096)" fill="#82c5de"/>
        <path id="Path_1236" data-name="Path 1236" d="M137.254,2398.463a2.82,2.82,0,1,1-2.819,2.82A2.82,2.82,0,0,1,137.254,2398.463Z" transform="translate(9.312 -2355.997)" fill="#82c5de"/>
        <path id="Path_1237" data-name="Path 1237" d="M137.254,2366.649a2.82,2.82,0,1,1-2.819,2.82A2.82,2.82,0,0,1,137.254,2366.649Z" transform="translate(9.312 -2338.898)" fill="#82c5de"/>
        <path id="Path_1238" data-name="Path 1238" d="M137.254,2334.836a2.82,2.82,0,1,1-2.819,2.82A2.82,2.82,0,0,1,137.254,2334.836Z" transform="translate(9.312 -2321.798)" fill="#82c5de"/>
        <path id="Path_1239" data-name="Path 1239" d="M137.254,2303.022a2.82,2.82,0,1,1-2.819,2.82A2.82,2.82,0,0,1,137.254,2303.022Z" transform="translate(9.312 -2304.699)" fill="#82c5de"/>
        <path id="Path_1240" data-name="Path 1240" d="M169.068,2684.785a2.82,2.82,0,1,1-2.82,2.82A2.819,2.819,0,0,1,169.068,2684.785Z" transform="translate(-7.787 -2509.892)" fill="#82c5de"/>
        <path id="Path_1241" data-name="Path 1241" d="M169.068,2652.971a2.82,2.82,0,1,1-2.82,2.82A2.82,2.82,0,0,1,169.068,2652.971Z" transform="translate(-7.787 -2492.792)" fill="#82c5de"/>
        <path id="Path_1242" data-name="Path 1242" d="M169.068,2621.158a2.82,2.82,0,1,1-2.82,2.82A2.819,2.819,0,0,1,169.068,2621.158Z" transform="translate(-7.787 -2475.693)" fill="#82c5de"/>
        <path id="Path_1243" data-name="Path 1243" d="M169.068,2589.344a2.82,2.82,0,1,1-2.82,2.819A2.819,2.819,0,0,1,169.068,2589.344Z" transform="translate(-7.787 -2458.594)" fill="#82c5de"/>
        <path id="Path_1244" data-name="Path 1244" d="M169.068,2557.53a2.82,2.82,0,1,1-2.82,2.82A2.82,2.82,0,0,1,169.068,2557.53Z" transform="translate(-7.787 -2441.494)" fill="#82c5de"/>
        <circle id="Ellipse_93" data-name="Ellipse 93" cx="2.82" cy="2.82" r="2.82" transform="translate(158.461 101.322)" fill="#82c5de"/>
        <circle id="Ellipse_94" data-name="Ellipse 94" cx="2.82" cy="2.82" r="2.82" transform="translate(158.461 86.608)" fill="#82c5de"/>
        <circle id="Ellipse_95" data-name="Ellipse 95" cx="2.82" cy="2.82" r="2.82" transform="translate(158.461 71.894)" fill="#82c5de"/>
        <path id="Path_1245" data-name="Path 1245" d="M169.068,2430.276a2.82,2.82,0,1,1-2.82,2.82A2.82,2.82,0,0,1,169.068,2430.276Z" transform="translate(-7.787 -2373.096)" fill="#82c5de"/>
        <circle id="Ellipse_96" data-name="Ellipse 96" cx="2.82" cy="2.82" r="2.82" transform="translate(158.461 42.466)" fill="#82c5de"/>
        <circle id="Ellipse_97" data-name="Ellipse 97" cx="2.82" cy="2.82" r="2.82" transform="translate(158.461 27.752)" fill="#82c5de"/>
        <circle id="Ellipse_98" data-name="Ellipse 98" cx="2.82" cy="2.82" r="2.82" transform="translate(158.461 13.037)" fill="#82c5de"/>
        <path id="Path_1246" data-name="Path 1246" d="M169.068,2303.022a2.82,2.82,0,1,1-2.82,2.82A2.82,2.82,0,0,1,169.068,2303.022Z" transform="translate(-7.787 -2304.699)" fill="#82c5de"/>
        <path id="Path_1247" data-name="Path 1247" d="M200.881,2684.785a2.82,2.82,0,1,1-2.82,2.82A2.82,2.82,0,0,1,200.881,2684.785Z" transform="translate(-24.886 -2509.892)" fill="#82c5de"/>
        <path id="Path_1248" data-name="Path 1248" d="M200.881,2652.971a2.82,2.82,0,1,1-2.82,2.82A2.82,2.82,0,0,1,200.881,2652.971Z" transform="translate(-24.886 -2492.792)" fill="#82c5de"/>
        <path id="Path_1249" data-name="Path 1249" d="M200.881,2621.158a2.82,2.82,0,1,1-2.82,2.82A2.82,2.82,0,0,1,200.881,2621.158Z" transform="translate(-24.886 -2475.693)" fill="#82c5de"/>
        <path id="Path_1250" data-name="Path 1250" d="M200.881,2589.344a2.82,2.82,0,1,1-2.82,2.819A2.82,2.82,0,0,1,200.881,2589.344Z" transform="translate(-24.886 -2458.594)" fill="#82c5de"/>
        <path id="Path_1251" data-name="Path 1251" d="M200.881,2557.53a2.82,2.82,0,1,1-2.82,2.82A2.82,2.82,0,0,1,200.881,2557.53Z" transform="translate(-24.886 -2441.494)" fill="#82c5de"/>
        <circle id="Ellipse_99" data-name="Ellipse 99" cx="2.82" cy="2.82" r="2.82" transform="translate(173.175 101.322)" fill="#82c5de"/>
        <circle id="Ellipse_100" data-name="Ellipse 100" cx="2.82" cy="2.82" r="2.82" transform="translate(173.175 86.608)" fill="#82c5de"/>
        <circle id="Ellipse_101" data-name="Ellipse 101" cx="2.82" cy="2.82" r="2.82" transform="translate(173.175 71.894)" fill="#82c5de"/>
        <path id="Path_1252" data-name="Path 1252" d="M200.881,2430.276a2.82,2.82,0,1,1-2.82,2.82A2.82,2.82,0,0,1,200.881,2430.276Z" transform="translate(-24.886 -2373.096)" fill="#82c5de"/>
        <circle id="Ellipse_102" data-name="Ellipse 102" cx="2.82" cy="2.82" r="2.82" transform="translate(173.175 42.466)" fill="#82c5de"/>
        <circle id="Ellipse_103" data-name="Ellipse 103" cx="2.82" cy="2.82" r="2.82" transform="translate(173.175 27.752)" fill="#82c5de"/>
        <circle id="Ellipse_104" data-name="Ellipse 104" cx="2.82" cy="2.82" r="2.82" transform="translate(173.175 13.037)" fill="#82c5de"/>
        <path id="Path_1253" data-name="Path 1253" d="M200.881,2303.022a2.82,2.82,0,1,1-2.82,2.82A2.82,2.82,0,0,1,200.881,2303.022Z" transform="translate(-24.886 -2304.699)" fill="#82c5de"/>
      </g>
    </g>
  </g>
</svg>
