<svg xmlns="http://www.w3.org/2000/svg" xmlns:xlink="http://www.w3.org/1999/xlink" width="263.596" height="268.785" viewBox="0 0 263.596 268.785">
  <defs>
    <clipPath id="clip-path">
      <path id="Path_1805" data-name="Path 1805" d="M1606.406,1623.561c46-5.5,81.019,35.027,91.555,76.331a127.642,127.642,0,0,1,2.24,13.859,119.511,119.511,0,0,1-2.858,42.068,102.943,102.943,0,0,1-4.405,13.35c-12.949,40.517-57.078,66.9-98.71,55.1a88.035,88.035,0,0,1-14.933-2.994c-33.811-9.877-64.419-30.167-72.708-64.222-1.184-4.865-3.7-12.454-4.3-17.428-10.968-52.261,39.8-101.9,87.549-112.838A115.208,115.208,0,0,1,1606.406,1623.561Z" transform="translate(-1500.779 -1623.057)" fill="none"/>
    </clipPath>
  </defs>
  <g id="Group_609" data-name="Group 609" transform="translate(-1622.822 -1570.3)">
    <path id="Path_2056" data-name="Path 2056" d="M1732.064,1746.266c46-5.5,81.018,35.028,91.555,76.332a127.449,127.449,0,0,1,2.24,13.859,119.486,119.486,0,0,1-2.858,42.067,102.985,102.985,0,0,1-4.405,13.35c-12.949,40.517-57.078,66.9-98.711,55.1a87.993,87.993,0,0,1-14.933-2.994c-33.811-9.877-59.916-39.278-68.206-73.333a126.594,126.594,0,0,1-2.646-14.786c-10.968-52.261,33.642-95.431,81.4-106.37A115.187,115.187,0,0,1,1732.064,1746.266Z" transform="translate(59.86 -110.719)" fill="#f7f3ee"/>
    <g id="Group_462" data-name="Group 462" transform="translate(1622.822 1570.3)">
      <g id="Group_444" data-name="Group 444" transform="translate(0 0)" clip-path="url(#clip-path)">
        <path id="Path_1666" data-name="Path 1666" d="M1496.656,2001.194a3.217,3.217,0,1,1-3.217,3.217A3.217,3.217,0,0,1,1496.656,2001.194Z" transform="translate(-1497.312 -1801.675)" fill="#82c5de"/>
        <path id="Path_1667" data-name="Path 1667" d="M1496.656,1969.381a3.217,3.217,0,1,1-3.217,3.217A3.217,3.217,0,0,1,1496.656,1969.381Z" transform="translate(-1497.312 -1786.648)" fill="#82c5de"/>
        <path id="Path_1668" data-name="Path 1668" d="M1496.656,1937.567a3.217,3.217,0,1,1-3.217,3.217A3.217,3.217,0,0,1,1496.656,1937.567Z" transform="translate(-1497.312 -1771.62)" fill="#82c5de"/>
        <path id="Path_1669" data-name="Path 1669" d="M1496.656,1905.754a3.217,3.217,0,1,1-3.217,3.217A3.217,3.217,0,0,1,1496.656,1905.754Z" transform="translate(-1497.312 -1756.593)" fill="#82c5de"/>
        <path id="Path_1670" data-name="Path 1670" d="M1496.656,1873.94a3.217,3.217,0,1,1-3.217,3.217A3.217,3.217,0,0,1,1496.656,1873.94Z" transform="translate(-1497.312 -1741.565)" fill="#82c5de"/>
        <path id="Path_1671" data-name="Path 1671" d="M1496.656,1842.127a3.217,3.217,0,1,1-3.217,3.217A3.217,3.217,0,0,1,1496.656,1842.127Z" transform="translate(-1497.312 -1726.538)" fill="#82c5de"/>
        <path id="Path_1672" data-name="Path 1672" d="M1496.656,1810.314a3.217,3.217,0,1,1-3.217,3.217A3.217,3.217,0,0,1,1496.656,1810.314Z" transform="translate(-1497.312 -1711.51)" fill="#82c5de"/>
        <path id="Path_1673" data-name="Path 1673" d="M1496.656,1778.5a3.217,3.217,0,1,1-3.217,3.217A3.217,3.217,0,0,1,1496.656,1778.5Z" transform="translate(-1497.312 -1696.483)" fill="#82c5de"/>
        <path id="Path_1674" data-name="Path 1674" d="M1496.656,1746.686a3.217,3.217,0,1,1-3.217,3.217A3.217,3.217,0,0,1,1496.656,1746.686Z" transform="translate(-1497.312 -1681.455)" fill="#82c5de"/>
        <path id="Path_1675" data-name="Path 1675" d="M1496.656,1714.873a3.217,3.217,0,1,1-3.217,3.217A3.217,3.217,0,0,1,1496.656,1714.873Z" transform="translate(-1497.312 -1666.428)" fill="#82c5de"/>
        <path id="Path_1676" data-name="Path 1676" d="M1496.656,1683.059a3.217,3.217,0,1,1-3.217,3.217A3.217,3.217,0,0,1,1496.656,1683.059Z" transform="translate(-1497.312 -1651.4)" fill="#82c5de"/>
        <path id="Path_1677" data-name="Path 1677" d="M1496.656,1651.246a3.217,3.217,0,1,1-3.217,3.217A3.217,3.217,0,0,1,1496.656,1651.246Z" transform="translate(-1497.312 -1636.373)" fill="#82c5de"/>
        <path id="Path_1678" data-name="Path 1678" d="M1496.656,1619.432a3.217,3.217,0,1,1-3.217,3.217A3.217,3.217,0,0,1,1496.656,1619.432Z" transform="translate(-1497.312 -1621.345)" fill="#82c5de"/>
        <path id="Path_1679" data-name="Path 1679" d="M1528.47,2001.194a3.217,3.217,0,1,1-3.217,3.217A3.217,3.217,0,0,1,1528.47,2001.194Z" transform="translate(-1512.339 -1801.675)" fill="#82c5de"/>
        <path id="Path_1680" data-name="Path 1680" d="M1528.47,1969.381a3.217,3.217,0,1,1-3.217,3.217A3.216,3.216,0,0,1,1528.47,1969.381Z" transform="translate(-1512.339 -1786.648)" fill="#82c5de"/>
        <path id="Path_1681" data-name="Path 1681" d="M1528.47,1937.567a3.217,3.217,0,1,1-3.217,3.217A3.217,3.217,0,0,1,1528.47,1937.567Z" transform="translate(-1512.339 -1771.62)" fill="#82c5de"/>
        <circle id="Ellipse_204" data-name="Ellipse 204" cx="3.217" cy="3.217" r="3.217" transform="translate(12.914 149.161)" fill="#82c5de"/>
        <circle id="Ellipse_205" data-name="Ellipse 205" cx="3.217" cy="3.217" r="3.217" transform="translate(12.914 132.375)" fill="#82c5de"/>
        <path id="Path_1682" data-name="Path 1682" d="M1528.47,1842.127a3.217,3.217,0,1,1-3.217,3.217A3.216,3.216,0,0,1,1528.47,1842.127Z" transform="translate(-1512.339 -1726.538)" fill="#82c5de"/>
        <path id="Path_1683" data-name="Path 1683" d="M1528.47,1810.314a3.217,3.217,0,1,1-3.217,3.217A3.216,3.216,0,0,1,1528.47,1810.314Z" transform="translate(-1512.339 -1711.51)" fill="#82c5de"/>
        <circle id="Ellipse_206" data-name="Ellipse 206" cx="3.217" cy="3.217" r="3.217" transform="translate(12.914 82.017)" fill="#82c5de"/>
        <circle id="Ellipse_207" data-name="Ellipse 207" cx="3.217" cy="3.217" r="3.217" transform="translate(12.914 65.231)" fill="#82c5de"/>
        <circle id="Ellipse_208" data-name="Ellipse 208" cx="3.217" cy="3.217" r="3.217" transform="translate(12.914 48.445)" fill="#82c5de"/>
        <path id="Path_1684" data-name="Path 1684" d="M1528.47,1683.059a3.217,3.217,0,1,1-3.217,3.217A3.217,3.217,0,0,1,1528.47,1683.059Z" transform="translate(-1512.339 -1651.4)" fill="#82c5de"/>
        <path id="Path_1685" data-name="Path 1685" d="M1528.47,1651.246a3.217,3.217,0,1,1-3.217,3.217A3.217,3.217,0,0,1,1528.47,1651.246Z" transform="translate(-1512.339 -1636.373)" fill="#82c5de"/>
        <path id="Path_1686" data-name="Path 1686" d="M1528.47,1619.432a3.217,3.217,0,1,1-3.217,3.217A3.217,3.217,0,0,1,1528.47,1619.432Z" transform="translate(-1512.339 -1621.345)" fill="#82c5de"/>
        <path id="Path_1687" data-name="Path 1687" d="M1560.283,2001.194a3.217,3.217,0,1,1-3.217,3.217A3.217,3.217,0,0,1,1560.283,2001.194Z" transform="translate(-1527.367 -1801.675)" fill="#82c5de"/>
        <path id="Path_1688" data-name="Path 1688" d="M1560.283,1969.381a3.217,3.217,0,1,1-3.217,3.217A3.217,3.217,0,0,1,1560.283,1969.381Z" transform="translate(-1527.367 -1786.648)" fill="#82c5de"/>
        <path id="Path_1689" data-name="Path 1689" d="M1560.283,1937.567a3.217,3.217,0,1,1-3.217,3.217A3.217,3.217,0,0,1,1560.283,1937.567Z" transform="translate(-1527.367 -1771.62)" fill="#82c5de"/>
        <circle id="Ellipse_209" data-name="Ellipse 209" cx="3.217" cy="3.217" r="3.217" transform="translate(29.7 149.161)" fill="#82c5de"/>
        <circle id="Ellipse_210" data-name="Ellipse 210" cx="3.217" cy="3.217" r="3.217" transform="translate(29.7 132.375)" fill="#82c5de"/>
        <path id="Path_1690" data-name="Path 1690" d="M1560.283,1842.127a3.217,3.217,0,1,1-3.217,3.217A3.217,3.217,0,0,1,1560.283,1842.127Z" transform="translate(-1527.367 -1726.538)" fill="#82c5de"/>
        <path id="Path_1691" data-name="Path 1691" d="M1560.283,1810.314a3.217,3.217,0,1,1-3.217,3.217A3.217,3.217,0,0,1,1560.283,1810.314Z" transform="translate(-1527.367 -1711.51)" fill="#82c5de"/>
        <circle id="Ellipse_211" data-name="Ellipse 211" cx="3.217" cy="3.217" r="3.217" transform="translate(29.7 82.017)" fill="#82c5de"/>
        <circle id="Ellipse_212" data-name="Ellipse 212" cx="3.217" cy="3.217" r="3.217" transform="translate(29.7 65.231)" fill="#82c5de"/>
        <circle id="Ellipse_213" data-name="Ellipse 213" cx="3.217" cy="3.217" r="3.217" transform="translate(29.7 48.445)" fill="#82c5de"/>
        <path id="Path_1692" data-name="Path 1692" d="M1560.283,1683.059a3.217,3.217,0,1,1-3.217,3.217A3.217,3.217,0,0,1,1560.283,1683.059Z" transform="translate(-1527.367 -1651.4)" fill="#82c5de"/>
        <path id="Path_1693" data-name="Path 1693" d="M1560.283,1651.246a3.217,3.217,0,1,1-3.217,3.217A3.217,3.217,0,0,1,1560.283,1651.246Z" transform="translate(-1527.367 -1636.373)" fill="#82c5de"/>
        <path id="Path_1694" data-name="Path 1694" d="M1560.283,1619.432a3.217,3.217,0,1,1-3.217,3.217A3.217,3.217,0,0,1,1560.283,1619.432Z" transform="translate(-1527.367 -1621.345)" fill="#82c5de"/>
        <path id="Path_1695" data-name="Path 1695" d="M1592.1,2001.194a3.217,3.217,0,1,1-3.216,3.217A3.217,3.217,0,0,1,1592.1,2001.194Z" transform="translate(-1542.395 -1801.675)" fill="#82c5de"/>
        <path id="Path_1696" data-name="Path 1696" d="M1592.1,1969.381a3.217,3.217,0,1,1-3.216,3.217A3.216,3.216,0,0,1,1592.1,1969.381Z" transform="translate(-1542.395 -1786.648)" fill="#82c5de"/>
        <path id="Path_1697" data-name="Path 1697" d="M1592.1,1937.567a3.217,3.217,0,1,1-3.216,3.217A3.217,3.217,0,0,1,1592.1,1937.567Z" transform="translate(-1542.395 -1771.62)" fill="#82c5de"/>
        <path id="Path_1698" data-name="Path 1698" d="M1592.1,1905.754a3.217,3.217,0,1,1-3.216,3.217A3.216,3.216,0,0,1,1592.1,1905.754Z" transform="translate(-1542.395 -1756.593)" fill="#82c5de"/>
        <path id="Path_1699" data-name="Path 1699" d="M1592.1,1873.94a3.217,3.217,0,1,1-3.216,3.217A3.217,3.217,0,0,1,1592.1,1873.94Z" transform="translate(-1542.395 -1741.565)" fill="#82c5de"/>
        <path id="Path_1700" data-name="Path 1700" d="M1592.1,1842.127a3.217,3.217,0,1,1-3.216,3.217A3.216,3.216,0,0,1,1592.1,1842.127Z" transform="translate(-1542.395 -1726.538)" fill="#82c5de"/>
        <path id="Path_1701" data-name="Path 1701" d="M1592.1,1810.314a3.217,3.217,0,1,1-3.216,3.217A3.216,3.216,0,0,1,1592.1,1810.314Z" transform="translate(-1542.395 -1711.51)" fill="#82c5de"/>
        <path id="Path_1702" data-name="Path 1702" d="M1592.1,1778.5a3.217,3.217,0,1,1-3.216,3.217A3.216,3.216,0,0,1,1592.1,1778.5Z" transform="translate(-1542.395 -1696.483)" fill="#82c5de"/>
        <path id="Path_1703" data-name="Path 1703" d="M1592.1,1746.686a3.217,3.217,0,1,1-3.216,3.217A3.217,3.217,0,0,1,1592.1,1746.686Z" transform="translate(-1542.395 -1681.455)" fill="#82c5de"/>
        <path id="Path_1704" data-name="Path 1704" d="M1592.1,1714.873a3.217,3.217,0,1,1-3.216,3.217A3.217,3.217,0,0,1,1592.1,1714.873Z" transform="translate(-1542.395 -1666.428)" fill="#82c5de"/>
        <path id="Path_1705" data-name="Path 1705" d="M1592.1,1683.059a3.217,3.217,0,1,1-3.216,3.217A3.217,3.217,0,0,1,1592.1,1683.059Z" transform="translate(-1542.395 -1651.4)" fill="#82c5de"/>
        <path id="Path_1706" data-name="Path 1706" d="M1592.1,1651.246a3.217,3.217,0,1,1-3.216,3.217A3.217,3.217,0,0,1,1592.1,1651.246Z" transform="translate(-1542.395 -1636.373)" fill="#82c5de"/>
        <path id="Path_1707" data-name="Path 1707" d="M1592.1,1619.432a3.217,3.217,0,1,1-3.216,3.217A3.217,3.217,0,0,1,1592.1,1619.432Z" transform="translate(-1542.395 -1621.345)" fill="#82c5de"/>
        <path id="Path_1708" data-name="Path 1708" d="M1623.91,2001.194a3.217,3.217,0,1,1-3.217,3.217A3.217,3.217,0,0,1,1623.91,2001.194Z" transform="translate(-1557.422 -1801.675)" fill="#82c5de"/>
        <path id="Path_1709" data-name="Path 1709" d="M1623.91,1969.381a3.217,3.217,0,1,1-3.217,3.217A3.217,3.217,0,0,1,1623.91,1969.381Z" transform="translate(-1557.422 -1786.648)" fill="#82c5de"/>
        <path id="Path_1710" data-name="Path 1710" d="M1623.91,1937.567a3.217,3.217,0,1,1-3.217,3.217A3.217,3.217,0,0,1,1623.91,1937.567Z" transform="translate(-1557.422 -1771.62)" fill="#82c5de"/>
        <path id="Path_1711" data-name="Path 1711" d="M1623.91,1905.754a3.217,3.217,0,1,1-3.217,3.217A3.217,3.217,0,0,1,1623.91,1905.754Z" transform="translate(-1557.422 -1756.593)" fill="#82c5de"/>
        <path id="Path_1712" data-name="Path 1712" d="M1623.91,1873.94a3.217,3.217,0,1,1-3.217,3.217A3.217,3.217,0,0,1,1623.91,1873.94Z" transform="translate(-1557.422 -1741.565)" fill="#82c5de"/>
        <path id="Path_1713" data-name="Path 1713" d="M1623.91,1842.127a3.217,3.217,0,1,1-3.217,3.217A3.217,3.217,0,0,1,1623.91,1842.127Z" transform="translate(-1557.422 -1726.538)" fill="#82c5de"/>
        <path id="Path_1714" data-name="Path 1714" d="M1623.91,1810.314a3.217,3.217,0,1,1-3.217,3.217A3.217,3.217,0,0,1,1623.91,1810.314Z" transform="translate(-1557.422 -1711.51)" fill="#82c5de"/>
        <path id="Path_1715" data-name="Path 1715" d="M1623.91,1778.5a3.217,3.217,0,1,1-3.217,3.217A3.217,3.217,0,0,1,1623.91,1778.5Z" transform="translate(-1557.422 -1696.483)" fill="#82c5de"/>
        <path id="Path_1716" data-name="Path 1716" d="M1623.91,1746.686a3.217,3.217,0,1,1-3.217,3.217A3.217,3.217,0,0,1,1623.91,1746.686Z" transform="translate(-1557.422 -1681.455)" fill="#82c5de"/>
        <path id="Path_1717" data-name="Path 1717" d="M1623.91,1714.873a3.217,3.217,0,1,1-3.217,3.217A3.217,3.217,0,0,1,1623.91,1714.873Z" transform="translate(-1557.422 -1666.428)" fill="#82c5de"/>
        <path id="Path_1718" data-name="Path 1718" d="M1623.91,1683.059a3.217,3.217,0,1,1-3.217,3.217A3.217,3.217,0,0,1,1623.91,1683.059Z" transform="translate(-1557.422 -1651.4)" fill="#82c5de"/>
        <path id="Path_1719" data-name="Path 1719" d="M1623.91,1651.246a3.217,3.217,0,1,1-3.217,3.217A3.217,3.217,0,0,1,1623.91,1651.246Z" transform="translate(-1557.422 -1636.373)" fill="#82c5de"/>
        <path id="Path_1720" data-name="Path 1720" d="M1623.91,1619.432a3.217,3.217,0,1,1-3.217,3.217A3.217,3.217,0,0,1,1623.91,1619.432Z" transform="translate(-1557.422 -1621.345)" fill="#82c5de"/>
        <path id="Path_1721" data-name="Path 1721" d="M1655.724,2001.194a3.217,3.217,0,1,1-3.216,3.217A3.217,3.217,0,0,1,1655.724,2001.194Z" transform="translate(-1572.45 -1801.675)" fill="#82c5de"/>
        <path id="Path_1722" data-name="Path 1722" d="M1655.724,1969.381a3.217,3.217,0,1,1-3.216,3.217A3.217,3.217,0,0,1,1655.724,1969.381Z" transform="translate(-1572.45 -1786.648)" fill="#82c5de"/>
        <path id="Path_1723" data-name="Path 1723" d="M1655.724,1937.567a3.217,3.217,0,1,1-3.216,3.217A3.217,3.217,0,0,1,1655.724,1937.567Z" transform="translate(-1572.45 -1771.62)" fill="#82c5de"/>
        <path id="Path_1724" data-name="Path 1724" d="M1655.724,1905.754a3.217,3.217,0,1,1-3.216,3.217A3.217,3.217,0,0,1,1655.724,1905.754Z" transform="translate(-1572.45 -1756.593)" fill="#82c5de"/>
        <path id="Path_1725" data-name="Path 1725" d="M1655.724,1873.94a3.217,3.217,0,1,1-3.216,3.217A3.217,3.217,0,0,1,1655.724,1873.94Z" transform="translate(-1572.45 -1741.565)" fill="#82c5de"/>
        <path id="Path_1726" data-name="Path 1726" d="M1655.724,1842.127a3.217,3.217,0,1,1-3.216,3.217A3.217,3.217,0,0,1,1655.724,1842.127Z" transform="translate(-1572.45 -1726.538)" fill="#82c5de"/>
        <path id="Path_1727" data-name="Path 1727" d="M1655.724,1810.314a3.217,3.217,0,1,1-3.216,3.217A3.217,3.217,0,0,1,1655.724,1810.314Z" transform="translate(-1572.45 -1711.51)" fill="#82c5de"/>
        <path id="Path_1728" data-name="Path 1728" d="M1655.724,1778.5a3.217,3.217,0,1,1-3.216,3.217A3.217,3.217,0,0,1,1655.724,1778.5Z" transform="translate(-1572.45 -1696.483)" fill="#82c5de"/>
        <path id="Path_1729" data-name="Path 1729" d="M1655.724,1746.686a3.217,3.217,0,1,1-3.216,3.217A3.217,3.217,0,0,1,1655.724,1746.686Z" transform="translate(-1572.45 -1681.455)" fill="#82c5de"/>
        <path id="Path_1730" data-name="Path 1730" d="M1655.724,1714.873a3.217,3.217,0,1,1-3.216,3.217A3.217,3.217,0,0,1,1655.724,1714.873Z" transform="translate(-1572.45 -1666.428)" fill="#82c5de"/>
        <path id="Path_1731" data-name="Path 1731" d="M1655.724,1683.059a3.217,3.217,0,1,1-3.216,3.217A3.217,3.217,0,0,1,1655.724,1683.059Z" transform="translate(-1572.45 -1651.4)" fill="#82c5de"/>
        <path id="Path_1732" data-name="Path 1732" d="M1655.724,1651.246a3.217,3.217,0,1,1-3.216,3.217A3.217,3.217,0,0,1,1655.724,1651.246Z" transform="translate(-1572.45 -1636.373)" fill="#82c5de"/>
        <path id="Path_1733" data-name="Path 1733" d="M1655.724,1619.432a3.217,3.217,0,1,1-3.216,3.217A3.217,3.217,0,0,1,1655.724,1619.432Z" transform="translate(-1572.45 -1621.345)" fill="#82c5de"/>
        <path id="Path_1734" data-name="Path 1734" d="M1687.538,2001.194a3.217,3.217,0,1,1-3.217,3.217A3.217,3.217,0,0,1,1687.538,2001.194Z" transform="translate(-1587.477 -1801.675)" fill="#82c5de"/>
        <path id="Path_1735" data-name="Path 1735" d="M1687.538,1969.381a3.217,3.217,0,1,1-3.217,3.217A3.217,3.217,0,0,1,1687.538,1969.381Z" transform="translate(-1587.477 -1786.648)" fill="#82c5de"/>
        <path id="Path_1736" data-name="Path 1736" d="M1687.538,1937.567a3.217,3.217,0,1,1-3.217,3.217A3.217,3.217,0,0,1,1687.538,1937.567Z" transform="translate(-1587.477 -1771.62)" fill="#82c5de"/>
        <path id="Path_1737" data-name="Path 1737" d="M1687.538,1905.754a3.217,3.217,0,1,1-3.217,3.217A3.217,3.217,0,0,1,1687.538,1905.754Z" transform="translate(-1587.477 -1756.593)" fill="#82c5de"/>
        <path id="Path_1738" data-name="Path 1738" d="M1687.538,1873.94a3.217,3.217,0,1,1-3.217,3.217A3.217,3.217,0,0,1,1687.538,1873.94Z" transform="translate(-1587.477 -1741.565)" fill="#82c5de"/>
        <path id="Path_1739" data-name="Path 1739" d="M1687.538,1842.127a3.217,3.217,0,1,1-3.217,3.217A3.217,3.217,0,0,1,1687.538,1842.127Z" transform="translate(-1587.477 -1726.538)" fill="#82c5de"/>
        <path id="Path_1740" data-name="Path 1740" d="M1687.538,1810.314a3.217,3.217,0,1,1-3.217,3.217A3.217,3.217,0,0,1,1687.538,1810.314Z" transform="translate(-1587.477 -1711.51)" fill="#82c5de"/>
        <path id="Path_1741" data-name="Path 1741" d="M1687.538,1778.5a3.217,3.217,0,1,1-3.217,3.217A3.217,3.217,0,0,1,1687.538,1778.5Z" transform="translate(-1587.477 -1696.483)" fill="#82c5de"/>
        <path id="Path_1742" data-name="Path 1742" d="M1687.538,1746.686a3.217,3.217,0,1,1-3.217,3.217A3.217,3.217,0,0,1,1687.538,1746.686Z" transform="translate(-1587.477 -1681.455)" fill="#82c5de"/>
        <path id="Path_1743" data-name="Path 1743" d="M1687.538,1714.873a3.217,3.217,0,1,1-3.217,3.217A3.217,3.217,0,0,1,1687.538,1714.873Z" transform="translate(-1587.477 -1666.428)" fill="#82c5de"/>
        <path id="Path_1744" data-name="Path 1744" d="M1687.538,1683.059a3.217,3.217,0,1,1-3.217,3.217A3.217,3.217,0,0,1,1687.538,1683.059Z" transform="translate(-1587.477 -1651.4)" fill="#82c5de"/>
        <path id="Path_1745" data-name="Path 1745" d="M1687.538,1651.246a3.217,3.217,0,1,1-3.217,3.217A3.217,3.217,0,0,1,1687.538,1651.246Z" transform="translate(-1587.477 -1636.373)" fill="#82c5de"/>
        <path id="Path_1746" data-name="Path 1746" d="M1687.538,1619.432a3.217,3.217,0,1,1-3.217,3.217A3.217,3.217,0,0,1,1687.538,1619.432Z" transform="translate(-1587.477 -1621.345)" fill="#82c5de"/>
        <path id="Path_1747" data-name="Path 1747" d="M1719.352,2001.194a3.217,3.217,0,1,1-3.217,3.217A3.217,3.217,0,0,1,1719.352,2001.194Z" transform="translate(-1602.505 -1801.675)" fill="#82c5de"/>
        <path id="Path_1748" data-name="Path 1748" d="M1719.352,1969.381a3.217,3.217,0,1,1-3.217,3.217A3.217,3.217,0,0,1,1719.352,1969.381Z" transform="translate(-1602.505 -1786.648)" fill="#82c5de"/>
        <path id="Path_1749" data-name="Path 1749" d="M1719.352,1937.567a3.217,3.217,0,1,1-3.217,3.217A3.217,3.217,0,0,1,1719.352,1937.567Z" transform="translate(-1602.505 -1771.62)" fill="#82c5de"/>
        <path id="Path_1750" data-name="Path 1750" d="M1719.352,1905.754a3.217,3.217,0,1,1-3.217,3.217A3.217,3.217,0,0,1,1719.352,1905.754Z" transform="translate(-1602.505 -1756.593)" fill="#82c5de"/>
        <path id="Path_1751" data-name="Path 1751" d="M1719.352,1873.94a3.217,3.217,0,1,1-3.217,3.217A3.217,3.217,0,0,1,1719.352,1873.94Z" transform="translate(-1602.505 -1741.565)" fill="#82c5de"/>
        <path id="Path_1752" data-name="Path 1752" d="M1719.352,1842.127a3.217,3.217,0,1,1-3.217,3.217A3.217,3.217,0,0,1,1719.352,1842.127Z" transform="translate(-1602.505 -1726.538)" fill="#82c5de"/>
        <path id="Path_1753" data-name="Path 1753" d="M1719.352,1810.314a3.217,3.217,0,1,1-3.217,3.217A3.217,3.217,0,0,1,1719.352,1810.314Z" transform="translate(-1602.505 -1711.51)" fill="#82c5de"/>
        <path id="Path_1754" data-name="Path 1754" d="M1719.352,1778.5a3.217,3.217,0,1,1-3.217,3.217A3.217,3.217,0,0,1,1719.352,1778.5Z" transform="translate(-1602.505 -1696.483)" fill="#82c5de"/>
        <path id="Path_1755" data-name="Path 1755" d="M1719.352,1746.686a3.217,3.217,0,1,1-3.217,3.217A3.217,3.217,0,0,1,1719.352,1746.686Z" transform="translate(-1602.505 -1681.455)" fill="#82c5de"/>
        <path id="Path_1756" data-name="Path 1756" d="M1719.352,1714.873a3.217,3.217,0,1,1-3.217,3.217A3.217,3.217,0,0,1,1719.352,1714.873Z" transform="translate(-1602.505 -1666.428)" fill="#82c5de"/>
        <path id="Path_1757" data-name="Path 1757" d="M1719.352,1683.059a3.217,3.217,0,1,1-3.217,3.217A3.217,3.217,0,0,1,1719.352,1683.059Z" transform="translate(-1602.505 -1651.4)" fill="#82c5de"/>
        <path id="Path_1758" data-name="Path 1758" d="M1719.352,1651.246a3.217,3.217,0,1,1-3.217,3.217A3.217,3.217,0,0,1,1719.352,1651.246Z" transform="translate(-1602.505 -1636.373)" fill="#82c5de"/>
        <path id="Path_1759" data-name="Path 1759" d="M1719.352,1619.432a3.217,3.217,0,1,1-3.217,3.217A3.217,3.217,0,0,1,1719.352,1619.432Z" transform="translate(-1602.505 -1621.345)" fill="#82c5de"/>
        <path id="Path_1760" data-name="Path 1760" d="M1751.165,2001.194a3.217,3.217,0,1,1-3.217,3.217A3.217,3.217,0,0,1,1751.165,2001.194Z" transform="translate(-1617.532 -1801.675)" fill="#82c5de"/>
        <path id="Path_1761" data-name="Path 1761" d="M1751.165,1969.381a3.217,3.217,0,1,1-3.217,3.217A3.217,3.217,0,0,1,1751.165,1969.381Z" transform="translate(-1617.532 -1786.648)" fill="#82c5de"/>
        <path id="Path_1762" data-name="Path 1762" d="M1751.165,1937.567a3.217,3.217,0,1,1-3.217,3.217A3.217,3.217,0,0,1,1751.165,1937.567Z" transform="translate(-1617.532 -1771.62)" fill="#82c5de"/>
        <circle id="Ellipse_214" data-name="Ellipse 214" cx="3.217" cy="3.217" r="3.217" transform="translate(130.416 149.161)" fill="#82c5de"/>
        <circle id="Ellipse_215" data-name="Ellipse 215" cx="3.217" cy="3.217" r="3.217" transform="translate(130.416 132.375)" fill="#82c5de"/>
        <path id="Path_1763" data-name="Path 1763" d="M1751.165,1842.127a3.217,3.217,0,1,1-3.217,3.217A3.217,3.217,0,0,1,1751.165,1842.127Z" transform="translate(-1617.532 -1726.538)" fill="#82c5de"/>
        <path id="Path_1764" data-name="Path 1764" d="M1751.165,1810.314a3.217,3.217,0,1,1-3.217,3.217A3.217,3.217,0,0,1,1751.165,1810.314Z" transform="translate(-1617.532 -1711.51)" fill="#82c5de"/>
        <circle id="Ellipse_216" data-name="Ellipse 216" cx="3.217" cy="3.217" r="3.217" transform="translate(130.416 82.017)" fill="#82c5de"/>
        <circle id="Ellipse_217" data-name="Ellipse 217" cx="3.217" cy="3.217" r="3.217" transform="translate(130.416 65.231)" fill="#82c5de"/>
        <circle id="Ellipse_218" data-name="Ellipse 218" cx="3.217" cy="3.217" r="3.217" transform="translate(130.416 48.445)" fill="#82c5de"/>
        <path id="Path_1765" data-name="Path 1765" d="M1751.165,1683.059a3.217,3.217,0,1,1-3.217,3.217A3.217,3.217,0,0,1,1751.165,1683.059Z" transform="translate(-1617.532 -1651.4)" fill="#82c5de"/>
        <path id="Path_1766" data-name="Path 1766" d="M1751.165,1651.246a3.217,3.217,0,1,1-3.217,3.217A3.217,3.217,0,0,1,1751.165,1651.246Z" transform="translate(-1617.532 -1636.373)" fill="#82c5de"/>
        <path id="Path_1767" data-name="Path 1767" d="M1751.165,1619.432a3.217,3.217,0,1,1-3.217,3.217A3.217,3.217,0,0,1,1751.165,1619.432Z" transform="translate(-1617.532 -1621.345)" fill="#82c5de"/>
        <path id="Path_1768" data-name="Path 1768" d="M1782.979,2001.194a3.217,3.217,0,1,1-3.217,3.217A3.217,3.217,0,0,1,1782.979,2001.194Z" transform="translate(-1632.56 -1801.675)" fill="#82c5de"/>
        <path id="Path_1769" data-name="Path 1769" d="M1782.979,1969.381a3.217,3.217,0,1,1-3.217,3.217A3.217,3.217,0,0,1,1782.979,1969.381Z" transform="translate(-1632.56 -1786.648)" fill="#82c5de"/>
        <path id="Path_1770" data-name="Path 1770" d="M1782.979,1937.567a3.217,3.217,0,1,1-3.217,3.217A3.217,3.217,0,0,1,1782.979,1937.567Z" transform="translate(-1632.56 -1771.62)" fill="#82c5de"/>
        <circle id="Ellipse_219" data-name="Ellipse 219" cx="3.217" cy="3.217" r="3.217" transform="translate(147.202 149.161)" fill="#82c5de"/>
        <circle id="Ellipse_220" data-name="Ellipse 220" cx="3.217" cy="3.217" r="3.217" transform="translate(147.202 132.375)" fill="#82c5de"/>
        <path id="Path_1771" data-name="Path 1771" d="M1782.979,1842.127a3.217,3.217,0,1,1-3.217,3.217A3.217,3.217,0,0,1,1782.979,1842.127Z" transform="translate(-1632.56 -1726.538)" fill="#82c5de"/>
        <path id="Path_1772" data-name="Path 1772" d="M1782.979,1810.314a3.217,3.217,0,1,1-3.217,3.217A3.217,3.217,0,0,1,1782.979,1810.314Z" transform="translate(-1632.56 -1711.51)" fill="#82c5de"/>
        <circle id="Ellipse_221" data-name="Ellipse 221" cx="3.217" cy="3.217" r="3.217" transform="translate(147.202 82.017)" fill="#82c5de"/>
        <circle id="Ellipse_222" data-name="Ellipse 222" cx="3.217" cy="3.217" r="3.217" transform="translate(147.202 65.231)" fill="#82c5de"/>
        <circle id="Ellipse_223" data-name="Ellipse 223" cx="3.217" cy="3.217" r="3.217" transform="translate(147.202 48.445)" fill="#82c5de"/>
        <path id="Path_1773" data-name="Path 1773" d="M1782.979,1683.059a3.217,3.217,0,1,1-3.217,3.217A3.217,3.217,0,0,1,1782.979,1683.059Z" transform="translate(-1632.56 -1651.4)" fill="#82c5de"/>
        <path id="Path_1774" data-name="Path 1774" d="M1782.979,1651.246a3.217,3.217,0,1,1-3.217,3.217A3.217,3.217,0,0,1,1782.979,1651.246Z" transform="translate(-1632.56 -1636.373)" fill="#82c5de"/>
        <path id="Path_1775" data-name="Path 1775" d="M1782.979,1619.432a3.217,3.217,0,1,1-3.217,3.217A3.217,3.217,0,0,1,1782.979,1619.432Z" transform="translate(-1632.56 -1621.345)" fill="#82c5de"/>
        <path id="Path_1776" data-name="Path 1776" d="M1814.792,2001.194a3.217,3.217,0,1,1-3.217,3.217A3.217,3.217,0,0,1,1814.792,2001.194Z" transform="translate(-1647.587 -1801.675)" fill="#82c5de"/>
        <path id="Path_1777" data-name="Path 1777" d="M1814.792,1969.381a3.217,3.217,0,1,1-3.217,3.217A3.217,3.217,0,0,1,1814.792,1969.381Z" transform="translate(-1647.587 -1786.648)" fill="#82c5de"/>
        <path id="Path_1778" data-name="Path 1778" d="M1814.792,1937.567a3.217,3.217,0,1,1-3.217,3.217A3.217,3.217,0,0,1,1814.792,1937.567Z" transform="translate(-1647.587 -1771.62)" fill="#82c5de"/>
        <circle id="Ellipse_224" data-name="Ellipse 224" cx="3.217" cy="3.217" r="3.217" transform="translate(163.988 149.161)" fill="#82c5de"/>
        <circle id="Ellipse_225" data-name="Ellipse 225" cx="3.217" cy="3.217" r="3.217" transform="translate(163.988 132.375)" fill="#82c5de"/>
        <path id="Path_1779" data-name="Path 1779" d="M1814.792,1842.127a3.217,3.217,0,1,1-3.217,3.217A3.217,3.217,0,0,1,1814.792,1842.127Z" transform="translate(-1647.587 -1726.538)" fill="#82c5de"/>
        <path id="Path_1780" data-name="Path 1780" d="M1814.792,1810.314a3.217,3.217,0,1,1-3.217,3.217A3.217,3.217,0,0,1,1814.792,1810.314Z" transform="translate(-1647.587 -1711.51)" fill="#82c5de"/>
        <circle id="Ellipse_226" data-name="Ellipse 226" cx="3.217" cy="3.217" r="3.217" transform="translate(163.988 82.017)" fill="#82c5de"/>
        <circle id="Ellipse_227" data-name="Ellipse 227" cx="3.217" cy="3.217" r="3.217" transform="translate(163.988 65.231)" fill="#82c5de"/>
        <circle id="Ellipse_228" data-name="Ellipse 228" cx="3.217" cy="3.217" r="3.217" transform="translate(163.988 48.445)" fill="#82c5de"/>
        <path id="Path_1781" data-name="Path 1781" d="M1814.792,1683.059a3.217,3.217,0,1,1-3.217,3.217A3.217,3.217,0,0,1,1814.792,1683.059Z" transform="translate(-1647.587 -1651.4)" fill="#82c5de"/>
        <path id="Path_1782" data-name="Path 1782" d="M1814.792,1651.246a3.217,3.217,0,1,1-3.217,3.217A3.217,3.217,0,0,1,1814.792,1651.246Z" transform="translate(-1647.587 -1636.373)" fill="#82c5de"/>
        <path id="Path_1783" data-name="Path 1783" d="M1814.792,1619.432a3.217,3.217,0,1,1-3.217,3.217A3.217,3.217,0,0,1,1814.792,1619.432Z" transform="translate(-1647.587 -1621.345)" fill="#82c5de"/>
        <path id="Path_1784" data-name="Path 1784" d="M1846.605,2001.194a3.217,3.217,0,1,1-3.216,3.217A3.217,3.217,0,0,1,1846.605,2001.194Z" transform="translate(-1662.615 -1801.675)" fill="#82c5de"/>
        <path id="Path_1785" data-name="Path 1785" d="M1846.605,1969.381a3.217,3.217,0,1,1-3.216,3.217A3.217,3.217,0,0,1,1846.605,1969.381Z" transform="translate(-1662.615 -1786.648)" fill="#82c5de"/>
        <path id="Path_1786" data-name="Path 1786" d="M1846.605,1937.567a3.217,3.217,0,1,1-3.216,3.217A3.217,3.217,0,0,1,1846.605,1937.567Z" transform="translate(-1662.615 -1771.62)" fill="#82c5de"/>
        <path id="Path_1787" data-name="Path 1787" d="M1846.605,1905.754a3.217,3.217,0,1,1-3.216,3.217A3.217,3.217,0,0,1,1846.605,1905.754Z" transform="translate(-1662.615 -1756.593)" fill="#82c5de"/>
        <path id="Path_1788" data-name="Path 1788" d="M1846.605,1873.94a3.217,3.217,0,1,1-3.216,3.217A3.217,3.217,0,0,1,1846.605,1873.94Z" transform="translate(-1662.615 -1741.565)" fill="#82c5de"/>
        <path id="Path_1789" data-name="Path 1789" d="M1846.605,1842.127a3.217,3.217,0,1,1-3.216,3.217A3.217,3.217,0,0,1,1846.605,1842.127Z" transform="translate(-1662.615 -1726.538)" fill="#82c5de"/>
        <path id="Path_1790" data-name="Path 1790" d="M1846.605,1810.314a3.217,3.217,0,1,1-3.216,3.217A3.216,3.216,0,0,1,1846.605,1810.314Z" transform="translate(-1662.615 -1711.51)" fill="#82c5de"/>
        <path id="Path_1791" data-name="Path 1791" d="M1846.605,1778.5a3.217,3.217,0,1,1-3.216,3.217A3.217,3.217,0,0,1,1846.605,1778.5Z" transform="translate(-1662.615 -1696.483)" fill="#82c5de"/>
        <path id="Path_1792" data-name="Path 1792" d="M1846.605,1746.686a3.217,3.217,0,1,1-3.216,3.217A3.217,3.217,0,0,1,1846.605,1746.686Z" transform="translate(-1662.615 -1681.455)" fill="#82c5de"/>
        <path id="Path_1793" data-name="Path 1793" d="M1846.605,1714.873a3.217,3.217,0,1,1-3.216,3.217A3.217,3.217,0,0,1,1846.605,1714.873Z" transform="translate(-1662.615 -1666.428)" fill="#82c5de"/>
        <path id="Path_1794" data-name="Path 1794" d="M1846.605,1683.059a3.217,3.217,0,1,1-3.216,3.217A3.217,3.217,0,0,1,1846.605,1683.059Z" transform="translate(-1662.615 -1651.4)" fill="#82c5de"/>
        <path id="Path_1795" data-name="Path 1795" d="M1846.605,1651.246a3.217,3.217,0,1,1-3.216,3.217A3.217,3.217,0,0,1,1846.605,1651.246Z" transform="translate(-1662.615 -1636.373)" fill="#82c5de"/>
        <path id="Path_1796" data-name="Path 1796" d="M1846.605,1619.432a3.217,3.217,0,1,1-3.216,3.217A3.217,3.217,0,0,1,1846.605,1619.432Z" transform="translate(-1662.615 -1621.345)" fill="#82c5de"/>
        <path id="Path_1797" data-name="Path 1797" d="M1878.419,2001.194a3.217,3.217,0,1,1-3.217,3.217A3.217,3.217,0,0,1,1878.419,2001.194Z" transform="translate(-1677.642 -1801.675)" fill="#82c5de"/>
        <path id="Path_1798" data-name="Path 1798" d="M1878.419,1969.381a3.217,3.217,0,1,1-3.217,3.217A3.217,3.217,0,0,1,1878.419,1969.381Z" transform="translate(-1677.642 -1786.648)" fill="#82c5de"/>
        <path id="Path_1799" data-name="Path 1799" d="M1878.419,1937.567a3.217,3.217,0,1,1-3.217,3.217A3.217,3.217,0,0,1,1878.419,1937.567Z" transform="translate(-1677.642 -1771.62)" fill="#82c5de"/>
        <circle id="Ellipse_229" data-name="Ellipse 229" cx="3.217" cy="3.217" r="3.217" transform="translate(197.56 149.161)" fill="#82c5de"/>
        <circle id="Ellipse_230" data-name="Ellipse 230" cx="3.217" cy="3.217" r="3.217" transform="translate(197.56 132.375)" fill="#82c5de"/>
        <path id="Path_1800" data-name="Path 1800" d="M1878.419,1842.127a3.217,3.217,0,1,1-3.217,3.217A3.217,3.217,0,0,1,1878.419,1842.127Z" transform="translate(-1677.642 -1726.538)" fill="#82c5de"/>
        <path id="Path_1801" data-name="Path 1801" d="M1878.419,1810.314a3.217,3.217,0,1,1-3.217,3.217A3.217,3.217,0,0,1,1878.419,1810.314Z" transform="translate(-1677.642 -1711.51)" fill="#82c5de"/>
        <circle id="Ellipse_231" data-name="Ellipse 231" cx="3.217" cy="3.217" r="3.217" transform="translate(197.56 82.017)" fill="#82c5de"/>
        <circle id="Ellipse_232" data-name="Ellipse 232" cx="3.217" cy="3.217" r="3.217" transform="translate(197.56 65.231)" fill="#82c5de"/>
        <circle id="Ellipse_233" data-name="Ellipse 233" cx="3.217" cy="3.217" r="3.217" transform="translate(197.56 48.445)" fill="#82c5de"/>
        <path id="Path_1802" data-name="Path 1802" d="M1878.419,1683.059a3.217,3.217,0,1,1-3.217,3.217A3.217,3.217,0,0,1,1878.419,1683.059Z" transform="translate(-1677.642 -1651.4)" fill="#82c5de"/>
        <path id="Path_1803" data-name="Path 1803" d="M1878.419,1651.246a3.217,3.217,0,1,1-3.217,3.217A3.217,3.217,0,0,1,1878.419,1651.246Z" transform="translate(-1677.642 -1636.373)" fill="#82c5de"/>
        <path id="Path_1804" data-name="Path 1804" d="M1878.419,1619.432a3.217,3.217,0,1,1-3.217,3.217A3.217,3.217,0,0,1,1878.419,1619.432Z" transform="translate(-1677.642 -1621.345)" fill="#82c5de"/>
      </g>
    </g>
  </g>
</svg>
