<svg xmlns="http://www.w3.org/2000/svg" xmlns:xlink="http://www.w3.org/1999/xlink" width="175.484" height="168.847" viewBox="0 0 175.484 168.847">
  <defs>
    <clipPath id="clip-path">
      <path id="Path_1990" data-name="Path 1990" d="M744.165,2259.36c2.242,1.238,4.445,2.525,6.563,3.915a50.011,50.011,0,0,1,5.974,4.6c11.18,10.024,17.732,24.771,19.3,39.948a69.369,69.369,0,0,1,.351,8.69c-.382,16.088-3.219,32.652-14.091,45.5-13.13,15.381-33.12,21.408-52.268,20.013a62.046,62.046,0,0,1-54.478-36.4,62.373,62.373,0,0,1-3.292-6.649,60.733,60.733,0,0,1-4.138-14.764c-4.2-28.111,11.913-52.134,34.831-63.712,2.865-1.447,5.813-2.731,8.761-3.973,13.418-6.328,29.5-8.207,43.348-1.842A93.689,93.689,0,0,1,744.165,2259.36Z" transform="translate(-647.418 -2250.748)" fill="none"/>
    </clipPath>
  </defs>
  <g id="Group_613" data-name="Group 613" transform="translate(-154.703 -3455.023)">
    <path id="Path_619" data-name="Path 619" d="M674.434,2379.672c7.05-5.149,15.313-7.941,23.793-9.257a82.958,82.958,0,0,1,8.516-.857c13.837-.718,28.339-.761,40.646,6.851,11.626,6.961,19.134,18.761,22.856,31.551.909,2.188,1.974,4.359,2.95,6.567,5.857,13.245,8.118,27.861,3.39,43.041-6.533,20.915-23.867,33.9-43.4,37.8a67.049,67.049,0,0,1-8.476,1.13c-32.276,6.658-67.619-14.847-72.432-48.269a60.067,60.067,0,0,1-1.353-7.277,65.225,65.225,0,0,1,1.119-22.041c.64-2.889,1.425-5.74,2.257-8.547,2.505-8.533,6.123-16.871,12.219-23.419A59.212,59.212,0,0,1,674.434,2379.672Z" transform="translate(-448.948 1126.162)" fill="#82c5de"/>
    <path id="Path_656" data-name="Path 656" d="M577.5,2314.954c29.717-3.556,52.337,22.627,59.144,49.309a82.407,82.407,0,0,1,1.447,8.953,77.189,77.189,0,0,1-1.846,27.175,66.469,66.469,0,0,1-2.846,8.624c-8.364,26.173-36.872,43.216-63.766,35.593a56.88,56.88,0,0,1-9.647-1.934c-21.841-6.381-38.705-25.373-44.06-47.372a81.836,81.836,0,0,1-1.71-9.552c-7.085-33.76,21.732-61.647,52.581-68.714A74.457,74.457,0,0,1,577.5,2314.954Z" transform="translate(-358.429 1162.168)" fill="#f6d1cf"/>
    <g id="Group_453" data-name="Group 453" transform="translate(200.474 3455.023)">
      <g id="Group_452" data-name="Group 452" clip-path="url(#clip-path)">
        <path id="Path_1972" data-name="Path 1972" d="M469.907,2198.156c8.168-16.888,24.38-9.047,32.549-25.935s-8.045-24.73.123-41.618,24.38-9.047,32.549-25.935-8.045-24.73.123-41.618,24.381-9.047,32.549-25.935-8.045-24.73.123-41.618,24.381-9.047,32.549-25.936-8.045-24.73.123-41.619" transform="translate(-530.411 -2037.97)" fill="none" stroke="#96d1bf" stroke-miterlimit="10" stroke-width="2.468"/>
        <path id="Path_1973" data-name="Path 1973" d="M490.434,2208.084c8.168-16.888,24.38-9.047,32.549-25.935s-8.045-24.73.123-41.618,24.38-9.047,32.549-25.935-8.045-24.729.123-41.618,24.381-9.047,32.549-25.935-8.045-24.73.123-41.618,24.381-9.047,32.549-25.936-8.045-24.73.123-41.618" transform="translate(-543.942 -2044.514)" fill="none" stroke="#96d1bf" stroke-miterlimit="10" stroke-width="2.468"/>
        <path id="Path_1974" data-name="Path 1974" d="M510.961,2218.012c8.168-16.888,24.38-9.047,32.549-25.935s-8.045-24.73.123-41.618,24.38-9.047,32.549-25.935-8.045-24.73.123-41.618,24.38-9.047,32.549-25.935-8.045-24.73.123-41.619,24.381-9.047,32.549-25.936-8.045-24.73.123-41.618" transform="translate(-557.472 -2051.058)" fill="none" stroke="#96d1bf" stroke-miterlimit="10" stroke-width="2.468"/>
        <path id="Path_1975" data-name="Path 1975" d="M531.487,2227.94c8.168-16.888,24.381-9.047,32.549-25.935s-8.045-24.73.123-41.618,24.381-9.047,32.549-25.935-8.045-24.73.123-41.618,24.381-9.047,32.549-25.935-8.045-24.729.123-41.618,24.381-9.047,32.549-25.936-8.045-24.73.123-41.618" transform="translate(-571.002 -2057.602)" fill="none" stroke="#96d1bf" stroke-miterlimit="10" stroke-width="2.468"/>
        <path id="Path_1976" data-name="Path 1976" d="M552.015,2237.867c8.168-16.888,24.38-9.047,32.549-25.935s-8.045-24.73.123-41.618,24.381-9.047,32.549-25.935-8.045-24.73.123-41.618,24.38-9.047,32.549-25.935-8.045-24.729.123-41.618,24.381-9.047,32.549-25.936-8.045-24.73.123-41.619" transform="translate(-584.533 -2064.145)" fill="none" stroke="#96d1bf" stroke-miterlimit="10" stroke-width="2.468"/>
        <path id="Path_1977" data-name="Path 1977" d="M572.542,2247.8c8.168-16.889,24.38-9.047,32.548-25.936s-8.045-24.729.123-41.618,24.38-9.047,32.549-25.935-8.045-24.729.123-41.618,24.381-9.047,32.549-25.936-8.045-24.729.123-41.618,24.381-9.047,32.549-25.935-8.045-24.73.123-41.619" transform="translate(-598.063 -2070.689)" fill="none" stroke="#96d1bf" stroke-miterlimit="10" stroke-width="2.468"/>
        <path id="Path_1978" data-name="Path 1978" d="M593.068,2257.722c8.168-16.888,24.381-9.047,32.549-25.935s-8.045-24.729.123-41.618,24.381-9.047,32.549-25.935-8.045-24.73.123-41.618,24.381-9.047,32.549-25.936-8.045-24.729.123-41.618,24.381-9.047,32.549-25.936-8.045-24.73.123-41.619" transform="translate(-611.593 -2077.233)" fill="none" stroke="#96d1bf" stroke-miterlimit="10" stroke-width="2.468"/>
        <path id="Path_1979" data-name="Path 1979" d="M613.595,2267.649c8.168-16.888,24.381-9.047,32.549-25.935s-8.045-24.729.123-41.617,24.381-9.047,32.549-25.936-8.045-24.73.123-41.618,24.38-9.047,32.548-25.936-8.045-24.729.123-41.618,24.381-9.047,32.549-25.936-8.045-24.73.123-41.619" transform="translate(-625.124 -2083.776)" fill="none" stroke="#96d1bf" stroke-miterlimit="10" stroke-width="2.468"/>
        <path id="Path_1980" data-name="Path 1980" d="M634.122,2277.578c8.168-16.888,24.381-9.047,32.549-25.936s-8.045-24.729.123-41.618,24.381-9.047,32.549-25.935-8.045-24.73.123-41.618,24.381-9.047,32.549-25.936-8.045-24.729.123-41.618,24.381-9.048,32.549-25.936-8.045-24.73.123-41.619" transform="translate(-638.654 -2090.32)" fill="none" stroke="#96d1bf" stroke-miterlimit="10" stroke-width="2.468"/>
        <path id="Path_1981" data-name="Path 1981" d="M654.649,2287.505c8.168-16.888,24.381-9.047,32.549-25.935s-8.045-24.729.123-41.618,24.381-9.047,32.549-25.936-8.045-24.729.123-41.618,24.381-9.047,32.549-25.936-8.045-24.729.123-41.618,24.381-9.048,32.549-25.936-8.045-24.73.123-41.619" transform="translate(-652.184 -2096.864)" fill="none" stroke="#96d1bf" stroke-miterlimit="10" stroke-width="2.468"/>
        <path id="Path_1982" data-name="Path 1982" d="M675.176,2297.433c8.168-16.888,24.381-9.047,32.549-25.936s-8.045-24.729.123-41.617,24.381-9.047,32.549-25.936-8.045-24.73.123-41.618,24.381-9.047,32.549-25.935-8.045-24.729.123-41.618,24.381-9.047,32.549-25.936-8.045-24.729.123-41.618" transform="translate(-665.715 -2103.408)" fill="none" stroke="#96d1bf" stroke-miterlimit="10" stroke-width="2.468"/>
        <path id="Path_1983" data-name="Path 1983" d="M695.7,2307.36c8.168-16.888,24.38-9.047,32.549-25.936s-8.045-24.729.123-41.617,24.38-9.047,32.549-25.936-8.045-24.73.123-41.619,24.38-9.047,32.549-25.935-8.045-24.729.123-41.618,24.381-9.047,32.549-25.936-8.045-24.73.123-41.619" transform="translate(-679.245 -2109.952)" fill="none" stroke="#96d1bf" stroke-miterlimit="10" stroke-width="2.468"/>
        <path id="Path_1984" data-name="Path 1984" d="M716.23,2317.289c8.168-16.889,24.381-9.047,32.549-25.936s-8.045-24.73.123-41.618,24.38-9.047,32.549-25.935-8.045-24.73.123-41.619,24.38-9.047,32.548-25.935-8.045-24.729.123-41.618,24.381-9.047,32.549-25.936-8.045-24.73.123-41.619" transform="translate(-692.776 -2116.496)" fill="none" stroke="#96d1bf" stroke-miterlimit="10" stroke-width="2.468"/>
        <path id="Path_1985" data-name="Path 1985" d="M736.757,2327.216c8.168-16.888,24.381-9.047,32.549-25.935s-8.045-24.73.123-41.618,24.381-9.047,32.549-25.935-8.045-24.729.123-41.618,24.381-9.047,32.549-25.935-8.045-24.73.123-41.618,24.381-9.048,32.549-25.936-8.045-24.73.123-41.618" transform="translate(-706.306 -2123.04)" fill="none" stroke="#96d1bf" stroke-miterlimit="10" stroke-width="2.468"/>
        <path id="Path_1986" data-name="Path 1986" d="M757.284,2337.144c8.168-16.888,24.381-9.047,32.549-25.935s-8.045-24.729.123-41.617,24.38-9.047,32.549-25.936-8.045-24.73.123-41.619,24.381-9.047,32.549-25.935-8.045-24.73.123-41.618,24.38-9.047,32.549-25.936-8.045-24.729.123-41.618" transform="translate(-719.836 -2129.584)" fill="none" stroke="#96d1bf" stroke-miterlimit="10" stroke-width="2.468"/>
        <path id="Path_1987" data-name="Path 1987" d="M777.81,2347.071c8.168-16.888,24.381-9.047,32.549-25.935s-8.045-24.729.123-41.617,24.38-9.047,32.549-25.936-8.045-24.729.123-41.618,24.381-9.047,32.549-25.935-8.045-24.729.123-41.618,24.381-9.047,32.549-25.936-8.045-24.73.123-41.619" transform="translate(-733.366 -2136.127)" fill="none" stroke="#96d1bf" stroke-miterlimit="10" stroke-width="2.468"/>
        <path id="Path_1988" data-name="Path 1988" d="M798.338,2357c8.168-16.889,24.38-9.047,32.549-25.936s-8.045-24.73.123-41.618,24.381-9.047,32.549-25.936-8.045-24.729.123-41.618,24.38-9.047,32.549-25.935-8.045-24.73.123-41.618,24.381-9.047,32.549-25.936-8.045-24.73.123-41.618" transform="translate(-746.897 -2142.671)" fill="none" stroke="#96d1bf" stroke-miterlimit="10" stroke-width="2.468"/>
        <path id="Path_1989" data-name="Path 1989" d="M818.865,2366.927c8.168-16.889,24.381-9.047,32.548-25.935s-8.045-24.73.123-41.618,24.381-9.047,32.549-25.936-8.045-24.729.123-41.618,24.381-9.047,32.548-25.935-8.045-24.73.123-41.618,24.381-9.048,32.549-25.936-8.045-24.729.123-41.618" transform="translate(-760.428 -2149.215)" fill="none" stroke="#96d1bf" stroke-miterlimit="10" stroke-width="2.468"/>
      </g>
    </g>
  </g>
</svg>
