<svg xmlns="http://www.w3.org/2000/svg" xmlns:xlink="http://www.w3.org/1999/xlink" width="263.499" height="363.353" viewBox="0 0 263.499 363.353">
  <defs>
    <clipPath id="clip-path">
      <path id="Path_1132" data-name="Path 1132" d="M456.921,1328.954c46-5.5,81.019,35.028,91.556,76.332a127.478,127.478,0,0,1,2.24,13.859,119.492,119.492,0,0,1-2.858,42.067,102.9,102.9,0,0,1-4.406,13.35c-12.948,40.517-57.078,66.9-98.711,55.1a88.046,88.046,0,0,1-14.932-2.995c-33.811-9.877-64.419-30.167-72.708-64.222-1.184-4.864-3.7-12.454-4.3-17.427-10.967-52.261,39.8-101.9,87.55-112.838A115.379,115.379,0,0,1,456.921,1328.954Z" transform="translate(-351.294 -1328.45)" fill="none"/>
    </clipPath>
  </defs>
  <g id="Group_612" data-name="Group 612" transform="translate(-1542.834 -2592.543)">
    <path id="Path_663" data-name="Path 663" d="M362.85,1193.647c46-5.5,81.019,35.028,91.556,76.332a127.587,127.587,0,0,1,2.239,13.859,119.494,119.494,0,0,1-2.858,42.067,102.907,102.907,0,0,1-4.405,13.35c-12.948,40.517-57.078,66.9-98.711,55.1a88.052,88.052,0,0,1-14.933-2.994c-33.811-9.877-59.916-39.278-68.206-73.333a126.713,126.713,0,0,1-2.647-14.785c-10.967-52.261,33.642-95.432,81.4-106.37A115.135,115.135,0,0,1,362.85,1193.647Z" transform="translate(1279.625 1487.318)" fill="#96d1bf"/>
    <path id="Path_669" data-name="Path 669" d="M485.092,1026.518c13.513.182,26.334,4.41,38.054,10.667a128.322,128.322,0,0,1,11.336,6.858c17.794,11.978,35.781,25.409,43.935,46.275,7.915,19.427,6.236,41.011-1.052,60.3-.911,3.554-1.61,7.231-2.455,10.871-5.068,21.839-15.86,42.03-35.827,56.42-27.533,19.81-61.06,19.76-88.86,6.43a103.968,103.968,0,0,1-11.542-6.484c-46.138-21.771-69.881-81.251-44.761-127.09a93.047,93.047,0,0,1,5.093-10.264,100.97,100.97,0,0,1,21.88-26.238c3.478-2.98,7.1-5.779,10.741-8.479,11.035-8.231,23.267-15.187,36.9-17.622A91.64,91.64,0,0,1,485.092,1026.518Z" transform="translate(1222.695 1566.026)" fill="#82c5de"/>
    <g id="Group_435" data-name="Group 435" transform="translate(1589.311 2751.854)">
      <g id="Group_434" data-name="Group 434" clip-path="url(#clip-path)">
        <path id="Path_988" data-name="Path 988" d="M347.172,1706.589a3.217,3.217,0,1,1-3.217,3.217A3.217,3.217,0,0,1,347.172,1706.589Z" transform="translate(-347.827 -1507.069)" fill="#e5eaeb"/>
        <path id="Path_989" data-name="Path 989" d="M347.172,1674.775a3.217,3.217,0,1,1-3.217,3.217A3.217,3.217,0,0,1,347.172,1674.775Z" transform="translate(-347.827 -1492.042)" fill="#e5eaeb"/>
        <path id="Path_990" data-name="Path 990" d="M347.172,1642.962a3.217,3.217,0,1,1-3.217,3.217A3.217,3.217,0,0,1,347.172,1642.962Z" transform="translate(-347.827 -1477.014)" fill="#e5eaeb"/>
        <path id="Path_991" data-name="Path 991" d="M347.172,1611.148a3.217,3.217,0,1,1-3.217,3.217A3.217,3.217,0,0,1,347.172,1611.148Z" transform="translate(-347.827 -1461.986)" fill="#e5eaeb"/>
        <path id="Path_992" data-name="Path 992" d="M347.172,1579.335a3.217,3.217,0,1,1-3.217,3.217A3.217,3.217,0,0,1,347.172,1579.335Z" transform="translate(-347.827 -1446.959)" fill="#e5eaeb"/>
        <path id="Path_993" data-name="Path 993" d="M347.172,1547.521a3.217,3.217,0,1,1-3.217,3.217A3.217,3.217,0,0,1,347.172,1547.521Z" transform="translate(-347.827 -1431.931)" fill="#e5eaeb"/>
        <path id="Path_994" data-name="Path 994" d="M347.172,1515.707a3.217,3.217,0,1,1-3.217,3.218A3.218,3.218,0,0,1,347.172,1515.707Z" transform="translate(-347.827 -1416.904)" fill="#e5eaeb"/>
        <path id="Path_995" data-name="Path 995" d="M347.172,1483.9a3.217,3.217,0,1,1-3.217,3.216A3.216,3.216,0,0,1,347.172,1483.9Z" transform="translate(-347.827 -1401.877)" fill="#e5eaeb"/>
        <path id="Path_996" data-name="Path 996" d="M347.172,1452.08a3.217,3.217,0,1,1-3.217,3.218A3.217,3.217,0,0,1,347.172,1452.08Z" transform="translate(-347.827 -1386.849)" fill="#e5eaeb"/>
        <path id="Path_997" data-name="Path 997" d="M347.172,1420.268a3.216,3.216,0,1,1-3.217,3.216A3.216,3.216,0,0,1,347.172,1420.268Z" transform="translate(-347.827 -1371.822)" fill="#e5eaeb"/>
        <path id="Path_998" data-name="Path 998" d="M347.172,1388.453a3.217,3.217,0,1,1-3.217,3.217A3.218,3.218,0,0,1,347.172,1388.453Z" transform="translate(-347.827 -1356.793)" fill="#e5eaeb"/>
        <path id="Path_999" data-name="Path 999" d="M347.172,1356.64a3.217,3.217,0,1,1-3.217,3.216A3.217,3.217,0,0,1,347.172,1356.64Z" transform="translate(-347.827 -1341.766)" fill="#e5eaeb"/>
        <path id="Path_1000" data-name="Path 1000" d="M347.172,1324.826a3.217,3.217,0,1,1-3.217,3.217A3.217,3.217,0,0,1,347.172,1324.826Z" transform="translate(-347.827 -1326.739)" fill="#e5eaeb"/>
        <path id="Path_1001" data-name="Path 1001" d="M378.986,1706.589a3.217,3.217,0,1,1-3.217,3.217A3.216,3.216,0,0,1,378.986,1706.589Z" transform="translate(-362.855 -1507.069)" fill="#e5eaeb"/>
        <path id="Path_1002" data-name="Path 1002" d="M378.986,1674.775a3.217,3.217,0,1,1-3.217,3.217A3.217,3.217,0,0,1,378.986,1674.775Z" transform="translate(-362.855 -1492.042)" fill="#e5eaeb"/>
        <path id="Path_1003" data-name="Path 1003" d="M378.986,1642.962a3.217,3.217,0,1,1-3.217,3.217A3.216,3.216,0,0,1,378.986,1642.962Z" transform="translate(-362.855 -1477.014)" fill="#e5eaeb"/>
        <path id="Path_1004" data-name="Path 1004" d="M378.986,1611.148a3.217,3.217,0,1,1-3.217,3.217A3.217,3.217,0,0,1,378.986,1611.148Z" transform="translate(-362.855 -1461.986)" fill="#e5eaeb"/>
        <path id="Path_1005" data-name="Path 1005" d="M378.986,1579.335a3.217,3.217,0,1,1-3.217,3.217A3.217,3.217,0,0,1,378.986,1579.335Z" transform="translate(-362.855 -1446.959)" fill="#e5eaeb"/>
        <path id="Path_1006" data-name="Path 1006" d="M378.986,1547.521a3.217,3.217,0,1,1-3.217,3.217A3.217,3.217,0,0,1,378.986,1547.521Z" transform="translate(-362.855 -1431.931)" fill="#e5eaeb"/>
        <path id="Path_1007" data-name="Path 1007" d="M378.986,1515.707a3.217,3.217,0,1,1-3.217,3.218A3.217,3.217,0,0,1,378.986,1515.707Z" transform="translate(-362.855 -1416.904)" fill="#e5eaeb"/>
        <path id="Path_1008" data-name="Path 1008" d="M378.986,1483.9a3.217,3.217,0,1,1-3.217,3.216A3.216,3.216,0,0,1,378.986,1483.9Z" transform="translate(-362.855 -1401.877)" fill="#e5eaeb"/>
        <path id="Path_1009" data-name="Path 1009" d="M378.986,1452.08a3.217,3.217,0,1,1-3.217,3.218A3.217,3.217,0,0,1,378.986,1452.08Z" transform="translate(-362.855 -1386.849)" fill="#e5eaeb"/>
        <path id="Path_1010" data-name="Path 1010" d="M378.986,1420.268a3.216,3.216,0,1,1-3.217,3.216A3.216,3.216,0,0,1,378.986,1420.268Z" transform="translate(-362.855 -1371.822)" fill="#e5eaeb"/>
        <path id="Path_1011" data-name="Path 1011" d="M378.986,1388.453a3.217,3.217,0,1,1-3.217,3.217A3.217,3.217,0,0,1,378.986,1388.453Z" transform="translate(-362.855 -1356.793)" fill="#e5eaeb"/>
        <path id="Path_1012" data-name="Path 1012" d="M378.986,1356.64a3.217,3.217,0,1,1-3.217,3.216A3.216,3.216,0,0,1,378.986,1356.64Z" transform="translate(-362.855 -1341.766)" fill="#e5eaeb"/>
        <path id="Path_1013" data-name="Path 1013" d="M378.986,1324.826a3.217,3.217,0,1,1-3.217,3.217A3.217,3.217,0,0,1,378.986,1324.826Z" transform="translate(-362.855 -1326.739)" fill="#e5eaeb"/>
        <path id="Path_1014" data-name="Path 1014" d="M410.8,1706.589a3.217,3.217,0,1,1-3.216,3.217A3.217,3.217,0,0,1,410.8,1706.589Z" transform="translate(-377.883 -1507.069)" fill="#e5eaeb"/>
        <circle id="Ellipse_32" data-name="Ellipse 32" cx="3.217" cy="3.217" r="3.217" transform="translate(29.7 182.734)" fill="#e5eaeb"/>
        <circle id="Ellipse_33" data-name="Ellipse 33" cx="3.217" cy="3.217" r="3.217" transform="translate(29.7 165.948)" fill="#e5eaeb"/>
        <circle id="Ellipse_34" data-name="Ellipse 34" cx="3.217" cy="3.217" r="3.217" transform="translate(29.7 149.162)" fill="#e5eaeb"/>
        <path id="Path_1015" data-name="Path 1015" d="M410.8,1579.335a3.217,3.217,0,1,1-3.216,3.217A3.217,3.217,0,0,1,410.8,1579.335Z" transform="translate(-377.883 -1446.959)" fill="#e5eaeb"/>
        <path id="Path_1016" data-name="Path 1016" d="M410.8,1547.521a3.217,3.217,0,1,1-3.216,3.217A3.217,3.217,0,0,1,410.8,1547.521Z" transform="translate(-377.883 -1431.931)" fill="#e5eaeb"/>
        <path id="Path_1017" data-name="Path 1017" d="M410.8,1515.707a3.217,3.217,0,1,1-3.216,3.218A3.218,3.218,0,0,1,410.8,1515.707Z" transform="translate(-377.883 -1416.904)" fill="#e5eaeb"/>
        <path id="Path_1018" data-name="Path 1018" d="M410.8,1483.9a3.217,3.217,0,1,1-3.216,3.216A3.216,3.216,0,0,1,410.8,1483.9Z" transform="translate(-377.883 -1401.877)" fill="#e5eaeb"/>
        <path id="Path_1019" data-name="Path 1019" d="M410.8,1452.08a3.217,3.217,0,1,1-3.216,3.218A3.217,3.217,0,0,1,410.8,1452.08Z" transform="translate(-377.883 -1386.849)" fill="#e5eaeb"/>
        <path id="Path_1020" data-name="Path 1020" d="M410.8,1420.268a3.216,3.216,0,1,1-3.216,3.216A3.216,3.216,0,0,1,410.8,1420.268Z" transform="translate(-377.883 -1371.822)" fill="#e5eaeb"/>
        <circle id="Ellipse_35" data-name="Ellipse 35" cx="3.217" cy="3.217" r="3.217" transform="translate(29.7 31.66)" fill="#e5eaeb"/>
        <circle id="Ellipse_36" data-name="Ellipse 36" cx="3.217" cy="3.217" r="3.217" transform="translate(29.7 14.874)" fill="#e5eaeb"/>
        <path id="Path_1021" data-name="Path 1021" d="M410.8,1324.826a3.217,3.217,0,1,1-3.216,3.217A3.217,3.217,0,0,1,410.8,1324.826Z" transform="translate(-377.883 -1326.739)" fill="#e5eaeb"/>
        <path id="Path_1022" data-name="Path 1022" d="M442.613,1706.589a3.217,3.217,0,1,1-3.217,3.217A3.216,3.216,0,0,1,442.613,1706.589Z" transform="translate(-392.91 -1507.069)" fill="#e5eaeb"/>
        <path id="Path_1023" data-name="Path 1023" d="M442.613,1674.775a3.217,3.217,0,1,1-3.217,3.217A3.217,3.217,0,0,1,442.613,1674.775Z" transform="translate(-392.91 -1492.042)" fill="#e5eaeb"/>
        <path id="Path_1024" data-name="Path 1024" d="M442.613,1642.962a3.217,3.217,0,1,1-3.217,3.217A3.216,3.216,0,0,1,442.613,1642.962Z" transform="translate(-392.91 -1477.014)" fill="#e5eaeb"/>
        <path id="Path_1025" data-name="Path 1025" d="M442.613,1611.148a3.217,3.217,0,1,1-3.217,3.217A3.217,3.217,0,0,1,442.613,1611.148Z" transform="translate(-392.91 -1461.986)" fill="#e5eaeb"/>
        <path id="Path_1026" data-name="Path 1026" d="M442.613,1579.335a3.217,3.217,0,1,1-3.217,3.217A3.217,3.217,0,0,1,442.613,1579.335Z" transform="translate(-392.91 -1446.959)" fill="#e5eaeb"/>
        <path id="Path_1027" data-name="Path 1027" d="M442.613,1547.521a3.217,3.217,0,1,1-3.217,3.217A3.217,3.217,0,0,1,442.613,1547.521Z" transform="translate(-392.91 -1431.931)" fill="#e5eaeb"/>
        <path id="Path_1028" data-name="Path 1028" d="M442.613,1515.707a3.217,3.217,0,1,1-3.217,3.218A3.217,3.217,0,0,1,442.613,1515.707Z" transform="translate(-392.91 -1416.904)" fill="#e5eaeb"/>
        <path id="Path_1029" data-name="Path 1029" d="M442.613,1483.9a3.217,3.217,0,1,1-3.217,3.216A3.216,3.216,0,0,1,442.613,1483.9Z" transform="translate(-392.91 -1401.877)" fill="#e5eaeb"/>
        <path id="Path_1030" data-name="Path 1030" d="M442.613,1452.08a3.217,3.217,0,1,1-3.217,3.218A3.217,3.217,0,0,1,442.613,1452.08Z" transform="translate(-392.91 -1386.849)" fill="#e5eaeb"/>
        <path id="Path_1031" data-name="Path 1031" d="M442.613,1420.268a3.216,3.216,0,1,1-3.217,3.216A3.216,3.216,0,0,1,442.613,1420.268Z" transform="translate(-392.91 -1371.822)" fill="#e5eaeb"/>
        <path id="Path_1032" data-name="Path 1032" d="M442.613,1388.453a3.217,3.217,0,1,1-3.217,3.217A3.217,3.217,0,0,1,442.613,1388.453Z" transform="translate(-392.91 -1356.793)" fill="#e5eaeb"/>
        <path id="Path_1033" data-name="Path 1033" d="M442.613,1356.64a3.217,3.217,0,1,1-3.217,3.216A3.216,3.216,0,0,1,442.613,1356.64Z" transform="translate(-392.91 -1341.766)" fill="#e5eaeb"/>
        <path id="Path_1034" data-name="Path 1034" d="M442.613,1324.826a3.217,3.217,0,1,1-3.217,3.217A3.217,3.217,0,0,1,442.613,1324.826Z" transform="translate(-392.91 -1326.739)" fill="#e5eaeb"/>
        <path id="Path_1035" data-name="Path 1035" d="M474.426,1706.589a3.217,3.217,0,1,1-3.217,3.217A3.217,3.217,0,0,1,474.426,1706.589Z" transform="translate(-407.937 -1507.069)" fill="#e5eaeb"/>
        <path id="Path_1036" data-name="Path 1036" d="M474.426,1674.775a3.217,3.217,0,1,1-3.217,3.217A3.217,3.217,0,0,1,474.426,1674.775Z" transform="translate(-407.937 -1492.042)" fill="#e5eaeb"/>
        <path id="Path_1037" data-name="Path 1037" d="M474.426,1642.962a3.217,3.217,0,1,1-3.217,3.217A3.217,3.217,0,0,1,474.426,1642.962Z" transform="translate(-407.937 -1477.014)" fill="#e5eaeb"/>
        <path id="Path_1038" data-name="Path 1038" d="M474.426,1611.148a3.217,3.217,0,1,1-3.217,3.217A3.217,3.217,0,0,1,474.426,1611.148Z" transform="translate(-407.937 -1461.986)" fill="#e5eaeb"/>
        <path id="Path_1039" data-name="Path 1039" d="M474.426,1579.335a3.217,3.217,0,1,1-3.217,3.217A3.217,3.217,0,0,1,474.426,1579.335Z" transform="translate(-407.937 -1446.959)" fill="#e5eaeb"/>
        <path id="Path_1040" data-name="Path 1040" d="M474.426,1547.521a3.217,3.217,0,1,1-3.217,3.217A3.217,3.217,0,0,1,474.426,1547.521Z" transform="translate(-407.937 -1431.931)" fill="#e5eaeb"/>
        <path id="Path_1041" data-name="Path 1041" d="M474.426,1515.707a3.217,3.217,0,1,1-3.217,3.218A3.218,3.218,0,0,1,474.426,1515.707Z" transform="translate(-407.937 -1416.904)" fill="#e5eaeb"/>
        <path id="Path_1042" data-name="Path 1042" d="M474.426,1483.9a3.217,3.217,0,1,1-3.217,3.216A3.216,3.216,0,0,1,474.426,1483.9Z" transform="translate(-407.937 -1401.877)" fill="#e5eaeb"/>
        <path id="Path_1043" data-name="Path 1043" d="M474.426,1452.08a3.217,3.217,0,1,1-3.217,3.218A3.217,3.217,0,0,1,474.426,1452.08Z" transform="translate(-407.937 -1386.849)" fill="#e5eaeb"/>
        <path id="Path_1044" data-name="Path 1044" d="M474.426,1420.268a3.216,3.216,0,1,1-3.217,3.216A3.216,3.216,0,0,1,474.426,1420.268Z" transform="translate(-407.937 -1371.822)" fill="#e5eaeb"/>
        <path id="Path_1045" data-name="Path 1045" d="M474.426,1388.453a3.217,3.217,0,1,1-3.217,3.217A3.218,3.218,0,0,1,474.426,1388.453Z" transform="translate(-407.937 -1356.793)" fill="#e5eaeb"/>
        <path id="Path_1046" data-name="Path 1046" d="M474.426,1356.64a3.217,3.217,0,1,1-3.217,3.216A3.217,3.217,0,0,1,474.426,1356.64Z" transform="translate(-407.937 -1341.766)" fill="#e5eaeb"/>
        <path id="Path_1047" data-name="Path 1047" d="M474.426,1324.826a3.217,3.217,0,1,1-3.217,3.217A3.217,3.217,0,0,1,474.426,1324.826Z" transform="translate(-407.937 -1326.739)" fill="#e5eaeb"/>
        <path id="Path_1048" data-name="Path 1048" d="M506.24,1706.589a3.217,3.217,0,1,1-3.217,3.217A3.216,3.216,0,0,1,506.24,1706.589Z" transform="translate(-422.965 -1507.069)" fill="#e5eaeb"/>
        <path id="Path_1049" data-name="Path 1049" d="M506.24,1674.775a3.217,3.217,0,1,1-3.217,3.217A3.217,3.217,0,0,1,506.24,1674.775Z" transform="translate(-422.965 -1492.042)" fill="#e5eaeb"/>
        <path id="Path_1050" data-name="Path 1050" d="M506.24,1642.962a3.217,3.217,0,1,1-3.217,3.217A3.216,3.216,0,0,1,506.24,1642.962Z" transform="translate(-422.965 -1477.014)" fill="#e5eaeb"/>
        <path id="Path_1051" data-name="Path 1051" d="M506.24,1611.148a3.217,3.217,0,1,1-3.217,3.217A3.217,3.217,0,0,1,506.24,1611.148Z" transform="translate(-422.965 -1461.986)" fill="#e5eaeb"/>
        <path id="Path_1052" data-name="Path 1052" d="M506.24,1579.335a3.217,3.217,0,1,1-3.217,3.217A3.217,3.217,0,0,1,506.24,1579.335Z" transform="translate(-422.965 -1446.959)" fill="#e5eaeb"/>
        <path id="Path_1053" data-name="Path 1053" d="M506.24,1547.521a3.217,3.217,0,1,1-3.217,3.217A3.217,3.217,0,0,1,506.24,1547.521Z" transform="translate(-422.965 -1431.931)" fill="#e5eaeb"/>
        <path id="Path_1054" data-name="Path 1054" d="M506.24,1515.707a3.217,3.217,0,1,1-3.217,3.218A3.217,3.217,0,0,1,506.24,1515.707Z" transform="translate(-422.965 -1416.904)" fill="#e5eaeb"/>
        <path id="Path_1055" data-name="Path 1055" d="M506.24,1483.9a3.217,3.217,0,1,1-3.217,3.216A3.216,3.216,0,0,1,506.24,1483.9Z" transform="translate(-422.965 -1401.877)" fill="#e5eaeb"/>
        <path id="Path_1056" data-name="Path 1056" d="M506.24,1452.08a3.217,3.217,0,1,1-3.217,3.218A3.217,3.217,0,0,1,506.24,1452.08Z" transform="translate(-422.965 -1386.849)" fill="#e5eaeb"/>
        <path id="Path_1057" data-name="Path 1057" d="M506.24,1420.268a3.216,3.216,0,1,1-3.217,3.216A3.216,3.216,0,0,1,506.24,1420.268Z" transform="translate(-422.965 -1371.822)" fill="#e5eaeb"/>
        <path id="Path_1058" data-name="Path 1058" d="M506.24,1388.453a3.217,3.217,0,1,1-3.217,3.217A3.217,3.217,0,0,1,506.24,1388.453Z" transform="translate(-422.965 -1356.793)" fill="#e5eaeb"/>
        <path id="Path_1059" data-name="Path 1059" d="M506.24,1356.64a3.217,3.217,0,1,1-3.217,3.216A3.216,3.216,0,0,1,506.24,1356.64Z" transform="translate(-422.965 -1341.766)" fill="#e5eaeb"/>
        <path id="Path_1060" data-name="Path 1060" d="M506.24,1324.826a3.217,3.217,0,1,1-3.217,3.217A3.217,3.217,0,0,1,506.24,1324.826Z" transform="translate(-422.965 -1326.739)" fill="#e5eaeb"/>
        <path id="Path_1061" data-name="Path 1061" d="M538.053,1706.589a3.217,3.217,0,1,1-3.216,3.217A3.217,3.217,0,0,1,538.053,1706.589Z" transform="translate(-437.993 -1507.069)" fill="#e5eaeb"/>
        <path id="Path_1062" data-name="Path 1062" d="M538.053,1674.775a3.217,3.217,0,1,1-3.216,3.217A3.217,3.217,0,0,1,538.053,1674.775Z" transform="translate(-437.993 -1492.042)" fill="#e5eaeb"/>
        <path id="Path_1063" data-name="Path 1063" d="M538.053,1642.962a3.217,3.217,0,1,1-3.216,3.217A3.217,3.217,0,0,1,538.053,1642.962Z" transform="translate(-437.993 -1477.014)" fill="#e5eaeb"/>
        <path id="Path_1064" data-name="Path 1064" d="M538.053,1611.148a3.217,3.217,0,1,1-3.216,3.217A3.217,3.217,0,0,1,538.053,1611.148Z" transform="translate(-437.993 -1461.986)" fill="#e5eaeb"/>
        <path id="Path_1065" data-name="Path 1065" d="M538.053,1579.335a3.217,3.217,0,1,1-3.216,3.217A3.217,3.217,0,0,1,538.053,1579.335Z" transform="translate(-437.993 -1446.959)" fill="#e5eaeb"/>
        <path id="Path_1066" data-name="Path 1066" d="M538.053,1547.521a3.217,3.217,0,1,1-3.216,3.217A3.217,3.217,0,0,1,538.053,1547.521Z" transform="translate(-437.993 -1431.931)" fill="#e5eaeb"/>
        <path id="Path_1067" data-name="Path 1067" d="M538.053,1515.707a3.217,3.217,0,1,1-3.216,3.218A3.218,3.218,0,0,1,538.053,1515.707Z" transform="translate(-437.993 -1416.904)" fill="#e5eaeb"/>
        <path id="Path_1068" data-name="Path 1068" d="M538.053,1483.9a3.217,3.217,0,1,1-3.216,3.216A3.216,3.216,0,0,1,538.053,1483.9Z" transform="translate(-437.993 -1401.877)" fill="#e5eaeb"/>
        <path id="Path_1069" data-name="Path 1069" d="M538.053,1452.08a3.217,3.217,0,1,1-3.216,3.218A3.217,3.217,0,0,1,538.053,1452.08Z" transform="translate(-437.993 -1386.849)" fill="#e5eaeb"/>
        <path id="Path_1070" data-name="Path 1070" d="M538.053,1420.268a3.216,3.216,0,1,1-3.216,3.216A3.216,3.216,0,0,1,538.053,1420.268Z" transform="translate(-437.993 -1371.822)" fill="#e5eaeb"/>
        <path id="Path_1071" data-name="Path 1071" d="M538.053,1388.453a3.217,3.217,0,1,1-3.216,3.217A3.218,3.218,0,0,1,538.053,1388.453Z" transform="translate(-437.993 -1356.793)" fill="#e5eaeb"/>
        <path id="Path_1072" data-name="Path 1072" d="M538.053,1356.64a3.217,3.217,0,1,1-3.216,3.216A3.217,3.217,0,0,1,538.053,1356.64Z" transform="translate(-437.993 -1341.766)" fill="#e5eaeb"/>
        <path id="Path_1073" data-name="Path 1073" d="M538.053,1324.826a3.217,3.217,0,1,1-3.216,3.217A3.217,3.217,0,0,1,538.053,1324.826Z" transform="translate(-437.993 -1326.739)" fill="#e5eaeb"/>
        <path id="Path_1074" data-name="Path 1074" d="M569.867,1706.589a3.217,3.217,0,1,1-3.217,3.217A3.217,3.217,0,0,1,569.867,1706.589Z" transform="translate(-453.02 -1507.069)" fill="#e5eaeb"/>
        <circle id="Ellipse_37" data-name="Ellipse 37" cx="3.217" cy="3.217" r="3.217" transform="translate(113.63 182.734)" fill="#e5eaeb"/>
        <circle id="Ellipse_38" data-name="Ellipse 38" cx="3.217" cy="3.217" r="3.217" transform="translate(113.63 165.948)" fill="#e5eaeb"/>
        <circle id="Ellipse_39" data-name="Ellipse 39" cx="3.217" cy="3.217" r="3.217" transform="translate(113.63 149.162)" fill="#e5eaeb"/>
        <path id="Path_1075" data-name="Path 1075" d="M569.867,1579.335a3.217,3.217,0,1,1-3.217,3.217A3.217,3.217,0,0,1,569.867,1579.335Z" transform="translate(-453.02 -1446.959)" fill="#e5eaeb"/>
        <path id="Path_1076" data-name="Path 1076" d="M569.867,1547.521a3.217,3.217,0,1,1-3.217,3.217A3.217,3.217,0,0,1,569.867,1547.521Z" transform="translate(-453.02 -1431.931)" fill="#e5eaeb"/>
        <path id="Path_1077" data-name="Path 1077" d="M569.867,1515.707a3.217,3.217,0,1,1-3.217,3.218A3.218,3.218,0,0,1,569.867,1515.707Z" transform="translate(-453.02 -1416.904)" fill="#e5eaeb"/>
        <path id="Path_1078" data-name="Path 1078" d="M569.867,1483.9a3.217,3.217,0,1,1-3.217,3.216A3.216,3.216,0,0,1,569.867,1483.9Z" transform="translate(-453.02 -1401.877)" fill="#e5eaeb"/>
        <path id="Path_1079" data-name="Path 1079" d="M569.867,1452.08a3.217,3.217,0,1,1-3.217,3.218A3.217,3.217,0,0,1,569.867,1452.08Z" transform="translate(-453.02 -1386.849)" fill="#e5eaeb"/>
        <path id="Path_1080" data-name="Path 1080" d="M569.867,1420.268a3.216,3.216,0,1,1-3.217,3.216A3.216,3.216,0,0,1,569.867,1420.268Z" transform="translate(-453.02 -1371.822)" fill="#e5eaeb"/>
        <circle id="Ellipse_40" data-name="Ellipse 40" cx="3.217" cy="3.217" r="3.217" transform="translate(113.63 31.66)" fill="#e5eaeb"/>
        <circle id="Ellipse_41" data-name="Ellipse 41" cx="3.217" cy="3.217" r="3.217" transform="translate(113.63 14.874)" fill="#e5eaeb"/>
        <path id="Path_1081" data-name="Path 1081" d="M569.867,1324.826a3.217,3.217,0,1,1-3.217,3.217A3.217,3.217,0,0,1,569.867,1324.826Z" transform="translate(-453.02 -1326.739)" fill="#e5eaeb"/>
        <path id="Path_1082" data-name="Path 1082" d="M601.68,1706.589a3.217,3.217,0,1,1-3.216,3.217A3.216,3.216,0,0,1,601.68,1706.589Z" transform="translate(-468.048 -1507.069)" fill="#e5eaeb"/>
        <path id="Path_1083" data-name="Path 1083" d="M601.68,1674.775a3.217,3.217,0,1,1-3.216,3.217A3.217,3.217,0,0,1,601.68,1674.775Z" transform="translate(-468.048 -1492.042)" fill="#e5eaeb"/>
        <path id="Path_1084" data-name="Path 1084" d="M601.68,1642.962a3.217,3.217,0,1,1-3.216,3.217A3.217,3.217,0,0,1,601.68,1642.962Z" transform="translate(-468.048 -1477.014)" fill="#e5eaeb"/>
        <path id="Path_1085" data-name="Path 1085" d="M601.68,1611.148a3.217,3.217,0,1,1-3.216,3.217A3.217,3.217,0,0,1,601.68,1611.148Z" transform="translate(-468.048 -1461.986)" fill="#e5eaeb"/>
        <path id="Path_1086" data-name="Path 1086" d="M601.68,1579.335a3.217,3.217,0,1,1-3.216,3.217A3.217,3.217,0,0,1,601.68,1579.335Z" transform="translate(-468.048 -1446.959)" fill="#e5eaeb"/>
        <path id="Path_1087" data-name="Path 1087" d="M601.68,1547.521a3.217,3.217,0,1,1-3.216,3.217A3.217,3.217,0,0,1,601.68,1547.521Z" transform="translate(-468.048 -1431.931)" fill="#e5eaeb"/>
        <path id="Path_1088" data-name="Path 1088" d="M601.68,1515.707a3.217,3.217,0,1,1-3.216,3.218A3.217,3.217,0,0,1,601.68,1515.707Z" transform="translate(-468.048 -1416.904)" fill="#e5eaeb"/>
        <path id="Path_1089" data-name="Path 1089" d="M601.68,1483.9a3.217,3.217,0,1,1-3.216,3.216A3.216,3.216,0,0,1,601.68,1483.9Z" transform="translate(-468.048 -1401.877)" fill="#e5eaeb"/>
        <path id="Path_1090" data-name="Path 1090" d="M601.68,1452.08a3.217,3.217,0,1,1-3.216,3.218A3.217,3.217,0,0,1,601.68,1452.08Z" transform="translate(-468.048 -1386.849)" fill="#e5eaeb"/>
        <path id="Path_1091" data-name="Path 1091" d="M601.68,1420.268a3.216,3.216,0,1,1-3.216,3.216A3.216,3.216,0,0,1,601.68,1420.268Z" transform="translate(-468.048 -1371.822)" fill="#e5eaeb"/>
        <path id="Path_1092" data-name="Path 1092" d="M601.68,1388.453a3.217,3.217,0,1,1-3.216,3.217A3.217,3.217,0,0,1,601.68,1388.453Z" transform="translate(-468.048 -1356.793)" fill="#e5eaeb"/>
        <path id="Path_1093" data-name="Path 1093" d="M601.68,1356.64a3.217,3.217,0,1,1-3.216,3.216A3.216,3.216,0,0,1,601.68,1356.64Z" transform="translate(-468.048 -1341.766)" fill="#e5eaeb"/>
        <path id="Path_1094" data-name="Path 1094" d="M601.68,1324.826a3.217,3.217,0,1,1-3.216,3.217A3.217,3.217,0,0,1,601.68,1324.826Z" transform="translate(-468.048 -1326.739)" fill="#e5eaeb"/>
        <path id="Path_1095" data-name="Path 1095" d="M633.494,1706.589a3.217,3.217,0,1,1-3.217,3.217A3.217,3.217,0,0,1,633.494,1706.589Z" transform="translate(-483.075 -1507.069)" fill="#e5eaeb"/>
        <circle id="Ellipse_42" data-name="Ellipse 42" cx="3.217" cy="3.217" r="3.217" transform="translate(147.202 182.734)" fill="#e5eaeb"/>
        <circle id="Ellipse_43" data-name="Ellipse 43" cx="3.217" cy="3.217" r="3.217" transform="translate(147.202 165.948)" fill="#e5eaeb"/>
        <circle id="Ellipse_44" data-name="Ellipse 44" cx="3.217" cy="3.217" r="3.217" transform="translate(147.202 149.162)" fill="#e5eaeb"/>
        <path id="Path_1096" data-name="Path 1096" d="M633.494,1579.335a3.217,3.217,0,1,1-3.217,3.217A3.217,3.217,0,0,1,633.494,1579.335Z" transform="translate(-483.075 -1446.959)" fill="#e5eaeb"/>
        <path id="Path_1097" data-name="Path 1097" d="M633.494,1547.521a3.217,3.217,0,1,1-3.217,3.217A3.217,3.217,0,0,1,633.494,1547.521Z" transform="translate(-483.075 -1431.931)" fill="#e5eaeb"/>
        <path id="Path_1098" data-name="Path 1098" d="M633.494,1515.707a3.217,3.217,0,1,1-3.217,3.218A3.218,3.218,0,0,1,633.494,1515.707Z" transform="translate(-483.075 -1416.904)" fill="#e5eaeb"/>
        <path id="Path_1099" data-name="Path 1099" d="M633.494,1483.9a3.217,3.217,0,1,1-3.217,3.216A3.216,3.216,0,0,1,633.494,1483.9Z" transform="translate(-483.075 -1401.877)" fill="#e5eaeb"/>
        <path id="Path_1100" data-name="Path 1100" d="M633.494,1452.08a3.217,3.217,0,1,1-3.217,3.218A3.217,3.217,0,0,1,633.494,1452.08Z" transform="translate(-483.075 -1386.849)" fill="#e5eaeb"/>
        <path id="Path_1101" data-name="Path 1101" d="M633.494,1420.268a3.216,3.216,0,1,1-3.217,3.216A3.216,3.216,0,0,1,633.494,1420.268Z" transform="translate(-483.075 -1371.822)" fill="#e5eaeb"/>
        <circle id="Ellipse_45" data-name="Ellipse 45" cx="3.217" cy="3.217" r="3.217" transform="translate(147.202 31.66)" fill="#e5eaeb"/>
        <circle id="Ellipse_46" data-name="Ellipse 46" cx="3.217" cy="3.217" r="3.217" transform="translate(147.202 14.874)" fill="#e5eaeb"/>
        <path id="Path_1102" data-name="Path 1102" d="M633.494,1324.826a3.217,3.217,0,1,1-3.217,3.217A3.217,3.217,0,0,1,633.494,1324.826Z" transform="translate(-483.075 -1326.739)" fill="#e5eaeb"/>
        <path id="Path_1103" data-name="Path 1103" d="M665.308,1706.589a3.217,3.217,0,1,1-3.217,3.217A3.216,3.216,0,0,1,665.308,1706.589Z" transform="translate(-498.103 -1507.069)" fill="#e5eaeb"/>
        <circle id="Ellipse_47" data-name="Ellipse 47" cx="3.217" cy="3.217" r="3.217" transform="translate(163.988 182.734)" fill="#e5eaeb"/>
        <circle id="Ellipse_48" data-name="Ellipse 48" cx="3.217" cy="3.217" r="3.217" transform="translate(163.988 165.948)" fill="#e5eaeb"/>
        <circle id="Ellipse_49" data-name="Ellipse 49" cx="3.217" cy="3.217" r="3.217" transform="translate(163.988 149.162)" fill="#e5eaeb"/>
        <path id="Path_1104" data-name="Path 1104" d="M665.308,1579.335a3.217,3.217,0,1,1-3.217,3.217A3.217,3.217,0,0,1,665.308,1579.335Z" transform="translate(-498.103 -1446.959)" fill="#e5eaeb"/>
        <path id="Path_1105" data-name="Path 1105" d="M665.308,1547.521a3.217,3.217,0,1,1-3.217,3.217A3.217,3.217,0,0,1,665.308,1547.521Z" transform="translate(-498.103 -1431.931)" fill="#e5eaeb"/>
        <path id="Path_1106" data-name="Path 1106" d="M665.308,1515.707a3.217,3.217,0,1,1-3.217,3.218A3.217,3.217,0,0,1,665.308,1515.707Z" transform="translate(-498.103 -1416.904)" fill="#e5eaeb"/>
        <path id="Path_1107" data-name="Path 1107" d="M665.308,1483.9a3.217,3.217,0,1,1-3.217,3.216A3.216,3.216,0,0,1,665.308,1483.9Z" transform="translate(-498.103 -1401.877)" fill="#e5eaeb"/>
        <path id="Path_1108" data-name="Path 1108" d="M665.308,1452.08a3.217,3.217,0,1,1-3.217,3.218A3.217,3.217,0,0,1,665.308,1452.08Z" transform="translate(-498.103 -1386.849)" fill="#e5eaeb"/>
        <path id="Path_1109" data-name="Path 1109" d="M665.308,1420.268a3.216,3.216,0,1,1-3.217,3.216A3.216,3.216,0,0,1,665.308,1420.268Z" transform="translate(-498.103 -1371.822)" fill="#e5eaeb"/>
        <circle id="Ellipse_50" data-name="Ellipse 50" cx="3.217" cy="3.217" r="3.217" transform="translate(163.988 31.66)" fill="#e5eaeb"/>
        <circle id="Ellipse_51" data-name="Ellipse 51" cx="3.217" cy="3.217" r="3.217" transform="translate(163.988 14.874)" fill="#e5eaeb"/>
        <path id="Path_1110" data-name="Path 1110" d="M665.308,1324.826a3.217,3.217,0,1,1-3.217,3.217A3.217,3.217,0,0,1,665.308,1324.826Z" transform="translate(-498.103 -1326.739)" fill="#e5eaeb"/>
        <path id="Path_1111" data-name="Path 1111" d="M697.121,1706.589a3.217,3.217,0,1,1-3.217,3.217A3.217,3.217,0,0,1,697.121,1706.589Z" transform="translate(-513.13 -1507.069)" fill="#e5eaeb"/>
        <circle id="Ellipse_52" data-name="Ellipse 52" cx="3.217" cy="3.217" r="3.217" transform="translate(180.774 182.734)" fill="#e5eaeb"/>
        <circle id="Ellipse_53" data-name="Ellipse 53" cx="3.217" cy="3.217" r="3.217" transform="translate(180.774 165.948)" fill="#e5eaeb"/>
        <circle id="Ellipse_54" data-name="Ellipse 54" cx="3.217" cy="3.217" r="3.217" transform="translate(180.774 149.162)" fill="#e5eaeb"/>
        <path id="Path_1112" data-name="Path 1112" d="M697.121,1579.335a3.217,3.217,0,1,1-3.217,3.217A3.217,3.217,0,0,1,697.121,1579.335Z" transform="translate(-513.13 -1446.959)" fill="#e5eaeb"/>
        <path id="Path_1113" data-name="Path 1113" d="M697.121,1547.521a3.217,3.217,0,1,1-3.217,3.217A3.217,3.217,0,0,1,697.121,1547.521Z" transform="translate(-513.13 -1431.931)" fill="#e5eaeb"/>
        <path id="Path_1114" data-name="Path 1114" d="M697.121,1515.707a3.217,3.217,0,1,1-3.217,3.218A3.218,3.218,0,0,1,697.121,1515.707Z" transform="translate(-513.13 -1416.904)" fill="#e5eaeb"/>
        <path id="Path_1115" data-name="Path 1115" d="M697.121,1483.9a3.217,3.217,0,1,1-3.217,3.216A3.216,3.216,0,0,1,697.121,1483.9Z" transform="translate(-513.13 -1401.877)" fill="#e5eaeb"/>
        <path id="Path_1116" data-name="Path 1116" d="M697.121,1452.08a3.217,3.217,0,1,1-3.217,3.218A3.217,3.217,0,0,1,697.121,1452.08Z" transform="translate(-513.13 -1386.849)" fill="#e5eaeb"/>
        <path id="Path_1117" data-name="Path 1117" d="M697.121,1420.268a3.216,3.216,0,1,1-3.217,3.216A3.216,3.216,0,0,1,697.121,1420.268Z" transform="translate(-513.13 -1371.822)" fill="#e5eaeb"/>
        <circle id="Ellipse_55" data-name="Ellipse 55" cx="3.217" cy="3.217" r="3.217" transform="translate(180.774 31.66)" fill="#e5eaeb"/>
        <circle id="Ellipse_56" data-name="Ellipse 56" cx="3.217" cy="3.217" r="3.217" transform="translate(180.774 14.874)" fill="#e5eaeb"/>
        <path id="Path_1118" data-name="Path 1118" d="M697.121,1324.826a3.217,3.217,0,1,1-3.217,3.217A3.217,3.217,0,0,1,697.121,1324.826Z" transform="translate(-513.13 -1326.739)" fill="#e5eaeb"/>
        <path id="Path_1119" data-name="Path 1119" d="M728.935,1706.589a3.217,3.217,0,1,1-3.217,3.217A3.216,3.216,0,0,1,728.935,1706.589Z" transform="translate(-528.158 -1507.069)" fill="#e5eaeb"/>
        <path id="Path_1120" data-name="Path 1120" d="M728.935,1674.775a3.217,3.217,0,1,1-3.217,3.217A3.217,3.217,0,0,1,728.935,1674.775Z" transform="translate(-528.158 -1492.042)" fill="#e5eaeb"/>
        <path id="Path_1121" data-name="Path 1121" d="M728.935,1642.962a3.217,3.217,0,1,1-3.217,3.217A3.216,3.216,0,0,1,728.935,1642.962Z" transform="translate(-528.158 -1477.014)" fill="#e5eaeb"/>
        <path id="Path_1122" data-name="Path 1122" d="M728.935,1611.148a3.217,3.217,0,1,1-3.217,3.217A3.217,3.217,0,0,1,728.935,1611.148Z" transform="translate(-528.158 -1461.986)" fill="#e5eaeb"/>
        <path id="Path_1123" data-name="Path 1123" d="M728.935,1579.335a3.217,3.217,0,1,1-3.217,3.217A3.217,3.217,0,0,1,728.935,1579.335Z" transform="translate(-528.158 -1446.959)" fill="#e5eaeb"/>
        <path id="Path_1124" data-name="Path 1124" d="M728.935,1547.521a3.217,3.217,0,1,1-3.217,3.217A3.217,3.217,0,0,1,728.935,1547.521Z" transform="translate(-528.158 -1431.931)" fill="#e5eaeb"/>
        <path id="Path_1125" data-name="Path 1125" d="M728.935,1515.707a3.217,3.217,0,1,1-3.217,3.218A3.217,3.217,0,0,1,728.935,1515.707Z" transform="translate(-528.158 -1416.904)" fill="#e5eaeb"/>
        <path id="Path_1126" data-name="Path 1126" d="M728.935,1483.9a3.217,3.217,0,1,1-3.217,3.216A3.216,3.216,0,0,1,728.935,1483.9Z" transform="translate(-528.158 -1401.877)" fill="#e5eaeb"/>
        <path id="Path_1127" data-name="Path 1127" d="M728.935,1452.08a3.217,3.217,0,1,1-3.217,3.218A3.217,3.217,0,0,1,728.935,1452.08Z" transform="translate(-528.158 -1386.849)" fill="#e5eaeb"/>
        <path id="Path_1128" data-name="Path 1128" d="M728.935,1420.268a3.216,3.216,0,1,1-3.217,3.216A3.216,3.216,0,0,1,728.935,1420.268Z" transform="translate(-528.158 -1371.822)" fill="#e5eaeb"/>
        <path id="Path_1129" data-name="Path 1129" d="M728.935,1388.453a3.217,3.217,0,1,1-3.217,3.217A3.217,3.217,0,0,1,728.935,1388.453Z" transform="translate(-528.158 -1356.793)" fill="#e5eaeb"/>
        <path id="Path_1130" data-name="Path 1130" d="M728.935,1356.64a3.217,3.217,0,1,1-3.217,3.216A3.216,3.216,0,0,1,728.935,1356.64Z" transform="translate(-528.158 -1341.766)" fill="#e5eaeb"/>
        <path id="Path_1131" data-name="Path 1131" d="M728.935,1324.826a3.217,3.217,0,1,1-3.217,3.217A3.217,3.217,0,0,1,728.935,1324.826Z" transform="translate(-528.158 -1326.739)" fill="#e5eaeb"/>
      </g>
    </g>
  </g>
</svg>
