<svg xmlns="http://www.w3.org/2000/svg" xmlns:xlink="http://www.w3.org/1999/xlink" width="325.949" height="322.123" viewBox="0 0 325.949 322.123">
  <defs>
    <clipPath id="clip-path">
      <path id="Path_1971" data-name="Path 1971" d="M1590.832,79.412c3.471,1.916,6.881,3.909,10.159,6.06a77.353,77.353,0,0,1,9.249,7.119c17.307,15.517,27.449,38.345,29.876,61.841a107.293,107.293,0,0,1,.543,13.453c-.59,24.9-4.983,50.546-21.813,70.44-20.326,23.81-51.271,33.14-80.912,30.981a96.052,96.052,0,0,1-84.333-56.347,96.932,96.932,0,0,1-5.1-10.293,94.067,94.067,0,0,1-6.405-22.856c-6.507-43.516,18.442-80.7,53.919-98.627,4.434-2.24,9-4.228,13.562-6.151,20.772-9.8,45.673-12.7,67.1-2.852A144.977,144.977,0,0,1,1590.832,79.412Z" transform="translate(-1441.065 -66.08)" fill="none"/>
    </clipPath>
  </defs>
  <g id="Group_614" data-name="Group 614" transform="translate(-1509.374 -3388.197)">
    <path id="Path_2060" data-name="Path 2060" d="M1686.656,146.417c13.513.183,26.335,4.41,38.054,10.667a128.283,128.283,0,0,1,11.336,6.859c17.793,11.978,35.781,25.408,43.935,46.274,7.915,19.426,6.236,41.012-1.052,60.3-.91,3.554-1.61,7.231-2.455,10.871-5.068,21.839-15.86,42.03-35.826,56.42-27.533,19.811-61.06,19.761-88.86,6.43a103.831,103.831,0,0,1-11.542-6.483c-46.137-21.771-69.881-81.25-44.761-127.09a93.085,93.085,0,0,1,5.093-10.265,100.949,100.949,0,0,1,21.88-26.237c3.478-2.981,7.1-5.779,10.741-8.479,11.035-8.231,23.267-15.187,36.9-17.622A91.638,91.638,0,0,1,1686.656,146.417Z" transform="translate(50.12 3356.752)" fill="#82c5de"/>
    <path id="Path_2062" data-name="Path 2062" d="M1346.634,56.117c.727-5.4,4.688-9.724,9.636-12.248a13.982,13.982,0,0,1,6.583-1.544,15.789,15.789,0,0,1,2.213.182c4.8-.071,8.231,2,11.3,6.146,2.7,3.54,4.436,7.081,4.018,11.248a17.507,17.507,0,0,1-.417,2.686,17.057,17.057,0,0,1-7.853,10.825,17.611,17.611,0,0,1-11.953,1.946,16.317,16.317,0,0,1-2.224-.557,15.834,15.834,0,0,1-2.147-.88,17.736,17.736,0,0,1-1.98-1.158,17.33,17.33,0,0,1-1.805-1.4,16.642,16.642,0,0,1-5.593-12.453A17.278,17.278,0,0,1,1346.634,56.117Z" transform="translate(162.96 3405.922)" fill="#82c5de"/>
    <path id="Path_2061" data-name="Path 2061" d="M1520.283,230.987c46-5.5,81.019,35.028,91.556,76.331a127.622,127.622,0,0,1,2.24,13.859,119.494,119.494,0,0,1-2.858,42.067,102.916,102.916,0,0,1-4.406,13.35c-12.948,40.517-57.078,66.9-98.711,55.1a88.01,88.01,0,0,1-14.932-2.995c-33.812-9.877-59.916-39.277-68.206-73.332a126.7,126.7,0,0,1-2.647-14.786c-10.967-52.261,33.643-95.431,81.4-106.37A115.288,115.288,0,0,1,1520.283,230.987Z" transform="translate(127.897 3167.043)" fill="#f6d1cf"/>
    <path id="Path_2059" data-name="Path 2059" d="M1621.31-70.981c46-5.5,81.019,35.028,91.556,76.332a127.542,127.542,0,0,1,2.24,13.859,119.488,119.488,0,0,1-2.858,42.067,102.911,102.911,0,0,1-4.4,13.35c-12.949,40.517-57.078,66.9-98.711,55.1a88.053,88.053,0,0,1-14.933-2.994c-33.811-9.877-59.917-39.278-68.206-73.333a126.6,126.6,0,0,1-2.646-14.786c-10.967-52.261,33.642-95.431,81.4-106.37A115.23,115.23,0,0,1,1621.31-70.981Z" transform="translate(80.176 3459.681)" fill="#f8f8f8"/>
    <g id="Group_463" data-name="Group 463" transform="translate(1559.315 3460.781)">
      <g id="Group_450" data-name="Group 450" transform="translate(0 0)" clip-path="url(#clip-path)">
        <path id="Path_1953" data-name="Path 1953" d="M1263.555,161.57c12.644-26.143,37.741-14.005,50.385-40.148s-12.454-38.282.19-64.425,37.742-14.005,50.386-40.148-12.453-38.282.191-64.426,37.741-14.005,50.386-40.148-12.454-38.282.19-64.426,37.742-14.006,50.386-40.15-12.453-38.282.191-64.426" transform="translate(-1357.216 86.401)" fill="none" stroke="#96d1bf" stroke-miterlimit="10" stroke-width="2.468"/>
        <path id="Path_1954" data-name="Path 1954" d="M1284.082,171.5c12.644-26.143,37.741-14.005,50.385-40.148s-12.453-38.282.191-64.425,37.742-14.005,50.386-40.148-12.454-38.282.19-64.426,37.742-14,50.386-40.148-12.453-38.282.192-64.425,37.741-14.006,50.385-40.149-12.454-38.282.191-64.426" transform="translate(-1366.912 81.711)" fill="none" stroke="#96d1bf" stroke-miterlimit="10" stroke-width="2.468"/>
        <path id="Path_1955" data-name="Path 1955" d="M1304.608,181.426c12.644-26.143,37.742-14.005,50.386-40.148s-12.454-38.281.191-64.424,37.741-14.005,50.385-40.148-12.453-38.282.19-64.426,37.742-14,50.386-40.148-12.454-38.282.19-64.426,37.742-14.006,50.386-40.149-12.453-38.282.19-64.426" transform="translate(-1376.608 77.022)" fill="none" stroke="#96d1bf" stroke-miterlimit="10" stroke-width="2.468"/>
        <path id="Path_1956" data-name="Path 1956" d="M1325.135,191.353c12.644-26.143,37.742-14.005,50.386-40.148s-12.454-38.282.19-64.425,37.742-14.005,50.386-40.148-12.453-38.282.191-64.426,37.741-14.005,50.385-40.148-12.453-38.282.19-64.426,37.743-14.005,50.386-40.149-12.453-38.282.191-64.426" transform="translate(-1386.304 72.333)" fill="none" stroke="#96d1bf" stroke-miterlimit="10" stroke-width="2.468"/>
        <path id="Path_1957" data-name="Path 1957" d="M1345.662,201.281c12.644-26.143,37.742-14.005,50.386-40.148s-12.453-38.282.191-64.425,37.742-14,50.386-40.148-12.454-38.282.19-64.425,37.742-14.005,50.386-40.148-12.453-38.282.191-64.426,37.742-14.005,50.386-40.149-12.454-38.282.19-64.426" transform="translate(-1396 67.643)" fill="none" stroke="#96d1bf" stroke-miterlimit="10" stroke-width="2.468"/>
        <path id="Path_1958" data-name="Path 1958" d="M1366.19,211.209c12.643-26.143,37.741-14,50.386-40.148s-12.454-38.282.19-64.425,37.741-14.005,50.386-40.148-12.453-38.282.19-64.426,37.742-14,50.386-40.148-12.454-38.282.19-64.426,37.741-14.005,50.386-40.149-12.454-38.282.19-64.426" transform="translate(-1405.697 62.953)" fill="none" stroke="#96d1bf" stroke-miterlimit="10" stroke-width="2.468"/>
        <path id="Path_1959" data-name="Path 1959" d="M1386.716,221.136c12.644-26.143,37.742-14.005,50.386-40.148s-12.454-38.282.19-64.425,37.742-14.005,50.386-40.148-12.454-38.282.19-64.426,37.742-14.005,50.386-40.148-12.453-38.282.19-64.426,37.742-14.006,50.386-40.149-12.453-38.282.192-64.426" transform="translate(-1415.393 58.264)" fill="none" stroke="#96d1bf" stroke-miterlimit="10" stroke-width="2.468"/>
        <path id="Path_1960" data-name="Path 1960" d="M1407.243,231.064c12.644-26.143,37.741-14.005,50.386-40.148s-12.453-38.282.191-64.425,37.741-14.005,50.385-40.148-12.454-38.282.19-64.425,37.741-14.005,50.386-40.148-12.453-38.282.191-64.426,37.742-14.005,50.386-40.149-12.454-38.282.19-64.426" transform="translate(-1425.089 53.575)" fill="none" stroke="#96d1bf" stroke-miterlimit="10" stroke-width="2.468"/>
        <path id="Path_1961" data-name="Path 1961" d="M1427.77,240.991c12.644-26.143,37.742-14,50.386-40.148s-12.454-38.282.19-64.425,37.741-14.005,50.386-40.148-12.453-38.282.191-64.426,37.741-14,50.385-40.148-12.453-38.282.191-64.426,37.742-14.005,50.386-40.149-12.453-38.282.191-64.426" transform="translate(-1434.785 48.885)" fill="none" stroke="#96d1bf" stroke-miterlimit="10" stroke-width="2.468"/>
        <path id="Path_1962" data-name="Path 1962" d="M1448.3,250.919c12.644-26.143,37.741-14,50.386-40.148s-12.453-38.282.19-64.425,37.742-14.005,50.386-40.148-12.454-38.282.19-64.426,37.742-14,50.386-40.148-12.453-38.282.19-64.426,37.742-14.006,50.387-40.149-12.454-38.282.19-64.426" transform="translate(-1444.481 44.196)" fill="none" stroke="#96d1bf" stroke-miterlimit="10" stroke-width="2.468"/>
        <path id="Path_1963" data-name="Path 1963" d="M1468.824,260.847c12.644-26.143,37.742-14.005,50.386-40.148s-12.453-38.282.19-64.425,37.741-14.005,50.386-40.148-12.454-38.282.19-64.426,37.741-14.005,50.386-40.148-12.453-38.282.191-64.426,37.741-14.006,50.386-40.149-12.454-38.282.19-64.426" transform="translate(-1454.177 39.506)" fill="none" stroke="#96d1bf" stroke-miterlimit="10" stroke-width="2.468"/>
        <path id="Path_1964" data-name="Path 1964" d="M1489.351,270.775c12.644-26.143,37.742-14.005,50.386-40.148s-12.454-38.282.19-64.425,37.741-14.005,50.386-40.148-12.453-38.282.19-64.426,37.742-14,50.386-40.148-12.454-38.282.19-64.426,37.742-14.005,50.386-40.149-12.453-38.282.191-64.426" transform="translate(-1463.874 34.817)" fill="none" stroke="#96d1bf" stroke-miterlimit="10" stroke-width="2.468"/>
        <path id="Path_1965" data-name="Path 1965" d="M1509.878,280.7c12.644-26.143,37.741-14,50.386-40.148s-12.454-38.282.19-64.425,37.742-14.005,50.386-40.148-12.454-38.282.19-64.426,37.741-14,50.385-40.148-12.453-38.282.191-64.426,37.742-14.005,50.387-40.149-12.454-38.282.19-64.426" transform="translate(-1473.57 30.127)" fill="none" stroke="#96d1bf" stroke-miterlimit="10" stroke-width="2.468"/>
        <path id="Path_1966" data-name="Path 1966" d="M1530.4,290.63c12.644-26.143,37.742-14,50.386-40.147s-12.454-38.282.19-64.425,37.741-14.005,50.386-40.148-12.454-38.282.191-64.426,37.742-14.005,50.385-40.148-12.453-38.282.191-64.426,37.742-14.005,50.386-40.149-12.454-38.282.19-64.426" transform="translate(-1483.266 25.438)" fill="none" stroke="#96d1bf" stroke-miterlimit="10" stroke-width="2.468"/>
        <path id="Path_1967" data-name="Path 1967" d="M1550.932,300.558c12.644-26.143,37.741-14,50.386-40.148s-12.454-38.282.19-64.425,37.742-14.005,50.386-40.148-12.454-38.282.19-64.426,37.742-14,50.386-40.147-12.454-38.282.19-64.426,37.741-14.005,50.386-40.149-12.453-38.282.191-64.426" transform="translate(-1492.962 20.748)" fill="none" stroke="#96d1bf" stroke-miterlimit="10" stroke-width="2.468"/>
        <path id="Path_1968" data-name="Path 1968" d="M1571.459,310.485c12.644-26.143,37.741-14.005,50.385-40.148s-12.453-38.282.191-64.425,37.741-14.005,50.386-40.148-12.454-38.282.19-64.426,37.741-14,50.385-40.148-12.453-38.282.192-64.426,37.741-14.006,50.386-40.149-12.454-38.282.19-64.426" transform="translate(-1502.658 16.059)" fill="none" stroke="#96d1bf" stroke-miterlimit="10" stroke-width="2.468"/>
        <path id="Path_1969" data-name="Path 1969" d="M1591.985,320.413c12.644-26.143,37.742-14.005,50.386-40.148s-12.454-38.282.19-64.425,37.741-14.005,50.385-40.148-12.453-38.282.191-64.425,37.742-14.005,50.386-40.148-12.453-38.282.191-64.426,37.742-14.006,50.386-40.149-12.453-38.282.19-64.426" transform="translate(-1512.354 11.369)" fill="none" stroke="#96d1bf" stroke-miterlimit="10" stroke-width="2.468"/>
        <path id="Path_1970" data-name="Path 1970" d="M1612.512,330.341c12.644-26.143,37.742-14,50.386-40.148s-12.454-38.282.19-64.425,37.742-14.005,50.386-40.148-12.453-38.282.191-64.425,37.741-14.005,50.386-40.148-12.454-38.282.19-64.426,37.742-14.005,50.386-40.149-12.453-38.282.191-64.426" transform="translate(-1522.05 6.68)" fill="none" stroke="#96d1bf" stroke-miterlimit="10" stroke-width="2.468"/>
      </g>
    </g>
  </g>
</svg>
