<svg xmlns="http://www.w3.org/2000/svg" xmlns:xlink="http://www.w3.org/1999/xlink" width="295.835" height="334.063" viewBox="0 0 295.835 334.063">
  <defs>
    <clipPath id="clip-path">
      <path id="Path_987" data-name="Path 987" d="M941.735,1746.266c46-5.5,81.019,35.028,91.555,76.332a127.479,127.479,0,0,1,2.24,13.859,119.509,119.509,0,0,1-2.858,42.067,102.857,102.857,0,0,1-4.406,13.35c-12.948,40.517-57.078,66.9-98.71,55.1a88,88,0,0,1-14.933-2.994c-33.811-9.877-64.419-30.167-72.708-64.222-1.184-4.865-3.7-12.454-4.3-17.428-10.967-52.261,39.8-101.9,87.55-112.838A115.18,115.18,0,0,1,941.735,1746.266Z" transform="translate(-836.108 -1745.762)" fill="none"/>
    </clipPath>
  </defs>
  <g id="Group_611" data-name="Group 611" transform="translate(23.487 -2312.021)">
    <path id="Path_624" data-name="Path 624" d="M877.48,1631.172c31.336-.621,59.4,18.086,78.1,43.988a80.443,80.443,0,0,1,14.572,36.058,91.039,91.039,0,0,1,.915,12.74c4.628,27.23,2.469,56.97-18.4,78.076-17.748,18.467-42.93,23.024-66.985,24.315a100.394,100.394,0,0,1-15.636,0c-26.023-2.033-51.355-14.118-68.444-35.1-15.349-19.186-22.065-42.451-21.587-66.23a93.972,93.972,0,0,1,1.208-13.126,91.636,91.636,0,0,1,3.11-12.981,102.433,102.433,0,0,1,4.838-12.273,100.549,100.549,0,0,1,6.353-11.491A95.712,95.712,0,0,1,861.4,1632.39,99.317,99.317,0,0,1,877.48,1631.172Z" transform="translate(-803.487 750.417)" fill="#f6d1cf"/>
    <path id="Path_665" data-name="Path 665" d="M1072.387,1499.842c46-5.5,81.019,35.028,91.556,76.331a127.492,127.492,0,0,1,2.239,13.859,119.5,119.5,0,0,1-2.857,42.067,103.038,103.038,0,0,1-4.406,13.35c-12.948,40.517-57.078,66.9-98.711,55.1a88.009,88.009,0,0,1-14.933-2.995c-33.811-9.877-59.916-39.277-68.206-73.333a126.68,126.68,0,0,1-2.647-14.785c-10.967-52.261,33.642-95.431,81.4-106.37A115.218,115.218,0,0,1,1072.387,1499.842Z" transform="translate(-894.534 812.683)" fill="#fdfdfd"/>
    <g id="Group_433" data-name="Group 433" transform="translate(6.117 2442.044)">
      <g id="Group_432" data-name="Group 432" transform="translate(0 0)" clip-path="url(#clip-path)">
        <path id="Path_833" data-name="Path 833" d="M831.985,2123.9a3.217,3.217,0,1,1-3.216,3.217A3.217,3.217,0,0,1,831.985,2123.9Z" transform="translate(-832.641 -1924.38)" fill="#82c5de"/>
        <path id="Path_834" data-name="Path 834" d="M831.985,2092.087a3.217,3.217,0,1,1-3.216,3.217A3.217,3.217,0,0,1,831.985,2092.087Z" transform="translate(-832.641 -1909.353)" fill="#82c5de"/>
        <path id="Path_835" data-name="Path 835" d="M831.985,2060.273a3.217,3.217,0,1,1-3.216,3.217A3.217,3.217,0,0,1,831.985,2060.273Z" transform="translate(-832.641 -1894.325)" fill="#82c5de"/>
        <path id="Path_836" data-name="Path 836" d="M831.985,2028.46a3.217,3.217,0,1,1-3.216,3.217A3.217,3.217,0,0,1,831.985,2028.46Z" transform="translate(-832.641 -1879.298)" fill="#82c5de"/>
        <path id="Path_837" data-name="Path 837" d="M831.985,1996.646a3.217,3.217,0,1,1-3.216,3.217A3.217,3.217,0,0,1,831.985,1996.646Z" transform="translate(-832.641 -1864.27)" fill="#82c5de"/>
        <path id="Path_838" data-name="Path 838" d="M831.985,1964.833a3.217,3.217,0,1,1-3.216,3.217A3.217,3.217,0,0,1,831.985,1964.833Z" transform="translate(-832.641 -1849.243)" fill="#82c5de"/>
        <path id="Path_839" data-name="Path 839" d="M831.985,1933.02a3.217,3.217,0,1,1-3.216,3.216A3.217,3.217,0,0,1,831.985,1933.02Z" transform="translate(-832.641 -1834.216)" fill="#82c5de"/>
        <path id="Path_840" data-name="Path 840" d="M831.985,1901.2a3.217,3.217,0,1,1-3.216,3.218A3.217,3.217,0,0,1,831.985,1901.2Z" transform="translate(-832.641 -1819.188)" fill="#82c5de"/>
        <path id="Path_841" data-name="Path 841" d="M831.985,1869.393a3.217,3.217,0,1,1-3.216,3.216A3.216,3.216,0,0,1,831.985,1869.393Z" transform="translate(-832.641 -1804.161)" fill="#82c5de"/>
        <path id="Path_842" data-name="Path 842" d="M831.985,1837.578a3.217,3.217,0,1,1-3.216,3.218A3.218,3.218,0,0,1,831.985,1837.578Z" transform="translate(-832.641 -1789.133)" fill="#82c5de"/>
        <path id="Path_843" data-name="Path 843" d="M831.985,1805.766a3.216,3.216,0,1,1-3.216,3.216A3.216,3.216,0,0,1,831.985,1805.766Z" transform="translate(-832.641 -1774.106)" fill="#82c5de"/>
        <path id="Path_844" data-name="Path 844" d="M831.985,1773.951a3.217,3.217,0,1,1-3.216,3.217A3.218,3.218,0,0,1,831.985,1773.951Z" transform="translate(-832.641 -1759.078)" fill="#82c5de"/>
        <path id="Path_845" data-name="Path 845" d="M831.985,1742.138a3.217,3.217,0,1,1-3.216,3.217A3.217,3.217,0,0,1,831.985,1742.138Z" transform="translate(-832.641 -1744.05)" fill="#82c5de"/>
        <path id="Path_846" data-name="Path 846" d="M863.8,2123.9a3.217,3.217,0,1,1-3.217,3.217A3.217,3.217,0,0,1,863.8,2123.9Z" transform="translate(-847.668 -1924.38)" fill="#82c5de"/>
        <path id="Path_847" data-name="Path 847" d="M863.8,2092.087a3.217,3.217,0,1,1-3.217,3.217A3.216,3.216,0,0,1,863.8,2092.087Z" transform="translate(-847.668 -1909.353)" fill="#82c5de"/>
        <path id="Path_848" data-name="Path 848" d="M863.8,2060.273a3.217,3.217,0,1,1-3.217,3.217A3.217,3.217,0,0,1,863.8,2060.273Z" transform="translate(-847.668 -1894.325)" fill="#82c5de"/>
        <path id="Path_849" data-name="Path 849" d="M863.8,2028.46a3.217,3.217,0,1,1-3.217,3.217A3.217,3.217,0,0,1,863.8,2028.46Z" transform="translate(-847.668 -1879.298)" fill="#82c5de"/>
        <path id="Path_850" data-name="Path 850" d="M863.8,1996.646a3.217,3.217,0,1,1-3.217,3.217A3.217,3.217,0,0,1,863.8,1996.646Z" transform="translate(-847.668 -1864.27)" fill="#82c5de"/>
        <path id="Path_851" data-name="Path 851" d="M863.8,1964.833a3.217,3.217,0,1,1-3.217,3.217A3.217,3.217,0,0,1,863.8,1964.833Z" transform="translate(-847.668 -1849.243)" fill="#82c5de"/>
        <path id="Path_852" data-name="Path 852" d="M863.8,1933.02a3.217,3.217,0,1,1-3.217,3.216A3.216,3.216,0,0,1,863.8,1933.02Z" transform="translate(-847.668 -1834.216)" fill="#82c5de"/>
        <path id="Path_853" data-name="Path 853" d="M863.8,1901.2a3.217,3.217,0,1,1-3.217,3.218A3.217,3.217,0,0,1,863.8,1901.2Z" transform="translate(-847.668 -1819.188)" fill="#82c5de"/>
        <path id="Path_854" data-name="Path 854" d="M863.8,1869.393a3.217,3.217,0,1,1-3.217,3.216A3.216,3.216,0,0,1,863.8,1869.393Z" transform="translate(-847.668 -1804.161)" fill="#82c5de"/>
        <path id="Path_855" data-name="Path 855" d="M863.8,1837.578a3.217,3.217,0,1,1-3.217,3.218A3.217,3.217,0,0,1,863.8,1837.578Z" transform="translate(-847.668 -1789.133)" fill="#82c5de"/>
        <path id="Path_856" data-name="Path 856" d="M863.8,1805.766a3.216,3.216,0,1,1-3.217,3.216A3.216,3.216,0,0,1,863.8,1805.766Z" transform="translate(-847.668 -1774.106)" fill="#82c5de"/>
        <path id="Path_857" data-name="Path 857" d="M863.8,1773.951a3.217,3.217,0,1,1-3.217,3.217A3.217,3.217,0,0,1,863.8,1773.951Z" transform="translate(-847.668 -1759.078)" fill="#82c5de"/>
        <path id="Path_858" data-name="Path 858" d="M863.8,1742.138a3.217,3.217,0,1,1-3.217,3.217A3.216,3.216,0,0,1,863.8,1742.138Z" transform="translate(-847.668 -1744.05)" fill="#82c5de"/>
        <path id="Path_859" data-name="Path 859" d="M895.612,2123.9a3.217,3.217,0,1,1-3.216,3.217A3.217,3.217,0,0,1,895.612,2123.9Z" transform="translate(-862.696 -1924.38)" fill="#82c5de"/>
        <path id="Path_860" data-name="Path 860" d="M895.612,2092.087a3.217,3.217,0,1,1-3.216,3.217A3.217,3.217,0,0,1,895.612,2092.087Z" transform="translate(-862.696 -1909.353)" fill="#82c5de"/>
        <path id="Path_861" data-name="Path 861" d="M895.612,2060.273a3.217,3.217,0,1,1-3.216,3.217A3.217,3.217,0,0,1,895.612,2060.273Z" transform="translate(-862.696 -1894.325)" fill="#82c5de"/>
        <path id="Path_862" data-name="Path 862" d="M895.612,2028.46a3.217,3.217,0,1,1-3.216,3.217A3.217,3.217,0,0,1,895.612,2028.46Z" transform="translate(-862.696 -1879.298)" fill="#82c5de"/>
        <path id="Path_863" data-name="Path 863" d="M895.612,1996.646a3.217,3.217,0,1,1-3.216,3.217A3.217,3.217,0,0,1,895.612,1996.646Z" transform="translate(-862.696 -1864.27)" fill="#82c5de"/>
        <path id="Path_864" data-name="Path 864" d="M895.612,1964.833a3.217,3.217,0,1,1-3.216,3.217A3.217,3.217,0,0,1,895.612,1964.833Z" transform="translate(-862.696 -1849.243)" fill="#82c5de"/>
        <path id="Path_865" data-name="Path 865" d="M895.612,1933.02a3.217,3.217,0,1,1-3.216,3.216A3.217,3.217,0,0,1,895.612,1933.02Z" transform="translate(-862.696 -1834.216)" fill="#82c5de"/>
        <path id="Path_866" data-name="Path 866" d="M895.612,1901.2a3.217,3.217,0,1,1-3.216,3.218A3.217,3.217,0,0,1,895.612,1901.2Z" transform="translate(-862.696 -1819.188)" fill="#82c5de"/>
        <path id="Path_867" data-name="Path 867" d="M895.612,1869.393a3.217,3.217,0,1,1-3.216,3.216A3.216,3.216,0,0,1,895.612,1869.393Z" transform="translate(-862.696 -1804.161)" fill="#82c5de"/>
        <path id="Path_868" data-name="Path 868" d="M895.612,1837.578a3.217,3.217,0,1,1-3.216,3.218A3.218,3.218,0,0,1,895.612,1837.578Z" transform="translate(-862.696 -1789.133)" fill="#82c5de"/>
        <path id="Path_869" data-name="Path 869" d="M895.612,1805.766a3.216,3.216,0,1,1-3.216,3.216A3.216,3.216,0,0,1,895.612,1805.766Z" transform="translate(-862.696 -1774.106)" fill="#82c5de"/>
        <path id="Path_870" data-name="Path 870" d="M895.612,1773.951a3.217,3.217,0,1,1-3.216,3.217A3.218,3.218,0,0,1,895.612,1773.951Z" transform="translate(-862.696 -1759.078)" fill="#82c5de"/>
        <path id="Path_871" data-name="Path 871" d="M895.612,1742.138a3.217,3.217,0,1,1-3.216,3.217A3.217,3.217,0,0,1,895.612,1742.138Z" transform="translate(-862.696 -1744.05)" fill="#82c5de"/>
        <path id="Path_872" data-name="Path 872" d="M927.426,2123.9a3.217,3.217,0,1,1-3.217,3.217A3.217,3.217,0,0,1,927.426,2123.9Z" transform="translate(-877.724 -1924.38)" fill="#82c5de"/>
        <path id="Path_873" data-name="Path 873" d="M927.426,2092.087a3.217,3.217,0,1,1-3.217,3.217A3.217,3.217,0,0,1,927.426,2092.087Z" transform="translate(-877.724 -1909.353)" fill="#82c5de"/>
        <path id="Path_874" data-name="Path 874" d="M927.426,2060.273a3.217,3.217,0,1,1-3.217,3.217A3.217,3.217,0,0,1,927.426,2060.273Z" transform="translate(-877.724 -1894.325)" fill="#82c5de"/>
        <path id="Path_875" data-name="Path 875" d="M927.426,2028.46a3.217,3.217,0,1,1-3.217,3.217A3.217,3.217,0,0,1,927.426,2028.46Z" transform="translate(-877.724 -1879.298)" fill="#82c5de"/>
        <path id="Path_876" data-name="Path 876" d="M927.426,1996.646a3.217,3.217,0,1,1-3.217,3.217A3.217,3.217,0,0,1,927.426,1996.646Z" transform="translate(-877.724 -1864.27)" fill="#82c5de"/>
        <path id="Path_877" data-name="Path 877" d="M927.426,1964.833a3.217,3.217,0,1,1-3.217,3.217A3.217,3.217,0,0,1,927.426,1964.833Z" transform="translate(-877.724 -1849.243)" fill="#82c5de"/>
        <path id="Path_878" data-name="Path 878" d="M927.426,1933.02a3.217,3.217,0,1,1-3.217,3.216A3.217,3.217,0,0,1,927.426,1933.02Z" transform="translate(-877.724 -1834.216)" fill="#82c5de"/>
        <path id="Path_879" data-name="Path 879" d="M927.426,1901.2a3.217,3.217,0,1,1-3.217,3.218A3.217,3.217,0,0,1,927.426,1901.2Z" transform="translate(-877.724 -1819.188)" fill="#82c5de"/>
        <path id="Path_880" data-name="Path 880" d="M927.426,1869.393a3.217,3.217,0,1,1-3.217,3.216A3.216,3.216,0,0,1,927.426,1869.393Z" transform="translate(-877.724 -1804.161)" fill="#82c5de"/>
        <path id="Path_881" data-name="Path 881" d="M927.426,1837.578a3.217,3.217,0,1,1-3.217,3.218A3.218,3.218,0,0,1,927.426,1837.578Z" transform="translate(-877.724 -1789.133)" fill="#82c5de"/>
        <path id="Path_882" data-name="Path 882" d="M927.426,1805.766a3.216,3.216,0,1,1-3.217,3.216A3.216,3.216,0,0,1,927.426,1805.766Z" transform="translate(-877.724 -1774.106)" fill="#82c5de"/>
        <path id="Path_883" data-name="Path 883" d="M927.426,1773.951a3.217,3.217,0,1,1-3.217,3.217A3.218,3.218,0,0,1,927.426,1773.951Z" transform="translate(-877.724 -1759.078)" fill="#82c5de"/>
        <path id="Path_884" data-name="Path 884" d="M927.426,1742.138a3.217,3.217,0,1,1-3.217,3.217A3.217,3.217,0,0,1,927.426,1742.138Z" transform="translate(-877.724 -1744.05)" fill="#82c5de"/>
        <path id="Path_885" data-name="Path 885" d="M959.24,2123.9a3.217,3.217,0,1,1-3.217,3.217A3.217,3.217,0,0,1,959.24,2123.9Z" transform="translate(-892.751 -1924.38)" fill="#82c5de"/>
        <path id="Path_886" data-name="Path 886" d="M959.24,2092.087a3.217,3.217,0,1,1-3.217,3.217A3.216,3.216,0,0,1,959.24,2092.087Z" transform="translate(-892.751 -1909.353)" fill="#82c5de"/>
        <path id="Path_887" data-name="Path 887" d="M959.24,2060.273a3.217,3.217,0,1,1-3.217,3.217A3.217,3.217,0,0,1,959.24,2060.273Z" transform="translate(-892.751 -1894.325)" fill="#82c5de"/>
        <path id="Path_888" data-name="Path 888" d="M959.24,2028.46a3.217,3.217,0,1,1-3.217,3.217A3.217,3.217,0,0,1,959.24,2028.46Z" transform="translate(-892.751 -1879.298)" fill="#82c5de"/>
        <path id="Path_889" data-name="Path 889" d="M959.24,1996.646a3.217,3.217,0,1,1-3.217,3.217A3.217,3.217,0,0,1,959.24,1996.646Z" transform="translate(-892.751 -1864.27)" fill="#82c5de"/>
        <path id="Path_890" data-name="Path 890" d="M959.24,1964.833a3.217,3.217,0,1,1-3.217,3.217A3.217,3.217,0,0,1,959.24,1964.833Z" transform="translate(-892.751 -1849.243)" fill="#82c5de"/>
        <path id="Path_891" data-name="Path 891" d="M959.24,1933.02a3.217,3.217,0,1,1-3.217,3.216A3.216,3.216,0,0,1,959.24,1933.02Z" transform="translate(-892.751 -1834.216)" fill="#82c5de"/>
        <path id="Path_892" data-name="Path 892" d="M959.24,1901.2a3.217,3.217,0,1,1-3.217,3.218A3.217,3.217,0,0,1,959.24,1901.2Z" transform="translate(-892.751 -1819.188)" fill="#82c5de"/>
        <path id="Path_893" data-name="Path 893" d="M959.24,1869.393a3.217,3.217,0,1,1-3.217,3.216A3.216,3.216,0,0,1,959.24,1869.393Z" transform="translate(-892.751 -1804.161)" fill="#82c5de"/>
        <path id="Path_894" data-name="Path 894" d="M959.24,1837.578a3.217,3.217,0,1,1-3.217,3.218A3.217,3.217,0,0,1,959.24,1837.578Z" transform="translate(-892.751 -1789.133)" fill="#82c5de"/>
        <path id="Path_895" data-name="Path 895" d="M959.24,1805.766a3.216,3.216,0,1,1-3.217,3.216A3.216,3.216,0,0,1,959.24,1805.766Z" transform="translate(-892.751 -1774.106)" fill="#82c5de"/>
        <path id="Path_896" data-name="Path 896" d="M959.24,1773.951a3.217,3.217,0,1,1-3.217,3.217A3.217,3.217,0,0,1,959.24,1773.951Z" transform="translate(-892.751 -1759.078)" fill="#82c5de"/>
        <path id="Path_897" data-name="Path 897" d="M959.24,1742.138a3.217,3.217,0,1,1-3.217,3.217A3.216,3.216,0,0,1,959.24,1742.138Z" transform="translate(-892.751 -1744.05)" fill="#82c5de"/>
        <circle id="Ellipse_17" data-name="Ellipse 17" cx="3.217" cy="3.217" r="3.217" transform="translate(80.058 199.52)" fill="#82c5de"/>
        <circle id="Ellipse_18" data-name="Ellipse 18" cx="3.217" cy="3.217" r="3.217" transform="translate(80.058 182.734)" fill="#82c5de"/>
        <circle id="Ellipse_19" data-name="Ellipse 19" cx="3.217" cy="3.217" r="3.217" transform="translate(80.058 165.948)" fill="#82c5de"/>
        <path id="Path_898" data-name="Path 898" d="M991.053,2028.46a3.217,3.217,0,1,1-3.217,3.217A3.217,3.217,0,0,1,991.053,2028.46Z" transform="translate(-907.779 -1879.298)" fill="#82c5de"/>
        <path id="Path_899" data-name="Path 899" d="M991.053,1996.646a3.217,3.217,0,1,1-3.217,3.217A3.217,3.217,0,0,1,991.053,1996.646Z" transform="translate(-907.779 -1864.27)" fill="#82c5de"/>
        <circle id="Ellipse_20" data-name="Ellipse 20" cx="3.217" cy="3.217" r="3.217" transform="translate(80.058 115.59)" fill="#82c5de"/>
        <path id="Path_900" data-name="Path 900" d="M991.053,1933.02a3.217,3.217,0,1,1-3.217,3.216A3.217,3.217,0,0,1,991.053,1933.02Z" transform="translate(-907.779 -1834.216)" fill="#82c5de"/>
        <path id="Path_901" data-name="Path 901" d="M991.053,1901.2a3.217,3.217,0,1,1-3.217,3.218A3.217,3.217,0,0,1,991.053,1901.2Z" transform="translate(-907.779 -1819.188)" fill="#82c5de"/>
        <path id="Path_902" data-name="Path 902" d="M991.053,1869.393a3.217,3.217,0,1,1-3.217,3.216A3.216,3.216,0,0,1,991.053,1869.393Z" transform="translate(-907.779 -1804.161)" fill="#82c5de"/>
        <path id="Path_903" data-name="Path 903" d="M991.053,1837.578a3.217,3.217,0,1,1-3.217,3.218A3.218,3.218,0,0,1,991.053,1837.578Z" transform="translate(-907.779 -1789.133)" fill="#82c5de"/>
        <path id="Path_904" data-name="Path 904" d="M991.053,1805.766a3.216,3.216,0,1,1-3.217,3.216A3.216,3.216,0,0,1,991.053,1805.766Z" transform="translate(-907.779 -1774.106)" fill="#82c5de"/>
        <path id="Path_905" data-name="Path 905" d="M991.053,1773.951a3.217,3.217,0,1,1-3.217,3.217A3.218,3.218,0,0,1,991.053,1773.951Z" transform="translate(-907.779 -1759.078)" fill="#82c5de"/>
        <circle id="Ellipse_21" data-name="Ellipse 21" cx="3.217" cy="3.217" r="3.217" transform="translate(80.058 -1.912)" fill="#82c5de"/>
        <path id="Path_906" data-name="Path 906" d="M1022.867,2123.9a3.217,3.217,0,1,1-3.217,3.217A3.217,3.217,0,0,1,1022.867,2123.9Z" transform="translate(-922.806 -1924.38)" fill="#82c5de"/>
        <path id="Path_907" data-name="Path 907" d="M1022.867,2092.087a3.217,3.217,0,1,1-3.217,3.217A3.216,3.216,0,0,1,1022.867,2092.087Z" transform="translate(-922.806 -1909.353)" fill="#82c5de"/>
        <path id="Path_908" data-name="Path 908" d="M1022.867,2060.273a3.217,3.217,0,1,1-3.217,3.217A3.217,3.217,0,0,1,1022.867,2060.273Z" transform="translate(-922.806 -1894.325)" fill="#82c5de"/>
        <path id="Path_909" data-name="Path 909" d="M1022.867,2028.46a3.217,3.217,0,1,1-3.217,3.217A3.217,3.217,0,0,1,1022.867,2028.46Z" transform="translate(-922.806 -1879.298)" fill="#82c5de"/>
        <path id="Path_910" data-name="Path 910" d="M1022.867,1996.646a3.217,3.217,0,1,1-3.217,3.217A3.217,3.217,0,0,1,1022.867,1996.646Z" transform="translate(-922.806 -1864.27)" fill="#82c5de"/>
        <path id="Path_911" data-name="Path 911" d="M1022.867,1964.833a3.217,3.217,0,1,1-3.217,3.217A3.217,3.217,0,0,1,1022.867,1964.833Z" transform="translate(-922.806 -1849.243)" fill="#82c5de"/>
        <path id="Path_912" data-name="Path 912" d="M1022.867,1933.02a3.217,3.217,0,1,1-3.217,3.216A3.216,3.216,0,0,1,1022.867,1933.02Z" transform="translate(-922.806 -1834.216)" fill="#82c5de"/>
        <path id="Path_913" data-name="Path 913" d="M1022.867,1901.2a3.217,3.217,0,1,1-3.217,3.218A3.217,3.217,0,0,1,1022.867,1901.2Z" transform="translate(-922.806 -1819.188)" fill="#82c5de"/>
        <path id="Path_914" data-name="Path 914" d="M1022.867,1869.393a3.217,3.217,0,1,1-3.217,3.216A3.216,3.216,0,0,1,1022.867,1869.393Z" transform="translate(-922.806 -1804.161)" fill="#82c5de"/>
        <path id="Path_915" data-name="Path 915" d="M1022.867,1837.578a3.217,3.217,0,1,1-3.217,3.218A3.217,3.217,0,0,1,1022.867,1837.578Z" transform="translate(-922.806 -1789.133)" fill="#82c5de"/>
        <path id="Path_916" data-name="Path 916" d="M1022.867,1805.766a3.216,3.216,0,1,1-3.217,3.216A3.216,3.216,0,0,1,1022.867,1805.766Z" transform="translate(-922.806 -1774.106)" fill="#82c5de"/>
        <path id="Path_917" data-name="Path 917" d="M1022.867,1773.951a3.217,3.217,0,1,1-3.217,3.217A3.217,3.217,0,0,1,1022.867,1773.951Z" transform="translate(-922.806 -1759.078)" fill="#82c5de"/>
        <path id="Path_918" data-name="Path 918" d="M1022.867,1742.138a3.217,3.217,0,1,1-3.217,3.217A3.216,3.216,0,0,1,1022.867,1742.138Z" transform="translate(-922.806 -1744.05)" fill="#82c5de"/>
        <path id="Path_919" data-name="Path 919" d="M1054.68,2123.9a3.217,3.217,0,1,1-3.216,3.217A3.217,3.217,0,0,1,1054.68,2123.9Z" transform="translate(-937.834 -1924.38)" fill="#82c5de"/>
        <path id="Path_920" data-name="Path 920" d="M1054.68,2092.087a3.217,3.217,0,1,1-3.216,3.217A3.217,3.217,0,0,1,1054.68,2092.087Z" transform="translate(-937.834 -1909.353)" fill="#82c5de"/>
        <path id="Path_921" data-name="Path 921" d="M1054.68,2060.273a3.217,3.217,0,1,1-3.216,3.217A3.217,3.217,0,0,1,1054.68,2060.273Z" transform="translate(-937.834 -1894.325)" fill="#82c5de"/>
        <path id="Path_922" data-name="Path 922" d="M1054.68,2028.46a3.217,3.217,0,1,1-3.216,3.217A3.217,3.217,0,0,1,1054.68,2028.46Z" transform="translate(-937.834 -1879.298)" fill="#82c5de"/>
        <path id="Path_923" data-name="Path 923" d="M1054.68,1996.646a3.217,3.217,0,1,1-3.216,3.217A3.217,3.217,0,0,1,1054.68,1996.646Z" transform="translate(-937.834 -1864.27)" fill="#82c5de"/>
        <path id="Path_924" data-name="Path 924" d="M1054.68,1964.833a3.217,3.217,0,1,1-3.216,3.217A3.217,3.217,0,0,1,1054.68,1964.833Z" transform="translate(-937.834 -1849.243)" fill="#82c5de"/>
        <path id="Path_925" data-name="Path 925" d="M1054.68,1933.02a3.217,3.217,0,1,1-3.216,3.216A3.217,3.217,0,0,1,1054.68,1933.02Z" transform="translate(-937.834 -1834.216)" fill="#82c5de"/>
        <path id="Path_926" data-name="Path 926" d="M1054.68,1901.2a3.217,3.217,0,1,1-3.216,3.218A3.217,3.217,0,0,1,1054.68,1901.2Z" transform="translate(-937.834 -1819.188)" fill="#82c5de"/>
        <path id="Path_927" data-name="Path 927" d="M1054.68,1869.393a3.217,3.217,0,1,1-3.216,3.216A3.216,3.216,0,0,1,1054.68,1869.393Z" transform="translate(-937.834 -1804.161)" fill="#82c5de"/>
        <path id="Path_928" data-name="Path 928" d="M1054.68,1837.578a3.217,3.217,0,1,1-3.216,3.218A3.218,3.218,0,0,1,1054.68,1837.578Z" transform="translate(-937.834 -1789.133)" fill="#82c5de"/>
        <path id="Path_929" data-name="Path 929" d="M1054.68,1805.766a3.216,3.216,0,1,1-3.216,3.216A3.216,3.216,0,0,1,1054.68,1805.766Z" transform="translate(-937.834 -1774.106)" fill="#82c5de"/>
        <path id="Path_930" data-name="Path 930" d="M1054.68,1773.951a3.217,3.217,0,1,1-3.216,3.217A3.218,3.218,0,0,1,1054.68,1773.951Z" transform="translate(-937.834 -1759.078)" fill="#82c5de"/>
        <path id="Path_931" data-name="Path 931" d="M1054.68,1742.138a3.217,3.217,0,1,1-3.216,3.217A3.217,3.217,0,0,1,1054.68,1742.138Z" transform="translate(-937.834 -1744.05)" fill="#82c5de"/>
        <path id="Path_932" data-name="Path 932" d="M1086.494,2123.9a3.217,3.217,0,1,1-3.217,3.217A3.217,3.217,0,0,1,1086.494,2123.9Z" transform="translate(-952.861 -1924.38)" fill="#82c5de"/>
        <path id="Path_933" data-name="Path 933" d="M1086.494,2092.087a3.217,3.217,0,1,1-3.217,3.217A3.216,3.216,0,0,1,1086.494,2092.087Z" transform="translate(-952.861 -1909.353)" fill="#82c5de"/>
        <path id="Path_934" data-name="Path 934" d="M1086.494,2060.273a3.217,3.217,0,1,1-3.217,3.217A3.217,3.217,0,0,1,1086.494,2060.273Z" transform="translate(-952.861 -1894.325)" fill="#82c5de"/>
        <path id="Path_935" data-name="Path 935" d="M1086.494,2028.46a3.217,3.217,0,1,1-3.217,3.217A3.217,3.217,0,0,1,1086.494,2028.46Z" transform="translate(-952.861 -1879.298)" fill="#82c5de"/>
        <path id="Path_936" data-name="Path 936" d="M1086.494,1996.646a3.217,3.217,0,1,1-3.217,3.217A3.217,3.217,0,0,1,1086.494,1996.646Z" transform="translate(-952.861 -1864.27)" fill="#82c5de"/>
        <path id="Path_937" data-name="Path 937" d="M1086.494,1964.833a3.217,3.217,0,1,1-3.217,3.217A3.217,3.217,0,0,1,1086.494,1964.833Z" transform="translate(-952.861 -1849.243)" fill="#82c5de"/>
        <path id="Path_938" data-name="Path 938" d="M1086.494,1933.02a3.217,3.217,0,1,1-3.217,3.216A3.216,3.216,0,0,1,1086.494,1933.02Z" transform="translate(-952.861 -1834.216)" fill="#82c5de"/>
        <path id="Path_939" data-name="Path 939" d="M1086.494,1901.2a3.217,3.217,0,1,1-3.217,3.218A3.217,3.217,0,0,1,1086.494,1901.2Z" transform="translate(-952.861 -1819.188)" fill="#82c5de"/>
        <path id="Path_940" data-name="Path 940" d="M1086.494,1869.393a3.217,3.217,0,1,1-3.217,3.216A3.216,3.216,0,0,1,1086.494,1869.393Z" transform="translate(-952.861 -1804.161)" fill="#82c5de"/>
        <path id="Path_941" data-name="Path 941" d="M1086.494,1837.578a3.217,3.217,0,1,1-3.217,3.218A3.217,3.217,0,0,1,1086.494,1837.578Z" transform="translate(-952.861 -1789.133)" fill="#82c5de"/>
        <path id="Path_942" data-name="Path 942" d="M1086.494,1805.766a3.216,3.216,0,1,1-3.217,3.216A3.216,3.216,0,0,1,1086.494,1805.766Z" transform="translate(-952.861 -1774.106)" fill="#82c5de"/>
        <path id="Path_943" data-name="Path 943" d="M1086.494,1773.951a3.217,3.217,0,1,1-3.217,3.217A3.217,3.217,0,0,1,1086.494,1773.951Z" transform="translate(-952.861 -1759.078)" fill="#82c5de"/>
        <path id="Path_944" data-name="Path 944" d="M1086.494,1742.138a3.217,3.217,0,1,1-3.217,3.217A3.216,3.216,0,0,1,1086.494,1742.138Z" transform="translate(-952.861 -1744.05)" fill="#82c5de"/>
        <circle id="Ellipse_22" data-name="Ellipse 22" cx="3.217" cy="3.217" r="3.217" transform="translate(147.202 199.52)" fill="#82c5de"/>
        <circle id="Ellipse_23" data-name="Ellipse 23" cx="3.217" cy="3.217" r="3.217" transform="translate(147.202 182.734)" fill="#82c5de"/>
        <circle id="Ellipse_24" data-name="Ellipse 24" cx="3.217" cy="3.217" r="3.217" transform="translate(147.202 165.948)" fill="#82c5de"/>
        <path id="Path_945" data-name="Path 945" d="M1118.308,2028.46a3.217,3.217,0,1,1-3.217,3.217A3.217,3.217,0,0,1,1118.308,2028.46Z" transform="translate(-967.889 -1879.298)" fill="#82c5de"/>
        <path id="Path_946" data-name="Path 946" d="M1118.308,1996.646a3.217,3.217,0,1,1-3.217,3.217A3.217,3.217,0,0,1,1118.308,1996.646Z" transform="translate(-967.889 -1864.27)" fill="#82c5de"/>
        <circle id="Ellipse_25" data-name="Ellipse 25" cx="3.217" cy="3.217" r="3.217" transform="translate(147.202 115.59)" fill="#82c5de"/>
        <path id="Path_947" data-name="Path 947" d="M1118.308,1933.02a3.217,3.217,0,1,1-3.217,3.216A3.216,3.216,0,0,1,1118.308,1933.02Z" transform="translate(-967.889 -1834.216)" fill="#82c5de"/>
        <path id="Path_948" data-name="Path 948" d="M1118.308,1901.2a3.217,3.217,0,1,1-3.217,3.218A3.217,3.217,0,0,1,1118.308,1901.2Z" transform="translate(-967.889 -1819.188)" fill="#82c5de"/>
        <path id="Path_949" data-name="Path 949" d="M1118.308,1869.393a3.217,3.217,0,1,1-3.217,3.216A3.216,3.216,0,0,1,1118.308,1869.393Z" transform="translate(-967.889 -1804.161)" fill="#82c5de"/>
        <path id="Path_950" data-name="Path 950" d="M1118.308,1837.578a3.217,3.217,0,1,1-3.217,3.218A3.217,3.217,0,0,1,1118.308,1837.578Z" transform="translate(-967.889 -1789.133)" fill="#82c5de"/>
        <path id="Path_951" data-name="Path 951" d="M1118.308,1805.766a3.216,3.216,0,1,1-3.217,3.216A3.216,3.216,0,0,1,1118.308,1805.766Z" transform="translate(-967.889 -1774.106)" fill="#82c5de"/>
        <path id="Path_952" data-name="Path 952" d="M1118.308,1773.951a3.217,3.217,0,1,1-3.217,3.217A3.217,3.217,0,0,1,1118.308,1773.951Z" transform="translate(-967.889 -1759.078)" fill="#82c5de"/>
        <circle id="Ellipse_26" data-name="Ellipse 26" cx="3.217" cy="3.217" r="3.217" transform="translate(147.202 -1.912)" fill="#82c5de"/>
        <circle id="Ellipse_27" data-name="Ellipse 27" cx="3.217" cy="3.217" r="3.217" transform="translate(163.988 199.52)" fill="#82c5de"/>
        <circle id="Ellipse_28" data-name="Ellipse 28" cx="3.217" cy="3.217" r="3.217" transform="translate(163.988 182.734)" fill="#82c5de"/>
        <circle id="Ellipse_29" data-name="Ellipse 29" cx="3.217" cy="3.217" r="3.217" transform="translate(163.988 165.948)" fill="#82c5de"/>
        <path id="Path_953" data-name="Path 953" d="M1150.121,2028.46a3.217,3.217,0,1,1-3.217,3.217A3.217,3.217,0,0,1,1150.121,2028.46Z" transform="translate(-982.916 -1879.298)" fill="#82c5de"/>
        <path id="Path_954" data-name="Path 954" d="M1150.121,1996.646a3.217,3.217,0,1,1-3.217,3.217A3.217,3.217,0,0,1,1150.121,1996.646Z" transform="translate(-982.916 -1864.27)" fill="#82c5de"/>
        <circle id="Ellipse_30" data-name="Ellipse 30" cx="3.217" cy="3.217" r="3.217" transform="translate(163.988 115.59)" fill="#82c5de"/>
        <path id="Path_955" data-name="Path 955" d="M1150.121,1933.02a3.217,3.217,0,1,1-3.217,3.216A3.217,3.217,0,0,1,1150.121,1933.02Z" transform="translate(-982.916 -1834.216)" fill="#82c5de"/>
        <path id="Path_956" data-name="Path 956" d="M1150.121,1901.2a3.217,3.217,0,1,1-3.217,3.218A3.217,3.217,0,0,1,1150.121,1901.2Z" transform="translate(-982.916 -1819.188)" fill="#82c5de"/>
        <path id="Path_957" data-name="Path 957" d="M1150.121,1869.393a3.217,3.217,0,1,1-3.217,3.216A3.216,3.216,0,0,1,1150.121,1869.393Z" transform="translate(-982.916 -1804.161)" fill="#82c5de"/>
        <path id="Path_958" data-name="Path 958" d="M1150.121,1837.578a3.217,3.217,0,1,1-3.217,3.218A3.218,3.218,0,0,1,1150.121,1837.578Z" transform="translate(-982.916 -1789.133)" fill="#82c5de"/>
        <path id="Path_959" data-name="Path 959" d="M1150.121,1805.766a3.216,3.216,0,1,1-3.217,3.216A3.216,3.216,0,0,1,1150.121,1805.766Z" transform="translate(-982.916 -1774.106)" fill="#82c5de"/>
        <path id="Path_960" data-name="Path 960" d="M1150.121,1773.951a3.217,3.217,0,1,1-3.217,3.217A3.218,3.218,0,0,1,1150.121,1773.951Z" transform="translate(-982.916 -1759.078)" fill="#82c5de"/>
        <circle id="Ellipse_31" data-name="Ellipse 31" cx="3.217" cy="3.217" r="3.217" transform="translate(163.988 -1.912)" fill="#82c5de"/>
        <path id="Path_961" data-name="Path 961" d="M1181.935,2123.9a3.217,3.217,0,1,1-3.217,3.217A3.217,3.217,0,0,1,1181.935,2123.9Z" transform="translate(-997.944 -1924.38)" fill="#82c5de"/>
        <path id="Path_962" data-name="Path 962" d="M1181.935,2092.087a3.217,3.217,0,1,1-3.217,3.217A3.216,3.216,0,0,1,1181.935,2092.087Z" transform="translate(-997.944 -1909.353)" fill="#82c5de"/>
        <path id="Path_963" data-name="Path 963" d="M1181.935,2060.273a3.217,3.217,0,1,1-3.217,3.217A3.217,3.217,0,0,1,1181.935,2060.273Z" transform="translate(-997.944 -1894.325)" fill="#82c5de"/>
        <path id="Path_964" data-name="Path 964" d="M1181.935,2028.46a3.217,3.217,0,1,1-3.217,3.217A3.217,3.217,0,0,1,1181.935,2028.46Z" transform="translate(-997.944 -1879.298)" fill="#82c5de"/>
        <path id="Path_965" data-name="Path 965" d="M1181.935,1996.646a3.217,3.217,0,1,1-3.217,3.217A3.217,3.217,0,0,1,1181.935,1996.646Z" transform="translate(-997.944 -1864.27)" fill="#82c5de"/>
        <path id="Path_966" data-name="Path 966" d="M1181.935,1964.833a3.217,3.217,0,1,1-3.217,3.217A3.217,3.217,0,0,1,1181.935,1964.833Z" transform="translate(-997.944 -1849.243)" fill="#82c5de"/>
        <path id="Path_967" data-name="Path 967" d="M1181.935,1933.02a3.217,3.217,0,1,1-3.217,3.216A3.216,3.216,0,0,1,1181.935,1933.02Z" transform="translate(-997.944 -1834.216)" fill="#82c5de"/>
        <path id="Path_968" data-name="Path 968" d="M1181.935,1901.2a3.217,3.217,0,1,1-3.217,3.218A3.217,3.217,0,0,1,1181.935,1901.2Z" transform="translate(-997.944 -1819.188)" fill="#82c5de"/>
        <path id="Path_969" data-name="Path 969" d="M1181.935,1869.393a3.217,3.217,0,1,1-3.217,3.216A3.216,3.216,0,0,1,1181.935,1869.393Z" transform="translate(-997.944 -1804.161)" fill="#82c5de"/>
        <path id="Path_970" data-name="Path 970" d="M1181.935,1837.578a3.217,3.217,0,1,1-3.217,3.218A3.217,3.217,0,0,1,1181.935,1837.578Z" transform="translate(-997.944 -1789.133)" fill="#82c5de"/>
        <path id="Path_971" data-name="Path 971" d="M1181.935,1805.766a3.216,3.216,0,1,1-3.217,3.216A3.216,3.216,0,0,1,1181.935,1805.766Z" transform="translate(-997.944 -1774.106)" fill="#82c5de"/>
        <path id="Path_972" data-name="Path 972" d="M1181.935,1773.951a3.217,3.217,0,1,1-3.217,3.217A3.217,3.217,0,0,1,1181.935,1773.951Z" transform="translate(-997.944 -1759.078)" fill="#82c5de"/>
        <path id="Path_973" data-name="Path 973" d="M1181.935,1742.138a3.217,3.217,0,1,1-3.217,3.217A3.216,3.216,0,0,1,1181.935,1742.138Z" transform="translate(-997.944 -1744.05)" fill="#82c5de"/>
        <path id="Path_974" data-name="Path 974" d="M1213.748,2123.9a3.217,3.217,0,1,1-3.217,3.217A3.217,3.217,0,0,1,1213.748,2123.9Z" transform="translate(-1012.971 -1924.38)" fill="#82c5de"/>
        <path id="Path_975" data-name="Path 975" d="M1213.748,2092.087a3.217,3.217,0,1,1-3.217,3.217A3.217,3.217,0,0,1,1213.748,2092.087Z" transform="translate(-1012.971 -1909.353)" fill="#82c5de"/>
        <path id="Path_976" data-name="Path 976" d="M1213.748,2060.273a3.217,3.217,0,1,1-3.217,3.217A3.217,3.217,0,0,1,1213.748,2060.273Z" transform="translate(-1012.971 -1894.325)" fill="#82c5de"/>
        <path id="Path_977" data-name="Path 977" d="M1213.748,2028.46a3.217,3.217,0,1,1-3.217,3.217A3.217,3.217,0,0,1,1213.748,2028.46Z" transform="translate(-1012.971 -1879.298)" fill="#82c5de"/>
        <path id="Path_978" data-name="Path 978" d="M1213.748,1996.646a3.217,3.217,0,1,1-3.217,3.217A3.217,3.217,0,0,1,1213.748,1996.646Z" transform="translate(-1012.971 -1864.27)" fill="#82c5de"/>
        <path id="Path_979" data-name="Path 979" d="M1213.748,1964.833a3.217,3.217,0,1,1-3.217,3.217A3.217,3.217,0,0,1,1213.748,1964.833Z" transform="translate(-1012.971 -1849.243)" fill="#82c5de"/>
        <path id="Path_980" data-name="Path 980" d="M1213.748,1933.02a3.217,3.217,0,1,1-3.217,3.216A3.217,3.217,0,0,1,1213.748,1933.02Z" transform="translate(-1012.971 -1834.216)" fill="#82c5de"/>
        <path id="Path_981" data-name="Path 981" d="M1213.748,1901.2a3.217,3.217,0,1,1-3.217,3.218A3.217,3.217,0,0,1,1213.748,1901.2Z" transform="translate(-1012.971 -1819.188)" fill="#82c5de"/>
        <path id="Path_982" data-name="Path 982" d="M1213.748,1869.393a3.217,3.217,0,1,1-3.217,3.216A3.216,3.216,0,0,1,1213.748,1869.393Z" transform="translate(-1012.971 -1804.161)" fill="#82c5de"/>
        <path id="Path_983" data-name="Path 983" d="M1213.748,1837.578a3.217,3.217,0,1,1-3.217,3.218A3.218,3.218,0,0,1,1213.748,1837.578Z" transform="translate(-1012.971 -1789.133)" fill="#82c5de"/>
        <path id="Path_984" data-name="Path 984" d="M1213.748,1805.766a3.216,3.216,0,1,1-3.217,3.216A3.216,3.216,0,0,1,1213.748,1805.766Z" transform="translate(-1012.971 -1774.106)" fill="#82c5de"/>
        <path id="Path_985" data-name="Path 985" d="M1213.748,1773.951a3.217,3.217,0,1,1-3.217,3.217A3.218,3.218,0,0,1,1213.748,1773.951Z" transform="translate(-1012.971 -1759.078)" fill="#82c5de"/>
        <path id="Path_986" data-name="Path 986" d="M1213.748,1742.138a3.217,3.217,0,1,1-3.217,3.217A3.217,3.217,0,0,1,1213.748,1742.138Z" transform="translate(-1012.971 -1744.05)" fill="#82c5de"/>
      </g>
    </g>
  </g>
</svg>
