<svg xmlns="http://www.w3.org/2000/svg" width="217.802" height="187.683" viewBox="0 0 217.802 187.683">
  <g id="Group_615" data-name="Group 615" transform="translate(-1092.691 -3877.649)">
    <path id="Path_2065" data-name="Path 2065" d="M660.276-5.936c.156,3.233-1.694,6.185-4.313,8.193a8.314,8.314,0,0,1-3.68,1.61A9.394,9.394,0,0,1,650.97,4c-2.8.558-5.024-.283-7.264-2.376-1.959-1.778-3.353-3.66-3.557-6.14a10.355,10.355,0,0,1-.045-1.614,10.132,10.132,0,0,1,3.424-7.169,10.463,10.463,0,0,1,6.775-2.423,9.7,9.7,0,0,1,1.359.087,9.479,9.479,0,0,1,1.349.283,10.577,10.577,0,0,1,1.281.464,10.391,10.391,0,0,1,1.205.622A9.886,9.886,0,0,1,660.1-7.593,10.265,10.265,0,0,1,660.276-5.936Z" transform="translate(452.601 3968.104)" fill="#82c5de"/>
    <path id="Path_2063" data-name="Path 2063" d="M824.921-253.823c27.331-3.27,48.134,20.81,54.394,45.349a75.848,75.848,0,0,1,1.331,8.234,70.989,70.989,0,0,1-1.7,24.992,61.086,61.086,0,0,1-2.617,7.931c-7.692,24.071-33.91,39.745-58.644,32.735a52.323,52.323,0,0,1-8.872-1.779c-20.087-5.868-35.6-23.335-40.521-43.567a75.257,75.257,0,0,1-1.572-8.784c-6.516-31.049,19.987-56.7,48.358-63.195A68.456,68.456,0,0,1,824.921-253.823Z" transform="translate(366.35 4131.771)" fill="#96d1bf"/>
    <path id="Path_2064" data-name="Path 2064" d="M981.5-255.544c27.331-3.27,48.133,20.811,54.394,45.349a75.724,75.724,0,0,1,1.33,8.234,70.982,70.982,0,0,1-1.7,24.992,61.125,61.125,0,0,1-2.617,7.931c-7.693,24.071-33.911,39.745-58.645,32.735a52.253,52.253,0,0,1-8.872-1.779c-20.087-5.868-35.6-23.335-40.521-43.567a75.271,75.271,0,0,1-1.572-8.784c-6.516-31.048,19.987-56.7,48.358-63.195A68.456,68.456,0,0,1,981.5-255.544Z" transform="translate(272.855 4199.953)" fill="#f6d1cf"/>
  </g>
</svg>
