<svg xmlns="http://www.w3.org/2000/svg" xmlns:xlink="http://www.w3.org/1999/xlink" width="255.023" height="310.932" viewBox="0 0 255.023 310.932">
  <defs>
    <clipPath id="clip-path">
      <path id="Path_2009" data-name="Path 2009" d="M1713.353,1226.075c2.951,2.649,5.953,5.214,9.063,7.6a77.346,77.346,0,0,0,9.763,6.395c20.344,11.245,45.236,13.32,68.224,7.889a107.447,107.447,0,0,0,12.884-3.908c23.325-8.744,46.1-21.321,59.356-43.754,15.806-27.023,14.446-59.314,2.663-86.6a96.044,96.044,0,0,0-80.936-61.126,96.6,96.6,0,0,0-11.4-1.43,94.055,94.055,0,0,0-23.691,1.464c-43.236,8.158-70.158,43.944-75.424,83.341-.657,4.925-1.035,9.888-1.351,14.831-2.424,22.837,3.014,47.31,19.363,64.313A145.112,145.112,0,0,0,1713.353,1226.075Z" transform="translate(-1681.958 -1050.945)" fill="none"/>
    </clipPath>
  </defs>
  <g id="Group_617" data-name="Group 617" transform="translate(-1732.302 -4465.389)">
    <path id="Path_622" data-name="Path 622" d="M1690.406,967.1c46-5.5,81.019,35.028,91.556,76.331a127.388,127.388,0,0,1,2.239,13.859,119.482,119.482,0,0,1-2.858,42.068,102.84,102.84,0,0,1-4.406,13.35c-12.948,40.517-57.077,66.9-98.71,55.1a88.063,88.063,0,0,1-14.933-2.994c-33.811-9.877-59.916-39.278-68.206-73.333a126.653,126.653,0,0,1-2.647-14.785c-10.968-52.261,33.642-95.431,81.4-106.37A115.161,115.161,0,0,1,1690.406,967.1Z" transform="translate(141.537 3565.332)" fill="#f7f3ee"/>
    <path id="Path_626" data-name="Path 626" d="M1805.8,840.994c46-5.5,81.018,35.028,91.555,76.332a127.626,127.626,0,0,1,2.24,13.859,119.519,119.519,0,0,1-2.858,42.067,102.822,102.822,0,0,1-4.406,13.35c-12.948,40.517-57.078,66.9-98.71,55.1a88.068,88.068,0,0,1-14.933-2.994c-33.811-9.877-59.917-39.277-68.206-73.333a126.7,126.7,0,0,1-2.646-14.786c-10.967-52.261,33.642-95.431,81.4-106.369A115.253,115.253,0,0,1,1805.8,840.994Z" transform="translate(87.028 3624.898)" fill="#f6d1cf"/>
    <g id="Group_455" data-name="Group 455" transform="translate(1780.419 4576.432)">
      <g id="Group_454" data-name="Group 454" clip-path="url(#clip-path)">
        <path id="Path_1991" data-name="Path 1991" d="M1715.666,800.968c-20.535,20.535-.821,40.248-21.356,60.783s-40.248.822-60.782,21.356-.822,40.248-21.356,60.782-40.248.822-60.783,21.357-.821,40.248-21.356,60.782-40.248.822-60.783,21.356-.822,40.249-21.356,60.783-40.249.822-60.784,21.357" transform="translate(-1542.682 -932.865)" fill="none" stroke="#96d1bf" stroke-miterlimit="10" stroke-width="2.468"/>
        <path id="Path_1992" data-name="Path 1992" d="M1731.789,817.091c-20.535,20.535-.821,40.248-21.356,60.783s-40.248.822-60.783,21.356-.822,40.248-21.356,60.783-40.248.822-60.783,21.356-.822,40.248-21.356,60.783-40.248.821-60.783,21.355-.821,40.249-21.356,60.784-40.249.822-60.784,21.357" transform="translate(-1550.298 -940.481)" fill="none" stroke="#96d1bf" stroke-miterlimit="10" stroke-width="2.468"/>
        <path id="Path_1993" data-name="Path 1993" d="M1747.912,833.215c-20.535,20.535-.822,40.248-21.356,60.782s-40.248.822-60.783,21.356-.822,40.248-21.356,60.783-40.248.822-60.783,21.356-.822,40.248-21.355,60.783-40.249.821-60.783,21.356-.822,40.249-21.357,60.784-40.249.821-60.784,21.356" transform="translate(-1557.914 -948.098)" fill="none" stroke="#96d1bf" stroke-miterlimit="10" stroke-width="2.468"/>
        <path id="Path_1994" data-name="Path 1994" d="M1764.036,849.338c-20.535,20.535-.822,40.248-21.356,60.782s-40.248.822-60.783,21.356-.822,40.248-21.356,60.783-40.248.822-60.783,21.357-.821,40.248-21.356,60.782-40.249.822-60.783,21.356-.822,40.249-21.357,60.784-40.249.821-60.783,21.356" transform="translate(-1565.53 -955.713)" fill="none" stroke="#96d1bf" stroke-miterlimit="10" stroke-width="2.468"/>
        <path id="Path_1995" data-name="Path 1995" d="M1780.159,865.461c-20.535,20.535-.822,40.248-21.356,60.783s-40.248.821-60.783,21.356-.821,40.248-21.356,60.783-40.248.822-60.783,21.357-.821,40.248-21.356,60.782-40.249.821-60.783,21.356-.822,40.249-21.357,60.784-40.248.822-60.783,21.356" transform="translate(-1573.146 -963.329)" fill="none" stroke="#96d1bf" stroke-miterlimit="10" stroke-width="2.468"/>
        <path id="Path_1996" data-name="Path 1996" d="M1796.282,881.584c-20.535,20.535-.821,40.248-21.356,60.783s-40.248.821-60.783,21.356-.822,40.248-21.356,60.782-40.248.822-60.783,21.357-.821,40.248-21.355,60.782-40.249.822-60.784,21.357-.822,40.248-21.357,60.783-40.248.822-60.783,21.356" transform="translate(-1580.763 -970.945)" fill="none" stroke="#96d1bf" stroke-miterlimit="10" stroke-width="2.468"/>
        <path id="Path_1997" data-name="Path 1997" d="M1812.405,897.707c-20.535,20.535-.821,40.248-21.355,60.783s-40.248.821-60.783,21.356-.821,40.248-21.356,60.783-40.248.822-60.783,21.356-.82,40.248-21.355,60.782-40.249.822-60.784,21.357-.821,40.248-21.356,60.783-40.248.822-60.783,21.356" transform="translate(-1588.379 -978.561)" fill="none" stroke="#96d1bf" stroke-miterlimit="10" stroke-width="2.468"/>
        <path id="Path_1998" data-name="Path 1998" d="M1828.529,913.831c-20.535,20.534-.822,40.248-21.356,60.782s-40.248.822-60.783,21.356-.822,40.248-21.355,60.783-40.249.822-60.783,21.356-.821,40.248-21.355,60.782-40.249.822-60.783,21.357-.822,40.248-21.357,60.783-40.248.821-60.783,21.356" transform="translate(-1595.994 -986.178)" fill="none" stroke="#96d1bf" stroke-miterlimit="10" stroke-width="2.468"/>
        <path id="Path_1999" data-name="Path 1999" d="M1844.652,929.954c-20.535,20.535-.822,40.248-21.356,60.782s-40.249.822-60.783,21.356-.821,40.248-21.356,60.783-40.249.822-60.783,21.356-.821,40.248-21.356,60.782-40.248.822-60.783,21.357-.822,40.248-21.357,60.783-40.248.822-60.783,21.356" transform="translate(-1603.611 -993.793)" fill="none" stroke="#96d1bf" stroke-miterlimit="10" stroke-width="2.468"/>
        <path id="Path_2000" data-name="Path 2000" d="M1860.775,946.077c-20.535,20.535-.822,40.248-21.356,60.782s-40.249.822-60.783,21.356-.821,40.248-21.356,60.783-40.249.822-60.783,21.357-.821,40.248-21.355,60.782-40.249.822-60.783,21.357-.822,40.248-21.357,60.783-40.248.822-60.783,21.357" transform="translate(-1611.226 -1001.409)" fill="none" stroke="#96d1bf" stroke-miterlimit="10" stroke-width="2.468"/>
        <path id="Path_2001" data-name="Path 2001" d="M1876.9,962.2c-20.535,20.535-.821,40.248-21.356,60.783s-40.248.821-60.783,21.356-.821,40.248-21.356,60.783-40.249.822-60.783,21.357-.822,40.248-21.356,60.782-40.248.822-60.783,21.357-.822,40.248-21.357,60.783-40.248.822-60.783,21.357" transform="translate(-1618.843 -1009.025)" fill="none" stroke="#96d1bf" stroke-miterlimit="10" stroke-width="2.468"/>
        <path id="Path_2002" data-name="Path 2002" d="M1893.021,978.323c-20.535,20.535-.821,40.248-21.355,60.783s-40.248.821-60.783,21.356-.82,40.248-21.355,60.782-40.249.822-60.783,21.357-.822,40.248-21.356,60.782-40.248.822-60.783,21.357-.822,40.248-21.357,60.783-40.249.822-60.783,21.357" transform="translate(-1626.458 -1016.641)" fill="none" stroke="#96d1bf" stroke-miterlimit="10" stroke-width="2.468"/>
        <path id="Path_2003" data-name="Path 2003" d="M1909.144,994.446c-20.535,20.535-.821,40.248-21.356,60.783s-40.248.822-60.783,21.356-.821,40.248-21.355,60.782-40.248.822-60.784,21.357-.821,40.248-21.355,60.782-40.248.822-60.783,21.357-.822,40.249-21.357,60.783-40.249.822-60.783,21.357" transform="translate(-1634.074 -1024.257)" fill="none" stroke="#96d1bf" stroke-miterlimit="10" stroke-width="2.468"/>
        <path id="Path_2004" data-name="Path 2004" d="M1925.267,1010.569c-20.535,20.535-.821,40.249-21.356,60.783s-40.248.821-60.783,21.355-.821,40.248-21.355,60.783-40.248.822-60.783,21.356-.821,40.248-21.355,60.782-40.248.822-60.783,21.357-.822,40.249-21.357,60.783-40.248.822-60.783,21.357" transform="translate(-1641.69 -1031.873)" fill="none" stroke="#96d1bf" stroke-miterlimit="10" stroke-width="2.468"/>
        <path id="Path_2005" data-name="Path 2005" d="M1941.39,1026.693c-20.535,20.535-.821,40.248-21.356,60.783s-40.248.821-60.783,21.356-.821,40.248-21.356,60.783-40.248.822-60.783,21.356-.821,40.248-21.356,60.783-40.248.822-60.783,21.356-.822,40.249-21.357,60.783-40.248.822-60.783,21.357" transform="translate(-1649.306 -1039.489)" fill="none" stroke="#96d1bf" stroke-miterlimit="10" stroke-width="2.468"/>
        <path id="Path_2006" data-name="Path 2006" d="M1957.513,1042.816c-20.535,20.535-.821,40.248-21.356,60.783s-40.248.821-60.782,21.355-.822,40.248-21.356,60.783-40.248.822-60.783,21.357-.821,40.248-21.356,60.782-40.248.822-60.783,21.357-.822,40.248-21.357,60.783-40.248.822-60.783,21.357" transform="translate(-1656.922 -1047.105)" fill="none" stroke="#96d1bf" stroke-miterlimit="10" stroke-width="2.468"/>
        <path id="Path_2007" data-name="Path 2007" d="M1973.636,1058.94c-20.535,20.534-.821,40.248-21.355,60.782s-40.248.821-60.783,21.356-.822,40.249-21.356,60.783-40.248.821-60.783,21.356-.821,40.248-21.356,60.782-40.248.821-60.783,21.357-.822,40.248-21.357,60.783-40.248.822-60.783,21.357" transform="translate(-1664.538 -1054.722)" fill="none" stroke="#96d1bf" stroke-miterlimit="10" stroke-width="2.468"/>
        <path id="Path_2008" data-name="Path 2008" d="M1989.76,1075.063c-20.535,20.534-.821,40.248-21.355,60.782s-40.248.821-60.783,21.356-.822,40.249-21.356,60.783-40.248.821-60.783,21.356-.822,40.248-21.356,60.782-40.248.822-60.783,21.357-.822,40.248-21.357,60.783-40.248.822-60.783,21.357" transform="translate(-1672.154 -1062.338)" fill="none" stroke="#96d1bf" stroke-miterlimit="10" stroke-width="2.468"/>
      </g>
    </g>
  </g>
</svg>
