<svg xmlns="http://www.w3.org/2000/svg" xmlns:xlink="http://www.w3.org/1999/xlink" width="279.498" height="345.664" viewBox="0 0 279.498 345.664">
  <defs>
    <clipPath id="clip-path">
      <path id="Path_1933" data-name="Path 1933" d="M7.639,756.47c46,5.5,81.019-35.028,91.556-76.331a127.636,127.636,0,0,0,2.24-13.859,119.5,119.5,0,0,0-2.858-42.067,102.959,102.959,0,0,0-4.406-13.349c-12.948-40.517-57.078-66.9-98.71-55.1a88.063,88.063,0,0,0-14.933,2.994c-33.811,9.877-64.419,30.167-72.708,64.222-1.184,4.865-3.7,12.454-4.3,17.428-10.967,52.261,39.8,101.9,87.55,112.838A115.264,115.264,0,0,0,7.639,756.47Z" transform="translate(97.988 -552.933)" fill="none"/>
    </clipPath>
  </defs>
  <g id="Group_616" data-name="Group 616" transform="translate(61.123 -4917.06)">
    <path id="Path_2066" data-name="Path 2066" d="M-148.784,478.38c46-5.5,81.019,35.028,91.556,76.332a127.583,127.583,0,0,1,2.239,13.859,119.5,119.5,0,0,1-2.858,42.067,102.832,102.832,0,0,1-4.406,13.35c-12.948,40.517-57.078,66.9-98.71,55.1a88.063,88.063,0,0,1-14.933-2.994c-33.811-9.877-59.917-39.277-68.206-73.333a126.688,126.688,0,0,1-2.647-14.786c-10.967-52.261,33.643-95.431,81.4-106.37A115.3,115.3,0,0,1-148.784,478.38Z" transform="translate(187.302 4439.184)" fill="#f7f3ee"/>
    <path id="Path_2068" data-name="Path 2068" d="M-134.439,746.79c46-5.5,81.019,35.028,91.556,76.331a127.615,127.615,0,0,1,2.24,13.859A119.492,119.492,0,0,1-43.5,879.048a102.91,102.91,0,0,1-4.405,13.35c-12.948,40.517-57.078,66.9-98.71,55.1A88.022,88.022,0,0,1-161.55,944.5c-33.811-9.877-59.916-39.277-68.205-73.332a126.616,126.616,0,0,1-2.647-14.786c-10.967-52.261,33.642-95.431,81.4-106.37A115.152,115.152,0,0,1-134.439,746.79Z" transform="translate(180.526 4312.396)" fill="#96d1bf"/>
    <g id="Group_464" data-name="Group 464" transform="translate(18.253 4956.663)">
      <g id="Group_446" data-name="Group 446" clip-path="url(#clip-path)">
        <circle id="Ellipse_234" data-name="Ellipse 234" cx="3.217" cy="3.217" r="3.217" transform="translate(-3.872 -1.913)" fill="#82c5de"/>
        <path id="Path_1806" data-name="Path 1806" d="M-102.11,587.555a3.217,3.217,0,0,0,3.217-3.217,3.217,3.217,0,0,0-3.217-3.216,3.217,3.217,0,0,0-3.217,3.216A3.217,3.217,0,0,0-102.11,587.555Z" transform="translate(101.455 -566.248)" fill="#82c5de"/>
        <path id="Path_1807" data-name="Path 1807" d="M-102.11,619.369a3.217,3.217,0,0,0,3.217-3.217,3.217,3.217,0,0,0-3.217-3.217,3.217,3.217,0,0,0-3.217,3.217A3.217,3.217,0,0,0-102.11,619.369Z" transform="translate(101.455 -581.276)" fill="#82c5de"/>
        <circle id="Ellipse_235" data-name="Ellipse 235" cx="3.217" cy="3.217" r="3.217" transform="translate(-3.872 48.446)" fill="#82c5de"/>
        <circle id="Ellipse_236" data-name="Ellipse 236" cx="3.217" cy="3.217" r="3.217" transform="translate(-3.872 65.232)" fill="#82c5de"/>
        <path id="Path_1808" data-name="Path 1808" d="M-102.11,714.809a3.217,3.217,0,0,0,3.217-3.216,3.217,3.217,0,0,0-3.217-3.217,3.217,3.217,0,0,0-3.217,3.217A3.217,3.217,0,0,0-102.11,714.809Z" transform="translate(101.455 -626.358)" fill="#82c5de"/>
        <path id="Path_1809" data-name="Path 1809" d="M-102.11,746.623a3.217,3.217,0,0,0,3.217-3.217,3.217,3.217,0,0,0-3.217-3.216,3.217,3.217,0,0,0-3.217,3.216A3.217,3.217,0,0,0-102.11,746.623Z" transform="translate(101.455 -641.386)" fill="#82c5de"/>
        <circle id="Ellipse_237" data-name="Ellipse 237" cx="3.217" cy="3.217" r="3.217" transform="translate(-3.872 115.589)" fill="#82c5de"/>
        <circle id="Ellipse_238" data-name="Ellipse 238" cx="3.217" cy="3.217" r="3.217" transform="translate(-3.872 132.375)" fill="#82c5de"/>
        <path id="Path_1810" data-name="Path 1810" d="M-102.11,842.063a3.217,3.217,0,0,0,3.217-3.216,3.217,3.217,0,0,0-3.217-3.217,3.217,3.217,0,0,0-3.217,3.217A3.217,3.217,0,0,0-102.11,842.063Z" transform="translate(101.455 -686.469)" fill="#82c5de"/>
        <path id="Path_1811" data-name="Path 1811" d="M-102.11,873.877a3.217,3.217,0,0,0,3.217-3.217,3.217,3.217,0,0,0-3.217-3.217,3.217,3.217,0,0,0-3.217,3.217A3.217,3.217,0,0,0-102.11,873.877Z" transform="translate(101.455 -701.496)" fill="#82c5de"/>
        <circle id="Ellipse_239" data-name="Ellipse 239" cx="3.217" cy="3.217" r="3.217" transform="translate(-3.872 182.733)" fill="#82c5de"/>
        <circle id="Ellipse_240" data-name="Ellipse 240" cx="3.217" cy="3.217" r="3.217" transform="translate(-3.872 199.52)" fill="#82c5de"/>
        <path id="Path_1812" data-name="Path 1812" d="M-70.3,555.742a3.217,3.217,0,0,0,3.217-3.217,3.217,3.217,0,0,0-3.217-3.217,3.217,3.217,0,0,0-3.216,3.217A3.217,3.217,0,0,0-70.3,555.742Z" transform="translate(86.427 -551.221)" fill="#82c5de"/>
        <path id="Path_1813" data-name="Path 1813" d="M-70.3,587.555a3.217,3.217,0,0,0,3.217-3.217,3.217,3.217,0,0,0-3.217-3.216,3.217,3.217,0,0,0-3.216,3.216A3.217,3.217,0,0,0-70.3,587.555Z" transform="translate(86.427 -566.248)" fill="#82c5de"/>
        <path id="Path_1814" data-name="Path 1814" d="M-70.3,619.369a3.216,3.216,0,0,0,3.217-3.217,3.217,3.217,0,0,0-3.217-3.217,3.217,3.217,0,0,0-3.216,3.217A3.216,3.216,0,0,0-70.3,619.369Z" transform="translate(86.427 -581.276)" fill="#82c5de"/>
        <path id="Path_1815" data-name="Path 1815" d="M-70.3,651.182a3.217,3.217,0,0,0,3.217-3.216,3.217,3.217,0,0,0-3.217-3.217,3.217,3.217,0,0,0-3.216,3.217A3.217,3.217,0,0,0-70.3,651.182Z" transform="translate(86.427 -596.303)" fill="#82c5de"/>
        <path id="Path_1816" data-name="Path 1816" d="M-70.3,683a3.217,3.217,0,0,0,3.217-3.217,3.216,3.216,0,0,0-3.217-3.216,3.216,3.216,0,0,0-3.216,3.216A3.217,3.217,0,0,0-70.3,683Z" transform="translate(86.427 -611.331)" fill="#82c5de"/>
        <path id="Path_1817" data-name="Path 1817" d="M-70.3,714.809a3.216,3.216,0,0,0,3.217-3.216,3.217,3.217,0,0,0-3.217-3.217,3.216,3.216,0,0,0-3.216,3.217A3.216,3.216,0,0,0-70.3,714.809Z" transform="translate(86.427 -626.358)" fill="#82c5de"/>
        <path id="Path_1818" data-name="Path 1818" d="M-70.3,746.623a3.217,3.217,0,0,0,3.217-3.217A3.216,3.216,0,0,0-70.3,740.19a3.216,3.216,0,0,0-3.216,3.216A3.217,3.217,0,0,0-70.3,746.623Z" transform="translate(86.427 -641.386)" fill="#82c5de"/>
        <path id="Path_1819" data-name="Path 1819" d="M-70.3,778.436a3.216,3.216,0,0,0,3.217-3.216A3.217,3.217,0,0,0-70.3,772a3.216,3.216,0,0,0-3.216,3.217A3.216,3.216,0,0,0-70.3,778.436Z" transform="translate(86.427 -656.413)" fill="#82c5de"/>
        <path id="Path_1820" data-name="Path 1820" d="M-70.3,810.25a3.217,3.217,0,0,0,3.217-3.217,3.217,3.217,0,0,0-3.217-3.217,3.217,3.217,0,0,0-3.216,3.217A3.217,3.217,0,0,0-70.3,810.25Z" transform="translate(86.427 -671.441)" fill="#82c5de"/>
        <path id="Path_1821" data-name="Path 1821" d="M-70.3,842.063a3.216,3.216,0,0,0,3.217-3.216A3.217,3.217,0,0,0-70.3,835.63a3.216,3.216,0,0,0-3.216,3.217A3.216,3.216,0,0,0-70.3,842.063Z" transform="translate(86.427 -686.469)" fill="#82c5de"/>
        <path id="Path_1822" data-name="Path 1822" d="M-70.3,873.877a3.217,3.217,0,0,0,3.217-3.217,3.217,3.217,0,0,0-3.217-3.217,3.217,3.217,0,0,0-3.216,3.217A3.217,3.217,0,0,0-70.3,873.877Z" transform="translate(86.427 -701.496)" fill="#82c5de"/>
        <path id="Path_1823" data-name="Path 1823" d="M-70.3,905.691a3.216,3.216,0,0,0,3.217-3.217,3.217,3.217,0,0,0-3.217-3.217,3.217,3.217,0,0,0-3.216,3.217A3.216,3.216,0,0,0-70.3,905.691Z" transform="translate(86.427 -716.524)" fill="#82c5de"/>
        <path id="Path_1824" data-name="Path 1824" d="M-70.3,937.5a3.217,3.217,0,0,0,3.217-3.217,3.216,3.216,0,0,0-3.217-3.216,3.216,3.216,0,0,0-3.216,3.216A3.217,3.217,0,0,0-70.3,937.5Z" transform="translate(86.427 -731.551)" fill="#82c5de"/>
        <path id="Path_1825" data-name="Path 1825" d="M-38.482,555.742a3.217,3.217,0,0,0,3.216-3.217,3.217,3.217,0,0,0-3.216-3.217,3.217,3.217,0,0,0-3.218,3.217A3.217,3.217,0,0,0-38.482,555.742Z" transform="translate(71.4 -551.221)" fill="#82c5de"/>
        <path id="Path_1826" data-name="Path 1826" d="M-38.482,587.555a3.217,3.217,0,0,0,3.216-3.217,3.217,3.217,0,0,0-3.216-3.216,3.217,3.217,0,0,0-3.218,3.216A3.217,3.217,0,0,0-38.482,587.555Z" transform="translate(71.4 -566.248)" fill="#82c5de"/>
        <path id="Path_1827" data-name="Path 1827" d="M-38.482,619.369a3.217,3.217,0,0,0,3.216-3.217,3.217,3.217,0,0,0-3.216-3.217,3.217,3.217,0,0,0-3.218,3.217A3.217,3.217,0,0,0-38.482,619.369Z" transform="translate(71.4 -581.276)" fill="#82c5de"/>
        <path id="Path_1828" data-name="Path 1828" d="M-38.482,651.182a3.217,3.217,0,0,0,3.216-3.216,3.217,3.217,0,0,0-3.216-3.217,3.217,3.217,0,0,0-3.218,3.217A3.217,3.217,0,0,0-38.482,651.182Z" transform="translate(71.4 -596.303)" fill="#82c5de"/>
        <path id="Path_1829" data-name="Path 1829" d="M-38.482,683a3.217,3.217,0,0,0,3.216-3.217,3.217,3.217,0,0,0-3.216-3.216,3.217,3.217,0,0,0-3.218,3.216A3.217,3.217,0,0,0-38.482,683Z" transform="translate(71.4 -611.331)" fill="#82c5de"/>
        <path id="Path_1830" data-name="Path 1830" d="M-38.482,714.809a3.217,3.217,0,0,0,3.216-3.216,3.217,3.217,0,0,0-3.216-3.217,3.217,3.217,0,0,0-3.218,3.217A3.217,3.217,0,0,0-38.482,714.809Z" transform="translate(71.4 -626.358)" fill="#82c5de"/>
        <path id="Path_1831" data-name="Path 1831" d="M-38.482,746.623a3.217,3.217,0,0,0,3.216-3.217,3.217,3.217,0,0,0-3.216-3.216,3.217,3.217,0,0,0-3.218,3.216A3.217,3.217,0,0,0-38.482,746.623Z" transform="translate(71.4 -641.386)" fill="#82c5de"/>
        <path id="Path_1832" data-name="Path 1832" d="M-38.482,778.436a3.217,3.217,0,0,0,3.216-3.216A3.217,3.217,0,0,0-38.482,772,3.217,3.217,0,0,0-41.7,775.22,3.217,3.217,0,0,0-38.482,778.436Z" transform="translate(71.4 -656.413)" fill="#82c5de"/>
        <path id="Path_1833" data-name="Path 1833" d="M-38.482,810.25a3.217,3.217,0,0,0,3.216-3.217,3.217,3.217,0,0,0-3.216-3.217,3.217,3.217,0,0,0-3.218,3.217A3.217,3.217,0,0,0-38.482,810.25Z" transform="translate(71.4 -671.441)" fill="#82c5de"/>
        <path id="Path_1834" data-name="Path 1834" d="M-38.482,842.063a3.217,3.217,0,0,0,3.216-3.216,3.217,3.217,0,0,0-3.216-3.217,3.217,3.217,0,0,0-3.218,3.217A3.217,3.217,0,0,0-38.482,842.063Z" transform="translate(71.4 -686.469)" fill="#82c5de"/>
        <path id="Path_1835" data-name="Path 1835" d="M-38.482,873.877a3.217,3.217,0,0,0,3.216-3.217,3.217,3.217,0,0,0-3.216-3.217A3.217,3.217,0,0,0-41.7,870.66,3.217,3.217,0,0,0-38.482,873.877Z" transform="translate(71.4 -701.496)" fill="#82c5de"/>
        <path id="Path_1836" data-name="Path 1836" d="M-38.482,905.691a3.217,3.217,0,0,0,3.216-3.217,3.217,3.217,0,0,0-3.216-3.217,3.217,3.217,0,0,0-3.218,3.217A3.217,3.217,0,0,0-38.482,905.691Z" transform="translate(71.4 -716.524)" fill="#82c5de"/>
        <path id="Path_1837" data-name="Path 1837" d="M-38.482,937.5a3.217,3.217,0,0,0,3.216-3.217,3.217,3.217,0,0,0-3.216-3.216,3.217,3.217,0,0,0-3.218,3.216A3.217,3.217,0,0,0-38.482,937.5Z" transform="translate(71.4 -731.551)" fill="#82c5de"/>
        <path id="Path_1838" data-name="Path 1838" d="M-6.669,555.742a3.217,3.217,0,0,0,3.217-3.217,3.217,3.217,0,0,0-3.217-3.217,3.217,3.217,0,0,0-3.217,3.217A3.217,3.217,0,0,0-6.669,555.742Z" transform="translate(56.372 -551.221)" fill="#82c5de"/>
        <path id="Path_1839" data-name="Path 1839" d="M-6.669,587.555a3.217,3.217,0,0,0,3.217-3.217,3.217,3.217,0,0,0-3.217-3.216,3.217,3.217,0,0,0-3.217,3.216A3.217,3.217,0,0,0-6.669,587.555Z" transform="translate(56.372 -566.248)" fill="#82c5de"/>
        <path id="Path_1840" data-name="Path 1840" d="M-6.669,619.369a3.217,3.217,0,0,0,3.217-3.217,3.217,3.217,0,0,0-3.217-3.217,3.217,3.217,0,0,0-3.217,3.217A3.217,3.217,0,0,0-6.669,619.369Z" transform="translate(56.372 -581.276)" fill="#82c5de"/>
        <path id="Path_1841" data-name="Path 1841" d="M-6.669,651.182a3.217,3.217,0,0,0,3.217-3.216,3.217,3.217,0,0,0-3.217-3.217,3.217,3.217,0,0,0-3.217,3.217A3.217,3.217,0,0,0-6.669,651.182Z" transform="translate(56.372 -596.303)" fill="#82c5de"/>
        <path id="Path_1842" data-name="Path 1842" d="M-6.669,683a3.217,3.217,0,0,0,3.217-3.217,3.217,3.217,0,0,0-3.217-3.216,3.217,3.217,0,0,0-3.217,3.216A3.217,3.217,0,0,0-6.669,683Z" transform="translate(56.372 -611.331)" fill="#82c5de"/>
        <path id="Path_1843" data-name="Path 1843" d="M-6.669,714.809a3.217,3.217,0,0,0,3.217-3.216,3.217,3.217,0,0,0-3.217-3.217,3.217,3.217,0,0,0-3.217,3.217A3.217,3.217,0,0,0-6.669,714.809Z" transform="translate(56.372 -626.358)" fill="#82c5de"/>
        <path id="Path_1844" data-name="Path 1844" d="M-6.669,746.623a3.217,3.217,0,0,0,3.217-3.217,3.217,3.217,0,0,0-3.217-3.216,3.217,3.217,0,0,0-3.217,3.216A3.217,3.217,0,0,0-6.669,746.623Z" transform="translate(56.372 -641.386)" fill="#82c5de"/>
        <path id="Path_1845" data-name="Path 1845" d="M-6.669,778.436a3.217,3.217,0,0,0,3.217-3.216A3.217,3.217,0,0,0-6.669,772a3.217,3.217,0,0,0-3.217,3.217A3.217,3.217,0,0,0-6.669,778.436Z" transform="translate(56.372 -656.413)" fill="#82c5de"/>
        <path id="Path_1846" data-name="Path 1846" d="M-6.669,810.25a3.217,3.217,0,0,0,3.217-3.217,3.217,3.217,0,0,0-3.217-3.217,3.217,3.217,0,0,0-3.217,3.217A3.217,3.217,0,0,0-6.669,810.25Z" transform="translate(56.372 -671.441)" fill="#82c5de"/>
        <path id="Path_1847" data-name="Path 1847" d="M-6.669,842.063a3.217,3.217,0,0,0,3.217-3.216,3.217,3.217,0,0,0-3.217-3.217,3.217,3.217,0,0,0-3.217,3.217A3.217,3.217,0,0,0-6.669,842.063Z" transform="translate(56.372 -686.469)" fill="#82c5de"/>
        <path id="Path_1848" data-name="Path 1848" d="M-6.669,873.877a3.217,3.217,0,0,0,3.217-3.217,3.217,3.217,0,0,0-3.217-3.217,3.217,3.217,0,0,0-3.217,3.217A3.217,3.217,0,0,0-6.669,873.877Z" transform="translate(56.372 -701.496)" fill="#82c5de"/>
        <path id="Path_1849" data-name="Path 1849" d="M-6.669,905.691a3.217,3.217,0,0,0,3.217-3.217,3.217,3.217,0,0,0-3.217-3.217,3.217,3.217,0,0,0-3.217,3.217A3.217,3.217,0,0,0-6.669,905.691Z" transform="translate(56.372 -716.524)" fill="#82c5de"/>
        <path id="Path_1850" data-name="Path 1850" d="M-6.669,937.5a3.217,3.217,0,0,0,3.217-3.217,3.217,3.217,0,0,0-3.217-3.216,3.217,3.217,0,0,0-3.217,3.216A3.217,3.217,0,0,0-6.669,937.5Z" transform="translate(56.372 -731.551)" fill="#82c5de"/>
        <circle id="Ellipse_241" data-name="Ellipse 241" cx="3.217" cy="3.217" r="3.217" transform="translate(63.272 -1.913)" fill="#82c5de"/>
        <path id="Path_1851" data-name="Path 1851" d="M25.144,587.555a3.217,3.217,0,1,0-3.216-3.217A3.217,3.217,0,0,0,25.144,587.555Z" transform="translate(41.344 -566.248)" fill="#82c5de"/>
        <path id="Path_1852" data-name="Path 1852" d="M25.144,619.369a3.217,3.217,0,1,0-3.216-3.217A3.216,3.216,0,0,0,25.144,619.369Z" transform="translate(41.344 -581.276)" fill="#82c5de"/>
        <circle id="Ellipse_242" data-name="Ellipse 242" cx="3.217" cy="3.217" r="3.217" transform="translate(63.272 48.446)" fill="#82c5de"/>
        <circle id="Ellipse_243" data-name="Ellipse 243" cx="3.217" cy="3.217" r="3.217" transform="translate(63.272 65.232)" fill="#82c5de"/>
        <path id="Path_1853" data-name="Path 1853" d="M25.144,714.809a3.217,3.217,0,1,0-3.216-3.216A3.216,3.216,0,0,0,25.144,714.809Z" transform="translate(41.344 -626.358)" fill="#82c5de"/>
        <path id="Path_1854" data-name="Path 1854" d="M25.144,746.623a3.217,3.217,0,1,0-3.216-3.217A3.217,3.217,0,0,0,25.144,746.623Z" transform="translate(41.344 -641.386)" fill="#82c5de"/>
        <circle id="Ellipse_244" data-name="Ellipse 244" cx="3.217" cy="3.217" r="3.217" transform="translate(63.272 115.589)" fill="#82c5de"/>
        <circle id="Ellipse_245" data-name="Ellipse 245" cx="3.217" cy="3.217" r="3.217" transform="translate(63.272 132.375)" fill="#82c5de"/>
        <path id="Path_1855" data-name="Path 1855" d="M25.144,842.063a3.217,3.217,0,1,0-3.216-3.216A3.216,3.216,0,0,0,25.144,842.063Z" transform="translate(41.344 -686.469)" fill="#82c5de"/>
        <path id="Path_1856" data-name="Path 1856" d="M25.144,873.877a3.217,3.217,0,1,0-3.216-3.217A3.217,3.217,0,0,0,25.144,873.877Z" transform="translate(41.344 -701.496)" fill="#82c5de"/>
        <circle id="Ellipse_246" data-name="Ellipse 246" cx="3.217" cy="3.217" r="3.217" transform="translate(63.272 182.733)" fill="#82c5de"/>
        <circle id="Ellipse_247" data-name="Ellipse 247" cx="3.217" cy="3.217" r="3.217" transform="translate(63.272 199.52)" fill="#82c5de"/>
        <circle id="Ellipse_248" data-name="Ellipse 248" cx="3.217" cy="3.217" r="3.217" transform="translate(80.058 -1.913)" fill="#82c5de"/>
        <path id="Path_1857" data-name="Path 1857" d="M56.958,587.555a3.217,3.217,0,1,0-3.217-3.217A3.217,3.217,0,0,0,56.958,587.555Z" transform="translate(26.317 -566.248)" fill="#82c5de"/>
        <path id="Path_1858" data-name="Path 1858" d="M56.958,619.369a3.217,3.217,0,1,0-3.217-3.217A3.217,3.217,0,0,0,56.958,619.369Z" transform="translate(26.317 -581.276)" fill="#82c5de"/>
        <circle id="Ellipse_249" data-name="Ellipse 249" cx="3.217" cy="3.217" r="3.217" transform="translate(80.058 48.446)" fill="#82c5de"/>
        <circle id="Ellipse_250" data-name="Ellipse 250" cx="3.217" cy="3.217" r="3.217" transform="translate(80.058 65.232)" fill="#82c5de"/>
        <path id="Path_1859" data-name="Path 1859" d="M56.958,714.809a3.217,3.217,0,1,0-3.217-3.216A3.217,3.217,0,0,0,56.958,714.809Z" transform="translate(26.317 -626.358)" fill="#82c5de"/>
        <path id="Path_1860" data-name="Path 1860" d="M56.958,746.623a3.217,3.217,0,1,0-3.217-3.217A3.217,3.217,0,0,0,56.958,746.623Z" transform="translate(26.317 -641.386)" fill="#82c5de"/>
        <circle id="Ellipse_251" data-name="Ellipse 251" cx="3.217" cy="3.217" r="3.217" transform="translate(80.058 115.589)" fill="#82c5de"/>
        <circle id="Ellipse_252" data-name="Ellipse 252" cx="3.217" cy="3.217" r="3.217" transform="translate(80.058 132.375)" fill="#82c5de"/>
        <path id="Path_1861" data-name="Path 1861" d="M56.958,842.063a3.217,3.217,0,1,0-3.217-3.216A3.217,3.217,0,0,0,56.958,842.063Z" transform="translate(26.317 -686.469)" fill="#82c5de"/>
        <path id="Path_1862" data-name="Path 1862" d="M56.958,873.877a3.217,3.217,0,1,0-3.217-3.217A3.217,3.217,0,0,0,56.958,873.877Z" transform="translate(26.317 -701.496)" fill="#82c5de"/>
        <circle id="Ellipse_253" data-name="Ellipse 253" cx="3.217" cy="3.217" r="3.217" transform="translate(80.058 182.733)" fill="#82c5de"/>
        <circle id="Ellipse_254" data-name="Ellipse 254" cx="3.217" cy="3.217" r="3.217" transform="translate(80.058 199.52)" fill="#82c5de"/>
        <path id="Path_1863" data-name="Path 1863" d="M88.771,555.742a3.217,3.217,0,1,0-3.216-3.217A3.217,3.217,0,0,0,88.771,555.742Z" transform="translate(11.289 -551.221)" fill="#82c5de"/>
        <path id="Path_1864" data-name="Path 1864" d="M88.771,587.555a3.217,3.217,0,1,0-3.216-3.217A3.217,3.217,0,0,0,88.771,587.555Z" transform="translate(11.289 -566.248)" fill="#82c5de"/>
        <path id="Path_1865" data-name="Path 1865" d="M88.771,619.369a3.217,3.217,0,1,0-3.216-3.217A3.216,3.216,0,0,0,88.771,619.369Z" transform="translate(11.289 -581.276)" fill="#82c5de"/>
        <path id="Path_1866" data-name="Path 1866" d="M88.771,651.182a3.217,3.217,0,1,0-3.216-3.216A3.217,3.217,0,0,0,88.771,651.182Z" transform="translate(11.289 -596.303)" fill="#82c5de"/>
        <path id="Path_1867" data-name="Path 1867" d="M88.771,683a3.217,3.217,0,1,0-3.216-3.217A3.217,3.217,0,0,0,88.771,683Z" transform="translate(11.289 -611.331)" fill="#82c5de"/>
        <path id="Path_1868" data-name="Path 1868" d="M88.771,714.809a3.217,3.217,0,1,0-3.216-3.216A3.216,3.216,0,0,0,88.771,714.809Z" transform="translate(11.289 -626.358)" fill="#82c5de"/>
        <path id="Path_1869" data-name="Path 1869" d="M88.771,746.623a3.217,3.217,0,1,0-3.216-3.217A3.217,3.217,0,0,0,88.771,746.623Z" transform="translate(11.289 -641.386)" fill="#82c5de"/>
        <path id="Path_1870" data-name="Path 1870" d="M88.771,778.436a3.217,3.217,0,1,0-3.216-3.216A3.216,3.216,0,0,0,88.771,778.436Z" transform="translate(11.289 -656.413)" fill="#82c5de"/>
        <path id="Path_1871" data-name="Path 1871" d="M88.771,810.25a3.217,3.217,0,1,0-3.216-3.217A3.217,3.217,0,0,0,88.771,810.25Z" transform="translate(11.289 -671.441)" fill="#82c5de"/>
        <path id="Path_1872" data-name="Path 1872" d="M88.771,842.063a3.217,3.217,0,1,0-3.216-3.216A3.216,3.216,0,0,0,88.771,842.063Z" transform="translate(11.289 -686.469)" fill="#82c5de"/>
        <path id="Path_1873" data-name="Path 1873" d="M88.771,873.877a3.217,3.217,0,1,0-3.216-3.217A3.217,3.217,0,0,0,88.771,873.877Z" transform="translate(11.289 -701.496)" fill="#82c5de"/>
        <path id="Path_1874" data-name="Path 1874" d="M88.771,905.691a3.217,3.217,0,1,0-3.216-3.217A3.216,3.216,0,0,0,88.771,905.691Z" transform="translate(11.289 -716.524)" fill="#82c5de"/>
        <path id="Path_1875" data-name="Path 1875" d="M88.771,937.5a3.217,3.217,0,1,0-3.216-3.217A3.217,3.217,0,0,0,88.771,937.5Z" transform="translate(11.289 -731.551)" fill="#82c5de"/>
        <path id="Path_1876" data-name="Path 1876" d="M120.585,555.742a3.217,3.217,0,1,0-3.217-3.217A3.217,3.217,0,0,0,120.585,555.742Z" transform="translate(-3.738 -551.221)" fill="#82c5de"/>
        <path id="Path_1877" data-name="Path 1877" d="M120.585,587.555a3.217,3.217,0,1,0-3.217-3.217A3.217,3.217,0,0,0,120.585,587.555Z" transform="translate(-3.738 -566.248)" fill="#82c5de"/>
        <path id="Path_1878" data-name="Path 1878" d="M120.585,619.369a3.217,3.217,0,1,0-3.217-3.217A3.216,3.216,0,0,0,120.585,619.369Z" transform="translate(-3.738 -581.276)" fill="#82c5de"/>
        <path id="Path_1879" data-name="Path 1879" d="M120.585,651.182a3.217,3.217,0,1,0-3.217-3.216A3.217,3.217,0,0,0,120.585,651.182Z" transform="translate(-3.738 -596.303)" fill="#82c5de"/>
        <path id="Path_1880" data-name="Path 1880" d="M120.585,683a3.217,3.217,0,1,0-3.217-3.217A3.217,3.217,0,0,0,120.585,683Z" transform="translate(-3.738 -611.331)" fill="#82c5de"/>
        <path id="Path_1881" data-name="Path 1881" d="M120.585,714.809a3.217,3.217,0,1,0-3.217-3.216A3.216,3.216,0,0,0,120.585,714.809Z" transform="translate(-3.738 -626.358)" fill="#82c5de"/>
        <path id="Path_1882" data-name="Path 1882" d="M120.585,746.623a3.217,3.217,0,1,0-3.217-3.217A3.217,3.217,0,0,0,120.585,746.623Z" transform="translate(-3.738 -641.386)" fill="#82c5de"/>
        <path id="Path_1883" data-name="Path 1883" d="M120.585,778.436a3.217,3.217,0,1,0-3.217-3.216A3.216,3.216,0,0,0,120.585,778.436Z" transform="translate(-3.738 -656.413)" fill="#82c5de"/>
        <path id="Path_1884" data-name="Path 1884" d="M120.585,810.25a3.217,3.217,0,1,0-3.217-3.217A3.217,3.217,0,0,0,120.585,810.25Z" transform="translate(-3.738 -671.441)" fill="#82c5de"/>
        <path id="Path_1885" data-name="Path 1885" d="M120.585,842.063a3.217,3.217,0,1,0-3.217-3.216A3.216,3.216,0,0,0,120.585,842.063Z" transform="translate(-3.738 -686.469)" fill="#82c5de"/>
        <path id="Path_1886" data-name="Path 1886" d="M120.585,873.877a3.217,3.217,0,1,0-3.217-3.217A3.217,3.217,0,0,0,120.585,873.877Z" transform="translate(-3.738 -701.496)" fill="#82c5de"/>
        <path id="Path_1887" data-name="Path 1887" d="M120.585,905.691a3.217,3.217,0,1,0-3.217-3.217A3.216,3.216,0,0,0,120.585,905.691Z" transform="translate(-3.738 -716.524)" fill="#82c5de"/>
        <path id="Path_1888" data-name="Path 1888" d="M120.585,937.5a3.217,3.217,0,1,0-3.217-3.217A3.217,3.217,0,0,0,120.585,937.5Z" transform="translate(-3.738 -731.551)" fill="#82c5de"/>
        <circle id="Ellipse_255" data-name="Ellipse 255" cx="3.217" cy="3.217" r="3.217" transform="translate(130.416 -1.913)" fill="#82c5de"/>
        <path id="Path_1889" data-name="Path 1889" d="M152.4,587.555a3.217,3.217,0,1,0-3.216-3.217A3.217,3.217,0,0,0,152.4,587.555Z" transform="translate(-18.766 -566.248)" fill="#82c5de"/>
        <path id="Path_1890" data-name="Path 1890" d="M152.4,619.369a3.217,3.217,0,1,0-3.216-3.217A3.216,3.216,0,0,0,152.4,619.369Z" transform="translate(-18.766 -581.276)" fill="#82c5de"/>
        <circle id="Ellipse_256" data-name="Ellipse 256" cx="3.217" cy="3.217" r="3.217" transform="translate(130.416 48.446)" fill="#82c5de"/>
        <circle id="Ellipse_257" data-name="Ellipse 257" cx="3.217" cy="3.217" r="3.217" transform="translate(130.416 65.232)" fill="#82c5de"/>
        <path id="Path_1891" data-name="Path 1891" d="M152.4,714.809a3.217,3.217,0,1,0-3.216-3.216A3.216,3.216,0,0,0,152.4,714.809Z" transform="translate(-18.766 -626.358)" fill="#82c5de"/>
        <path id="Path_1892" data-name="Path 1892" d="M152.4,746.623a3.217,3.217,0,1,0-3.216-3.217A3.217,3.217,0,0,0,152.4,746.623Z" transform="translate(-18.766 -641.386)" fill="#82c5de"/>
        <circle id="Ellipse_258" data-name="Ellipse 258" cx="3.217" cy="3.217" r="3.217" transform="translate(130.416 115.589)" fill="#82c5de"/>
        <circle id="Ellipse_259" data-name="Ellipse 259" cx="3.217" cy="3.217" r="3.217" transform="translate(130.416 132.375)" fill="#82c5de"/>
        <path id="Path_1893" data-name="Path 1893" d="M152.4,842.063a3.217,3.217,0,1,0-3.216-3.216A3.216,3.216,0,0,0,152.4,842.063Z" transform="translate(-18.766 -686.469)" fill="#82c5de"/>
        <path id="Path_1894" data-name="Path 1894" d="M152.4,873.877a3.217,3.217,0,1,0-3.216-3.217A3.217,3.217,0,0,0,152.4,873.877Z" transform="translate(-18.766 -701.496)" fill="#82c5de"/>
        <circle id="Ellipse_260" data-name="Ellipse 260" cx="3.217" cy="3.217" r="3.217" transform="translate(130.416 182.733)" fill="#82c5de"/>
        <circle id="Ellipse_261" data-name="Ellipse 261" cx="3.217" cy="3.217" r="3.217" transform="translate(130.416 199.52)" fill="#82c5de"/>
        <circle id="Ellipse_262" data-name="Ellipse 262" cx="3.217" cy="3.217" r="3.217" transform="translate(147.202 -1.913)" fill="#82c5de"/>
        <path id="Path_1895" data-name="Path 1895" d="M184.212,587.555a3.217,3.217,0,1,0-3.217-3.217A3.217,3.217,0,0,0,184.212,587.555Z" transform="translate(-33.793 -566.248)" fill="#82c5de"/>
        <path id="Path_1896" data-name="Path 1896" d="M184.212,619.369a3.217,3.217,0,1,0-3.217-3.217A3.217,3.217,0,0,0,184.212,619.369Z" transform="translate(-33.793 -581.276)" fill="#82c5de"/>
        <circle id="Ellipse_263" data-name="Ellipse 263" cx="3.217" cy="3.217" r="3.217" transform="translate(147.202 48.446)" fill="#82c5de"/>
        <circle id="Ellipse_264" data-name="Ellipse 264" cx="3.217" cy="3.217" r="3.217" transform="translate(147.202 65.232)" fill="#82c5de"/>
        <path id="Path_1897" data-name="Path 1897" d="M184.212,714.809a3.217,3.217,0,1,0-3.217-3.216A3.217,3.217,0,0,0,184.212,714.809Z" transform="translate(-33.793 -626.358)" fill="#82c5de"/>
        <path id="Path_1898" data-name="Path 1898" d="M184.212,746.623a3.217,3.217,0,1,0-3.217-3.217A3.217,3.217,0,0,0,184.212,746.623Z" transform="translate(-33.793 -641.386)" fill="#82c5de"/>
        <circle id="Ellipse_265" data-name="Ellipse 265" cx="3.217" cy="3.217" r="3.217" transform="translate(147.202 115.589)" fill="#82c5de"/>
        <circle id="Ellipse_266" data-name="Ellipse 266" cx="3.217" cy="3.217" r="3.217" transform="translate(147.202 132.375)" fill="#82c5de"/>
        <path id="Path_1899" data-name="Path 1899" d="M184.212,842.063a3.217,3.217,0,1,0-3.217-3.216A3.217,3.217,0,0,0,184.212,842.063Z" transform="translate(-33.793 -686.469)" fill="#82c5de"/>
        <path id="Path_1900" data-name="Path 1900" d="M184.212,873.877a3.217,3.217,0,1,0-3.217-3.217A3.217,3.217,0,0,0,184.212,873.877Z" transform="translate(-33.793 -701.496)" fill="#82c5de"/>
        <circle id="Ellipse_267" data-name="Ellipse 267" cx="3.217" cy="3.217" r="3.217" transform="translate(147.202 182.733)" fill="#82c5de"/>
        <circle id="Ellipse_268" data-name="Ellipse 268" cx="3.217" cy="3.217" r="3.217" transform="translate(147.202 199.52)" fill="#82c5de"/>
        <circle id="Ellipse_269" data-name="Ellipse 269" cx="3.217" cy="3.217" r="3.217" transform="translate(163.988 -1.913)" fill="#82c5de"/>
        <path id="Path_1901" data-name="Path 1901" d="M216.025,587.555a3.217,3.217,0,1,0-3.216-3.217A3.217,3.217,0,0,0,216.025,587.555Z" transform="translate(-48.821 -566.248)" fill="#82c5de"/>
        <path id="Path_1902" data-name="Path 1902" d="M216.025,619.369a3.217,3.217,0,1,0-3.216-3.217A3.216,3.216,0,0,0,216.025,619.369Z" transform="translate(-48.821 -581.276)" fill="#82c5de"/>
        <circle id="Ellipse_270" data-name="Ellipse 270" cx="3.217" cy="3.217" r="3.217" transform="translate(163.988 48.446)" fill="#82c5de"/>
        <circle id="Ellipse_271" data-name="Ellipse 271" cx="3.217" cy="3.217" r="3.217" transform="translate(163.988 65.232)" fill="#82c5de"/>
        <path id="Path_1903" data-name="Path 1903" d="M216.025,714.809a3.217,3.217,0,1,0-3.216-3.216A3.216,3.216,0,0,0,216.025,714.809Z" transform="translate(-48.821 -626.358)" fill="#82c5de"/>
        <path id="Path_1904" data-name="Path 1904" d="M216.025,746.623a3.217,3.217,0,1,0-3.216-3.217A3.217,3.217,0,0,0,216.025,746.623Z" transform="translate(-48.821 -641.386)" fill="#82c5de"/>
        <circle id="Ellipse_272" data-name="Ellipse 272" cx="3.217" cy="3.217" r="3.217" transform="translate(163.988 115.589)" fill="#82c5de"/>
        <circle id="Ellipse_273" data-name="Ellipse 273" cx="3.217" cy="3.217" r="3.217" transform="translate(163.988 132.375)" fill="#82c5de"/>
        <path id="Path_1905" data-name="Path 1905" d="M216.025,842.063a3.217,3.217,0,1,0-3.216-3.216A3.216,3.216,0,0,0,216.025,842.063Z" transform="translate(-48.821 -686.469)" fill="#82c5de"/>
        <path id="Path_1906" data-name="Path 1906" d="M216.025,873.877a3.217,3.217,0,1,0-3.216-3.217A3.217,3.217,0,0,0,216.025,873.877Z" transform="translate(-48.821 -701.496)" fill="#82c5de"/>
        <circle id="Ellipse_274" data-name="Ellipse 274" cx="3.217" cy="3.217" r="3.217" transform="translate(163.988 182.733)" fill="#82c5de"/>
        <circle id="Ellipse_275" data-name="Ellipse 275" cx="3.217" cy="3.217" r="3.217" transform="translate(163.988 199.52)" fill="#82c5de"/>
        <path id="Path_1907" data-name="Path 1907" d="M247.839,555.742a3.217,3.217,0,1,0-3.217-3.217A3.217,3.217,0,0,0,247.839,555.742Z" transform="translate(-63.848 -551.221)" fill="#82c5de"/>
        <path id="Path_1908" data-name="Path 1908" d="M247.839,587.555a3.217,3.217,0,1,0-3.217-3.217A3.217,3.217,0,0,0,247.839,587.555Z" transform="translate(-63.848 -566.248)" fill="#82c5de"/>
        <path id="Path_1909" data-name="Path 1909" d="M247.839,619.369a3.217,3.217,0,1,0-3.217-3.217A3.217,3.217,0,0,0,247.839,619.369Z" transform="translate(-63.848 -581.276)" fill="#82c5de"/>
        <path id="Path_1910" data-name="Path 1910" d="M247.839,651.182a3.217,3.217,0,1,0-3.217-3.216A3.217,3.217,0,0,0,247.839,651.182Z" transform="translate(-63.848 -596.303)" fill="#82c5de"/>
        <path id="Path_1911" data-name="Path 1911" d="M247.839,683a3.217,3.217,0,1,0-3.217-3.217A3.217,3.217,0,0,0,247.839,683Z" transform="translate(-63.848 -611.331)" fill="#82c5de"/>
        <path id="Path_1912" data-name="Path 1912" d="M247.839,714.809a3.217,3.217,0,1,0-3.217-3.216A3.217,3.217,0,0,0,247.839,714.809Z" transform="translate(-63.848 -626.358)" fill="#82c5de"/>
        <path id="Path_1913" data-name="Path 1913" d="M247.839,746.623a3.217,3.217,0,1,0-3.217-3.217A3.217,3.217,0,0,0,247.839,746.623Z" transform="translate(-63.848 -641.386)" fill="#82c5de"/>
        <path id="Path_1914" data-name="Path 1914" d="M247.839,778.436a3.217,3.217,0,1,0-3.217-3.216A3.217,3.217,0,0,0,247.839,778.436Z" transform="translate(-63.848 -656.413)" fill="#82c5de"/>
        <path id="Path_1915" data-name="Path 1915" d="M247.839,810.25a3.217,3.217,0,1,0-3.217-3.217A3.217,3.217,0,0,0,247.839,810.25Z" transform="translate(-63.848 -671.441)" fill="#82c5de"/>
        <path id="Path_1916" data-name="Path 1916" d="M247.839,842.063a3.217,3.217,0,1,0-3.217-3.216A3.217,3.217,0,0,0,247.839,842.063Z" transform="translate(-63.848 -686.469)" fill="#82c5de"/>
        <path id="Path_1917" data-name="Path 1917" d="M247.839,873.877a3.217,3.217,0,1,0-3.217-3.217A3.217,3.217,0,0,0,247.839,873.877Z" transform="translate(-63.848 -701.496)" fill="#82c5de"/>
        <path id="Path_1918" data-name="Path 1918" d="M247.839,905.691a3.217,3.217,0,1,0-3.217-3.217A3.217,3.217,0,0,0,247.839,905.691Z" transform="translate(-63.848 -716.524)" fill="#82c5de"/>
        <path id="Path_1919" data-name="Path 1919" d="M247.839,937.5a3.217,3.217,0,1,0-3.217-3.217A3.217,3.217,0,0,0,247.839,937.5Z" transform="translate(-63.848 -731.551)" fill="#82c5de"/>
        <path id="Path_1920" data-name="Path 1920" d="M279.653,555.742a3.217,3.217,0,1,0-3.217-3.217A3.217,3.217,0,0,0,279.653,555.742Z" transform="translate(-78.876 -551.221)" fill="#82c5de"/>
        <path id="Path_1921" data-name="Path 1921" d="M279.653,587.555a3.217,3.217,0,1,0-3.217-3.217A3.217,3.217,0,0,0,279.653,587.555Z" transform="translate(-78.876 -566.248)" fill="#82c5de"/>
        <path id="Path_1922" data-name="Path 1922" d="M279.653,619.369a3.217,3.217,0,1,0-3.217-3.217A3.216,3.216,0,0,0,279.653,619.369Z" transform="translate(-78.876 -581.276)" fill="#82c5de"/>
        <path id="Path_1923" data-name="Path 1923" d="M279.653,651.182a3.217,3.217,0,1,0-3.217-3.216A3.217,3.217,0,0,0,279.653,651.182Z" transform="translate(-78.876 -596.303)" fill="#82c5de"/>
        <path id="Path_1924" data-name="Path 1924" d="M279.653,683a3.217,3.217,0,1,0-3.217-3.217A3.217,3.217,0,0,0,279.653,683Z" transform="translate(-78.876 -611.331)" fill="#82c5de"/>
        <path id="Path_1925" data-name="Path 1925" d="M279.653,714.809a3.217,3.217,0,1,0-3.217-3.216A3.216,3.216,0,0,0,279.653,714.809Z" transform="translate(-78.876 -626.358)" fill="#82c5de"/>
        <path id="Path_1926" data-name="Path 1926" d="M279.653,746.623a3.217,3.217,0,1,0-3.217-3.217A3.217,3.217,0,0,0,279.653,746.623Z" transform="translate(-78.876 -641.386)" fill="#82c5de"/>
        <path id="Path_1927" data-name="Path 1927" d="M279.653,778.436a3.217,3.217,0,1,0-3.217-3.216A3.216,3.216,0,0,0,279.653,778.436Z" transform="translate(-78.876 -656.413)" fill="#82c5de"/>
        <path id="Path_1928" data-name="Path 1928" d="M279.653,810.25a3.217,3.217,0,1,0-3.217-3.217A3.217,3.217,0,0,0,279.653,810.25Z" transform="translate(-78.876 -671.441)" fill="#82c5de"/>
        <path id="Path_1929" data-name="Path 1929" d="M279.653,842.063a3.217,3.217,0,1,0-3.217-3.216A3.216,3.216,0,0,0,279.653,842.063Z" transform="translate(-78.876 -686.469)" fill="#82c5de"/>
        <path id="Path_1930" data-name="Path 1930" d="M279.653,873.877a3.217,3.217,0,1,0-3.217-3.217A3.217,3.217,0,0,0,279.653,873.877Z" transform="translate(-78.876 -701.496)" fill="#82c5de"/>
        <path id="Path_1931" data-name="Path 1931" d="M279.653,905.691a3.217,3.217,0,1,0-3.217-3.217A3.216,3.216,0,0,0,279.653,905.691Z" transform="translate(-78.876 -716.524)" fill="#82c5de"/>
        <path id="Path_1932" data-name="Path 1932" d="M279.653,937.5a3.217,3.217,0,1,0-3.217-3.217A3.217,3.217,0,0,0,279.653,937.5Z" transform="translate(-78.876 -731.551)" fill="#82c5de"/>
      </g>
    </g>
  </g>
</svg>
