<svg xmlns="http://www.w3.org/2000/svg" xmlns:xlink="http://www.w3.org/1999/xlink" width="296.456" height="340.344" viewBox="0 0 296.456 340.344">
  <defs>
    <clipPath id="clip-path">
      <path id="Path_2047" data-name="Path 2047" d="M2318.6,2375.272c4.182-1.672,8.3-3.44,12.3-5.4a88.024,88.024,0,0,0,11.426-6.725c21.689-15.062,36.328-39.37,42.365-65.515a122.216,122.216,0,0,0,2.5-15.088c2.832-28.156,1.483-57.679-14.695-82.469-19.568-29.695-53.14-44.559-86.857-46.289a108.137,108.137,0,0,0-15.342-.319c-35.564,1.785-68.9,21.01-87.64,51.991a109.838,109.838,0,0,0-7.19,10.887,106.8,106.8,0,0,0-10.43,24.865c-13.448,48.139,9.452,93.565,46.927,118.752,4.684,3.148,9.55,6.031,14.424,8.839,22.039,13.96,49.7,20.736,75.244,12.641A164.725,164.725,0,0,0,2318.6,2375.272Z" transform="translate(-2161.163 -2153.327)" fill="none"/>
    </clipPath>
  </defs>
  <g id="Group_618" data-name="Group 618" transform="translate(-175.981 -5785.337)">
    <path id="Path_623" data-name="Path 623" d="M2218.3,1947.23c31.337-.622,59.4,18.086,78.1,43.988a80.453,80.453,0,0,1,14.572,36.058,91,91,0,0,1,.914,12.74c4.628,27.23,2.469,56.969-18.4,78.075-17.748,18.467-42.93,23.024-66.985,24.314a100.243,100.243,0,0,1-15.636,0c-26.023-2.032-51.355-14.118-68.444-35.1-15.349-19.187-22.064-42.451-21.586-66.229a93.934,93.934,0,0,1,1.208-13.126,91.5,91.5,0,0,1,3.11-12.982,102.425,102.425,0,0,1,4.838-12.273,100.677,100.677,0,0,1,6.353-11.492,95.716,95.716,0,0,1,65.863-42.748A99.31,99.31,0,0,1,2218.3,1947.23Z" transform="translate(-1944.843 3838.122)" fill="#f6d1cf"/>
    <path id="Path_673" data-name="Path 673" d="M2405.17,2062.835c13.513.183,26.334,4.41,38.054,10.667a128.258,128.258,0,0,1,11.337,6.858c17.792,11.977,35.78,25.408,43.934,46.274,7.915,19.427,6.236,41.012-1.051,60.3-.911,3.553-1.61,7.231-2.455,10.871-5.068,21.839-15.86,42.03-35.827,56.419-27.533,19.811-61.059,19.76-88.86,6.43a103.838,103.838,0,0,1-11.541-6.483c-46.138-21.772-69.881-81.251-44.762-127.09a93.06,93.06,0,0,1,5.093-10.265,100.992,100.992,0,0,1,21.88-26.238c3.478-2.98,7.1-5.778,10.742-8.479,11.035-8.232,23.266-15.187,36.9-17.623A91.739,91.739,0,0,1,2405.17,2062.835Z" transform="translate(-2031.279 3783.508)" fill="#82c5de"/>
    <g id="Group_459" data-name="Group 459" transform="translate(197.265 5894.09)">
      <g id="Group_458" data-name="Group 458" clip-path="url(#clip-path)">
        <path id="Path_2029" data-name="Path 2029" d="M2001.948,2007.865c10.581,31.247,40.578,21.089,51.158,52.336s-19.416,41.4-8.835,72.651,40.578,21.089,51.159,52.336-19.416,41.4-8.835,72.651,40.578,21.089,51.159,52.335-19.416,41.4-8.835,72.651,40.578,21.09,51.159,52.336-19.416,41.4-8.835,72.652" transform="translate(-2085.956 -2084.616)" fill="none" stroke="#96d1bf" stroke-miterlimit="10" stroke-width="2.803"/>
        <path id="Path_2030" data-name="Path 2030" d="M2026.482,1999.559c10.581,31.246,40.578,21.088,51.158,52.335s-19.416,41.4-8.836,72.651,40.578,21.089,51.159,52.335-19.416,41.4-8.835,72.652,40.579,21.089,51.159,52.335-19.416,41.4-8.835,72.651,40.577,21.09,51.159,52.337-19.416,41.4-8.835,72.652" transform="translate(-2097.545 -2080.693)" fill="none" stroke="#96d1bf" stroke-miterlimit="10" stroke-width="2.803"/>
        <path id="Path_2031" data-name="Path 2031" d="M2051.016,1991.25c10.58,31.247,40.577,21.089,51.159,52.336s-19.417,41.4-8.835,72.651,40.578,21.089,51.159,52.335-19.417,41.4-8.836,72.651,40.578,21.089,51.158,52.335-19.415,41.4-8.835,72.652,40.578,21.089,51.159,52.336-19.416,41.4-8.835,72.651" transform="translate(-2109.134 -2076.768)" fill="none" stroke="#96d1bf" stroke-miterlimit="10" stroke-width="2.803"/>
        <path id="Path_2032" data-name="Path 2032" d="M2075.55,1982.942c10.581,31.247,40.577,21.089,51.158,52.336s-19.416,41.4-8.835,72.651,40.578,21.089,51.159,52.336-19.416,41.4-8.835,72.651,40.578,21.088,51.159,52.335-19.416,41.4-8.835,72.651,40.578,21.089,51.159,52.336-19.416,41.4-8.835,72.653" transform="translate(-2120.722 -2072.844)" fill="none" stroke="#96d1bf" stroke-miterlimit="10" stroke-width="2.803"/>
        <path id="Path_2033" data-name="Path 2033" d="M2100.084,1974.635c10.581,31.246,40.577,21.089,51.158,52.335s-19.416,41.4-8.835,72.651,40.578,21.089,51.159,52.336-19.416,41.4-8.835,72.651,40.578,21.089,51.159,52.335-19.416,41.4-8.835,72.651,40.577,21.089,51.158,52.337-19.416,41.4-8.835,72.651" transform="translate(-2132.311 -2068.919)" fill="none" stroke="#96d1bf" stroke-miterlimit="10" stroke-width="2.803"/>
        <path id="Path_2034" data-name="Path 2034" d="M2124.617,1966.327c10.581,31.247,40.578,21.089,51.159,52.336s-19.417,41.4-8.835,72.65,40.577,21.09,51.159,52.336-19.417,41.4-8.835,72.651,40.577,21.089,51.159,52.335-19.416,41.4-8.835,72.651,40.578,21.09,51.159,52.337-19.416,41.4-8.835,72.652" transform="translate(-2143.9 -2064.995)" fill="none" stroke="#96d1bf" stroke-miterlimit="10" stroke-width="2.803"/>
        <path id="Path_2035" data-name="Path 2035" d="M2149.151,1958.02c10.581,31.246,40.578,21.089,51.159,52.335s-19.417,41.4-8.835,72.65,40.578,21.089,51.158,52.336-19.416,41.4-8.835,72.651,40.577,21.089,51.158,52.335-19.416,41.405-8.835,72.652,40.578,21.089,51.159,52.336-19.416,41.4-8.835,72.652" transform="translate(-2155.489 -2061.071)" fill="none" stroke="#96d1bf" stroke-miterlimit="10" stroke-width="2.803"/>
        <path id="Path_2036" data-name="Path 2036" d="M2173.685,1949.712c10.581,31.247,40.578,21.089,51.159,52.335s-19.416,41.4-8.835,72.651,40.578,21.089,51.158,52.335-19.415,41.4-8.834,72.652,40.578,21.089,51.158,52.335-19.416,41.4-8.835,72.652,40.578,21.09,51.159,52.337-19.416,41.4-8.835,72.651" transform="translate(-2167.078 -2057.147)" fill="none" stroke="#96d1bf" stroke-miterlimit="10" stroke-width="2.803"/>
        <path id="Path_2037" data-name="Path 2037" d="M2198.219,1941.4c10.581,31.247,40.577,21.089,51.159,52.335s-19.416,41.4-8.835,72.651,40.577,21.089,51.158,52.336-19.416,41.4-8.835,72.651,40.578,21.089,51.159,52.335-19.416,41.4-8.836,72.652,40.579,21.089,51.159,52.336-19.415,41.406-8.834,72.653" transform="translate(-2178.667 -2053.222)" fill="none" stroke="#96d1bf" stroke-miterlimit="10" stroke-width="2.803"/>
        <path id="Path_2038" data-name="Path 2038" d="M2222.753,1933.1c10.581,31.247,40.577,21.089,51.159,52.335s-19.417,41.4-8.835,72.651,40.578,21.089,51.159,52.335-19.417,41.4-8.835,72.651,40.577,21.089,51.159,52.335-19.417,41.4-8.835,72.651,40.578,21.09,51.159,52.337-19.416,41.4-8.836,72.651" transform="translate(-2190.256 -2049.298)" fill="none" stroke="#96d1bf" stroke-miterlimit="10" stroke-width="2.803"/>
        <path id="Path_2039" data-name="Path 2039" d="M2247.287,1924.788c10.581,31.247,40.577,21.089,51.158,52.336s-19.416,41.4-8.835,72.651,40.578,21.089,51.158,52.335-19.416,41.4-8.835,72.652,40.577,21.089,51.158,52.335-19.416,41.4-8.834,72.652,40.577,21.089,51.159,52.336-19.416,41.405-8.835,72.653" transform="translate(-2201.845 -2045.374)" fill="none" stroke="#96d1bf" stroke-miterlimit="10" stroke-width="2.803"/>
        <path id="Path_2040" data-name="Path 2040" d="M2271.82,1916.48c10.581,31.247,40.578,21.089,51.159,52.336s-19.416,41.4-8.835,72.65,40.578,21.09,51.159,52.337-19.416,41.4-8.835,72.651,40.578,21.089,51.159,52.335-19.416,41.4-8.835,72.652,40.578,21.089,51.159,52.337-19.416,41.4-8.834,72.651" transform="translate(-2213.433 -2041.449)" fill="none" stroke="#96d1bf" stroke-miterlimit="10" stroke-width="2.803"/>
        <path id="Path_2041" data-name="Path 2041" d="M2296.355,1908.173c10.581,31.247,40.578,21.089,51.159,52.335s-19.416,41.4-8.836,72.651,40.579,21.089,51.159,52.335-19.416,41.4-8.835,72.652,40.578,21.088,51.158,52.335-19.416,41.4-8.835,72.652,40.578,21.089,51.159,52.336-19.416,41.4-8.835,72.652" transform="translate(-2225.022 -2037.525)" fill="none" stroke="#96d1bf" stroke-miterlimit="10" stroke-width="2.803"/>
        <path id="Path_2042" data-name="Path 2042" d="M2320.889,1899.865c10.58,31.247,40.577,21.089,51.158,52.336s-19.416,41.4-8.835,72.65,40.577,21.089,51.158,52.336-19.416,41.4-8.835,72.651,40.578,21.089,51.158,52.335-19.416,41.4-8.835,72.652,40.578,21.089,51.158,52.336-19.416,41.4-8.834,72.652" transform="translate(-2236.611 -2033.601)" fill="none" stroke="#96d1bf" stroke-miterlimit="10" stroke-width="2.803"/>
        <path id="Path_2043" data-name="Path 2043" d="M2345.422,1891.558c10.581,31.246,40.578,21.089,51.158,52.335s-19.416,41.4-8.835,72.651,40.578,21.088,51.159,52.335-19.417,41.405-8.835,72.651,40.577,21.089,51.158,52.336-19.416,41.4-8.836,72.651,40.579,21.09,51.16,52.337-19.416,41.4-8.835,72.651" transform="translate(-2248.2 -2029.677)" fill="none" stroke="#96d1bf" stroke-miterlimit="10" stroke-width="2.803"/>
        <path id="Path_2044" data-name="Path 2044" d="M2369.956,1883.25c10.581,31.247,40.578,21.089,51.159,52.336s-19.416,41.4-8.835,72.65,40.578,21.089,51.159,52.336-19.417,41.4-8.834,72.651,40.577,21.089,51.158,52.335-19.417,41.405-8.835,72.653,40.577,21.089,51.159,52.336-19.416,41.405-8.835,72.652" transform="translate(-2259.789 -2025.753)" fill="none" stroke="#96d1bf" stroke-miterlimit="10" stroke-width="2.803"/>
        <path id="Path_2045" data-name="Path 2045" d="M2394.49,1874.942c10.581,31.247,40.578,21.089,51.159,52.336s-19.417,41.4-8.835,72.65,40.577,21.089,51.158,52.336-19.415,41.4-8.835,72.651,40.577,21.089,51.158,52.335-19.416,41.4-8.835,72.651,40.578,21.09,51.159,52.337-19.417,41.4-8.834,72.652" transform="translate(-2271.378 -2021.828)" fill="none" stroke="#96d1bf" stroke-miterlimit="10" stroke-width="2.803"/>
        <path id="Path_2046" data-name="Path 2046" d="M2419.023,1866.635c10.581,31.246,40.579,21.089,51.159,52.335s-19.416,41.4-8.836,72.651,40.578,21.089,51.159,52.335-19.416,41.4-8.835,72.652,40.578,21.089,51.158,52.335-19.417,41.405-8.835,72.651,40.578,21.089,51.159,52.337-19.416,41.405-8.835,72.652" transform="translate(-2282.966 -2017.904)" fill="none" stroke="#96d1bf" stroke-miterlimit="10" stroke-width="2.803"/>
      </g>
    </g>
  </g>
</svg>
