<svg xmlns="http://www.w3.org/2000/svg" width="21.456" height="21.132" viewBox="0 0 21.456 21.132">
  <path id="Path_2058" data-name="Path 2058" d="M1935.365,2193.133c.165,3.435-1.8,6.571-4.583,8.7a8.827,8.827,0,0,1-3.91,1.71,9.947,9.947,0,0,1-1.4.14c-2.973.592-5.337-.3-7.718-2.524-2.08-1.889-3.563-3.889-3.779-6.523a11.02,11.02,0,0,1-.048-1.715,10.768,10.768,0,0,1,3.638-7.618,11.117,11.117,0,0,1,7.2-2.574,10.355,10.355,0,0,1,1.444.092,10.078,10.078,0,0,1,1.434.3,11.253,11.253,0,0,1,1.361.492,11.057,11.057,0,0,1,1.28.661,10.505,10.505,0,0,1,4.894,7.092A10.947,10.947,0,0,1,1935.365,2193.133Z" transform="translate(-1913.919 -2182.734)" fill="#96d1bf"/>
</svg>
