<svg xmlns="http://www.w3.org/2000/svg" width="22.314" height="21.978" viewBox="0 0 22.314 21.978">
  <path id="Path_2238" data-name="Path 2238" d="M943.465,1270.3c.172,3.573-1.871,6.834-4.766,9.052a9.178,9.178,0,0,1-4.066,1.779,10.4,10.4,0,0,1-1.45.145c-3.091.616-5.551-.313-8.026-2.625-2.164-1.965-3.706-4.044-3.93-6.784a11.448,11.448,0,0,1-.05-1.784,11.2,11.2,0,0,1,3.783-7.922,11.562,11.562,0,0,1,7.486-2.677,10.752,10.752,0,0,1,1.5.1,10.412,10.412,0,0,1,1.491.313,11.619,11.619,0,0,1,1.416.512,11.479,11.479,0,0,1,1.331.688,10.923,10.923,0,0,1,5.09,7.375A11.343,11.343,0,0,1,943.465,1270.3Z" transform="translate(-921.162 -1259.485)" fill="#e28ba5"/>
</svg>
