<svg xmlns="http://www.w3.org/2000/svg" xmlns:xlink="http://www.w3.org/1999/xlink" width="785.814" height="217.38" viewBox="0 0 785.814 217.38"><defs><filter id="a" x="127.104" y="25.38" width="192" height="192" filterUnits="userSpaceOnUse"><feOffset input="SourceAlpha"/><feGaussianBlur stdDeviation="7.5" result="b"/><feFlood flood-opacity="0.11"/><feComposite operator="in" in2="b"/><feComposite in="SourceGraphic"/></filter></defs><g transform="translate(-1761.396 -3625.12)"><path d="M-37.33,1.353q-13.53,0-21.4-7.565t-7.872-20.6V-59.286q0-12.792,7.872-20.3t21.4-7.5q13.53,0,21.463,7.5t7.934,20.3v32.472q0,13.038-7.934,20.6T-37.33,1.353Zm0-14.883a11.644,11.644,0,0,0,8.794-3.383,12.479,12.479,0,0,0,3.259-9.04V-59.778a12.479,12.479,0,0,0-3.259-9.04A11.644,11.644,0,0,0-37.33-72.2,11.487,11.487,0,0,0-46-68.818a12.479,12.479,0,0,0-3.259,9.04v33.825A12.479,12.479,0,0,0-46-16.913,11.487,11.487,0,0,0-37.33-13.53ZM65.006-37.515a1.423,1.423,0,0,1,1.046.431,1.423,1.423,0,0,1,.431,1.045v12.423a1.423,1.423,0,0,1-.431,1.045,1.423,1.423,0,0,1-1.046.431H59.717a.544.544,0,0,0-.615.615V-1.476a1.423,1.423,0,0,1-.43,1.046A1.423,1.423,0,0,1,57.626,0H43.235a1.423,1.423,0,0,1-1.045-.431,1.423,1.423,0,0,1-.431-1.046V-21.525a.544.544,0,0,0-.615-.615H3.383a1.423,1.423,0,0,1-1.046-.431,1.423,1.423,0,0,1-.431-1.045v-9.84A6.071,6.071,0,0,1,2.276-35.3l22.14-49.692A1.741,1.741,0,0,1,26.138-86.1H41.513a1.351,1.351,0,0,1,1.169.43,1.322,1.322,0,0,1-.062,1.292L22.079-38.253a.523.523,0,0,0,0,.492.394.394,0,0,0,.369.246h18.7a.544.544,0,0,0,.615-.615V-53.382a1.423,1.423,0,0,1,.431-1.045,1.423,1.423,0,0,1,1.045-.431H57.626a1.423,1.423,0,0,1,1.046.431,1.423,1.423,0,0,1,.43,1.045V-38.13a.544.544,0,0,0,.615.615Z" transform="translate(1828 3818)" fill="#fff"/><path d="M-33.348-22.722v8.652A37.21,37.21,0,0,1-40.4-12.18l1.05,4.788c.462-.21.966-.42,3.192-1.218.882-.294,1.806-.63,2.814-1.008V-1.26a34.9,34.9,0,0,1-.294,4.872h4.956a41.74,41.74,0,0,1-.252-4.872v-10c1.092-.462,1.848-.8,3.024-1.344v1.932A24.005,24.005,0,0,1-21.8-10.92h11v8.484c0,1.05-.252,1.26-1.6,1.26A36.1,36.1,0,0,1-17.3-1.638a12.459,12.459,0,0,1,1.092,4.62c1.3.084,2.856.126,3.57.126,4.872,0,6.216-.84,6.216-3.99V-10.92h.378a29.614,29.614,0,0,1,4.116.252v-4.62a25.344,25.344,0,0,1-4.116.21h-.378v-3.528h.252a35.689,35.689,0,0,1,4.41.252V-22.89a43.069,43.069,0,0,1-4.746.21h-5.67v-4.074h4.536a42.464,42.464,0,0,1,4.41.21v-4.578a31.619,31.619,0,0,1-4.41.252H-12.18v-1.344a17.213,17.213,0,0,1,.21-3.108h-4.872a18.414,18.414,0,0,1,.252,3.15v1.3h-3.528a29.911,29.911,0,0,1-4.326-.252v4.578a41.943,41.943,0,0,1,4.326-.21h3.528v4.074h-4.788c-1.512,0-2.562-.042-3.864-.126v-4.41a17.642,17.642,0,0,1-3.36.252h-.336V-31.92a20.988,20.988,0,0,1,.252-3.444h-4.956a18.137,18.137,0,0,1,.294,3.444v4.956H-35.28l.126-1.722.084-.63a10.2,10.2,0,0,1,.252-2.142l-4.116-.5c.042.5.084.8.084,1.05a38.067,38.067,0,0,1-2.142,12.474,11.632,11.632,0,0,1,3.654,1.89,38.952,38.952,0,0,0,1.512-6.174Zm4.41,0h.672c.672,0,1.218,0,2.142.042v4.326a28.254,28.254,0,0,1,4.746-.252h10.584v3.528H-21.252c-1.848,0-3.066-.042-4.032-.126l-.042-1.848c-1.428.63-1.974.84-3.612,1.47ZM-24.108-8.4a31.629,31.629,0,0,1,5.334,6.888l3.654-2.772a34.348,34.348,0,0,0-5.5-6.426Zm64.89-20.454a19.467,19.467,0,0,1-3.486.21H33.054c.462-1.386.714-2.31,1.05-3.7a17.652,17.652,0,0,1,.546-2.016l-4.536-.966a34.428,34.428,0,0,1-3.486,11.97v-6.384a22.961,22.961,0,0,1,.126-2.814H22.932a24.857,24.857,0,0,1,.126,2.73v4.368H21.126v-6.426a29.486,29.486,0,0,1,.126-2.982H17.22a20.073,20.073,0,0,1,.168,2.982v6.426H15.414V-29.82a23.371,23.371,0,0,1,.084-2.73H12.222l.21-.252-3.78-2.73c-1.3,2.94-4.158,6.006-7.77,8.4a17.359,17.359,0,0,1,2.226,4.074,42.88,42.88,0,0,0,8.148-8.19,2.8,2.8,0,0,0,.5-.714,17.288,17.288,0,0,1,.126,2.142v5.712L8.9-25.7A26,26,0,0,1,.5-15.288,18.25,18.25,0,0,1,2.226-10.71,20.308,20.308,0,0,0,4.914-13.4C4.83-12.1,4.83-11.214,4.83-9.87v8.526A37.712,37.712,0,0,1,4.578,3.57H9.324a34.148,34.148,0,0,1-.21-4.788V-17.892A41.692,41.692,0,0,0,11.8-21.924a1.723,1.723,0,0,1-.042.462c.756-.042,1.89-.084,2.31-.084H25.452c-.462.588-.63.8-1.176,1.428.462.462.588.588.966,1.008-.63.042-1.344.042-2.394.042h-8.9a18.192,18.192,0,0,1-2.9-.168v4.2A22.353,22.353,0,0,1,14.28-15.2h2.478v3.066H14.7a19.783,19.783,0,0,1-3.108-.168V-8.19a21.683,21.683,0,0,1,3.066-.168h2.1v3.99a43.085,43.085,0,0,1-5.88.63h-.42L10.962.8C11.676.63,12.306.5,13.356.336c6.51-1.218,8.652-1.68,11.382-2.436-.84.588-1.3.924-2.646,1.764A20.461,20.461,0,0,1,24.78,3.4a30.556,30.556,0,0,0,7.686-7.77,34.275,34.275,0,0,0,6.342,7.56,27.423,27.423,0,0,1,2.478-4.578,26.631,26.631,0,0,1-6.426-7.14c2.31-5,3.234-9.072,3.57-15.96,1.134.042,1.47.084,2.352.168ZM26.166-6.174c-2.394.546-3.192.714-5.082,1.092V-8.358H22.47c1.428,0,2.394.042,3.4.126v-4.074a25.786,25.786,0,0,1-3.4.168H21.084V-15.2H23.6a16.371,16.371,0,0,1,2.688.168V-17.85c.252.378.336.546.672,1.05.378-.378.462-.5.756-.84a40.119,40.119,0,0,0,2.646,9.156,27.74,27.74,0,0,1-4.2,5.166ZM34.44-24.486a37,37,0,0,1-1.806,11.172,42.992,42.992,0,0,1-2.016-9.072c.336-.672.5-1.092.924-2.1Z" transform="translate(1832 3686)" fill="#fff"/><g transform="translate(-388 341)"><g transform="matrix(1, 0, 0, 1, 2149.4, 3284.12)" filter="url(#a)"><circle cx="73.5" cy="73.5" r="73.5" transform="translate(149.6 47.88)" fill="#fff46e"/></g><g transform="translate(2305.404 3376.227)"><g transform="translate(58.378 7.319)"><path d="M182.389,106.263H177.8a.6.6,0,0,1-.6-.6V66.417a.6.6,0,0,1,.6-.6h4.579a.831.831,0,0,0,0-1.663H177.8a2.265,2.265,0,0,0-2.262,2.262v39.246a2.265,2.265,0,0,0,2.262,2.262h4.589a.831.831,0,1,0,0-1.662Z" transform="translate(-175.538 -64.155)" fill="#3cbebe"/></g><g transform="translate(68.624 7.319)"><path d="M271.2,64.156h-5.019a.831.831,0,1,0,0,1.663H271.2a.6.6,0,0,1,.6.6v39.246a.6.6,0,0,1-.6.6h-5.009a.831.831,0,0,0,0,1.663H271.2a2.265,2.265,0,0,0,2.262-2.262V66.418A2.265,2.265,0,0,0,271.2,64.156Z" transform="translate(-265.351 -64.156)" fill="#3cbebe"/></g><g transform="translate(43.292)"><path d="M89.349,22.559a2.476,2.476,0,0,0,2.474-2.473v-2.2a2.476,2.476,0,0,0-2.474-2.473H84.055v-3.07h5.294a2.476,2.476,0,0,0,2.474-2.473v-2.2a2.476,2.476,0,0,0-2.474-2.473H84.055V3.224A3.227,3.227,0,0,0,80.831,0H54.283A3.227,3.227,0,0,0,51.06,3.224V5.192H45.765a2.476,2.476,0,0,0-2.473,2.473v2.2a2.476,2.476,0,0,0,2.473,2.473H51.06v3.07H45.765a2.476,2.476,0,0,0-2.473,2.473v2.2a2.476,2.476,0,0,0,2.473,2.473H51.06v3.07H45.765A2.476,2.476,0,0,0,43.292,28.1v2.2a2.476,2.476,0,0,0,2.473,2.473H51.06v3.07H45.765a2.476,2.476,0,0,0-2.473,2.473v2.2A2.476,2.476,0,0,0,45.765,43H51.06v3.07H45.765a2.476,2.476,0,0,0-2.473,2.473v2.2a2.476,2.476,0,0,0,2.473,2.473H51.06v1.968a3.227,3.227,0,0,0,3.224,3.224H80.831a3.227,3.227,0,0,0,3.224-3.224V53.216h5.294a2.476,2.476,0,0,0,2.474-2.473v-2.2a2.476,2.476,0,0,0-2.474-2.473H84.055V43h5.294a2.476,2.476,0,0,0,2.474-2.473v-2.2a2.476,2.476,0,0,0-2.474-2.473H84.055v-3.07h5.294A2.476,2.476,0,0,0,91.822,30.3V28.1a2.476,2.476,0,0,0-2.474-2.473H84.055v-3.07ZM84.055,6.854h5.294a.812.812,0,0,1,.811.811v2.2a.812.812,0,0,1-.811.811H84.055Zm0,10.219h5.294a.812.812,0,0,1,.811.811v2.2a.812.812,0,0,1-.811.811H84.055ZM51.06,51.554H45.765a.812.812,0,0,1-.811-.811v-2.2a.812.812,0,0,1,.811-.811H51.06v3.824Zm0-10.219H45.765a.812.812,0,0,1-.811-.811v-2.2a.812.812,0,0,1,.811-.811H51.06v3.824Zm0-10.219H45.765a.812.812,0,0,1-.811-.811V28.1a.812.812,0,0,1,.811-.811H51.06v3.824Zm0-10.219H45.765a.812.812,0,0,1-.811-.811v-2.2a.812.812,0,0,1,.811-.811H51.06V20.9Zm0-10.219H45.765a.812.812,0,0,1-.811-.811v-2.2a.812.812,0,0,1,.811-.811H51.06v3.824ZM82.392,55.184a1.563,1.563,0,0,1-1.561,1.561H54.283a1.563,1.563,0,0,1-1.561-1.561V3.224a1.563,1.563,0,0,1,1.561-1.561H80.831a1.563,1.563,0,0,1,1.561,1.561Zm6.957-7.454a.812.812,0,0,1,.811.811v2.2a.812.812,0,0,1-.811.811H84.055V47.73Zm0-10.219a.812.812,0,0,1,.811.811v2.2a.812.812,0,0,1-.811.811H84.055V37.511Zm0-10.219a.812.812,0,0,1,.811.811v2.2a.812.812,0,0,1-.811.811H84.055V27.292h5.294Z" transform="translate(-43.292)" fill="#3cbebe"/></g><g transform="translate(63.906 33.405)"><path d="M231.284,294.348a.437.437,0,0,0,.332-.424v-.647a.437.437,0,0,0-.574-.415q-1.331.441-3.108,1a1.756,1.756,0,0,0-.3-.47,1.493,1.493,0,0,0-.362-.3,1.7,1.7,0,0,0-.423-.167,2.746,2.746,0,0,0-.425-.078q-.186-.017-.423-.017a2.354,2.354,0,0,0-.937.169,1.448,1.448,0,0,0-.622.5,2.236,2.236,0,0,0-.339.76,4.189,4.189,0,0,0-.108,1.005v1.239a.437.437,0,0,0,.437.437h6.744a.437.437,0,0,0,.437-.437v-.666a.437.437,0,0,0-.437-.437h-3.072v-.254Zm-4.117,1.043h-2.04v-.512a.372.372,0,0,1,.112-.273.641.641,0,0,1,.288-.161,2.383,2.383,0,0,1,.32-.068,2.14,2.14,0,0,1,.279-.019,1.9,1.9,0,0,1,.288.023,2.263,2.263,0,0,1,.334.08.681.681,0,0,1,.3.184.431.431,0,0,1,.119.3Z" transform="translate(-223.997 -292.826)" fill="#3cbebe"/></g><g transform="translate(63.907 28.003)"><path d="M231.327,246.963a.357.357,0,0,0,.29-.351v-.782a.357.357,0,0,0-.433-.349l-6.9,1.488a.357.357,0,0,0-.282.349v.786a.357.357,0,0,0,.282.349l6.9,1.492a.357.357,0,0,0,.433-.349v-.787a.357.357,0,0,0-.294-.352l-1.336-.243v-.995Zm-2.288,1.146-2.828-.4,2.828-.385Z" transform="translate(-223.998 -245.472)" fill="#3cbebe"/></g><g transform="translate(63.906 21.504)"><path d="M231.353,192.676l-5.129-.032,5.173-.9a.265.265,0,0,0,.22-.261v-.7a.265.265,0,0,0-.223-.262q-.835-.132-2.456-.41-1.854-.317-2.679-.444l5.1-.032a.265.265,0,0,0,.263-.265v-.606a.265.265,0,0,0-.265-.265h-7.089a.265.265,0,0,0-.265.265v1.294a.265.265,0,0,0,.22.261l4.859.838-4.856.777a.265.265,0,0,0-.223.261v1.355a.265.265,0,0,0,.265.265h7.089a.265.265,0,0,0,.265-.265v-.611A.265.265,0,0,0,231.353,192.676Z" transform="translate(-223.997 -188.5)" fill="#3cbebe"/></g></g></g><path d="M51.51-99.62h66.98v13.26H51.51ZM35.19-60.52v-13.6h99.62v13.6H99.96V-9.18h33.83V3.74H85.68V-60.52H84.66L47.26,4.76,34.85-1.7,68.68-60.52Zm57.29-63.41h43.86v30.6H122.06v-17.34H47.94v17.34H33.66v-30.6H77.52v-9.86H92.48ZM241.91-81.6h-30.6v20.23h27.37v13.26H211.31v36.89h42.5V2.55H154.53V-11.22h42.5V-48.11H169.66V-61.37h27.37V-81.6h-30.6v-8.67L154.36-81.6l-6.63-12.58,56.61-39.95,56.44,39.61-6.8,12.75L241.91-90.1ZM204-116.79,172.89-94.86h62.56ZM376.89-8.16l-6.8,12.75L345.27-18.87V3.74H331.16v-22.1L306.51,4.93,299.88-7.65l31.28-29.58V-51.51H300.9V-64.77h30.26V-75.14H306.85v-40.12l-12.92,12.24V3.74H279.99V-90.1l-5.61,5.44-6.8-13.09,37.4-35.19h20.74l-3.23,2.89h47.77v54.91H345.27v10.37h30.09v13.26H345.27v13.43ZM320.28-117.47v29.75h36.38v-29.75Zm109.14-12.58V-119H394.23v-11.05Zm-39.27,29.92v-12.41h43.18v12.41ZM392.87,3.74v-61.2h38.76V3.74Zm13.6-49.81V-7.48h11.9V-46.07Zm-12.24-47.6h35.19v11.05H394.23Zm0,29.24V-75.48h35.19v11.05ZM474.64-9.52h20.57V3.74H433.84V-9.52h7.99V-89.08h12.75V-9.52h6.29V-115.77H436.39v-13.26h58.48v13.26H474.64v31.28h18.53v12.58H474.64Z" transform="translate(2052 3817)" fill="#fff46e"/><path d="M47.5-24.822l-2.583,4.914L36.54-23.5,27.027.252H18.711L15.876-5.04h7.308l8.253-20.6L17.451-31.689,20.034-36.6l13.482,5.8,6.8-17.073h5.985L38.619-28.6ZM71.568-5.04H91.413L88.578.252H66.087V-26.9h-5.8v-5.292h5.8v-8.883H60.921v-5.355H90.468v5.355h-18.9v8.883H91.1V-26.9H71.568Zm60.039-42.588,4.851,2.646L117.054.252H106.6L103.824-5.04h9.513ZM115.92-47.5l4.725,2.52-11.907,27.72-4.662-2.52Z" transform="translate(2065 3673)" fill="#fff46e"/></g></svg>