<svg xmlns="http://www.w3.org/2000/svg" xmlns:xlink="http://www.w3.org/1999/xlink" width="448.511" height="455.822" viewBox="0 0 448.511 455.822"><defs><clipPath id="a"><rect width="26.331" height="63.636" transform="translate(44.226 269.918)" fill="none"/></clipPath><clipPath id="b"><rect width="40.836" height="40.524" transform="translate(201.238 343.123)" fill="none"/></clipPath><clipPath id="d"><rect width="25.523" height="32.051" transform="translate(175.716 351.596)" fill="none"/></clipPath><clipPath id="f"><rect width="65.083" height="37.576" transform="translate(176.354 343.123)" fill="none"/></clipPath><clipPath id="g"><rect width="64.626" height="37.567" transform="translate(176.36 343.132)" fill="none"/></clipPath><clipPath id="h"><rect width="40.095" height="23.146" transform="translate(176.363 343.133)" fill="none"/></clipPath><clipPath id="i"><rect width="183.238" height="239.867" transform="translate(133.391 123.814)" fill="none"/></clipPath><clipPath id="j"><rect width="90.317" height="130.434" transform="translate(133.998 83.014)" fill="none"/></clipPath><clipPath id="k"><rect width="84.504" height="30.384" transform="translate(221.668 81.81)" fill="none"/></clipPath><clipPath id="l"><rect width="0.022" height="0.054" transform="translate(134.686 209.978)" fill="none"/></clipPath><clipPath id="m"><path d="M133.994,211.92" fill="none"/></clipPath><clipPath id="n"><path d="M221.672,83.014" fill="none"/></clipPath><clipPath id="o"><rect width="0.061" height="0.125" transform="translate(135.074 209.109)" fill="none"/></clipPath><clipPath id="p"><rect width="0.428" height="0.513" transform="translate(220.787 83.429)" fill="none"/></clipPath><clipPath id="q"><rect width="173.059" height="111.086" transform="translate(136.032 114.174)" fill="none"/></clipPath><clipPath id="r"><rect width="152.838" height="262.245" transform="translate(148.861 76.966)" fill="none"/></clipPath><clipPath id="s"><rect width="147.568" height="259.202" transform="translate(154.131 80.009)" fill="none"/></clipPath><clipPath id="t"><rect width="6.098" height="177.519" transform="translate(148.859 161.398)" fill="none"/></clipPath><clipPath id="v"><rect width="75.266" height="107.087" transform="translate(142.172 254.589)" fill="none"/></clipPath><clipPath id="w"><rect width="90.745" height="25.571" transform="translate(221.499 237.505)" fill="none"/></clipPath><clipPath id="x"><rect width="25.651" height="18.554" transform="translate(217.256 239.992)" fill="none"/></clipPath><clipPath id="y"><rect width="76.305" height="116.095" transform="translate(240.26 125.337)" fill="none"/></clipPath><clipPath id="z"><rect width="15.268" height="139.953" transform="translate(133.391 223.728)" fill="none"/></clipPath><clipPath id="aa"><rect width="73.712" height="37.494" transform="translate(242.916 241.44)" fill="none"/></clipPath><clipPath id="ab"><rect width="80.753" height="119.822" transform="translate(143.574 243.34)" fill="none"/></clipPath><clipPath id="ac"><rect width="3.257" height="13.337" transform="translate(133.388 211.917)" fill="none"/></clipPath><clipPath id="ad"><rect width="78.609" height="31.193" transform="translate(136.027 223.742)" fill="none"/></clipPath><clipPath id="ae"><rect width="6.786" height="5.67" transform="translate(338.503 150.855)" fill="none"/></clipPath><clipPath id="af"><rect width="13.027" height="19.277" transform="translate(322.308 97.166)" fill="none"/></clipPath><clipPath id="ag"><rect width="10.629" height="8.391" transform="translate(322.314 108.052)" fill="none"/></clipPath><clipPath id="ah"><rect width="10.496" height="9.179" transform="translate(326.039 110.674)" fill="none"/></clipPath><clipPath id="ai"><rect width="13.767" height="22.32" transform="translate(332.335 97.663)" fill="none"/></clipPath><clipPath id="aj"><rect width="35.857" height="41.86" transform="translate(332.849 93.603)" fill="none"/></clipPath><clipPath id="ak"><rect width="26.158" height="24.791" transform="translate(332.849 110.672)" fill="none"/></clipPath><clipPath id="al"><rect width="32.075" height="25.536" transform="translate(355.243 117.35)" fill="none"/></clipPath><clipPath id="am"><rect width="26.691" height="47.611" transform="translate(360.121 92.989)" fill="none"/></clipPath><clipPath id="an"><rect width="10.825" height="16.853" transform="translate(360.137 105.912)" fill="none"/></clipPath><clipPath id="ao"><rect width="8.144" height="13.858" transform="translate(365.089 108.823)" fill="none"/></clipPath><clipPath id="ap"><rect width="30.576" height="25.499" transform="translate(411.2 167.986)" fill="none"/></clipPath><clipPath id="aq"><rect width="50.704" height="29.556" transform="translate(95.725 120.62)" fill="none"/></clipPath><clipPath id="ar"><rect width="4.273" height="3.64" transform="translate(100.444 143.159)" fill="none"/></clipPath><clipPath id="as"><rect width="96.848" height="62.785" transform="translate(238.178 388.039)" fill="none"/></clipPath><clipPath id="at"><rect width="64.341" height="27.653" transform="translate(250.577 395.205)" fill="none"/></clipPath><clipPath id="au"><rect width="21.354" height="11.17" transform="translate(274.466 410.434)" fill="none"/></clipPath><clipPath id="av"><rect width="22.406" height="21.41" transform="translate(261.754 415.259)" fill="none"/></clipPath><clipPath id="aw"><rect width="6.123" height="6.603" transform="translate(306.184 418.411)" fill="none"/></clipPath><clipPath id="ax"><rect width="46.299" height="33.616" transform="translate(238.178 417.208)" fill="none"/></clipPath><clipPath id="ay"><rect width="43.268" height="54.334" transform="translate(324.076 346.095)" fill="none"/></clipPath><clipPath id="ba"><rect width="69.229" height="68.697" transform="translate(367.343 331.731)" fill="none"/></clipPath><clipPath id="bb"><rect width="109.559" height="63.685" transform="translate(325.167 331.746)" fill="none"/></clipPath><clipPath id="bc"><rect width="67.974" height="39.236" transform="translate(325.171 331.749)" fill="none"/></clipPath></defs><g transform="translate(-1317 -3114)"><g transform="translate(1287.576 3084.879)"><path d="M95.759,251.067c-87.426,53.5-87.426,140.248,0,193.749s229.177,53.5,316.6,0,87.428-140.247,0-193.75-229.176-53.5-316.6,0" fill="#f5f5f5"/><path d="M367.343,404.793a6.735,6.735,0,0,1-3.345-.844L324.42,381.1a4.1,4.1,0,0,1,0-7.327l65.538-37.837a7.051,7.051,0,0,1,6.69,0l39.578,22.849a4.095,4.095,0,0,1,0,7.326l-65.538,37.838a6.725,6.725,0,0,1-3.344.845" fill="#e0e0e0"/><path d="M284.159,454.889a63.994,63.994,0,0,1-14.825-1.685,54.574,54.574,0,0,1-13.09-4.833l-.1-.054c-.792-.445-1.817-1.06-3.132-1.879q-1.856-1.158-3.808-2.441t-3.68-2.466c-1.193-.815-2.111-1.473-2.791-2a26.7,26.7,0,0,1-7.612-9.026,17.807,17.807,0,0,1-1.6-11.563,23.818,23.818,0,0,1,6.012-11.2c3.083-3.449,7.4-6.62,13.2-9.692a86.836,86.836,0,0,1,18.491-7.433,69.01,69.01,0,0,1,16.778-2.378l.5,0a54.382,54.382,0,0,1,14.556,1.9,62.436,62.436,0,0,1,12.869,5.137q2.361,1.31,5.076,3.088c1.836,1.2,3.372,2.284,4.693,3.3a15.408,15.408,0,0,1,5.15,6.033,11.356,11.356,0,0,1,.893,6.371c.147-.009.293-.016.443-.02l.274,0a8.288,8.288,0,0,1,5,1.6,6.013,6.013,0,0,1,2.508,5.881,35.27,35.27,0,0,1-1.221,5.106,20.762,20.762,0,0,1-3.636,6.539,39.771,39.771,0,0,1-6.632,6.387,79.62,79.62,0,0,1-27.628,13.274,71.282,71.282,0,0,1-16.332,2.068ZM280.651,421c.179.13.381.271.608.418a12.045,12.045,0,0,0,5.213,2.034,8.383,8.383,0,0,0,.919.054,6.426,6.426,0,0,0,2.142-.353q-.246-.174-.544-.371a12.586,12.586,0,0,0-5.273-2.089,7.514,7.514,0,0,0-.913-.058,6.444,6.444,0,0,0-2.152.365" fill="#e0e0e0"/><path d="M166.831,436.655,38.1,362.5c-2.715-1.566-2.715-4.108,0-5.677L299.352,206.055a10.863,10.863,0,0,1,9.832,0l128.728,74.151c2.716,1.568,2.716,4.11,0,5.679L176.664,436.655a10.865,10.865,0,0,1-9.833,0" fill="#e0e0e0"/><path d="M158.2,59.36l-6.552,3.783a8.022,8.022,0,0,0,.055-.867v-1.9c0-3.378-2.371-4.747-5.3-3.059a10.266,10.266,0,0,0-3.157,3.036c-.479-4.247-3.812-5.829-7.859-3.493a17.515,17.515,0,0,0-7.924,13.726v2.839a7.474,7.474,0,0,0,.671,3.29L122.7,79.859a6.494,6.494,0,0,0-2.939,5.088c0,1.874,1.316,2.634,2.939,1.7l35.5-20.5a6.492,6.492,0,0,0,2.938-5.089c0-1.873-1.315-2.633-2.938-1.7" fill="#ebebeb"/><path d="M114.894,41.957l-3.614,1.39V35.385c0-6.311-5.034-7.825-10.5-4.669s-9.9,10.831-9.9,17.142v1.157a5.3,5.3,0,0,0-4.592.708,15.739,15.739,0,0,0-7.123,12.335v.525l-5.04,2.91a10.371,10.371,0,0,0-4.689,8.124c0,2.991,2.1,4.2,4.689,2.708l40.767-23.537a10.369,10.369,0,0,0,4.689-8.123c0-2.991-2.1-4.2-4.689-2.708" fill="#ebebeb"/><path d="M60.934,333.555l6.807-3.934s4.05-16.833,2.436-31.978c-2.269-21.3-16.286-29.308-21.617-27.471s-6.875,8.032,1.945,20.715c5.2,7.483,11.6,23.069,10.429,42.668" fill="#27debf"/><g opacity="0.15"><g clip-path="url(#a)"><path d="M60.934,333.555l6.807-3.934s4.05-16.833,2.436-31.978c-2.269-21.3-16.286-29.308-21.617-27.471s-6.875,8.032,1.945,20.715c5.2,7.483,11.6,23.069,10.429,42.668"/></g></g><path d="M63.754,325.285a.485.485,0,0,1-.065-.009.47.47,0,0,1-.375-.551c3.731-19.641-3.131-41.711-11.627-50.9a.472.472,0,1,1,.693-.64c8.651,9.351,15.647,31.782,11.861,51.711a.473.473,0,0,1-.487.385" fill="#fff"/><path d="M42.128,346.833c-1.075.547-3.935-1.9-4.732-2.5a9.984,9.984,0,0,1-3.124-3.974,9.355,9.355,0,0,1-.548-5.655,22.243,22.243,0,0,1,.861-2.949q.489-1.426.979-2.855a7.368,7.368,0,0,0,.572-2.9c-.154-1.994-1.843-3.47-3.381-4.748-1.7-1.413-3.455-3.254-3.324-5.639a8.4,8.4,0,0,1,2.353-4.888c1.214-1.387,2.632-2.6,3.739-4.067a5.877,5.877,0,0,0,1.388-3.646,6.123,6.123,0,0,0-.691-2.357,32.894,32.894,0,0,1-2.3-4.772c-.5-1.7-.31-3.769,1.053-4.9a5.474,5.474,0,0,1,4.156-.814,9.417,9.417,0,0,1,3.749,1.536c3.681,2.3,5.616,6.891,9.553,8.714a40.39,40.39,0,0,0,4.8,1.434,6,6,0,0,1,3.872,2.949c1.327,3.02-1.593,6.513-.714,9.693.778,2.814,3.414,4.009,4.8,6.58a5.923,5.923,0,0,1,.524,3.658,17.409,17.409,0,0,1-1.837,6.046,54.547,54.547,0,0,1-3.635,5.59s-17.95,10.374-18.115,10.458" fill="#27debf"/><path d="M52.546,341.4h-.013a.474.474,0,0,1-.433-.514c1.722-18.681-6.056-39.794-12.166-46.122a.472.472,0,1,1,.678-.657c6.234,6.456,14.176,27.921,12.429,46.866a.472.472,0,0,1-.495.427" fill="#fff"/><path d="M50.691,318.368a.447.447,0,0,1-.138-.028,63.542,63.542,0,0,0-13.475-2.875.474.474,0,0,1-.428-.514.458.458,0,0,1,.514-.427,64.581,64.581,0,0,1,13.713,2.929.472.472,0,0,1-.186.915" fill="#fff"/><path d="M46.615,357.77,166.3,426.857a12.893,12.893,0,0,0,12.487.234L419.741,287.967c3.8-2.191,6.874-7.093,6.874-10.948s-3.075-8.757-6.872-10.949L300.5,197.227a15.247,15.247,0,0,0-13.747,0L46.615,335.874c-3.8,2.191-6.873,7.093-6.874,10.948s3.078,8.757,6.874,10.948" fill="#37474f"/><path d="M166.3,426.856,46.615,357.77c-3.8-2.191-6.873-7.093-6.873-10.948s3.078-8.757,6.873-10.948l126.2-72.861V428.571a12.7,12.7,0,0,1-6.514-1.715" fill="#263238"/><path d="M169.146,414.547a13.444,13.444,0,0,0,12.122,0l238.505-137.7c5.128-2.96,5.128-7.8,0-10.766L300.514,197.227a15.247,15.247,0,0,0-13.747,0L46.625,335.873c-3.779,2.184-3.779,5.755,0,7.938Z" fill="#455a64"/><path d="M180.729,400.683a14.435,14.435,0,0,0,13.063,0l205.227-118.49c3.607-2.083,3.607-5.46,0-7.543L286.828,209.886a14.482,14.482,0,0,0-13.062,0L68.538,328.375c-3.592,2.073-3.592,5.468,0,7.542Z" fill="#37474f"/><path d="M280.694,208.352a13.151,13.151,0,0,1,6.134,1.534L399.019,274.65c3.607,2.083,3.607,5.46,0,7.543l-22.238,12.839-96.087-61.357Z" fill="#263238"/><path d="M273.688,214.789a14.493,14.493,0,0,1,13.064,0l112.19,64.766a6.649,6.649,0,0,1,1.7,1.368,6.8,6.8,0,0,1-1.627,1.27L193.792,400.683a14.435,14.435,0,0,1-13.063,0L68.539,335.917a6.635,6.635,0,0,1-1.694-1.353,6.66,6.66,0,0,1,1.616-1.287Z" fill="#fafafa"/><path d="M358.011,244.359l-19.884-11.48c-1.187-.685-1.245-1.761-.133-2.4a4.605,4.605,0,0,1,4.162.077l19.884,11.479c1.187.685,1.246,1.761.133,2.4a4.605,4.605,0,0,1-4.162-.077" fill="#263238"/><path d="M323.867,224.675a1.229,1.229,0,0,1,0-2.327,4.457,4.457,0,0,1,4.03,0,1.228,1.228,0,0,1,0,2.327,4.451,4.451,0,0,1-4.03,0" fill="#263238"/><path d="M315.808,220.016a1.228,1.228,0,0,1,0-2.327,4.449,4.449,0,0,1,4.029,0,1.228,1.228,0,0,1,0,2.327,4.449,4.449,0,0,1-4.029,0" fill="#263238"/><path d="M380.289,257.246a1.229,1.229,0,0,1,0-2.327,4.455,4.455,0,0,1,4.029,0,1.228,1.228,0,0,1,0,2.327,4.455,4.455,0,0,1-4.029,0" fill="#263238"/><path d="M372.229,252.586a1.228,1.228,0,0,1,0-2.327,4.457,4.457,0,0,1,4.03,0,1.228,1.228,0,0,1,0,2.327,4.448,4.448,0,0,1-4.03,0" fill="#263238"/><path d="M175.716,367.588v.434a2.4,2.4,0,0,0,1.088,1.885l23.346,13.479a2.413,2.413,0,0,0,2.177,0l38.659-22.32a2.4,2.4,0,0,0,1.088-1.885v-.434a2.4,2.4,0,0,0-1.088-1.885L217.64,343.383a2.4,2.4,0,0,0-2.176,0L176.8,365.7a2.4,2.4,0,0,0-1.088,1.885" fill="#27debf"/><path d="M175.716,367.588v.434a2.4,2.4,0,0,0,1.088,1.885l23.346,13.479a2.413,2.413,0,0,0,2.177,0l38.659-22.32a2.4,2.4,0,0,0,1.088-1.885v-.434a2.4,2.4,0,0,0-1.088-1.885L217.64,343.383a2.4,2.4,0,0,0-2.176,0L176.8,365.7a2.4,2.4,0,0,0-1.088,1.885" fill="#27debf"/><g opacity="0.3"><g clip-path="url(#b)"><path d="M240.986,356.861,217.64,343.383a2.407,2.407,0,0,0-2.177,0L201.238,351.6v32.05a2.234,2.234,0,0,0,1.089-.26l38.659-22.321a2.4,2.4,0,0,0,1.088-1.884v-.434a2.409,2.409,0,0,0-1.088-1.886" fill="#fff"/></g></g><g opacity="0.15"><g clip-path="url(#b)"><path d="M240.986,356.861,217.64,343.383a2.407,2.407,0,0,0-2.177,0L201.238,351.6v32.05a2.234,2.234,0,0,0,1.089-.26l38.659-22.321a2.4,2.4,0,0,0,1.088-1.884v-.434a2.409,2.409,0,0,0-1.088-1.886"/></g></g><g opacity="0.3"><g clip-path="url(#d)"><path d="M201.239,351.6,176.8,365.7a2.409,2.409,0,0,0-1.087,1.885v.434a2.4,2.4,0,0,0,1.087,1.884l23.347,13.48a2.227,2.227,0,0,0,1.088.26Z" fill="#fff"/></g></g><g opacity="0.2"><g clip-path="url(#d)"><path d="M201.239,351.6,176.8,365.7a2.409,2.409,0,0,0-1.087,1.885v.434a2.4,2.4,0,0,0,1.087,1.884l23.347,13.48a2.227,2.227,0,0,0,1.088.26Z"/></g></g><path d="M196.413,378.28,176.8,366.96a.664.664,0,0,1,0-1.257l38.658-22.32a2.409,2.409,0,0,1,2.178,0l23.346,13.479a.663.663,0,0,1,0,1.256l-6.414,3.7-2.245,1.3-30,17.322a2.415,2.415,0,0,1-2.178,0l-1.9-1.1Z" fill="#27debf"/><g opacity="0.3"><g clip-path="url(#f)"><path d="M196.413,378.28,176.8,366.96a.664.664,0,0,1,0-1.257l38.658-22.32a2.409,2.409,0,0,1,2.178,0l23.346,13.479a.663.663,0,0,1,0,1.256l-6.414,3.7-2.245,1.3-30,17.322a2.415,2.415,0,0,1-2.178,0l-1.9-1.1Z" fill="#fff"/></g></g><g opacity="0.15"><g clip-path="url(#g)"><path d="M214.212,359.474l26.774-2.612-26.538,1.5,3.192-14.981a2.256,2.256,0,0,0-1.185-.249l-5.007,20.25-35.086,2.894a.731.731,0,0,0,.442.682l28.335-1.645-3.9,15.384,4.987-15.447,4.839-.281a2.611,2.611,0,0,0,1.6-.667h0v0a2.617,2.617,0,0,0,.817-1.4Z"/></g></g><g opacity="0.3"><g clip-path="url(#h)"><path d="M184.733,365.588l26.714-2.2.957-3.827.528-2.132,3.526-14.292a2.2,2.2,0,0,0-.995.25l-19.329,11.16L176.8,365.7a.789.789,0,0,0-.442.575l5.359-.441Z" fill="#fff"/></g></g><path d="M212.131,340.187a9.768,9.768,0,0,1,8.841,0c2.442,1.41,2.442,3.695,0,5.1a9.768,9.768,0,0,1-8.841,0c-2.441-1.409-2.441-3.694,0-5.1" fill="#f28f8f"/><path d="M213.464,343.579a.321.321,0,0,1-.184-.063.121.121,0,0,1-.05-.123l.366-1.608c.01-.039.023-.087.041-.141a.264.264,0,0,1,.135-.147l.894-.516a.449.449,0,0,1,.4,0l4.735,2.734a.121.121,0,0,1,0,.228l-.96.554a.388.388,0,0,1-.2.047.383.383,0,0,1-.2-.047l-3.2-1.849-.211.884a.167.167,0,0,1-.106.109.445.445,0,0,1-.21.031Z" fill="#fafafa"/><path d="M257.033,350.555l-26.268-15.168a.66.66,0,0,1,0-1.25L326.086,279.1a2.388,2.388,0,0,1,2.165,0l26.27,15.167a.66.66,0,0,1,0,1.25L259.2,350.555a2.4,2.4,0,0,1-2.165,0" fill="#27debf"/><path d="M251.983,333.417a.535.535,0,0,1-.275.077c-.093,0-.164,0-.211,0l-5.46-.616,3.232,1.866a.147.147,0,0,1,.086.122.144.144,0,0,1-.086.122l-.636.368a.434.434,0,0,1-.212.05.424.424,0,0,1-.212-.05l-5.068-2.927a.129.129,0,0,1,0-.244l.548-.318a.562.562,0,0,1,.274-.077c.1,0,.165,0,.212,0l5.463.616L246.4,330.54a.13.13,0,0,1,0-.244l.637-.367a.428.428,0,0,1,.211-.05.436.436,0,0,1,.213.05l5.068,2.927a.141.141,0,0,1,.087.122.144.144,0,0,1-.087.122Z" fill="#fafafa"/><path d="M251.653,331.253a2.619,2.619,0,0,1-.694-.556,1.143,1.143,0,0,1-.29-.612.917.917,0,0,1,.157-.611,1.792,1.792,0,0,1,.631-.556,3.369,3.369,0,0,1,.957-.367,4.364,4.364,0,0,1,1.041-.1,4.442,4.442,0,0,1,1.022.143,3.65,3.65,0,0,1,.9.363l.353.2a.13.13,0,0,1,0,.245l-2.621,1.513a1.155,1.155,0,0,0,.393.141,1.68,1.68,0,0,0,.432.018,1.951,1.951,0,0,0,.431-.086,1.981,1.981,0,0,0,.384-.168,1.444,1.444,0,0,0,.357-.264.512.512,0,0,0,.129-.225.4.4,0,0,1,.056-.131.366.366,0,0,1,.125-.1l.629-.363a.435.435,0,0,1,.215-.051.358.358,0,0,1,.208.051.44.44,0,0,1,.161.234.655.655,0,0,1,0,.392,1.376,1.376,0,0,1-.278.487,2.464,2.464,0,0,1-.656.514,3.428,3.428,0,0,1-.949.371,3.959,3.959,0,0,1-1.044.1,4.419,4.419,0,0,1-2.049-.583m.746-1.791a1.044,1.044,0,0,0-.322.263.47.47,0,0,0-.1.256.394.394,0,0,0,.068.233.669.669,0,0,0,.171.184l1.773-1.022a2.373,2.373,0,0,0-.3-.108,1.439,1.439,0,0,0-.376-.055,1.7,1.7,0,0,0-.432.05,1.791,1.791,0,0,0-.479.2" fill="#fafafa"/><path d="M260.622,326.526l-1.536-1.7a.369.369,0,0,1-.06-.11c-.013-.041.017-.083.09-.125l.6-.345a.476.476,0,0,1,.425,0,.188.188,0,0,1,.046.036l2.433,2.773a.285.285,0,0,1,.064.118c.008.043-.022.085-.1.128l-.6.343a.35.35,0,0,1-.216.052,1.871,1.871,0,0,1-.208-.034l-2.855-.77,1.333,1.649a.48.48,0,0,1,.06.12c.012.04-.018.082-.091.124l-.6.345a.377.377,0,0,1-.22.055,1.156,1.156,0,0,1-.2-.037l-4.8-1.4a.284.284,0,0,1-.061-.026.139.139,0,0,1-.086-.123.136.136,0,0,1,.085-.121l.6-.346a.356.356,0,0,1,.215-.052,1.415,1.415,0,0,1,.194.034l2.949.888-1.49-1.73a.168.168,0,0,1-.051-.116.133.133,0,0,1,.081-.121l.6-.343a.4.4,0,0,1,.209-.048.687.687,0,0,1,.2.03Z" fill="#fafafa"/><path d="M264.169,324.025a2.606,2.606,0,0,1-.693-.554,1.155,1.155,0,0,1-.291-.613.921.921,0,0,1,.158-.611,1.783,1.783,0,0,1,.631-.556,3.369,3.369,0,0,1,.957-.367,4.408,4.408,0,0,1,1.041-.1,4.466,4.466,0,0,1,1.023.142,3.577,3.577,0,0,1,.9.364l.355.2a.129.129,0,0,1,0,.244l-2.621,1.513a1.144,1.144,0,0,0,.391.14,1.692,1.692,0,0,0,.433.019,1.945,1.945,0,0,0,.432-.086,2.03,2.03,0,0,0,.383-.168,1.477,1.477,0,0,0,.358-.265.536.536,0,0,0,.129-.224.377.377,0,0,1,.055-.131.385.385,0,0,1,.125-.1l.629-.363a.446.446,0,0,1,.215-.052.366.366,0,0,1,.209.052.453.453,0,0,1,.16.234.655.655,0,0,1,0,.392,1.366,1.366,0,0,1-.277.487,2.422,2.422,0,0,1-.655.514,3.428,3.428,0,0,1-.949.371,3.964,3.964,0,0,1-1.044.1,4.413,4.413,0,0,1-2.05-.584m.747-1.789a.989.989,0,0,0-.321.263.451.451,0,0,0-.1.256.4.4,0,0,0,.066.232.729.729,0,0,0,.172.186l1.774-1.024a2.543,2.543,0,0,0-.3-.108,1.446,1.446,0,0,0-.376-.055,1.71,1.71,0,0,0-.433.05,1.791,1.791,0,0,0-.478.2" fill="#fafafa"/><path d="M268.251,319.767a.646.646,0,0,1,.106-.465,1.249,1.249,0,0,1,.435-.392,2.826,2.826,0,0,1,.993-.36,3.37,3.37,0,0,1,.977-.007.632.632,0,0,1-.032-.308.9.9,0,0,1,.107-.306,1.212,1.212,0,0,1,.219-.277,1.632,1.632,0,0,1,.31-.228,2.887,2.887,0,0,1,.895-.344,3.213,3.213,0,0,1,.883-.048,3.263,3.263,0,0,1,.843.189,4.867,4.867,0,0,1,.777.361l2.111,1.219a.13.13,0,0,1,0,.245l-.6.345a.481.481,0,0,1-.423,0l-2.071-1.2a2,2,0,0,0-.951-.312,1.506,1.506,0,0,0-.784.208.564.564,0,0,0-.333.429c-.013.164.144.347.473.549l2.112,1.22a.144.144,0,0,1,.087.122.147.147,0,0,1-.087.122l-.6.346a.439.439,0,0,1-.211.049.421.421,0,0,1-.212-.051l-2.071-1.2a2.012,2.012,0,0,0-.95-.314,1.518,1.518,0,0,0-.785.209.559.559,0,0,0-.333.442c-.008.171.162.357.513.559l2.072,1.2a.13.13,0,0,1,0,.246l-.6.343a.413.413,0,0,1-.212.051.4.4,0,0,1-.212-.051l-3.656-2.109a.144.144,0,0,1-.087-.124.143.143,0,0,1,.086-.122l.6-.344a.468.468,0,0,1,.425,0Z" fill="#fafafa"/><path d="M275.055,316.545a.753.753,0,0,1-.208-.287.645.645,0,0,1-.032-.39,1.069,1.069,0,0,1,.239-.451,2.219,2.219,0,0,1,.6-.467,3.712,3.712,0,0,1,.826-.355,3.591,3.591,0,0,1,.865-.141,3.163,3.163,0,0,1,.872.091,3.2,3.2,0,0,1,.834.337l2.308,1.332a.13.13,0,0,1,0,.245l-.6.345a.413.413,0,0,1-.212.05.4.4,0,0,1-.212-.051l-.259-.15a.659.659,0,0,1-.086.5,1.624,1.624,0,0,1-.628.548,3.053,3.053,0,0,1-.7.3,2.825,2.825,0,0,1-.7.111,2.628,2.628,0,0,1-.667-.063,2.127,2.127,0,0,1-.589-.227c-.361-.209-.515-.445-.463-.712a1.574,1.574,0,0,1,.612-.833l1.06-.865a1.03,1.03,0,0,0-.667-.14,1.771,1.771,0,0,0-.659.226.667.667,0,0,0-.251.209.482.482,0,0,0-.064.208.224.224,0,0,1-.043.124.328.328,0,0,1-.1.089l-.731.421a.385.385,0,0,1-.179.05.221.221,0,0,1-.165-.05m3.523.521a1.448,1.448,0,0,0,.4-.317.6.6,0,0,0,.149-.317.419.419,0,0,0-.07-.285.723.723,0,0,0-.251-.227l-.079-.046-.878.726a.818.818,0,0,0-.3.36c-.024.1.025.178.145.247a.57.57,0,0,0,.412.043,1.636,1.636,0,0,0,.475-.184" fill="#fafafa"/><path d="M277.888,312.028a.481.481,0,0,1,.423,0l.612.353a.131.131,0,0,1,0,.246l-.675.389a.427.427,0,0,1-.213.049.421.421,0,0,1-.212-.049l-.611-.354a.128.128,0,0,1,0-.243Zm5.532,2.995a.148.148,0,0,1,.087.123.151.151,0,0,1-.087.122l-.6.343a.468.468,0,0,1-.425,0l-3.655-2.109a.144.144,0,0,1-.086-.124.14.14,0,0,1,.085-.122l.6-.345a.472.472,0,0,1,.425,0Z" fill="#fafafa"/><path d="M285.522,313.809a.143.143,0,0,1,.087.123.145.145,0,0,1-.087.122l-.6.344a.426.426,0,0,1-.212.049.408.408,0,0,1-.212-.049l-5.149-2.972a.131.131,0,0,1,0-.245l.6-.344a.474.474,0,0,1,.424,0Z" fill="#fafafa"/><path d="M254.394,337.644l77.772-44.9a3.5,3.5,0,0,1,3.128-.194c.77.445.621,1.253-.337,1.8l-77.78,44.908a3.484,3.484,0,0,1-3.124.191c-.769-.447-.616-1.257.341-1.809" fill="#fafafa"/><path d="M259.854,340.8l77.771-44.9a3.5,3.5,0,0,1,3.129-.2c.771.446.621,1.254-.336,1.806l-77.78,44.908a3.49,3.49,0,0,1-3.124.191c-.769-.447-.617-1.257.34-1.809" fill="#fafafa"/><path d="M144.378,369.94l-40.62-23.451L285.721,241.432l41.449,22.974Z" fill="#e0e0e0"/><path d="M133.391,223.729l173.057-99.915,6.925,4a7.22,7.22,0,0,1,3.256,5.639v127.66a7.219,7.219,0,0,1-3.255,5.638L146.827,362.9a7.221,7.221,0,0,1-6.511,0l-3.669-2.118a7.222,7.222,0,0,1-3.255-5.639Z" fill="#27debf"/><g opacity="0.2"><g clip-path="url(#i)"><path d="M133.391,223.729l173.057-99.915,6.925,4a7.22,7.22,0,0,1,3.256,5.639v127.66a7.219,7.219,0,0,1-3.255,5.638L146.827,362.9a7.221,7.221,0,0,1-6.511,0l-3.669-2.118a7.222,7.222,0,0,1-3.255-5.639Z"/></g></g><path d="M305.494,112.591l.707-.385-2.688-1.562v0a4.664,4.664,0,0,0-.714-.342L226.636,82.083a5.242,5.242,0,0,0-5.849,1.859l-85.2,124.419a14.725,14.725,0,0,0-2.2,7.1v8.263l2.641,1.534L306.448,123.814v-8.265a5.583,5.583,0,0,0-.954-2.958" fill="#27debf"/><g opacity="0.1"><g clip-path="url(#j)"><path d="M224.314,84.545a4.274,4.274,0,0,0-.881.934L138.228,209.893a13.244,13.244,0,0,0-1.583,3.555L134,211.917a16.775,16.775,0,0,1,.688-1.882.254.254,0,0,1,.025-.052c.118-.259.234-.505.365-.752.026-.039.037-.078.065-.117a6.477,6.477,0,0,1,.454-.752L220.786,83.948a4.21,4.21,0,0,1,.427-.519c.143-.143.3-.285.454-.415Z"/></g></g><g opacity="0.35"><g clip-path="url(#k)"><path d="M306.172,112.193a4.286,4.286,0,0,0-.727-.35L229.271,83.61a5.221,5.221,0,0,0-4.956.935l-2.647-1.532a5.285,5.285,0,0,1,4.969-.933L302.8,110.3a4.1,4.1,0,0,1,.714.35Z" fill="#fff"/></g></g><path d="M135.135,209.109a8.346,8.346,0,0,1,.455-.749c-.156.228-.308.48-.455.749" fill="#27debf"/><path d="M221.215,83.429a5.64,5.64,0,0,1,.457-.415,4.75,4.75,0,0,0-.457.415" fill="#27debf"/><path d="M133.994,211.92a16.532,16.532,0,0,1,.691-1.888,16.161,16.161,0,0,0-.691,1.888" fill="#27debf"/><path d="M134.708,209.979c.116-.262.24-.507.366-.746-.126.239-.249.484-.366.746" fill="#27debf"/><g opacity="0.2"><g clip-path="url(#l)"><path d="M134.686,210.032c.008-.018.014-.036.022-.054-.008.018-.014.036-.022.054"/></g></g><g opacity="0.2"><g clip-path="url(#m)"><path d="M133.994,211.92"/></g></g><g opacity="0.2"><g clip-path="url(#n)"><path d="M221.672,83.014"/></g></g><g opacity="0.2"><g clip-path="url(#o)"><path d="M135.074,209.233c.021-.04.04-.085.062-.124-.022.04-.041.084-.062.124"/></g></g><g opacity="0.2"><g clip-path="url(#p)"><path d="M220.787,83.941a4.263,4.263,0,0,1,.428-.513,3.8,3.8,0,0,0-.428.513"/></g></g><path d="M223.428,85.476,138.23,209.9a14.735,14.735,0,0,0-2.2,7.1v8.263L309.091,125.34l0-8.257a6,6,0,0,0-3.65-5.245L229.277,83.617a5.242,5.242,0,0,0-5.849,1.859" fill="#27debf"/><g opacity="0.05"><g clip-path="url(#q)"><path d="M309.089,117.083a5.546,5.546,0,0,0-.925-2.909L136.645,213.448s-.009.014-.016.027a12.975,12.975,0,0,0-.6,3.523v8.263l173.059-99.922Z"/></g></g><path d="M301.7,82.014a1.981,1.981,0,0,0-.811-1.812c-.509-.3-4.774-2.756-5.283-3.05a1.975,1.975,0,0,0-1.985.2L151.67,159.3a6.2,6.2,0,0,0-2.809,4.865v170a1.973,1.973,0,0,0,.822,1.819l5.271,3.043a1.974,1.974,0,0,0,1.987-.2l141.949-81.95a6.209,6.209,0,0,0,2.808-4.865Z" fill="#27debf"/><g opacity="0.95"><g clip-path="url(#r)"><path d="M301.7,82.014a1.981,1.981,0,0,0-.811-1.812c-.509-.3-4.774-2.756-5.283-3.05a1.975,1.975,0,0,0-1.985.2L151.67,159.3a6.2,6.2,0,0,0-2.809,4.865v170a1.973,1.973,0,0,0,.822,1.819l5.271,3.043a1.974,1.974,0,0,0,1.987-.2l141.949-81.95a6.209,6.209,0,0,0,2.808-4.865Z" fill="#fff"/></g></g><path d="M156.941,338.827l141.949-81.95a6.209,6.209,0,0,0,2.808-4.865v-170c0-1.792-1.257-2.518-2.808-1.622L156.94,162.343a6.213,6.213,0,0,0-2.809,4.866v170c0,1.791,1.259,2.518,2.809,1.621" fill="#27debf"/><g opacity="0.8"><g clip-path="url(#s)"><path d="M156.941,338.827l141.949-81.95a6.209,6.209,0,0,0,2.808-4.865v-170c0-1.792-1.257-2.518-2.808-1.622L156.94,162.343a6.213,6.213,0,0,0-2.809,4.866v170c0,1.791,1.259,2.518,2.809,1.621" fill="#fff"/></g></g><path d="M154.127,337.2a2.121,2.121,0,0,0,.662,1.713c-.948-.532-4.632-2.673-5.1-2.933a1.952,1.952,0,0,1-.831-1.816V164.162a5.619,5.619,0,0,1,.831-2.764l5.267,3.036a5.673,5.673,0,0,0-.83,2.776Z" fill="#27debf"/><g opacity="0.7"><g clip-path="url(#t)"><path d="M154.127,337.2a2.121,2.121,0,0,0,.662,1.713c-.948-.532-4.632-2.673-5.1-2.933a1.952,1.952,0,0,1-.831-1.816V164.162a5.619,5.619,0,0,1,.831-2.764l5.267,3.036a5.673,5.673,0,0,0-.83,2.776Z" fill="#fff"/></g></g><g opacity="0.05"><g clip-path="url(#t)"><path d="M154.127,337.2a2.121,2.121,0,0,0,.662,1.713c-.948-.532-4.632-2.673-5.1-2.933a1.952,1.952,0,0,1-.831-1.816V164.162a5.619,5.619,0,0,1,.831-2.764l5.267,3.036a5.673,5.673,0,0,0-.83,2.776Z"/></g></g><path d="M205.933,208.724c-.625,15.813.439,49.7.439,49.7s16.763,5.066,28.16,3.177S270.3,242.453,270.3,242.453l-4.062-36.678Z" fill="#37474f"/><path d="M244.852,257.853l2.723-25.833c10.683-6.371,14.159-15.189,14.159-15.189-9.723,12.732-19.867,10.671-19.867,10.671v31.717q1.458-.629,2.985-1.366" fill="#263238"/><path d="M272.932,161.075c2.714-13.764,3.946-32.056-8.029-35.413-3.119-.874-11.06-.266-11.06-.266l-12.911.641c-7.189.916-17.274,2.346-19.916,3-6.936,1.706-9,13.035-12.1,38.141-1.947,15.72-3.6,27.992-3.6,43.292,12.684,11.372,52.328,6.894,61.349-.5.375-17.342,1.32-23.773,6.274-48.888" fill="#455a64"/><path d="M238.743,121.348c-.124,2.514,2.769,6.756,7.2,9.734s8.24,4.184,8.724,5.427c-2.1.4-4,1.436-5.562,5.042-1.493,3.443-1.478,3.554-6.587,0s-9.679-11.712-9.668-14.43,4.016-7.973,5.982-7.527Z" fill="#37474f"/><path d="M254.662,136.509c1.5-1.634,2.914-5.744,3.1-7.52s.654-6.444.654-6.444a3.418,3.418,0,0,1,1.768,1.148c.551.834,3.27,6.453,3.181,9.591s-.823,7.381-1.884,9.171-1.772-1.369-2.464-2.592c-.9-1.587-2.135-3.311-4.352-3.354" fill="#37474f"/><path d="M252.641,140.109s.246,11.334-.8,17.361a18.417,18.417,0,0,0,6.742-.18s-1.729,2.129-8.067,1.15c0,0,1.949-11.832,2.122-18.331" fill="#37474f"/><path d="M279.474,87.774a17.987,17.987,0,0,0-35.9-1.365L235.409,80.6a6.388,6.388,0,0,0-5.261,1.937c-2.235,2.356-.86,9.6,2.073,16.68,0,0,2.949,12.919,4.088,15.032a5.871,5.871,0,0,0,3.433,2.685l-.284-7.861,32.675-2.346-3.233-2.3a17.986,17.986,0,0,0,10.574-16.651" fill="#263238"/><path d="M238.984,99.716c-1.033.638-1.976-1.547-3.854-2.667-1.6-.953-5.186-2.625-7.553,1.339-2.551,4.271,2.078,10.174,5.319,11.391,4.8,1.8,6.518-1.961,6.518-1.961l-.991,20c6.535,11.9,25.931,11.137,19.336,1.169l.792-7.713s5.168.706,7.677.28c4.176-.709,6.76-4.05,7.963-8.6,1.932-7.307,2.619-13.194.677-27.479-2.128-15.657-20.374-15.551-30.134-9.2s-5.75,23.442-5.75,23.442" fill="#ffa8a7"/><path d="M278.852,70.86a6.73,6.73,0,0,0-4.414-.506,5.338,5.338,0,0,0-3.2-5.371,6.184,6.184,0,0,0-6.76.9c.443-1.59-1-3.21-2.617-3.562a8.624,8.624,0,0,0-4.814.791c-2.294.879-4.553,1.852-6.882,2.632-4.107,1.372-8.477,2.154-12.191,4.38a7.581,7.581,0,0,0-2.32,1.971,6.449,6.449,0,0,0-1.051,4.074,8.521,8.521,0,0,0,.2,1.4,3.576,3.576,0,0,0-.975-.76,3.473,3.473,0,0,0-4.746,1.647l6.186,3.205c-.153,1.246-.308,2.49-.434,3.74-.334,3.3-.973,7.143-.229,10.425a2.478,2.478,0,0,0,.4,1.1,19.406,19.406,0,0,1,3.217,3.13c.478.583,1.058,1.524,1.832,1.753a1.861,1.861,0,0,0,2.139-.977,3.4,3.4,0,0,0,.068-1.457q-.3-3.046-.6-6.1a3.445,3.445,0,0,1,.1-1.615,4.572,4.572,0,0,1,1.492-1.584,7.041,7.041,0,0,0,2.426-4.886,7.784,7.784,0,0,1,.165-1.749c.127-.428.467-1.1.958-1.1.955,0,6.133,1.122,7.434,1.3,6.777.929,14.057,1.108,20.034-2.216,2.328-1.294,6.251-3.979,6.658-6.859a3.838,3.838,0,0,0-2.084-3.714" fill="#263238"/><path d="M258.551,121.275s-9.37-1.744-12.662-3.432a10.746,10.746,0,0,1-4.581-4.4,14.717,14.717,0,0,0,2.642,5.232c2.434,3.018,14.345,5.087,14.345,5.087Z" fill="#f28f8f"/><path d="M258.151,98.034a1.756,1.756,0,1,1-1.782-1.8,1.783,1.783,0,0,1,1.782,1.8" fill="#263238"/><path d="M254.738,91.491l-4.116,2a2.4,2.4,0,0,1,1.1-3.137,2.233,2.233,0,0,1,3.017,1.137" fill="#263238"/><path d="M254.786,109l7.436,2.666a3.882,3.882,0,0,1-4.987,2.525A4.137,4.137,0,0,1,254.786,109" fill="#b16668"/><path d="M259.481,114.282a3.744,3.744,0,0,0-4.818-3.2,4.042,4.042,0,0,0,2.572,3.1,3.77,3.77,0,0,0,2.246.1" fill="#f28f8f"/><path d="M274.244,92.85l-3.974-2.074a2.165,2.165,0,0,1,2.963-.937,2.282,2.282,0,0,1,1.011,3.011" fill="#263238"/><path d="M272.223,97.737a1.756,1.756,0,1,1-1.782-1.8,1.783,1.783,0,0,1,1.782,1.8" fill="#263238"/><path d="M263.271,96.646,263.621,108l6.693-1.557Z" fill="#f28f8f"/><path d="M312.238,262.812a1.575,1.575,0,0,1-.18.259L239.941,240.2a12.422,12.422,0,0,0-15.584,4.8l-77.1,114.588-2.851,1.646-.025.014a2.33,2.33,0,0,1-2.207.246l79.29-118.114a12.458,12.458,0,0,1,15.6-4.811Z" fill="#27debf"/><g opacity="0.4"><g clip-path="url(#v)"><path d="M217.256,256.249l.182-.156-70.18,103.5-2.855,1.648-.025.012a2.358,2.358,0,0,1-2.206.247L214.48,254.588Z" fill="#fff"/></g></g><g opacity="0.4"><g clip-path="url(#w)"><path d="M312.243,262.815a1.487,1.487,0,0,1-.182.261L239.936,240.2a12.42,12.42,0,0,0-15.583,4.8l-2.854-1.661a12.449,12.449,0,0,1,15.569-4.774Z" fill="#fff"/></g></g><path d="M316.568,132.634h-.012c-.156-.934-.649-1.193-1.285-.752a3.758,3.758,0,0,0-.831.856l-.363.506L242.912,241.439l-10.627,14.8a6.06,6.06,0,0,1-5.85,2.193l-9.175-2.18-70.024-25.778a3.539,3.539,0,0,0-1.426-.053,2.6,2.6,0,0,0-.533.168l2.64-1.525,67.134,24.6,8.841,3.154a6.023,6.023,0,0,0,5.85-2.191l10.626-14.792,71.517-108.7a2.843,2.843,0,0,1,.8-.74l-6.189-3.568,2.6-1.493,4.281,2.466a7.42,7.42,0,0,1,3.191,4.826" fill="#27debf"/><g opacity="0.4"><g clip-path="url(#x)"><path d="M242.907,241.432l-10.626,14.8a6.06,6.06,0,0,1-5.852,2.193l-9.173-2.18.182-.156.441-.7,6.007,1.426a6.029,6.029,0,0,0,5.852-2.193l10.522-14.635Z" fill="#fff"/></g></g><g opacity="0.1"><g clip-path="url(#y)"><path d="M313.372,127.8l-4.281-2.465-2.6,1.492,6.189,3.568.015.011-.011-.005a2.831,2.831,0,0,0-.8.739L240.364,239.836l-.1.143v.013l2.647,1.44,71.166-108.194.363-.506a3.717,3.717,0,0,1,.832-.856c.634-.441,1.127-.182,1.283.752h.013a7.418,7.418,0,0,0-3.192-4.826"/></g></g><path d="M148.659,232.547l-15.268-8.818V355.148a7.219,7.219,0,0,0,3.255,5.639l3.669,2.118a7.221,7.221,0,0,0,6.511,0l1.832-1.057Z" fill="#27debf"/><g opacity="0.15"><g clip-path="url(#z)"><path d="M148.659,232.547l-15.268-8.818V355.148a7.219,7.219,0,0,0,3.255,5.639l3.669,2.118a7.221,7.221,0,0,0,6.511,0l1.832-1.057Z"/></g></g><path d="M316.634,133.452V261.109a6.634,6.634,0,0,1-1.013,3.295,7.1,7.1,0,0,1-1.907,2.142l-.129.064a1.844,1.844,0,0,1-.208.143L146.835,362.895l-.026.013a2.324,2.324,0,0,1-2.218.26,1.977,1.977,0,0,1-.974-1.558,4.117,4.117,0,0,1-.039-.584V233.356a2.83,2.83,0,0,1,3.659-2.88l70.024,25.779,9.173,2.18a6.066,6.066,0,0,0,5.852-2.192l10.626-14.805,71.165-108.194.363-.505c1.207-1.674,2.194-1.363,2.194.713" fill="#27debf"/><path d="M313.375,266.754a2.08,2.08,0,0,0,.214-.138l.125-.075a7.006,7.006,0,0,0,1.9-2.13,6.663,6.663,0,0,0,1.01-3.242L242.917,241.44l49.361,37.494Z" fill="#27debf"/><g opacity="0.2"><g clip-path="url(#aa)"><path d="M313.375,266.754a2.08,2.08,0,0,0,.214-.138l.125-.075a7.006,7.006,0,0,0,1.9-2.13,6.663,6.663,0,0,0,1.01-3.242L242.917,241.44l49.361,37.494Z"/></g></g><path d="M143.575,361.022a2.247,2.247,0,0,0,1.015,2.142,2.32,2.32,0,0,0,2.218-.251l.024-.013,57.34-33.1,13.1-73.547L143.578,358.9Z" fill="#27debf"/><g opacity="0.15"><g clip-path="url(#ab)"><path d="M224.328,244.987,144.585,363.161a2.244,2.244,0,0,1-1.011-2.139l0-2.123,77.9-115.521c0-.013.013-.025.024-.039Z"/></g></g><path d="M315.618,264.411a7,7,0,0,1-1.9,2.13l-.125.075L146.833,362.9l-.025.013a2.317,2.317,0,0,1-2.218.25l79.75-118.195a12.529,12.529,0,0,1,15.679-4.812Z" fill="#27debf"/><g opacity="0.15"><g clip-path="url(#ac)"><path d="M134,211.917l2.647,1.53a12.946,12.946,0,0,0-.61,3.555v8.252l-2.647-1.53v-8.265a12.947,12.947,0,0,1,.61-3.542"/></g></g><path d="M147.917,229.067l-2.639,1.526-2.673-1.544-6.578-3.789,2.556-1.518Z" fill="#27debf"/><g opacity="0.1"><g clip-path="url(#ad)"><path d="M148.034,229.117l-9.451-5.375-2.556,1.519,6.578,3.788,2.673,1.544.027-.016a2.572,2.572,0,0,1,.5-.158,3.562,3.562,0,0,1,1.427.052l5.322,1.963,61.126,22.5.956-1.418Z"/></g></g><path d="M221.016,129.033c-8.483.61-14.3,2.63-19.771,15.767-3.535,8.493-17.392,39.012-18.733,44.056-1.577,5.926-5.118,50.953-5.118,50.953l8.1,3.038s-2.775,9.69-5.117,15.228c-2.7,6.383,10.487,5.044,14.722-.76,4.248-5.82,7.122-13.568,4.808-16.291a38.039,38.039,0,0,0-6.428-5.946l8.865-40.172,18.588-39.518s9.327-19.423.087-26.355" fill="#ffa8a7"/><path d="M193.476,235.078a17.486,17.486,0,0,0-8.215-2.346,15.827,15.827,0,0,1,8.6,0Z" fill="#f28f8f"/><path d="M222.942,128.643c-4.766-.04-13.655-.253-19.413,10.148s-13.9,30.166-13.9,30.166,3.386,8.327,21.5,10.065l13.88-29.532s3.38-13.551-2.068-20.847" fill="#37474f"/><path d="M284.418,135.463c7.157,5.642,18.783,14.518,24.433,18.071,4.271-5.168,12.129-15.622,14.035-17.912,2.424-2.911,10.08-7.666,10.08-7.666l2.891,11.595s-14.514,26.775-19.774,31.731c-5.542,5.223-9.553,3.057-20.382-1.907-10.231-4.69-21.339-10.5-21.339-10.5,2.2-19.461.71-30-8.588-33.283,6.249.775,12.638,5.141,18.644,9.875" fill="#ffa8a7"/><path d="M303.112,149.617c-3.741,1.028-11.474,12.032-10.063,18.993l-19.7-9.739c2.384-13.434,2.9-30.029-8.445-33.209a15.839,15.839,0,0,0-3.319-.42c5.649-.56,9.337-.395,15.257,4.055s26.271,20.32,26.271,20.32" fill="#37474f"/><path d="M308.851,153.534c-2.823,2.474-3.736,6.938-4.284,8.705a15.537,15.537,0,0,1,2.652-9.767Z" fill="#f28f8f"/><path d="M336.284,114.981l6.752-4.1s.777,36.445.8,37.63a4.01,4.01,0,0,0,1.418,2.341l-6.753,4.091a4.006,4.006,0,0,1-1.418-2.339c-.025-1.184-.8-37.626-.8-37.626" fill="#37474f"/><path d="M343.359,126.073s1.941.461,2.683,3.47,1.114,8.757-.613,10.651-4.089,2.72-5.659,2.039c-2.932-1.274-2.041-7.226.311-8.6,3.757-2.194,3.307-4.611,3.307-4.611Z" fill="#ffa8a7"/><path d="M327.972,115.091l2.96,3.609.531,25.7-3.007,5.024,10.047,5.52a3.667,3.667,0,0,1-1.418-2.339l-.7-32.895Z" fill="#455a64"/><path d="M328.456,149.426l.034,1.579,10.046,5.52-.033-1.579Z" fill="#27debf"/><path d="M338.536,156.525l6.753-4.092-.033-1.579-6.753,4.092Z" fill="#27debf"/><g opacity="0.1"><g clip-path="url(#ae)"><path d="M338.536,156.525l6.753-4.092-.033-1.579-6.753,4.092Z"/></g></g><path d="M329.936,97.255h0c-1.313-.325-2.834.227-4.245,1.736l-.05.055a14.153,14.153,0,0,0-2.892,12.474l.023.071c.617,2.022,1.78,3.2,3.143,3.445h0l5.842,1.4,3.577-17.883Z" fill="#27debf"/><g opacity="0.7"><g clip-path="url(#af)"><path d="M329.936,97.255h0c-1.313-.325-2.834.227-4.245,1.736l-.05.055a14.153,14.153,0,0,0-2.892,12.474l.023.071c.617,2.022,1.78,3.2,3.143,3.445h0l5.842,1.4,3.577-17.883Z" fill="#fff"/></g></g><g opacity="0.05"><g clip-path="url(#ag)"><path d="M325.916,115.036h0l5.841,1.4,1.185-5.927-10.626-2.463a11.264,11.264,0,0,0,.434,3.468l.021.072c.618,2.023,1.781,3.195,3.145,3.444"/></g></g><path d="M341.773,97.756l0,0c-1.477-.338-3.158.206-4.755,1.7-.168.152-.335.319-.5.5-.2.212-.385.426-.567.658a12.946,12.946,0,0,0-.858,1.205,16.262,16.262,0,0,0-1.294,2.507,19.311,19.311,0,0,0-1.454,7.641,13.592,13.592,0,0,0,.551,3.634c.727,2.386,2.063,3.834,3.644,4.254l-5.558-1.284,0-.012a6.39,6.39,0,0,1-4.4-4.422,13.429,13.429,0,0,1-.545-3.463,19.242,19.242,0,0,1,1.449-7.809,15.987,15.987,0,0,1,1.294-2.506,11.994,11.994,0,0,1,.859-1.205c.182-.232.373-.452.566-.658.164-.177.336-.342.51-.5a6.329,6.329,0,0,1,5.384-1.543v0l.156.034c.064.016.132.03.2.048Z" fill="#27debf"/><g opacity="0.1"><g clip-path="url(#ah)"><path d="M330.977,118.57l0-.012a6.39,6.39,0,0,1-4.4-4.422,13.427,13.427,0,0,1-.544-3.462l6.3,1.292a13.6,13.6,0,0,0,.551,3.635c.727,2.386,2.064,3.834,3.644,4.253Z"/></g></g><path d="M345.546,102.048a17.742,17.742,0,0,1-3.623,15.642c-1.756,1.883-3.654,2.583-5.3,2.186-.03-.006-.061-.015-.092-.022-1.581-.419-2.917-1.868-3.644-4.254a17.75,17.75,0,0,1,3.622-15.645c1.744-1.866,3.627-2.571,5.258-2.195s3.027,1.834,3.775,4.288" fill="#27debf"/><g opacity="0.2"><g clip-path="url(#ai)"><path d="M345.546,102.048a17.742,17.742,0,0,1-3.623,15.642c-1.756,1.883-3.654,2.583-5.3,2.186-.03-.006-.061-.015-.092-.022-1.581-.419-2.917-1.868-3.644-4.254a17.75,17.75,0,0,1,3.622-15.645c1.744-1.866,3.627-2.571,5.258-2.195s3.027,1.834,3.775,4.288"/></g></g><path d="M368.706,93.6s-6.535,6.338-9.658,19.815a54.479,54.479,0,0,0-1.191,7.349c-.839,9.165,1.15,14.7,1.15,14.7-4.033-4.951-8.69-9.932-14.846-12.955a76.14,76.14,0,0,0-7.391-3.129l0-.007c-1.491-.349-2.718-1.722-3.39-3.923a13.882,13.882,0,0,1-.507-4.777,18.455,18.455,0,0,1,.454-3.213,15.9,15.9,0,0,1,3.562-7.151c1.571-1.682,3.277-2.375,4.77-2.033v-.006a76.392,76.392,0,0,0,8.014.439c6.858-.008,13.23-2.433,19.03-5.105" fill="#27debf"/><g opacity="0.7"><g clip-path="url(#aj)"><path d="M368.706,93.6s-6.535,6.338-9.658,19.815a54.479,54.479,0,0,0-1.191,7.349c-.839,9.165,1.15,14.7,1.15,14.7-4.033-4.951-8.69-9.932-14.846-12.955a76.14,76.14,0,0,0-7.391-3.129l0-.007c-1.491-.349-2.718-1.722-3.39-3.923a13.882,13.882,0,0,1-.507-4.777,18.455,18.455,0,0,1,.454-3.213,15.9,15.9,0,0,1,3.562-7.151c1.571-1.682,3.277-2.375,4.77-2.033v-.006a76.392,76.392,0,0,0,8.014.439c6.858-.008,13.23-2.433,19.03-5.105" fill="#fff"/></g></g><g opacity="0.05"><g clip-path="url(#ak)"><path d="M357.857,120.767c-.838,9.165,1.15,14.7,1.15,14.7-4.033-4.951-8.69-9.932-14.846-12.955a76.256,76.256,0,0,0-7.391-3.129l0-.007c-1.491-.349-2.718-1.722-3.39-3.923a13.885,13.885,0,0,1-.507-4.777c6.767,1.15,17.919,3.675,24.982,10.1"/></g></g><path d="M386.672,100.208a37.718,37.718,0,0,1,.646,17.139v0c-1.34,7.633-4.6,15.081-9.274,20.082-8.317,8.9-17.938,6.672-21.49-4.98a32.483,32.483,0,0,1-1.311-8.629,45.515,45.515,0,0,1,5.352-22.143q.752-1.38,1.6-2.653c.235-.353.477-.7.722-1.04h0c.35-.483.706-.95,1.076-1.4.385-.468.777-.922,1.184-1.356,8.317-8.9,17.94-6.676,21.494,4.979" fill="#27debf"/><g opacity="0.1"><g clip-path="url(#al)"><path d="M387.318,117.35c-1.34,7.635-4.6,15.082-9.274,20.082-8.317,8.9-17.938,6.672-21.49-4.98a32.43,32.43,0,0,1-1.311-8.629h0c1.143,1.3,4.253,2.7,4.892.861a29.24,29.24,0,0,0,1.173,7.649c1.022,3.35,2.592,5.824,4.542,7.162a6.256,6.256,0,0,0,5.612.772,14.576,14.576,0,0,0,6.078-4.166c3.973-4.253,6.879-10.605,8.3-17.229,0,0,.789.34,1.478-1.521"/></g></g><path d="M385.62,101.239c1.569,5.146,1.534,11.507.219,17.632-1.416,6.623-4.323,12.976-8.3,17.228a14.56,14.56,0,0,1-6.079,4.166,6.247,6.247,0,0,1-5.611-.771c-1.95-1.338-3.52-3.813-4.542-7.161a29.255,29.255,0,0,1-1.173-7.651c-.032-1.025-.019-2.068.038-3.119a42.32,42.32,0,0,1,.663-5.55q.105-.57.223-1.134c.13-.627.273-1.256.433-1.874a42.91,42.91,0,0,1,2.058-6.168c.008-.02.021-.045.029-.068a38.084,38.084,0,0,1,1.835-3.76q.722-1.287,1.527-2.461c.224-.329.453-.649.689-.963q.424-.562.868-1.1.434-.519.885-1a14.573,14.573,0,0,1,6.084-4.175c4.431-1.35,8.226,1.618,10.15,7.93" fill="#27debf"/><g opacity="0.3"><g clip-path="url(#am)"><path d="M385.62,101.239c1.569,5.146,1.534,11.507.219,17.632-1.416,6.623-4.323,12.976-8.3,17.228a14.56,14.56,0,0,1-6.079,4.166,6.247,6.247,0,0,1-5.611-.771c-1.95-1.338-3.52-3.813-4.542-7.161a29.255,29.255,0,0,1-1.173-7.651c-.032-1.025-.019-2.068.038-3.119a42.32,42.32,0,0,1,.663-5.55q.105-.57.223-1.134c.13-.627.273-1.256.433-1.874a42.91,42.91,0,0,1,2.058-6.168c.008-.02.021-.045.029-.068a38.084,38.084,0,0,1,1.835-3.76q.722-1.287,1.527-2.461c.224-.329.453-.649.689-.963q.424-.562.868-1.1.434-.519.885-1a14.573,14.573,0,0,1,6.084-4.175c4.431-1.35,8.226,1.618,10.15,7.93"/></g></g><path d="M370.962,108.839,368.2,122.765c-2.008-.128-5.387-.28-8.062-.157.007-.347.02-.693.04-1.044a42.308,42.308,0,0,1,.664-5.549q.105-.571.223-1.135c.129-.627.273-1.255.432-1.874a42.958,42.958,0,0,1,2.059-6.168c.007-.02.021-.045.028-.068.124-.288.247-.576.376-.858a43.551,43.551,0,0,0,7,2.927" fill="#27debf"/><g opacity="0.4"><g clip-path="url(#an)"><path d="M370.962,108.839,368.2,122.765c-2.008-.128-5.387-.28-8.062-.157.007-.347.02-.693.04-1.044a42.308,42.308,0,0,1,.664-5.549q.105-.571.223-1.135c.129-.627.273-1.255.432-1.874a42.958,42.958,0,0,1,2.059-6.168c.007-.02.021-.045.028-.068.124-.288.247-.576.376-.858a43.551,43.551,0,0,0,7,2.927" fill="#fff"/></g></g><path d="M368.726,122.571c-1.45.442-2.671-.465-3.271-2.426l-.017-.06a11.2,11.2,0,0,1,2.285-9.861l.043-.046a4.355,4.355,0,0,1,1.831-1.245c1.449-.442,2.671.466,3.269,2.427l.018.06a11.2,11.2,0,0,1-2.284,9.86l-.043.046a4.361,4.361,0,0,1-1.831,1.245" fill="#27debf"/><g opacity="0.7"><g clip-path="url(#ao)"><path d="M368.726,122.571c-1.45.442-2.671-.465-3.271-2.426l-.017-.06a11.2,11.2,0,0,1,2.285-9.861l.043-.046a4.355,4.355,0,0,1,1.831-1.245c1.449-.442,2.671.466,3.269,2.427l.018.06a11.2,11.2,0,0,1-2.284,9.86l-.043.046a4.361,4.361,0,0,1-1.831,1.245" fill="#fff"/></g></g><path d="M365.361,86.744a1.508,1.508,0,0,1-1.882-1L359.229,71.8a1.507,1.507,0,1,1,2.884-.879l4.25,13.943a1.506,1.506,0,0,1-1,1.881" fill="#e0e0e0"/><path d="M353.711,94.012a1.509,1.509,0,0,1-1.471-.34l-10.651-9.95a1.507,1.507,0,0,1,2.058-2.2l10.652,9.95a1.507,1.507,0,0,1-.588,2.543" fill="#e0e0e0"/><path d="M361,165.23a1.508,1.508,0,0,1-1.907-1.783l3.289-14.2a1.508,1.508,0,1,1,2.938.68l-3.29,14.2a1.509,1.509,0,0,1-1.03,1.1" fill="#e0e0e0"/><path d="M387.452,159.207a1.508,1.508,0,0,1-1.882-1l-4.25-13.943a1.508,1.508,0,1,1,2.884-.881l4.251,13.944a1.509,1.509,0,0,1-1,1.882" fill="#e0e0e0"/><path d="M403.14,140.177a1.507,1.507,0,0,1-1.47-.34l-10.653-9.949a1.508,1.508,0,1,1,2.058-2.2l10.653,9.95a1.507,1.507,0,0,1-.588,2.543" fill="#e0e0e0"/><path d="M413.141,121.4a1.487,1.487,0,0,1-.779.026l-14.2-3.29a1.508,1.508,0,0,1,.681-2.938l14.2,3.291a1.508,1.508,0,0,1,.1,2.911" fill="#e0e0e0"/><path d="M412.417,100.133l-13.943,4.25a1.507,1.507,0,1,1-.879-2.882l13.942-4.251a1.507,1.507,0,1,1,.88,2.883" fill="#e0e0e0"/><path d="M391.208,92.732a1.508,1.508,0,0,1-1.543-2.471l9.948-10.653a1.508,1.508,0,0,1,2.2,2.059l-9.949,10.652a1.489,1.489,0,0,1-.66.413" fill="#e0e0e0"/><path d="M379.085,86.276a1.483,1.483,0,0,1-.778.026,1.507,1.507,0,0,1-1.129-1.809l3.291-14.2a1.507,1.507,0,1,1,2.937.68l-3.291,14.2a1.505,1.505,0,0,1-1.03,1.1" fill="#e0e0e0"/><path d="M322.886,135.622c2.876-3.647,2.986-5.93,5.227-7.717s4.5-1.9,7.833-.947c2.516.723,5.465.362,6.485,1.3.288.194-.163,1.812-1.344,2.391-1.42.7-3.716.526-5.408.536-3.856.021-.694,3.8-4.406,7.638-1.578,2.751-8.387-3.2-8.387-3.2" fill="#ffa8a7"/><path d="M411.2,193.485l35.377-22.656,15.584,5Z" fill="#27debf"/><path d="M411.2,193.485l30.577-25.5-6.8-7.846Z" fill="#27debf"/><path d="M441.776,167.986V173.9L411.2,193.485Z" fill="#27debf"/><g opacity="0.25"><g clip-path="url(#ap)"><path d="M441.776,167.986V173.9L411.2,193.485Z"/></g></g><path d="M449.03,164.562a1,1,0,0,1-.654-1.757q.924-.8,1.813-1.649a1,1,0,0,1,1.381,1.448q-.924.88-1.885,1.714a1,1,0,0,1-.655.244" fill="#e0e0e0"/><path d="M454.293,159.318a1,1,0,0,1-.752-1.659c1.047-1.195,2.068-2.464,3.037-3.776a1,1,0,1,1,1.609,1.188c-1,1.356-2.059,2.671-3.142,3.906a1,1,0,0,1-.752.341m5.861-7.918a1,1,0,0,1-.846-1.531c.843-1.349,1.658-2.766,2.42-4.211a1,1,0,0,1,1.77.933c-.786,1.488-1.625,2.947-2.495,4.339a1,1,0,0,1-.849.47m4.605-8.714a1,1,0,0,1-.913-1.4c.648-1.468,1.259-2.987,1.816-4.514a1,1,0,1,1,1.879.685c-.571,1.569-1.2,3.129-1.867,4.637a1,1,0,0,1-.915.6m3.381-9.262a1,1,0,0,1-.96-1.282c.453-1.546.863-3.132,1.22-4.715a1,1,0,1,1,1.951.44c-.367,1.624-.788,3.251-1.251,4.837a1,1,0,0,1-.96.72m2.167-9.622a.86.86,0,0,1-.159-.013,1,1,0,0,1-.83-1.144c.254-1.594.461-3.219.617-4.833a1,1,0,1,1,1.99.191c-.158,1.655-.371,3.323-.632,4.956a1,1,0,0,1-.986.843m.935-9.819h-.032a1,1,0,0,1-.969-1.032c.025-.769.036-1.541.036-2.31q0-1.279-.043-2.557a1,1,0,0,1,.963-1.034.972.972,0,0,1,1.034.964q.048,1.313.046,2.627,0,1.187-.036,2.373a1,1,0,0,1-1,.969m-.349-9.855a1,1,0,0,1-.995-.9c-.166-1.618-.39-3.238-.668-4.817a1,1,0,1,1,1.971-.345c.284,1.625.516,3.293.688,4.957a1,1,0,0,1-.893,1.1c-.035,0-.069.006-.1.006m-1.708-9.715a1,1,0,0,1-.969-.754c-.4-1.575-.86-3.142-1.37-4.66a1,1,0,1,1,1.894-.638c.529,1.565,1,3.183,1.415,4.807a1,1,0,0,1-.97,1.245m-3.158-9.339a1,1,0,0,1-.918-.6c-.642-1.489-1.351-2.958-2.108-4.364a1,1,0,1,1,1.762-.947c.783,1.457,1.517,2.977,2.182,4.518a1,1,0,0,1-.521,1.315,1.016,1.016,0,0,1-.4.082M461.355,76.4a1,1,0,0,1-.836-.45c-.887-1.347-1.844-2.664-2.845-3.913a1,1,0,1,1,1.56-1.25c1.041,1.3,2.035,2.665,2.955,4.063a1,1,0,0,1-.834,1.55M455.2,68.7a1,1,0,0,1-.724-.31c-1.094-1.149-2.266-2.288-3.483-3.388a1,1,0,0,1,1.342-1.484c1.253,1.133,2.46,2.307,3.589,3.491A1,1,0,0,1,455.2,68.7m-7.308-6.621a1,1,0,0,1-.618-.215c-1.252-.987-2.571-1.96-3.92-2.9a1,1,0,1,1,1.139-1.644c1.383.957,2.734,1.956,4.019,2.968a1,1,0,0,1-.62,1.786m-8.105-5.623a1,1,0,0,1-.52-.146c-1.366-.834-2.79-1.652-4.233-2.431a1,1,0,0,1,.949-1.76c1.475.8,2.931,1.631,4.326,2.484a1,1,0,0,1-.522,1.853m-8.679-4.689a.981.981,0,0,1-.429-.1c-1.461-.695-2.962-1.366-4.461-1.992a1,1,0,0,1,.771-1.846c1.529.64,3.06,1.324,4.549,2.034a1,1,0,0,1-.43,1.9M330.134,49.285a1,1,0,0,1-.337-1.94c1.565-.561,3.147-1.1,4.7-1.6a1,1,0,0,1,.613,1.905c-1.534.493-3.1,1.023-4.64,1.576a1,1,0,0,1-.337.058m91.878-1.33a1,1,0,0,1-.344-.06c-1.5-.55-3.061-1.082-4.63-1.58a1,1,0,1,1,.606-1.906c1.6.506,3.181,1.048,4.711,1.607a1,1,0,0,1-.343,1.939m-82.486-1.691a1,1,0,0,1-.277-1.961c1.572-.451,3.186-.886,4.8-1.291a1,1,0,1,1,.488,1.939c-1.59.4-3.182.829-4.732,1.274a1.027,1.027,0,0,1-.276.039m73.081-1.293a.989.989,0,0,1-.262-.035c-1.541-.418-3.139-.817-4.749-1.183a1,1,0,0,1,.445-1.95c1.636.373,3.26.777,4.827,1.2a1,1,0,0,1-.261,1.965M349.1,43.858a1,1,0,0,1-.21-1.978c1.617-.349,3.255-.675,4.867-.968a1,1,0,0,1,.357,1.969c-1.591.288-3.207.61-4.8.954a.969.969,0,0,1-.212.023m53.891-1.075a.952.952,0,0,1-.183-.017c-1.575-.293-3.2-.562-4.83-.8a1,1,0,1,1,.289-1.978c1.656.242,3.307.516,4.906.812a1,1,0,0,1-.182,1.984M358.8,42.1a1,1,0,0,1-.144-1.989c1.642-.241,3.3-.453,4.924-.635a1,1,0,1,1,.221,1.988c-1.6.179-3.236.389-4.856.625a.885.885,0,0,1-.145.011m34.429-.74a.977.977,0,0,1-.108-.006c-1.593-.17-3.234-.314-4.878-.428a1,1,0,0,1-.928-1.067,1.016,1.016,0,0,1,1.067-.929c1.669.116,3.335.263,4.952.436a1,1,0,0,1-.105,1.994m-24.63-.349a1,1,0,0,1-.075-2c1.656-.125,3.323-.223,4.957-.289a.976.976,0,0,1,1.04.958,1,1,0,0,1-.958,1.04c-1.612.065-3.255.162-4.888.285l-.076,0m14.786-.331h-.032c-1.43-.045-2.869-.067-4.278-.067h-.623a1,1,0,0,1,0-2h.627c1.43,0,2.89.023,4.34.069a1,1,0,0,1-.03,2" fill="#e0e0e0"/><path d="M323.106,51.99a1,1,0,0,1-.38-1.925c.777-.32,1.557-.635,2.334-.941a1,1,0,0,1,.734,1.862q-1.154.453-2.307.929a1.006,1.006,0,0,1-.381.075" fill="#e0e0e0"/><path d="M100.444,143.16l45.985-22.54-33.164,31.536Z" fill="#27debf"/><path d="M146.429,120.62l-50.7,16.68-12.82-9Z" fill="#27debf"/><path d="M95.725,137.3l2,12.876,2.716-7.016,45.985-22.54Z" fill="#27debf"/><g opacity="0.25"><g clip-path="url(#aq)"><path d="M95.725,137.3l2,12.876,2.716-7.016,45.985-22.54Z"/></g></g><path d="M97.729,150.176l6.989-4.018-4.274-3Z" fill="#27debf"/><g opacity="0.25"><g clip-path="url(#ar)"><path d="M100.444,143.16l4.273,3-1.114.641Z"/></g></g><path d="M103.9,278.13a1,1,0,0,1-.337-.059c-1.622-.583-3.2-1.178-4.706-1.774a1,1,0,1,1,.736-1.859c1.481.586,3.044,1.175,4.645,1.751a1,1,0,0,1-.338,1.941m-9.287-3.688a.994.994,0,0,1-.4-.085c-1.557-.684-3.094-1.4-4.568-2.12a1,1,0,0,1,.878-1.8c1.452.711,2.963,1.414,4.5,2.087a1,1,0,0,1-.4,1.915m-8.966-4.4a.982.982,0,0,1-.479-.123c-1.488-.813-2.957-1.668-4.364-2.535a1,1,0,0,1,1.05-1.7c1.378.85,2.816,1.685,4.275,2.484a1,1,0,0,1-.482,1.877m-8.5-5.249a1,1,0,0,1-.57-.179c-1.4-.975-2.763-1.992-4.055-3.021a1,1,0,1,1,1.244-1.565c1.26,1,2.591,1.995,3.955,2.945a1,1,0,0,1-.574,1.82m-7.806-6.221a1,1,0,0,1-.675-.261c-1.254-1.148-2.47-2.343-3.612-3.554a1,1,0,0,1,1.455-1.373c1.108,1.176,2.288,2.336,3.508,3.45a1,1,0,0,1-.676,1.738m-6.84-7.263a.994.994,0,0,1-.78-.373c-1.057-1.313-2.074-2.686-3.021-4.081a1,1,0,0,1,1.656-1.123c.916,1.35,1.9,2.679,2.921,3.95a1,1,0,0,1-.776,1.627m-5.6-8.261a1,1,0,0,1-.872-.509c-.821-1.458-1.6-2.978-2.309-4.52a1,1,0,0,1,1.817-.836c.688,1.492,1.44,2.964,2.235,4.374a1,1,0,0,1-.871,1.491m-4.183-9.063a1,1,0,0,1-.938-.653c-.575-1.557-1.107-3.177-1.581-4.816a1,1,0,0,1,1.923-.555c.46,1.593.975,3.166,1.533,4.678a1,1,0,0,1-.937,1.346m-2.782-9.59a1,1,0,0,1-.977-.788c-.352-1.612-.664-3.285-.93-4.972a1,1,0,0,1,1.977-.311c.26,1.65.563,3.283.908,4.858a1,1,0,0,1-.765,1.19.985.985,0,0,1-.213.023m-1.562-9.873a1,1,0,0,1-.994-.9c-.17-1.614-.307-3.307-.408-5.029a1,1,0,0,1,.94-1.057,1.014,1.014,0,0,1,1.056.939c.1,1.693.234,3.354.4,4.938a.994.994,0,0,1-.994,1.1m-.519-9.98h-.019a1,1,0,0,1-.981-1.018c.029-1.683.129-3.389.3-5.072a1,1,0,0,1,1.992.2c-.165,1.627-.264,3.279-.291,4.907a1,1,0,0,1-1,.982m1-9.94a.96.96,0,0,1-.183-.017,1,1,0,0,1-.8-1.164c.3-1.655.679-3.322,1.115-4.955a1,1,0,0,1,1.933.515c-.424,1.582-.787,3.2-1.081,4.8a1,1,0,0,1-.981.82m2.576-9.654a1,1,0,0,1-.943-1.333c.561-1.587,1.194-3.174,1.882-4.718a1,1,0,1,1,1.826.815c-.666,1.495-1.278,3.033-1.822,4.569a1,1,0,0,1-.943.667m4.065-9.126a1,1,0,0,1-.878-1.477c.808-1.485,1.683-2.952,2.6-4.363a1,1,0,0,1,1.677,1.092c-.892,1.366-1.74,2.788-2.521,4.226a1,1,0,0,1-.88.522m5.455-8.37a1,1,0,0,1-.79-1.611c1.033-1.336,2.133-2.646,3.266-3.891a1,1,0,0,1,1.478,1.348c-1.1,1.205-2.162,2.473-3.162,3.765a1,1,0,0,1-.792.389m6.73-7.381A1,1,0,0,1,67,158.337c1.235-1.153,2.532-2.267,3.854-3.31A1,1,0,0,1,72.09,156.6c-1.277,1.009-2.532,2.088-3.731,3.2a1,1,0,0,1-.681.268m7.838-6.191a1,1,0,0,1-.556-1.833c1.4-.932,2.861-1.818,4.34-2.637a1,1,0,0,1,.97,1.75c-1.433.792-2.846,1.652-4.2,2.553a.989.989,0,0,1-.551.167m8.736-4.838a1,1,0,0,1-.413-1.911c1.531-.693,3.112-1.335,4.7-1.909a1,1,0,0,1,.679,1.881c-1.54.557-3.072,1.179-4.556,1.85a.99.99,0,0,1-.412.089" fill="#e0e0e0"/><path d="M335.025,415.38a1.007,1.007,0,0,0-.51-.892,3.329,3.329,0,0,0-2.206-.648,5.187,5.187,0,0,0-2.315.56l-4.026,2.134a7.209,7.209,0,0,0,.727-1.833,5.8,5.8,0,0,0,.16-1.5c-.019-.841,0-5.5,0-5.945a6.729,6.729,0,0,0-.6-2.757,10.528,10.528,0,0,0-3.578-4.046q-1.843-1.419-4.425-3.109t-4.708-2.87a57.284,57.284,0,0,0-11.838-4.721,49.4,49.4,0,0,0-13.673-1.712,63.731,63.731,0,0,0-15.555,2.216,81.51,81.51,0,0,0-17.414,7.013q-7.816,4.143-11.808,8.607a18.887,18.887,0,0,0-4.832,8.814,13.123,13.123,0,0,0-.243,2.658c.012.983-.006,5.191,0,6.035A12.959,12.959,0,0,0,239.6,429.2a21.623,21.623,0,0,0,6.2,7.31q.882.684,2.564,1.836t3.582,2.4q1.911,1.251,3.711,2.378T258.6,444.9a49.467,49.467,0,0,0,11.894,4.38,58.873,58.873,0,0,0,13.985,1.546A65.89,65.89,0,0,0,299.66,448.9a74.646,74.646,0,0,0,25.7-12.338,35.3,35.3,0,0,0,5.811-5.563,15.823,15.823,0,0,0,2.787-4.935,30.251,30.251,0,0,0,1.05-4.37,1.268,1.268,0,0,0,.015-.19c0-.362,0-6.062,0-6.12m-15,7.185a16.508,16.508,0,0,1-2.3,2.593,31.838,31.838,0,0,1-3.893,3.039,66.807,66.807,0,0,1-6.082,3.577,48.2,48.2,0,0,1-10.58,4.145,46.724,46.724,0,0,1-10.542,1.507,42.994,42.994,0,0,1-9.963-.882,36.7,36.7,0,0,1-8.921-3.076,31.418,31.418,0,0,1-2.918-1.644q-1.689-1.056-3.452-2.207t-3.322-2.229a22.056,22.056,0,0,1-2.358-1.81,15.756,15.756,0,0,1-4.326-5.6c-.1-.226-.183-.451-.262-.677a14.487,14.487,0,0,1,3.406-5.184,32.171,32.171,0,0,1,8.106-5.763,68.277,68.277,0,0,1,11.787-5,47.529,47.529,0,0,1,6.03-1.437l-1.031.546a1.853,1.853,0,0,0-1.108,1.3,1.289,1.289,0,0,0,.7,1.31l.674.442a21.99,21.99,0,0,0-5.326.028,19.3,19.3,0,0,0-6.413,2.291,13.7,13.7,0,0,0-4.853,3.9,6.506,6.506,0,0,0-1.333,3.849c0,.189,0,5.123,0,6.139,0,.186.01.374.028.562a9.122,9.122,0,0,0,2.04,4.636,21.228,21.228,0,0,0,5.263,4.617,31.964,31.964,0,0,0,15.074,5.135,29.345,29.345,0,0,0,7.732-.418A25.092,25.092,0,0,0,299,433.772a26.42,26.42,0,0,0,4.3-2.723,10.016,10.016,0,0,0,2.168-2.3,4.365,4.365,0,0,0,.718-1.976,17.413,17.413,0,0,0,.031-1.791,26.828,26.828,0,0,0,6.091-.433,27.321,27.321,0,0,0,8.045-2.979c.16-.085.305-.177.459-.265-.233.411-.49.83-.784,1.264m-35.687-5.9a17.449,17.449,0,0,1,7.388,2.868,16.49,16.49,0,0,1,2.23,1.715,10.42,10.42,0,0,1-1.172.724,11.572,11.572,0,0,1-6.871,1.248,16.933,16.933,0,0,1-7.4-2.82,15.591,15.591,0,0,1-2.283-1.78,9.179,9.179,0,0,1,1.059-.659,11.629,11.629,0,0,1,7.045-1.3m27.874-5.92a9.959,9.959,0,0,1-3.583.79,6.875,6.875,0,0,1-4.165-1.076L290.93,401.6a34.906,34.906,0,0,1,4.055.694,41.652,41.652,0,0,1,9.5,3.564,47.468,47.468,0,0,1,4.422,2.578c1.189.778,2.277,1.548,3.306,2.314" fill="#27debf"/><g opacity="0.2"><g clip-path="url(#as)"><path d="M335.025,415.38a1.007,1.007,0,0,0-.51-.892,3.329,3.329,0,0,0-2.206-.648,5.187,5.187,0,0,0-2.315.56l-4.026,2.134a7.209,7.209,0,0,0,.727-1.833,5.8,5.8,0,0,0,.16-1.5c-.019-.841,0-5.5,0-5.945a6.729,6.729,0,0,0-.6-2.757,10.528,10.528,0,0,0-3.578-4.046q-1.843-1.419-4.425-3.109t-4.708-2.87a57.284,57.284,0,0,0-11.838-4.721,49.4,49.4,0,0,0-13.673-1.712,63.731,63.731,0,0,0-15.555,2.216,81.51,81.51,0,0,0-17.414,7.013q-7.816,4.143-11.808,8.607a18.887,18.887,0,0,0-4.832,8.814,13.123,13.123,0,0,0-.243,2.658c.012.983-.006,5.191,0,6.035A12.959,12.959,0,0,0,239.6,429.2a21.623,21.623,0,0,0,6.2,7.31q.882.684,2.564,1.836t3.582,2.4q1.911,1.251,3.711,2.378T258.6,444.9a49.467,49.467,0,0,0,11.894,4.38,58.873,58.873,0,0,0,13.985,1.546A65.89,65.89,0,0,0,299.66,448.9a74.646,74.646,0,0,0,25.7-12.338,35.3,35.3,0,0,0,5.811-5.563,15.823,15.823,0,0,0,2.787-4.935,30.251,30.251,0,0,0,1.05-4.37,1.268,1.268,0,0,0,.015-.19c0-.362,0-6.062,0-6.12m-15,7.185a16.508,16.508,0,0,1-2.3,2.593,31.838,31.838,0,0,1-3.893,3.039,66.807,66.807,0,0,1-6.082,3.577,48.2,48.2,0,0,1-10.58,4.145,46.724,46.724,0,0,1-10.542,1.507,42.994,42.994,0,0,1-9.963-.882,36.7,36.7,0,0,1-8.921-3.076,31.418,31.418,0,0,1-2.918-1.644q-1.689-1.056-3.452-2.207t-3.322-2.229a22.056,22.056,0,0,1-2.358-1.81,15.756,15.756,0,0,1-4.326-5.6c-.1-.226-.183-.451-.262-.677a14.487,14.487,0,0,1,3.406-5.184,32.171,32.171,0,0,1,8.106-5.763,68.277,68.277,0,0,1,11.787-5,47.529,47.529,0,0,1,6.03-1.437l-1.031.546a1.853,1.853,0,0,0-1.108,1.3,1.289,1.289,0,0,0,.7,1.31l.674.442a21.99,21.99,0,0,0-5.326.028,19.3,19.3,0,0,0-6.413,2.291,13.7,13.7,0,0,0-4.853,3.9,6.506,6.506,0,0,0-1.333,3.849c0,.189,0,5.123,0,6.139,0,.186.01.374.028.562a9.122,9.122,0,0,0,2.04,4.636,21.228,21.228,0,0,0,5.263,4.617,31.964,31.964,0,0,0,15.074,5.135,29.345,29.345,0,0,0,7.732-.418A25.092,25.092,0,0,0,299,433.772a26.42,26.42,0,0,0,4.3-2.723,10.016,10.016,0,0,0,2.168-2.3,4.365,4.365,0,0,0,.718-1.976,17.413,17.413,0,0,0,.031-1.791,26.828,26.828,0,0,0,6.091-.433,27.321,27.321,0,0,0,8.045-2.979c.16-.085.305-.177.459-.265-.233.411-.49.83-.784,1.264m-35.687-5.9a17.449,17.449,0,0,1,7.388,2.868,16.49,16.49,0,0,1,2.23,1.715,10.42,10.42,0,0,1-1.172.724,11.572,11.572,0,0,1-6.871,1.248,16.933,16.933,0,0,1-7.4-2.82,15.591,15.591,0,0,1-2.283-1.78,9.179,9.179,0,0,1,1.059-.659,11.629,11.629,0,0,1,7.045-1.3m27.874-5.92a9.959,9.959,0,0,1-3.583.79,6.875,6.875,0,0,1-4.165-1.076L290.93,401.6a34.906,34.906,0,0,1,4.055.694,41.652,41.652,0,0,1,9.5,3.564,47.468,47.468,0,0,1,4.422,2.578c1.189.778,2.277,1.548,3.306,2.314"/></g></g><g opacity="0.1"><g clip-path="url(#at)"><path d="M251.111,419.3a14.492,14.492,0,0,1,3.405-5.184,32.2,32.2,0,0,1,8.107-5.763,68.211,68.211,0,0,1,11.787-5,47.862,47.862,0,0,1,6.029-1.437l3.643-1.931a4.781,4.781,0,0,1,2.308-.512,3.916,3.916,0,0,1,2.136.551l2.4,1.575a34.8,34.8,0,0,1,4.053.694,41.632,41.632,0,0,1,9.5,3.564,47.468,47.468,0,0,1,4.422,2.578c1.189.778,2.277,1.547,3.306,2.314.2-.085.393-.164.58-.263a3.636,3.636,0,0,0,2.089-2.3q.291-1.352-1.922-3.016-1.844-1.418-4.053-2.864a47.468,47.468,0,0,0-4.422-2.578,41.632,41.632,0,0,0-9.5-3.564,35.289,35.289,0,0,0-9.919-.906,43.5,43.5,0,0,0-10.654,1.966,68.176,68.176,0,0,0-11.787,5.005,32.145,32.145,0,0,0-8.107,5.761A13.636,13.636,0,0,0,250.858,414a9.155,9.155,0,0,0,.515,5.979,13.327,13.327,0,0,0,1.718,2.881,13.327,13.327,0,0,1-1.718-2.881c-.1-.225-.183-.452-.262-.677"/></g></g><g opacity="0.1"><g clip-path="url(#au)"><path d="M291.728,413.4a17.475,17.475,0,0,0-7.388-2.868,11.643,11.643,0,0,0-7.045,1.3q-3.152,1.67-2.793,3.918a5.293,5.293,0,0,0,1.743,2.882l-.009-.008a9.465,9.465,0,0,1,1.059-.659,11.631,11.631,0,0,1,7.044-1.295,17.471,17.471,0,0,1,7.389,2.867,16.554,16.554,0,0,1,2.229,1.716c-.167.119-.344.238-.531.355,1.761-1.079,2.556-2.269,2.365-3.573-.218-1.453-1.566-3-4.063-4.632"/></g></g><g opacity="0.1"><g clip-path="url(#av)"><path d="M284.16,430.535a31.964,31.964,0,0,1-15.074-5.135,21.229,21.229,0,0,1-5.263-4.616,9.129,9.129,0,0,1-2.04-4.637,5.853,5.853,0,0,1,0-.888c-.005.107-.026.214-.026.321,0,.189,0,5.123,0,6.139,0,.186.009.374.027.562a9.133,9.133,0,0,0,2.041,4.636,21.21,21.21,0,0,0,5.263,4.617,31.964,31.964,0,0,0,15.074,5.135Z"/></g></g><g opacity="0.1"><g clip-path="url(#aw)"><path d="M306.216,418.844a17.674,17.674,0,0,1-.031,1.79l.031,4.344a26.831,26.831,0,0,0,6.091-.433v-6.134a26.831,26.831,0,0,1-6.091.433"/></g></g><g opacity="0.1"><g clip-path="url(#ax)"><path d="M270.493,443.144a49.511,49.511,0,0,1-11.894-4.382q-1.135-.639-2.942-1.767t-3.711-2.378q-1.908-1.25-3.582-2.4t-2.564-1.835a21.622,21.622,0,0,1-6.2-7.31,12.954,12.954,0,0,1-1.409-5.863c0,.047-.006.094-.005.141.012.983-.006,5.191,0,6.035A12.959,12.959,0,0,0,239.6,429.2a21.612,21.612,0,0,0,6.2,7.31q.882.684,2.564,1.837t3.582,2.4q1.909,1.251,3.71,2.378T258.6,444.9a49.491,49.491,0,0,0,11.9,4.38,58.867,58.867,0,0,0,13.985,1.546V444.69a58.969,58.969,0,0,1-13.985-1.546"/></g></g><path d="M322.679,400.453a10.528,10.528,0,0,1,3.578,4.046,6.306,6.306,0,0,1,.438,4.068,8.288,8.288,0,0,1-2.148,3.755,16.033,16.033,0,0,1-4.2,3.11,27.33,27.33,0,0,1-8.045,2.979,26.77,26.77,0,0,1-6.091.433,17.679,17.679,0,0,1-.031,1.79,4.365,4.365,0,0,1-.718,1.977,10.016,10.016,0,0,1-2.168,2.3,26.462,26.462,0,0,1-4.3,2.723,25.087,25.087,0,0,1-7.107,2.479,29.337,29.337,0,0,1-7.731.418,31.964,31.964,0,0,1-15.074-5.135,21.229,21.229,0,0,1-5.263-4.616,9.125,9.125,0,0,1-2.04-4.637,6.36,6.36,0,0,1,1.3-4.417,13.722,13.722,0,0,1,4.852-3.9,19.314,19.314,0,0,1,6.413-2.291,21.948,21.948,0,0,1,5.327-.028l-.674-.441a1.291,1.291,0,0,1-.7-1.311,1.851,1.851,0,0,1,1.108-1.3l4.672-2.477a4.791,4.791,0,0,1,2.309-.512,3.916,3.916,0,0,1,2.136.551l15.94,10.439a6.875,6.875,0,0,0,4.165,1.076,9.649,9.649,0,0,0,4.163-1.053,3.641,3.641,0,0,0,2.09-2.3q.289-1.352-1.923-3.016-1.844-1.419-4.053-2.865a47.68,47.68,0,0,0-4.422-2.577,41.642,41.642,0,0,0-9.5-3.564,35.3,35.3,0,0,0-9.919-.906,43.544,43.544,0,0,0-10.655,1.966,68.207,68.207,0,0,0-11.787,5.005,32.145,32.145,0,0,0-8.107,5.761A13.644,13.644,0,0,0,250.857,414a9.149,9.149,0,0,0,.516,5.979,15.744,15.744,0,0,0,4.326,5.6,22.056,22.056,0,0,0,2.358,1.81q1.566,1.077,3.322,2.229t3.452,2.207a31.186,31.186,0,0,0,2.917,1.644,36.717,36.717,0,0,0,8.922,3.076,42.99,42.99,0,0,0,9.963.882,46.721,46.721,0,0,0,10.542-1.506,48.3,48.3,0,0,0,10.58-4.145,67.2,67.2,0,0,0,6.083-3.578,32,32,0,0,0,3.892-3.039,15.163,15.163,0,0,0,3.594-4.832,9.114,9.114,0,0,1,.711-1.4,3.585,3.585,0,0,1,1.312-1.006l6.647-3.524a5.2,5.2,0,0,1,2.315-.56,3.329,3.329,0,0,1,2.206.648,1.009,1.009,0,0,1,.495,1.067,30.113,30.113,0,0,1-1.051,4.371,15.8,15.8,0,0,1-2.786,4.935,35.342,35.342,0,0,1-5.811,5.563,74.644,74.644,0,0,1-25.7,12.338,65.943,65.943,0,0,1-15.182,1.927,58.871,58.871,0,0,1-13.985-1.546,49.468,49.468,0,0,1-11.894-4.381q-1.135-.637-2.942-1.767t-3.711-2.378q-1.908-1.25-3.583-2.4t-2.564-1.835a21.6,21.6,0,0,1-6.2-7.31,12.844,12.844,0,0,1-1.173-8.381,18.893,18.893,0,0,1,4.833-8.812q3.985-4.464,11.808-8.608a81.49,81.49,0,0,1,17.414-7.013,63.78,63.78,0,0,1,15.555-2.216,49.388,49.388,0,0,1,13.672,1.712,57.214,57.214,0,0,1,11.839,4.721q2.126,1.179,4.708,2.87t4.425,3.109M278.519,420.4a16.908,16.908,0,0,0,7.4,2.82,11.564,11.564,0,0,0,6.871-1.248q3.321-1.759,3-3.942c-.218-1.452-1.566-3-4.063-4.632a17.446,17.446,0,0,0-7.388-2.867,11.635,11.635,0,0,0-7.045,1.3q-3.152,1.668-2.793,3.918t4.017,4.655" fill="#27debf"/><path d="M324.076,373.206v.735a4.076,4.076,0,0,0,1.845,3.2l39.578,22.85a4.072,4.072,0,0,0,3.689,0l65.539-37.838a4.079,4.079,0,0,0,1.844-3.2v-.735a4.076,4.076,0,0,0-1.844-3.195l-39.579-22.851a4.072,4.072,0,0,0-3.689,0l-65.538,37.839a4.071,4.071,0,0,0-1.845,3.2" fill="#27debf"/><path d="M324.076,373.206v.735a4.076,4.076,0,0,0,1.845,3.2l39.578,22.85a4.072,4.072,0,0,0,3.689,0l65.539-37.838a4.079,4.079,0,0,0,1.844-3.2v-.735a4.076,4.076,0,0,0-1.844-3.195l-39.579-22.851a4.072,4.072,0,0,0-3.689,0l-65.538,37.839a4.071,4.071,0,0,0-1.845,3.2" fill="#27debf"/><g opacity="0.2"><g clip-path="url(#ay)"><path d="M367.344,346.1l-41.423,23.916a4.073,4.073,0,0,0-1.845,3.2v.735a4.075,4.075,0,0,0,1.845,3.2l39.577,22.85a3.776,3.776,0,0,0,1.845.441h0Z"/></g></g><g opacity="0.15"><g clip-path="url(#ay)"><path d="M367.344,346.1l-41.423,23.916a4.073,4.073,0,0,0-1.845,3.2v.735a4.075,4.075,0,0,0,1.845,3.2l39.577,22.85a3.776,3.776,0,0,0,1.845.441h0Z"/></g></g><g opacity="0.2"><g clip-path="url(#ba)"><path d="M434.727,355.023l-39.579-22.851a4.078,4.078,0,0,0-3.689,0L367.344,346.1v54.333h0a3.749,3.749,0,0,0,1.845-.441l65.539-37.838a4.079,4.079,0,0,0,1.844-3.2v-.735a4.076,4.076,0,0,0-1.844-3.195"/></g></g><path d="M359.161,391.332l-33.24-19.19a1.125,1.125,0,0,1,0-2.131l65.538-37.839a4.078,4.078,0,0,1,3.689,0l39.579,22.85a1.125,1.125,0,0,1,0,2.13l-10.873,6.278-3.806,2.2-50.86,29.363a4.08,4.08,0,0,1-3.69,0l-3.224-1.861Z" fill="#27debf"/><g opacity="0.15"><g clip-path="url(#bb)"><path d="M389.337,359.45l45.39-4.427-44.99,2.546,5.411-25.4a3.844,3.844,0,0,0-2.009-.423l-8.489,34.33-59.478,4.906a1.235,1.235,0,0,0,.749,1.157l48.034-2.788-6.611,26.079,8.454-26.187,8.2-.475a4.451,4.451,0,0,0,2.707-1.132h0l0-.008a4.427,4.427,0,0,0,1.385-2.38Z"/></g></g><g opacity="0.3"><g clip-path="url(#bc)"><path d="M339.363,369.815l45.287-3.735,1.621-6.49.895-3.612,5.978-24.229a3.685,3.685,0,0,0-1.685.423l-32.77,18.919-32.768,18.92a1.331,1.331,0,0,0-.749.974l9.084-.749Z" fill="#fff"/></g></g></g></g></svg>