<svg xmlns="http://www.w3.org/2000/svg" width="467.08" height="411.956" viewBox="0 0 467.08 411.956"><g transform="translate(-16.941 -62.108)"><ellipse cx="231.528" cy="130.128" rx="231.528" ry="130.128" transform="translate(18.472 213.807)" fill="#f5f5f5"/><ellipse cx="47.356" cy="27.341" rx="47.356" ry="27.341" transform="translate(32.558 307.88)" fill="#e0e0e0"/><path d="M454.611,315.888c18.493,10.677,18.493,27.989,0,38.666s-48.477,10.677-66.97,0-18.494-27.989,0-38.666S436.117,305.21,454.611,315.888Z" fill="#e0e0e0"/><path d="M352.451,299.717c56.4,32.562,56.4,85.356,0,117.918s-147.841,32.562-204.24,0-56.4-85.356,0-117.918S296.053,267.155,352.451,299.717Z" fill="#e0e0e0"/><path d="M58.157,303.587c.883-7.24-2.524-22.875-8.89-33.192s-17.341-18.631-26.082-16.784c-8.141,1.72-8.544,12.075.109,20.026s21.865,18.223,24.6,30.475l6.991,15.476Z" fill="#27debf"/><g opacity="0.15"><path d="M58.157,303.587c.883-7.24-2.524-22.875-8.89-33.192s-17.341-18.631-26.082-16.784c-8.141,1.72-8.544,12.075.109,20.026s21.865,18.223,24.6,30.475l6.991,15.476Z"/></g><path d="M57.483,313.559a.532.532,0,0,1-.424-.483c-1.834-25.306-19.377-47.832-30.8-53.731a.534.534,0,0,1-.229-.718.528.528,0,0,1,.718-.229c11.643,6.01,29.515,28.912,31.376,54.6a.532.532,0,0,1-.492.57A.506.506,0,0,1,57.483,313.559Z" fill="#fff"/><path d="M51.868,328.929c-.667-4.211-4.818-11.533-12.182-18.061-8.145-7.222-19.057-11.417-21.069-16.51-2.417-6.118,3.081-10.95,12.078-8.7s23.541,16.672,23.82,35.753Z" fill="#27debf"/><path d="M54.157,324.874a.532.532,0,0,1-.413-.4c-5-22.1-20.245-31.5-27.608-33.383a.532.532,0,0,1-.384-.647.524.524,0,0,1,.648-.385c8.142,2.083,23.283,11.626,28.384,34.18a.533.533,0,0,1-.627.64Z" fill="#fff"/><path d="M442.359,304.786s-.853-13.116,3.744-24.242,12.259-18.935,20.339-21.059,16.058,4.224,8.221,10.982-22.467,14.85-26.148,35.51Z" fill="#27debf"/><g opacity="0.15"><path d="M442.359,304.786s-.853-13.116,3.744-24.242,12.259-18.935,20.339-21.059,16.058,4.224,8.221,10.982-22.467,14.85-26.148,35.51Z"/></g><path d="M444.161,301.016a.41.41,0,0,1-.091-.01.444.444,0,0,1-.343-.527c4.812-22.86,19.677-34.721,26.865-37.8a.444.444,0,1,1,.35.817c-7.041,3.015-21.608,14.663-26.345,37.164A.445.445,0,0,1,444.161,301.016Z" fill="#fff"/><path d="M483.93,289.758c-.4,1.709-1.96,2.857-3.439,3.808s-3.08,1.973-3.66,3.628c-1.167,3.341,2.5,7.025,1.191,10.311a5.487,5.487,0,0,1-3.272,2.836,36.535,36.535,0,0,1-3.554,1.014,14.961,14.961,0,0,1-1.744.194,7.953,7.953,0,0,0-4.877,1.481c-2.134,1.8-2.292,4.96-3.3,7.566a11.551,11.551,0,0,1-7.089,6.59c-2.644.877-6.825,1.045-7.753-.021-.707-.81.356-3.863.188-4.925a44,44,0,0,1-.514-8.244,15.428,15.428,0,0,0-.182-3.756q-.412-2.076-.794-4.156c-.277-1.5-.854-2.612-.6-4.225a15.672,15.672,0,0,1,1.592-4.383q1.012-2.066,2.062-4.113a21.867,21.867,0,0,1,2.874-4.586,11.561,11.561,0,0,1,8.3-3.865c2.6-.06,5.339.886,7.916.271,2.505-.6,4.853-1.749,7.468-2.062a9.17,9.17,0,0,1,7.691,2.313A4.858,4.858,0,0,1,483.93,289.758Z" fill="#27debf"/><path d="M447.377,320.016h-.032a.4.4,0,0,1-.366-.422c1.781-24.765,25.959-32.913,31.848-33.6a.4.4,0,0,1,.439.346.4.4,0,0,1-.347.438c-5.76.676-29.41,8.646-31.152,32.876A.394.394,0,0,1,447.377,320.016Z" fill="#fff"/><path d="M472.683,302.807a.4.4,0,0,1-.226-.07,21.007,21.007,0,0,0-17.806-1.532.4.4,0,0,1-.26-.747,21.817,21.817,0,0,1,18.513,1.628.4.4,0,0,1,.1.549A.4.4,0,0,1,472.683,302.807Z" fill="#fff"/><path d="M250.127,275.244l-89.749-51.817c38-21.658,97.648-28.139,146.851-13.6,60.786,17.959,90.187,63.868,60.884,99.632Z" fill="#27debf"/><path d="M250.127,275.244v71.483L368.113,380.94V309.457Z" fill="#27debf"/><path d="M250.127,275.244v71.483L368.113,380.94V309.457Z" opacity="0.15"/><path d="M160.378,223.427V294.91l89.749,51.817V275.244Z" fill="#27debf"/><path d="M160.378,223.427V294.91l89.749,51.817V275.244Z" opacity="0.2"/><path d="M368.113,380.94c7.8-9.521,11.442-19.761,11.437-30V279.456c.005,10.24-3.636,20.479-11.437,30Z" fill="#27debf"/><path d="M368.113,380.94c7.8-9.521,11.442-19.761,11.437-30V279.456c.005,10.24-3.636,20.479-11.437,30Z" opacity="0.3"/><path d="M342.285,341.537a176.952,176.952,0,0,1-29.738,13.523L261.11,296.733l100.948,29.662A91.175,91.175,0,0,1,342.285,341.537Z" fill="#455a64"/><path d="M261.11,296.733v61.632l51.436,58.326V355.06Z" fill="#263238"/><path d="M312.547,416.691a176.952,176.952,0,0,0,29.738-13.523,91.173,91.173,0,0,0,19.773-15.141V326.395a91.175,91.175,0,0,1-19.773,15.142,176.952,176.952,0,0,1-29.738,13.523Z" fill="#37474f"/><path d="M182.019,375.087c-9.716-3.186-17.664-7.861-25.971-12.579-42.241-23.988-49-73.188-4.641-101.566l86.941,49.945Z" fill="#27debf"/><path d="M182.019,375.087c-9.716-3.186-17.664-7.861-25.971-12.579-42.241-23.988-49-73.188-4.641-101.566l86.941,49.945Z" opacity="0.3"/><path d="M238.348,310.887l-56.329,64.2V414.72l56.329-64.2Z" fill="#27debf"/><path d="M238.348,310.887l-56.329,64.2V414.72l56.329-64.2Z" opacity="0.5"/><path d="M182.019,414.72c-9.716-3.186-17.664-7.862-25.971-12.579-22.5-12.778-34.933-32.708-34.936-52.835V309.457c0,20.126,12.436,40.057,34.936,52.834,8.307,4.718,16.255,9.393,25.971,12.579Z" fill="#27debf"/><path d="M182.019,414.72c-9.716-3.186-17.664-7.862-25.971-12.579-22.5-12.778-34.933-32.708-34.936-52.835V309.457c0,20.126,12.436,40.057,34.936,52.834,8.307,4.718,16.255,9.393,25.971,12.579Z" opacity="0.4"/><path d="M300.94,392.721c-33.456,9.3-74.334,7.557-107.947-1.717l53.274-60.28Z" fill="#27debf"/><path d="M300.94,392.721c-33.456,9.3-74.334,7.557-107.947-1.717l53.274-60.28Z" fill="#fff" opacity="0.7"/><path d="M192.993,418.325c33.613,9.274,74.491,11.021,107.947,1.717V392.721c-33.456,9.3-74.334,7.557-107.947-1.717Z" fill="#27debf"/><path d="M192.993,418.325c33.613,9.274,74.491,11.021,107.947,1.717V392.721c-33.456,9.3-74.334,7.557-107.947-1.717Z" fill="#fff" opacity="0.5"/><path d="M177.738,317.894a4.839,4.839,0,1,1-4.839-4.839A4.839,4.839,0,0,1,177.738,317.894Z" fill="#263238"/><path d="M172.9,317.894,120,284.37H105.776" fill="none" stroke="#263238" stroke-linecap="round" stroke-linejoin="round" stroke-width="1.191"/><path d="M304.668,322.831a4.839,4.839,0,1,0,4.839-4.839A4.84,4.84,0,0,0,304.668,322.831Z" fill="#263238"/><path d="M309.507,322.831l58.066-33.524H390.29" fill="none" stroke="#263238" stroke-linecap="round" stroke-linejoin="round" stroke-width="1.191"/><path d="M345.656,152.549q.714.736,1.456,1.442c.662.631,2.009,1.638,2.674,2.264.2.194.992.7,1.062.93a14.552,14.552,0,0,1-.778-3.37,2.079,2.079,0,0,1,1.62-2.317c.451-.048.481,1.078,1.419,2.648,1.2,2.007,2.752,3.058,3.473,5.481a4.446,4.446,0,0,0,2.32,2.467l18.654,9.265s13.647-5.058,20.713-7.829c8.215-3.222,17.613-6.281,19.192-4.6L401.77,173.1s-11.943,6.472-21.241,10.18c-3.129,1.247-4.865.8-7.4-.9a172.035,172.035,0,0,1-15.9-10.505,104.24,104.24,0,0,0-10.154-6.565c-2.71-1.516-5.867-3.555-7.139-6.536a6.3,6.3,0,0,1-.056-5.165,6.483,6.483,0,0,0,.9-2.041,10.639,10.639,0,0,0-.06-1.3,1.365,1.365,0,0,1,.458-1.162,1.178,1.178,0,0,1,1.231.013,3.632,3.632,0,0,1,.943.884Q344.461,151.317,345.656,152.549Z" fill="#ffbda7"/><path d="M417.167,158.175c-7.04-1.041-10.576,1.126-15.4,3.123-5.738,2.376-24.216,9.545-24.216,9.545l-11.924-5.621s-2.735,6.191-5.69,8.706c0,0,10.711,7.59,13.691,9.441s3.146,1.753,7.83.217,25.824-6.927,25.824-6.927Z" fill="#37474f"/><path d="M365.63,165.222l-6.288-2.912s-2.688,5.328-5,7.609l5.6,4.009a14.886,14.886,0,0,0,3.515-4.2A18.643,18.643,0,0,0,365.63,165.222Z" fill="#263238"/><path d="M448.559,329.387c-2.433,1.4-5.171,1.374-8.148.242l-1.976-15.984,9.685.985Z" fill="#ffbda7"/><path d="M418.7,320.685c-1.954,4.577-5.759,3.439-10.093.674l.267-16.129,10.242-.305Z" fill="#ffbda7"/><path d="M430.96,345.093a3.727,3.727,0,0,0,.184,2.472c.336.5,2.231,2.017,5.58,2.157,3.2.133,6.038-.382,7.877-1.628a5.52,5.52,0,0,0,2.83-4.41c.122-1.824-.133-3.573.692-5,.763-1.316,2-2.811,2.252-3.52a7.084,7.084,0,0,0-.089-3.705Z" fill="#263238"/><path d="M439.248,328.956a8.571,8.571,0,0,1-.33,2.034,18.476,18.476,0,0,1-1.836,4.059,16.667,16.667,0,0,1-1.275,1.918c-.932,1.178-2.1,2.157-3.093,3.29a6.534,6.534,0,0,0-1.855,3.978c-.061,2.508,2.682,3.278,4.786,3.588a15.364,15.364,0,0,0,6.79-.543,6.246,6.246,0,0,0,4.431-5.127c.1-.7.031-1.408.093-2.111a9.834,9.834,0,0,1,1.817-4.438,13.244,13.244,0,0,0,1.423-2.43c.607-1.569.031-3.3-.431-4.829-.4-1.323-.854-2.82-1.32-2.68a1.7,1.7,0,0,1-.087.8,3.6,3.6,0,0,0-.345.8,6.165,6.165,0,0,1-.35,1.042,2.722,2.722,0,0,1-1.074,1.26q-.09-1.416-.179-2.834a1.308,1.308,0,0,0-.243-.825,1.323,1.323,0,0,0-.81-.325,17.848,17.848,0,0,0-5.371-.284.993.993,0,0,0-.71.337,1.034,1.034,0,0,0-.1.643A24.54,24.54,0,0,1,439.248,328.956Z" fill="#455a64"/><path d="M436.76,335.584c.912-.726,3-.8,4.147-.709a6.938,6.938,0,0,1,3.282,1.043.742.742,0,0,0,.954-.1h0a.7.7,0,0,0-.1-1.062,7.05,7.05,0,0,0-3.694-1.245c-2.818-.115-3.628.391-3.628.391S436.46,334.762,436.76,335.584Z" fill="#f5f5f5"/><path d="M434.692,338.214c1.152-.728,3.453-.7,4.6-.608a6.507,6.507,0,0,1,3.194,1.107.743.743,0,0,0,.955-.1h0a.7.7,0,0,0-.1-1.062,7.321,7.321,0,0,0-3.777-1.351c-2.817-.114-3.533.482-3.533.482A2.325,2.325,0,0,0,434.692,338.214Z" fill="#f5f5f5"/><path d="M442.385,330.782a6.982,6.982,0,0,0-3.526.4c-.487.292-.79,1.085-.465,1.274a6.487,6.487,0,0,1,3.121-.524,9.31,9.31,0,0,1,3.065.745c.243.1.532.241.785.371a.667.667,0,0,0,.917-.315h0a.624.624,0,0,0-.267-.8A9.033,9.033,0,0,0,442.385,330.782Z" fill="#f5f5f5"/><path d="M392.12,331.79a3.03,3.03,0,0,0,.191,2.225c.332.643,3.795,2.462,8.38,2.016a19.143,19.143,0,0,0,9.4-3.6c1.718-1.212,3.535-1.483,5.806-1.681s5.226-1.421,5.694-2.5a5.055,5.055,0,0,0-.161-2.895Z" fill="#263238"/><path d="M410.165,317.11l-1.205-.4a1,1,0,0,0-.682-.058c-.29.12-.394.47-.463.776a11.368,11.368,0,0,1-.443,2.011,4.994,4.994,0,0,1-1.249,1.393,21.169,21.169,0,0,1-3.606,2.48c-1.478.851-2.929,1.521-4.458,2.264-1.561.758-3.646,1.255-4.858,2.125a3.316,3.316,0,0,0,.181,5.475c1.8.987,6.5,1.975,11.349.445,2.642-.834,5.514-3.769,9-4.147,2.219-.24,6.406-.99,7.787-2.721.506-.765-.271-3.118-.912-5.15-.7-2.218-1.044-5.71-1.78-5.491-.03.745-.66,1.2-1.033,1.831a12.973,12.973,0,0,0-.745,1.8,3.25,3.25,0,0,1-1.116,1.565,1.483,1.483,0,0,1-1.8-.049c-.676-.656-.323-1.856-.824-2.653a2.82,2.82,0,0,0-1.6-.981Z" fill="#455a64"/><path d="M404.558,322.039a2.065,2.065,0,0,1,1.609-1.149,5.982,5.982,0,0,1,3.954,1.357.83.83,0,0,1-.08,1.374h0a.83.83,0,0,1-.95-.077A6.345,6.345,0,0,0,404.558,322.039Z" fill="#f5f5f5"/><path d="M401.474,323.888a2.373,2.373,0,0,1,1.916-1.06,7.4,7.4,0,0,1,4.325,1.473.811.811,0,0,1-.072,1.328h0a.792.792,0,0,1-.916-.079A6.364,6.364,0,0,0,401.474,323.888Z" fill="#f5f5f5"/><path d="M398.059,325.574a2.658,2.658,0,0,1,1.993-.966A7.115,7.115,0,0,1,404.2,326.1a.813.813,0,0,1-.072,1.33h0a.792.792,0,0,1-.916-.08A6.077,6.077,0,0,0,398.059,325.574Z" fill="#f5f5f5"/><path d="M444.792,212.435c1.1,17.523,2.88,56.179,2.88,56.179.25,2.177,1.054,7.409,1.451,15.263.576,11.391-.326,36.534-.326,36.534a12.31,12.31,0,0,1-9.724.77s-6.479-35.858-8.551-47.044c-1.822-9.827-5.373-28.339-5.373-28.339l-1.66,23.948a78.606,78.606,0,0,1-.385,14.47c-.651,5.194-3.781,27.751-3.781,27.751a20.642,20.642,0,0,1-11,.086s-1-36.81-1.237-41.6c-.268-5.456-1.408-61.542-1.408-61.542Z" fill="#37474f"/><path d="M425.149,245.8,422.128,231.5s-7.21-.414-11.3-4.305c0,0,.824,3.909,9.934,6l3.025,14.465.3,13.45Z" fill="#263238"/><path d="M441.485,160.291c3.445.611,3.671,2.318,4.425,5.733a27.965,27.965,0,0,1,.878,8.4l-2.563,20.194.879,23.257c-5.541,6.03-27.706,7.964-39.809-.875,0,0,.131-38.207.689-44.339.976-10.713,5.834-14.521,12.961-14.5l12.2,1.038Z" fill="#27debf"/><path d="M428.6,133.211a10.825,10.825,0,1,1-10.787-10.861A10.825,10.825,0,0,1,428.6,133.211Z" fill="#263238"/><path d="M431.988,135.326l2.312-6.2a4.057,4.057,0,0,1,3.357,1.193c1.439,1.481.617,6.1-1.2,10.62,0,0-1.781,8.234-2.49,9.586a3.732,3.732,0,0,1-2.163,1.731Z" fill="#263238"/><path d="M432.164,141.3c.661.4,1.611-.872,2.431-1.724s3.491-2.011,4.811.8c1.347,2.862-1.2,6.628-3.3,7.28-3.622,1.123-4.157-1.2-4.157-1.2l-.321,13.052a11.65,11.65,0,0,1-8.809,6.637c-6.419.847-5.08-4.438-2.964-7.023l.025-3.972a22.817,22.817,0,0,1-4.879.233c-2.66-.42-4.327-2.526-5.125-5.409-1.28-4.631-1.76-8.368-.628-17.464,1.24-9.969,12.841-10.033,19.091-6.069S432.164,141.3,432.164,141.3Z" fill="#ffbda7"/><path d="M432.1,142.178c1.047-.3,1.808-1.976,2.5-2.6,1.146-1.036-.3-10.456-.3-10.456a4.46,4.46,0,0,0-1.086-4.767c-1.56-1.728-4.175-1.928-8.64-2.646-2.2-.354-4.8-.527-6.983-.933A22.047,22.047,0,0,1,411.1,118.7a2,2,0,0,0-1.24-.322,1.171,1.171,0,0,0-.78.654,2.213,2.213,0,0,0-.181,1.028,3.994,3.994,0,0,0,.188,1.09c.066.209.5.844.406,1.027-.226.453-1.943-.311-2.287-.413a.361.361,0,0,0-.252-.013.324.324,0,0,0-.138.16,4.172,4.172,0,0,0,.2,3.619,12.251,12.251,0,0,0,6.147,5.229,16.9,16.9,0,0,0,8.377,1.167,16.088,16.088,0,0,0,3.571-.831,9.679,9.679,0,0,0,.788,1.227,5.467,5.467,0,0,0,1.155,1.012,4.809,4.809,0,0,0,1.391.647c.51.133.995.068,1.281.619a2.668,2.668,0,0,1,.207,1.152l.1,3.46a5.619,5.619,0,0,0,.235,1.735,1.9,1.9,0,0,0,1.167,1.227A1.167,1.167,0,0,0,432.1,142.178Z" fill="#263238"/><path d="M419.881,155.149s5.944-1.176,8.024-2.273a6.84,6.84,0,0,0,2.881-2.831,9.355,9.355,0,0,1-1.642,3.345c-1.526,1.936-9.269,3.34-9.269,3.34Z" fill="#f0997a"/><path d="M420.759,139.5a1.191,1.191,0,1,0,1.2-1.236A1.211,1.211,0,0,0,420.759,139.5Z" fill="#263238"/><path d="M422.182,135.836l2.636,1.71a1.649,1.649,0,0,0-.484-2.231A1.533,1.533,0,0,0,422.182,135.836Z" fill="#263238"/><path d="M422.743,146.744l-4.188,1.79a2.311,2.311,0,0,0,3.075,1.22A2.21,2.21,0,0,0,422.743,146.744Z" fill="#f0997a"/><path d="M409.844,137.132l2.506-1.519a1.407,1.407,0,0,0-1.972-.532A1.537,1.537,0,0,0,409.844,137.132Z" fill="#263238"/><path d="M410.826,139.128a1.191,1.191,0,1,0,1.2-1.236A1.212,1.212,0,0,0,410.826,139.128Z" fill="#263238"/><path d="M417.461,138.489l-1.017,7.6-3.878-1.671Z" fill="#f0997a"/><path d="M426.023,220.614l.165,3.361a1.238,1.238,0,0,0,1.092,1.168,25.366,25.366,0,0,0,11.648-1.5c7.022-2.612,7.132-4.845,7.132-4.845l-.017-4.561Z" fill="#263238"/><path d="M410.056,217.211v2.6a.8.8,0,0,1-1.045.771,15.791,15.791,0,0,1-2.88-1.176,6.548,6.548,0,0,1-2.112-1.712l-.133-3.94Z" fill="#263238"/><path d="M403.886,213.752c1.46,2.359,6.17,3.459,6.17,3.459s-.106-1.7,0-11.018.456-26.618,2.5-34.368a41.459,41.459,0,0,1,5.414-12.025,2.7,2.7,0,0,1,2.011-1.194v-.445c-7.038-.112-8.635.6-11.6,4.342s-3.57,10.783-3.926,18.756C404.1,189.016,401.871,207.918,403.886,213.752Zm22.194-20.359c-.562,21.407-.318,25.47-.057,27.221,0,0,14.994,1.442,20.02-6.372,1.7-3.528-.233-11.69-.641-19.33l2.306-26.121a8.452,8.452,0,0,0-4.878-8.417l-11.061-1.446c-.929,2.164-3,4.967-4.005,9.214C426.485,173.558,426.4,181.347,426.08,193.393Z" fill="#455a64"/><path d="M374.712,191.027l29.7,2.04,5.609,34.131-28.166-2.681Z" fill="#27debf"/><path d="M374.712,191.027l29.7,2.04,5.609,34.131-28.166-2.681Z" opacity="0.1"/><path d="M397.746,213.116c-.18.686.278,1.653,1.628,2.805,1.088.929,1.8,2.545,3.654,3,3.786.918,5.695.39,5.695.39l-.768-4.667Z" opacity="0.15"/><path d="M383.129,194.582s-.066-.472-.148-1.054,1.707-.934,3.993-.786l4.377.284c2.286.148,4.2.74,4.286,1.322l.147,1.053Z" opacity="0.15"/><path d="M381.411,190.819c-.053-.362.68-.594,1.636-.516l1.73.14s-.3-2.281,3.555-2.169,4.466,2.655,4.466,2.655l1.846.165c1.02.09,1.917.451,2.006.807l.16.643-15.3-1.05S381.463,191.183,381.411,190.819Z" fill="#263238"/><path d="M383.457,191.613c1.4.066,1.983.138,2.11,1.035.144,1.024.17,1.79.17,1.79l6.771.471s-.207-1.292-.265-1.8.208-.869,1.286-.794l.133-.436-10.618-.638Z" fill="#263238"/><path d="M382.93,194.72s-.066-.472-.148-1.054,1.706-.934,3.992-.786l4.377.284c2.287.148,4.2.739,4.288,1.321l.147,1.054Z" fill="#37474f"/><path d="M406.3,204.568c2.109.109,5.351.841,7.163,1.132a9.068,9.068,0,0,0,2.856.155,13.1,13.1,0,0,0,2.271-.449c2.6-1.185,23.322-9.666,23.322-9.666l-3.521-20.391s-.828-13.1,4.889-14.481c4.4,1.992,5.8,5.878,7.823,14.5,2.318,9.866,4.088,21.383,3.179,24.506-.625,2.148-.748,4.457-5.551,6.317-5.082,1.968-10.757,3.3-27.488,8.1a84.175,84.175,0,0,1-9.616,2.75c-8.534,1.337-11.938-.216-13.636-3.514-.494-.958-.568-2.022-1.015-3a7.06,7.06,0,0,1-.7-1.63,1.256,1.256,0,0,1,.711-1.459,1.761,1.761,0,0,1,.815.032c1.353.265,2.7.527,4.058.711a26.564,26.564,0,0,0,4.689.166.674.674,0,0,0,.237-.04c.235-.1.176-.2.041-.272" fill="#ffbda7"/><path d="M442.83,160.374c3.971.493,6.579,3.826,7.417,7.745,1.314,6.155,1.936,9.68,3.458,17.488,1.38,7.08,1.919,15.163,1.035,17.368s-5.406,3.675-8.246,4.515c-4.244,1.256-16.863,4.4-16.863,4.4.086-2.964-1.6-8.048-4.192-9.791l15.923-7.081-4.083-18.08S435.5,163.765,442.83,160.374Z" fill="#37474f"/><path d="M425.439,202.1s2.162.8,3.581,4.524.611,5.267.611,5.267l-7.594,2.173s.433-6.015-2.891-9.094Z" fill="#263238"/><path d="M53.619,314.269s-1.957-28.854-.462-39.71c1.282-9.316,2.786-13.183,3.052-15.3,0,0,2.3-21.89,2.489-40.491.092-8.952.921-15.326,5.825-25.968L95.361,199.8c.642,4.727,3.522,36.716,4.034,64.676.448,24.476-.25,45.906-.25,45.906l-.032,1.289c0,1.43.314,2.43,1.234,4.725a27.75,27.75,0,0,0,4.886,8.085c.65.7,5.149,4.637,5.743,5.476,1.933,2.254-2.072,3.525-5.045,3.128-3.137-.419-8.011-1.611-9.392-3.522-.921-1.272-1.612-5.731-2.559-7.021-3.192-4.352-4.5-6.223-4.526-7.613-.042-2.512.822-3.506,1.13-4.925-.257-2.964-6.657-27.352-6.768-35.986-.052-4.114.225-9.78.225-9.78l-4.966-28.5c-1.919,7.114-5.4,20.386-6.532,27.167-1.387,8.283-6.1,32.407-9.058,43.372a57.735,57.735,0,0,0-1.982,8.656c0,.011-.093.963-.093.973-.067,1.227-.6,14.32-1.087,17.082-1.013,5.769-6.142,5.042-6.963.376-.7-3.97.177-16.263.2-17.771Z" fill="#ffa8a7"/><path d="M53.619,314.269c-1.447.024-.5,5.624-.869,9.226-.4,3.861-1.666,6.682-2.028,9.848a12.844,12.844,0,0,0,1.206,8.107c1.008,2.313,6.078,5.483,8,2.175a18.593,18.593,0,0,0,2.12-10.688c-.229-3.724-.453-6.446-.529-9.278-.066-2.495,1.856-8.358-.018-8.717l-.093.973c-.673,1.345-7.1,2.275-7.854-.313Z" fill="#37474f"/><path d="M89.149,317.973c-.442,1.8.016,6.752.016,6.752a6.585,6.585,0,0,0,3.566,2.842l1.249-6.882Z" fill="#263238"/><path d="M92.731,327.567l6.138-2.015,1.478-5.447-6.9,3.491Z"/><path d="M99.113,311.675l.033-1.289c.833.4,2.668,7.119,5.148,11.724,2.266,4.205,6.755,6.549,8.211,8.378,1.951,2.448-1.839,5.6-7.922,4.3-3.018-.646-7.59-2.577-8.829-4.614S94.1,324.4,93.082,322.9s-3.422-3.222-3.933-4.927a9.294,9.294,0,0,1,.013-4.706c.477-1.552.893-3.428,1.422-3.259l.036,1.18c.407.83,1.876,1.8,4.947,1.962C97.028,313.23,98.444,313.005,99.113,311.675Z" fill="#37474f"/><path d="M94.992,195.964s3.771,27.148,4.443,47.652.071,46.95.071,46.95-2.116,1.514-6.775,1.723-6.271-1.344-6.271-1.344-2.845-9.29-3.291-15.829a66.7,66.7,0,0,1,0-10.636l-4.16-27.356s-5.48,25.584-6.078,28.841-6.34,27.2-6.34,27.2a11.038,11.038,0,0,1-7.64,1.858c-4.457-.594-6.3-2.735-6.3-2.735s-.92-12.309-.06-18.9,2.63-11.642,2.933-15.952-.3-27.664,0-37.011,1.368-16.589,8.362-29.15Z" fill="#455a64"/><path d="M79.009,237.124l3.46-17.135s6.037-1.576,8.851-5.263c0,0-.782,4.088-6.988,6.7L80.648,238.5l1.252,17.64Z" fill="#37474f"/><path d="M100.73,157.558c7.344,3.626,15.468,8.649,19.473,9.363,5.788-1.138,18.406-4.569,22.757-6.947a3.653,3.653,0,0,0,1.653-1.922c.817-2.162,1.9-3.208,3.137-4.978.965-1.386,1.288-2.834,1.7-2.776a2.113,2.113,0,0,1,1.377,2.366,17.811,17.811,0,0,1-.945,3.775,22.5,22.5,0,0,0,5.214-4.378c2.783-3.408,5.612-2.937,6.006,2.493.141,1.944.067,6.094-7,10.357-2.037,1.229-6.565,3.462-9.319,4.69-7.368,3.283-15.625,6.251-20.931,8.124a13.981,13.981,0,0,1-6.369.148c-13.415-3.017-22.407-7.8-29.561-10.872l.237-12.265C92.54,154.923,94.411,154.438,100.73,157.558Z" fill="#ffa8a7"/><path d="M87.922,154.736c5.2-.789,10.1,1.1,12.606,2.356,7.88,3.94,18.882,9.636,19.093,9.693s6.64-1.265,6.64-1.265.571,6.2,4.142,9.847c0,0-5.488,2.4-7.651,2.988s-3.087.573-6.022-.108-19.968-6.387-19.968-6.387Z" fill="#455a64"/><path d="M73.832,154.609l-8.812,1.265c1.6,9.51-2.9,17.875-2.9,17.875l2.805,14.47c-.115,1.723-3.147,5.041-5.931,11.528,5.212,6.977,29.11,10.385,37.446,4.262-.808-8.045-1.195-11.953-1.449-14.445l-.03-9.045c10.447-8.574-2.163-21.631-6.8-25.783H83.81Z" fill="#27debf"/><path d="M41.809,191.083c1.879-7.335,8.2-19.954,10.464-25.845,2.587-6.729,7.041-9.109,11.852-9.177,1.77,2.284,2.511,13.745-2.941,20.311-2.322,4.889-7.62,15.132-7.62,15.132.18,1.319,3.746,14.888,5.815,19.366a3.574,3.574,0,0,0,1.833,1.757c2.15.936,4.667,3.287,6.378,4.615,1.341,1.041,2.373,1.2,2.278,1.6a1.928,1.928,0,0,1-2.314,1.231A30.648,30.648,0,0,1,63.3,218.36a52.836,52.836,0,0,0,4.257,5.825c2.889,3.33,2.789,6.185-2.838,6.272-4.256.066-6.5-2.328-10.272-9.621-1.087-2.1-2.652-4.888-3.953-7.589-3.285-6.825-3.924-7.433-5.72-11.8C41.94,194.565,41.085,193.911,41.809,191.083Z" fill="#ffa8a7"/><path d="M66.454,155.666c-5.764.484-9.441.651-12.513,5.163s-10.91,24.784-11.966,27.855-1.2,4.683,2.673,12.771a23.147,23.147,0,0,0,10.586-3.725l-1.07-6.166,7.647-14.611A32.859,32.859,0,0,0,66.454,155.666Z" fill="#455a64"/><path d="M73.932,151.534c-.042-1.539-5.119-5.216-7.685-9.1-2.379-3.6-5.7-13.509,2.172-16.679a6.9,6.9,0,0,1-.024-3.2,6.073,6.073,0,0,1,2.119-3.179,13.651,13.651,0,0,1,6.012-2.707,33.514,33.514,0,0,1,9.844-.77,18.187,18.187,0,0,1,6.259,1.408,9.548,9.548,0,0,1,4.671,4.267,6.723,6.723,0,0,1,.4,5.137c-.363,1.032-.4.9.2,1.731a3.025,3.025,0,0,1,.59,2.2c-.229,1.688-1.842,2.1-2.033,2.943a.828.828,0,0,0,1.416.734,1.7,1.7,0,0,1-2,1.349c-1.821-.1-3.44-2.57-3.44-2.57Z" fill="#263238"/><path d="M68.263,123.877c-3.056-1.765-7.654-2.564-11.313,1-4.834,4.71-3.351,16.141-6,20.333-2.432,3.849-5.272,2.437-7.543,5.511a4.267,4.267,0,0,0,1.212,5.832c2.348,1.641,7.39,2.348,11.767-.67,7.374-5.085,5.79-12.269,4.6-17.446s.009-14.086,7.277-11.1C68.263,127.338,71.131,125.533,68.263,123.877Z" fill="#263238"/><path d="M90.477,125.255c2.332,1.011,4.547,4.576,4.514,14.55-.028,8.453-2.62,10.591-3.93,11.218s-3.864.311-6.35-.071l.01,4.86s5.977,6.578,1.947,9.355c-10.392-1.819-12.675-9.631-12.675-9.631l-.183-10.6s-1.431,1.5-3.945-.7c-2.076-1.818-2.823-4.936-1.264-6.648s3.562-1.849,5.37.064c0,0,3.781.52,8.765-2.61C87.838,131.841,89.975,128.5,90.477,125.255Z" fill="#ffa8a7"/><path d="M90.7,136.933a1.123,1.123,0,1,0,1.164-1.128A1.142,1.142,0,0,0,90.7,136.933Z" fill="#263238"/><path d="M81.752,137.434A1.205,1.205,0,1,0,83,136.224,1.224,1.224,0,0,0,81.752,137.434Z" fill="#263238"/><path d="M83.514,144.506l3.41,1.059a1.74,1.74,0,0,1-2.18,1.309A1.955,1.955,0,0,1,83.514,144.506Z" fill="#f28f8f"/><path d="M93.668,134.846,90.777,133.7a1.492,1.492,0,0,1,2-.886A1.61,1.61,0,0,1,93.668,134.846Z" fill="#263238"/><path d="M73.988,136.277l.029,4.7a2.2,2.2,0,0,0,2.259-2.272A2.426,2.426,0,0,0,73.988,136.277Z" fill="#263238"/><path d="M86.924,136.293l.906,6.866,3.057-1.485Z" fill="#f28f8f"/><path d="M84.711,150.952c-2.616-.306-8.017-1.808-8.9-4a5.752,5.752,0,0,0,1.936,2.784c1.632,1.4,6.964,2.854,6.964,2.854Z" fill="#f28f8f"/><path d="M379.133,85.842,339.049,62.7a3.031,3.031,0,0,0-3.078-.293c-.774.456-11.371,6.587-12.154,7.03a3.034,3.034,0,0,0-1.283,2.812v41.6a9.573,9.573,0,0,0,4.33,7.5l40.083,23.142a3.043,3.043,0,0,0,3.062.3c.784-.453,11.391-6.6,12.174-7.043a3.032,3.032,0,0,0,1.279-2.809v-41.6A9.573,9.573,0,0,0,379.133,85.842Z" fill="#37474f"/><path d="M383.465,93.338v41.6a3.029,3.029,0,0,1-1.28,2.809c-.76.431-10.992,6.358-12.081,6.989a3.123,3.123,0,0,0,1.169-2.75v-41.6A8.766,8.766,0,0,0,370,96.127L382.2,89.079A8.83,8.83,0,0,1,383.465,93.338Z" fill="#263238"/><path d="M326.865,121.344l40.083,23.142c2.392,1.381,4.33.262,4.33-2.5V100.391a9.568,9.568,0,0,0-4.33-7.5L326.864,69.748c-2.391-1.38-4.33-.261-4.33,2.5v41.6A9.573,9.573,0,0,0,326.865,121.344Z" fill="#455a64"/><path d="M352.794,94.238a1.217,1.217,0,0,1,.463-.421.8.8,0,0,1,.687.151l2.225,1.263a1.467,1.467,0,0,1,.559.594,1.755,1.755,0,0,1,.207.833.923.923,0,0,1-.032.228.885.885,0,0,1-.1.24L341.019,120a1.209,1.209,0,0,1-.463.421.8.8,0,0,1-.688-.151L337.644,119a1.457,1.457,0,0,1-.559-.593,1.742,1.742,0,0,1-.208-.834.978.978,0,0,1,.032-.227.92.92,0,0,1,.1-.24Z" fill="#fafafa"/><path d="M360.209,121.1a12.9,12.9,0,0,0-1.471-5.6,9.566,9.566,0,0,0-3.708-3.888q-2.365-1.366-3.707-.393t-1.469,3.9q-.066,1.341-.065,2.4t.065,2.373a12.927,12.927,0,0,0,1.549,5.594,9.612,9.612,0,0,0,3.627,3.842q2.238,1.29,3.628.347t1.551-3.8q.061-1.242.063-2.3T360.209,121.1Zm-3.8,3.228a3.852,3.852,0,0,1-.358,1.616c-.2.363-.541.406-1.019.133a2.288,2.288,0,0,1-1.017-1.308,7.456,7.456,0,0,1-.359-2.03,55.6,55.6,0,0,1,0-6.031,3.824,3.824,0,0,1,.359-1.614q.3-.546,1.017-.133a2.285,2.285,0,0,1,1.019,1.31,7.511,7.511,0,0,1,.358,2.026A55.158,55.158,0,0,1,356.407,124.33Z" fill="#fafafa"/><path d="M343.961,94.439a12.9,12.9,0,0,0-1.471-5.6,9.562,9.562,0,0,0-3.709-3.888q-2.364-1.367-3.707-.394t-1.469,3.9c-.045.894-.064,1.694-.064,2.4s.019,1.5.064,2.374a12.955,12.955,0,0,0,1.549,5.594,9.626,9.626,0,0,0,3.627,3.842q2.238,1.29,3.629.347t1.551-3.8q.062-1.242.063-2.3T343.961,94.439Zm-3.8,3.228a3.877,3.877,0,0,1-.357,1.616c-.2.363-.542.407-1.02.133a2.294,2.294,0,0,1-1.017-1.309,7.486,7.486,0,0,1-.358-2.029,55.579,55.579,0,0,1,0-6.031,3.837,3.837,0,0,1,.358-1.614q.3-.546,1.017-.133a2.292,2.292,0,0,1,1.02,1.309,7.557,7.557,0,0,1,.357,2.027A55.142,55.142,0,0,1,340.158,97.667Z" fill="#fafafa"/><path d="M120.867,85.842,160.951,62.7a3.031,3.031,0,0,1,3.078-.293c.774.456,11.371,6.587,12.154,7.03a3.034,3.034,0,0,1,1.283,2.812v41.6a9.573,9.573,0,0,1-4.33,7.5l-40.083,23.142a3.043,3.043,0,0,1-3.062.3c-.783-.453-11.391-6.6-12.174-7.043a3.034,3.034,0,0,1-1.279-2.809v-41.6A9.573,9.573,0,0,1,120.867,85.842Z" fill="#37474f"/><path d="M116.535,93.338v41.6a3.029,3.029,0,0,0,1.28,2.809c.76.431,10.991,6.358,12.081,6.989a3.126,3.126,0,0,1-1.169-2.75v-41.6a8.768,8.768,0,0,1,1.27-4.26l-12.192-7.048A8.83,8.83,0,0,0,116.535,93.338Z" fill="#263238"/><path d="M173.135,121.344l-40.083,23.142c-2.392,1.381-4.33.262-4.33-2.5V100.391a9.568,9.568,0,0,1,4.33-7.5l40.084-23.143c2.391-1.38,4.33-.261,4.33,2.5v41.6A9.573,9.573,0,0,1,173.135,121.344Z" fill="#455a64"/><path d="M158.968,87.436a5.765,5.765,0,0,1,.463-.955,1.915,1.915,0,0,1,.687-.643l2.224-1.305c.235-.135.42-.151.559-.051a.694.694,0,0,1,.208.593,1.4,1.4,0,0,1-.032.264,2.445,2.445,0,0,1-.1.351l-15.789,41.1a5.726,5.726,0,0,1-.463.955,1.907,1.907,0,0,1-.687.643l-2.225,1.3c-.234.135-.419.152-.558.053a.694.694,0,0,1-.208-.594,1.423,1.423,0,0,1,.032-.265,2.533,2.533,0,0,1,.1-.35Z" fill="#fafafa"/><path d="M167.146,105.28q-.129-2.925-1.471-3.9t-3.708.394a9.57,9.57,0,0,0-3.707,3.888,12.864,12.864,0,0,0-1.469,5.6q-.066,1.416-.065,2.473t.065,2.3q.157,2.864,1.549,3.8t3.627-.346a9.608,9.608,0,0,0,3.628-3.842,12.948,12.948,0,0,0,1.551-5.6c.041-.875.063-1.668.063-2.373S167.187,106.176,167.146,105.28Zm-3.8,7.618a7.55,7.55,0,0,1-.358,2.03,2.3,2.3,0,0,1-1.019,1.309q-.714.411-1.017-.133a3.825,3.825,0,0,1-.358-1.616,55.15,55.15,0,0,1,0-6.031,7.462,7.462,0,0,1,.358-2.028,2.279,2.279,0,0,1,1.017-1.307c.477-.278.815-.229,1.019.133a3.862,3.862,0,0,1,.358,1.612A55.579,55.579,0,0,1,163.344,112.9Z" fill="#fafafa"/><path d="M149.142,98.266q-.129-2.926-1.471-3.9t-3.708.394a9.571,9.571,0,0,0-3.707,3.886,12.885,12.885,0,0,0-1.469,5.6q-.066,1.417-.065,2.474t.065,2.3q.157,2.862,1.549,3.8t3.627-.346a9.6,9.6,0,0,0,3.628-3.843,12.943,12.943,0,0,0,1.551-5.594c.041-.876.064-1.668.064-2.373S149.183,99.162,149.142,98.266Zm-3.8,7.619a7.511,7.511,0,0,1-.358,2.029,2.289,2.289,0,0,1-1.019,1.309c-.476.274-.815.231-1.017-.133a3.825,3.825,0,0,1-.358-1.616,55.659,55.659,0,0,1,0-6.031,7.462,7.462,0,0,1,.358-2.028,2.288,2.288,0,0,1,1.017-1.308c.478-.277.816-.228,1.019.134a3.851,3.851,0,0,1,.358,1.613A55.079,55.079,0,0,1,145.34,105.885Z" fill="#fafafa"/></g></svg>