<svg xmlns="http://www.w3.org/2000/svg" xmlns:xlink="http://www.w3.org/1999/xlink" width="870.327" height="196.59" viewBox="0 0 870.327 196.59"><defs><filter id="a" x="124.337" y="0" width="192" height="192" filterUnits="userSpaceOnUse"><feOffset input="SourceAlpha"/><feGaussianBlur stdDeviation="7.5" result="b"/><feFlood flood-opacity="0.11"/><feComposite operator="in" in2="b"/><feComposite in="SourceGraphic"/></filter></defs><g transform="translate(-1706.163 -2713.5)"><path d="M-34.563,1.353q-13.53,0-21.4-7.565t-7.872-20.6V-59.286q0-12.792,7.872-20.3t21.4-7.5q13.53,0,21.463,7.5t7.934,20.3v32.472q0,13.038-7.934,20.6T-34.563,1.353Zm0-14.883a11.644,11.644,0,0,0,8.794-3.383,12.479,12.479,0,0,0,3.259-9.04V-59.778a12.479,12.479,0,0,0-3.259-9.04A11.644,11.644,0,0,0-34.563-72.2a11.487,11.487,0,0,0-8.672,3.383,12.479,12.479,0,0,0-3.259,9.04v33.825a12.479,12.479,0,0,0,3.259,9.04A11.487,11.487,0,0,0-34.563-13.53Zm63.837-2.091a.4.4,0,0,0-.123.492.5.5,0,0,0,.492.246H62.976a1.423,1.423,0,0,1,1.045.431,1.423,1.423,0,0,1,.43,1.046V-1.476a1.423,1.423,0,0,1-.43,1.046A1.423,1.423,0,0,1,62.976,0H7.626A1.423,1.423,0,0,1,6.58-.431,1.423,1.423,0,0,1,6.15-1.476V-12.792a2.5,2.5,0,0,1,.738-1.845q6.027-5.9,12.3-12.853t7.872-8.671q3.444-4.059,7.011-7.749,11.193-12.423,11.193-18.45a9.09,9.09,0,0,0-3.075-7.072,11.5,11.5,0,0,0-8-2.768A11.5,11.5,0,0,0,26.2-69.433a9.371,9.371,0,0,0-3.075,7.318v3.075a1.423,1.423,0,0,1-.43,1.045,1.423,1.423,0,0,1-1.045.431H7.134a1.423,1.423,0,0,1-1.045-.431,1.423,1.423,0,0,1-.431-1.045v-5.781A21.14,21.14,0,0,1,9.84-76.567a24.263,24.263,0,0,1,10.147-7.811,35.824,35.824,0,0,1,14.206-2.706,33.315,33.315,0,0,1,15.191,3.259,24.571,24.571,0,0,1,9.963,8.795,22.517,22.517,0,0,1,3.506,12.3A24.458,24.458,0,0,1,60.27-52.152a58.488,58.488,0,0,1-7.749,11.685Q48.708-35.67,44.28-31T31.119-17.466Z" transform="translate(1770 2881)" fill="#fff"/><path d="M-33.348-22.722v8.652A37.21,37.21,0,0,1-40.4-12.18l1.05,4.788c.462-.21.966-.42,3.192-1.218.882-.294,1.806-.63,2.814-1.008V-1.26a34.9,34.9,0,0,1-.294,4.872h4.956a41.74,41.74,0,0,1-.252-4.872v-10c1.092-.462,1.848-.8,3.024-1.344v1.932A24.005,24.005,0,0,1-21.8-10.92h11v8.484c0,1.05-.252,1.26-1.6,1.26A36.1,36.1,0,0,1-17.3-1.638a12.459,12.459,0,0,1,1.092,4.62c1.3.084,2.856.126,3.57.126,4.872,0,6.216-.84,6.216-3.99V-10.92h.378a29.614,29.614,0,0,1,4.116.252v-4.62a25.344,25.344,0,0,1-4.116.21h-.378v-3.528h.252a35.689,35.689,0,0,1,4.41.252V-22.89a43.069,43.069,0,0,1-4.746.21h-5.67v-4.074h4.536a42.464,42.464,0,0,1,4.41.21v-4.578a31.619,31.619,0,0,1-4.41.252H-12.18v-1.344a17.213,17.213,0,0,1,.21-3.108h-4.872a18.414,18.414,0,0,1,.252,3.15v1.3h-3.528a29.911,29.911,0,0,1-4.326-.252v4.578a41.943,41.943,0,0,1,4.326-.21h3.528v4.074h-4.788c-1.512,0-2.562-.042-3.864-.126v-4.41a17.642,17.642,0,0,1-3.36.252h-.336V-31.92a20.988,20.988,0,0,1,.252-3.444h-4.956a18.137,18.137,0,0,1,.294,3.444v4.956H-35.28l.126-1.722.084-.63a10.2,10.2,0,0,1,.252-2.142l-4.116-.5c.042.5.084.8.084,1.05a38.067,38.067,0,0,1-2.142,12.474,11.632,11.632,0,0,1,3.654,1.89,38.952,38.952,0,0,0,1.512-6.174Zm4.41,0h.672c.672,0,1.218,0,2.142.042v4.326a28.254,28.254,0,0,1,4.746-.252h10.584v3.528H-21.252c-1.848,0-3.066-.042-4.032-.126l-.042-1.848c-1.428.63-1.974.84-3.612,1.47ZM-24.108-8.4a31.629,31.629,0,0,1,5.334,6.888l3.654-2.772a34.348,34.348,0,0,0-5.5-6.426Zm64.89-20.454a19.467,19.467,0,0,1-3.486.21H33.054c.462-1.386.714-2.31,1.05-3.7a17.652,17.652,0,0,1,.546-2.016l-4.536-.966a34.428,34.428,0,0,1-3.486,11.97v-6.384a22.961,22.961,0,0,1,.126-2.814H22.932a24.857,24.857,0,0,1,.126,2.73v4.368H21.126v-6.426a29.486,29.486,0,0,1,.126-2.982H17.22a20.073,20.073,0,0,1,.168,2.982v6.426H15.414V-29.82a23.371,23.371,0,0,1,.084-2.73H12.222l.21-.252-3.78-2.73c-1.3,2.94-4.158,6.006-7.77,8.4a17.359,17.359,0,0,1,2.226,4.074,42.88,42.88,0,0,0,8.148-8.19,2.8,2.8,0,0,0,.5-.714,17.288,17.288,0,0,1,.126,2.142v5.712L8.9-25.7A26,26,0,0,1,.5-15.288,18.25,18.25,0,0,1,2.226-10.71,20.308,20.308,0,0,0,4.914-13.4C4.83-12.1,4.83-11.214,4.83-9.87v8.526A37.712,37.712,0,0,1,4.578,3.57H9.324a34.148,34.148,0,0,1-.21-4.788V-17.892A41.692,41.692,0,0,0,11.8-21.924a1.723,1.723,0,0,1-.042.462c.756-.042,1.89-.084,2.31-.084H25.452c-.462.588-.63.8-1.176,1.428.462.462.588.588.966,1.008-.63.042-1.344.042-2.394.042h-8.9a18.192,18.192,0,0,1-2.9-.168v4.2A22.353,22.353,0,0,1,14.28-15.2h2.478v3.066H14.7a19.783,19.783,0,0,1-3.108-.168V-8.19a21.683,21.683,0,0,1,3.066-.168h2.1v3.99a43.085,43.085,0,0,1-5.88.63h-.42L10.962.8C11.676.63,12.306.5,13.356.336c6.51-1.218,8.652-1.68,11.382-2.436-.84.588-1.3.924-2.646,1.764A20.461,20.461,0,0,1,24.78,3.4a30.556,30.556,0,0,0,7.686-7.77,34.275,34.275,0,0,0,6.342,7.56,27.423,27.423,0,0,1,2.478-4.578,26.631,26.631,0,0,1-6.426-7.14c2.31-5,3.234-9.072,3.57-15.96,1.134.042,1.47.084,2.352.168ZM26.166-6.174c-2.394.546-3.192.714-5.082,1.092V-8.358H22.47c1.428,0,2.394.042,3.4.126v-4.074a25.786,25.786,0,0,1-3.4.168H21.084V-15.2H23.6a16.371,16.371,0,0,1,2.688.168V-17.85c.252.378.336.546.672,1.05.378-.378.462-.5.756-.84a40.119,40.119,0,0,0,2.646,9.156,27.74,27.74,0,0,1-4.2,5.166ZM34.44-24.486a37,37,0,0,1-1.806,11.172,42.992,42.992,0,0,1-2.016-9.072c.336-.672.5-1.092.924-2.1Z" transform="translate(1774 2773)" fill="#fff"/><g transform="matrix(1, 0, 0, 1, 1706.16, 2713.5)" filter="url(#a)"><circle cx="73.5" cy="73.5" r="73.5" transform="translate(146.84 22.5)" fill="#fff46e"/></g><g transform="translate(1900 2784.066)"><g transform="translate(0 0.934)"><path d="M26.732,3.4l-4.56,18.229c-5.548-2.32-12.961-3.335-19.531-1.3C3.971,14.484,7.2,3.4,7.2,3.4,12.034-.559,21.431.86,26.732,3.4Z" transform="translate(3.476 -0.934)" fill="#3cbebe"/><path d="M16.794,3.145c4.972,2.911,13.762,3.809,20.146,1.9L31.728,22.622c-5.356,2.834-15.6,2.624-19.528-1.3Z" transform="translate(16.051 1.976)" fill="#3cbebe"/><path d="M24.079,12.988,19.524,31.212c-5.738-2.64-13.054-4.4-19.524-1.3,0,0,3-11.738,4.553-17.571C9.566,9.227,19.554,10.146,24.079,12.988Z" transform="translate(0 11.511)" fill="#3cbebe"/><path d="M14.626,12.641c4.972,3.515,13.422,4.085,19.667,1.667l-5.2,17.581c-5.039,3.425-14.9,2.9-19.533-.651Z" transform="translate(12.574 14.47)" fill="#3cbebe"/></g></g><path d="M67.83-123.25H82.28V-5.44H67.83V-63.58H25.84V-5.27H11.73V-123.25H25.84v45.73H67.83Zm93.5,31.96h14.79L125.29,29.58H110.5L125.46-5.95H105.74V-91.29h13.6V-18.7h11.39ZM238-90.1l15.13,36.04V-4.59H206.55V30.09H192.78V-90.1Zm1.36,37.74L228.99-76.84H206.55v59.33h32.81Zm50.49,16.32v17.85h50.66V-5.27H276.59V-90.61h38.59l22.95,54.57ZM306-77.86H289.85v28.9h28.39Zm62.9-12.75h46.07v12.92H377.4l-1.53,3.91V-5.27h-13.6V-74.63ZM471.07-51.17H433.33V-64.43h37.74Zm75.65-72.08h13.77v57.29L534.99-5.27H520.2L494.53-66.13v-57.12H508.3v54.74l19.21,45.73,19.21-45.39Z" transform="translate(2016 2880)" fill="#fff46e"/></g></svg>