<svg xmlns="http://www.w3.org/2000/svg" xmlns:xlink="http://www.w3.org/1999/xlink" width="731.911" height="192" viewBox="0 0 731.911 192"><defs><filter id="a" x="110.992" y="0" width="192" height="192" filterUnits="userSpaceOnUse"><feOffset input="SourceAlpha"/><feGaussianBlur stdDeviation="7.5" result="b"/><feFlood flood-opacity="0.11"/><feComposite operator="in" in2="b"/><feComposite in="SourceGraphic"/></filter></defs><g transform="translate(106.492 -2048.5)"><path d="M126.31-132.26v46.07H43.18v-46.07Zm-14.45,11.05H57.46v6.97h54.4ZM57.46-97.07h54.4v-6.97H57.46ZM30.77-83.3H139.23v10.88H83.64V4.08H71.06V-17.17L38.08,2.72,32.13-8.67,42.5-14.96V-72.42H30.77ZM71.06-46.75v-8.16H54.57v8.16ZM54.57-22.1,71.06-32.13v-5.1H54.57ZM71.06-64.43v-7.99H54.57v7.99Zm67.15-4.76L118.32-35.7,139.23-1.02,128.18,4.93,111.35-23.12,94.69,4.93,84.32-.51l17.85-29.92L88.23-53.72h13.26l6.29,10.88,8.84-14.62H86.02V-69.19Z" transform="translate(168 2215)" fill="#fff46e"/><path d="M139.23-90.1v12.41H127.84V3.74H114.58V-77.69H99.45v60.18L85,2.04,78.2-10.71l7.99-10.88V-97.07l27.03-36.38,14.28,4.25L99.45-91.29v1.19ZM81.09-35.19,74.46-22.61l-8.84-11.9V3.74H52.36V-24.14L40.29-7.82,32.81-21.93,52.36-48.28v-9.69H30.77V-70.38H52.36V-79.9H31.28V-91.97h15.3L35.36-107.1H32.64v-12.07H52.19v-13.77H65.45v13.77H85.17v12.07H82.45L71.06-91.97H85.68V-79.9H65.62v9.52H85.85v12.41H65.62v1.87ZM49.64-107.1l7.31,9.86-9.69,5.27h9.35L67.83-107.1Z" transform="translate(295 2215)" fill="#fff46e"/><path d="M67.83-122.4,81.6-89.93V-5.27H11.73V-122.4ZM67.66-18.53V-88.06l-8.84-21.08H25.5v90.61ZM174.42-5.27H106.08V-25.5h13.94v6.97h33.15l-12.92-30.6h-6.12L103.36-122.4h67.49v20.23H156.91v-6.97H124.44l19.72,46.58h6.29Z" transform="translate(451 2215)" fill="#fff46e"/><g transform="matrix(1, 0, 0, 1, -106.49, 2048.5)" filter="url(#a)"><circle cx="73.5" cy="73.5" r="73.5" transform="translate(133.49 22.5)" fill="#fff46e"/></g><g transform="translate(69 2111)"><path d="M45,23a4,4,0,1,0-4-4A4,4,0,0,0,45,23Zm0-6a2,2,0,1,1-2,2A2,2,0,0,1,45,17Z" fill="#3cbebe"/><path d="M23,33a2,2,0,0,1-2-2H19a4,4,0,1,0,4-4,2,2,0,1,1,2-2h2a4,4,0,1,0-4,4,2,2,0,0,1,0,4Z" fill="#3cbebe"/><path d="M13,35a4,4,0,0,0,4-4V25a4,4,0,0,0-8,0v6A4,4,0,0,0,13,35ZM11,25a2,2,0,0,1,4,0v6a2,2,0,0,1-4,0Z" fill="#3cbebe"/><path d="M63,19a17.988,17.988,0,0,0-34.95-6H6a5.006,5.006,0,0,0-5,5V46a5.006,5.006,0,0,0,5,5H22v2H16.236a2.985,2.985,0,0,0-2.683,1.658L12,57.764V63H44V57.764l-1.553-3.1A2.983,2.983,0,0,0,39.764,53H34V51H50a5.006,5.006,0,0,0,5-5V33.956A17.993,17.993,0,0,0,63,19ZM53.5,32.529l-5.057-6.321a8,8,0,0,0,1.45-.9l5.67,5.67A16.087,16.087,0,0,1,53.5,32.529ZM37.792,15.553,31.472,10.5a16.167,16.167,0,0,1,1.547-2.064l5.67,5.67a8,8,0,0,0-.9,1.451Zm2.31-2.865-5.67-5.67A16.167,16.167,0,0,1,36.5,5.471l5.057,6.321a8.047,8.047,0,0,0-1.451.9ZM45,13a6,6,0,1,1-6,6A6.006,6.006,0,0,1,45,13Zm6.312,10.9a8.017,8.017,0,0,0,.9-1.451l6.32,5.057a15.994,15.994,0,0,1-1.547,2.063ZM61,19a15.871,15.871,0,0,1-1.5,6.72l-6.633-5.307a7.963,7.963,0,0,0-9.28-9.28L38.28,4.5A15.966,15.966,0,0,1,61,19ZM30.5,12.28l6.633,5.307a7.963,7.963,0,0,0,9.28,9.28L51.72,33.5A15.964,15.964,0,0,1,30.5,12.28ZM29,27.208V37H7V19H27A17.86,17.86,0,0,0,29,27.208ZM16.236,55H22v2H14.618l.724-1.447A.994.994,0,0,1,16.236,55ZM14,61V59H42v2Zm25.764-6a.994.994,0,0,1,.894.553L41.382,57H34V55ZM32,57H24V51h8Zm18-8H6a3,3,0,0,1-3-3V43H18v1a3,3,0,0,0,3,3H35a3,3,0,0,0,3-3V43H53v3A3,3,0,0,1,50,49ZM36,43v1a1,1,0,0,1-1,1H32V43Zm-6,2H26V43h4Zm-6,0H21a1,1,0,0,1-1-1V43h4Zm29-4H3V18a3,3,0,0,1,3-3H27.464a18.037,18.037,0,0,0-.346,2H7a2,2,0,0,0-2,2V37a2,2,0,0,0,2,2H29a2,2,0,0,0,2-2V30.289A17.906,17.906,0,0,0,53,35.1Z" fill="#3cbebe"/><path d="M57,19h2a14.051,14.051,0,0,0-.165-2.152l-1.977.305A11.987,11.987,0,0,1,57,19Z" fill="#3cbebe"/><path d="M56.421,15.308l1.9-.615A13.96,13.96,0,0,0,45,5V7a11.966,11.966,0,0,1,11.421,8.308Z" fill="#3cbebe"/></g><path d="M-21.217,1.353q-13.53,0-21.4-7.565t-7.872-20.6V-59.286q0-12.792,7.872-20.3t21.4-7.5q13.53,0,21.463,7.5t7.934,20.3v32.472q0,13.038-7.934,20.6T-21.217,1.353Zm0-14.883a11.644,11.644,0,0,0,8.794-3.383,12.479,12.479,0,0,0,3.259-9.04V-59.778a12.479,12.479,0,0,0-3.259-9.04A11.644,11.644,0,0,0-21.217-72.2a11.487,11.487,0,0,0-8.672,3.383,12.479,12.479,0,0,0-3.259,9.04v33.825a12.479,12.479,0,0,0,3.259,9.04A11.487,11.487,0,0,0-21.217-13.53Zm52.275-72.2A3.659,3.659,0,0,1,32.9-86.1H47.786a1.423,1.423,0,0,1,1.045.43,1.423,1.423,0,0,1,.431,1.046V-1.476a1.423,1.423,0,0,1-.431,1.046A1.423,1.423,0,0,1,47.786,0H33.395a1.423,1.423,0,0,1-1.045-.431,1.423,1.423,0,0,1-.431-1.046v-67.4a.709.709,0,0,0-.246-.492.4.4,0,0,0-.492-.123L19-66.174l-.492.123q-1.107,0-1.107-1.353l-.369-10.578A1.741,1.741,0,0,1,18.143-79.7Z" transform="translate(-56 2216)" fill="#fff"/><path d="M-33.348-22.722v8.652A37.21,37.21,0,0,1-40.4-12.18l1.05,4.788c.462-.21.966-.42,3.192-1.218.882-.294,1.806-.63,2.814-1.008V-1.26a34.9,34.9,0,0,1-.294,4.872h4.956a41.74,41.74,0,0,1-.252-4.872v-10c1.092-.462,1.848-.8,3.024-1.344v1.932A24.005,24.005,0,0,1-21.8-10.92h11v8.484c0,1.05-.252,1.26-1.6,1.26A36.1,36.1,0,0,1-17.3-1.638a12.459,12.459,0,0,1,1.092,4.62c1.3.084,2.856.126,3.57.126,4.872,0,6.216-.84,6.216-3.99V-10.92h.378a29.614,29.614,0,0,1,4.116.252v-4.62a25.344,25.344,0,0,1-4.116.21h-.378v-3.528h.252a35.689,35.689,0,0,1,4.41.252V-22.89a43.069,43.069,0,0,1-4.746.21h-5.67v-4.074h4.536a42.464,42.464,0,0,1,4.41.21v-4.578a31.619,31.619,0,0,1-4.41.252H-12.18v-1.344a17.213,17.213,0,0,1,.21-3.108h-4.872a18.414,18.414,0,0,1,.252,3.15v1.3h-3.528a29.911,29.911,0,0,1-4.326-.252v4.578a41.943,41.943,0,0,1,4.326-.21h3.528v4.074h-4.788c-1.512,0-2.562-.042-3.864-.126v-4.41a17.642,17.642,0,0,1-3.36.252h-.336V-31.92a20.988,20.988,0,0,1,.252-3.444h-4.956a18.137,18.137,0,0,1,.294,3.444v4.956H-35.28l.126-1.722.084-.63a10.2,10.2,0,0,1,.252-2.142l-4.116-.5c.042.5.084.8.084,1.05a38.067,38.067,0,0,1-2.142,12.474,11.632,11.632,0,0,1,3.654,1.89,38.952,38.952,0,0,0,1.512-6.174Zm4.41,0h.672c.672,0,1.218,0,2.142.042v4.326a28.254,28.254,0,0,1,4.746-.252h10.584v3.528H-21.252c-1.848,0-3.066-.042-4.032-.126l-.042-1.848c-1.428.63-1.974.84-3.612,1.47ZM-24.108-8.4a31.629,31.629,0,0,1,5.334,6.888l3.654-2.772a34.348,34.348,0,0,0-5.5-6.426Zm64.89-20.454a19.467,19.467,0,0,1-3.486.21H33.054c.462-1.386.714-2.31,1.05-3.7a17.652,17.652,0,0,1,.546-2.016l-4.536-.966a34.428,34.428,0,0,1-3.486,11.97v-6.384a22.961,22.961,0,0,1,.126-2.814H22.932a24.857,24.857,0,0,1,.126,2.73v4.368H21.126v-6.426a29.486,29.486,0,0,1,.126-2.982H17.22a20.073,20.073,0,0,1,.168,2.982v6.426H15.414V-29.82a23.371,23.371,0,0,1,.084-2.73H12.222l.21-.252-3.78-2.73c-1.3,2.94-4.158,6.006-7.77,8.4a17.359,17.359,0,0,1,2.226,4.074,42.88,42.88,0,0,0,8.148-8.19,2.8,2.8,0,0,0,.5-.714,17.288,17.288,0,0,1,.126,2.142v5.712L8.9-25.7A26,26,0,0,1,.5-15.288,18.25,18.25,0,0,1,2.226-10.71,20.308,20.308,0,0,0,4.914-13.4C4.83-12.1,4.83-11.214,4.83-9.87v8.526A37.712,37.712,0,0,1,4.578,3.57H9.324a34.148,34.148,0,0,1-.21-4.788V-17.892A41.692,41.692,0,0,0,11.8-21.924a1.723,1.723,0,0,1-.042.462c.756-.042,1.89-.084,2.31-.084H25.452c-.462.588-.63.8-1.176,1.428.462.462.588.588.966,1.008-.63.042-1.344.042-2.394.042h-8.9a18.192,18.192,0,0,1-2.9-.168v4.2A22.353,22.353,0,0,1,14.28-15.2h2.478v3.066H14.7a19.783,19.783,0,0,1-3.108-.168V-8.19a21.683,21.683,0,0,1,3.066-.168h2.1v3.99a43.085,43.085,0,0,1-5.88.63h-.42L10.962.8C11.676.63,12.306.5,13.356.336c6.51-1.218,8.652-1.68,11.382-2.436-.84.588-1.3.924-2.646,1.764A20.461,20.461,0,0,1,24.78,3.4a30.556,30.556,0,0,0,7.686-7.77,34.275,34.275,0,0,0,6.342,7.56,27.423,27.423,0,0,1,2.478-4.578,26.631,26.631,0,0,1-6.426-7.14c2.31-5,3.234-9.072,3.57-15.96,1.134.042,1.47.084,2.352.168ZM26.166-6.174c-2.394.546-3.192.714-5.082,1.092V-8.358H22.47c1.428,0,2.394.042,3.4.126v-4.074a25.786,25.786,0,0,1-3.4.168H21.084V-15.2H23.6a16.371,16.371,0,0,1,2.688.168V-17.85c.252.378.336.546.672,1.05.378-.378.462-.5.756-.84a40.119,40.119,0,0,0,2.646,9.156,27.74,27.74,0,0,1-4.2,5.166ZM34.44-24.486a37,37,0,0,1-1.806,11.172,42.992,42.992,0,0,1-2.016-9.072c.336-.672.5-1.092.924-2.1Z" transform="translate(-52 2108)" fill="#fff"/></g></svg>