<svg xmlns="http://www.w3.org/2000/svg" width="397.185" height="447.947" viewBox="0 0 397.185 447.947"><g transform="translate(-53.459 -31.116)"><path d="M111.626,449.936c77.555,38.836,203.3,38.836,280.852,0s77.554-101.8,0-140.638-203.3-38.836-280.853,0S34.07,411.1,111.626,449.936Z" fill="#fafafa"/><path d="M426.69,393.672c-15.469,8.41-40.549,8.41-56.019,0s-15.47-22.041,0-30.451,40.55-8.407,56.019,0S442.159,385.265,426.69,393.672Z" fill="#e6e6e6"/><path d="M132.348,390.915c-15.469,8.409-40.549,8.409-56.019,0s-15.469-22.042,0-30.452,40.55-8.407,56.019,0S147.817,382.507,132.348,390.915Z" fill="#e6e6e6"/><path d="M86.778,350.449s-.374-8.733-4.21-15.761-9.461-11.642-14.956-12.468-10.314,3.943-4.649,7.85,15.918,8.21,19.831,21.607Z" fill="#27debf"/><path d="M86.778,350.449s-.374-8.733-4.21-15.761-9.461-11.642-14.956-12.468-10.314,3.943-4.649,7.85,15.918,8.21,19.831,21.607Z" opacity="0.15"/><path d="M85.317,348.085a.256.256,0,0,0,.06-.013.3.3,0,0,0,.189-.373c-4.818-14.77-15.5-21.549-20.468-23.069a.3.3,0,0,0-.174.566c4.871,1.489,15.337,8.148,20.079,22.686A.3.3,0,0,0,85.317,348.085Z" fill="#fff"/><path d="M55.646,346.161a5.2,5.2,0,0,0,2.9,2.529,6.027,6.027,0,0,1,3.045,2.376c1.165,2.384-1.239,5.45.027,7.78a4.112,4.112,0,0,0,2.686,1.821,27.493,27.493,0,0,0,2.734.439,11.07,11.07,0,0,0,1.315-.009,5.953,5.953,0,0,1,3.76.671c1.748,1.151,2.145,3.488,3.125,5.338a8.662,8.662,0,0,0,5.86,4.278,6.023,6.023,0,0,0,3.187.014,1.423,1.423,0,0,0,.179-.1.1.1,0,0,0,.017-.014c.123-.121.279-.275.347-.36a.154.154,0,0,0,.035-.052c.407-1.165-.033-2.437.033-3.666,0-.077.007-.149.017-.222.151-1.422.291-2.837.425-4.257q.376-3.918.632-7.853c.1-1.7.438-3.549-.169-5.2-.673-1.818-2.651-2-3.279-3.778-.251-.711-.359-1.461-.6-2.179a6.1,6.1,0,0,0-4.933-3.987c-3.447-.42-6.75,2.163-10.188,1.664a26.328,26.328,0,0,1-2.613-.691c-2.766-.723-6.061-.153-7.8,2.107A3.641,3.641,0,0,0,55.646,346.161Z" fill="#27debf"/><path d="M85.527,365.445l.024,0a.3.3,0,0,0,.234-.346c-3.516-18.273-22.23-22.2-26.675-22.19a.3.3,0,0,0-.3.3.3.3,0,0,0,.3.3c4.347-.007,22.653,3.832,26.094,21.71A.3.3,0,0,0,85.527,365.445Z" fill="#fff"/><path d="M65.171,354.877a.3.3,0,0,0,.162-.072,15.746,15.746,0,0,1,13.116-2.716.3.3,0,1,0,.127-.578,16.355,16.355,0,0,0-13.634,2.849.3.3,0,0,0,.229.517Z" fill="#fff"/><path d="M414.278,357.407c-.061-5.178,3.554-15.948,8.846-22.735s13.681-11.8,19.706-9.824c5.611,1.845,5.094,9.184-1.628,14.124s-16.842,11.166-19.723,19.6l-6.132,10.38Z" fill="#27debf"/><path d="M414.278,357.407c-.061-5.178,3.554-15.948,8.846-22.735s13.681-11.8,19.706-9.824c5.611,1.845,5.094,9.184-1.628,14.124s-16.842,11.166-19.723,19.6l-6.132,10.38Z" opacity="0.1"/><path d="M413.981,364.5a.379.379,0,0,0,.337-.309c3.255-17.716,17.38-32.254,25.9-35.531a.378.378,0,0,0,.216-.489.373.373,0,0,0-.488-.217c-8.682,3.339-23.068,18.116-26.373,36.1a.378.378,0,0,0,.3.44A.4.4,0,0,0,413.981,364.5Z" fill="#fff"/><path d="M416.754,375.778c.8-2.92,4.293-7.766,10-11.8,6.307-4.466,14.332-6.58,16.147-10.019,2.18-4.13-1.326-7.966-7.85-7.077s-17.9,9.941-19.579,23.385Z" fill="#27debf"/><path d="M415.452,372.739a.376.376,0,0,0,.323-.254c5.239-15.207,16.727-20.66,22.07-21.419a.379.379,0,0,0,.321-.428.373.373,0,0,0-.428-.321c-5.908.839-17.332,6.4-22.678,21.922a.378.378,0,0,0,.392.5Z" fill="#fff"/><path d="M348.979,233.558c1.2.99,2.566,1.5,4.141,3.026a9.272,9.272,0,0,0,3.658,2.541c1.816.72,3.526.507,8.563-.3,6.163-.985,8.815-2.021,11.474-4.289,3.108-2.652,10.061-10.65,13.423-13.791,3.554-3.322,8.443-2.039,8.443-2.039a51.022,51.022,0,0,1-6.67,13.833c-2.693,3.833-7.722,7.5-10,9.394-3.641,3.028-5.575,4.226-13.573,4.827a82.589,82.589,0,0,1-11.773.455c-1.786-.053-2.9-.07-5.82-.314a17.164,17.164,0,0,1-3.753-.654,13.854,13.854,0,0,1-3.921-1.552,10.61,10.61,0,0,1-3.729-4.189,6.685,6.685,0,0,1-.694-3.016,4.44,4.44,0,0,1,1.087-2.858,1.224,1.224,0,0,1,.5-.369,1.474,1.474,0,0,1,1.088.233,63.641,63.641,0,0,0,5.775,3.064c1.673.645,2.943.869,2.819.532s-1.133-.647-2.171-1.817c-.991-1.117-1.3-2.8-.627-3.311S347.78,232.568,348.979,233.558Z" fill="#ffa8a7"/><path d="M400.113,218.68a9.234,9.234,0,0,0-6.116-.664c-3.11.894-5.6,2.928-8.568,6.111s-7.973,8.333-7.973,8.333,2.465,6.24,8,8.457l11.612-10.743Z" fill="#27debf"/><path d="M400.113,218.68a9.234,9.234,0,0,0-6.116-.664c-3.11.894-5.6,2.928-8.568,6.111s-7.973,8.333-7.973,8.333,2.465,6.24,8,8.457l11.612-10.743Z" opacity="0.1"/><path d="M345.442,234.165l11-6.408a3.781,3.781,0,0,1,3.423-.013l10.5,5.43a3.784,3.784,0,0,1,1.723,2.958l.048,12.733a3.778,3.778,0,0,1-1.7,2.971l-11,6.408a3.784,3.784,0,0,1-3.423.013l-10.5-5.43a3.789,3.789,0,0,1-1.723-2.959l-.048-12.732A3.784,3.784,0,0,1,345.442,234.165Z" fill="#37474f"/><path d="M372.092,235.844c-.126-.877-.836-1.193-1.69-.692L359.4,241.56a3.685,3.685,0,0,0-1.412,1.7,4.079,4.079,0,0,1,.205-.414l-13.93-7.394a3.471,3.471,0,0,1,1.207-1.283l11-6.408a3.774,3.774,0,0,1,3.424-.013l10.505,5.43A3.8,3.8,0,0,1,372.092,235.844Z" fill="#455a64" opacity="0.4"/><path d="M343.789,249.868a3.789,3.789,0,0,0,1.723,2.959l10.5,5.43a3.824,3.824,0,0,0,3.131.126c-.8.308-1.419-.145-1.423-1.12l-.049-12.734a3.49,3.49,0,0,1,.495-1.688l-13.933-7.394a3.505,3.505,0,0,0-.495,1.689Z" fill="#263238"/><rect width="7.04" height="12.051" transform="translate(410.133 361.248)" fill="#ffa8a7"/><path d="M397.692,364.282l-7.036.242L390.3,351.77l7.388-.242Z" fill="#ffa8a7"/><path d="M420.171,271.259c0,6.723-1.188,45.824-1.188,45.824.164,1.935,2.026,5.374,2.171,12.342.209,10.1-3.68,37.848-3.68,37.848a9.261,9.261,0,0,1-7.838.155s-3.194-37.609-4.455-47.61c-1.1-8.728-2.968-32.441-2.968-32.441l-3.316,28.5a40.037,40.037,0,0,1,.874,11.187c-.33,4.626-1.633,33.272-1.633,33.272a9.609,9.609,0,0,1-8.128.621s-4.965-40.836-5.047-45.081c-.093-4.839,1.84-54.237,1.84-54.237Z" fill="#37474f"/><path d="M415.547,221.806a6.476,6.476,0,0,1,3.392,3.531,16.523,16.523,0,0,1,1.031,6.084v13.793l.2,26.045c-10.1,5.326-22.949,5.682-33.73-2.19,0,0,.6-33.524.6-39.008,0-.247.006-.5.02-.753a12.513,12.513,0,0,1,15.7-11.254l6.38,1.641,6.406,2.111Z" fill="#27debf"/><path d="M366.559,247.679c1.324.814,2.75,1.126,4.523,2.42a9.264,9.264,0,0,0,3.976,2.007c1.9.46,16.821-4.582,19.589-6.714,5.619-4.329,10.478-12.49,13.182-15.585,2.228-2.55,4.756-6.388,7.5-6.406,4.538,1.374,3.511,8.124-.287,14.2a56.51,56.51,0,0,1-15.862,15.808c-3.274,2.147-18.351,6.039-23.361,6.367-1.524.1-2.65.441-5.553.853a12.29,12.29,0,0,1-3.614.193,15.648,15.648,0,0,1-4.292-1.309,10.6,10.6,0,0,1-4.275-3.629,6.675,6.675,0,0,1-1.107-2.89,4.432,4.432,0,0,1,.677-2.981,1.236,1.236,0,0,1,.449-.437,1.482,1.482,0,0,1,1.11.08,63.931,63.931,0,0,0,6.145,2.231c1.746.4,3.037.45,2.867.133s-1.213-.483-2.4-1.5c-1.136-.968-1.676-2.595-1.082-3.191S365.234,246.866,366.559,247.679Z" fill="#ffa8a7"/><path d="M407.145,196.15a9.674,9.674,0,1,1-9.674-9.674A9.674,9.674,0,0,1,407.145,196.15Z" fill="#263238"/><path d="M414.194,203.029s-1.567,7.366-2.2,8.576a3.336,3.336,0,0,1-1.928,1.554l.11-5.181Z" fill="#263238"/><path d="M412.227,192.477a3.633,3.633,0,0,1,3,1.057c1.291,1.32.57,5.45-1.037,9.5l-2.953.34Z" fill="#263238"/><path d="M410.355,203.371c.592.354,1.437-.784,2.167-1.548a2.57,2.57,0,0,1,4.3.7c1.211,2.553-1.05,5.927-2.927,6.516-3.234,1.016-3.719-1.059-3.719-1.059L409.94,220h0c-4.021,5.155-15.18,4.72-10.531-.666l.01-3.55a20.414,20.414,0,0,1-4.36.223c-2.379-.367-3.875-2.244-4.6-4.819-1.159-4.135-1.6-7.474-.616-15.608,1.078-8.914,11.446-9.007,17.046-5.483S410.355,203.371,410.355,203.371Z" fill="#ffa8a7"/><path d="M410.355,204.367c.3.006,1.43-1.873,2.167-2.544,1.022-.929-.3-9.346-.3-9.346a3.985,3.985,0,0,0-.986-4.256c-1.4-1.54-3.737-1.711-7.73-2.338-2.1-.33-5.271-.916-7.362-1.3-2.5-.464-4.565-.956-6.329.577a4.429,4.429,0,0,0-1.224,4.962,4.608,4.608,0,0,0,2.507,2.3s1.088.966,4.877,1.427a56,56,0,0,0,10.5-.2c1.1-.151,1.332.914,1.925,3.823C408.923,200.02,409.354,204.348,410.355,204.367Z" fill="#263238"/><path d="M412.221,193.132l3.58-1.922a1.972,1.972,0,0,0-2.71-.9A2.136,2.136,0,0,0,412.221,193.132Z" fill="#263238"/><path d="M399.418,215.786s5.311-1.07,7.167-2.057a6.1,6.1,0,0,0,2.565-2.539,8.345,8.345,0,0,1-1.458,2.995c-1.357,1.735-8.273,3.013-8.273,3.013Z" fill="#f28f8f"/><path d="M399.678,202.043a1.065,1.065,0,1,0,1.064-1.108A1.081,1.081,0,0,0,399.678,202.043Z" fill="#263238"/><path d="M400.807,198.026l2.276,1.256a1.365,1.365,0,0,0-.53-1.812A1.269,1.269,0,0,0,400.807,198.026Z" fill="#263238"/><path d="M399.9,209.394l-2.428.911a1.273,1.273,0,0,0,1.649.805A1.358,1.358,0,0,0,399.9,209.394Z" fill="#f28f8f"/><path d="M390.5,198.912l2.076-1.6a1.257,1.257,0,0,0-1.8-.276A1.374,1.374,0,0,0,390.5,198.912Z" fill="#263238"/><path d="M391.137,201.74a1.065,1.065,0,1,0,1.064-1.108A1.081,1.081,0,0,0,391.137,201.74Z" fill="#263238"/><path d="M396.559,200.731l-.35,6.4-3.341-1.139Z" fill="#f28f8f"/><path d="M410.133,369.824v-1.007c-.674.293-2.238,6.264-5.031,8.812-2.221,2.025-5.25,4.365-6.021,6.623-.8,2.348,4.218,3.644,6.293,3.277,2.41-.427,6.589-2.124,7.638-3.7s1.539-3.895,2.391-5.048,2.817-2.44,3.278-3.775a8.491,8.491,0,0,0-.4-3.7c-.326-1.245-.679-2.614-1.1-2.5,0,.152,0,.767,0,.767a5.571,5.571,0,0,1-3.52,1.19C412.623,370.814,410.125,370.609,410.133,369.824Z" fill="#263238"/><path d="M390.582,362.353c-.365.013-.663.528-1.47,1.4a15.372,15.372,0,0,1-4.14,2.98c-2.637,1.319-7.761,3.349-10.081,4.394-1.449.653-1.381,2.4.117,3.4s5.114,1.714,9.456.743c2.365-.529,5.444-2.714,7.393-2.6s5.6.09,7.036-.9.862-3.109.456-4.929c-.444-1.986-1-5.083-1.657-4.948v.685c-.846,1.281-5.213,1.8-7.073.86Z" fill="#263238"/><path d="M402.213,287.377a26.078,26.078,0,0,1-9.8-5.621s1.892,3.542,7.517,6.838l-.749,24.883Z" fill="#263238"/><path d="M415.617,221.808c3.353,1.644,4.713,4.143,3.224,9.717-1.337,5.005-6.467,13.537-10.5,17.714,0,0-6.9-3.271-10.581-7.524,3.64-5.569,5.39-8.843,8.808-13.552S413.57,221.245,415.617,221.808Z" fill="#27debf"/><g opacity="0.1"><path d="M415.617,221.808c3.353,1.644,4.713,4.143,3.224,9.717-1.337,5.005-6.467,13.537-10.5,17.714,0,0-6.9-3.271-10.581-7.524,3.64-5.569,5.39-8.843,8.808-13.552S413.57,221.245,415.617,221.808Z"/></g><path d="M105.727,217.045c3.709-.014,7.638-1.068,10.8,3.724s12.411,26.078,12.411,26.078-7.524,4.008-7.715,3.721S108.349,229.1,108.349,229.1Z" fill="#ffa8a7"/><path d="M101.607,212.6h0a15.41,15.41,0,0,1-15.41-15.41v-1.574a13.06,13.06,0,0,1,13.06-13.06h4.7a13.061,13.061,0,0,1,13.06,13.061v1.573A15.41,15.41,0,0,1,101.607,212.6Z" fill="#27debf"/><g opacity="0.2"><path d="M101.607,212.6h0a15.41,15.41,0,0,1-15.41-15.41v-1.574a13.06,13.06,0,0,1,13.06-13.06h4.7a13.061,13.061,0,0,1,13.06,13.061v1.573A15.41,15.41,0,0,1,101.607,212.6Z"/></g><path d="M79.607,214.206h0a7.172,7.172,0,0,0,7.171-7.171V192.777h0a7.17,7.17,0,0,0-7.171,7.171Z" fill="#27debf"/><path d="M79.607,214.206h0a7.172,7.172,0,0,0,7.171-7.171V192.777h0a7.17,7.17,0,0,0-7.171,7.171Z" opacity="0.2"/><path d="M117.477,368.8a41.816,41.816,0,0,0,6.025,5.241,2.552,2.552,0,0,1,.837.865c.284.591.726,2.053-1.968,2.994a10.021,10.021,0,0,1-8.313-.8c-2.213-1.385-2.311-4.266-4.4-5.909-1.547-1.217-3.478-1.53-4.728-3.12-.871-1.107-.644-2.582-.19-4.406.5-1.991.723-3.5,1.383-3.346l-.108.916c.821,1.313,5.085,1.7,6.982.8A78.054,78.054,0,0,0,117.477,368.8Z" fill="#263238"/><path d="M119.347,370.662v-.014c-.64-.587-1.268-1.192-1.87-1.85A51.966,51.966,0,0,1,114,363.669a7.9,7.9,0,0,1-1.486-3.746c-.044-1.761.125-4.895.125-4.895l-6.313-.416-.309,6.623h0c-.163,1.5,1.077,2.834,3.275,4.727s4.989,6.311,6.98,7.423,3.412,1.07,4.26.5C121.4,373.3,121.49,372.852,119.347,370.662Z" fill="#ffa8a7"/><path d="M96.454,375.111a41.816,41.816,0,0,0,6.025,5.24,2.552,2.552,0,0,1,.836.866c.285.59.726,2.053-1.968,2.993a10.018,10.018,0,0,1-8.313-.8c-2.213-1.386-2.311-4.267-4.4-5.91-1.548-1.217-3.479-1.529-4.729-3.12-.871-1.107-.644-2.581-.19-4.406.495-1.991.723-3.5,1.383-3.345l-.108.916c.822,1.312,5.085,1.7,6.982.794A78.013,78.013,0,0,0,96.454,375.111Z" fill="#263238"/><path d="M98.323,376.973v-.014c-.64-.587-1.268-1.192-1.869-1.85a51.876,51.876,0,0,1-3.479-5.128,8.927,8.927,0,0,1-1.479-3.812c-.114-1.546-.034-4.763-.034-4.763l-6.313.034-.158,6.106h0c-.163,1.5,1.077,2.834,3.276,4.728s4.989,6.311,6.979,7.422,3.412,1.07,4.261.5C100.38,379.613,100.466,379.164,98.323,376.973Z" fill="#ffa8a7"/><path d="M85.071,259.125c-5.5,12.02.757,57.6.757,57.6-.166,1.95-1.886,4.98-2.087,10.939-.259,7.647,1.1,35.89,1.1,35.89a7.975,7.975,0,0,0,7.2.143s6.517-38.336,7.789-48.421c1.11-8.8,3.241-29.49,3.241-29.49l4.382,29.442a28.422,28.422,0,0,0-2.368,9.352c-.157,5.958.722,33.608.722,33.608a16.665,16.665,0,0,0,7.316.251s6.63-37.418,7.253-44.557c.372-4.265-2.816-56.553-2.816-56.553Z" fill="#37474f"/><path d="M103.071,285.781l1.786-9.829s7.56-1.565,10.987-4.788a19.548,19.548,0,0,1-8.938,5.938l-2.007,8.6,1.983,25.688Z" fill="#263238"/><path d="M95.814,217.325h0c-4.828.667-7.417,1.733-8.976,6.271a17.7,17.7,0,0,0,.282,10.3l4.221,12.332a66.46,66.46,0,0,0-6.269,12.894c12.339,6.887,28.78,3.225,32.489-1.8.158-1.066-.842-6.219-.543-11.686.319-5.829,1.255-12.524.338-16.127-1.7-6.689-6.371-11.056-11.628-12.466Z" fill="#f5f5f5"/><path d="M92.935,230.268c-.211,3.172-1.168,11.889-1.168,11.889l4.043,6.392-4.47-2.318-3.966-11.586Z" fill="#e6e6e6"/><path d="M111.83,188.944c1.668.985,3.729,5.18,3.525,13.974-.172,7.454-2.587,9.294-3.8,9.825s-3.552.208-5.827-.171v4.473s3.144,3.651,2.946,5.7-4.539,2.536-7.481.532a19.051,19.051,0,0,1-4.827-5.053V207.413a2.855,2.855,0,0,1-4.047.383c-2.511-1.668-2.606-5.8-1.146-7.278s4.607-1.013,5.193,1.035a17.982,17.982,0,0,0,8.458-2.521A13.577,13.577,0,0,0,111.83,188.944Z" fill="#ffa8a7"/><path d="M107.034,201.046a.938.938,0,1,1-.985-.928A.953.953,0,0,1,107.034,201.046Z" fill="#263238"/><path d="M107.284,207.364l2.177.694a1.121,1.121,0,0,1-1.415.781A1.2,1.2,0,0,1,107.284,207.364Z" fill="#f28f8f"/><path d="M114.719,198.168l-1.9-1.314a1.108,1.108,0,0,1,1.576-.324A1.213,1.213,0,0,1,114.719,198.168Z" fill="#27debf"/><g opacity="0.2"><path d="M114.719,198.168l-1.9-1.314a1.108,1.108,0,0,1,1.576-.324A1.213,1.213,0,0,1,114.719,198.168Z"/></g><path d="M114.282,200.368a.938.938,0,1,1-.985-.928A.954.954,0,0,1,114.282,200.368Z" fill="#263238"/><path d="M109.86,199.831l.148,5.642,2.97-.92Z" fill="#f28f8f"/><path d="M105.727,212.572c-2.4-.315-7.328-1.731-8.1-3.68a5.044,5.044,0,0,0,1.729,2.487c1.473,1.263,6.367,2.685,6.367,2.685Z" fill="#f28f8f"/><path d="M145.209,235.724l-25.558,6.731-7.544,31.718,24.3-7.058Z" fill="#27debf"/><path d="M134.066,256.712c.237.648,1.636,2.446,4.612,2.3l.367-1.311Z" opacity="0.1"/><path d="M128.355,257.7c-.113.845-1.851,2.412-4.789,3.391-3.342,1.114-8.473.525-8.473.525l.46-1.578Z" opacity="0.1"/><path d="M137.727,240.317s.094-.436.211-.975-1.384-.561-3.351-.051l-3.765.977c-1.967.509-3.655,1.359-3.772,1.9l-.211.975Z" opacity="0.1"/><path d="M139.5,236.64c.074-.336-.533-.425-1.357-.2l-1.491.412s.445-2.108-2.864-1.372a5.187,5.187,0,0,0-4.033,3.131l-1.591.452c-.88.25-1.677.724-1.781,1.059l-.188.606,13.165-3.466S139.424,236.977,139.5,236.64Z" fill="#37474f"/><path d="M137.685,237.693c-1.206.291-1.708.451-1.888,1.281-.206.948-.29,1.643-.29,1.643l-5.826,1.54s.281-1.2.371-1.668-.109-.749-1.035-.5l-.079-.371,9.13-2.325Z" fill="#37474f"/><path d="M137.886,240.409l.21-.975c.117-.538-1.383-.561-3.35-.051l-3.765.976c-1.967.51-3.655,1.36-3.772,1.9l-.211.974Z" fill="#37474f"/><path d="M83.715,255.665l4.665-7.778s20.468,6,22.5,6.156a5.329,5.329,0,0,0,5.067-3.272c.775-2,2.141-1.748,2.141-1.748l-.794,3.338c-.193.808,4.681,1.471,7.383.556s6.615.414,4.192,4.094-7.137,4.1-10.411,4.107a34.436,34.436,0,0,1-4.094-.273c-1.059-.138-2.113-.245-3.178-.321C104.486,260.046,86.761,256.621,83.715,255.665Z" fill="#ffa8a7"/><path d="M142.609,245s-.916,3.265-1.134,4.045-3.191,2.194-5.069,2.71-3.933,1.128-3.045,3.755c.82,2.422,3.912,2.975,5.485,2.907s3.729-1.573,4.578-4c1.083-3.093.5-6.4.93-8.2S143.55,243.919,142.609,245Z" fill="#ffa8a7"/><path d="M88.38,247.887l4.094-15.557s2.354-8.427,0-14.346c0,0-1.945-.7-4.913,1.758s-4.6,7.983-5.628,12.486-3.153,19.343-2.907,20.878,3.012,2.495,11.193,4.04Z" fill="#ffa8a7"/><path d="M249.729,290.5c-14.443,0-26.151,6.747-26.151,15.07V341.9c0,8.323,11.708,15.07,26.151,15.07s26.15-6.747,26.15-15.07V305.572C275.879,297.249,264.171,290.5,249.729,290.5Z" fill="#ebebeb"/><path d="M249.729,290.5c-14.443,0-26.151,6.747-26.151,15.07V341.9c0,8.323,11.708,15.07,26.151,15.07s26.15-6.747,26.15-15.07V305.572C275.879,297.249,264.171,290.5,249.729,290.5Z" fill="#27debf"/><path d="M223.578,305.572V341.9c0,6.742,7.683,12.448,18.277,14.374V291.2C231.261,293.124,223.578,298.83,223.578,305.572Z" opacity="0.1"/><path d="M279.865,309.115c.192-.307,72.454-116.542,72.454-116.542S315.8,216.138,249.747,216.138a260.307,260.307,0,0,1-35.461-2.379c-43.53-5.98-67.112-21.186-67.112-21.186s72.219,116.219,72.4,116.517l.013.025h0c4.441,7.117,16.256,12.208,30.137,12.208s25.694-5.091,30.136-12.208Z" fill="#ebebeb"/><path d="M197.255,222.622,186.3,208.155c-25.55-6.835-39.13-15.582-39.13-15.582s72.219,116.219,72.4,116.517l.013.025h0c3.572,5.723,11.915,10.13,22.263,11.639Z" fill="#e0e0e0"/><path d="M340.96,101.9C318.881,89.15,290.792,81.99,261.942,80.424l-.014-.007c-36.954-2-75.107,5.156-103.4,21.491-50.372,29.09-50.365,76.24,0,105.319a154.794,154.794,0,0,0,38.722,15.395c34.6,8.875,74.573,8.531,108.751-1.027q7.227-2.007,14.059-4.579c1.893-.707,3.774-1.458,5.614-2.234l.009-.014c2.622-1.1,5.183-2.26,7.677-3.493,2.6-1.284,5.134-2.623,7.588-4.045C391.326,178.141,391.34,130.984,340.96,101.9Z" fill="#27debf"/><path d="M261.928,80.417c-36.954-2-75.107,5.156-103.4,21.491-50.372,29.09-50.365,76.24,0,105.319a154.794,154.794,0,0,0,38.722,15.395l.008-.014c-4.811-6.712-7.986-22.69,1.27-23.675a139.65,139.65,0,0,1-34.315-13.705c-14.478-8.359-24.293-18.332-28.415-28.842-3.509-8.968-2.692-18.036,2.459-26.924,4.977-8.652,13.968-16.863,25.928-23.786,24.059-13.9,56.738-20.569,89.07-20.018C253.26,85.658,252.53,81.617,261.928,80.417Z" opacity="0.1"/><path d="M335.029,105.675c-22.246-12.844-51.868-19.533-81.769-20.017-32.332-.551-65.011,6.122-89.07,20.018-11.96,6.923-20.951,15.134-25.928,23.786-5.151,8.888-5.968,17.956-2.459,26.924,4.122,10.51,13.937,20.483,28.415,28.842a139.65,139.65,0,0,0,34.315,13.705c4.736,1.25,9.6,2.312,14.55,3.185a203.146,203.146,0,0,0,26.523,2.9q2.771.123,5.521.18c3.056.076,6.131.087,9.182.011a205.032,205.032,0,0,0,30.9-2.927c.1-.016.233-.051.35-.058a182.269,182.269,0,0,0,19.461-4.486q6.762-1.971,13.093-4.449c1.77-.686,3.506-1.411,5.222-2.164q3.075-1.371,6.048-2.856c1.917-.973,3.785-1.992,5.612-3.034,12.018-6.927,20.967-15.162,25.973-23.8C372.031,142.277,362.315,121.428,335.029,105.675Z" fill="#f5f5f5"/><path d="M249.729,167.833c-30.288,0-56.133,10.925-66.358,26.306a158.352,158.352,0,0,0,15.162,4.794c4.736,1.249,9.6,2.312,14.55,3.185a203.142,203.142,0,0,0,26.524,2.9q2.769.123,5.52.18c3.056.075,6.131.087,9.182.011a205.032,205.032,0,0,0,30.9-2.927c.1-.016.233-.051.35-.058a182.269,182.269,0,0,0,19.461-4.486q5.661-1.65,11.014-3.664C305.782,178.726,279.971,167.833,249.729,167.833Z" fill="#ebebeb"/><path d="M293.028,168.84A12.328,12.328,0,1,1,280.7,156.511,12.328,12.328,0,0,1,293.028,168.84Z" fill="#27debf"/><path d="M277.262,173.276c-5.873-4.253-6.353-12.609-1.76-15.615h0a12.328,12.328,0,1,0,17.527,11.179C292.56,174.779,283.134,177.528,277.262,173.276Z" opacity="0.1"/><circle cx="20.685" cy="20.685" r="20.685" transform="translate(295.986 101.742) rotate(-22.5)" fill="#455a64"/><path d="M317.242,120.379c-9.852-7.134-10.658-21.155-2.952-26.2h0A20.685,20.685,0,1,0,343.7,112.936C342.909,122.9,327.1,127.514,317.242,120.379Z" fill="#37474f"/><path d="M201.122,61.857A16.22,16.22,0,1,1,184.9,45.638,16.22,16.22,0,0,1,201.122,61.857Z" fill="#455a64"/><path d="M180.378,67.694C172.651,62.1,172.02,51.1,178.063,47.15h0a16.22,16.22,0,1,0,23.059,14.707C200.5,69.672,188.1,73.289,180.378,67.694Z" fill="#37474f"/><path d="M163.488,139.392l8.561-18.615a6.09,6.09,0,0,1,4.5-3.183l18.852-2.563a6.083,6.083,0,0,1,5,2.3l11.841,16.72a6.088,6.088,0,0,1,.509,5.485l-8.56,18.614a6.093,6.093,0,0,1-4.5,3.183L180.842,163.9a6.087,6.087,0,0,1-5-2.3L164,144.876A6.086,6.086,0,0,1,163.488,139.392Z" fill="#27debf"/><path d="M175.837,161.6a6.087,6.087,0,0,0,5,2.3l18.851-2.563a6.153,6.153,0,0,0,4.239-2.73c-.775,1.149-2,1.122-2.911-.159l-11.839-16.721a5.625,5.625,0,0,1-.911-2.682L163.087,142.2a5.635,5.635,0,0,0,.91,2.681Z" opacity="0.1"/><path d="M200.131,116.953c-.976-1.037-2.2-.8-2.863.652L188.7,136.221a5.922,5.922,0,0,0-.289,3.542,6.649,6.649,0,0,1-.113-.735l-25.181,3.148a5.583,5.583,0,0,1,.4-2.806l8.556-18.612a6.076,6.076,0,0,1,4.5-3.183l18.854-2.567A6.132,6.132,0,0,1,200.131,116.953Z" fill="#fff" opacity="0.4"/><path d="M281.276,33.333l17.241-2.19a5.16,5.16,0,0,1,4.307,1.807l10.3,12.419A5.167,5.167,0,0,1,313.717,50L306.994,66.03a5.165,5.165,0,0,1-3.72,2.827l-17.24,2.19a5.164,5.164,0,0,1-4.308-1.807l-10.3-12.42a5.163,5.163,0,0,1-.589-4.635l6.724-16.025A5.159,5.159,0,0,1,281.276,33.333Z" fill="#27debf"/><path d="M270.833,52.185a5.163,5.163,0,0,0,.589,4.635l10.3,12.42a5.219,5.219,0,0,0,3.867,1.826c-1.175-.042-1.707-.938-1.192-2.166l6.724-16.026a4.769,4.769,0,0,1,1.522-1.858L279.078,34.3a4.776,4.776,0,0,0-1.521,1.859Z" opacity="0.1"/><path d="M313.87,49.641c.308-1.168-.417-1.944-1.755-1.769L294.872,50.06a5.019,5.019,0,0,0-2.679,1.381,5.559,5.559,0,0,1,.478-.411L279.106,34.317a4.748,4.748,0,0,1,2.2-.97l17.237-2.192a5.157,5.157,0,0,1,4.309,1.808l10.307,12.42A5.206,5.206,0,0,1,313.87,49.641Z" fill="#fff" opacity="0.4"/><path d="M240.512,103.563l9.306.161a2.765,2.765,0,0,1,2.145,1.288l4.51,7.373a2.771,2.771,0,0,1-.043,2.5l-4.793,7.979a2.762,2.762,0,0,1-2.188,1.213l-9.306-.161A2.768,2.768,0,0,1,238,122.63l-4.509-7.373a2.765,2.765,0,0,1,.043-2.5l4.793-7.979A2.762,2.762,0,0,1,240.512,103.563Z" fill="#37474f"/><path d="M256.538,114.706c.253-.6-.071-1.062-.794-1.072l-9.308-.162a2.69,2.69,0,0,0-1.526.526,3.346,3.346,0,0,1,.285-.181l-5.908-9.9a2.535,2.535,0,0,1,1.24-.345l9.305.159a2.76,2.76,0,0,1,2.145,1.289l4.511,7.374A2.784,2.784,0,0,1,256.538,114.706Z" fill="#455a64" opacity="0.4"/><path d="M233.531,112.755a2.765,2.765,0,0,0-.043,2.5L238,122.63a2.8,2.8,0,0,0,1.91,1.265c-.619-.113-.832-.628-.465-1.24l4.792-7.979a2.559,2.559,0,0,1,.95-.868l-5.911-9.9a2.548,2.548,0,0,0-.949.868Z" fill="#263238"/><path d="M253.238,392.387a13.646,13.646,0,1,1-13.646-13.646A13.647,13.647,0,0,1,253.238,392.387Z" fill="#27debf"/><path d="M235.786,397.3c-6.5-4.707-7.032-13.957-1.948-17.284h0a13.646,13.646,0,1,0,19.4,12.374C252.718,398.961,242.286,402,235.786,397.3Z" opacity="0.1"/><path d="M262.616,365.153l7.07.122a2.1,2.1,0,0,1,1.63.979l3.426,5.6a2.1,2.1,0,0,1-.033,1.9l-3.641,6.062a2.1,2.1,0,0,1-1.663.922l-7.07-.122a2.105,2.105,0,0,1-1.63-.979l-3.426-5.6a2.1,2.1,0,0,1,.034-1.9l3.64-6.062A2.1,2.1,0,0,1,262.616,365.153Z" fill="#37474f"/><path d="M274.792,373.619c.192-.452-.055-.807-.6-.815l-7.072-.122a2.033,2.033,0,0,0-1.16.4,2.039,2.039,0,0,1,.217-.138l-4.489-7.521a1.926,1.926,0,0,1,.942-.262l7.069.121a2.1,2.1,0,0,1,1.63.979l3.428,5.6A2.116,2.116,0,0,1,274.792,373.619Z" fill="#455a64" opacity="0.4"/><path d="M257.313,372.137a2.1,2.1,0,0,0-.034,1.9l3.426,5.6a2.127,2.127,0,0,0,1.451.961c-.471-.085-.633-.477-.353-.942l3.64-6.062a1.961,1.961,0,0,1,.722-.66l-4.491-7.521a1.942,1.942,0,0,0-.721.66Z" fill="#263238"/></g></svg>