<svg xmlns="http://www.w3.org/2000/svg" xmlns:xlink="http://www.w3.org/1999/xlink" width="833.769" height="192" viewBox="0 0 833.769 192"><defs><filter id="a" x="123.168" y="0" width="192" height="192" filterUnits="userSpaceOnUse"><feOffset input="SourceAlpha"/><feGaussianBlur stdDeviation="7.5" result="b"/><feFlood flood-opacity="0.11"/><feComposite operator="in" in2="b"/><feComposite in="SourceGraphic"/></filter></defs><g transform="translate(-1841.332 -5489.5)"><path d="M-33.394,1.353q-13.53,0-21.4-7.565t-7.872-20.6V-59.286q0-12.792,7.872-20.3t21.4-7.5q13.53,0,21.463,7.5T-4-59.286v32.472q0,13.038-7.934,20.6T-33.394,1.353Zm0-14.883A11.644,11.644,0,0,0-24.6-16.913a12.479,12.479,0,0,0,3.259-9.04V-59.778a12.479,12.479,0,0,0-3.259-9.04A11.644,11.644,0,0,0-33.394-72.2a11.487,11.487,0,0,0-8.672,3.383,12.479,12.479,0,0,0-3.259,9.04v33.825a12.479,12.479,0,0,0,3.259,9.04A11.487,11.487,0,0,0-33.394-13.53ZM60.823-37.884a27.933,27.933,0,0,1,2.829,12.669,24.785,24.785,0,0,1-3.075,12.669,23.23,23.23,0,0,1-9.778,9.9A32.005,32.005,0,0,1,35.117.984a33.678,33.678,0,0,1-15.5-3.506A23.126,23.126,0,0,1,9.287-12.669,27.449,27.449,0,0,1,6.335-25.338,28.94,28.94,0,0,1,9.163-38.007a17.479,17.479,0,0,1,6.15-7.011q.492-.369,0-.861a18.862,18.862,0,0,1-5.043-5.9,21.8,21.8,0,0,1-2.829-11.07,22.582,22.582,0,0,1,4.92-14.76,23.432,23.432,0,0,1,9.533-7.442A32.272,32.272,0,0,1,35.117-87.7,31,31,0,0,1,48.4-84.993a24.671,24.671,0,0,1,9.348,7.38,23.539,23.539,0,0,1,4.92,14.76,20.9,20.9,0,0,1-3.2,11.439A21.2,21.2,0,0,1,54.428-46q-.492.492,0,.861A17.82,17.82,0,0,1,60.823-37.884ZM25.892-67.4a11.4,11.4,0,0,0-1.23,5.166,12.769,12.769,0,0,0,1.6,6.4q2.829,4.428,8.733,4.428a10.242,10.242,0,0,0,8.979-4.428,12.6,12.6,0,0,0,1.6-6.519,11.4,11.4,0,0,0-1.23-5.166,9.082,9.082,0,0,0-3.69-3.875,11.4,11.4,0,0,0-5.781-1.414A10.335,10.335,0,0,0,29.52-71.4,9.035,9.035,0,0,0,25.892-67.4ZM43.85-18.2a14.638,14.638,0,0,0,2.337-8.61,15.426,15.426,0,0,0-1.722-7.626q-2.706-5.166-9.471-5.166-6.4,0-9.1,5.043a15.386,15.386,0,0,0-1.845,7.995,14.318,14.318,0,0,0,2.091,8Q28.967-13.9,35.117-13.9,41.021-13.9,43.85-18.2Z" transform="translate(1904 5657)" fill="#fff"/><path d="M-33.348-22.722v8.652A37.21,37.21,0,0,1-40.4-12.18l1.05,4.788c.462-.21.966-.42,3.192-1.218.882-.294,1.806-.63,2.814-1.008V-1.26a34.9,34.9,0,0,1-.294,4.872h4.956a41.74,41.74,0,0,1-.252-4.872v-10c1.092-.462,1.848-.8,3.024-1.344v1.932A24.005,24.005,0,0,1-21.8-10.92h11v8.484c0,1.05-.252,1.26-1.6,1.26A36.1,36.1,0,0,1-17.3-1.638a12.459,12.459,0,0,1,1.092,4.62c1.3.084,2.856.126,3.57.126,4.872,0,6.216-.84,6.216-3.99V-10.92h.378a29.614,29.614,0,0,1,4.116.252v-4.62a25.344,25.344,0,0,1-4.116.21h-.378v-3.528h.252a35.689,35.689,0,0,1,4.41.252V-22.89a43.069,43.069,0,0,1-4.746.21h-5.67v-4.074h4.536a42.464,42.464,0,0,1,4.41.21v-4.578a31.619,31.619,0,0,1-4.41.252H-12.18v-1.344a17.213,17.213,0,0,1,.21-3.108h-4.872a18.414,18.414,0,0,1,.252,3.15v1.3h-3.528a29.911,29.911,0,0,1-4.326-.252v4.578a41.943,41.943,0,0,1,4.326-.21h3.528v4.074h-4.788c-1.512,0-2.562-.042-3.864-.126v-4.41a17.642,17.642,0,0,1-3.36.252h-.336V-31.92a20.988,20.988,0,0,1,.252-3.444h-4.956a18.137,18.137,0,0,1,.294,3.444v4.956H-35.28l.126-1.722.084-.63a10.2,10.2,0,0,1,.252-2.142l-4.116-.5c.042.5.084.8.084,1.05a38.067,38.067,0,0,1-2.142,12.474,11.632,11.632,0,0,1,3.654,1.89,38.952,38.952,0,0,0,1.512-6.174Zm4.41,0h.672c.672,0,1.218,0,2.142.042v4.326a28.254,28.254,0,0,1,4.746-.252h10.584v3.528H-21.252c-1.848,0-3.066-.042-4.032-.126l-.042-1.848c-1.428.63-1.974.84-3.612,1.47ZM-24.108-8.4a31.629,31.629,0,0,1,5.334,6.888l3.654-2.772a34.348,34.348,0,0,0-5.5-6.426Zm64.89-20.454a19.467,19.467,0,0,1-3.486.21H33.054c.462-1.386.714-2.31,1.05-3.7a17.652,17.652,0,0,1,.546-2.016l-4.536-.966a34.428,34.428,0,0,1-3.486,11.97v-6.384a22.961,22.961,0,0,1,.126-2.814H22.932a24.857,24.857,0,0,1,.126,2.73v4.368H21.126v-6.426a29.486,29.486,0,0,1,.126-2.982H17.22a20.073,20.073,0,0,1,.168,2.982v6.426H15.414V-29.82a23.371,23.371,0,0,1,.084-2.73H12.222l.21-.252-3.78-2.73c-1.3,2.94-4.158,6.006-7.77,8.4a17.359,17.359,0,0,1,2.226,4.074,42.88,42.88,0,0,0,8.148-8.19,2.8,2.8,0,0,0,.5-.714,17.288,17.288,0,0,1,.126,2.142v5.712L8.9-25.7A26,26,0,0,1,.5-15.288,18.25,18.25,0,0,1,2.226-10.71,20.308,20.308,0,0,0,4.914-13.4C4.83-12.1,4.83-11.214,4.83-9.87v8.526A37.712,37.712,0,0,1,4.578,3.57H9.324a34.148,34.148,0,0,1-.21-4.788V-17.892A41.692,41.692,0,0,0,11.8-21.924a1.723,1.723,0,0,1-.042.462c.756-.042,1.89-.084,2.31-.084H25.452c-.462.588-.63.8-1.176,1.428.462.462.588.588.966,1.008-.63.042-1.344.042-2.394.042h-8.9a18.192,18.192,0,0,1-2.9-.168v4.2A22.353,22.353,0,0,1,14.28-15.2h2.478v3.066H14.7a19.783,19.783,0,0,1-3.108-.168V-8.19a21.683,21.683,0,0,1,3.066-.168h2.1v3.99a43.085,43.085,0,0,1-5.88.63h-.42L10.962.8C11.676.63,12.306.5,13.356.336c6.51-1.218,8.652-1.68,11.382-2.436-.84.588-1.3.924-2.646,1.764A20.461,20.461,0,0,1,24.78,3.4a30.556,30.556,0,0,0,7.686-7.77,34.275,34.275,0,0,0,6.342,7.56,27.423,27.423,0,0,1,2.478-4.578,26.631,26.631,0,0,1-6.426-7.14c2.31-5,3.234-9.072,3.57-15.96,1.134.042,1.47.084,2.352.168ZM26.166-6.174c-2.394.546-3.192.714-5.082,1.092V-8.358H22.47c1.428,0,2.394.042,3.4.126v-4.074a25.786,25.786,0,0,1-3.4.168H21.084V-15.2H23.6a16.371,16.371,0,0,1,2.688.168V-17.85c.252.378.336.546.672,1.05.378-.378.462-.5.756-.84a40.119,40.119,0,0,0,2.646,9.156,27.74,27.74,0,0,1-4.2,5.166ZM34.44-24.486a37,37,0,0,1-1.806,11.172,42.992,42.992,0,0,1-2.016-9.072c.336-.672.5-1.092.924-2.1Z" transform="translate(1908 5548)" fill="#fff"/><path d="M136.17-96.56H114.58v4.59h20.06v7.48H114.58v4.59h20.06v7.48H114.58v6.63h21.59v9.52H79.05V-89.76l-3.4,3.4-5.27-9.69,17-17.34h14.79l-7.14,7.48h8.67l7.31-7.48h13.77l-7.31,7.48h18.7ZM103.19-65.79v-6.63H91.12v6.63Zm0-14.11v-4.59H91.12v4.59Zm0-12.07v-4.59H91.12v4.59ZM88.23-114.92v-4.25H72.76v-11.05H88.23v-4.25H99.96v4.25H110.5v-4.25h11.73v4.25h14.45v11.05H122.23v4.25H110.5v-4.25H99.96v4.25ZM68.51-130.05V-119H34v-11.05Zm3.91,17.34v12.58H29.92v-12.58ZM32.64,3.74v-61.2H70.89V3.74ZM45.39-45.73V-7.99H58.14V-45.73ZM68.51-93.84v11.05H34V-93.84ZM34-64.77V-75.65H68.51v10.88ZM141.1-53.72,116.45-28.73,138.89-6.12,132.26,6.29,107.27-19.38v.17l-.85-.85L80.75,6.29,74.12-6.29,92.99-25.33,80.07-38.42h17l5.44,5.61,8.33-8.5H74.29V-53.72Z" transform="translate(2534 5656)" fill="#fff46e"/><path d="M143.14-134.13l11.05,25.84-10.37,5.61L132.6-128.69ZM116.62-122.4l10.37-5.61,11.73,27.03-10.54,5.61Zm-2.04-2.72v14.45H48.11v-14.45ZM43.18-78.71V-92.82h83.64v14.11H104.55L72.76.68H48.96L41.31-13.6H62.56L88.4-78.71Z" transform="translate(2144 5656)" fill="#fff46e"/><path d="M103.15-57.12H38.25V-71.91h64.9Z" transform="translate(2240 5656)" fill="#fff46e"/><path d="M82.45-120.87h46.92L80.75.68H51.85L44.54-13.09H70.21L93.84-72.08H62.9L55.59-53.89,42.5-60.86l28.9-72.42,13.09,6.97ZM68.34-85.68H99.28l8.16-20.74H76.5Z" transform="translate(2311 5656)" fill="#fff46e"/><g transform="translate(-312 2180)"><g transform="translate(2305.404 3376.227)"><g transform="translate(58.378 7.319)"><path d="M182.389,106.263H177.8a.6.6,0,0,1-.6-.6V66.417a.6.6,0,0,1,.6-.6h4.579a.831.831,0,0,0,0-1.663H177.8a2.265,2.265,0,0,0-2.262,2.262v39.246a2.265,2.265,0,0,0,2.262,2.262h4.589a.831.831,0,1,0,0-1.662Z" transform="translate(-175.538 -64.155)" fill="#3cbebe"/></g><g transform="translate(68.624 7.319)"><path d="M271.2,64.156h-5.019a.831.831,0,1,0,0,1.663H271.2a.6.6,0,0,1,.6.6v39.246a.6.6,0,0,1-.6.6h-5.009a.831.831,0,0,0,0,1.663H271.2a2.265,2.265,0,0,0,2.262-2.262V66.418A2.265,2.265,0,0,0,271.2,64.156Z" transform="translate(-265.351 -64.156)" fill="#3cbebe"/></g><g transform="translate(43.292)"><path d="M89.349,22.559a2.476,2.476,0,0,0,2.474-2.473v-2.2a2.476,2.476,0,0,0-2.474-2.473H84.055v-3.07h5.294a2.476,2.476,0,0,0,2.474-2.473v-2.2a2.476,2.476,0,0,0-2.474-2.473H84.055V3.224A3.227,3.227,0,0,0,80.831,0H54.283A3.227,3.227,0,0,0,51.06,3.224V5.192H45.765a2.476,2.476,0,0,0-2.473,2.473v2.2a2.476,2.476,0,0,0,2.473,2.473H51.06v3.07H45.765a2.476,2.476,0,0,0-2.473,2.473v2.2a2.476,2.476,0,0,0,2.473,2.473H51.06v3.07H45.765A2.476,2.476,0,0,0,43.292,28.1v2.2a2.476,2.476,0,0,0,2.473,2.473H51.06v3.07H45.765a2.476,2.476,0,0,0-2.473,2.473v2.2A2.476,2.476,0,0,0,45.765,43H51.06v3.07H45.765a2.476,2.476,0,0,0-2.473,2.473v2.2a2.476,2.476,0,0,0,2.473,2.473H51.06v1.968a3.227,3.227,0,0,0,3.224,3.224H80.831a3.227,3.227,0,0,0,3.224-3.224V53.216h5.294a2.476,2.476,0,0,0,2.474-2.473v-2.2a2.476,2.476,0,0,0-2.474-2.473H84.055V43h5.294a2.476,2.476,0,0,0,2.474-2.473v-2.2a2.476,2.476,0,0,0-2.474-2.473H84.055v-3.07h5.294A2.476,2.476,0,0,0,91.822,30.3V28.1a2.476,2.476,0,0,0-2.474-2.473H84.055v-3.07ZM84.055,6.854h5.294a.812.812,0,0,1,.811.811v2.2a.812.812,0,0,1-.811.811H84.055Zm0,10.219h5.294a.812.812,0,0,1,.811.811v2.2a.812.812,0,0,1-.811.811H84.055ZM51.06,51.554H45.765a.812.812,0,0,1-.811-.811v-2.2a.812.812,0,0,1,.811-.811H51.06v3.824Zm0-10.219H45.765a.812.812,0,0,1-.811-.811v-2.2a.812.812,0,0,1,.811-.811H51.06v3.824Zm0-10.219H45.765a.812.812,0,0,1-.811-.811V28.1a.812.812,0,0,1,.811-.811H51.06v3.824Zm0-10.219H45.765a.812.812,0,0,1-.811-.811v-2.2a.812.812,0,0,1,.811-.811H51.06V20.9Zm0-10.219H45.765a.812.812,0,0,1-.811-.811v-2.2a.812.812,0,0,1,.811-.811H51.06v3.824ZM82.392,55.184a1.563,1.563,0,0,1-1.561,1.561H54.283a1.563,1.563,0,0,1-1.561-1.561V3.224a1.563,1.563,0,0,1,1.561-1.561H80.831a1.563,1.563,0,0,1,1.561,1.561Zm6.957-7.454a.812.812,0,0,1,.811.811v2.2a.812.812,0,0,1-.811.811H84.055V47.73Zm0-10.219a.812.812,0,0,1,.811.811v2.2a.812.812,0,0,1-.811.811H84.055V37.511Zm0-10.219a.812.812,0,0,1,.811.811v2.2a.812.812,0,0,1-.811.811H84.055V27.292h5.294Z" transform="translate(-43.292)" fill="#3cbebe"/></g><g transform="translate(63.906 33.405)"><path d="M231.284,294.348a.437.437,0,0,0,.332-.424v-.647a.437.437,0,0,0-.574-.415q-1.331.441-3.108,1a1.756,1.756,0,0,0-.3-.47,1.493,1.493,0,0,0-.362-.3,1.7,1.7,0,0,0-.423-.167,2.746,2.746,0,0,0-.425-.078q-.186-.017-.423-.017a2.354,2.354,0,0,0-.937.169,1.448,1.448,0,0,0-.622.5,2.236,2.236,0,0,0-.339.76,4.189,4.189,0,0,0-.108,1.005v1.239a.437.437,0,0,0,.437.437h6.744a.437.437,0,0,0,.437-.437v-.666a.437.437,0,0,0-.437-.437h-3.072v-.254Zm-4.117,1.043h-2.04v-.512a.372.372,0,0,1,.112-.273.641.641,0,0,1,.288-.161,2.383,2.383,0,0,1,.32-.068,2.14,2.14,0,0,1,.279-.019,1.9,1.9,0,0,1,.288.023,2.263,2.263,0,0,1,.334.08.681.681,0,0,1,.3.184.431.431,0,0,1,.119.3Z" transform="translate(-223.997 -292.826)" fill="#3cbebe"/></g><g transform="translate(63.907 28.003)"><path d="M231.327,246.963a.357.357,0,0,0,.29-.351v-.782a.357.357,0,0,0-.433-.349l-6.9,1.488a.357.357,0,0,0-.282.349v.786a.357.357,0,0,0,.282.349l6.9,1.492a.357.357,0,0,0,.433-.349v-.787a.357.357,0,0,0-.294-.352l-1.336-.243v-.995Zm-2.288,1.146-2.828-.4,2.828-.385Z" transform="translate(-223.998 -245.472)" fill="#3cbebe"/></g><g transform="translate(63.906 21.504)"><path d="M231.353,192.676l-5.129-.032,5.173-.9a.265.265,0,0,0,.22-.261v-.7a.265.265,0,0,0-.223-.262q-.835-.132-2.456-.41-1.854-.317-2.679-.444l5.1-.032a.265.265,0,0,0,.263-.265v-.606a.265.265,0,0,0-.265-.265h-7.089a.265.265,0,0,0-.265.265v1.294a.265.265,0,0,0,.22.261l4.859.838-4.856.777a.265.265,0,0,0-.223.261v1.355a.265.265,0,0,0,.265.265h7.089a.265.265,0,0,0,.265-.265v-.611A.265.265,0,0,0,231.353,192.676Z" transform="translate(-223.997 -188.5)" fill="#3cbebe"/></g></g><g transform="translate(-424 -584)"><g transform="matrix(1, 0, 0, 1, 2577.33, 3893.5)" filter="url(#a)"><circle cx="73.5" cy="73.5" r="73.5" transform="translate(145.67 22.5)" fill="#fff46e"/></g><g transform="translate(2766 3959)"><path d="M394.5,389.363a1.2,1.2,0,0,0-1.458,1.908l2.052,1.568a1.2,1.2,0,0,0,1.619-.148l3.922-4.331a1.2,1.2,0,0,0-1.78-1.612l-3.181,3.512Z" transform="translate(-345.569 -339.962)" fill="#3cbebe"/><path d="M62.827,42.992a1.2,1.2,0,0,0-1.1-1.169c-2.857-.25-6.372-2.168-8.956-4.888a1.2,1.2,0,0,0-.87-.374h0a1.2,1.2,0,0,0-.87.373,18.182,18.182,0,0,1-3.9,3.1,21.679,21.679,0,0,0-8.955-5.989c-.031-.012-.062-.023-.093-.033q-.411-.146-.831-.278c2.974-2.966,4.975-6.864,4.975-10.361V21.483a3.971,3.971,0,0,0-.169-7.356,14.813,14.813,0,0,0-10.638-12.7A1.8,1.8,0,0,0,29.665,0H25.314a1.8,1.8,0,0,0-1.741,1.345,14.851,14.851,0,0,0-10.94,12.782,3.97,3.97,0,0,0-.167,7.356v1.886c0,3.494,2,7.393,4.975,10.361q-.408.128-.808.269a1.193,1.193,0,0,0-.153.055,21.673,21.673,0,0,0-9.8,7.016A27.991,27.991,0,0,0,1.456,52.53c-.354,1.6-.62,3.615.472,4.975C2.994,58.833,4.9,59,6.447,59H14.3a1.2,1.2,0,1,0,0-2.4H6.447c-1.436,0-2.327-.2-2.647-.6-.339-.422-.339-1.416,0-2.952,1.248-5.621,4.3-12.5,11.651-15.973-.226,4.057,1.972,6.708,3.369,8.391a1.2,1.2,0,0,0,1.761.094l6.767-6.581,6.771,6.581a1.2,1.2,0,0,0,.837.34l.065,0a1.2,1.2,0,0,0,.86-.433c1.4-1.684,3.59-4.337,3.366-8.386a19.143,19.143,0,0,1,5.638,4.051,10.384,10.384,0,0,1-2.806.691,1.2,1.2,0,0,0-1.1,1.168A20.148,20.148,0,0,0,43.534,53.96c.016.031.671,1.2,1.69,2.642H25.173a1.2,1.2,0,0,0,0,2.4H47.131c1.448,1.6,3.155,2.962,4.774,2.962,3.906,0,8.328-7.925,8.371-8A20.213,20.213,0,0,0,62.827,42.992ZM39.615,13.867H33c-1.249-3.263-1.485-5.953-1.528-9.9a12.415,12.415,0,0,1,8.139,9.9ZM25.914,2.4h3.152c.008,4.648.125,7.8,1.384,11.466H24.533C25.789,10.2,25.906,7.049,25.914,2.4ZM23.5,3.869c-.04,4-.269,6.709-1.526,10H15.086a12.577,12.577,0,0,1,8.419-10Zm-9.46,12.4h8.033c.071.057.139.065.2,0H40.657a1.57,1.57,0,0,1,0,3.141H14.045a1.57,1.57,0,1,1,0-3.141Zm.823,7.1V21.811H39.833v1.558c0,4.578-4.435,10.24-9.491,12.117a7.6,7.6,0,0,1-6,0C19.295,33.6,14.868,27.938,14.868,23.369Zm4.983,19.552a8.169,8.169,0,0,1-1.864-6.845q.794-.256,1.644-.465A16.141,16.141,0,0,0,23.5,37.734c.436.162.855.3,1.265.406Zm15,0L29.93,38.139c.4-.11.819-.242,1.248-.4a16.13,16.13,0,0,0,3.889-2.126q.841.2,1.644.464a8.174,8.174,0,0,1-1.862,6.845Zm23.311,9.905c-1.42,2.65-4.746,6.737-6.254,6.737s-4.834-4.087-6.255-6.739a17.346,17.346,0,0,1-2.273-8.761,15.075,15.075,0,0,0,3.97-1.405,1.2,1.2,0,0,0,.137-.071A20.233,20.233,0,0,0,51.9,39.451a18.063,18.063,0,0,0,8.528,4.612A17.4,17.4,0,0,1,58.159,52.826Z" transform="translate(-1.146 0)" fill="#3cbebe"/><path d="M147.175,471.373a1.2,1.2,0,1,0,0,2.4h.007a1.2,1.2,0,0,0-.007-2.4Z" transform="translate(-128.583 -414.771)" fill="#3cbebe"/></g></g></g><path d="M138.55-8.16l-6.8,12.75L106.93-18.87V3.74H92.82v-22.1L68.17,4.93,61.54-7.65,92.82-37.23V-51.51H62.56V-64.77H92.82V-75.14H68.51v-40.12L55.59-103.02V3.74H41.65V-90.1l-5.61,5.44-6.8-13.09,37.4-35.19H87.38l-3.23,2.89h47.77v54.91H106.93v10.37h30.09v13.26H106.93v13.43ZM81.94-117.47v29.75h36.38v-29.75Z" transform="translate(2414 5656)" fill="#fff46e"/></g></svg>