<svg xmlns="http://www.w3.org/2000/svg" width="463.074" height="461.548" viewBox="0 0 463.074 461.548"><g transform="translate(-18.269 -20.963)"><ellipse cx="231.537" cy="133.678" rx="231.537" ry="133.678" transform="translate(18.269 215.156)" fill="#f0f0f0"/><path d="M323.9,384.073a12.605,12.605,0,0,0-1.849-6.5h0a14.277,14.277,0,0,0-.794-1.216l-.041-.056a13.369,13.369,0,0,0-.868-1.065c-.028-.029-.055-.057-.082-.087a11.4,11.4,0,0,0-.937-.907c-.028-.025-.057-.046-.087-.071a9.262,9.262,0,0,0-1.028-.755c-.2-.125-.4-.238-.6-.337-.092-.046-.18-.08-.271-.12s-.209-.1-.312-.138c-.15-.057-.3-.1-.444-.142-.039-.011-.08-.028-.119-.038a4.506,4.506,0,0,0-.514-.1l-.03-.006a3.233,3.233,0,0,0-1.91.292h0l-.012.005v0c-5.289,2.653-35.772,22.047-49.8,30.79l-6.952,4.22a1.569,1.569,0,0,0-.513.486c-.017.024-.035.049-.052.075a2.053,2.053,0,0,0-.159.3c-.028.066-.05.138-.074.21-.028.089-.059.173-.08.271-.013.057-.019.121-.028.182-.32.173-.71.385-1.15.63l-1.027.555a40.42,40.42,0,0,0-7.929-5.877c-9.615-5.55-22.356-8.608-35.876-8.608s-26.261,3.058-35.876,8.608c-9.96,5.751-15.446,13.518-15.446,21.87s5.486,16.116,15.445,21.867c9.616,5.551,22.357,8.608,35.876,8.608s26.262-3.057,35.877-8.608c9.961-5.751,15.447-13.517,15.447-21.867a20.126,20.126,0,0,0-3.262-10.806l.917-.5a2.054,2.054,0,0,0,1.969.193l.043-.023c4.761-2.622,51.162-22.4,60.648-27.484h0l.006,0h0C323.115,387.322,323.834,385.994,323.9,384.073ZM241.851,440.81c-8.3,4.794-19.488,7.435-31.492,7.435s-23.188-2.641-31.491-7.435c-7.133-4.117-11.06-9.187-11.06-14.271s3.927-10.157,11.06-14.274c8.3-4.794,19.486-7.433,31.491-7.433s23.19,2.639,31.492,7.433c7.132,4.117,11.06,9.187,11.06,14.274S248.983,436.693,241.851,440.81Z" fill="#e0e0e0"/><path d="M330.984,266.6l-47.068-27.23a9.569,9.569,0,0,0-8.66,0L36.169,377.409c-2.392,1.381-2.392,3.619,0,5l47.066,27.232a9.577,9.577,0,0,0,8.661,0l89.6-51.73,13.772,8.006c7.293,4.211,19.118,4.212,26.411,0l41.057-23.531c7.294-4.208,7.295-11.034,0-15.244l-13.762-8,82.01-47.541C333.375,270.222,333.375,267.983,330.984,266.6Z" fill="#e0e0e0"/><path d="M442.576,350.017c18.024,10.4,18.024,27.276,0,37.682s-47.245,10.406-65.267,0-18.024-27.276,0-37.682S424.553,339.611,442.576,350.017Z" fill="#e0e0e0"/><path d="M436.157,338.77c.007-6.247-1.241-17.762,4.047-28.561,3.831-7.824,10.687-15.426,17.063-14.67,5.937.7,6.475,9.832.8,16.082s-12.907,14.894-14.482,28.711l-4.09,10.254Z" fill="#27debf"/><g opacity="0.2"><path d="M436.157,338.77c.007-6.247-1.241-17.762,4.047-28.561,3.831-7.824,10.687-15.426,17.063-14.67,5.937.7,6.475,9.832.8,16.082s-12.907,14.894-14.482,28.711l-4.09,10.254Z"/></g><path d="M438.286,343.159a.435.435,0,0,0,.36-.445c-.72-17.763,5.061-32.509,16.717-42.643a.433.433,0,0,0-.568-.655c-11.863,10.313-17.748,25.3-17.018,43.333a.437.437,0,0,0,.452.417A.519.519,0,0,0,438.286,343.159Z" fill="#fff"/><path d="M435.026,361.105a22.093,22.093,0,0,0,10.986,3.057c6.684.158,9.153-3.359,9.153-3.359s-3.4-5.794-7.348-7.018a36.849,36.849,0,0,1,11.985,3.138s4.005-.476,4.778-6.789c0,0-2.86-3.354-11.071-4.272a26.411,26.411,0,0,1,11.875-1.021c.551.137,1.72-8.049,1.9-11.777s-1.27-3.5-4.209-3.873-12.662.442-14.228,2.24-1.754,7.254-1.754,7.254-2.1-2.791-2.059-5.54a10.23,10.23,0,0,0-6.016.953c-3.038,1.538-4.014,2.769-4.165,5.1s-.347,5.825.589,8.535c0,0-2.768-4.463-2.627-8.347a41.234,41.234,0,0,0-2.826,5.913C428.69,348.7,430.238,356.933,435.026,361.105Z" fill="#27debf"/><path d="M435.14,361.524a.435.435,0,0,0,.3-.285c3.8-11.666,21.708-27.029,28.55-29.337a.433.433,0,0,0,.273-.55.42.42,0,0,0-.55-.272c-6.974,2.352-25.223,18.006-29.1,29.89a.435.435,0,0,0,.279.548A.442.442,0,0,0,435.14,361.524Z" fill="#fff"/><path d="M221.681,361.947l35.374-20.453c3.646-2.1,5.469-4.864,5.47-7.623s.015-4.921.015-4.921l-33.287-18.892a7.786,7.786,0,0,1-3.521-6.1V260.345l-61.786,35.7,0,43.613a7.783,7.783,0,0,0,3.521,6.1l27.806,16.188C202.564,366.158,214.388,366.158,221.681,361.947Z" fill="#37474f"/><path d="M178.779,347.384v4.9l-11.324-6.526a7.79,7.79,0,0,1-3.517-6.1V296.05l11.771-6.791c.244,2.989.509,6.079.752,9.088l-8.253,4.777V337.2a7.735,7.735,0,0,0,3.517,6.1Z" fill="#263238"/><path d="M168.206,337.206a7.784,7.784,0,0,0,3.521,6.1l23.539,13.723c7.293,4.211,19.118,4.212,26.411,0l35.392-20.452c7.294-4.208,7.3-11.034,0-15.245L233.516,307.6a7.783,7.783,0,0,1-3.522-6.1V267.424l-61.788,35.7Z" fill="#455a64"/><path d="M240.688,311.747v-.005l-7.172-4.141a7.783,7.783,0,0,1-3.522-6.1V267.424l-61.788,35.7v34.079a7.784,7.784,0,0,0,3.521,6.1l7.048,4.069Z" opacity="0.15"/><path d="M262.533,328.954v4.92c0,2.765-1.83,5.509-5.468,7.624L221.684,361.94a26.489,26.489,0,0,1-12.605,3.131v-4.9a26.477,26.477,0,0,0,12.605-3.131l35.381-20.462C260.7,334.483,262.533,331.719,262.533,328.954Z" fill="#37474f"/><path d="M69,384.257a9.443,9.443,0,0,0,8.531-.158L316.479,246.145a9.727,9.727,0,0,0,4.4-7.624V29.373a9.44,9.44,0,0,0-4.129-7.467,9.437,9.437,0,0,0-8.53.158L69.274,160.018a9.732,9.732,0,0,0-4.4,7.624l0,209.149A9.441,9.441,0,0,0,69,384.257Z" fill="#455a64"/><path d="M77.531,384.094,316.479,246.14a9.73,9.73,0,0,0,4.4-7.624V29.367c0-2.807-1.971-3.945-4.4-2.541L77.534,164.78a9.73,9.73,0,0,0-4.4,7.624l0,209.148C73.129,384.359,75.1,385.5,77.531,384.094Z" fill="#37474f"/><path d="M81.386,353.924l0-178.779a5.839,5.839,0,0,1,2.64-4.575L309.977,40.119c1.458-.842,2.64-.159,2.64,1.526l.008,178.782A5.837,5.837,0,0,1,309.983,225L84.026,355.449C82.568,356.291,81.386,355.608,81.386,353.924Z" fill="#27debf"/><path d="M81.386,353.924l0-178.779a5.839,5.839,0,0,1,2.64-4.575L309.977,40.119c1.458-.842,2.64-.159,2.64,1.526l.008,178.782A5.837,5.837,0,0,1,309.983,225L84.026,355.449C82.568,356.291,81.386,355.608,81.386,353.924Z" fill="#fff" opacity="0.7"/><path d="M196.553,306.653a2.612,2.612,0,0,1-1.324-.344,3.37,3.37,0,0,1-1.46-3.106,9.551,9.551,0,0,1,4.38-7.587h0a3,3,0,0,1,4.88,2.817,9.547,9.547,0,0,1-4.38,7.587A4.254,4.254,0,0,1,196.553,306.653Zm3.689-10.67a3.266,3.266,0,0,0-1.593.5h0a8.59,8.59,0,0,0-3.88,6.721,2.033,2.033,0,0,0,3.38,1.95,8.584,8.584,0,0,0,3.88-6.72,2.44,2.44,0,0,0-.96-2.241A1.64,1.64,0,0,0,200.242,295.983Z" fill="#27debf"/><path d="M351.868,73.762l-232.71,134.2V379.472a2.97,2.97,0,0,0,4.448,2.579l4.148-2.395L347.529,252.935a9.582,9.582,0,0,0,4.339-7.511Z" fill="#f0f0f0"/><path d="M350.868,75.493V245.424a8.624,8.624,0,0,1-3.838,6.645L127.255,378.79l-4.148,2.395a1.927,1.927,0,0,1-.972.266,2.012,2.012,0,0,1-1.378-.561,1.944,1.944,0,0,1-.6-1.418V208.537L350.868,75.493m1-1.731-232.71,134.2V379.472a2.978,2.978,0,0,0,2.976,2.979,2.926,2.926,0,0,0,1.472-.4l4.148-2.395L347.529,252.935a9.582,9.582,0,0,0,4.339-7.511V73.762Z" fill="#e0e0e0"/><path d="M346.349,70.575,113.624,204.764l5.534,3.2,232.71-134.2Z" fill="#455a64" opacity="0.8"/><path d="M120.717,382.091a3,3,0,0,1-1.558-2.619V207.959l-5.534-3.195-.007,170.565a4.807,4.807,0,0,0,.042.633,4.594,4.594,0,0,0,2.264,3.36l4.569,2.643.225.126Z" fill="#ebebeb"/><path d="M113.624,204.839V193.267a4.818,4.818,0,0,1,2.158-3.761L344.19,57.834a4.757,4.757,0,0,1,4.324-.011l1.189.687a4.786,4.786,0,0,1,2.165,3.75V73.851L119.158,208.032Z" fill="#27debf"/><path d="M113.624,204.839V193.267a4.818,4.818,0,0,1,2.158-3.761L344.19,57.834a4.757,4.757,0,0,1,4.324-.011l1.189.687a4.786,4.786,0,0,1,2.165,3.75V73.851L119.158,208.032Z" opacity="0.3"/><path d="M119.158,196.462a4.82,4.82,0,0,1,2.158-3.761L349.71,61.021c1.191-.7,2.158-.142,2.158,1.239V73.851L119.158,208.032Z" fill="#27debf"/><path d="M119.158,196.462a4.82,4.82,0,0,1,2.158-3.761L349.71,61.021c1.191-.7,2.158-.142,2.158,1.239V73.851L119.158,208.032Z" opacity="0.4"/><path d="M119.788,194.323a4.463,4.463,0,0,0-.63,2.139v11.571l-5.53-3.19v-11.58a4.43,4.43,0,0,1,.63-2.13Z" fill="#27debf"/><path d="M119.788,194.323a4.463,4.463,0,0,0-.63,2.139v11.571l-5.53-3.19v-11.58a4.43,4.43,0,0,1,.63-2.13Z" opacity="0.5"/><path d="M341.713,73.326c0,1.3.909,1.82,2.031,1.172a4.489,4.489,0,0,0,2.031-3.517c0-1.3-.91-1.82-2.031-1.173A4.49,4.49,0,0,0,341.713,73.326Z" fill="#fafafa"/><path d="M333.589,78.017c0,1.294.909,1.82,2.031,1.172a4.488,4.488,0,0,0,2.031-3.518c0-1.295-.909-1.82-2.031-1.173A4.49,4.49,0,0,0,333.589,78.017Z" fill="#fafafa"/><path d="M325.465,82.707c0,1.295.909,1.82,2.031,1.172a4.489,4.489,0,0,0,2.031-3.517c0-1.3-.91-1.82-2.031-1.173A4.49,4.49,0,0,0,325.465,82.707Z" fill="#fafafa"/><path d="M119.158,208.036V379.472a2.97,2.97,0,0,0,4.448,2.579l4.148-2.395,50.854-29.323V173.752l-59.451,34.28Z" fill="#fafafa"/><path d="M182.672,176.648v166.51L346.989,248.29V81.78Z" fill="#fafafa"/><path d="M165,193.872l-37.926,21.915a2.809,2.809,0,0,0-1.271,2.2v3.948c0,.811.569,1.139,1.271.734L165,200.754a2.808,2.808,0,0,0,1.272-2.2V194.6C166.271,193.795,165.7,193.467,165,193.872Z" fill="#27debf"/><path d="M165,193.872l-37.926,21.915a2.809,2.809,0,0,0-1.271,2.2v3.948c0,.811.569,1.139,1.271.734L165,200.754a2.808,2.808,0,0,0,1.272-2.2V194.6C166.271,193.795,165.7,193.467,165,193.872Z" fill="#fafafa" opacity="0.8"/><path d="M173.445,195.439l-1.118-1.076a4.982,4.982,0,0,0,.356-1.786,2.118,2.118,0,0,0-.836-1.92,1.325,1.325,0,0,0-1.361.06,4.466,4.466,0,0,0-1.756,3.633,2.116,2.116,0,0,0,.835,1.919,1.182,1.182,0,0,0,.6.161,1.525,1.525,0,0,0,.761-.222,3.018,3.018,0,0,0,.992-1.018l.917.882a.435.435,0,0,0,.3.124.446.446,0,0,0,.318-.135A.44.44,0,0,0,173.445,195.439Zm-2.959.007a.473.473,0,0,1-.48.06c-.183-.1-.4-.471-.4-1.156a3.641,3.641,0,0,1,1.316-2.87.644.644,0,0,1,.318-.1.325.325,0,0,1,.163.043c.182.1.4.471.4,1.157A3.638,3.638,0,0,1,170.486,195.446Z" fill="#455a64"/><path d="M126.727,234.257l-.851.491c-.05.029-.09,0-.09-.068v-2.3a.218.218,0,0,1,.09-.174l.851-.491c.05-.029.091,0,.091.069v2.3A.218.218,0,0,1,126.727,234.257Z" fill="#455a64"/><path d="M128,233.521l-.851.491c-.05.029-.091,0-.091-.069v-2.3a.219.219,0,0,1,.091-.174l.851-.491c.05-.029.091,0,.091.069v2.3A.217.217,0,0,1,128,233.521Z" fill="#455a64"/><path d="M129.277,232.785l-.851.491c-.05.029-.091,0-.091-.068v-2.3a.218.218,0,0,1,.091-.173l.851-.491c.05-.029.091,0,.091.069v2.3A.219.219,0,0,1,129.277,232.785Z" fill="#455a64"/><path d="M126.727,237.227l-.851.491c-.05.029-.09,0-.09-.069v-2.3a.218.218,0,0,1,.09-.174l.851-.491c.05-.029.091,0,.091.069v2.3A.217.217,0,0,1,126.727,237.227Z" fill="#455a64"/><path d="M128,236.491l-.851.491c-.05.029-.091,0-.091-.068v-2.3a.218.218,0,0,1,.091-.173l.851-.491c.05-.029.091,0,.091.069v2.3A.219.219,0,0,1,128,236.491Z" fill="#455a64"/><path d="M129.277,235.755l-.851.491c-.05.029-.091,0-.091-.068v-2.3a.218.218,0,0,1,.091-.173l.851-.491c.05-.029.091,0,.091.068v2.3A.218.218,0,0,1,129.277,235.755Z" fill="#455a64"/><path d="M126.862,245.073l-1.047-.638c-.04-.024-.04-.117,0-.187l1.047-1.848c.051-.089.124-.076.124.023v2.485C126.986,245.006,126.913,245.1,126.862,245.073Z" fill="#455a64"/><path d="M126.422,243.664l1.379-.8v.656l-1.379.795c-.117.068-.213-.024-.213-.2A.562.562,0,0,1,126.422,243.664Z" fill="#455a64"/><path d="M128.058,242.719l.47-.271v.655l-.47.271Z" fill="#455a64"/><path d="M129.8,242.042v2.412a.559.559,0,0,1-.212.45c-.117.068-.213-.021-.213-.205v-2.083l-.583.337V242.3l.8-.459C129.7,241.771,129.8,241.862,129.8,242.042Z" fill="#455a64"/><path d="M127.269,250.476a4.564,4.564,0,0,0-1.452,3.9c.173,1.255.918,1.207,1,1.789.009.063.05.086.1.06l.932-.529a.241.241,0,0,0,.1-.171c.1-.767,1.048-1.695,1.055-3.564C129,250.527,128.215,249.826,127.269,250.476Z" fill="#455a64"/><path d="M127.827,257.2l-.9.52c-.062.035-.112,0-.112-.085v-.828a.269.269,0,0,1,.112-.214l.9-.519c.062-.036.112,0,.112.084v.829A.267.267,0,0,1,127.827,257.2Z" fill="#455a64"/><path d="M127.486,231.025a5.465,5.465,0,0,0-1.631,3.451,3.611,3.611,0,0,0,.239,1.887l-.3,1.573c-.025.13.046.2.121.117l.906-.988a1.408,1.408,0,0,0,1.319-.388,5.464,5.464,0,0,0,1.634-3.456C129.984,231.02,128.836,229.915,127.486,231.025Zm.327,5.155c-.835.482-1.514-.171-1.514-1.455a4,4,0,0,1,1.514-3.2c.833-.481,1.512.172,1.512,1.456A4,4,0,0,1,127.813,236.18Z" fill="#455a64"/><path d="M127.486,261.373a5.465,5.465,0,0,0-1.631,3.451,3.613,3.613,0,0,0,.239,1.887l-.3,1.574c-.025.129.046.2.121.116l.906-.988a1.411,1.411,0,0,0,1.319-.388,5.464,5.464,0,0,0,1.634-3.457C129.984,261.367,128.836,260.263,127.486,261.373Zm.327,5.155c-.835.482-1.514-.171-1.514-1.456a4,4,0,0,1,1.514-3.2c.833-.481,1.512.172,1.512,1.456A4,4,0,0,1,127.813,266.528Z" fill="#455a64"/><path d="M128.766,272.493a2.107,2.107,0,0,1-.8,1.69c-.442.255-.8-.09-.8-.768a2.1,2.1,0,0,1,.8-1.691C128.409,271.47,128.766,271.814,128.766,272.493Z" fill="#455a64"/><path d="M130.138,272.734a1.4,1.4,0,0,1-.533,1.126c-.293.17-.531-.059-.531-.511a1.4,1.4,0,0,1,.531-1.126C129.9,272.053,130.138,272.282,130.138,272.734Z" fill="#455a64"/><path d="M128.91,277.336l-1.885,1.089v-2.386a1.637,1.637,0,0,1,.683-1.3l.519-.3c.378-.218.683.013.683.516Z" fill="#455a64"/><path d="M129.69,274.136l-.519.3v2.751l.979-.565v-2.137C130.15,274.145,129.944,273.989,129.69,274.136Z" fill="#455a64"/><path d="M125.8,275.24c0,.452.238.681.532.512a1.406,1.406,0,0,0,.531-1.126c0-.452-.238-.681-.531-.512A1.4,1.4,0,0,0,125.8,275.24Z" fill="#455a64"/><path d="M126.246,276.124l.519-.3v2.751l-.979.565V277A1.1,1.1,0,0,1,126.246,276.124Z" fill="#455a64"/><path d="M135.01,228.861l22.207-12.821c.6-.346,1.083-.1,1.083.547a2.321,2.321,0,0,1-1.083,1.8L135.01,231.207c-.6.345-1.082.1-1.082-.548A2.323,2.323,0,0,1,135.01,228.861Z" fill="#e0e0e0"/><path d="M135.01,239.314l22.207-12.821c.6-.345,1.083-.1,1.083.548a2.321,2.321,0,0,1-1.083,1.8L135.01,241.659c-.6.345-1.082.1-1.082-.547A2.323,2.323,0,0,1,135.01,239.314Z" fill="#e0e0e0"/><path d="M135.01,249.767l22.207-12.822c.6-.344,1.083-.1,1.083.548a2.321,2.321,0,0,1-1.083,1.8L135.01,252.112c-.6.346-1.082.1-1.082-.547A2.323,2.323,0,0,1,135.01,249.767Z" fill="#e0e0e0"/><path d="M135.01,260.22,157.217,247.4c.6-.345,1.083-.1,1.083.548a2.323,2.323,0,0,1-1.083,1.8L135.01,262.565c-.6.345-1.082.1-1.082-.547A2.323,2.323,0,0,1,135.01,260.22Z" fill="#e0e0e0"/><path d="M135.01,270.673l22.207-12.822c.6-.345,1.083-.1,1.083.548a2.321,2.321,0,0,1-1.083,1.8L135.01,273.018c-.6.345-1.082.1-1.082-.548A2.323,2.323,0,0,1,135.01,270.673Z" fill="#e0e0e0"/><path d="M139.072,279.208l22.207-12.822c.6-.345,1.083-.1,1.083.548a2.32,2.32,0,0,1-1.083,1.8l-22.207,12.822c-.6.345-1.082.1-1.082-.548A2.321,2.321,0,0,1,139.072,279.208Z" fill="#455a64"/><path d="M139.072,286.269l22.207-12.822c.6-.345,1.083-.1,1.083.548a2.321,2.321,0,0,1-1.083,1.8l-22.207,12.821c-.6.345-1.082.1-1.082-.548A2.323,2.323,0,0,1,139.072,286.269Z" fill="#e0e0e0"/><path d="M139.072,293.33l22.207-12.822c.6-.344,1.083-.1,1.083.548a2.321,2.321,0,0,1-1.083,1.8l-22.207,12.821c-.6.346-1.082.1-1.082-.548A2.323,2.323,0,0,1,139.072,293.33Z" fill="#e0e0e0"/><path d="M143.4,297.818,165.6,285c.6-.346,1.082-.1,1.082.547a2.318,2.318,0,0,1-1.082,1.8L143.4,300.164c-.6.345-1.083.1-1.083-.548A2.321,2.321,0,0,1,143.4,297.818Z" fill="#e0e0e0"/><path d="M138.2,303.893l1.8-3.182c.069-.121.069-.281,0-.323l-1.8-1.1c-.087-.054-.214.115-.214.284v4.282C137.99,304.024,138.117,304.047,138.2,303.893Z" fill="#455a64"/><path d="M143.4,304.855,165.6,292.033c.6-.345,1.082-.1,1.082.548a2.318,2.318,0,0,1-1.082,1.8L143.4,307.2c-.6.345-1.083.1-1.083-.548A2.319,2.319,0,0,1,143.4,304.855Z" fill="#e0e0e0"/><path d="M138.2,310.93l1.8-3.182c.069-.121.069-.282,0-.323l-1.8-1.1c-.087-.053-.214.115-.214.285v4.282C137.99,311.06,138.117,311.083,138.2,310.93Z" fill="#455a64"/><path d="M143.4,311.891,165.6,299.07c.6-.345,1.082-.1,1.082.548a2.317,2.317,0,0,1-1.082,1.8L143.4,314.236c-.6.346-1.083.1-1.083-.547A2.321,2.321,0,0,1,143.4,311.891Z" fill="#e0e0e0"/><path d="M138.2,317.966l1.8-3.182c.069-.121.069-.281,0-.323l-1.8-1.1c-.087-.052-.214.116-.214.285v4.282C137.99,318.1,138.117,318.12,138.2,317.966Z" fill="#455a64"/><path d="M143.4,318.928,165.6,306.106c.6-.345,1.082-.1,1.082.548a2.319,2.319,0,0,1-1.082,1.8L143.4,321.273c-.6.345-1.083.1-1.083-.548A2.321,2.321,0,0,1,143.4,318.928Z" fill="#e0e0e0"/><path d="M138.2,325l1.8-3.182c.069-.122.069-.281,0-.323l-1.8-1.1c-.087-.053-.214.116-.214.285v4.281C137.99,325.134,138.117,325.156,138.2,325Z" fill="#455a64"/><path d="M143.4,325.964,165.6,313.143c.6-.345,1.082-.1,1.082.547a2.318,2.318,0,0,1-1.082,1.8L143.4,328.31c-.6.345-1.083.1-1.083-.548A2.321,2.321,0,0,1,143.4,325.964Z" fill="#e0e0e0"/><path d="M138.2,332.039l1.8-3.182c.069-.121.069-.281,0-.323l-1.8-1.1c-.087-.054-.214.115-.214.284V332C137.99,332.17,138.117,332.193,138.2,332.039Z" fill="#455a64"/><path d="M143.4,333,165.6,320.179c.6-.345,1.082-.1,1.082.548a2.316,2.316,0,0,1-1.082,1.8L143.4,335.346c-.6.345-1.083.1-1.083-.548A2.319,2.319,0,0,1,143.4,333Z" fill="#e0e0e0"/><path d="M138.2,339.076l1.8-3.182c.069-.121.069-.282,0-.324l-1.8-1.1c-.087-.053-.214.115-.214.285v4.281C137.99,339.207,138.117,339.23,138.2,339.076Z" fill="#455a64"/><path d="M143.4,340.037,165.6,327.216c.6-.345,1.082-.1,1.082.547a2.318,2.318,0,0,1-1.082,1.8L143.4,342.382c-.6.345-1.083.1-1.083-.548A2.321,2.321,0,0,1,143.4,340.037Z" fill="#e0e0e0"/><path d="M138.2,346.112l1.8-3.182c.069-.121.069-.281,0-.323l-1.8-1.1c-.087-.053-.214.116-.214.285v4.282C137.99,346.243,138.117,346.266,138.2,346.112Z" fill="#455a64"/><path d="M143.4,347.073,165.6,334.252c.6-.345,1.082-.1,1.082.548a2.319,2.319,0,0,1-1.082,1.8L143.4,349.419c-.6.345-1.083.1-1.083-.548A2.324,2.324,0,0,1,143.4,347.073Z" fill="#e0e0e0"/><path d="M138.2,353.148l1.8-3.181c.069-.122.069-.282,0-.323l-1.8-1.1c-.087-.053-.214.115-.214.285v4.281C137.99,353.28,138.117,353.3,138.2,353.148Z" fill="#455a64"/><path d="M187.816,199.484l72.991-42.141a2.4,2.4,0,0,0,1.082-1.875V136.861c0-.691-.485-.97-1.082-.625l-72.991,42.133a2.393,2.393,0,0,0-1.082,1.875v18.615C186.734,199.549,187.219,199.829,187.816,199.484Z" fill="#f0f0f0"/><path d="M194.181,186.352a.214.214,0,0,1,.007-.045l.479-2-.662.382a.032.032,0,0,1-.042,0,.079.079,0,0,1-.017-.055v-.361a.186.186,0,0,1,.017-.076.112.112,0,0,1,.042-.051l1.061-.613a.032.032,0,0,1,.043,0,.073.073,0,0,1,.018.055v.317a.9.9,0,0,1-.037.195l-.48,2a.449.449,0,0,1-.025.07.1.1,0,0,1-.04.05l-.311.179a.028.028,0,0,1-.037,0A.064.064,0,0,1,194.181,186.352Z" fill="#455a64"/><path d="M195.952,182.985a.537.537,0,0,1,.286-.089.28.28,0,0,1,.2.087.5.5,0,0,1,.118.227,1.467,1.467,0,0,1,.045.327c0,.1.005.2.005.3s0,.208-.005.3a2.252,2.252,0,0,1-.045.379,1.675,1.675,0,0,1-.118.365,1.393,1.393,0,0,1-.2.315,1.051,1.051,0,0,1-.286.24.547.547,0,0,1-.287.091.288.288,0,0,1-.2-.087.507.507,0,0,1-.117-.228,1.571,1.571,0,0,1-.046-.326c0-.093,0-.192,0-.3s0-.21,0-.31a2.5,2.5,0,0,1,.046-.38,1.622,1.622,0,0,1,.117-.363,1.423,1.423,0,0,1,.2-.317A1.08,1.08,0,0,1,195.952,182.985Zm.237,1.38c.006-.2.006-.388,0-.573a1.126,1.126,0,0,0-.017-.147.246.246,0,0,0-.039-.1.1.1,0,0,0-.071-.043.188.188,0,0,0-.11.033.4.4,0,0,0-.112.1.5.5,0,0,0-.071.125.914.914,0,0,0-.04.148,1.246,1.246,0,0,0-.015.166c-.007.193-.007.384,0,.574a.9.9,0,0,0,.014.148.239.239,0,0,0,.04.1.106.106,0,0,0,.072.042.2.2,0,0,0,.112-.035.359.359,0,0,0,.11-.094.469.469,0,0,0,.072-.125.6.6,0,0,0,.04-.148A1.216,1.216,0,0,0,196.189,184.365Z" fill="#455a64"/><path d="M197.487,182.6c0,.089,0,.175,0,.26a1.139,1.139,0,0,1-.026.2.866.866,0,0,1-.064.192.76.76,0,0,1-.107.166.574.574,0,0,1-.152.125.315.315,0,0,1-.15.05.151.151,0,0,1-.107-.044.279.279,0,0,1-.064-.117.662.662,0,0,1-.027-.174c0-.043,0-.085,0-.125s0-.085,0-.134a1.065,1.065,0,0,1,.027-.205.932.932,0,0,1,.064-.191.7.7,0,0,1,.107-.166.561.561,0,0,1,.15-.124.31.31,0,0,1,.152-.05.142.142,0,0,1,.105.043.26.26,0,0,1,.065.116A.715.715,0,0,1,197.487,182.6Zm.555-.722a.3.3,0,0,1,.032-.067.127.127,0,0,1,.047-.045l.182-.1a.036.036,0,0,1,.039,0,.047.047,0,0,1,.015.041l0,.02-.006.024-1.1,2.853a.379.379,0,0,1-.033.067.129.129,0,0,1-.048.044l-.181.1c-.017.009-.03.011-.039,0a.048.048,0,0,1-.015-.042l0-.017a.086.086,0,0,1,.007-.025Zm-1,1.219a.285.285,0,0,0,.024.119c.012.023.035.025.067.007a.153.153,0,0,0,.068-.084.632.632,0,0,0,.024-.147,2.13,2.13,0,0,0,0-.226.328.328,0,0,0-.024-.12c-.013-.022-.035-.024-.068-.005a.149.149,0,0,0-.067.083.541.541,0,0,0-.024.147A1.708,1.708,0,0,0,197.047,183.1Zm1.47.1c0,.088,0,.175,0,.259a1.366,1.366,0,0,1-.026.205.852.852,0,0,1-.065.19.69.69,0,0,1-.107.167.566.566,0,0,1-.151.124.3.3,0,0,1-.151.05.139.139,0,0,1-.106-.043.27.27,0,0,1-.065-.116.77.77,0,0,1-.026-.174c0-.044-.005-.086-.005-.125s0-.085.005-.135a1.249,1.249,0,0,1,.026-.205.978.978,0,0,1,.065-.191.683.683,0,0,1,.106-.165.569.569,0,0,1,.151-.125.3.3,0,0,1,.151-.049.138.138,0,0,1,.106.042.264.264,0,0,1,.065.117A.827.827,0,0,1,198.517,183.2Zm-.44.5a.291.291,0,0,0,.024.12c.012.022.034.024.067.005a.151.151,0,0,0,.068-.083.58.58,0,0,0,.023-.147,2.13,2.13,0,0,0,0-.226.307.307,0,0,0-.023-.119c-.013-.022-.035-.024-.068-.006a.148.148,0,0,0-.067.084.528.528,0,0,0-.024.147A2.112,2.112,0,0,0,198.077,183.7Z" fill="#455a64"/><path d="M194.17,180.618l-.733-1.13a14.732,14.732,0,0,0-1.732,4.668l1.185-.091A10.85,10.85,0,0,1,194.17,180.618Z" fill="#455a64"/><path d="M196.237,178.385V176.47a8.3,8.3,0,0,0-2.8,3.018l.733,1.13A6.157,6.157,0,0,1,196.237,178.385Z" fill="#455a64"/><path d="M192.716,185.839a9.572,9.572,0,0,1,.174-1.774l-1.185.091a13.105,13.105,0,0,0-.233,2.4,9.192,9.192,0,0,0,.233,2.132l1.185-1.276A6.723,6.723,0,0,1,192.716,185.839Z" fill="#455a64"/><path d="M200.77,178.922a3.934,3.934,0,0,0-1.732-2.667,2.778,2.778,0,0,0-2.8.215v1.915a2.049,2.049,0,0,1,2.068-.154,2.9,2.9,0,0,1,1.28,1.967,6.729,6.729,0,0,1,.174,1.575,9.591,9.591,0,0,1-.174,1.775,10.844,10.844,0,0,1-1.28,3.446,6.142,6.142,0,0,1-2.068,2.233,2.045,2.045,0,0,1-2.067.154,2.9,2.9,0,0,1-1.28-1.967l-1.185,1.276a3.932,3.932,0,0,0,1.732,2.667,2.776,2.776,0,0,0,2.8-.214,8.306,8.306,0,0,0,2.8-3.019,14.727,14.727,0,0,0,1.732-4.667,13.115,13.115,0,0,0,.233-2.4A9.2,9.2,0,0,0,200.77,178.922Z" fill="#27debf"/><path d="M208.127,173.678l22.207-12.822c.6-.345,1.083-.1,1.083.548a2.323,2.323,0,0,1-1.083,1.8l-22.207,12.821c-.6.345-1.083.1-1.083-.547A2.321,2.321,0,0,1,208.127,173.678Z" fill="#455a64"/><path d="M208.127,178.4l38.456-22.2c.6-.345,1.082-.1,1.082.548a2.324,2.324,0,0,1-1.082,1.8l-38.456,22.2c-.6.345-1.083.1-1.083-.548A2.323,2.323,0,0,1,208.127,178.4Z" fill="#e0e0e0"/><path d="M267.019,153.748l72.99-42.141a2.4,2.4,0,0,0,1.082-1.875V91.125c0-.69-.485-.97-1.082-.625l-72.99,42.133a2.39,2.39,0,0,0-1.083,1.875v18.615C265.936,153.813,266.421,154.093,267.019,153.748Z" fill="#f0f0f0"/><path d="M273.742,138.91a1.373,1.373,0,0,1,.055-.388,1.552,1.552,0,0,1,.145-.352,1.448,1.448,0,0,1,.209-.288,1.028,1.028,0,0,1,.242-.2.585.585,0,0,1,.242-.082.327.327,0,0,1,.208.047.4.4,0,0,1,.145.185.837.837,0,0,1,.055.325,1.079,1.079,0,0,1-.016.191,1.287,1.287,0,0,1-.037.179c-.014.058-.033.115-.051.171s-.039.109-.058.161L274.46,140a.457.457,0,0,0-.025.057.1.1,0,0,1-.044.051l-.354.2a.022.022,0,0,1-.031-.005.064.064,0,0,1-.013-.045.09.09,0,0,1,0-.03.04.04,0,0,1,.008-.02l.284-.78a.472.472,0,0,1-.208.03.323.323,0,0,1-.175-.074.428.428,0,0,1-.119-.182A.872.872,0,0,1,273.742,138.91Zm.89-.514a.268.268,0,0,0-.021-.113.12.12,0,0,0-.051-.064.131.131,0,0,0-.078-.018.19.19,0,0,0-.089.029.385.385,0,0,0-.09.075.5.5,0,0,0-.076.106.445.445,0,0,0-.054.126.459.459,0,0,0-.021.136.265.265,0,0,0,.021.113.13.13,0,0,0,.054.065.112.112,0,0,0,.076.017.21.21,0,0,0,.09-.029.4.4,0,0,0,.089-.074.707.707,0,0,0,.078-.106.544.544,0,0,0,.051-.127A.454.454,0,0,0,274.632,138.4Z" fill="#455a64"/><path d="M275.878,136.826a.539.539,0,0,1,.286-.09.281.281,0,0,1,.2.088.5.5,0,0,1,.119.227,1.528,1.528,0,0,1,.045.327c0,.1.005.2.005.3s0,.208-.005.3a2.358,2.358,0,0,1-.045.38,1.651,1.651,0,0,1-.119.364,1.34,1.34,0,0,1-.2.316,1.051,1.051,0,0,1-.286.24.548.548,0,0,1-.288.091.285.285,0,0,1-.2-.087.524.524,0,0,1-.119-.228,1.519,1.519,0,0,1-.045-.327c0-.092,0-.191,0-.3s0-.209,0-.309a2.358,2.358,0,0,1,.045-.38,1.679,1.679,0,0,1,.119-.363,1.452,1.452,0,0,1,.2-.317A1.1,1.1,0,0,1,275.878,136.826Zm.236,1.38q.01-.3,0-.573a1.4,1.4,0,0,0-.015-.148.279.279,0,0,0-.039-.1.1.1,0,0,0-.072-.043.188.188,0,0,0-.11.033.361.361,0,0,0-.112.1.482.482,0,0,0-.071.125.888.888,0,0,0-.04.148,1.1,1.1,0,0,0-.014.166q-.012.29,0,.573a.909.909,0,0,0,.013.149.241.241,0,0,0,.04.1.1.1,0,0,0,.072.042.185.185,0,0,0,.112-.034.37.37,0,0,0,.11-.093.527.527,0,0,0,.072-.126.7.7,0,0,0,.041-.148A1.243,1.243,0,0,0,276.114,138.206Z" fill="#455a64"/><path d="M277.413,136.442c0,.089,0,.175,0,.26a1.148,1.148,0,0,1-.026.2.867.867,0,0,1-.064.192.728.728,0,0,1-.108.166.581.581,0,0,1-.15.124.321.321,0,0,1-.151.05.149.149,0,0,1-.107-.042.289.289,0,0,1-.064-.118.822.822,0,0,1-.028-.174c0-.044,0-.085,0-.125s0-.085,0-.134a1.366,1.366,0,0,1,.028-.205.93.93,0,0,1,.064-.191.7.7,0,0,1,.107-.166.55.55,0,0,1,.151-.124.318.318,0,0,1,.15-.051.139.139,0,0,1,.105.044.253.253,0,0,1,.067.116A.769.769,0,0,1,277.413,136.442Zm.555-.722a.352.352,0,0,1,.032-.067.135.135,0,0,1,.047-.045l.182-.1a.037.037,0,0,1,.04,0,.054.054,0,0,1,.014.041l0,.019a.073.073,0,0,1-.007.024l-1.1,2.854a.464.464,0,0,1-.033.067.133.133,0,0,1-.047.044l-.182.1c-.017.009-.029.011-.039,0a.05.05,0,0,1-.016-.042l0-.017a.063.063,0,0,1,.007-.025Zm-.994,1.219a.289.289,0,0,0,.023.119c.013.023.035.025.068.007a.15.15,0,0,0,.067-.085.567.567,0,0,0,.024-.147,2.111,2.111,0,0,0,0-.225.309.309,0,0,0-.024-.12c-.013-.022-.034-.024-.067-.005a.148.148,0,0,0-.068.083.545.545,0,0,0-.023.147A1.7,1.7,0,0,0,276.974,136.939Zm1.469.105c0,.088,0,.175,0,.26a1.149,1.149,0,0,1-.027.2.9.9,0,0,1-.063.19.728.728,0,0,1-.109.167.557.557,0,0,1-.149.124.3.3,0,0,1-.152.05.142.142,0,0,1-.107-.043.279.279,0,0,1-.064-.116.716.716,0,0,1-.026-.174c0-.044-.006-.086-.006-.125s0-.085.006-.135a1.159,1.159,0,0,1,.026-.205,1.019,1.019,0,0,1,.064-.191.7.7,0,0,1,.107-.165.562.562,0,0,1,.152-.126.3.3,0,0,1,.149-.048.144.144,0,0,1,.108.042.266.266,0,0,1,.064.117A.706.706,0,0,1,278.443,137.044Zm-.44.5a.309.309,0,0,0,.024.12c.012.023.033.024.068,0a.154.154,0,0,0,.067-.083.579.579,0,0,0,.023-.147,1.7,1.7,0,0,0,0-.226.306.306,0,0,0-.023-.119c-.013-.023-.035-.025-.067-.007a.145.145,0,0,0-.068.084.585.585,0,0,0-.024.148A1.687,1.687,0,0,0,278,137.54Z" fill="#455a64"/><path d="M276.1,132.263v-1.915a8.306,8.306,0,0,0-2.8,3.019l.733,1.13A6.137,6.137,0,0,1,276.1,132.263Z" fill="#455a64"/><path d="M280.631,132.8a3.937,3.937,0,0,0-1.732-2.668,2.776,2.776,0,0,0-2.8.215v1.915a2.045,2.045,0,0,1,2.067-.154,2.894,2.894,0,0,1,1.28,1.968,6.71,6.71,0,0,1,.173,1.574,9.589,9.589,0,0,1-.173,1.775,10.819,10.819,0,0,1-1.278,3.442,6.179,6.179,0,0,1-2.069,2.238,2.049,2.049,0,0,1-2.068.154,2.9,2.9,0,0,1-1.28-1.968,6.717,6.717,0,0,1-.174-1.575,9.581,9.581,0,0,1,.174-1.774,10.82,10.82,0,0,1,1.28-3.446l-.733-1.13a14.717,14.717,0,0,0-1.732,4.667,13.11,13.11,0,0,0-.233,2.4,9.193,9.193,0,0,0,.233,2.133,3.936,3.936,0,0,0,1.732,2.668,2.778,2.778,0,0,0,2.8-.215A8.3,8.3,0,0,0,278.9,142l0,0,0,0a14.718,14.718,0,0,0,1.732-4.667,13.1,13.1,0,0,0,.232-2.4A9.2,9.2,0,0,0,280.631,132.8Z" fill="#27debf"/><path d="M287.97,127.556l22.207-12.821c.6-.345,1.082-.1,1.082.547a2.323,2.323,0,0,1-1.082,1.8L287.969,129.9c-.6.346-1.082.1-1.082-.547A2.319,2.319,0,0,1,287.97,127.556Z" fill="#455a64"/><path d="M287.97,132.284l38.455-22.2c.6-.345,1.082-.1,1.082.548a2.323,2.323,0,0,1-1.082,1.8l-38.456,22.2c-.6.345-1.082.1-1.082-.548A2.318,2.318,0,0,1,287.97,132.284Z" fill="#e0e0e0"/><path d="M195.252,204.586l15.577-9.02c.6-.345,1.082-.1,1.082.548a2.322,2.322,0,0,1-1.082,1.8l-15.577,9.02c-.6.345-1.082.1-1.082-.548A2.324,2.324,0,0,1,195.252,204.586Z" fill="#455a64"/><path d="M340.551,126.524h0m-.459.265V245.755a1.423,1.423,0,0,1-.582,1.009L187.735,334.388V215.421a1.417,1.417,0,0,1,.583-1.008l1.9-1.1a3.4,3.4,0,0,0,1.582-2.741V203.7a1.421,1.421,0,0,1,.583-1.009l21.789-12.576v6.4a1.634,1.634,0,0,0,1.6,1.773,1.959,1.959,0,0,0,.983-.282l123.341-71.207M214.627,189.845h0M340.492,125.53a.986.986,0,0,0-.483.148L216.251,197.13a.986.986,0,0,1-.483.148c-.355,0-.6-.283-.6-.773v-6.881c0-.49-.243-.773-.6-.773a.986.986,0,0,0-.483.148L191.879,201.82A2.4,2.4,0,0,0,190.8,203.7v6.881a2.393,2.393,0,0,1-1.082,1.875l-1.9,1.1a2.4,2.4,0,0,0-1.083,1.875V334.873c0,.49.244.773.6.773a.97.97,0,0,0,.483-.148L340.01,247.63a2.4,2.4,0,0,0,1.082-1.875V126.3c0-.489-.244-.773-.6-.773Z" fill="#e0e0e0"/><path d="M196.521,220.615a1.047,1.047,0,0,1-.531-.139,1.25,1.25,0,0,1-.567-1.134v-4.535a2.907,2.907,0,0,1,1.333-2.308l12.069-6.959a1.151,1.151,0,0,1,1.833,1.058v4.536a2.9,2.9,0,0,1-1.333,2.307l-12.069,6.96A1.487,1.487,0,0,1,196.521,220.615Zm.735-7.25a1.9,1.9,0,0,0-.833,1.442v4.535c0,.172.047.256.068.268s.117.01.265-.075l12.069-6.96a1.9,1.9,0,0,0,.833-1.441V206.6c0-.171-.046-.255-.067-.267s-.117-.01-.266.075Z" fill="#e0e0e0"/><path d="M197.973,215.233l7.866-4.565c.4-.229.721-.066.721.365a1.545,1.545,0,0,1-.721,1.2l-7.866,4.565c-.4.23-.722.067-.722-.365A1.545,1.545,0,0,1,197.973,215.233Z" fill="#e0e0e0"/><path d="M207.668,209.92l.652.926c.025.035.074.008.1-.057l.652-1.678c.031-.081,0-.156-.05-.126l-1.3.753A.157.157,0,0,0,207.668,209.92Z" fill="#455a64"/><path d="M194.859,264.561c.576-.332,1.043-.063,1.043.6a2.307,2.307,0,0,1-1.043,1.808c-.577.333-1.044.063-1.044-.6A2.306,2.306,0,0,1,194.859,264.561Z" fill="#27debf"/><path d="M202.983,255.18c.576-.333,1.043-.063,1.043.6a2.307,2.307,0,0,1-1.043,1.808c-.577.333-1.044.063-1.044-.6A2.306,2.306,0,0,1,202.983,255.18Z" fill="#27debf"/><path d="M211.106,250.49c.577-.333,1.044-.063,1.044.6a2.3,2.3,0,0,1-1.044,1.808c-.576.333-1.043.063-1.043-.6A2.307,2.307,0,0,1,211.106,250.49Z" fill="#27debf"/><path d="M219.231,247.859c.577-.333,1.043-.063,1.043.6a2.3,2.3,0,0,1-1.043,1.808c-.577.332-1.044.063-1.044-.6A2.307,2.307,0,0,1,219.231,247.859Z" fill="#27debf"/><path d="M227.364,239.413c.576-.333,1.044-.063,1.044.6a2.307,2.307,0,0,1-1.044,1.807c-.576.333-1.044.063-1.044-.6A2.309,2.309,0,0,1,227.364,239.413Z" fill="#27debf"/><path d="M235.479,236.418c.577-.333,1.044-.063,1.044.6a2.307,2.307,0,0,1-1.044,1.808c-.577.333-1.044.063-1.044-.6A2.306,2.306,0,0,1,235.479,236.418Z" fill="#27debf"/><path d="M243.6,227.037c.576-.333,1.044-.063,1.044.6a2.3,2.3,0,0,1-1.044,1.807c-.577.333-1.044.064-1.044-.6A2.306,2.306,0,0,1,243.6,227.037Z" fill="#27debf"/><path d="M251.727,224.692c.577-.333,1.044-.063,1.044.6a2.306,2.306,0,0,1-1.044,1.808c-.577.332-1.044.063-1.044-.6A2.306,2.306,0,0,1,251.727,224.692Z" fill="#27debf"/><path d="M259.852,198.9c.576-.333,1.043-.063,1.043.6a2.309,2.309,0,0,1-1.043,1.808c-.578.332-1.044.063-1.044-.6A2.3,2.3,0,0,1,259.852,198.9Z" fill="#27debf"/><path d="M267.976,212.966c.576-.333,1.044-.063,1.044.6a2.31,2.31,0,0,1-1.044,1.808c-.578.332-1.044.063-1.044-.6A2.3,2.3,0,0,1,267.976,212.966Z" fill="#27debf"/><path d="M276.1,212.966c.576-.333,1.043-.063,1.043.6a2.309,2.309,0,0,1-1.043,1.808c-.578.332-1.044.063-1.044-.6A2.3,2.3,0,0,1,276.1,212.966Z" fill="#27debf"/><path d="M284.224,212.966c.576-.332,1.044-.063,1.044.6a2.309,2.309,0,0,1-1.044,1.808c-.577.333-1.044.063-1.044-.6A2.307,2.307,0,0,1,284.224,212.966Z" fill="#27debf"/><path d="M292.347,198.9c.577-.332,1.044-.063,1.044.6a2.306,2.306,0,0,1-1.044,1.808c-.576.333-1.044.063-1.044-.6A2.309,2.309,0,0,1,292.347,198.9Z" fill="#27debf"/><path d="M300.471,196.2c.577-.333,1.044-.063,1.044.6a2.306,2.306,0,0,1-1.044,1.808c-.576.333-1.043.063-1.043-.6A2.309,2.309,0,0,1,300.471,196.2Z" fill="#27debf"/><path d="M308.624,184.824c.576-.333,1.044-.063,1.044.6a2.308,2.308,0,0,1-1.044,1.808c-.577.333-1.044.063-1.044-.6A2.3,2.3,0,0,1,308.624,184.824Z" fill="#27debf"/><path d="M316.72,184.824c.576-.333,1.044-.063,1.044.6a2.309,2.309,0,0,1-1.044,1.808c-.576.333-1.044.063-1.044-.6A2.307,2.307,0,0,1,316.72,184.824Z" fill="#27debf"/><path d="M324.844,184.824c.576-.333,1.044-.063,1.044.6a2.308,2.308,0,0,1-1.044,1.808c-.576.333-1.044.063-1.044-.6A2.307,2.307,0,0,1,324.844,184.824Z" fill="#27debf"/><path d="M332.968,180.133c.576-.332,1.044-.063,1.044.6a2.309,2.309,0,0,1-1.044,1.808c-.576.333-1.044.063-1.044-.6A2.31,2.31,0,0,1,332.968,180.133Z" fill="#27debf"/><path d="M194.837,266.028a.249.249,0,0,1-.188-.414l8.2-9.426a.219.219,0,0,1,.064-.053l8.065-4.656,8.112-2.633,8.08-8.4a.263.263,0,0,1,.094-.061l8.065-2.971,8.083-9.334a.25.25,0,0,1,.12-.076l7.994-2.308,8.084-25.669a.251.251,0,0,1,.211-.173.255.255,0,0,1,.244.124l8.051,13.945,8-.011,7.959.011,8.053-13.946a.25.25,0,0,1,.138-.112l8.046-2.67,8.078-11.31a.25.25,0,0,1,.2-.1h16.18l8.068-4.657a.25.25,0,0,1,.25.433l-8.125,4.691a.251.251,0,0,1-.125.033H308.725l-8.051,11.271a.242.242,0,0,1-.123.092l-8.035,2.666L284.44,214.3a.251.251,0,0,1-.216.125h0l-8.105-.011-8.144.011h0a.252.252,0,0,1-.217-.125l-7.839-13.578-7.954,25.255a.252.252,0,0,1-.168.165l-8.052,2.323-8.078,9.327a.246.246,0,0,1-.1.07l-8.07,2.975-8.084,8.405a.252.252,0,0,1-.1.064l-8.124,2.631-7.981,4.614-8.176,9.395A.25.25,0,0,1,194.837,266.028Z" fill="#27debf"/><path d="M194.859,270.957a.5.5,0,0,1-.251-.933l138.11-79.737a.5.5,0,0,1,.5.866L195.108,270.89A.5.5,0,0,1,194.859,270.957Z" fill="#e0e0e0"/><path d="M194.859,259.871c.576-.333,1.043-.063,1.043.6a2.307,2.307,0,0,1-1.043,1.808c-.577.333-1.044.063-1.044-.6A2.3,2.3,0,0,1,194.859,259.871Z" fill="#27debf"/><path d="M202.982,245.8c.577-.333,1.044-.063,1.044.6a2.307,2.307,0,0,1-1.044,1.808c-.576.332-1.043.063-1.043-.6A2.308,2.308,0,0,1,202.982,245.8Z" fill="#27debf"/><path d="M211.107,244.043c.576-.333,1.043-.063,1.043.6a2.309,2.309,0,0,1-1.043,1.808c-.577.333-1.044.063-1.044-.6A2.306,2.306,0,0,1,211.107,244.043Z" fill="#27debf"/><path d="M219.23,227.037c.577-.333,1.044-.063,1.044.6a2.3,2.3,0,0,1-1.044,1.807c-.576.333-1.044.064-1.044-.6A2.309,2.309,0,0,1,219.23,227.037Z" fill="#27debf"/><path d="M227.364,231.728c.576-.333,1.044-.063,1.044.6a2.309,2.309,0,0,1-1.044,1.808c-.576.333-1.044.063-1.044-.6A2.309,2.309,0,0,1,227.364,231.728Z" fill="#27debf"/><path d="M235.48,229.383c.577-.333,1.044-.063,1.044.6a2.3,2.3,0,0,1-1.044,1.808c-.576.334-1.044.063-1.044-.6A2.309,2.309,0,0,1,235.48,229.383Z" fill="#27debf"/><path d="M243.6,222.347c.576-.333,1.044-.063,1.044.6a2.307,2.307,0,0,1-1.044,1.808c-.577.333-1.044.063-1.044-.6A2.306,2.306,0,0,1,243.6,222.347Z" fill="#27debf"/><path d="M251.727,212.966c.576-.333,1.044-.063,1.044.6a2.31,2.31,0,0,1-1.044,1.808c-.577.332-1.044.063-1.044-.6A2.306,2.306,0,0,1,251.727,212.966Z" fill="#27debf"/><path d="M259.852,210.621c.576-.333,1.043-.063,1.043.6a2.307,2.307,0,0,1-1.043,1.808c-.578.333-1.044.063-1.044-.6A2.3,2.3,0,0,1,259.852,210.621Z" fill="#27debf"/><path d="M267.975,203.585c.577-.333,1.044-.062,1.044.6A2.306,2.306,0,0,1,267.975,206c-.577.333-1.044.063-1.044-.6A2.306,2.306,0,0,1,267.975,203.585Z" fill="#27debf"/><path d="M276.1,203.585c.577-.332,1.044-.062,1.044.6A2.306,2.306,0,0,1,276.1,206c-.578.333-1.045.063-1.045-.6A2.306,2.306,0,0,1,276.1,203.585Z" fill="#27debf"/><path d="M284.224,184.824c.576-.333,1.044-.063,1.044.6a2.309,2.309,0,0,1-1.044,1.808c-.577.333-1.044.063-1.044-.6A2.306,2.306,0,0,1,284.224,184.824Z" fill="#27debf"/><path d="M292.348,194.138c.576-.333,1.043-.063,1.043.6a2.309,2.309,0,0,1-1.043,1.808c-.577.332-1.044.062-1.044-.6A2.306,2.306,0,0,1,292.348,194.138Z" fill="#27debf"/><path d="M300.472,184.824c.576-.333,1.044-.063,1.044.6a2.308,2.308,0,0,1-1.044,1.808c-.577.333-1.044.063-1.044-.6A2.306,2.306,0,0,1,300.472,184.824Z" fill="#27debf"/><path d="M308.6,180.133c.576-.332,1.043-.063,1.043.6a2.308,2.308,0,0,1-1.043,1.808c-.577.333-1.044.063-1.044-.6A2.307,2.307,0,0,1,308.6,180.133Z" fill="#27debf"/><path d="M316.719,180.133c.577-.333,1.044-.063,1.044.6a2.307,2.307,0,0,1-1.044,1.808c-.576.333-1.043.062-1.043-.6A2.308,2.308,0,0,1,316.719,180.133Z" fill="#27debf"/><path d="M324.844,175.443c.576-.333,1.044-.063,1.044.6a2.31,2.31,0,0,1-1.044,1.809c-.576.332-1.044.063-1.044-.6A2.307,2.307,0,0,1,324.844,175.443Z" fill="#27debf"/><path d="M332.968,175.443c.576-.333,1.044-.063,1.044.6a2.31,2.31,0,0,1-1.044,1.809c-.576.332-1.044.063-1.044-.6A2.307,2.307,0,0,1,332.968,175.443Z" fill="#27debf"/><path d="M194.859,261.326a.245.245,0,0,1-.125-.034.249.249,0,0,1-.091-.341l8.182-14.1a.245.245,0,0,1,.164-.119l7.945-1.7,8.07-16.9a.251.251,0,0,1,.351-.109l8.042,4.643,7.96-2.306,8.071-6.993,8.11-9.362a.244.244,0,0,1,.119-.077l8.072-2.33,8.081-7a.254.254,0,0,1,.166-.061h7.959l8.059-18.611a.251.251,0,0,1,.419-.065l7.935,9.163,7.934-9.163a.232.232,0,0,1,.065-.052L308.5,181.1a.254.254,0,0,1,.125-.033h8.058l8.038-4.64a.247.247,0,0,1,.125-.034h8.125a.25.25,0,0,1,0,.5h-8.058l-8.038,4.64a.252.252,0,0,1-.125.034h-8.057l-8.058,4.652-8.1,9.349a.259.259,0,0,1-.379,0l-7.863-9.08-7.967,18.4a.249.249,0,0,1-.228.151h-8.032l-8.052,6.974a.247.247,0,0,1-.1.051l-8.053,2.325-8.086,9.331-8.138,7.055a.257.257,0,0,1-.1.051l-8.115,2.351a.257.257,0,0,1-.194-.024l-7.9-4.561-8.006,16.762a.252.252,0,0,1-.174.137l-7.958,1.7L195.075,261.2A.249.249,0,0,1,194.859,261.326Z" fill="#27debf"/><g opacity="0.3"><path d="M194.859,259.871c.576-.333,1.043-.063,1.043.6a2.307,2.307,0,0,1-1.043,1.808c-.577.333-1.044.063-1.044-.6A2.3,2.3,0,0,1,194.859,259.871Z"/><path d="M202.982,245.8c.577-.333,1.044-.063,1.044.6a2.307,2.307,0,0,1-1.044,1.808c-.576.332-1.043.063-1.043-.6A2.308,2.308,0,0,1,202.982,245.8Z"/><path d="M211.107,244.043c.576-.333,1.043-.063,1.043.6a2.309,2.309,0,0,1-1.043,1.808c-.577.333-1.044.063-1.044-.6A2.306,2.306,0,0,1,211.107,244.043Z"/><path d="M219.23,227.037c.577-.333,1.044-.063,1.044.6a2.3,2.3,0,0,1-1.044,1.807c-.576.333-1.044.064-1.044-.6A2.309,2.309,0,0,1,219.23,227.037Z"/><path d="M227.364,231.728c.576-.333,1.044-.063,1.044.6a2.309,2.309,0,0,1-1.044,1.808c-.576.333-1.044.063-1.044-.6A2.309,2.309,0,0,1,227.364,231.728Z"/><path d="M235.48,229.383c.577-.333,1.044-.063,1.044.6a2.3,2.3,0,0,1-1.044,1.808c-.576.334-1.044.063-1.044-.6A2.309,2.309,0,0,1,235.48,229.383Z"/><path d="M243.6,222.347c.576-.333,1.044-.063,1.044.6a2.307,2.307,0,0,1-1.044,1.808c-.577.333-1.044.063-1.044-.6A2.306,2.306,0,0,1,243.6,222.347Z"/><path d="M251.727,212.966c.576-.333,1.044-.063,1.044.6a2.31,2.31,0,0,1-1.044,1.808c-.577.332-1.044.063-1.044-.6A2.306,2.306,0,0,1,251.727,212.966Z"/><path d="M259.852,210.621c.576-.333,1.043-.063,1.043.6a2.307,2.307,0,0,1-1.043,1.808c-.578.333-1.044.063-1.044-.6A2.3,2.3,0,0,1,259.852,210.621Z"/><path d="M267.975,203.585c.577-.333,1.044-.062,1.044.6A2.306,2.306,0,0,1,267.975,206c-.577.333-1.044.063-1.044-.6A2.306,2.306,0,0,1,267.975,203.585Z"/><path d="M276.1,203.585c.577-.332,1.044-.062,1.044.6A2.306,2.306,0,0,1,276.1,206c-.578.333-1.045.063-1.045-.6A2.306,2.306,0,0,1,276.1,203.585Z"/><path d="M284.224,184.824c.576-.333,1.044-.063,1.044.6a2.309,2.309,0,0,1-1.044,1.808c-.577.333-1.044.063-1.044-.6A2.306,2.306,0,0,1,284.224,184.824Z"/><path d="M292.348,194.138c.576-.333,1.043-.063,1.043.6a2.309,2.309,0,0,1-1.043,1.808c-.577.332-1.044.062-1.044-.6A2.306,2.306,0,0,1,292.348,194.138Z"/><path d="M300.472,184.824c.576-.333,1.044-.063,1.044.6a2.308,2.308,0,0,1-1.044,1.808c-.577.333-1.044.063-1.044-.6A2.306,2.306,0,0,1,300.472,184.824Z"/><path d="M308.6,180.133c.576-.332,1.043-.063,1.043.6a2.308,2.308,0,0,1-1.043,1.808c-.577.333-1.044.063-1.044-.6A2.307,2.307,0,0,1,308.6,180.133Z"/><path d="M316.719,180.133c.577-.333,1.044-.063,1.044.6a2.307,2.307,0,0,1-1.044,1.808c-.576.333-1.043.062-1.043-.6A2.308,2.308,0,0,1,316.719,180.133Z"/><path d="M324.844,175.443c.576-.333,1.044-.063,1.044.6a2.31,2.31,0,0,1-1.044,1.809c-.576.332-1.044.063-1.044-.6A2.307,2.307,0,0,1,324.844,175.443Z"/><path d="M332.968,175.443c.576-.333,1.044-.063,1.044.6a2.31,2.31,0,0,1-1.044,1.809c-.576.332-1.044.063-1.044-.6A2.307,2.307,0,0,1,332.968,175.443Z"/><path d="M194.859,261.326a.245.245,0,0,1-.125-.034.249.249,0,0,1-.091-.341l8.182-14.1a.245.245,0,0,1,.164-.119l7.945-1.7,8.07-16.9a.251.251,0,0,1,.351-.109l8.042,4.643,7.96-2.306,8.071-6.993,8.11-9.362a.244.244,0,0,1,.119-.077l8.072-2.33,8.081-7a.254.254,0,0,1,.166-.061h7.959l8.059-18.611a.251.251,0,0,1,.419-.065l7.935,9.163,7.934-9.163a.232.232,0,0,1,.065-.052L308.5,181.1a.254.254,0,0,1,.125-.033h8.058l8.038-4.64a.247.247,0,0,1,.125-.034h8.125a.25.25,0,0,1,0,.5h-8.058l-8.038,4.64a.252.252,0,0,1-.125.034h-8.057l-8.058,4.652-8.1,9.349a.259.259,0,0,1-.379,0l-7.863-9.08-7.967,18.4a.249.249,0,0,1-.228.151h-8.032l-8.052,6.974a.247.247,0,0,1-.1.051l-8.053,2.325-8.086,9.331-8.138,7.055a.257.257,0,0,1-.1.051l-8.115,2.351a.257.257,0,0,1-.194-.024l-7.9-4.561-8.006,16.762a.252.252,0,0,1-.174.137l-7.958,1.7L195.075,261.2A.249.249,0,0,1,194.859,261.326Z"/></g><path d="M199.114,225.066l7.866-4.564c.4-.231.722-.067.722.364a1.551,1.551,0,0,1-.722,1.2l-7.866,4.564c-.4.23-.721.066-.721-.365A1.549,1.549,0,0,1,199.114,225.066Z" fill="#e0e0e0"/><path d="M194.858,227.038c.577-.333,1.044-.063,1.044.6a2.3,2.3,0,0,1-1.044,1.807c-.576.333-1.043.063-1.043-.6A2.307,2.307,0,0,1,194.858,227.038Z" fill="#27debf"/><path d="M194.858,227.038c.577-.333,1.044-.063,1.044.6a2.3,2.3,0,0,1-1.044,1.807c-.576.333-1.043.063-1.043-.6A2.307,2.307,0,0,1,194.858,227.038Z" opacity="0.3"/><path d="M199.114,229.744l7.866-4.565c.4-.23.722-.066.722.365a1.548,1.548,0,0,1-.722,1.2l-7.866,4.565c-.4.23-.721.066-.721-.365A1.547,1.547,0,0,1,199.114,229.744Z" fill="#e0e0e0"/><path d="M194.858,231.728c.577-.333,1.044-.063,1.044.6a2.307,2.307,0,0,1-1.044,1.808c-.576.332-1.043.063-1.043-.6A2.306,2.306,0,0,1,194.858,231.728Z" fill="#27debf"/><path d="M194.859,294.227a.251.251,0,0,1-.18-.424l4.123-4.239,4.047-.513,4.086-5.28,4.091.561L215,280.743l4.057-2.433,4.137-5.733,4.108,1.288,3.948-3.527a.25.25,0,1,1,.333.373l-4.16,3.717-4.034-1.265-4.031,5.551-4.063,2.43-4.108,3.715-4.034-.553-4.037,5.215-4.078.517-4,4.112A.252.252,0,0,1,194.859,294.227Z" fill="#27debf"/><path d="M196.465,280.509a1.033,1.033,0,0,1,.1-.091.809.809,0,0,1,.11-.077,1.176,1.176,0,0,1,.614-.186.747.747,0,0,1,.489.185,1.19,1.19,0,0,1,.32.515,2.478,2.478,0,0,1,.116.8,3.894,3.894,0,0,1-.116.936,4.441,4.441,0,0,1-.32.886,3.6,3.6,0,0,1-.489.748,2.344,2.344,0,0,1-.614.525,1.2,1.2,0,0,1-.616.186.747.747,0,0,1-.487-.186,1.187,1.187,0,0,1-.322-.515,2.463,2.463,0,0,1-.115-.8,3.49,3.49,0,0,1,.038-.516,4.68,4.68,0,0,1,.1-.488q.063-.24.139-.466c.051-.151.1-.3.155-.437l1.082-3.078c.019-.041.042-.092.065-.152a.278.278,0,0,1,.118-.137l.34-.2a.059.059,0,0,1,.086.01.186.186,0,0,1,.033.123.356.356,0,0,1-.009.078.342.342,0,0,1-.021.057Zm-.761,2.6a1.56,1.56,0,0,0,.068.483.79.79,0,0,0,.193.328.467.467,0,0,0,.306.13.746.746,0,0,0,.408-.121,1.5,1.5,0,0,0,.406-.349,2.244,2.244,0,0,0,.307-.484,2.792,2.792,0,0,0,.193-.551,2.423,2.423,0,0,0,.068-.561,1.567,1.567,0,0,0-.068-.482.779.779,0,0,0-.193-.328.459.459,0,0,0-.307-.129.74.74,0,0,0-.406.12,1.524,1.524,0,0,0-.408.35,2.286,2.286,0,0,0-.306.483,2.832,2.832,0,0,0-.193.551A2.448,2.448,0,0,0,195.7,283.108Z" fill="#455a64"/><path d="M199.229,281.642a1.169,1.169,0,0,0,.083.244.332.332,0,0,0,.16.168.476.476,0,0,0,.282.025,1.446,1.446,0,0,0,.455-.189,1.7,1.7,0,0,0,.351-.272,1.776,1.776,0,0,0,.292-.383,2.083,2.083,0,0,0,.2-.476,2.008,2.008,0,0,0,.074-.561,1.194,1.194,0,0,0-.07-.457.4.4,0,0,0-.194-.218.449.449,0,0,0-.288-.012,1.5,1.5,0,0,0-.363.154l-.493.285a.084.084,0,0,1-.113-.008.2.2,0,0,1-.048-.146v-.328a.476.476,0,0,1,.033-.171c.022-.059.042-.112.063-.16l1.069-2.394-1.711.988a.085.085,0,0,1-.113-.007.2.2,0,0,1-.048-.147v-.328a.471.471,0,0,1,.048-.2.3.3,0,0,1,.113-.139l2.342-1.352a.085.085,0,0,1,.113.008.193.193,0,0,1,.047.146v.329a.589.589,0,0,1-.029.178,1.684,1.684,0,0,1-.078.2l-1.052,2.356a1.255,1.255,0,0,1,.544-.172.618.618,0,0,1,.422.13.923.923,0,0,1,.273.428,2.226,2.226,0,0,1,.1.717,3.462,3.462,0,0,1-.119.907,3.732,3.732,0,0,1-.319.806,3.312,3.312,0,0,1-.468.66,2.48,2.48,0,0,1-.575.469,1.756,1.756,0,0,1-.686.254.718.718,0,0,1-.476-.1.749.749,0,0,1-.279-.36,1.565,1.565,0,0,1-.1-.533.38.38,0,0,1,.039-.165.246.246,0,0,1,.093-.113l.273-.158c.044-.025.079-.025.1,0A.183.183,0,0,1,199.229,281.642Z" fill="#455a64"/><path d="M202.765,279.6a1.343,1.343,0,0,0,.083.246.351.351,0,0,0,.161.168.466.466,0,0,0,.283.023,1.394,1.394,0,0,0,.455-.189,1.746,1.746,0,0,0,.35-.27,1.764,1.764,0,0,0,.291-.384,2.115,2.115,0,0,0,.2-.475,2.013,2.013,0,0,0,.075-.561,1.188,1.188,0,0,0-.072-.459.4.4,0,0,0-.193-.217.442.442,0,0,0-.288-.011,1.371,1.371,0,0,0-.362.154l-.495.285a.085.085,0,0,1-.112-.009.192.192,0,0,1-.048-.145v-.33a.463.463,0,0,1,.034-.17c.021-.059.041-.111.062-.16l1.069-2.393-1.712.988a.087.087,0,0,1-.113-.007.2.2,0,0,1-.047-.147v-.33a.479.479,0,0,1,.047-.2.32.32,0,0,1,.113-.139l2.342-1.351a.086.086,0,0,1,.114.008.2.2,0,0,1,.047.146V274a.611.611,0,0,1-.029.177,1.707,1.707,0,0,1-.078.2l-1.052,2.355a1.238,1.238,0,0,1,.543-.172.616.616,0,0,1,.423.131.907.907,0,0,1,.273.428,2.222,2.222,0,0,1,.1.717,3.465,3.465,0,0,1-.119.906,3.8,3.8,0,0,1-.318.806,3.219,3.219,0,0,1-.47.659,2.421,2.421,0,0,1-.573.469,1.718,1.718,0,0,1-.687.254.72.72,0,0,1-.477-.1.761.761,0,0,1-.279-.36,1.528,1.528,0,0,1-.1-.533.363.363,0,0,1,.039-.165.258.258,0,0,1,.091-.114l.274-.157c.044-.025.079-.024.1,0A.192.192,0,0,1,202.765,279.6Z" fill="#455a64"/><path d="M195.594,297.456l35.1-20.342c.4-.23.721-.067.721.365a1.549,1.549,0,0,1-.721,1.2l-35.1,20.342c-.4.229-.722.066-.722-.366A1.544,1.544,0,0,1,195.594,297.456Z" fill="#e0e0e0"/><path d="M195.594,273.991l7.866-4.565c.4-.23.721-.067.721.365a1.547,1.547,0,0,1-.721,1.2l-7.866,4.565c-.4.23-.722.066-.722-.365A1.545,1.545,0,0,1,195.594,273.991Z" fill="#e0e0e0"/><path d="M194.859,322.345a.251.251,0,0,1-.18-.424l4.123-4.239,4.074-.516,4.1-3.586,3.954-1.078,4.123-8.208,4.135,2.024,3.987-3.513.068-.014,3.959-.751,4-6.911a.25.25,0,1,1,.433.25l-4.111,7.11-4.116.781-4.136,3.644-3.99-1.954-4,7.966-4.114,1.121-4.077,3.6-4.051.513-4,4.113A.255.255,0,0,1,194.859,322.345Z" fill="#27debf"/><g opacity="0.3"><path d="M194.859,322.345a.251.251,0,0,1-.18-.424l4.123-4.239,4.074-.516,4.1-3.586,3.954-1.078,4.123-8.208,4.135,2.024,3.987-3.513.068-.014,3.959-.751,4-6.911a.25.25,0,1,1,.433.25l-4.111,7.11-4.116.781-4.136,3.644-3.99-1.954-4,7.966-4.114,1.121-4.077,3.6-4.051.513-4,4.113A.255.255,0,0,1,194.859,322.345Z"/></g><path d="M196.934,312.384a.476.476,0,0,1-.047.2.308.308,0,0,1-.113.139l-.244.14a.085.085,0,0,1-.113-.008.193.193,0,0,1-.047-.146v-5.043l-.963,1.682a.228.228,0,0,1-.119.124.093.093,0,0,1-.108-.031l-.141-.2a.235.235,0,0,1-.034-.165.5.5,0,0,1,.063-.2l1.271-2.236a.452.452,0,0,1,.1-.12,1.11,1.11,0,0,1,.1-.063l.244-.141a.087.087,0,0,1,.113.008.2.2,0,0,1,.047.147Z" fill="#455a64"/><path d="M199.532,307.764a3.766,3.766,0,0,0,.267-.659,2.572,2.572,0,0,0,.089-.718,1.088,1.088,0,0,0-.184-.7c-.122-.145-.317-.141-.582.012a1.307,1.307,0,0,0-.354.3,1.716,1.716,0,0,0-.244.393,2.5,2.5,0,0,0-.154.456c-.037.158-.069.318-.093.478a.556.556,0,0,1-.062.192.273.273,0,0,1-.092.107l-.274.158a.071.071,0,0,1-.092-.005.168.168,0,0,1-.038-.12,3.448,3.448,0,0,1,.1-.746,4.135,4.135,0,0,1,.273-.788,3.671,3.671,0,0,1,.437-.719,2.062,2.062,0,0,1,.592-.525,1.09,1.09,0,0,1,.576-.178.6.6,0,0,1,.416.182,1.071,1.071,0,0,1,.253.476,2.653,2.653,0,0,1,.087.71,4.655,4.655,0,0,1-.031.547,3.369,3.369,0,0,1-.1.51,4.675,4.675,0,0,1-.176.519c-.071.174-.158.362-.262.561l-1.325,2.67,1.818-1.05a.089.089,0,0,1,.114.008.2.2,0,0,1,.047.147v.329a.476.476,0,0,1-.047.2.315.315,0,0,1-.114.139l-2.561,1.478a.082.082,0,0,1-.112-.008.188.188,0,0,1-.049-.146v-.328a.577.577,0,0,1,.031-.192,1.668,1.668,0,0,1,.1-.233Z" fill="#455a64"/><path d="M204.234,304.445q.006.408.006.77c0,.241,0,.5-.006.777a6.192,6.192,0,0,1-.1,1.049,4.507,4.507,0,0,1-.275.959,3.276,3.276,0,0,1-.467.8,2.355,2.355,0,0,1-.675.582,1.155,1.155,0,0,1-.675.2.656.656,0,0,1-.465-.262,1.55,1.55,0,0,1-.277-.64,4.477,4.477,0,0,1-.1-.936c0-.273-.006-.529-.006-.77s0-.5.006-.777a6.289,6.289,0,0,1,.1-1.05,4.518,4.518,0,0,1,.277-.96,3.386,3.386,0,0,1,.465-.8,2.341,2.341,0,0,1,.675-.588,1.125,1.125,0,0,1,.675-.191.678.678,0,0,1,.467.265,1.548,1.548,0,0,1,.275.641A4.4,4.4,0,0,1,204.234,304.445Zm-2.473,2.975a1.874,1.874,0,0,0,.253,1.135c.16.181.4.182.7,0a1.681,1.681,0,0,0,.7-.818,3.717,3.717,0,0,0,.253-1.426q.006-.417.006-.778c0-.241,0-.5-.006-.769a1.892,1.892,0,0,0-.253-1.141c-.16-.185-.394-.187-.7-.01a1.7,1.7,0,0,0-.7.823,3.751,3.751,0,0,0-.253,1.433c0,.275-.006.535-.006.776S201.757,307.146,201.761,307.42Z" fill="#455a64"/><path d="M195.594,325.573l35.1-20.342c.4-.229.721-.066.721.366a1.545,1.545,0,0,1-.721,1.2l-35.1,20.342c-.4.23-.722.067-.722-.365A1.547,1.547,0,0,1,195.594,325.573Z" fill="#e0e0e0"/><path d="M195.594,302.108l7.866-4.564c.4-.23.721-.067.721.365a1.545,1.545,0,0,1-.721,1.2l-7.866,4.565c-.4.23-.722.067-.722-.364A1.547,1.547,0,0,1,195.594,302.108Z" fill="#e0e0e0"/><path d="M243.6,266.026a.25.25,0,0,1-.156-.445l4.062-3.241,4.092-4.674,4.152-.6,3.962-.895,4.1-4.844,4.038.714,4.047-6.411,4.115.065,3.978-3.556a.25.25,0,1,1,.334.373L276.2,246.2l-4.029-.065-4.076,6.458-4.086-.722-4.024,4.752-4.144.935-3.99.579-4,4.565-4.1,3.272A.247.247,0,0,1,243.6,266.026Z" fill="#27debf"/><path d="M245.209,252.309a1.035,1.035,0,0,1,.1-.091.808.808,0,0,1,.11-.077,1.176,1.176,0,0,1,.615-.186.746.746,0,0,1,.488.185,1.183,1.183,0,0,1,.32.514,2.484,2.484,0,0,1,.116.8,3.894,3.894,0,0,1-.116.936,4.349,4.349,0,0,1-.32.885,3.62,3.62,0,0,1-.488.749,2.363,2.363,0,0,1-.615.525,1.184,1.184,0,0,1-.616.185.748.748,0,0,1-.487-.185,1.187,1.187,0,0,1-.322-.515,2.465,2.465,0,0,1-.115-.8,3.486,3.486,0,0,1,.038-.515,4.759,4.759,0,0,1,.1-.489c.042-.159.088-.314.14-.465s.1-.3.154-.437l1.082-3.078c.019-.041.042-.092.065-.152a.275.275,0,0,1,.119-.137l.339-.195a.06.06,0,0,1,.086.009.19.19,0,0,1,.034.123.3.3,0,0,1-.01.079.341.341,0,0,1-.021.057Zm-.761,2.6a1.559,1.559,0,0,0,.068.483.807.807,0,0,0,.193.328.466.466,0,0,0,.306.13.748.748,0,0,0,.408-.122,1.512,1.512,0,0,0,.407-.348,2.33,2.33,0,0,0,.306-.484,2.861,2.861,0,0,0,.194-.551,2.484,2.484,0,0,0,.067-.561,1.6,1.6,0,0,0-.067-.482.791.791,0,0,0-.194-.328.459.459,0,0,0-.306-.129.741.741,0,0,0-.407.12,1.524,1.524,0,0,0-.408.35,2.287,2.287,0,0,0-.306.483,2.9,2.9,0,0,0-.193.551A2.447,2.447,0,0,0,244.448,254.908Z" fill="#455a64"/><path d="M249.328,250.838a3.815,3.815,0,0,0,.268-.658,2.617,2.617,0,0,0,.089-.719,1.1,1.1,0,0,0-.184-.705c-.124-.145-.318-.141-.584.013a1.316,1.316,0,0,0-.353.295,1.728,1.728,0,0,0-.243.392,2.448,2.448,0,0,0-.155.456c-.038.158-.069.318-.092.479a.58.58,0,0,1-.062.191.286.286,0,0,1-.093.108l-.273.158a.073.073,0,0,1-.093-.006.168.168,0,0,1-.038-.12,3.494,3.494,0,0,1,.1-.745,4.157,4.157,0,0,1,.273-.788,3.634,3.634,0,0,1,.438-.72,2.042,2.042,0,0,1,.59-.525,1.1,1.1,0,0,1,.578-.177.6.6,0,0,1,.416.181,1.091,1.091,0,0,1,.253.476,2.66,2.66,0,0,1,.085.711,4.7,4.7,0,0,1-.029.547,3.651,3.651,0,0,1-.1.509,4.294,4.294,0,0,1-.176.519c-.072.175-.158.362-.261.561l-1.325,2.67,1.817-1.049a.089.089,0,0,1,.115.007.2.2,0,0,1,.046.147v.329a.471.471,0,0,1-.046.2.3.3,0,0,1-.115.139l-2.561,1.478a.084.084,0,0,1-.113-.008.191.191,0,0,1-.047-.146v-.328a.571.571,0,0,1,.03-.191,1.72,1.72,0,0,1,.1-.234Z" fill="#455a64"/><path d="M253.371,245.465a.087.087,0,0,1,.113.008.2.2,0,0,1,.047.146v.33a1.166,1.166,0,0,1-.017.184c-.012.068-.028.14-.047.219l-1.32,6.007a1.579,1.579,0,0,1-.062.187.267.267,0,0,1-.111.132l-.275.158a.074.074,0,0,1-.1-.006.173.173,0,0,1-.043-.131c0-.011,0-.027,0-.043s.007-.043.016-.078l1.325-6.018-1.949,1.125a.087.087,0,0,1-.114-.007.2.2,0,0,1-.047-.147v-.33a.468.468,0,0,1,.047-.2.315.315,0,0,1,.114-.139Z" fill="#455a64"/><path d="M244.338,269.255l35.1-20.341c.4-.23.722-.067.722.364a1.545,1.545,0,0,1-.722,1.2l-35.1,20.342c-.4.23-.721.067-.721-.365A1.547,1.547,0,0,1,244.338,269.255Z" fill="#e0e0e0"/><path d="M244.338,245.791l7.866-4.565c.4-.23.722-.067.722.365a1.547,1.547,0,0,1-.722,1.2l-7.866,4.565c-.4.229-.721.066-.721-.366A1.547,1.547,0,0,1,244.338,245.791Z" fill="#e0e0e0"/><path d="M243.6,294.145a.244.244,0,0,1-.13-.037.25.25,0,0,1-.084-.343l4.153-6.81,4.175.772,3.93-1.074,4.064-4.958,4.037-1.018,4.106-7.316,4.2,1.219,3.943-.748,4-3.561a.247.247,0,0,1,.353.02.25.25,0,0,1-.021.353l-4.1,3.653-.068.013-4.131.784-3.928-1.141-4.019,7.155-4.086,1.033-4.06,4.952-.077.021-4.117,1.125-.056-.009-3.892-.72-3.973,6.514A.251.251,0,0,1,243.6,294.145Z" fill="#27debf"/><g opacity="0.3"><path d="M243.6,294.145a.244.244,0,0,1-.13-.037.25.25,0,0,1-.084-.343l4.153-6.81,4.175.772,3.93-1.074,4.064-4.958,4.037-1.018,4.106-7.316,4.2,1.219,3.943-.748,4-3.561a.247.247,0,0,1,.353.02.25.25,0,0,1-.021.353l-4.1,3.653-.068.013-4.131.784-3.928-1.141-4.019,7.155-4.086,1.033-4.06,4.952-.077.021-4.117,1.125-.056-.009-3.892-.72-3.973,6.514A.251.251,0,0,1,243.6,294.145Z"/></g><path d="M245.482,282.348a.753.753,0,0,1-.083.061l-.077.05a1.22,1.22,0,0,1-.553.177.716.716,0,0,1-.476-.142,1.056,1.056,0,0,1-.335-.483,2.365,2.365,0,0,1-.128-.851,3.734,3.734,0,0,1,.119-.929,4.3,4.3,0,0,1,.324-.869,3.707,3.707,0,0,1,.475-.727,2.178,2.178,0,0,1,.574-.5,1.216,1.216,0,0,1,.621-.2.7.7,0,0,1,.47.183,1.125,1.125,0,0,1,.3.511,2.678,2.678,0,0,1,.1.8,2.706,2.706,0,0,1-.047.489c-.031.174-.071.347-.118.521s-.1.345-.155.51-.108.319-.155.456l-1.082,3.077c-.02.043-.041.093-.065.153a.264.264,0,0,1-.119.136l-.339.2a.061.061,0,0,1-.086-.01.2.2,0,0,1-.032-.123.3.3,0,0,1,.008-.078.262.262,0,0,1,.021-.058Zm.767-2.585a1.6,1.6,0,0,0-.068-.492.718.718,0,0,0-.19-.315.44.44,0,0,0-.295-.109.764.764,0,0,0-.374.116,1.428,1.428,0,0,0-.377.318,2.1,2.1,0,0,0-.292.449,2.511,2.511,0,0,0-.19.533,2.434,2.434,0,0,0-.068.571,1.549,1.549,0,0,0,.068.495.707.707,0,0,0,.19.313.435.435,0,0,0,.292.11.736.736,0,0,0,.377-.117,1.415,1.415,0,0,0,.374-.318,2.051,2.051,0,0,0,.295-.449,2.625,2.625,0,0,0,.19-.53A2.464,2.464,0,0,0,246.249,279.763Z" fill="#455a64"/><path d="M247.794,281.662a1.283,1.283,0,0,0,.083.245.342.342,0,0,0,.161.168.479.479,0,0,0,.283.025,1.442,1.442,0,0,0,.455-.19,1.753,1.753,0,0,0,.641-.653,2.151,2.151,0,0,0,.2-.477,1.964,1.964,0,0,0,.075-.56,1.193,1.193,0,0,0-.071-.458.4.4,0,0,0-.194-.218.451.451,0,0,0-.289-.012,1.45,1.45,0,0,0-.361.154l-.494.286a.087.087,0,0,1-.113-.008.2.2,0,0,1-.048-.147v-.329a.489.489,0,0,1,.033-.171c.022-.058.042-.111.062-.16l1.071-2.392-1.712.988a.089.089,0,0,1-.114-.008.2.2,0,0,1-.047-.146v-.329a.48.48,0,0,1,.047-.2.307.307,0,0,1,.114-.138l2.342-1.353a.088.088,0,0,1,.113.008.2.2,0,0,1,.047.146v.33a.587.587,0,0,1-.03.177,1.41,1.41,0,0,1-.078.2l-1.052,2.355a1.249,1.249,0,0,1,.544-.172.605.605,0,0,1,.422.131.917.917,0,0,1,.275.428,2.279,2.279,0,0,1,.1.717,3.465,3.465,0,0,1-.119.906,3.7,3.7,0,0,1-.318.806,3.316,3.316,0,0,1-.469.66,2.436,2.436,0,0,1-.573.468,1.717,1.717,0,0,1-.688.254.71.71,0,0,1-.475-.1.752.752,0,0,1-.28-.36,1.553,1.553,0,0,1-.1-.533.386.386,0,0,1,.038-.166.242.242,0,0,1,.093-.112l.273-.157c.044-.026.078-.026.1,0A.179.179,0,0,1,247.794,281.662Z" fill="#455a64"/><path d="M244.338,297.373l35.1-20.342c.4-.23.722-.066.722.365a1.545,1.545,0,0,1-.722,1.2l-35.1,20.342c-.4.23-.721.066-.721-.365A1.549,1.549,0,0,1,244.338,297.373Z" fill="#e0e0e0"/><path d="M244.338,273.908l7.866-4.564c.4-.231.722-.067.722.364a1.545,1.545,0,0,1-.722,1.2l-7.866,4.565c-.4.23-.721.067-.721-.365A1.549,1.549,0,0,1,244.338,273.908Z" fill="#e0e0e0"/><path d="M296.409,220.38a4.588,4.588,0,0,1,4.63-.345l-4.63,12.485Z" fill="#27debf"/><path d="M291.779,225.382a13.77,13.77,0,0,1,4.63-5v12.14Z" fill="#27debf"/><path d="M288.912,233.1a24.347,24.347,0,0,1,2.867-7.716l4.63,7.138Z" fill="#27debf"/><path d="M291.779,225.382a24.347,24.347,0,0,0-2.867,7.716l7.5-.578V220.38A13.779,13.779,0,0,0,291.779,225.382Z" opacity="0.3"/><path d="M301.039,220.035a6.491,6.491,0,0,1,2.867,4.406l-7.5,8.079Z" fill="#27debf"/><path d="M288.912,240.6a15.156,15.156,0,0,1-.388-3.527,21.634,21.634,0,0,1,.388-3.974l7.5-.578Z" fill="#27debf"/><path d="M303.906,231.942a24.275,24.275,0,0,1-2.867,7.716l-4.63-7.138Z" fill="#27debf"/><path d="M296.409,244.66a4.585,4.585,0,0,1-4.63.344l4.63-12.484Z" fill="#27debf"/><path d="M288.912,240.6l7.5-8.079L291.779,245A6.5,6.5,0,0,1,288.912,240.6Z" fill="#27debf"/><path d="M303.906,224.441a15.093,15.093,0,0,1,.389,3.527,21.549,21.549,0,0,1-.389,3.974l-7.5.578Z" fill="#27debf"/><path d="M301.039,239.658a13.753,13.753,0,0,1-4.63,5V232.52Z" fill="#27debf"/><path d="M292.477,250.851l7.866-4.565c.4-.23.722-.066.722.365a1.548,1.548,0,0,1-.722,1.2l-7.866,4.565c-.4.23-.722.066-.721-.365A1.544,1.544,0,0,1,292.477,250.851Z" fill="#455a64"/><path d="M290.742,256.558l11.335-6.577c.4-.23.722-.067.722.365a1.544,1.544,0,0,1-.722,1.2l-11.335,6.576c-.4.23-.721.067-.721-.365A1.545,1.545,0,0,1,290.742,256.558Z" fill="#e0e0e0"/><path d="M290.742,261.259l11.335-6.577c.4-.23.722-.067.722.365a1.543,1.543,0,0,1-.722,1.2l-11.335,6.576c-.4.23-.721.067-.721-.364A1.547,1.547,0,0,1,290.742,261.259Z" fill="#e0e0e0"/><path d="M290.742,265.96l11.335-6.577c.4-.23.722-.067.722.365a1.543,1.543,0,0,1-.722,1.2l-11.335,6.577c-.4.23-.721.066-.721-.365A1.547,1.547,0,0,1,290.742,265.96Z" fill="#e0e0e0"/><path d="M324.844,203.9a4.584,4.584,0,0,1,4.631-.345l-4.631,12.484Z" fill="#27debf"/><path d="M320.214,208.9a13.758,13.758,0,0,1,4.63-5v12.139Z" fill="#27debf"/><path d="M317.347,216.62a24.323,24.323,0,0,1,2.867-7.716l4.63,7.138Z" fill="#27debf"/><path d="M329.475,203.558a6.5,6.5,0,0,1,2.866,4.4l-7.5,8.079Z" fill="#27debf"/><path d="M317.347,224.121a15.141,15.141,0,0,1-.388-3.526,21.636,21.636,0,0,1,.388-3.975l7.5-.578Z" fill="#27debf"/><path d="M332.341,215.464a24.336,24.336,0,0,1-2.866,7.717l-4.631-7.139Z" fill="#27debf"/><path d="M324.844,228.182a4.585,4.585,0,0,1-4.63.345l4.63-12.485Z" fill="#27debf"/><path d="M317.347,224.121l7.5-8.079-4.63,12.485A6.5,6.5,0,0,1,317.347,224.121Z" fill="#27debf"/><path d="M320.214,208.9a24.323,24.323,0,0,0-2.867,7.716,21.636,21.636,0,0,0-.388,3.975,15.141,15.141,0,0,0,.388,3.526,6.5,6.5,0,0,0,2.867,4.406l4.63-12.485V203.9A13.758,13.758,0,0,0,320.214,208.9Z" opacity="0.3"/><path d="M332.341,207.963a15.1,15.1,0,0,1,.388,3.527,21.53,21.53,0,0,1-.388,3.974l-7.5.578Z" fill="#27debf"/><path d="M329.475,223.181a13.777,13.777,0,0,1-4.631,5v-12.14Z" fill="#27debf"/><path d="M320.911,234.435l7.866-4.565c.4-.23.721-.067.721.365a1.546,1.546,0,0,1-.721,1.2L320.911,236c-.4.23-.721.067-.721-.365A1.547,1.547,0,0,1,320.911,234.435Z" fill="#455a64"/><path d="M319.177,240.141l11.335-6.576c.4-.231.721-.067.721.364a1.547,1.547,0,0,1-.721,1.2L319.176,241.7c-.4.23-.721.067-.721-.365A1.545,1.545,0,0,1,319.177,240.141Z" fill="#e0e0e0"/><path d="M319.177,244.842l11.335-6.576c.4-.23.721-.067.721.364a1.545,1.545,0,0,1-.721,1.2L319.176,246.4c-.4.23-.721.067-.721-.365A1.546,1.546,0,0,1,319.177,244.842Z" fill="#e0e0e0"/><path d="M319.177,249.543l11.335-6.576c.4-.23.721-.067.721.365a1.549,1.549,0,0,1-.721,1.2l-11.336,6.576c-.4.23-.721.067-.721-.365A1.547,1.547,0,0,1,319.177,249.543Z" fill="#e0e0e0"/><path d="M324.692,366.677a13.351,13.351,0,0,0-5.686-10.658c-1.614-1.006-3.1-1.153-4.211-.584l0,0c-6.689,3.357-53.706,33.506-56.713,34.99l-.038.02a2.142,2.142,0,0,0-.954,1.938,6.726,6.726,0,0,0,2.865,5.371,2.134,2.134,0,0,0,2.147.281l.043-.022c4.761-2.622,51.162-22.4,60.649-27.484h0l.006,0h0C323.909,369.926,324.628,368.6,324.692,366.677Z" fill="#27debf"/><path d="M322.844,360.176a12.057,12.057,0,0,0-3.838-4.157c-1.609-1-3.092-1.151-4.2-.588-.223.123-.292.163-.136.073-6.109,3.124-41.1,25.447-52.873,32.7l-.078.048-.476.292-.144.09-.269.164-.315.193-.025.014c-1.245.76-2.085,1.256-2.41,1.416l-.038.02a1.485,1.485,0,0,0-.276.213,2.35,2.35,0,0,0-.678,1.725,4.811,4.811,0,0,0,.033.674c.01.086.026.174.041.26.023.137.049.275.082.413.026.109.054.219.086.329.038.128.082.257.129.385.034.1.065.193.1.288.006.016.014.03.021.046Z" opacity="0.1"/><path d="M259.94,397.753a6.7,6.7,0,0,1-2.853-5.349c.065-1.933,1.447-2.671,3.088-1.649a6.694,6.694,0,0,1,2.853,5.349C262.964,398.035,261.581,398.774,259.94,397.753Z" fill="#27debf"/><path d="M245.891,399.046a5.147,5.147,0,0,0,2.192,4.11,1.642,1.642,0,0,0,1.634.221h0l.006,0h0l11.373-6.054.007,0h0a1.639,1.639,0,0,0,.727-1.48,5.151,5.151,0,0,0-2.192-4.11,1.639,1.639,0,0,0-1.641-.218h0l-11.371,6.053h0A1.631,1.631,0,0,0,245.891,399.046Z" fill="#37474f"/><path d="M246.629,397.56a1.631,1.631,0,0,0-.738,1.486,4.417,4.417,0,0,0,.343,1.754l14.665-7.824a4.43,4.43,0,0,0-1.258-1.252,1.639,1.639,0,0,0-1.641-.218l-11.371,6.053Z" fill="#263238"/><path d="M260.479,409.142c0-7.288-4.815-14.576-14.446-20.136-19.262-11.121-50.491-11.121-69.753,0-9.631,5.56-14.446,12.848-14.446,20.135h0v13.425c0,7.288,4.815,14.575,14.447,20.135,19.261,11.121,50.49,11.121,69.752,0,9.631-5.56,14.446-12.847,14.446-20.135V409.141Zm-81.813-16.005c8.6-4.967,20.14-7.7,32.491-7.7s23.889,2.735,32.491,7.7c7.778,4.49,12.061,10.174,12.061,16.005s-4.283,11.514-12.061,16c-8.6,4.967-20.141,7.7-32.491,7.7s-23.889-2.735-32.491-7.7c-7.778-4.49-12.061-10.174-12.061-16S170.887,397.627,178.666,393.137Z" fill="#27debf"/><path d="M176.277,429.277c19.262,11.121,50.491,11.121,69.753,0s19.262-29.15,0-40.271-50.491-11.121-69.753,0S157.016,418.157,176.277,429.277ZM166.6,409.142c0-5.831,4.282-11.515,12.06-16.005,8.6-4.967,20.141-7.7,32.492-7.7s23.889,2.735,32.491,7.7c7.778,4.49,12.061,10.174,12.061,16.005s-4.284,11.514-12.061,16c-8.6,4.967-20.142,7.7-32.491,7.7s-23.89-2.735-32.492-7.7C170.885,420.656,166.6,414.972,166.6,409.142Z" fill="#fff" opacity="0.3"/><path d="M166.6,409.141a13.225,13.225,0,0,0,1.927,6.715c1.955-3.386,5.4-6.563,10.141-9.291,8.6-4.97,20.138-7.708,32.492-7.708s23.888,2.738,32.484,7.708c4.741,2.728,8.184,5.9,10.15,9.291a13.311,13.311,0,0,0,1.917-6.715c0-5.83-4.283-11.515-12.067-16.008-8.6-4.961-20.139-7.7-32.484-7.7s-23.9,2.738-32.492,7.7C170.881,397.626,166.6,403.311,166.6,409.141Z" fill="#27debf"/><path d="M166.6,409.141a13.225,13.225,0,0,0,1.927,6.715c1.955-3.386,5.4-6.563,10.141-9.291,8.6-4.97,20.138-7.708,32.492-7.708s23.888,2.738,32.484,7.708c4.741,2.728,8.184,5.9,10.15,9.291a13.311,13.311,0,0,0,1.917-6.715c0-5.83-4.283-11.515-12.067-16.008-8.6-4.961-20.139-7.7-32.484-7.7s-23.9,2.738-32.492,7.7C170.881,397.626,166.6,403.311,166.6,409.141Z" opacity="0.1"/><path d="M178.662,399.215c8.6-4.967,20.141-7.7,32.492-7.7s23.889,2.735,32.491,7.7c6.418,3.705,10.449,8.224,11.665,12.966-1.216,4.742-5.247,9.26-11.665,12.965-8.6,4.967-20.142,7.7-32.491,7.7s-23.89-2.735-32.492-7.7c-6.417-3.7-10.448-8.223-11.664-12.965C168.214,407.439,172.244,402.92,178.662,399.215Z" fill="#fff" opacity="0.4"/><path d="M199.533,436.825v13.413a64.572,64.572,0,0,1-23.249-7.536c-9.635-5.562-14.453-12.85-14.453-20.138V409.141a16.947,16.947,0,0,1,.591-4.4h.01c-2.337,8.672,2.28,17.849,13.852,24.536A64.755,64.755,0,0,0,199.533,436.825Z" opacity="0.1"/><path d="M434.614,354.86c.584.237.707,1.362.746,3.593.03,1.689.325,4.642-1.665,5.186s-4.877.177-6.108-1.441c-1.536-2.021-2.565-3.792-4.767-6.265-1.909-2.144-3.982-4.154-4.706-7.118-.653-2.678-.033-3.819,1.8-4.553,2.523-1.008,6.368,2.558,8.313,3.15C429.9,347.922,434.03,354.624,434.614,354.86Z" fill="#263238"/><path d="M434.661,352.8l-.061,2.738a6.705,6.705,0,0,1-6.923.031c-.113-.267-.63-3.932-.63-3.932Z" fill="#ffa8a7"/><path d="M412.089,370.138s.731,2.4,1.108,4.49c.3,1.663.719,4.439.112,5.671s-2.887,1.985-6.391,1.879c-2.271-.068-5.843,1.393-8.3,2.691-2.533,1.339-7.749,1.778-10.389,1.408-3.109-.436-6.3-2.318-6.774-3.621s.225-2.628,7.644-5.594c.068-.027,10.292-3.1,13.936-6.943Z" fill="#263238"/><path d="M412.155,367.178s-.055,2.031-.071,3.193-1.427,2.86-4.973,2.653c-2.491-.145-4.216-.854-4.071-2.9l.066-2.959Z" fill="#ffa8a7"/><path d="M437.26,316.507a74.522,74.522,0,0,0-2.912-14.331s1.255-12.279,1.986-23.931c.79-12.587,1.522-19.068-.952-37.246,0,0-38.59-3.466-39.643,11.08s.442,51.67.779,58.078,1.314,12.091,2.4,22.491c1.074,10.263,4.186,34.512,4.186,34.512a9.6,9.6,0,0,0,9.049.018s3.517-29.054,3.383-36.443A63.05,63.05,0,0,0,413.1,314.56s1.042-11.991,1.957-22.42,1.75-15.43,2.009-19.97l.885-.414s.487,18.039.822,24.448,1.216,12.566,2.8,24.49c1.374,10.345,5.664,32.264,5.664,32.264,4.588,2.615,7.423-.162,7.423-.162S438.311,325.48,437.26,316.507Z" fill="#37474f"/><path d="M417.068,272.17s9.971-4.638,15.006-8.909c0,0-4.728,6.354-10.808,9.081,0,0-2.644,22.336-2.623,21.892l-.739-22.078Z" fill="#263238"/><path d="M410.157,189.148l1.5,13.324,12.583-.634-1.4-15.55Z" fill="#ffa8a7"/><path d="M428.988,194.249c4.684-.216,7.063.487,9.167,4.528s2.928,16.114,3.66,22.339.915,10.616-1.647,11.257-12.535.915-12.535.915Z" fill="#37474f"/><path d="M436.895,201.154c-.679-3.729-5.581-7.647-10.171-6.9q-1.6.259-3.116.527c-.55,2.241-6.693,3.643-12.56,2.262-1.769.464-7.592,1.555-9.065,2.043-4.216,1.4-5.958,5.551-6.614,19.306,0,0,.338,31.147.173,37.351,10.413,4.394,21.343,4.512,27.412,3.328,12.635-2.464,14.269-7.645,14.269-7.645l-1.881-14.249S438.43,209.589,436.895,201.154Z" fill="#455a64"/><path d="M410.652,193.542l.1.838a18.679,18.679,0,0,0,7.727,0c4.087-.909,4.913-2.065,4.913-2.065l-.085-.95s1.017-.378,1.552,1.189a17.024,17.024,0,0,1,.591,1.91s.471,2.863-4.336,4.321a14.851,14.851,0,0,1-11.967-1.308l-1.885.4s1.63-3.758,2.123-4.52a1.251,1.251,0,0,1,1.179-.653Z" fill="#37474f"/><path d="M372.24,179.255l-24.95,13.021,12.4,33.9,23.284-13.044Z" fill="#455a64"/><path d="M371.1,182.573,350.164,193.5l10.972,29.143L380.67,211.7Z" fill="#f5f5f5"/><path d="M366.68,185.718l-.407-1.037c-.223-.573-1.965-.231-3.89.763l-3.687,1.9c-1.924.993-3.3,2.263-3.08,2.836l.406,1.037Z" opacity="0.15"/><path d="M366.274,181.569c-.138-.357-.9-.3-1.693.132l-1.443.779s-.89-2.24-4.209-.69-2.562,4.145-2.562,4.145-.685.379-1.532.845-1.448,1.139-1.346,1.5l.187.659,12.853-6.706S366.413,181.928,366.274,181.569Z" fill="#27debf"/><path d="M364.887,183.075c-1.2.588-1.666.871-1.322,1.754.393,1.008.758,1.732.758,1.732l-5.684,2.974s-.474-1.282-.681-1.777-.623-.731-1.528-.257l-.337-.357,8.967-4.571Z" fill="#27debf"/><path d="M364.887,183.075c-1.2.588-1.666.871-1.322,1.754.393,1.008.758,1.732.758,1.732l-5.684,2.974s-.474-1.282-.681-1.777-.623-.731-1.528-.257l-.337-.357,8.967-4.571Z" opacity="0.3"/><path d="M366.923,185.772s-.182-.464-.4-1.037-1.966-.231-3.891.763l-3.687,1.9c-1.924.994-3.3,2.264-3.08,2.836l.406,1.037Z" fill="#27debf"/><path d="M401.983,199.085c-5.759.5-8.213,1.551-12.537,9.348-4.693,8.463-13.714,23.778-14.858,25.712-1.592,2.69-1.893,6.782-.519,9.253,1.283,2.308,5.354,3.364,9.969-1.85,5.487-6.2,15.7-21.339,15.7-21.339S408.41,208.766,401.983,199.085Z" fill="#ffa8a7"/><path d="M376.456,245.173c-4.415-.536-14.727-14.527-17.66-19.1a32.609,32.609,0,0,0-8.935-9.428c-4.673-3.452-3.993-8.757-1.954-13.619.706-1.684,3.1-.589,3.1-.589l.844,2.308,1.462,3.995c.989.919,1.553,1.218,1.619.945.125-.516-.728-2.665-.706-4.9.024-2.694,1.911-.924,2.474.021a33.255,33.255,0,0,1,1.991,4.451c.943,2.412.553,4.853,1.7,6.5s16.532,16.385,16.532,16.385Z" fill="#ffa8a7"/><path d="M403.094,198.785c-3.49-.087-7.684.47-10.932,4.69s-16.248,27.169-16.248,27.169l-7.3-6.539a12.7,12.7,0,0,0-5.609,7.929A79.058,79.058,0,0,0,369.614,241c3.083,3.384,6.524,5.73,9.343,4.691s5.7-3.274,11.772-11.727,12.7-18.431,12.7-18.431S407.61,205.785,403.094,198.785Z" fill="#37474f"/><path d="M401.293,172.836s-3.142,4.768-2.784,5.235,2.67.891,2.67.891Z" fill="#f28f8f"/><path d="M402.763,175.9a3.743,3.743,0,1,1,3.743-3.743A3.747,3.747,0,0,1,402.763,175.9Zm0-6.654a2.911,2.911,0,1,0,2.911,2.911A2.913,2.913,0,0,0,402.763,169.245Z" fill="#263238"/><path d="M410.016,159.649c-6.358,1.342-8.193,4.136-8.791,14.235-.626,10.552.451,13.869,1.836,15.29.937.959,6.137,1.133,8.76.409,3.284-.9,10.7-3.535,14.18-8.843,4.087-6.245,5.161-14.708.785-18.18C420.627,157.673,412.6,159.1,410.016,159.649Z" fill="#ffa8a7"/><path d="M410.24,189.879l-.295-1.944a12.575,12.575,0,0,1-6.518,1.478C404.64,190.012,407.8,190.183,410.24,189.879Z" fill="#f28f8f"/><path d="M399.37,171.374l11.3,1.462-.455.795-10.848-1.408Z" fill="#263238"/><path d="M400.14,163.726a3.546,3.546,0,0,0,1.435-.087,2.266,2.266,0,0,0,.775,2.65,3.2,3.2,0,0,0,2.85.378,2.753,2.753,0,0,0-.311,1.965,3.186,3.186,0,0,0,3.293,2.376c.067,1.477.086,2.922,1.663,3.6,0,0,1.005-3.9,4.292-3.41,3.309.493,3.756,4.711,1.671,7.274-2.073,2.546-4.005,1.593-4.03,1.58.194.1.259,1.34.326,1.576a11.555,11.555,0,0,0,.845,2.132,10.212,10.212,0,0,0,2.976,3.488,7.329,7.329,0,0,0,5.965,1.66,6.418,6.418,0,0,0,4.345-3.5,3.769,3.769,0,0,1,.709-1.263,4.151,4.151,0,0,1,1.621-.7,4.762,4.762,0,0,0,2.691-6.716,4.364,4.364,0,0,0,1.67-7.621,5.235,5.235,0,0,0,2.251-5.68,5.319,5.319,0,0,0-3.758-3.6c-1.284-.371-.79-.573-1.188-1.83a4.607,4.607,0,0,0-5.854-3.021,4.442,4.442,0,0,0-3.175-3.415,4.392,4.392,0,0,0-2.244-.087c-.527.137-1.612.627-1.81,1.131-.669-.657-.885-1.525-1.7-2.123a4.817,4.817,0,0,0-7.1,1.517,5.925,5.925,0,0,0-4.441-1.867,4.854,4.854,0,0,0-4.047,2.472,4.122,4.122,0,0,0,.545,4.622,4.738,4.738,0,0,0-2.456,2.125,2.977,2.977,0,0,0,.347,3.318,2.564,2.564,0,0,0,1.241.923A3.629,3.629,0,0,0,400.14,163.726Z" fill="#263238"/><path d="M409.776,176.828l.118-4.414a2.208,2.208,0,1,0-.118,4.414Z" fill="#263238"/></g></svg>