<svg xmlns="http://www.w3.org/2000/svg" width="487.003" height="453.171" viewBox="0 0 487.003 453.171"><g transform="translate(-6.498 -24.65)"><ellipse cx="243.501" cy="140.585" rx="243.501" ry="140.585" transform="translate(6.498 196.65)" fill="#f5f5f5"/><path d="M269.225,426.208H230.758a1.854,1.854,0,0,1-1.89-2.424l.78-3.1a3.372,3.372,0,0,1,3.11-2.425h34.467a3.373,3.373,0,0,1,3.11,2.425l.78,3.1A1.855,1.855,0,0,1,269.225,426.208Z" fill="#e0e0e0"/><path d="M453.023,399.98c-8.576,4.951-22.479,4.951-31.055,0s-8.576-12.979,0-17.93,22.479-4.951,31.055,0S461.6,395.029,453.023,399.98Z" fill="#e0e0e0"/><path d="M86.474,401.391c-8.576,4.951-22.481,4.951-31.057,0s-8.576-12.979,0-17.931,22.481-4.951,31.057,0S95.049,396.44,86.474,401.391Z" fill="#e0e0e0"/><path d="M147.9,384.183l-19.214,11.125a2.38,2.38,0,0,1-2.154,0L69.767,362.582a.657.657,0,0,1,0-1.244L88.98,350.213a2.376,2.376,0,0,1,2.152,0L147.9,382.939A.657.657,0,0,1,147.9,384.183Z" fill="#e0e0e0"/><path d="M434.551,351.3l-55.793,32.221a2.085,2.085,0,0,1-1.89,0l-46.852-27.049a.575.575,0,0,1,0-1.09l55.794-32.222a2.087,2.087,0,0,1,1.888,0l46.853,27.049A.576.576,0,0,1,434.551,351.3Z" fill="#e0e0e0"/><path d="M168.421,375.322l13.12-7.574a.512.512,0,0,0,0-.969l-72.308-41.746a1.853,1.853,0,0,0-1.677,0l-13.121,7.575a.512.512,0,0,0,0,.969l72.308,41.746A1.852,1.852,0,0,0,168.421,375.322Z" fill="#e0e0e0"/><path d="M319.912,143.1a74.314,74.314,0,1,1-52.3-44.811A74.321,74.321,0,0,1,319.912,143.1Z" fill="#455a64"/><path d="M242.011,107.291c-3.4.059-7.76,1.262-4.6,3.194s5.178,2.112,5.2,4.617-1.613,5.14-.808,6.917,2.134,3.849,3.425,3.249,4.834-4.55,6.855-4.37,8.9.489,9.9-1.76,2.013-2.094,3.661-4.594,1.559-5.836-.448-5.851-2.276.844-5.638.6-4.917-2.465-8.193-1.88S244.508,107.248,242.011,107.291Z" fill="#27debf"/><path d="M229.371,108.181c-3.855,2.06-11.973,5.169-15.735,4.123-1.865-.529-4.089-1.272-6.46-1.712a74.5,74.5,0,0,0-28.747,43.417,24.615,24.615,0,0,0,3.357,5.2c2.943,3.457,5.986,3.9,9.712,4.614s2.562,2.813,4.4,5.01,2.613,3.482,4.71,4.655-.744,3.4-1.562,5.807-1.058,3.752.661,8.636,6.7,8.857,8.175,10.75-1.022,4.091-.387,8.054.436,14.482,4.239,20.4,6.078,5.222,5.772,1.233-1.6-7.762.712-10.757,6.994-2.2,8.58-7.678,2.611-5.216,5.146-7.075,1.4-3.458,3.755-7.69,3.053-8.218-.43-9.958-5.8-1.563-8.79-5.677A38.358,38.358,0,0,0,214.5,169.083c-4.323-2.347-11.186.516-13.925-.278s-4.471-6.008-4.3-8.027-1.859-2.536-3.827-2.045-3.068-.768-3.611-3.4,3.556-5.959,6.887-6.214,5.114,1.284,5.773,5.576a8.346,8.346,0,0,0,6.569,7.192c3.069.768,1.149-2.425-1.024-4.607s-2.325-4.165-.687-8.975,5.678-4.446,8.69-8.87,3.587-1.1,6.63-.658,2.587-1.2,3.71-3.965,4.986-.382,8.164-2.631-3.45-5.755-3.021-8.8,3.457-2.933,1.775-7.488.641-4.734,1.845-6.431S233.225,106.121,229.371,108.181Zm-4.5,11.117c-1,2.254-1.867,1.819-3.514,4.282a9.27,9.27,0,0,1-5.88,4.041c-1.66.2-4.393-2.754-4.533-4.579s2.5-2.367,5.477-2.756a16.625,16.625,0,0,0,8.234-3.81C226.8,114.8,225.877,117.055,224.874,119.3Z" fill="#27debf"/><path d="M325.005,165.071l.017.21a5.258,5.258,0,0,0-2.947,2.924c-1.689,4.141-2,2.329-5.966,5.14s-2.454,5.033-2.238,7.855-4.384,6.023-6.654,7.03-3.273,7.442-2.532,10.565-3,4.4-5.292,7.257-3.6,7.627-5.1,9.919a7.049,7.049,0,0,1-6.937,3.209c-2.712-.465-5.233-4.956-6.7-8.856a22.7,22.7,0,0,1-1.123-12.453c.85-4.238.549-3.714-.459-10.327a10.541,10.541,0,0,0-8.23-9.23c-2.557-.647-6.785.85-9.064-.481s-3.259-3.261-4.739-9.5,1.592-7.645,4.012-11.009a23.3,23.3,0,0,1,11.42-8.067,12.617,12.617,0,0,1,9.786,1.258c2.608,1.305,3.834,4.22,5.7,4.419s3.452-.766,5.315-.407,3.107,1.267,4.918.958.661-2.387.4-3.542-1.9-.857-4.079-.871-2.726-.614-3.5-2.059-2.02-.177-3.069-.769-.843,2.071-.936,3.1-.893-.784-.893-.784-.9,1.4-1.285.76.5-2.205.381-3.8-2.431-1.219-3.869-2.453a5.5,5.5,0,0,0-5.4-.75c-1.957.651-2.324.178-3.194,1.91s-5.135,2.9-6.486,2.673-.4-2.979.76-5.4,3.547-1.616,5.035-4.067-.545-2.8-1.919-3.193-1.8-1.709-.369-4.827,3.336-2.262,4.12-.817a4.821,4.821,0,0,0,4.348,2.176c1.838.029,1.409-1.272,1.364-3.947s1.191-4.1,3.621-5.122,6.486-2.673,8.05-4.127,4.3-.5,5.758,1.064,4.679,2.15,8.073,2.723a2.794,2.794,0,0,0,2.4-.8A73.965,73.965,0,0,1,325.005,165.071Z" fill="#27debf"/><path d="M311.089,201.646c-1.808-.308-1.649.293-2.711,1.711s-2.609,3.042-2.329,4.525.421,3.312,1.675,2.213.819-2.4,2.6-3.208S313.8,202.107,311.089,201.646Z" fill="#27debf"/><path d="M270.263,104.848c-47.335-13.663-56.172,18.6-31.087,38.936s68.084,27.033,73.877,13.626S305.448,115,270.263,104.848Z" fill="#fff" opacity="0.4" style="mix-blend-mode:soft-light;isolation:isolate"/><path d="M230.746,207.952c-36.782-30.183-35.64-88.782-3.391-107.719h0c-1.363.457-2.722.941-4.073,1.481a74.32,74.32,0,1,0,96.169,97.7C309.059,213.834,267.508,238.12,230.746,207.952Z" opacity="0.05" style="mix-blend-mode:multiply;isolation:isolate"/><path d="M423.076,101.116c-2.478-1.434-5.9-1.231-9.686.954-7.564,4.368-13.7,14.988-13.694,23.722,0,4.382,1.546,7.455,4.04,8.878.65.371,4.172,2.42,4.827,2.8,2.477,1.433,5.9,1.228,9.681-.955,7.564-4.367,13.7-14.988,13.7-23.722,0-4.365-1.533-7.43-4.009-8.861" fill="#27debf"/><path d="M418.243,104.884c-7.562,4.369-13.694,14.988-13.693,23.721s6.132,12.274,13.694,7.908,13.7-14.988,13.694-23.722S425.8,100.518,418.243,104.884Z" fill="#27debf"/><path d="M425.8,124.262v1a21.985,21.985,0,0,1-7.561,7.921c-2.947,1.7-5.611,1.885-7.561.8v-2.065a13.457,13.457,0,0,1,6.161-10.677l1.988-1.144a4.729,4.729,0,0,1,4.82-.37A4.975,4.975,0,0,1,425.8,124.262Z" fill="#27debf"/><path d="M423.076,101.117l4.854,2.813c-2.481-1.435-5.9-1.233-9.686.953-4.953,2.863-9.291,8.4-11.7,14.343l-4.854-2.816c2.406-5.937,6.741-11.48,11.7-14.34C417.175,99.886,420.6,99.682,423.076,101.117Z" fill="#fff" opacity="0.4"/><path d="M408.38,137.362c-.855-.494-4.045-2.351-4.645-2.693-2.494-1.423-4.04-4.5-4.04-8.877l4.854,2.816C404.552,132.864,406.011,135.888,408.38,137.362Z" opacity="0.2"/><path d="M401.694,116.41l4.854,2.816a25.4,25.4,0,0,0-2,9.379v0l-4.854-2.816A25.459,25.459,0,0,1,401.694,116.41Z" opacity="0.1"/><path d="M416.522,119.629a2.605,2.605,0,0,1-1.317-.344,3.228,3.228,0,0,1-1.431-2.971,8.527,8.527,0,0,1,3.911-6.773v0a2.927,2.927,0,0,1,4.718,2.727,8.529,8.529,0,0,1-3.909,6.773A3.988,3.988,0,0,1,416.522,119.629Z" fill="#fff"/><path d="M423.652,119.724a4.729,4.729,0,0,0-4.82.37l-1.988,1.144a13.457,13.457,0,0,0-6.161,10.677v2.065c1.95,1.084,4.614.9,7.561-.8a21.985,21.985,0,0,0,7.561-7.921v-1A4.975,4.975,0,0,0,423.652,119.724Z" fill="#fff"/><path d="M352.783,219.16a24.28,24.28,0,0,0,2.125-10.073,18.736,18.736,0,0,0,1.741-3.414,12.157,12.157,0,0,1-2,1.89,9.3,9.3,0,0,0,1.533-3.459,13.752,13.752,0,0,1-2.215,2.408,2.131,2.131,0,0,0-2.548,0,8.255,8.255,0,0,0-3.4,7.674c-2.9,1.48-5.471,1.112-7.191-.709-.914,2.619-.474,5.1,1.079,5.588a2.505,2.505,0,0,1-1.581.33c-.037,2.178,1.121,3.524,2.8,3a4.291,4.291,0,0,1-1.575.989,2.055,2.055,0,0,0,3.259,1.349,12.043,12.043,0,0,1-5.165,4.908,6.961,6.961,0,0,0,5.348-1c3.449-1.992,6.1-5.591,7.791-9.491" fill="#27debf"/><path d="M86.539,206.57c2.478-1.435,5.9-1.231,9.687.954,7.563,4.367,13.694,14.988,13.693,23.721,0,4.383-1.546,7.455-4.04,8.878-.649.371-4.172,2.42-4.826,2.8-2.478,1.433-5.9,1.228-9.683-.956-7.562-4.367-13.693-14.987-13.693-23.721,0-4.365,1.532-7.43,4.008-8.861" fill="#27debf"/><path d="M91.372,210.338c7.563,4.369,13.694,14.988,13.693,23.721s-6.132,12.274-13.695,7.907-13.7-14.987-13.693-23.721S83.816,205.972,91.372,210.338Z" fill="#27debf"/><path d="M90.4,221.637c-1.68-.97-3.042.059-3.042,2.3a7.285,7.285,0,0,0,3.042,5.812c1.681.97,3.042-.059,3.042-2.3A7.282,7.282,0,0,0,90.4,221.637Zm0,6.688a4.726,4.726,0,0,1-1.974-3.772c0-1.454.883-2.123,1.974-1.493a4.727,4.727,0,0,1,1.975,3.773C92.377,228.286,91.493,228.955,90.4,228.325Z" fill="#fff"/><path d="M94.866,223.284c0,.523-.318.764-.711.537a1.7,1.7,0,0,1-.711-1.358c0-.523.319-.764.711-.537a1.7,1.7,0,0,1,.711,1.358" fill="#fff"/><path d="M96.1,219.656l-10.553-6.093c-.743-.429-1.345.026-1.345,1.018v14.07a3.222,3.222,0,0,0,1.345,2.571l3.784,2.184,3.144,1.816,3.625,2.093c.744.429,1.346-.026,1.346-1.018v-14.07A3.219,3.219,0,0,0,96.1,219.656Zm.036,15.932-10.081-5.82a1.085,1.085,0,0,1-.543-.94V215.29l10.081,5.82a1.085,1.085,0,0,1,.543.94Z" fill="#fff"/><path d="M86.539,206.57l-4.854,2.813c2.48-1.435,5.9-1.232,9.686.954,4.953,2.862,9.291,8.4,11.7,14.342l4.854-2.816c-2.4-5.937-6.741-11.479-11.7-14.34C92.44,205.34,89.017,205.135,86.539,206.57Z" fill="#fff" opacity="0.4"/><path d="M101.235,242.815c.855-.493,4.045-2.351,4.644-2.692,2.5-1.423,4.04-4.5,4.04-8.877l-4.853,2.815C105.064,238.318,103.605,241.342,101.235,242.815Z" opacity="0.2"/><path d="M107.921,221.863l-4.854,2.816a25.409,25.409,0,0,1,2,9.38v0l4.853-2.815A25.441,25.441,0,0,0,107.921,221.863Z" opacity="0.1"/><path d="M345.793,34.029c-2.478-1.434-5.9-1.231-9.687.954-7.563,4.368-13.694,14.988-13.693,23.722,0,4.382,1.546,7.455,4.04,8.878.65.371,4.172,2.42,4.826,2.8,2.478,1.433,5.9,1.228,9.683-.955,7.562-4.367,13.693-14.987,13.693-23.722,0-4.365-1.532-7.43-4.008-8.861" fill="#27debf"/><path d="M340.96,37.8c-7.563,4.37-13.694,14.988-13.693,23.722s6.132,12.273,13.7,7.907,13.7-14.987,13.693-23.722S348.516,33.431,340.96,37.8Z" fill="#27debf"/><path d="M345.793,34.03l4.854,2.813c-2.48-1.435-5.9-1.233-9.686.953-4.953,2.863-9.291,8.4-11.7,14.343l-4.854-2.816c2.4-5.937,6.741-11.48,11.7-14.34C339.892,32.8,343.315,32.6,345.793,34.03Z" fill="#fff" opacity="0.4"/><path d="M331.1,70.275c-.855-.494-4.045-2.351-4.644-2.693-2.495-1.423-4.041-4.495-4.041-8.877l4.855,2.816C327.269,65.777,328.728,68.8,331.1,70.275Z" opacity="0.2"/><path d="M324.411,49.323l4.854,2.816a25.407,25.407,0,0,0-2,9.38v0l-4.855-2.816A25.458,25.458,0,0,1,324.411,49.323Z" opacity="0.1"/><path d="M338.78,66.929l3.484-2.012V53.285l2.43-1.4.26-4.045-2.69,1.553V47.171c0-.918.138-1.361.8-1.746l1.886-1.088V40.294l-2.413,1.393a7.076,7.076,0,0,0-3.761,6.608V51.4l-1.812,1.047v3.944l1.812-1.046Z" fill="#fff"/><path d="M306.394,270.487c-2.479-1.434-5.9-1.231-9.687.954-7.564,4.368-13.694,14.988-13.693,23.722,0,4.382,1.546,7.455,4.04,8.878.649.371,4.172,2.42,4.826,2.8,2.477,1.433,5.9,1.228,9.683-.955,7.562-4.367,13.692-14.988,13.692-23.722,0-4.365-1.532-7.43-4.008-8.861" fill="#27debf"/><path d="M301.56,274.255c-7.562,4.369-13.7,14.988-13.693,23.722s6.132,12.274,13.7,7.907,13.7-14.988,13.693-23.722S309.116,269.889,301.56,274.255Z" fill="#27debf"/><path d="M306.394,270.488l4.853,2.813c-2.479-1.435-5.9-1.233-9.687.953-4.952,2.863-9.289,8.4-11.7,14.343l-4.853-2.816c2.4-5.937,6.741-11.48,11.7-14.34C300.492,269.257,303.916,269.053,306.394,270.488Z" fill="#fff" opacity="0.4"/><path d="M291.7,306.733c-.854-.494-4.045-2.351-4.644-2.693-2.494-1.423-4.04-4.495-4.04-8.877l4.854,2.816C287.869,302.235,289.328,305.259,291.7,306.733Z" opacity="0.2"/><path d="M285.012,285.781l4.853,2.816a25.408,25.408,0,0,0-2,9.38v0l-4.854-2.816A25.438,25.438,0,0,1,285.012,285.781Z" opacity="0.1"/><path d="M298.379,289.249s2.219-5.1,2.429-5.84a22.573,22.573,0,0,0-.017-3.8c0-.49,2.019-1.854,2.665-.448a7.314,7.314,0,0,1,.341,4.716l4.921-2.87c1.039-.6,1.47.25,1.472.924a3.665,3.665,0,0,1-.791,2.12s.986-.3.992,1.019a3.467,3.467,0,0,1-1.19,2.414s.321.243.325,1.162a3.868,3.868,0,0,1-1.377,2.462,2.81,2.81,0,0,1,.219,1.163,3.77,3.77,0,0,1-1.8,2.833l-8.14,4.748Z" fill="#fff"/><path d="M293.714,304.033l3.548-2.069-.055-12.339-3.547,2.069Z" fill="#fff"/><path d="M136.679,143.91l2.262-.18c2.977-.239,6.527-1.415,6.527-5.669a9.991,9.991,0,0,0-4.522-7.831c-1.945-1.124-3.6-.663-4.242.959a10.108,10.108,0,0,0-4.242-5.858c-2.5-1.442-4.522-.272-4.522,2.611,0,4.174,3.53,9.459,6.49,13.158Z" fill="#27debf"/><path d="M189.319,267.544c2.479-1.435,5.9-1.231,9.687.954,7.564,4.367,13.7,14.988,13.694,23.722,0,4.382-1.546,7.455-4.041,8.878-.649.371-4.171,2.42-4.826,2.8-2.478,1.433-5.9,1.228-9.682-.956-7.563-4.366-13.693-14.987-13.693-23.721,0-4.364,1.532-7.43,4.008-8.861" fill="#27debf"/><path d="M194.153,271.312c7.562,4.37,13.694,14.988,13.693,23.722s-6.132,12.274-13.695,7.906-13.7-14.987-13.693-23.721S186.6,266.946,194.153,271.312Z" fill="#27debf"/><path d="M189.32,267.544l-4.854,2.814c2.48-1.435,5.9-1.233,9.686.953,4.953,2.863,9.291,8.4,11.7,14.342l4.854-2.815c-2.406-5.938-6.742-11.48-11.7-14.34C195.221,266.315,191.8,266.109,189.32,267.544Z" fill="#fff" opacity="0.4"/><path d="M204.016,303.79c.855-.494,4.044-2.351,4.644-2.693,2.494-1.423,4.04-4.495,4.04-8.877l-4.854,2.816C207.844,299.292,206.385,302.316,204.016,303.79Z" opacity="0.2"/><path d="M210.7,282.838l-4.854,2.815a25.407,25.407,0,0,1,2,9.38v0l4.854-2.816A25.456,25.456,0,0,0,210.7,282.838Z" opacity="0.1"/><path d="M189.838,278.435V291.7c0,.992.4,1.721.883,1.628l9.185-1.768c.488-.094.279-.983-.465-1.986l-8.255-11.119C190.442,277.45,189.838,277.442,189.838,278.435Z" fill="#fff"/><path d="M78.342,94.178c2.478-1.435,5.9-1.231,9.686.954,7.564,4.367,13.695,14.988,13.694,23.722,0,4.382-1.546,7.455-4.04,8.878-.65.37-4.172,2.42-4.827,2.8-2.477,1.432-5.9,1.228-9.682-.956-7.563-4.366-13.693-14.987-13.693-23.722,0-4.364,1.532-7.429,4.008-8.86" fill="#27debf"/><path d="M83.175,97.946c7.562,4.369,13.694,14.988,13.693,23.721s-6.132,12.274-13.695,7.907-13.7-14.987-13.693-23.722S75.619,93.58,83.175,97.946Z" fill="#27debf"/><path d="M78.342,94.179l-4.854,2.813c2.48-1.435,5.9-1.233,9.686.953,4.953,2.863,9.291,8.4,11.7,14.342l4.854-2.815c-2.4-5.938-6.742-11.48-11.7-14.34C84.243,92.948,80.819,92.744,78.342,94.179Z" fill="#fff" opacity="0.4"/><path d="M93.038,130.424c.855-.494,4.045-2.351,4.644-2.693,2.5-1.423,4.04-4.5,4.04-8.877l-4.854,2.816C96.866,125.926,95.407,128.95,93.038,130.424Z" opacity="0.2"/><path d="M99.724,109.472l-4.854,2.815a25.407,25.407,0,0,1,2,9.38v0l4.854-2.816A25.457,25.457,0,0,0,99.724,109.472Z" opacity="0.1"/><path d="M79.978,102.045l0,13.605a4.883,4.883,0,0,0-.9-.692c-1.033-.6-1.869.209-1.869,1.8a4.926,4.926,0,0,0,1.87,3.956c1.032.6,2.269,0,2.269-1.585V106.663l5.993,3.512v9.765a4.937,4.937,0,0,0-.9-.692c-1.032-.6-1.526.387-1.525,1.977a4.928,4.928,0,0,0,1.869,3.956c1.032.6,1.868-.208,1.869-1.8h0V107.08Z" fill="#fff"/><path d="M416.866,212.344c-2.477-1.434-5.9-1.231-9.686.954-7.564,4.368-13.7,14.988-13.694,23.722,0,4.382,1.546,7.455,4.04,8.878.65.371,4.172,2.42,4.827,2.8,2.477,1.433,5.9,1.228,9.682-.955,7.563-4.367,13.694-14.988,13.694-23.722,0-4.365-1.533-7.43-4.009-8.861" fill="#27debf"/><path d="M412.033,216.112c-7.562,4.369-13.694,14.988-13.693,23.721s6.133,12.274,13.7,7.908,13.7-14.988,13.694-23.722S419.589,211.746,412.033,216.112Z" fill="#27debf"/><path d="M416.866,212.345l4.854,2.813c-2.48-1.435-5.9-1.233-9.686.953-4.952,2.863-9.291,8.405-11.7,14.343l-4.854-2.816c2.406-5.937,6.742-11.48,11.7-14.34C410.965,211.114,414.389,210.91,416.866,212.345Z" fill="#fff" opacity="0.4"/><path d="M402.17,248.59c-.855-.494-4.045-2.351-4.645-2.693-2.494-1.423-4.04-4.5-4.04-8.877l4.855,2.816C398.342,244.093,399.8,247.116,402.17,248.59Z" opacity="0.2"/><path d="M395.484,227.638l4.854,2.816a25.4,25.4,0,0,0-2,9.379v0l-4.855-2.816A25.458,25.458,0,0,1,395.484,227.638Z" opacity="0.1"/><path d="M405.188,227.276v17.206c0,.516.361.725.807.467l12.077-6.972a1.782,1.782,0,0,0,.808-1.4V219.371c0-.516-.361-.724-.808-.467l-12.077,6.973A1.786,1.786,0,0,0,405.188,227.276Zm12.122,9.968-10.552,6.091c-.447.258-.808.049-.808-.466v-14.86a1.781,1.781,0,0,1,.808-1.4l10.552-6.092c.446-.258.807-.049.807.465v14.861A1.786,1.786,0,0,1,417.31,237.244Z" fill="#fff"/><path d="M405.95,243.8v-4.843l3.84-7.366,3.989,4.381-.861-2.119,1.587-2.913,3.612,2.479v3.358Z" fill="#fff"/><path d="M415.1,224.94c.485-.28.879.1.879.847a2.321,2.321,0,0,1-.879,1.862c-.487.281-.88-.1-.88-.846A2.32,2.32,0,0,1,415.1,224.94Z" fill="#fff"/><path d="M169.48,74.734l-2.707-5.091,2.178-6.288V59.506l-6.667,3.849V67.2l2.866,4.964a.419.419,0,0,0,.2.173v0Z" fill="#27debf"/><path d="M169.48,74.734l-2.707-5.091,2.178-6.288V59.506l-6.667,3.849V67.2l2.866,4.964a.419.419,0,0,0,.2.173v0Z" opacity="0.2"/><path d="M198.137,29.53a4.417,4.417,0,0,0-2-3.462l-1.628-.94a4.419,4.419,0,0,0-4,0l-37.7,21.779a4.422,4.422,0,0,0-2,3.462V69.864a4.42,4.42,0,0,0,2,3.463l1.628.939a4.419,4.419,0,0,0,4,0l8.027-4.638,2.861,4.955a.427.427,0,0,0,.773-.074l3.023-8.726,23.012-13.3a4.417,4.417,0,0,0,2-3.462Z" fill="#27debf"/><path d="M150.82,69.865a4.42,4.42,0,0,0,2,3.462l1.628.939a4.468,4.468,0,0,0,3.656.161c-.941.356-1.657-.175-1.657-1.315V53.617a4.083,4.083,0,0,1,.586-1.97L151.4,48.4a4.085,4.085,0,0,0-.585,1.971Z" opacity="0.2"/><path d="M198.072,28.962c-.233-.849-1.007-1.119-1.93-.588l-37.7,21.783a3.966,3.966,0,0,0-1.408,1.492L151.412,48.4a4.034,4.034,0,0,1,1.407-1.492L190.51,25.129a4.45,4.45,0,0,1,4,0l1.632.942A4.412,4.412,0,0,1,198.072,28.962Z" fill="#fff" opacity="0.2"/><path d="M167.457,53.93a5.9,5.9,0,0,0-2.667,4.62c0,1.7,1.194,2.391,2.667,1.54a5.9,5.9,0,0,0,2.667-4.62C170.124,53.769,168.93,53.08,167.457,53.93Z" fill="#fff"/><path d="M177.291,48.241a5.894,5.894,0,0,0-2.667,4.62c0,1.7,1.194,2.391,2.667,1.54a5.9,5.9,0,0,0,2.667-4.62C179.958,48.08,178.765,47.39,177.291,48.241Z" fill="#fff"/><path d="M187.126,42.552a5.893,5.893,0,0,0-2.668,4.62c0,1.7,1.194,2.391,2.668,1.54a5.9,5.9,0,0,0,2.667-4.62C189.793,42.391,188.6,41.7,187.126,42.552Z" fill="#fff"/><path d="M352.621,141.207l17.306-9.992a1.428,1.428,0,0,0,.6-1.141V114.5c0-.44-.267-.642-.6-.452l-17.306,9.992a1.429,1.429,0,0,0-.6,1.141v15.573C352.023,141.2,352.291,141.4,352.621,141.207Z" fill="#27debf"/><path d="M352.023,140.755v-.306l7.155-11.857-7.063-3.914c.016-.044.033-.086.052-.128l8.8,3.668c.186.077.426-.061.612-.354l8.788-13.809a.342.342,0,0,1,.054.059l-7.052,12.058,7.154,3.6v.306a1.567,1.567,0,0,1-.18.7l-7.338-3.984-1.039,1.776c-.412.705-.974,1.029-1.387.8l-1.039-.576-7.325,12.436A.562.562,0,0,1,352.023,140.755Z" fill="#fff"/><path d="M156,204.873a10.807,10.807,0,0,1,1.44,1.821,14.875,14.875,0,0,1,1.106,2.085,14.234,14.234,0,0,1,.725,2.1,8.4,8.4,0,0,1,.284,1.86.648.648,0,0,1-.116.422.185.185,0,0,1-.257.056l-2.316-1.337a1.216,1.216,0,0,1-.4-.357,3.471,3.471,0,0,1-.31-.555c-.036-.083-.091-.22-.168-.411a4.785,4.785,0,0,0-.327-.645,4.6,4.6,0,0,0-.531-.715,3.119,3.119,0,0,0-.777-.621,3.4,3.4,0,0,0-.646-.295,1.235,1.235,0,0,0-.548-.065.552.552,0,0,0-.389.263,1.278,1.278,0,0,0-.15.7,2.3,2.3,0,0,0,.168.882,3.76,3.76,0,0,0,.565.909,12.259,12.259,0,0,0,1.052,1.126q.655.63,1.627,1.536a14.67,14.67,0,0,1,1.7,1.861,10.339,10.339,0,0,1,1.212,2.035,10.528,10.528,0,0,1,.725,2.3,14.133,14.133,0,0,1,.239,2.7,7.894,7.894,0,0,1-.283,2.257,3.765,3.765,0,0,1-.8,1.49,2.276,2.276,0,0,1-1.239.7,3.329,3.329,0,0,1-1.591-.1v2.232a.793.793,0,0,1-.142.515.237.237,0,0,1-.335.058l-2.317-1.337a.888.888,0,0,1-.335-.446,1.708,1.708,0,0,1-.142-.678v-2.327a11.29,11.29,0,0,1-1.53-1.872,14.939,14.939,0,0,1-1.167-2.136,12.82,12.82,0,0,1-.752-2.211,9.858,9.858,0,0,1-.282-2.1.643.643,0,0,1,.115-.421.183.183,0,0,1,.256-.056l2.316,1.337a1.241,1.241,0,0,1,.389.334,2.856,2.856,0,0,1,.283.494q.07.165.212.531a7.116,7.116,0,0,0,.381.8,5.156,5.156,0,0,0,.6.865,3.969,3.969,0,0,0,2.458,1.277c.418,0,.627-.313.627-.942a2,2,0,0,0-.229-.918,5.227,5.227,0,0,0-.69-.979,15.461,15.461,0,0,0-1.176-1.2q-.716-.664-1.688-1.6a10.906,10.906,0,0,1-2.661-3.848,12.879,12.879,0,0,1-.841-4.807,7.9,7.9,0,0,1,.231-1.988,4.378,4.378,0,0,1,.662-1.488,2.517,2.517,0,0,1,1.061-.865,2.649,2.649,0,0,1,1.424-.153v-2.326a.787.787,0,0,1,.142-.515.236.236,0,0,1,.335-.058l2.317,1.338a.893.893,0,0,1,.335.445,1.726,1.726,0,0,1,.142.679Z" fill="#27debf"/><path d="M262.615,42.811l-3.18-1.826h0c-1.519-1.015-3.626-.972-5.957.374-4.624,2.669-8.373,9.447-8.373,15.139v1.295c0,5.691,7.653,11.876,7.653,11.876l3.129,1.77s-1.88-2.144-1.666-2.583c2.05-4.206,7.629-16.084,7.629-20.73V46.831a10.076,10.076,0,0,0-.359-2.779l.359.207Zm-9.137,13.048c-2.312,1.335-4.186.253-4.186-2.416,1.244-.2,4.373-5.538,4.186-7.251,2.311-1.335,4.185-.252,4.186,2.417A9.254,9.254,0,0,1,253.478,55.859Z" fill="#27debf"/><g opacity="0.2"><path d="M262.615,42.811l-3.18-1.826h0c-1.519-1.015-3.626-.972-5.957.374-4.624,2.669-8.373,9.447-8.373,15.139v1.295c0,5.691,7.653,11.876,7.653,11.876l3.129,1.77s-1.88-2.144-1.666-2.583c2.05-4.206,7.629-16.084,7.629-20.73V46.831a10.076,10.076,0,0,0-.359-2.779l.359.207Zm-9.137,13.048c-2.312,1.335-4.186.253-4.186-2.416,1.244-.2,4.373-5.538,4.186-7.251,2.311-1.335,4.185-.252,4.186,2.417A9.254,9.254,0,0,1,253.478,55.859Z"/></g><path d="M265.2,48.764c0-5.692-3.748-8.141-8.372-5.472s-8.372,9.447-8.372,15.139v1.3c0,4.383,4.965,9.468,7.248,11.575a1.126,1.126,0,0,0,1.779-.331c1.973-4.037,7.717-16.2,7.717-20.911Zm-8.372,9.029c-2.311,1.334-4.185.252-4.185-2.417a9.253,9.253,0,0,1,4.185-7.25c2.312-1.335,4.186-.253,4.186,2.416A9.25,9.25,0,0,1,256.826,57.793Z" fill="#27debf"/><g opacity="0.8"><line x2="61.817" y2="50.294" transform="translate(349.393 56.901)" fill="none" stroke="#27debf" stroke-linecap="round" stroke-miterlimit="10" stroke-width="0.746"/><line x1="3.613" y2="78.278" transform="translate(410.161 135.716)" fill="none" stroke="#27debf" stroke-linecap="round" stroke-miterlimit="10" stroke-width="0.746"/><line x1="40.923" y1="76.986" transform="translate(363.673 141.808)" fill="none" stroke="#27debf" stroke-linecap="round" stroke-miterlimit="10" stroke-width="0.746"/><line y1="6.085" x2="30.643" transform="translate(373.395 115.893)" fill="none" stroke="#27debf" stroke-linecap="round" stroke-miterlimit="10" stroke-width="0.746"/><line x2="20.083" y2="46.134" transform="translate(337.529 70.275)" fill="none" stroke="#27debf" stroke-linecap="round" stroke-miterlimit="10" stroke-width="0.746"/><line x1="65.721" y2="10.745" transform="translate(265.376 45.09)" fill="none" stroke="#27debf" stroke-linecap="round" stroke-miterlimit="10" stroke-width="0.746"/><line x2="88.069" y2="56.51" transform="translate(264.745 62.95)" fill="none" stroke="#27debf" stroke-linecap="round" stroke-miterlimit="10" stroke-width="0.746"/><line x1="6.754" y2="59.977" transform="translate(352.459 141.808)" fill="none" stroke="#27debf" stroke-linecap="round" stroke-miterlimit="10" stroke-width="0.746"/><line x1="84.006" y2="48.905" transform="translate(312.219 238.609)" fill="none" stroke="#27debf" stroke-linecap="round" stroke-miterlimit="10" stroke-width="0.746"/><line x2="39.41" y2="11.468" transform="translate(358.418 217.529)" fill="none" stroke="#27debf" stroke-linecap="round" stroke-miterlimit="10" stroke-width="0.746"/><line x1="29.792" y2="40.028" transform="translate(311.247 233.273)" fill="none" stroke="#27debf" stroke-linecap="round" stroke-miterlimit="10" stroke-width="0.746"/><line x2="32.854" y2="42.074" transform="translate(162.649 227.368)" fill="none" stroke="#27debf" stroke-linecap="round" stroke-miterlimit="10" stroke-width="0.746"/><line y1="14.19" x2="35.614" transform="translate(106.493 214.24)" fill="none" stroke="#27debf" stroke-linecap="round" stroke-miterlimit="10" stroke-width="0.746"/><line x1="10.889" y1="44.663" transform="translate(140.63 149.636)" fill="none" stroke="#27debf" stroke-linecap="round" stroke-miterlimit="10" stroke-width="0.746"/><line x1="34.043" y2="67.789" transform="translate(96.169 143.068)" fill="none" stroke="#27debf" stroke-linecap="round" stroke-miterlimit="10" stroke-width="0.746"/><line x1="7.749" y1="80.987" transform="translate(83.622 127.481)" fill="none" stroke="#27debf" stroke-linecap="round" stroke-miterlimit="10" stroke-width="0.746"/><line x2="81.836" y2="47.248" transform="translate(105.065 239.363)" fill="none" stroke="#27debf" stroke-linecap="round" stroke-miterlimit="10" stroke-width="0.746"/><line y1="49.789" x2="21.788" transform="translate(139.734 75.913)" fill="none" stroke="#27debf" stroke-linecap="round" stroke-miterlimit="10" stroke-width="0.746"/><line x2="41.358" y2="10.204" transform="translate(202.176 45.167)" fill="none" stroke="#27debf" stroke-linecap="round" stroke-miterlimit="10" stroke-width="0.746"/><line x1="55.594" y2="40.154" transform="translate(92.039 63.013)" fill="none" stroke="#27debf" stroke-linecap="round" stroke-miterlimit="10" stroke-width="0.746"/><line x2="25.88" y2="12.113" transform="translate(99.334 114.474)" fill="none" stroke="#27debf" stroke-linecap="round" stroke-miterlimit="10" stroke-width="0.746"/><line x1="94.032" y2="67.128" transform="translate(146.086 64.357)" fill="none" stroke="#27debf" stroke-linecap="round" stroke-miterlimit="10" stroke-width="0.746"/><line x2="77.165" y2="0.056" transform="translate(209.274 286.42)" fill="none" stroke="#27debf" stroke-linecap="round" stroke-miterlimit="10" stroke-width="0.715"/></g><path d="M61.635,378.613a25.615,25.615,0,0,0-3.289-9.558c-2.677-4.177-6.355-6.784-9.787-7.056s-6.2,2.887-2.532,5.055,10.2,4.381,13.2,12.491Z" fill="#27debf"/><path d="M61.635,378.613a25.615,25.615,0,0,0-3.289-9.558c-2.677-4.177-6.355-6.784-9.787-7.056s-6.2,2.887-2.532,5.055,10.2,4.381,13.2,12.491Z" opacity="0.1"/><path d="M60.629,377.215a.16.16,0,0,0,.036-.01.183.183,0,0,0,.1-.239c-3.622-8.92-10.517-12.644-13.657-13.367a.183.183,0,1,0-.082.357c3.075.708,9.834,4.368,13.4,13.148A.182.182,0,0,0,60.629,377.215Z" fill="#fff"/><path d="M42.295,377.321a3.038,3.038,0,0,0,1.788,1.352,3.507,3.507,0,0,1,1.868,1.257c.775,1.338-.5,3.219.334,4.522a2.394,2.394,0,0,0,1.636.948,16.008,16.008,0,0,0,1.608.144,6.418,6.418,0,0,0,.765-.059,3.466,3.466,0,0,1,2.214.236c1.063.6,1.39,1.94,2.035,2.976a5.054,5.054,0,0,0,3.583,2.247,3.511,3.511,0,0,0,1.854-.123.863.863,0,0,0,.1-.064l.009-.009c.067-.075.151-.171.187-.223a.089.089,0,0,0,.019-.031,7.717,7.717,0,0,0-.132-2.133c0-.046,0-.088,0-.13.03-.833.053-1.662.072-2.493.039-1.529.057-3.061.046-4.592a7.5,7.5,0,0,0-.311-3.018c-.466-1.03-1.624-1.053-2.062-2.063-.175-.4-.268-.835-.438-1.242a3.56,3.56,0,0,0-3.031-2.116c-2.022-.1-3.836,1.534-5.856,1.385a15.243,15.243,0,0,1-1.548-.3,4.38,4.38,0,0,0-4.451,1.545A2.123,2.123,0,0,0,42.295,377.321Z" fill="#27debf"/><path d="M60.46,387.309l.014,0a.173.173,0,0,0,.122-.211c-2.793-10.481-13.836-12-16.42-11.809a.174.174,0,0,0-.159.184.172.172,0,0,0,.184.16c2.528-.182,13.328,1.3,16.062,11.554A.172.172,0,0,0,60.46,387.309Z" fill="#fff"/><path d="M48.191,382a.169.169,0,0,0,.091-.048,9.181,9.181,0,0,1,7.515-2.117.172.172,0,0,0,.051-.341,9.53,9.53,0,0,0-7.811,2.215.172.172,0,0,0,.154.291Z" fill="#fff"/><path d="M265.641,407.6a31.273,31.273,0,0,1,4.389-11.526c3.431-4.988,8.02-8.021,12.216-8.216s7.451,3.766,2.887,6.265-12.609,4.938-16.591,14.71Z" fill="#27debf"/><path d="M265.641,407.6a31.273,31.273,0,0,1,4.389-11.526c3.431-4.988,8.02-8.021,12.216-8.216s7.451,3.766,2.887,6.265-12.609,4.938-16.591,14.71Z" opacity="0.15"/><path d="M266.924,405.935a.132.132,0,0,1-.044-.014.224.224,0,0,1-.114-.295c4.77-10.734,13.327-15,17.184-15.76a.224.224,0,1,1,.087.439c-3.779.742-12.167,4.937-16.862,15.5A.222.222,0,0,1,266.924,405.935Z" fill="#fff"/><path d="M266.773,414.972a9.2,9.2,0,0,0,.253-3.194c-.086-1.142-.588-2.3-.463-3.451a3.754,3.754,0,0,1,1.585-2.4,9.522,9.522,0,0,0,2.314-1.59,10.478,10.478,0,0,0,1.014-2.688,4.109,4.109,0,0,1,5.244-2.3,11.79,11.79,0,0,1,2.512,1.586,4.74,4.74,0,0,0,2.786,1,20.529,20.529,0,0,1,3.334.161c1.873.295,4.134,1.293,4.469,3.376a2.414,2.414,0,0,1-.184,1.523c-.01.019-.022.038-.033.057-.75,1.259-2.5,1.267-3.707,1.755-.328.133-.869.311-1.041.658s.068.893.171,1.255c.6,2.1.725,4.806-2.181,5.238a9.1,9.1,0,0,1-3.217-.482,3.28,3.28,0,0,0-3.08.555,6.565,6.565,0,0,0-.928,1.722,5.669,5.669,0,0,1-3.142,2.657,10.017,10.017,0,0,1-4.152.484C265.269,420.684,266.24,417.029,266.773,414.972Z" fill="#27debf"/><path d="M266.729,418.252l-.016-.005a.21.21,0,0,1-.141-.262c3.823-12.67,17.348-14.08,20.492-13.75a.212.212,0,0,1,.187.231.209.209,0,0,1-.231.187c-3.075-.322-16.3,1.057-20.045,13.453A.213.213,0,0,1,266.729,418.252Z" fill="#fff"/><path d="M281.9,412.261a.211.211,0,0,1-.109-.062,11.2,11.2,0,0,0-9.081-2.88.21.21,0,0,1-.048-.418,11.637,11.637,0,0,1,9.438,3.012.21.21,0,0,1-.012.3A.213.213,0,0,1,281.9,412.261Z" fill="#fff"/><path d="M231.51,408.7a26.772,26.772,0,0,0-4.052-13.51c-3.368-5.538-7.762-9.217-11.393-8.026-3.381,1.108-2.567,5.707,2.612,10.653,3.634,3.471,7.327,7.889,9.059,12.972l2.969,6.538Z" fill="#27debf"/><path d="M231.51,408.7a26.772,26.772,0,0,0-4.052-13.51c-3.368-5.538-7.762-9.217-11.393-8.026-3.381,1.108-2.567,5.707,2.612,10.653,3.634,3.471,7.327,7.889,9.059,12.972l2.969,6.538Z" fill="#27debf"/><g opacity="0.15"><path d="M231.51,408.7a26.772,26.772,0,0,0-4.052-13.51c-3.368-5.538-7.762-9.217-11.393-8.026-3.381,1.108-2.567,5.707,2.612,10.653,3.634,3.471,7.327,7.889,9.059,12.972l2.969,6.538Z"/></g><path d="M230.976,411.034a.222.222,0,0,1-.193-.164c-2.317-8.873-8-18.164-13.215-21.609a.221.221,0,1,1,.243-.369c5.3,3.5,11.058,12.9,13.4,21.866a.223.223,0,0,1-.234.276Z" fill="#fff"/><path d="M231.688,418.8a13.148,13.148,0,0,1-6.023,3.126c-3.874.911-5.743-.835-5.743-.835s1.271-3.791,3.42-4.987a21.93,21.93,0,0,0-6.6,3.295s-2.391.214-3.614-3.368c0,0,1.255-2.3,5.924-3.844a15.714,15.714,0,0,0-7.041.859c-.3.148-1.987-4.476-2.552-6.625s.312-2.191,1.977-2.77,7.428-1.294,8.561-.439,1.91,4.01,1.91,4.01a7.832,7.832,0,0,0,.344-4.231,10.159,10.159,0,0,1,4.588.192c.446.125,1.191,3.3.364,5.938a10.5,10.5,0,0,0,1.94-5.046,7.262,7.262,0,0,1,3.883,5.077C233.559,411.254,233.965,415.784,231.688,418.8Z" fill="#27debf"/><path d="M231.7,419.02a.221.221,0,0,1-.208-.11c-3.65-6.336-15.975-13.1-20.249-13.605a.222.222,0,0,1,.053-.44c4.343.515,16.87,7.387,20.579,13.825a.221.221,0,0,1-.175.33Z" fill="#fff"/><path d="M445.806,376.18a25.623,25.623,0,0,1,3.289-9.559c2.677-4.177,6.355-6.784,9.788-7.055s6.2,2.886,2.531,5.055-10.2,4.381-13.2,12.491Z" fill="#27debf"/><path d="M445.806,376.18a25.623,25.623,0,0,1,3.289-9.559c2.677-4.177,6.355-6.784,9.788-7.055s6.2,2.886,2.531,5.055-10.2,4.381-13.2,12.491Z" opacity="0.1"/><path d="M446.813,374.782a.158.158,0,0,1-.037-.011.182.182,0,0,1-.1-.238c3.622-8.92,10.517-12.645,13.657-13.368a.184.184,0,0,1,.082.358c-3.075.708-9.834,4.368-13.4,13.147A.184.184,0,0,1,446.813,374.782Z" fill="#fff"/><path d="M465.146,374.888a3.037,3.037,0,0,1-1.788,1.352,3.5,3.5,0,0,0-1.868,1.257c-.774,1.337.5,3.219-.334,4.522a2.4,2.4,0,0,1-1.636.948c-.531.1-1.071.1-1.608.144a6.628,6.628,0,0,1-.765-.06,3.476,3.476,0,0,0-2.213.236c-1.064.6-1.391,1.94-2.037,2.976a5.044,5.044,0,0,1-3.582,2.247,3.507,3.507,0,0,1-1.853-.122.88.88,0,0,1-.1-.064l-.008-.009a2.913,2.913,0,0,1-.188-.223.078.078,0,0,1-.018-.032,7.668,7.668,0,0,1,.131-2.132c0-.046,0-.088,0-.13-.029-.834-.053-1.662-.072-2.493-.039-1.529-.057-3.061-.046-4.592a7.5,7.5,0,0,1,.312-3.019c.465-1.029,1.623-1.052,2.061-2.062.175-.4.269-.835.438-1.242A3.56,3.56,0,0,1,453,370.273c2.021-.1,3.836,1.535,5.855,1.386a15.461,15.461,0,0,0,1.548-.295,4.376,4.376,0,0,1,4.451,1.545A2.123,2.123,0,0,1,465.146,374.888Z" fill="#27debf"/><path d="M446.981,384.876l-.014,0a.171.171,0,0,1-.121-.211c2.793-10.48,13.836-12,16.419-11.809a.176.176,0,0,1,.16.185.174.174,0,0,1-.185.16c-2.527-.183-13.329,1.3-16.061,11.554A.174.174,0,0,1,446.981,384.876Z" fill="#fff"/><path d="M459.25,379.565a.18.18,0,0,1-.091-.048,9.175,9.175,0,0,0-7.514-2.118.172.172,0,1,1-.051-.341,9.527,9.527,0,0,1,7.81,2.216.172.172,0,0,1,0,.244A.176.176,0,0,1,459.25,379.565Z" fill="#fff"/><path d="M333.479,353.845a2.887,2.887,0,0,0,1.345,2.233l37.671,21.749a2.972,2.972,0,0,0,2.69,0l51.544-29.759a2.526,2.526,0,0,0,0-4.465l-37.671-21.749a2.972,2.972,0,0,0-2.69,0l-51.544,29.759A2.885,2.885,0,0,0,333.479,353.845Z" fill="#37474f"/><path d="M373.84,375.239v2.909a2.742,2.742,0,0,1-1.344-.32l-37.673-21.75a2.518,2.518,0,0,1-.135-4.378c-.6.432-.557,1.065.135,1.466l37.673,21.75A2.743,2.743,0,0,0,373.84,375.239Z" fill="#263238"/><path d="M332.219,351.661a2.884,2.884,0,0,1-1.262-2.281V304.425A2.969,2.969,0,0,1,332.3,302.1l51.544-29.759a2.526,2.526,0,0,1,3.867,2.232v44.955a2.973,2.973,0,0,1-1.345,2.329l-51.544,29.759A2.881,2.881,0,0,1,332.219,351.661Z" fill="#455a64"/><path d="M334.665,351.694a2.516,2.516,0,0,1-3.707-2.313V304.424a2.7,2.7,0,0,1,.395-1.322l2.52,1.453v0a2.756,2.756,0,0,0-.394,1.322v44.957C333.479,351.632,334,351.989,334.665,351.694Z" fill="#263238"/><path d="M333.479,305.882v44.954c0,.858.6,1.206,1.345.777l51.544-29.759a2.973,2.973,0,0,0,1.345-2.329V274.57c0-.857-.6-1.205-1.345-.776l-51.544,29.759A2.974,2.974,0,0,0,333.479,305.882Z" fill="#37474f"/><path d="M334.824,353.165l37.671,21.75a2.978,2.978,0,0,0,2.69,0l51.544-29.76a.819.819,0,0,0,0-1.552l-37.671-21.749a2.972,2.972,0,0,0-2.69,0l-51.544,29.759A.819.819,0,0,0,334.824,353.165Z" fill="#455a64"/><path d="M335.547,306.048l49.7-28.684c.447-.258.807-.049.807.466v38.915a1.779,1.779,0,0,1-.807,1.4l-49.7,28.684c-.445.257-.807.048-.807-.466V307.445A1.785,1.785,0,0,1,335.547,306.048Z" fill="#27debf"/><path d="M367.661,298.566c-.043-.035-.087-.069-.132-.1l-.02-.015c-1.9-1.425-4.428-1.357-7.114.194a19.513,19.513,0,0,0-6.9,7.618c-.053.1-.1.192-.156.289-.027.051-.054.1-.08.152A24.809,24.809,0,0,0,350.3,317.92c0,3.593,1.049,6.366,2.956,7.806s4.439,1.378,7.134-.178a19.841,19.841,0,0,0,7.134-8.06,24.817,24.817,0,0,0,2.955-11.219C370.484,302.76,369.483,300.033,367.661,298.566Zm-5.689,25.62a13.247,13.247,0,0,1-1.112.8c-.154.1-.309.193-.465.284s-.311.174-.465.253a9.486,9.486,0,0,1-1.113.489c-4.666,1.692-8.249-1.615-8.3-8.069,0-.047,0-.094,0-.142s0-.094,0-.141a24.558,24.558,0,0,1,2.974-10.989l.156-.29A21.1,21.1,0,0,1,358.817,300a13.308,13.308,0,0,1,1.113-.794c.154-.1.308-.194.465-.284s.311-.175.465-.254a9.232,9.232,0,0,1,1.112-.488,5.517,5.517,0,0,1,5.382.555l.151.118c1.69,1.363,2.74,3.923,2.767,7.4,0,.046,0,.093,0,.14s0,.1,0,.142C370.221,313.046,366.638,320.491,361.972,324.186Z" fill="#fff"/><path d="M360.395,326.156c-2.817,1.626-5.465,1.693-7.457.187s-3.089-4.4-3.089-8.16a25.931,25.931,0,0,1,3.089-11.726c.028-.053.055-.105.084-.158.054-.1.109-.205.164-.305a20.454,20.454,0,0,1,7.209-7.961c2.8-1.619,5.445-1.692,7.433-.2l.025.017c.045.035.091.071.136.108h0c1.9,1.532,2.952,4.392,2.952,8.051a25.955,25.955,0,0,1-3.088,11.727A20.746,20.746,0,0,1,360.395,326.156Zm0-26.624c-.15.087-.3.177-.443.27a12.755,12.755,0,0,0-1.061.759,20.006,20.006,0,0,0-4.931,6.081l-.15.276a23.309,23.309,0,0,0-2.836,10.481v.27c.048,6.1,3.378,9.342,7.917,7.7a9.05,9.05,0,0,0,1.06-.466c.29-.149.6-.327.887-.512a12.683,12.683,0,0,0,1.061-.759h0c4.54-3.6,7.869-10.677,7.917-16.838v-.271c-.025-3.2-.962-5.7-2.64-7.052-.048-.039-.1-.076-.145-.112a5.24,5.24,0,0,0-5.132-.531,8.914,8.914,0,0,0-1.06.466Q360.62,299.4,360.395,299.532Z" fill="#fff"/><path d="M367.83,298.252c-.044-.036-.089-.071-.135-.106l-.023-.018-.164-.114-.162.3c-.055.1-.105.194-.154.283a23.951,23.951,0,0,1-1.843,2.874c-.067.089-.126.167-.184.241a18.01,18.01,0,0,1-2.919,3.029c-.064.052-.131.1-.2.161a12.6,12.6,0,0,1-1.437.971,9.4,9.4,0,0,1-1.841.829l-.205.062a5.855,5.855,0,0,1-2.847.153c-.061-.013-.12-.026-.18-.042a4.787,4.787,0,0,1-1.719-.82c-.057-.042-.1-.079-.147-.114l-.16-.131-.17.308c-.05.091-.1.188-.16.3l-.167.313.162.13c.044.036.089.072.136.107l.02.015a5.176,5.176,0,0,0,1.873.891c.067.016.129.03.19.042a6.262,6.262,0,0,0,3.049-.183c.08-.023.15-.045.214-.066a10.225,10.225,0,0,0,1.952-.882,13.626,13.626,0,0,0,1.526-1.03c.084-.065.153-.119.215-.169a19.138,19.138,0,0,0,3.12-3.222c.069-.088.133-.171.193-.252a25.81,25.81,0,0,0,2.005-3.122c.052-.1.107-.2.16-.3l.165-.312Z" fill="#fff"/><path d="M367.825,316.915c-.053-.04-.108-.078-.159-.112A5.137,5.137,0,0,0,365.66,316c-.06-.011-.123-.021-.193-.03a6.652,6.652,0,0,0-3.119.381c-.063.022-.131.047-.215.079a10.643,10.643,0,0,0-1.527.732,14.14,14.14,0,0,0-1.951,1.371l-.214.181a20.119,20.119,0,0,0-3.049,3.338l-.191.262a26.48,26.48,0,0,0-1.873,3.053l-.021.042c-.046.087-.091.175-.135.262l-.162.316.167.121c.057.042.11.078.16.112l.17.113.16-.317c.043-.085.09-.175.147-.283a24.483,24.483,0,0,1,1.719-2.806c.06-.084.119-.167.18-.25a19.014,19.014,0,0,1,2.847-3.134l.2-.174a13.142,13.142,0,0,1,1.842-1.3,9.952,9.952,0,0,1,1.437-.687c.072-.027.139-.051.2-.073a6.2,6.2,0,0,1,2.919-.342c.057.008.116.017.183.029a4.784,4.784,0,0,1,1.843.745c.05.033.1.068.154.107l.162.117.164-.3.023-.046q.069-.131.135-.261l.161-.316Z" fill="#fff"/><path d="M364.218,300.241c-1.009-2.074-2.367-2.753-3.823-1.912s-2.814,3.087-3.823,6.326a36.379,36.379,0,0,0-1.522,10.526,21.141,21.141,0,0,0,1.522,8.767c1.009,2.074,2.368,2.753,3.823,1.912s2.814-3.087,3.823-6.326a36.412,36.412,0,0,0,1.522-10.526A21.157,21.157,0,0,0,364.218,300.241Zm-3.823,24.712c-1.252.723-2.439.09-3.341-1.781a20.235,20.235,0,0,1-1.429-8.323,34.656,34.656,0,0,1,1.429-9.974c.9-2.913,2.089-4.916,3.341-5.639s2.439-.09,3.341,1.781a20.235,20.235,0,0,1,1.429,8.323,34.656,34.656,0,0,1-1.429,9.974C362.834,322.227,361.647,324.23,360.395,324.953Z" fill="#fff"/><path d="M370.379,305.869,350.411,317.4a.881.881,0,0,0-.341.684c0,.25.153.4.341.29l19.968-11.529a.884.884,0,0,0,.341-.683C370.72,305.909,370.566,305.76,370.379,305.869Z" fill="#fff"/><path d="M360.754,325.222V298.6c0-.251-.178-.352-.365-.244a.868.868,0,0,0-.366.665v26.624c0,.251.178.352.366.243A.867.867,0,0,0,360.754,325.222Z" fill="#fff"/><path d="M339.2,352l47.844-27.623a1.489,1.489,0,0,1,1.345,0l2.447,1.414a.409.409,0,0,1,0,.775l-47.852,27.618a1.481,1.481,0,0,1-1.344,0l-2.44-1.408A.409.409,0,0,1,339.2,352Z" fill="#37474f"/><path d="M345.5,355.642l47.844-27.623a1.485,1.485,0,0,1,1.343,0l15.052,8.69a.41.41,0,0,1,0,.777L361.954,365.07a1.488,1.488,0,0,1-1.346,0l-15.1-8.656A.408.408,0,0,1,345.5,355.642Z" fill="#263238"/><path d="M388.391,340.447l1.5-.865c.064-.037.06-.1-.008-.138l-1.733-1a.262.262,0,0,0-.239-.005l-1.5.865c-.063.037-.059.1.009.138l1.732,1A.268.268,0,0,0,388.391,340.447Zm-2.956-3.437-1.5.865c-.065.037-.061.1.007.138l1.733,1a.262.262,0,0,0,.239.005l1.5-.865c.065-.036.061-.1-.008-.137l-1.732-1A.268.268,0,0,0,385.435,337.01ZM380.6,339.8l-2.536,1.463c-.063.037-.06.1.008.138l1.733,1a.262.262,0,0,0,.239.005l2.535-1.464c.064-.036.06-.1-.009-.137l-1.732-1A.26.26,0,0,0,380.6,339.8Zm2.65-1.531-1.5.865c-.064.037-.06.1.008.138l1.732,1a.267.267,0,0,0,.24.005l1.5-.865c.064-.037.06-.1-.008-.138l-1.733-1A.266.266,0,0,0,383.246,338.274Zm-5.877,3.393-1.5.865c-.063.037-.061.1.008.138l1.732,1a.267.267,0,0,0,.24,0l1.5-.865c.063-.037.059-.1-.009-.138l-1.733-1A.263.263,0,0,0,377.369,341.667Zm-2.189,1.265-1.5.864c-.064.037-.06.1.008.138l1.732,1a.262.262,0,0,0,.239.005l1.5-.865c.064-.036.06-.1-.009-.138l-1.732-1A.263.263,0,0,0,375.18,342.932ZM381.993,347l1.5-.865c.064-.036.06-.1-.009-.138l-1.732-1a.266.266,0,0,0-.238-.005l-1.5.865c-.065.037-.061.1.008.138l1.732,1A.262.262,0,0,0,381.993,347Zm-2.189,1.264,1.5-.864c.063-.038.059-.1-.009-.139l-1.733-1a.266.266,0,0,0-.238-.005l-1.5.865c-.064.037-.06.1.008.138l1.733,1A.262.262,0,0,0,379.8,348.262Zm-2.19,1.264,1.5-.865c.064-.037.06-.1-.008-.138l-1.733-1a.263.263,0,0,0-.238,0l-1.5.864c-.065.037-.061.1.009.138l1.731,1A.265.265,0,0,0,377.614,349.526Zm-2.189,1.264,1.5-.865c.063-.036.059-.1-.009-.137l-1.732-1a.262.262,0,0,0-.239-.005l-1.5.865c-.063.036-.059.1.008.137l1.732,1A.264.264,0,0,0,375.425,350.79Zm10.777-9.079,1.5-.865c.065-.037.061-.1-.008-.138l-1.732-1a.263.263,0,0,0-.238-.005l-1.5.865c-.065.037-.061.1.007.138l1.733,1A.262.262,0,0,0,386.2,341.711Zm-2.019,4.023,3.341-1.929c.064-.037.06-.1-.008-.138l-4.207-2.429a.268.268,0,0,0-.239-.005l-1.728,1c-.065.037-.061.1.008.138l2.227,1.286c.069.039.072.1.009.138l-1.383.8c-.064.037-.06.1.008.138l1.732,1A.264.264,0,0,0,384.183,345.734ZM372.99,344.2l-1.5.865c-.063.037-.059.1.009.138l1.731,1a.264.264,0,0,0,.24.005l1.5-.865c.063-.036.059-.1-.009-.138l-1.732-1A.268.268,0,0,0,372.99,344.2Zm-2.189,1.264-1.5.865c-.064.037-.06.1.008.138l1.732,1a.262.262,0,0,0,.239.005l1.5-.865c.064-.037.06-.1-.008-.138l-1.732-1A.268.268,0,0,0,370.8,345.459ZM359.86,359.634a.268.268,0,0,0,.239.005l1.5-.865c.063-.037.06-.1-.008-.138l-1.733-1a.262.262,0,0,0-.239,0l-1.5.865c-.063.036-.059.1.009.138Zm-6.575-4.062-1.5.864c-.063.038-.06.1.008.139l1.732,1a.27.27,0,0,0,.24,0l1.5-.865c.063-.037.059-.1-.009-.138l-1.733-1A.262.262,0,0,0,353.285,355.572Zm3.525,2.966a.262.262,0,0,0,.239,0l1.5-.864c.063-.037.059-.1-.009-.138l-1.732-1a.264.264,0,0,0-.24-.005l-1.5.864c-.063.037-.059.1.009.139Zm6.916,1.864,1.5-.865c.063-.036.059-.1-.008-.138l-1.733-1a.262.262,0,0,0-.239,0l-1.5.864c-.063.037-.06.1.009.138l1.731,1A.267.267,0,0,0,363.726,360.4Zm-2.428,1.259a.26.26,0,0,0,.238,0l1.5-.865c.064-.036.06-.1-.008-.138l-1.732-1a.265.265,0,0,0-.239-.005l-1.5.865c-.064.037-.06.1.008.138Zm-5.823-7.353-1.5.865c-.064.036-.06.1.008.137l1.733,1a.262.262,0,0,0,.239.005l1.5-.864c.064-.037.06-.1-.009-.138l-1.732-1A.262.262,0,0,0,355.475,354.308Zm10.947-6.321-1.5.865c-.064.037-.06.1.009.138l1.731,1a.262.262,0,0,0,.239.005l1.5-.865c.064-.036.06-.1-.007-.137l-1.733-1A.265.265,0,0,0,366.422,347.987Zm-8.758,5.057-1.5.865c-.063.036-.06.1.009.137l1.732,1a.267.267,0,0,0,.24.006l1.5-.866c.063-.036.059-.1-.009-.137l-1.733-1A.262.262,0,0,0,357.664,353.044Zm10.947-6.32-1.5.864c-.063.037-.059.1.009.138l1.732,1a.265.265,0,0,0,.239,0l1.5-.865c.063-.036.059-.1-.009-.137l-1.731-1A.261.261,0,0,0,368.611,346.724Zm-4.379,2.528-1.5.864c-.063.037-.059.1.009.138l1.733,1a.26.26,0,0,0,.238.005l1.5-.864c.063-.037.06-.1-.009-.138l-1.731-1A.264.264,0,0,0,364.232,349.252Zm-2.189,1.264-1.5.864c-.064.037-.06.1.009.139l1.732,1a.265.265,0,0,0,.239,0l1.5-.864c.064-.037.061-.1-.007-.138l-1.733-1A.262.262,0,0,0,362.043,350.516Zm-2.189,1.264-1.5.865c-.063.036-.059.1.009.138l1.733,1a.268.268,0,0,0,.239.005l1.5-.865c.063-.037.06-.1-.009-.138l-1.732-1A.262.262,0,0,0,359.854,351.78Zm11.192,1.538,1.5-.864c.063-.037.06-.1-.009-.139l-1.731-1a.268.268,0,0,0-.239-.005l-1.5.865c-.063.037-.059.1.009.139l1.732,1A.265.265,0,0,0,371.046,353.318Zm19.228-19.1-1.5.865c-.063.037-.059.1.009.138l1.733,1a.265.265,0,0,0,.239.005l1.5-.865c.064-.037.061-.1-.008-.138l-1.732-1A.27.27,0,0,0,390.274,334.216Zm-2.65,1.53-1.5.865c-.064.037-.061.1.008.138l1.732,1a.262.262,0,0,0,.239.005l1.5-.865c.064-.037.06-.1-.008-.137l-1.733-1A.265.265,0,0,0,387.624,335.746Zm4.84-2.794-1.5.865c-.064.037-.06.1.009.138l1.732,1a.263.263,0,0,0,.238.005l1.5-.865c.065-.037.061-.1-.008-.138l-1.732-1A.265.265,0,0,0,392.464,332.952Zm-11.332,11.686,1.5-.865c.063-.037.06-.1-.009-.138l-1.732-1a.268.268,0,0,0-.239-.005l-1.5.865c-.064.037-.06.1.008.138l1.733,1A.262.262,0,0,0,381.132,344.638Zm13.761-12.945a.264.264,0,0,0-.24-.005l-1.5.865c-.063.037-.059.1.009.138l1.733,1a.266.266,0,0,0,.238.005l1.5-.865c.064-.037.06-.1-.008-.138Zm-21.658,20.361,1.5-.864c.064-.037.06-.1-.008-.138l-1.732-1a.268.268,0,0,0-.239-.005l-1.5.866c-.064.036-.06.1.009.137l1.731,1A.262.262,0,0,0,373.235,352.054Zm26.849-15.5,1.5-.864c.064-.037.061-.1-.009-.139l-1.731-1a.268.268,0,0,0-.239,0l-1.5.865c-.063.037-.059.1.009.138l1.733,1A.26.26,0,0,0,400.084,336.553Zm-4.664-.164,1.5-.866c.063-.036.061-.1-.008-.137l-1.732-1a.262.262,0,0,0-.239,0l-1.5.865c-.063.036-.059.1.009.138l1.733,1A.266.266,0,0,0,395.42,336.389Zm1.947-3.267a.262.262,0,0,0-.239-.005l-1.5.864c-.064.038-.06.1.009.139l1.732,1a.263.263,0,0,0,.238,0l1.5-.864c.064-.037.061-.1-.007-.138Zm.461-.267,4.206,2.429a.262.262,0,0,0,.239.005l1.5-.865c.063-.036.059-.1-.008-.138l-4.207-2.429a.271.271,0,0,0-.24-.005l-1.5.865C397.756,332.754,397.76,332.816,397.828,332.855Zm-5.079,2.79-1.5.865c-.063.036-.06.1.009.138l1.732,1a.262.262,0,0,0,.239,0l1.5-.864c.064-.037.06-.1-.008-.138l-1.733-1A.265.265,0,0,0,392.749,335.645Zm-16.477,9.513-1.5.865c-.063.037-.06.1.009.138l1.732,1a.262.262,0,0,0,.239,0l1.5-.865c.064-.036.059-.1-.009-.137l-1.732-1A.266.266,0,0,0,376.272,345.158Zm21.384-7.345a.265.265,0,0,0,.239,0l1.5-.864c.063-.037.06-.1-.008-.138l-1.733-1a.262.262,0,0,0-.239-.005l-1.5.864c-.063.037-.06.1.009.138Zm-19.2,6.082-1.5.864c-.064.037-.061.1.009.138l1.731,1a.268.268,0,0,0,.239,0l1.5-.865c.064-.036.06-.1-.008-.138l-1.733-1A.26.26,0,0,0,378.461,343.895ZM362.05,358.37a.263.263,0,0,0,.238,0l1.5-.864c.064-.037.061-.1-.008-.138l-1.732-1a.262.262,0,0,0-.239-.005l-1.5.864c-.064.038-.06.1.008.139Zm-3.294-3.1-1.5.865c-.064.036-.06.1.009.137l1.732,1a.262.262,0,0,0,.239.005l1.5-.864c.065-.037.061-.1-.007-.138l-1.733-1A.265.265,0,0,0,358.756,355.271Zm5.722,1.839,1.5-.864c.063-.037.06-.1-.008-.139l-1.733-1A.268.268,0,0,0,364,355.1l-1.5.866c-.063.036-.059.1.009.137l1.732,1A.259.259,0,0,0,364.478,357.11Zm2.189-1.263,1.5-.866c.064-.036.06-.1-.009-.137l-1.731-1a.264.264,0,0,0-.24-.005l-1.5.865c-.064.036-.06.1.008.137l1.733,1A.266.266,0,0,0,366.667,355.847Zm2.189-1.264,1.5-.865c.064-.037.06-.1-.008-.138l-1.732-1a.262.262,0,0,0-.239,0l-1.5.865c-.063.036-.06.1.009.137l1.731,1A.268.268,0,0,0,368.856,354.583Zm-7.911-.576-1.5.865c-.063.036-.059.1.009.138l1.733,1a.266.266,0,0,0,.238.005l1.5-.866c.064-.036.06-.1-.008-.137l-1.732-1A.264.264,0,0,0,360.945,354.007Zm2.19-1.264-1.5.864c-.064.038-.06.1.009.139l1.732,1a.266.266,0,0,0,.238.005l1.5-.865c.064-.037.06-.1-.008-.138l-1.732-1A.262.262,0,0,0,363.135,352.743Zm8.758-5.057-1.5.865c-.064.037-.06.1.008.139l1.732,1a.265.265,0,0,0,.239,0l1.5-.864c.063-.037.06-.1-.009-.139l-1.731-1A.265.265,0,0,0,371.893,347.686Zm-2.19,1.265-1.5.864c-.063.037-.059.1.009.138l1.731,1a.264.264,0,0,0,.24.005l1.5-.864c.063-.037.059-.1-.009-.138l-1.732-1A.262.262,0,0,0,369.7,348.951Zm4.379-2.529-1.5.865c-.063.037-.06.1.009.138l1.731,1a.264.264,0,0,0,.24.005l1.5-.865c.064-.037.06-.1-.008-.137l-1.733-1A.266.266,0,0,0,374.082,346.422Zm-8.758,5.057-1.5.865c-.063.036-.059.1.009.137l1.732,1a.262.262,0,0,0,.239.005l1.5-.864c.063-.038.06-.1-.009-.139l-1.731-1A.267.267,0,0,0,365.324,351.479Zm2.19-1.264-1.5.865c-.064.036-.06.1.008.137l1.733,1a.263.263,0,0,0,.238.006l1.5-.866c.064-.036.06-.1-.009-.137l-1.731-1A.262.262,0,0,0,367.514,350.215Zm-1.6,8.923,1.5-.865c.064-.037.06-.1-.008-.138l-1.732-1a.265.265,0,0,0-.239-.005l-1.5.865c-.063.037-.059.1.009.138l1.732,1A.265.265,0,0,0,365.915,359.138Zm-12.848-1.3-1.732-1a.262.262,0,0,0-.239-.005l-1.5.865c-.065.036-.061.1.007.138l1.733,1a.268.268,0,0,0,.239.005l1.5-.865C353.14,357.942,353.136,357.88,353.067,357.841Zm3.282.963-1.733-1a.265.265,0,0,0-.239,0l-2.305,1.33c-.063.037-.059.1.009.139l1.733,1a.268.268,0,0,0,.239.005l2.3-1.331C356.421,358.9,356.417,358.843,356.349,358.8Zm-5.939-2.9-1.732-1a.265.265,0,0,0-.239-.005l-1.844,1.065c-.064.036-.06.1.009.138l1.732,1a.263.263,0,0,0,.238,0l1.844-1.065C350.482,356.009,350.479,355.947,350.41,355.907Zm1.413-.816a.264.264,0,0,0,.24.005l1.5-.865c.064-.037.06-.1-.008-.138l-1.733-1a.268.268,0,0,0-.239,0l-1.5.865c-.063.037-.061.1.008.138ZM359.4,359.9l-1.732-1a.265.265,0,0,0-.239,0l-2.881,1.663c-.064.037-.06.1.009.138l1.732,1a.265.265,0,0,0,.239,0l2.881-1.663C359.472,360,359.468,359.94,359.4,359.9Zm1.438,2.027-1.733-1a.268.268,0,0,0-.239-.005l-1.843,1.065c-.064.036-.06.1.008.137l1.733,1a.265.265,0,0,0,.239.005l1.844-1.065C360.909,362.028,360.9,361.967,360.837,361.927Zm7.265-16.234a.265.265,0,0,0,.239.005l1.5-.865c.063-.037.059-.1-.009-.138l-1.732-1a.262.262,0,0,0-.239-.005l-1.5.865c-.064.037-.06.1.008.138Zm-4.379,2.528a.262.262,0,0,0,.239.005l1.5-.865c.063-.037.06-.1-.009-.138l-1.732-1a.268.268,0,0,0-.239-.005l-1.5.865c-.064.037-.06.1.008.138Zm-9.71,5.606a.262.262,0,0,0,.239.005l1.5-.865c.064-.036.06-.1-.009-.138l-1.732-1a.268.268,0,0,0-.239-.005l-1.5.865c-.063.037-.06.1.008.138Zm11.9-6.87a.262.262,0,0,0,.239.005l1.5-.865c.064-.037.06-.1-.008-.138l-1.733-1a.263.263,0,0,0-.238-.005l-1.5.865c-.064.036-.061.1.008.138Zm-4.379,2.528a.265.265,0,0,0,.239.005l1.5-.865c.063-.037.059-.1-.009-.138l-1.733-1a.263.263,0,0,0-.238-.005l-1.5.865c-.064.037-.06.1.009.138Zm.507,12.605a.262.262,0,0,0-.239-.005l-2.3,1.331c-.063.036-.06.1.009.137l1.732,1a.264.264,0,0,0,.24.005l2.3-1.331c.064-.036.06-.1-.008-.137ZM358.392,351.3a.265.265,0,0,0,.239,0l1.5-.865c.063-.037.06-.1-.009-.138l-1.732-1a.267.267,0,0,0-.24-.005l-1.5.865c-.063.037-.059.1.009.138Zm-2.19,1.264a.265.265,0,0,0,.239.005l1.5-.865c.063-.036.059-.1-.009-.138l-1.733-1a.265.265,0,0,0-.239-.005l-1.5.865c-.064.037-.06.1.009.138Zm46.4-13.891a.264.264,0,0,0-.24-.005l-3.687,2.129c-.064.037-.06.1.009.138l1.732,1a.263.263,0,0,0,.238.005l3.688-2.129c.063-.037.059-.1-.009-.138Zm-4.84,2.794a.264.264,0,0,0-.24-.005l-1.5.865c-.063.037-.059.1.009.138l1.733,1a.266.266,0,0,0,.238.005l1.5-.865c.064-.037.061-.1-.009-.138ZM368.1,357.874l1.5-.865c.063-.037.059-.1-.009-.138l-1.732-1a.268.268,0,0,0-.239-.005l-1.5.865c-.064.037-.06.1.009.138l1.731,1A.262.262,0,0,0,368.1,357.874Zm25.279-13.88a.265.265,0,0,0-.239,0l-1.5.865c-.064.037-.06.1.008.138l1.733,1a.263.263,0,0,0,.238.005l1.5-.865c.065-.037.061-.1-.008-.138Zm11.408-6.586a.262.262,0,0,0-.239,0l-1.5.865c-.064.036-.06.1.009.137l1.731,1a.268.268,0,0,0,.239.005l1.5-.865c.064-.037.06-.1-.009-.138Zm3.921-.264-4.206-2.429a.262.262,0,0,0-.239-.005l-1.5.865c-.064.036-.06.1.008.138l4.206,2.429a.267.267,0,0,0,.24,0l1.5-.864C408.784,337.245,408.78,337.183,408.712,337.144ZM385.2,348.717a.266.266,0,0,0-.238-.005l-1.844,1.065c-.064.037-.06.1.008.138l1.732,1a.264.264,0,0,0,.24.005l1.843-1.065c.064-.036.06-.1-.008-.137Zm5.531-3.193a.265.265,0,0,0-.239,0l-2.3,1.331c-.064.037-.06.1.008.138l1.733,1a.266.266,0,0,0,.238.005l2.3-1.331c.064-.036.06-.1-.008-.138Zm-10.6,6.121a.26.26,0,0,0-.238,0l-12.33,7.118c-.064.037-.06.1.008.138l1.732,1a.262.262,0,0,0,.239.005l12.33-7.118c.063-.037.06-.1-.009-.138Zm-13.021,7.518a.265.265,0,0,0-.239-.006l-1.844,1.065c-.063.037-.059.1.009.138l1.732,1a.265.265,0,0,0,.239.005l1.844-1.065c.063-.036.059-.1-.009-.137Zm15.556-8.982a.266.266,0,0,0-.238-.005l-1.844,1.065c-.064.036-.061.1.008.138l1.732,1a.267.267,0,0,0,.24.006l1.843-1.065c.064-.037.06-.1-.009-.138Zm-18.091,10.445a.262.262,0,0,0-.239-.005l-1.844,1.064c-.063.038-.059.1.009.139l1.732,1a.268.268,0,0,0,.239.005l1.843-1.065c.064-.037.061-.1-.008-.138Zm23.161-13.372a.262.262,0,0,0-.239-.005l-1.844,1.065c-.063.036-.059.1.009.137l1.733,1a.263.263,0,0,0,.238.006l1.844-1.065c.064-.037.06-.1-.008-.138Zm7.836-4.524a.265.265,0,0,0-.239-.005l-1.5.865c-.063.037-.06.1.009.137l1.732,1a.262.262,0,0,0,.239.005l1.5-.865c.063-.037.059-.1-.008-.138Zm4.8-3.484,1.5-.865c.064-.037.061-.1-.008-.138l-1.732-1a.265.265,0,0,0-.239-.005l-1.5.865c-.064.037-.06.1.008.138l1.733,1A.263.263,0,0,0,400.369,339.246Zm-9.789-.063,1.5-.865c.065-.037.061-.1-.008-.138l-1.732-1a.263.263,0,0,0-.238-.005l-1.5.865c-.065.037-.061.1.007.138l1.733,1A.263.263,0,0,0,390.58,339.183Zm-4.96,8.579L390,345.233c.065-.036.061-.1-.008-.137l-1.732-1a.263.263,0,0,0-.238,0l-4.379,2.528c-.065.036-.061.1.007.138l1.733,1A.268.268,0,0,0,385.62,347.762Zm12.321-7.257a.268.268,0,0,0,.239.005l1.5-.865c.063-.037.06-.1-.009-.138l-1.731-1a.267.267,0,0,0-.24,0l-1.5.865c-.063.037-.059.1.009.138Zm-2.236-1.423,1.5-.866c.065-.036.061-.1-.008-.137l-1.732-1a.265.265,0,0,0-.239-.006l-1.5.866c-.064.036-.06.1.008.137l1.733,1A.263.263,0,0,0,395.7,339.082Zm-12.274,9.944,1.5-.865c.063-.037.059-.1-.009-.138l-1.732-1a.264.264,0,0,0-.24-.005l-1.5.865c-.064.036-.06.1.008.138l1.732,1A.267.267,0,0,0,383.431,349.026ZM393.1,343.3a.26.26,0,0,0,.238,0l1.5-.864c.064-.038.06-.1-.008-.139l-1.732-1a.271.271,0,0,0-.24-.005l-1.5.865c-.063.037-.059.1.009.138Zm-20.619,12.047,1.5-.865c.064-.037.06-.1-.008-.138l-1.733-1a.263.263,0,0,0-.238,0l-1.5.865c-.064.037-.06.1.008.138l1.732,1A.265.265,0,0,0,372.483,355.346Zm2.19-1.264,1.5-.865c.063-.037.059-.1-.009-.138l-1.732-1a.265.265,0,0,0-.239-.005l-1.5.865c-.063.037-.059.1.008.138l1.733,1A.265.265,0,0,0,374.673,354.082Zm-4.379,2.528,1.5-.865c.063-.037.06-.1-.009-.138l-1.731-1a.262.262,0,0,0-.239-.005l-1.5.865c-.064.036-.06.1.008.138l1.732,1A.265.265,0,0,0,370.294,356.61Zm8.758-5.056,1.5-.865c.063-.037.059-.1-.009-.138l-1.732-1a.262.262,0,0,0-.239-.005l-1.5.865c-.064.036-.06.1.008.138l1.733,1A.268.268,0,0,0,379.052,351.554Zm-2.19,1.264,1.5-.865c.064-.037.06-.1-.008-.138l-1.733-1a.26.26,0,0,0-.238-.005l-1.5.865c-.064.036-.061.1.008.138l1.732,1A.265.265,0,0,0,376.862,352.818Zm4.379-2.528,1.5-.865c.064-.037.06-.1-.009-.138l-1.732-1a.263.263,0,0,0-.238,0l-1.5.864c-.065.038-.061.1.008.139l1.732,1A.265.265,0,0,0,381.241,350.29Zm10.017-18.7a.263.263,0,0,0,.238.005l1.5-.865c.065-.037.061-.1-.008-.138l-.462-.266a.263.263,0,0,0-.238,0l-1.5.865c-.063.037-.059.1.009.138Zm-10.773,6.953a.262.262,0,0,0,.239.005l1.5-.864c.063-.038.06-.1-.008-.139l-1.733-1a.265.265,0,0,0-.239,0l-1.5.864c-.063.037-.059.1.009.138Zm4.379-2.528a.262.262,0,0,0,.239,0l1.5-.865c.063-.036.059-.1-.008-.138l-1.733-1a.265.265,0,0,0-.239-.005l-1.5.865c-.063.037-.059.1.009.138Zm-7.053,4.072a.267.267,0,0,0,.24.005l1.5-.865c.063-.037.059-.1-.009-.138l-1.731-1a.264.264,0,0,0-.24,0l-1.5.865c-.063.036-.059.1.009.138Zm4.864-2.808a.262.262,0,0,0,.239.005l1.5-.865c.064-.036.061-.1-.009-.138l-1.731-1a.268.268,0,0,0-.239-.005l-1.5.865c-.064.037-.06.1.008.138Zm-9.242,5.336a.265.265,0,0,0,.239.005l1.5-.865c.063-.037.059-.1-.009-.138l-1.731-1a.267.267,0,0,0-.24-.005l-1.5.865c-.063.037-.059.1.009.138Zm2.189-1.264a.262.262,0,0,0,.239,0l1.5-.865c.064-.037.06-.1-.008-.138l-1.733-1a.263.263,0,0,0-.238-.005l-1.5.865c-.064.036-.06.1.009.138Zm11.257-7.233a.26.26,0,0,0,.238,0l1.5-.865c.065-.036.061-.1-.008-.138l-.46-.266a.27.27,0,0,0-.24-.005l-1.5.865c-.063.037-.059.1.009.138Zm6.568-3.792a.263.263,0,0,0,.238.005l1.5-.865c.063-.037.059-.1-.008-.138l-.462-.266a.268.268,0,0,0-.239-.005l-1.5.865c-.064.036-.061.1.007.138Zm3.639,2.1a.263.263,0,0,0,.238.005l1.5-.865c.064-.037.06-.1-.007-.138l-1.733-1a.265.265,0,0,0-.239,0l-1.5.865c-.064.037-.06.1.009.138Zm5.473,5.555,1.5-.865c.063-.037.06-.1-.009-.138l-1.732-1a.268.268,0,0,0-.239-.005l-1.5.865c-.063.037-.059.1.009.138l1.731,1A.264.264,0,0,0,402.559,337.982Zm-13.491-5.128a.262.262,0,0,0,.239.005l1.5-.865c.064-.036.06-.1-.008-.138l-.462-.266a.263.263,0,0,0-.238-.005l-1.5.865c-.064.037-.06.1.007.138Zm-17.825,11.025a.268.268,0,0,0,.239.005l1.5-.865c.064-.037.06-.1-.008-.138l-1.732-1a.262.262,0,0,0-.239-.005l-1.5.865c-.063.037-.06.1.009.138Z" fill="#455a64"/><path d="M380.953,357.021l14.782-8.535a1.786,1.786,0,0,1,1.614,0l8.476,4.894a.491.491,0,0,1,0,.931l-14.782,8.535a1.778,1.778,0,0,1-1.613,0l-8.477-4.894A.491.491,0,0,1,380.953,357.021Z" fill="#263238"/><rect width="38.399" height="71.973" rx="2.882" transform="translate(230.801 350.293)" fill="#455a64"/><path d="M1.889,0H34.323a1.889,1.889,0,0,1,1.889,1.889V61.225a1.888,1.888,0,0,1-1.888,1.888H1.889A1.889,1.889,0,0,1,0,61.224V1.889A1.889,1.889,0,0,1,1.889,0Z" transform="translate(231.894 354.722)" fill="#27debf"/><path d="M258.39,376.95l-.152-.156-.023-.023a11.651,11.651,0,0,0-16.18-.241c-.061.057-.121.115-.18.173-.032.03-.063.061-.093.091a11.651,11.651,0,1,0,16.628.156Zm-6.569,19.343a11.3,11.3,0,0,1-1.284.133c-.178.009-.357.013-.537.013s-.359,0-.537-.013a11.3,11.3,0,0,1-1.284-.133,11.424,11.424,0,0,1-9.584-11.138c0-.041,0-.082,0-.123s0-.081,0-.122a11.368,11.368,0,0,1,3.434-8.029l.18-.173a11.382,11.382,0,0,1,5.97-2.936,11.075,11.075,0,0,1,1.284-.132c.178-.009.357-.013.537-.013s.359,0,.537.013a11.075,11.075,0,0,1,1.284.132,11.378,11.378,0,0,1,6.213,3.172c.06.059.118.118.176.178a11.362,11.362,0,0,1,3.2,7.788c0,.041,0,.082,0,.122s0,.082,0,.123A11.424,11.424,0,0,1,251.821,396.293Z" fill="#fff"/><path d="M250,397.21a12.177,12.177,0,0,1-8.611-20.788l.1-.1c.064-.062.127-.123.191-.182a12.175,12.175,0,0,1,16.907.25l.028.027c.053.054.106.107.159.162h0A12.177,12.177,0,0,1,250,397.21Zm0-23.057c-.173,0-.345,0-.512.013a10.813,10.813,0,0,0-6.918,2.927c-.058.054-.116.109-.172.165a10.8,10.8,0,0,0-3.276,7.658c0,.038,0,.077,0,.116s0,.079,0,.118a10.849,10.849,0,0,0,9.14,10.623,10.675,10.675,0,0,0,1.225.126c.336.017.691.017,1.024,0a10.606,10.606,0,0,0,1.225-.126h0a10.851,10.851,0,0,0,9.142-10.624v-.234a10.827,10.827,0,0,0-3.049-7.427c-.056-.058-.11-.115-.167-.17a10.817,10.817,0,0,0-7.15-3.152C250.345,374.158,250.173,374.153,250,374.153Z" fill="#fff"/><path d="M258.586,376.762l-.156-.158-.028-.028-.189-.181-.188.183-.175.168a11.258,11.258,0,0,1-2.13,1.568c-.076.043-.146.081-.212.117a11.032,11.032,0,0,1-3.371,1.163c-.073.013-.15.025-.235.038a11.209,11.209,0,0,1-3.785-.081c-.083-.016-.159-.031-.235-.048a11.044,11.044,0,0,1-3.288-1.291c-.07-.041-.139-.083-.208-.126a11.257,11.257,0,0,1-1.986-1.57c-.066-.065-.119-.12-.169-.172l-.185-.194-.2.182c-.058.054-.118.112-.185.177l-.192.188.186.194c.051.053.1.106.157.16l.024.024A12.093,12.093,0,0,0,244,378.782c.077.048.148.091.219.132a11.735,11.735,0,0,0,3.521,1.366c.092.02.173.036.247.05a12.092,12.092,0,0,0,4.016.083c.1-.015.176-.027.248-.04a11.746,11.746,0,0,0,3.6-1.229c.079-.042.153-.083.223-.123a11.975,11.975,0,0,0,2.315-1.7c.06-.056.123-.115.185-.177l.191-.188Z" fill="#fff"/><path d="M258.58,392.922c-.062-.061-.125-.121-.184-.176a12.018,12.018,0,0,0-2.316-1.7c-.07-.04-.142-.08-.224-.123a11.762,11.762,0,0,0-3.6-1.229c-.073-.013-.151-.025-.249-.04a12.087,12.087,0,0,0-4.015.083l-.247.05a11.768,11.768,0,0,0-3.521,1.366c-.071.041-.145.086-.22.132a12.048,12.048,0,0,0-2.163,1.707l-.025.026q-.08.078-.156.159l-.186.193.192.188c.066.065.127.123.185.177l.2.183.185-.194c.05-.053.1-.107.169-.173a11.25,11.25,0,0,1,1.986-1.569c.069-.044.138-.085.208-.127a11.015,11.015,0,0,1,3.288-1.29c.076-.017.153-.033.235-.049a11.177,11.177,0,0,1,3.786-.08c.083.012.16.024.236.038a11,11,0,0,1,3.37,1.163c.065.035.135.073.211.117a11.21,11.21,0,0,1,2.13,1.567c.056.053.114.108.175.169l.188.182.189-.18.028-.028.156-.159.185-.193Z" fill="#fff"/><path d="M254.414,376.679c-1.165-2.3-2.733-3.568-4.414-3.568s-3.249,1.267-4.415,3.568a20.739,20.739,0,0,0,0,16.708c1.166,2.3,2.734,3.567,4.415,3.567s3.249-1.266,4.414-3.567a20.728,20.728,0,0,0,0-16.708ZM250,396.168c-1.446,0-2.816-1.141-3.858-3.212a19.847,19.847,0,0,1,0-15.846c1.042-2.072,2.412-3.212,3.858-3.212s2.816,1.14,3.858,3.212a19.847,19.847,0,0,1,0,15.846C252.816,395.027,251.446,396.168,250,396.168Z" fill="#fff"/><path d="M261.528,384.633H238.472a.422.422,0,0,0,0,.843h23.056a.422.422,0,0,0,0-.843Z" fill="#fff"/><path d="M250.414,396.581V373.524a.423.423,0,0,0-.843,0v23.057a.423.423,0,0,0,.843,0Z" fill="#fff"/><path d="M247.532,351.442h5.636a.572.572,0,1,1,0,1.142h-5.636a.572.572,0,1,1,0-1.142Z" fill="#263238"/><path d="M257.2,351.435a.572.572,0,1,1-.57.571A.57.57,0,0,1,257.2,351.435Z" fill="#263238"/><circle cx="0.571" cy="0.571" r="0.571" transform="translate(258.919 351.436)" fill="#263238"/><path d="M241.21,351.436a.572.572,0,1,1-.571.571A.571.571,0,0,1,241.21,351.436Z" fill="#263238"/><path d="M243.5,351.438a.571.571,0,1,1-.572.571A.571.571,0,0,1,243.5,351.438Z" fill="#263238"/><path d="M127.108,363.145,116,356.724a2.911,2.911,0,0,1-1.717-2.392c0-.867-.005-1.545-.005-1.545l11.521-6.5a2.444,2.444,0,0,0,1.1-1.914V330.686L146.3,341.894v13.689a2.443,2.443,0,0,1-1.1,1.915l-9.8,5.647A9.166,9.166,0,0,1,127.108,363.145Z" fill="#263238"/><path d="M141.646,358.007v1.538L145.2,357.5a2.443,2.443,0,0,0,1.1-1.915V341.894l-3.695-2.131c-.076.938-.159,1.908-.236,2.852l2.591,1.5v10.7a2.429,2.429,0,0,1-1.1,1.915Z" opacity="0.3"/><path d="M144.966,354.813a2.442,2.442,0,0,1-1.106,1.914L135.4,361.6a9.166,9.166,0,0,1-8.29,0L116,355.182c-2.289-1.321-2.29-3.464,0-4.785l8.467-4.877a2.446,2.446,0,0,0,1.1-1.915v-10.7l19.4,11.206Z" fill="#455a64"/><path d="M122.214,346.821v0l2.252-1.3a2.446,2.446,0,0,0,1.1-1.915v-10.7l19.4,11.206v10.7a2.442,2.442,0,0,1-1.106,1.914L141.648,358Z" fill="#37474f"/><path d="M114.285,352.788v1.545A2.92,2.92,0,0,0,116,356.726l11.105,6.416a8.31,8.31,0,0,0,3.957.982v-1.537a8.322,8.322,0,0,1-3.957-.983L116,355.181A2.909,2.909,0,0,1,114.285,352.788Z" fill="#37474f"/><path d="M95.633,262.021v59.523a3.049,3.049,0,0,0,1.38,2.392L172.9,367.667a1.174,1.174,0,0,0,.128.065.069.069,0,0,0,.037.017c.686.3,1.219-.066,1.219-.884v1.149a2.624,2.624,0,0,0,1.3-.3,2.962,2.962,0,0,0,1.292-2.342V305.85a3.061,3.061,0,0,0-1.379-2.392l-75.887-43.73a2.581,2.581,0,0,0-3.957,2.057A1.372,1.372,0,0,0,95.633,262.021Z" fill="#455a64"/><path d="M95.633,262.021v59.523a3.049,3.049,0,0,0,1.38,2.392L172.9,367.667c.041.024.086.045.128.065a.069.069,0,0,0,.037.017c.686.3,1.219-.066,1.219-.884v-59.52a3.046,3.046,0,0,0-1.384-2.391L97.013,261.223c-.694-.4-1.264-.144-1.363.562A1.372,1.372,0,0,0,95.633,262.021Z" fill="#37474f"/><path d="M174.284,366.865v-4.048l2.589-1.495v4.052a2.962,2.962,0,0,1-1.292,2.342,2.624,2.624,0,0,1-1.3.3,2.788,2.788,0,0,1-.319-.021,2.548,2.548,0,0,1-.3-.046.107.107,0,0,1-.029-.008,2.42,2.42,0,0,1-.24-.062.015.015,0,0,1-.012,0,.231.231,0,0,1-.074-.025,2.513,2.513,0,0,1-.24-.1C173.751,368.051,174.284,367.683,174.284,366.865Z" fill="#263238"/><path d="M95.633,317.48v4.064a3.049,3.049,0,0,0,1.38,2.392L172.9,367.667a1.174,1.174,0,0,0,.128.065.069.069,0,0,0,.037.017c.686.3,1.219-.066,1.219-.884v-4.048Z" fill="#455a64"/><path d="M173.877,305.979a2.949,2.949,0,0,1,.408,1.365v55.473l2.591-1.5,0-55.466a2.856,2.856,0,0,0-.407-1.366Z" fill="#263238"/><path d="M171.691,355.886v-47.68a1.831,1.831,0,0,0-.829-1.436L99.055,265.395c-.458-.265-.829-.051-.829.478l0,47.682a1.831,1.831,0,0,0,.829,1.435l71.81,41.375C171.32,356.629,171.691,356.415,171.691,355.886Z" fill="#27debf"/><path d="M122.15,303.485a31.505,31.505,0,0,0,3.752,14.24c2.418,4.622,5.634,8.255,9.055,10.23s6.637,2.055,9.056.227,3.751-5.348,3.751-9.909a31.5,31.5,0,0,0-3.751-14.239l-.1-.193c-.066-.124-.132-.246-.2-.367a24.771,24.771,0,0,0-8.755-9.67c-3.409-1.968-6.614-2.055-9.029-.245l-.026.018c-.057.043-.112.087-.167.131C123.422,295.57,122.15,299.031,122.15,303.485Zm.27.335c0-.059,0-.12,0-.179s0-.12,0-.179c.035-4.407,1.368-7.657,3.513-9.386.063-.052.127-.1.193-.15a7,7,0,0,1,6.83-.706,12.032,12.032,0,0,1,1.411.621c.2.1.392.207.59.322s.4.233.591.36a16.733,16.733,0,0,1,1.411,1.009,26.76,26.76,0,0,1,6.562,8.091l.2.367a31.175,31.175,0,0,1,3.775,13.948c0,.06,0,.12,0,.18s0,.119,0,.178c-.065,8.193-4.613,12.39-10.535,10.243a11.8,11.8,0,0,1-1.411-.621q-.294-.15-.591-.321c-.2-.115-.394-.235-.59-.36a16.813,16.813,0,0,1-1.411-1.01C127.033,321.536,122.485,312.087,122.42,303.82Z" fill="#fff"/><path d="M125.492,318.035a32.938,32.938,0,0,1-3.921-14.884c0-4.645,1.331-8.274,3.747-10.219h0c.057-.047.115-.093.174-.137l.031-.022c2.523-1.889,5.875-1.8,9.434.259,3.416,1.972,6.666,5.562,9.15,10.1.07.127.139.256.209.387.036.067.071.134.106.2a32.931,32.931,0,0,1,3.921,14.883c0,4.768-1.393,8.446-3.921,10.357s-5.89,1.827-9.465-.237S128.021,322.866,125.492,318.035Zm8.9-23.408a11.431,11.431,0,0,0-1.347-.591,6.65,6.65,0,0,0-6.513.673c-.062.046-.123.094-.184.143-2.128,1.716-3.318,4.9-3.351,8.951,0,.057,0,.114,0,.172s0,.115,0,.171c.062,7.821,4.288,16.809,10.049,21.372h0a16.187,16.187,0,0,0,1.347.963c.366.236.757.461,1.126.651a11.418,11.418,0,0,0,1.346.591c5.76,2.088,9.986-2.02,10.048-9.767,0-.058,0-.115,0-.173s0-.115,0-.171a29.582,29.582,0,0,0-3.6-13.3c-.062-.118-.126-.235-.19-.352a25.411,25.411,0,0,0-6.257-7.717c-.443-.351-.9-.675-1.347-.964-.183-.117-.372-.232-.563-.342S134.578,294.722,134.394,294.627Z" fill="#fff"/><path d="M125.52,293.309l.17-.134.032-.023.208-.144.206.387c.068.128.131.246.193.358a30.562,30.562,0,0,0,2.341,3.648c.084.113.16.213.233.307a22.9,22.9,0,0,0,3.705,3.844c.081.066.165.133.258.2a15.972,15.972,0,0,0,1.823,1.233,12,12,0,0,0,2.338,1.051c.091.029.175.054.258.078a7.438,7.438,0,0,0,3.614.2l.229-.053a6.109,6.109,0,0,0,2.182-1.042c.073-.054.132-.1.187-.145l.2-.167.215.392c.064.116.13.239.2.377l.211.4-.2.166c-.057.046-.114.091-.173.135l-.026.02a6.561,6.561,0,0,1-2.378,1.129c-.084.021-.163.039-.24.054a7.951,7.951,0,0,1-3.871-.232c-.1-.03-.19-.057-.272-.084a12.915,12.915,0,0,1-2.477-1.12,17.151,17.151,0,0,1-1.937-1.307c-.106-.082-.193-.15-.272-.214a24.326,24.326,0,0,1-3.961-4.089l-.245-.321a32.666,32.666,0,0,1-2.544-3.962c-.066-.121-.135-.248-.2-.378l-.21-.4Z" fill="#fff"/><path d="M125.526,317c.069-.051.138-.1.2-.143a6.517,6.517,0,0,1,2.544-1.024c.078-.014.158-.026.247-.039a8.469,8.469,0,0,1,3.959.485c.08.027.167.059.273.1a13.529,13.529,0,0,1,1.937.93,17.842,17.842,0,0,1,2.476,1.739c.082.068.171.144.272.23a25.555,25.555,0,0,1,3.871,4.237c.077.105.158.217.241.333a33.481,33.481,0,0,1,2.377,3.875l.028.053c.058.11.115.221.172.331l.2.4-.211.153c-.073.053-.139.1-.2.142l-.216.143-.2-.4c-.055-.108-.114-.222-.187-.36a31.014,31.014,0,0,0-2.182-3.561c-.075-.106-.152-.212-.228-.316a24.069,24.069,0,0,0-3.615-3.98c-.083-.072-.168-.144-.258-.219a16.6,16.6,0,0,0-2.338-1.649,12.46,12.46,0,0,0-1.824-.872c-.091-.035-.175-.065-.259-.093a7.875,7.875,0,0,0-3.7-.434c-.072.01-.148.022-.233.037a6.111,6.111,0,0,0-2.34.945c-.062.042-.125.086-.193.136l-.206.149-.208-.385-.031-.058c-.058-.111-.115-.221-.171-.332l-.2-.4Z" fill="#fff"/><path d="M128.173,306.962a46.186,46.186,0,0,0,1.932,13.36c1.281,4.111,3,6.963,4.852,8.03s3.571.205,4.853-2.427c1.246-2.561,1.932-6.512,1.932-11.129a46.179,46.179,0,0,0-1.932-13.359c-1.282-4.111-3.005-6.963-4.853-8.03s-3.571-.205-4.852,2.427C128.859,298.395,128.173,302.346,128.173,306.962Zm2.543,13.08a43.984,43.984,0,0,1-1.814-12.658c0-4.388.644-8.14,1.814-10.565,1.145-2.375,2.652-3.177,4.241-2.259s3.1,3.459,4.241,7.156a43.991,43.991,0,0,1,1.814,12.659c0,4.388-.644,8.14-1.814,10.565-1.145,2.375-2.651,3.177-4.241,2.259S131.861,323.74,130.716,320.042Z" fill="#fff"/><path d="M122.285,302.977l25.344,14.632a1.119,1.119,0,0,1,.432.868c0,.318-.193.506-.432.368l-25.344-14.632a1.121,1.121,0,0,1-.432-.867C121.853,303.028,122.047,302.84,122.285,302.977Z" fill="#fff"/><path d="M134.5,327.542V293.749c0-.317.225-.446.463-.308a1.1,1.1,0,0,1,.464.844v33.792c0,.318-.225.446-.464.309A1.1,1.1,0,0,1,134.5,327.542Z" fill="#fff"/><path d="M71.416,359.537a.746.746,0,0,1,.439-.614l17.821-10.287a2.347,2.347,0,0,1,2.125,0l54.374,31.445a.743.743,0,0,1,.439.613v1.869a.742.742,0,0,1-.441.613l-17.81,10.286a2.355,2.355,0,0,1-2.127,0L71.855,362.066a.747.747,0,0,1-.439-.61C71.414,361.232,71.416,359.759,71.416,359.537Z" fill="#27debf"/><path d="M71.416,359.537a.746.746,0,0,1,.439-.614l17.821-10.287a2.347,2.347,0,0,1,2.125,0l54.374,31.445a.743.743,0,0,1,.439.613v1.869a.742.742,0,0,1-.441.613l-17.81,10.286a2.355,2.355,0,0,1-2.127,0L71.855,362.066a.747.747,0,0,1-.439-.61C71.414,361.232,71.416,359.759,71.416,359.537Z" opacity="0.5"/><path d="M128.363,391.546l17.81-10.238a.647.647,0,0,0,0-1.226L91.8,348.637a2.35,2.35,0,0,0-2.125,0L71.855,358.923a.648.648,0,0,0,0,1.227l54.381,31.394A2.354,2.354,0,0,0,128.363,391.546Z" fill="#27debf"/><path d="M128.363,391.546l17.81-10.238a.647.647,0,0,0,0-1.226L91.8,348.637a2.35,2.35,0,0,0-2.125,0L71.855,358.923a.648.648,0,0,0,0,1.227l54.381,31.394A2.354,2.354,0,0,0,128.363,391.546Z" opacity="0.3"/><path d="M127.368,391.8v1.91a2.175,2.175,0,0,0,1-.245l17.805-10.285a.751.751,0,0,0,.441-.614v-1.873a.752.752,0,0,1-.441.614L128.366,391.55A2.2,2.2,0,0,1,127.368,391.8Z" fill="#27debf"/><path d="M127.368,391.8v1.91a2.175,2.175,0,0,0,1-.245l17.805-10.285a.751.751,0,0,0,.441-.614v-1.873a.752.752,0,0,1-.441.614L128.366,391.55A2.2,2.2,0,0,1,127.368,391.8Z" opacity="0.7"/><path d="M123.408,372.758l-2.029,1.172a.091.091,0,0,0-.055.075l1.805,1.08,2.127-1.26Z" fill="#37474f"/><path d="M125.851,374.169l-2.039,1.177a.085.085,0,0,0-.044.069l.008.044,1.8,1.037,2.127-1.261Z" fill="#37474f"/><path d="M119.293,370.384l-2.038,1.176a.091.091,0,0,0-.045.069l2.961,1.749,2.127-1.26Z" fill="#37474f"/><path d="M116.851,368.973l-2.036,1.175a.087.087,0,0,0-.048.071l1.805,1.081,2.126-1.26Z" fill="#37474f"/><path d="M84.887,362.531l1.8,1.081,2.125-1.26-1.846-1.067-2.038,1.177A.084.084,0,0,0,84.887,362.531Z" fill="#37474f"/><path d="M114.408,367.563l-2.026,1.17c-.05.027-.057.059-.057.076l1.8,1.081,2.127-1.261Z" fill="#37474f"/><path d="M122.494,375.419l-1.847-1.067-2.034,1.174a.089.089,0,0,0-.049.073l1.806,1.081Z" fill="#37474f"/><path d="M105.9,371.477l1.8,1.082,2.126-1.261-1.845-1.068-2.036,1.176A.089.089,0,0,0,105.9,371.477Z" fill="#37474f"/><path d="M121.006,377.009l1.805,1.081,2.127-1.261-1.848-1.066-2.039,1.177A.087.087,0,0,0,121.006,377.009Z" fill="#37474f"/><path d="M103.46,370.067l1.805,1.081,2.126-1.261-1.846-1.067-2.028,1.171C103.468,370.019,103.46,370.05,103.46,370.067Z" fill="#37474f"/><path d="M101.017,368.657l1.805,1.081,2.126-1.261L103.1,367.41l-2.038,1.177A.09.09,0,0,0,101.017,368.657Z" fill="#37474f"/><path d="M110.788,374.3l3.862,2.267,4.888-2.853-2.1-1.216-2.582,1.492a.373.373,0,0,1-.185.042.349.349,0,0,1-.164-.037l-1.63-.941-2.024,1.169C110.8,374.248,110.788,374.281,110.788,374.3Z" fill="#37474f"/><path d="M109.524,364.742l-2.038,1.175a.088.088,0,0,0-.047.071l1.8,1.081,2.127-1.26Z" fill="#37474f"/><path d="M108.345,372.887l1.805,1.082,2.126-1.261-1.846-1.067-2.024,1.169C108.352,372.838,108.345,372.873,108.345,372.887Z" fill="#37474f"/><path d="M86.037,356.819l1.8,1.081,2.127-1.26-1.847-1.067-2.027,1.17C86.042,356.772,86.037,356.806,86.037,356.819Z" fill="#37474f"/><path d="M89.982,353.459l-2.042,1.18a.086.086,0,0,0-.042.067l.009.043,1.8,1.038,2.125-1.261Z" fill="#37474f"/><path d="M83.919,358.785l.009.043,1.8,1.037,2.125-1.26L86,357.538l-2.039,1.177A.087.087,0,0,0,83.919,358.785Z" fill="#37474f"/><path d="M80,359.71l1.805,1.082,2.127-1.262-1.848-1.066-2.026,1.171C80.007,359.663,80,359.7,80,359.71Z" fill="#37474f"/><path d="M92.425,354.87l-2.039,1.177a.087.087,0,0,0-.045.069l1.805,1.081,2.125-1.261Z" fill="#37474f"/><path d="M82.442,361.121l1.807,1.08,2.124-1.26-1.845-1.067-2.037,1.176A.092.092,0,0,0,82.442,361.121Z" fill="#37474f"/><path d="M99.753,359.1l-2.037,1.175a.09.09,0,0,0-.047.071l1.8,1.081,2.126-1.261Z" fill="#37474f"/><path d="M102.2,360.511l-2.032,1.173a.093.093,0,0,0-.054.074l1.805,1.08,2.127-1.26Z" fill="#37474f"/><path d="M104.638,361.921l-2.028,1.171c-.049.027-.056.059-.056.076l1.8,1.081,2.126-1.262Z" fill="#37474f"/><path d="M97.31,357.69l-2.028,1.171c-.05.027-.057.059-.057.075l1.8,1.082,2.127-1.261Z" fill="#37474f"/><path d="M107.08,363.332l-2.038,1.176a.1.1,0,0,0-.046.07l1.805,1.081,2.126-1.261Z" fill="#37474f"/><path d="M94.867,356.28l-2.036,1.176a.092.092,0,0,0-.049.071l1.805,1.081,2.126-1.262Z" fill="#37474f"/><path d="M111.967,366.152l-2.043,1.179a.088.088,0,0,0-.042.067l1.8,1.082,2.127-1.261Z" fill="#37474f"/><path d="M112.548,369.676l-2.029,1.172a.088.088,0,0,0-.054.075l.008.043,1.8,1.037,2.125-1.26Z" fill="#37474f"/><path d="M131.25,377.287l-2.03,1.171a.091.091,0,0,0-.054.074l1.8,1.081,2.127-1.261Z" fill="#37474f"/><path d="M133.692,378.7l-2.028,1.172a.093.093,0,0,0-.055.073l1.805,1.082,2.126-1.261Z" fill="#37474f"/><path d="M110.105,368.266l-2.031,1.173a.088.088,0,0,0-.053.074l1.8,1.08,2.127-1.261Z" fill="#37474f"/><path d="M136.135,380.107l-2.029,1.171c-.049.029-.054.062-.054.075l1.8,1.081,2.127-1.261Z" fill="#37474f"/><path d="M112.907,372.333l.009.044,1.794,1.037,2.126-1.261-1.845-1.067-2.03,1.172A.088.088,0,0,0,112.907,372.333Z" fill="#37474f"/><path d="M128.49,378.88l-2.024,1.17c-.053.027-.061.06-.061.077l1.805,1.08,2.126-1.26Z" fill="#37474f"/><path d="M133.376,381.7l-2.024,1.17c-.055.029-.061.064-.061.077l1.8,1.081,2.127-1.26Z" fill="#37474f"/><path d="M128.848,381.537l1.8,1.081,2.127-1.261-1.846-1.067-2.035,1.176A.086.086,0,0,0,128.848,381.537Z" fill="#37474f"/><path d="M131.015,385.885a.086.086,0,0,0-.041.067l.008.043,1.8,1.037,4.888-2.854-1.848-1.067Z" fill="#37474f"/><path d="M107.662,366.855l-2.029,1.172a.088.088,0,0,0-.054.075l.008.044,1.8,1.037,2.127-1.261Z" fill="#37474f"/><path d="M126.088,383.131l.009.044,1.8,1.036,2.125-1.26-1.846-1.067-2.029,1.172A.091.091,0,0,0,126.088,383.131Z" fill="#37474f"/><path d="M128.531,384.541l1.8,1.082,2.125-1.262-1.845-1.067-2.023,1.169C128.539,384.491,128.531,384.524,128.531,384.541Z" fill="#37474f"/><path d="M95.449,359.8l-2.027,1.171c-.049.027-.057.059-.057.076l1.805,1.08,2.126-1.26Z" fill="#37474f"/><path d="M90.563,356.984l-2.026,1.17c-.05.027-.057.059-.057.076l.008.043,1.8,1.037,2.127-1.26Z" fill="#37474f"/><path d="M88.8,361.605l1.805,1.081,2.126-1.261-1.846-1.066-2.038,1.178A.092.092,0,0,0,88.8,361.605Z" fill="#37474f"/><path d="M86.362,360.2l1.8,1.081,2.127-1.261-1.846-1.067-2.039,1.178A.085.085,0,0,0,86.362,360.2Z" fill="#37474f"/><path d="M91.248,363.016l.008.043L93.05,364.1l2.127-1.261-1.846-1.067-2.026,1.171C91.253,362.968,91.248,363,91.248,363.016Z" fill="#37474f"/><path d="M105.22,365.445l-2.031,1.173a.092.092,0,0,0-.053.073l.009.044,1.8,1.037,2.124-1.26Z" fill="#37474f"/><path d="M96.132,365.836l1.8,1.081,2.127-1.261-1.846-1.067-2.028,1.171C96.137,365.789,96.132,365.823,96.132,365.836Z" fill="#37474f"/><path d="M93.689,364.426l1.8,1.081,2.127-1.261-1.847-1.067-2.038,1.177A.091.091,0,0,0,93.689,364.426Z" fill="#37474f"/><path d="M100.334,362.624,98.308,363.8c-.05.027-.057.06-.057.076l1.8,1.081,2.127-1.261Z" fill="#37474f"/><path d="M93.006,358.394l-2.026,1.17c-.05.027-.058.059-.058.077l1.805,1.08,2.127-1.261Z" fill="#37474f"/><path d="M102.777,364.035l-2.029,1.172c-.048.027-.055.058-.055.075l1.805,1.08,2.126-1.26Z" fill="#37474f"/><path d="M97.891,361.215l-2.026,1.17c-.05.027-.057.059-.057.076l.008.044,1.8,1.037,2.126-1.261Z" fill="#37474f"/><path d="M98.575,367.246l1.8,1.082,2.126-1.262L100.659,366l-2.035,1.175A.087.087,0,0,0,98.575,367.246Z" fill="#37474f"/><path d="M128.293,375.579l-2.038,1.177a.086.086,0,0,0-.045.069l1.805,1.081,2.126-1.26Z" fill="#37474f"/><path d="M89.385,353.116l-1.846-1.067L85.5,353.226a.088.088,0,0,0-.045.07l.008.043,1.8,1.038Z" fill="#37474f"/><path d="M87.525,355.23l-2.747-1.587L82.74,354.82a.087.087,0,0,0-.046.07l.009.043,2.7,1.557Z" fill="#37474f"/><path d="M93.122,351.4l-2.232-1.29-2.03,1.173a.09.09,0,0,0-.054.074l2.189,1.3Z" fill="#37474f"/><path d="M81.49,358.121l-2.234-1.289L77.23,358c-.052.028-.058.062-.058.075l2.191,1.3Z" fill="#37474f"/><path d="M85.406,357.194l-3.389-1.957-2.038,1.177a.084.084,0,0,0-.045.069l.008.044,3.339,1.929Z" fill="#37474f"/><path d="M92.7,353.607l1.806,1.082,2.125-1.261-1.845-1.067-2.028,1.171C92.7,353.559,92.7,353.591,92.7,353.607Z" fill="#37474f"/><path d="M76.5,358.425,74.466,359.6a.093.093,0,0,0-.055.074l2.706,1.6,2.125-1.26Z" fill="#37474f"/><path d="M95.14,355.018l1.8,1.081,2.126-1.261-1.847-1.066-2.038,1.176A.087.087,0,0,0,95.14,355.018Z" fill="#37474f"/><path d="M105.974,361.273l.008.043,1.8,1.038,2.126-1.261-1.847-1.067-2.032,1.173A.091.091,0,0,0,105.974,361.273Z" fill="#37474f"/><path d="M108.416,362.684l1.805,1.08,2.126-1.261-1.848-1.067-2.031,1.174A.088.088,0,0,0,108.416,362.684Z" fill="#37474f"/><path d="M103.53,359.862l.009.044,1.8,1.037,2.126-1.26-1.847-1.067-2.026,1.17C103.536,359.815,103.53,359.849,103.53,359.862Z" fill="#37474f"/><path d="M100.025,357.838l.008.044,1.8,1.037,2.126-1.26-1.848-1.067-2.031,1.173A.091.091,0,0,0,100.025,357.838Z" fill="#37474f"/><path d="M97.582,356.428l1.805,1.081,2.127-1.261-1.848-1.066-2.037,1.175A.09.09,0,0,0,97.582,356.428Z" fill="#37474f"/><path d="M125.092,386.483l-2.042,1.179a.087.087,0,0,0-.041.067l.009.044,1.8,1.037,2.126-1.261Z" fill="#37474f"/><path d="M112.365,379.134,110.34,380.3c-.052.027-.06.059-.06.075l1.805,1.081,2.126-1.26Z" fill="#37474f"/><path d="M120.207,383.662l-2.029,1.172a.091.091,0,0,0-.055.074l.009.044,4.239,2.447,2.126-1.26Z" fill="#37474f"/><path d="M114.808,380.544l-2.024,1.17c-.052.027-.059.06-.059.077l1.8,1.081,2.127-1.261Z" fill="#37474f"/><path d="M117.251,381.955l-2.018,1.165c-.058.028-.067.064-.067.082l1.8,1.08,2.127-1.261Z" fill="#37474f"/><path d="M110.859,364.093l.008.044,1.8,1.037,2.126-1.26-1.848-1.067-2.026,1.17C110.866,364.044,110.859,364.077,110.859,364.093Z" fill="#37474f"/><path d="M132.145,387.366,130.3,386.3l-4.8,2.773a.086.086,0,0,0-.04.068l.008.043,1.8,1.037Z" fill="#37474f"/><path d="M82.666,361.988l-2.026,1.17c-.052.028-.057.063-.057.076l2.19,1.3,2.127-1.261Z" fill="#37474f"/><path d="M85.5,363.621l-2.023,1.169c-.053.027-.061.06-.061.077l.009.044L97.3,372.925l2.129-1.26Z" fill="#37474f"/><path d="M87.329,363.941l1.8,1.082,2.126-1.261L89.413,362.7l-2.036,1.176A.087.087,0,0,0,87.329,363.941Z" fill="#37474f"/><path d="M79.838,360.355l-2.027,1.171c-.05.027-.058.058-.058.075l2.192,1.3,2.126-1.261Z" fill="#37474f"/><path d="M100.023,372.008l-2.03,1.172a.088.088,0,0,0-.053.075l.008.044,2.18,1.26,2.127-1.262Z" fill="#37474f"/><path d="M105.679,375.274l-2.034,1.175a.084.084,0,0,0-.049.072l.008.044,2.182,1.259,2.127-1.26Z" fill="#37474f"/><path d="M102.852,373.642l-2.039,1.176a.091.091,0,0,0-.046.07l2.192,1.3,2.125-1.261Z" fill="#37474f"/><path d="M108.508,376.907l-2.029,1.172a.089.089,0,0,0-.054.075l.008.044,2.7,1.556,2.126-1.26Z" fill="#37474f"/><path d="M123.449,378.419l.009.044,1.8,1.038,2.126-1.261-1.848-1.067-2.034,1.174A.089.089,0,0,0,123.449,378.419Z" fill="#37474f"/><path d="M115.484,380.2l.009.044,1.8,1.037,2.126-1.261-1.846-1.067-2.036,1.175A.084.084,0,0,0,115.484,380.2Z" fill="#37474f"/><path d="M106.87,375.224l5.02,2.936,2.126-1.261-5.061-2.922-2.038,1.178A.094.094,0,0,0,106.87,375.224Z" fill="#37474f"/><path d="M120.884,383.315l.009.043,1.8,1.038,2.124-1.261-1.847-1.067-2.038,1.177A.087.087,0,0,0,120.884,383.315Z" fill="#37474f"/><path d="M123.327,384.725l.009.044,1.8,1.036,2.126-1.26-1.847-1.066-2.035,1.174A.084.084,0,0,0,123.327,384.725Z" fill="#37474f"/><path d="M104.427,373.813l1.805,1.082,2.126-1.261-1.845-1.067-2.031,1.172A.09.09,0,0,0,104.427,373.813Z" fill="#37474f"/><path d="M123.646,381.721l.008.044,1.8,1.036,2.125-1.26-1.846-1.067-2.023,1.169C123.653,381.67,123.646,381.7,123.646,381.721Z" fill="#37474f"/><path d="M92.215,366.762l1.805,1.081,2.125-1.261L94.3,365.516l-2.036,1.175A.087.087,0,0,0,92.215,366.762Z" fill="#37474f"/><path d="M101.985,372.4l1.806,1.079,2.125-1.259-1.847-1.067-2.042,1.179A.093.093,0,0,0,101.985,372.4Z" fill="#37474f"/><path d="M89.773,365.352l.008.044,1.8,1.036,2.125-1.26-1.846-1.067-2.039,1.177A.087.087,0,0,0,89.773,365.352Z" fill="#37474f"/><path d="M94.656,368.173l1.805,1.08,2.126-1.26-1.846-1.067-2.042,1.18A.093.093,0,0,0,94.656,368.173Z" fill="#37474f"/><path d="M97.1,369.583l.008.044,1.8,1.036,2.125-1.26-1.846-1.067-2.026,1.171C97.108,369.534,97.1,369.566,97.1,369.583Z" fill="#37474f"/><path d="M99.543,370.993l.009.044,1.794,1.037,2.127-1.261-1.846-1.067-2.039,1.177A.091.091,0,0,0,99.543,370.993Z" fill="#37474f"/><path d="M116.807,367.528l1.805,1.08,2.125-1.26-1.846-1.067-2.027,1.17C116.815,367.479,116.807,367.511,116.807,367.528Z" fill="#37474f"/><path d="M125.77,386.135l.008.044,1.8,1.037,2.126-1.261-1.847-1.066-2.039,1.176A.089.089,0,0,0,125.77,386.135Z" fill="#37474f"/><path d="M121.692,370.349l1.805,1.08,2.125-1.261-1.846-1.066-2.026,1.17C121.7,370.3,121.692,370.332,121.692,370.349Z" fill="#37474f"/><path d="M127.118,373.481l1.8,1.08,2.127-1.26-1.848-1.067-2.029,1.172A.089.089,0,0,0,127.118,373.481Z" fill="#37474f"/><path d="M124.675,372.07l1.805,1.081,2.126-1.26-1.847-1.067L124.73,372C124.683,372.023,124.675,372.054,124.675,372.07Z" fill="#37474f"/><path d="M114.364,366.118l1.805,1.08,2.126-1.26-1.847-1.067-2.031,1.173A.088.088,0,0,0,114.364,366.118Z" fill="#37474f"/><path d="M119.25,368.938l.008.043,1.8,1.038,2.124-1.261-1.846-1.067-2.026,1.171C119.257,368.889,119.25,368.921,119.25,368.938Z" fill="#37474f"/><path d="M129.56,374.891l1.805,1.081,2.127-1.261-1.848-1.067-2.029,1.172A.091.091,0,0,0,129.56,374.891Z" fill="#37474f"/><path d="M140.554,380.42l1.8,1.081,1.111-.686-1.849-1.068-1.017.6A.091.091,0,0,0,140.554,380.42Z" fill="#37474f"/><path d="M136.495,382.763l1.8,1.082,2.127-1.262-1.848-1.066-2.029,1.172C136.5,382.717,136.495,382.75,136.495,382.763Z" fill="#37474f"/><path d="M133.227,376.189l.008.043,1.8,1.037,1.11-.685-1.849-1.067-1.012.6A.088.088,0,0,0,133.227,376.189Z" fill="#37474f"/><path d="M135.67,377.6l.008.044,1.8,1.036,1.11-.685-1.849-1.067-1.021.6A.088.088,0,0,0,135.67,377.6Z" fill="#37474f"/><path d="M138.112,379.009l1.805,1.08,1.11-.685-1.848-1.067-1.022.6A.089.089,0,0,0,138.112,379.009Z" fill="#37474f"/><path d="M440.2,381.856a4.8,4.8,0,0,0,.132,2.17,4.9,4.9,0,0,0,1.756,2.116,8.591,8.591,0,0,1,1.457,1.767,7.452,7.452,0,0,0,1.521,1.9,3.042,3.042,0,0,0,2.458.177c.645-.27.862-.513.822-1.544-.038-1.007-3.163-1.381-3.163-1.381Z" fill="#37474f"/><path d="M447.947,385.371c.266.1.334.609.374,1.618.031.763.351,1.881-.7,2.363a2.572,2.572,0,0,1-2.778-.59c-.716-.9-1.2-1.689-2.22-2.785-.886-.951-1.808-1.272-2.2-3.172-.254-1.222-.055-1.728.768-2.078,1.13-.482,2.906,1.092,3.792,1.339C445.745,382.28,447.681,385.27,447.947,385.371Z" fill="#455a64"/><path d="M444.982,382.066a1.41,1.41,0,0,1-.15-.051,2.912,2.912,0,0,0-2.448,1.6c-.151.332.314.591.591.332a3.107,3.107,0,0,1,2.445-1.6A1.307,1.307,0,0,0,444.982,382.066Z" fill="#fafafa"/><path d="M445.713,382.642a2.891,2.891,0,0,0-2.273,1.591c-.152.333.313.592.589.333a2.984,2.984,0,0,1,2.04-1.523C445.947,382.9,445.828,382.764,445.713,382.642Z" fill="#fafafa"/><path d="M440.94,384.211s.089-2.262,3.147-2.576l.175.1a2.642,2.642,0,0,0-1.5-1.161,2.082,2.082,0,0,0-2.354.675C439.871,381.936,440.412,383.77,440.94,384.211Z" fill="#fafafa"/><path d="M447.947,383.738v1.938a3.032,3.032,0,0,1-3.131.084c-.054-.119-.212-2.022-.212-2.022Z" fill="#ffa8a7"/><path d="M424.2,396.364c-.172.855.137,1.3,1.241,1.939a6.16,6.16,0,0,0,4.66.326c1.821-.53,2.692-1.326,3.45-1.515s2.631-.206,3.379-.425.737-.6.733-1.5Z" fill="#37474f"/><path d="M436.925,390.849s.356,1.078.548,2.02a5.47,5.47,0,0,1,.107,2.565c-.262.563-1.285.926-2.872.915a9.311,9.311,0,0,0-3.725,1.3,5.7,5.7,0,0,1-3.558.494c-1.411-.167-2.873-.985-3.1-1.569s-.287-1.023,3.039-2.441c.031-.012,3.86-1.425,5.47-3.2Z" fill="#455a64"/><path d="M430.529,397.868s-.284-2.856-2.606-3.673c-2.1-.738-3.931.817-3.728,2.169C424.333,397.273,426.888,399.338,430.529,397.868Z" fill="#fafafa"/><path d="M428.511,393.66a2.706,2.706,0,0,1,1.585.7c.669.563.688.938.688.938a.352.352,0,0,0,.606-.29,2.183,2.183,0,0,0-2.052-1.735A.772.772,0,0,0,428.511,393.66Z" fill="#fafafa"/><path d="M429.838,393.025a2.379,2.379,0,0,1,1.6.635c.668.564.672,1.006.672,1.006a.352.352,0,0,0,.606-.289,2.182,2.182,0,0,0-2.052-1.736A.772.772,0,0,0,429.838,393.025Z" fill="#fafafa"/><path d="M431.155,392.273a2.376,2.376,0,0,1,1.64.525c.706.516.74.957.74.957a.352.352,0,0,0,.585-.33,2.182,2.182,0,0,0-2.165-1.592A.775.775,0,0,0,431.155,392.273Z" fill="#fafafa"/><path d="M436.925,389.509s0,.92,0,1.446-.615,1.308-2.222,1.251c-1.129-.041-1.916-.344-1.871-1.273v-1.34Z" fill="#ffa8a7"/><path d="M451.659,333.469c.342-12.67-.674-15.706-4.047-18.028l-1.307,7.342s1.537,8.651,1.372,11.532a39.8,39.8,0,0,1-.989,7.745,1.555,1.555,0,0,1-.672.868,8.835,8.835,0,0,0-1.852,1.766c-.507.53-.938.662-.871.831a.834.834,0,0,0,1.067.378,5.773,5.773,0,0,0,1.219-.661,7.736,7.736,0,0,1-1.248,2.145c-1.2,1.477-1.257,2.384,1.175,2.4,1.523.014,2.739-.926,3.886-4.284a27.266,27.266,0,0,0,1.071-3.771A67.907,67.907,0,0,0,451.659,333.469Z" fill="#ffa8a7"/><path d="M451.115,338a25.6,25.6,0,0,1-.652,3.733,5.778,5.778,0,0,1-3.524-.693l.45-3.5Z" fill="#263238"/><path d="M446.427,314.763c1.827-.19,4.04,2.4,4.825,5.424s1.022,13.495-.137,17.817a5.294,5.294,0,0,1-3.726-.458,46.694,46.694,0,0,0-.308-7.375c-.467-2.415-1.6-8.131-1.351-8.963S446.427,314.763,446.427,314.763Z" fill="#37474f"/><path d="M450,368.11c-.156-3.761-.556-3.844-1.159-6.788.3-3.585.59-6.6.718-10.488.136-4.2-.043-9.246-.042-13.707-4.594-.307-16.081-4.107-17.518,3.114-.42,5.828.161,17.369.228,25.316s.022,15.775.488,24.3a5.177,5.177,0,0,0,4.45-.327,145.277,145.277,0,0,0,2.521-15.152c.454-4.04-.2-4.331.023-7.5s.5-6.631.744-9.733.562-5.708.7-8.724a1.993,1.993,0,0,0,.377-.19c.232,3.693.323,6.867.579,10.65s.561,6.618.959,10.942c.368,3.992.524,9.269,1.282,14.091,1.088.515,2.683,1.014,3.721.113C449.045,379.667,450.159,371.872,450,368.11Z" fill="#27debf"/><g opacity="0.3"><path d="M450,368.11c-.156-3.761-.556-3.844-1.159-6.788.3-3.585.59-6.6.718-10.488.136-4.2-.043-9.246-.042-13.707-4.594-.307-16.081-4.107-17.518,3.114-.42,5.828.161,17.369.228,25.316s.022,15.775.488,24.3a5.177,5.177,0,0,0,4.45-.327,145.277,145.277,0,0,0,2.521-15.152c.454-4.04-.2-4.331.023-7.5s.5-6.631.744-9.733.562-5.708.7-8.724a1.993,1.993,0,0,0,.377-.19c.232,3.693.323,6.867.579,10.65s.561,6.618.959,10.942c.368,3.992.524,9.269,1.282,14.091,1.088.515,2.683,1.014,3.721.113C449.045,379.667,450.159,371.872,450,368.11Z"/></g><g opacity="0.2"><path d="M441.156,348.427a34.84,34.84,0,0,0,6.394-4,18.062,18.062,0,0,1-4.584,4.194c-.038,1.023-.852,8.95-.87,8.807-.228-1.787-.283-6.3-.579-8.98C441.4,348.383,441.276,348.441,441.156,348.427Z"/></g><path d="M449,317.426c-.515-1.563-2.5-3.264-4.482-2.9a58.668,58.668,0,0,0-8.691,2.171c-1.817.649-3.471,2.219-3.623,8.2,0,0-.608,13.933-.619,16.627a22.027,22.027,0,0,0,11.931,1.177c5.459-1.193,6.118-3.457,6.118-3.457s.07-10.019-.093-14.347C449.4,321.22,449.352,318.5,449,317.426Z" fill="#455a64"/><path d="M437.539,312.482l.591,5.581,5,.006-.581-6.319Z" fill="#ffa8a7"/><path d="M436.355,316.518c.364-.758.648-1.771,1.35-1.9a9.259,9.259,0,0,0,3.666-.136,3.177,3.177,0,0,0,1.539-1.079,1.685,1.685,0,0,1,1.8.325c.729.776,2.91,2.063,3.483,4.343s1.04,6.488-1.593,7.3c-3.856,1.192-6.6-.619-7.521-3.812C438.07,318.063,438.35,317.148,436.355,316.518Z" fill="#37474f"/><path d="M439.371,316.806c.63.866,1.3,4.626,2.8,6.092s4.745,1.115,5.336-.383a2.418,2.418,0,0,1-2.4,2.135,4.674,4.674,0,0,1-4.876-3.632C439.65,318.787,439.73,317.821,439.371,316.806Z" fill="#263238"/><path d="M433.519,305.982s-1.265,2.016-1.112,2.208,1.122.347,1.122.347Z" fill="#f28f8f"/><path d="M437.031,300.4c-2.637.619-3.377,1.8-3.531,6.015-.162,4.4.318,5.777.909,6.357.4.391,2.569.414,3.656.088,1.36-.408,4.428-1.574,5.828-3.819,1.644-2.642,2.012-6.18.156-7.586C441.435,299.48,438.1,300.152,437.031,300.4Z" fill="#ffa8a7"/><path d="M433.162,302.359a3.239,3.239,0,0,0,1.757.346c-.115.01-.078.491-.064.558a1.119,1.119,0,0,0,1.51.726c-.358.295-.086,1.19.039,1.556.148.435.208.9.7,1.093,0,0,.382-1.635,1.757-1.462s1.61,1.929.765,3.017-1.665.7-1.665.7a7.2,7.2,0,0,0,1.154,3.615,6.218,6.218,0,0,0,7.227-3.936c1.583-3.747,1.624-7.087-.767-8.033a3.218,3.218,0,0,0-1.6-3.414,3.16,3.16,0,0,0-3.259.016c-.068.043-.4-.633-.436-.679a2.23,2.23,0,0,0-.887-.708,3.2,3.2,0,0,0-1.552-.242,3.287,3.287,0,0,0-1.712.587,2.254,2.254,0,0,0-.927,1.522,4.32,4.32,0,0,0-2.681.632,2.443,2.443,0,0,0-.489,3.063A2.775,2.775,0,0,0,433.162,302.359Z" fill="#263238"/><path d="M445.625,301.106l1.565-.97a.921.921,0,0,0-1.565.97Z" fill="#263238"/><path d="M413.865,327.05c.855.38,10.916,7.816,12.485,6.95s9.617-10.27,9.617-10.27a6.493,6.493,0,0,0,0-7.053,5.474,5.474,0,0,0-4.591,2.4c-1.436,1.982-6.6,8.745-6.6,8.745-1.441-.72-6.593-2.685-7.747-3.342a4.282,4.282,0,0,1-.907-.559c-.568-.563-.471-1.924-.461-2.664a9.952,9.952,0,0,1,.051-1.037c.049-.423.13-1.459-.632-1.13a.941.941,0,0,0-.363.306,1.7,1.7,0,0,0-.273.519c-.143.447-.1.937-.229,1.388a.381.381,0,0,1-.094.18.332.332,0,0,1-.24.074c-1.109-.034-2.158-1.587-2.667-2.412a2.252,2.252,0,0,0-.842-.959,1.5,1.5,0,0,0-1.726.667,3.508,3.508,0,0,0-.549,2.442,4.86,4.86,0,0,0,1.445,3.064A14.894,14.894,0,0,0,413.865,327.05Z" fill="#ffa8a7"/><path d="M421.181,326.287l-2.518-1.048a4.178,4.178,0,0,0-1.99,3.664l2.437,1.619Z" fill="#263238"/><path d="M436.355,316.518a6.012,6.012,0,0,0-3.887,1.057c-1.442,1.255-7.765,9.9-7.765,9.9l-3.522-1.191a4.917,4.917,0,0,0-2.071,4.235s2.479,1.838,3.826,2.628a7.987,7.987,0,0,0,3.29,1.255c.6-.031,9.5-9.734,9.5-9.734a7.763,7.763,0,0,0,1.606-4.539A8.72,8.72,0,0,0,436.355,316.518Z" fill="#37474f"/><path d="M62.451,318.024c-2.212.431-3.221,1.184-4.478,4.253s-4.015,10.478-4.025,12.6c-.008,1.616,5.581,9.139,5.331,9.018-.076-.038,3.172-3.8,3.172-3.8l-3.376-5.333,2.677-5.2Z" fill="#ffa8a7"/><path d="M67.369,383.8a4.758,4.758,0,0,1-.13,2.157,4.876,4.876,0,0,1-1.745,2.1,8.535,8.535,0,0,0-1.449,1.755,7.368,7.368,0,0,1-1.511,1.89,3.027,3.027,0,0,1-2.443.177c-.642-.27-.857-.511-.817-1.535.039-1,3.144-1.373,3.144-1.373Z" fill="#455a64"/><path d="M59.676,387.3c-.265.1-.332.605-.372,1.608-.031.759-.35,1.87.7,2.348a2.553,2.553,0,0,0,2.761-.586c.711-.893,1.191-1.679,2.206-2.768.881-.945,1.8-1.264,2.188-3.152.251-1.215.053-1.718-.763-2.066-1.124-.479-2.889,1.086-3.77,1.332C61.864,384.225,59.94,387.2,59.676,387.3Z" fill="#27debf"/><path d="M59.676,387.3c-.265.1-.332.605-.372,1.608-.031.759-.35,1.87.7,2.348a2.553,2.553,0,0,0,2.761-.586c.711-.893,1.191-1.679,2.206-2.768.881-.945,1.8-1.264,2.188-3.152.251-1.215.053-1.718-.763-2.066-1.124-.479-2.889,1.086-3.77,1.332C61.864,384.225,59.94,387.2,59.676,387.3Z" opacity="0.2"/><path d="M62.622,384.012c.047-.013.1-.032.15-.052a2.9,2.9,0,0,1,2.433,1.6c.15.33-.312.588-.587.33a3.091,3.091,0,0,0-2.431-1.585A1.273,1.273,0,0,1,62.622,384.012Z" fill="#fafafa"/><path d="M61.9,384.584a2.875,2.875,0,0,1,2.26,1.582c.15.33-.312.587-.587.33a2.966,2.966,0,0,0-2.027-1.514C61.663,384.84,61.782,384.7,61.9,384.584Z" fill="#fafafa"/><path d="M66.639,386.144s-.088-2.249-3.127-2.561l-.174.1a2.623,2.623,0,0,1,1.495-1.155,2.069,2.069,0,0,1,2.338.672C67.7,383.883,67.164,385.7,66.639,386.144Z" fill="#fafafa"/><path d="M81.49,399.321c.172.85-.135,1.294-1.233,1.927a6.113,6.113,0,0,1-4.63.324c-1.811-.527-2.677-1.317-3.43-1.506s-2.614-.2-3.358-.421-.733-.6-.729-1.494Z" fill="#455a64"/><path d="M68.839,393.84a20.657,20.657,0,0,0-.544,2.008,5.425,5.425,0,0,0-.107,2.548c.261.561,1.277.922,2.854.91a9.241,9.241,0,0,1,3.7,1.294,5.673,5.673,0,0,0,3.537.49c1.4-.165,2.856-.978,3.082-1.559s.286-1.017-3.02-2.426c-.03-.013-3.836-1.416-5.436-3.182Z" fill="#27debf"/><g opacity="0.2"><path d="M68.839,393.84a20.657,20.657,0,0,0-.544,2.008,5.425,5.425,0,0,0-.107,2.548c.261.561,1.277.922,2.854.91a9.241,9.241,0,0,1,3.7,1.294,5.673,5.673,0,0,0,3.537.49c1.4-.165,2.856-.978,3.082-1.559s.286-1.017-3.02-2.426c-.03-.013-3.836-1.416-5.436-3.182Z"/></g><path d="M75.195,400.816s.284-2.839,2.591-3.65c2.086-.734,3.907.811,3.7,2.155C81.354,400.225,78.815,402.278,75.195,400.816Z" fill="#fafafa"/><path d="M77.2,396.634a2.689,2.689,0,0,0-1.575.7c-.665.561-.685.933-.685.933a.35.35,0,0,1-.6-.289,2.167,2.167,0,0,1,2.039-1.724A.768.768,0,0,1,77.2,396.634Z" fill="#fafafa"/><path d="M75.883,396a2.365,2.365,0,0,0-1.591.632c-.665.56-.669,1-.669,1a.35.35,0,0,1-.6-.288,2.169,2.169,0,0,1,2.039-1.725A.769.769,0,0,1,75.883,396Z" fill="#fafafa"/><path d="M74.573,395.255a2.36,2.36,0,0,0-1.629.522c-.7.513-.736.952-.736.952a.35.35,0,0,1-.581-.329,2.168,2.168,0,0,1,2.152-1.582A.768.768,0,0,1,74.573,395.255Z" fill="#fafafa"/><path d="M59.676,385.674V387.6a3.012,3.012,0,0,0,3.111.084c.054-.118.21-2.009.21-2.009Z" fill="#ffa8a7"/><path d="M68.839,392.509s0,.914,0,1.436.612,1.3,2.209,1.244c1.121-.041,1.9-.342,1.859-1.266v-1.331Z" fill="#ffa8a7"/><path d="M57.6,369.333a16.114,16.114,0,0,1,.939-5.843s-.6-4.992-.986-11.159c-.567-8.97,1.46-11.926,3.305-16.133,0,0,14.564-.955,14.77,5.6.28,8.883.105,24.825-.111,27.7s-.214.218-.912,6.043c-.553,4.608-1.7,17.048-1.7,17.048a4.318,4.318,0,0,1-4.068-.083s-1.287-15.222-1.152-18.543a37.5,37.5,0,0,1,.4-5.087s-1.841-13.125-2.125-15.238c0,0-.257,3.781-.473,6.659s-.2,5.2-.8,11.149c-.476,4.669-1.628,14.749-1.628,14.749a3.865,3.865,0,0,1-3.432-.253S57.515,372.62,57.6,369.333Z" fill="#455a64"/><path d="M65.957,353.641l-.3-3.182a12.027,12.027,0,0,1-4.8-1.817,6.517,6.517,0,0,0,3.828,2.384l.634,3.1.165,6.174Z" fill="#37474f"/><path d="M70.513,315.906l-.739,6.082-5.347-.483.611-6.751Z" fill="#ffa8a7"/><path d="M59.211,320.966c.588-1.6,1.935-3.276,3.99-2.894.536.1,1.007.177,1.511.279.046,1.4,2.686,2.126,5.318,1.276q1.188.342,2.174.693c1.882.672,3.526,4.263,3.567,9.493s-.887,13.545-.887,13.545-3.428,4.808-10.588,2.482c-5.221-1.7-6.1-3.173-6.1-3.173s1.821-4.335,3.09-7.9C58.451,327.222,58.339,323.34,59.211,320.966Z" fill="#ffa8a7"/><path d="M59.211,320.966c.588-1.6,1.935-3.276,3.99-2.894.536.1,1.007.177,1.511.279.046,1.4,2.686,2.126,5.318,1.276q1.188.342,2.174.693c1.882.672,3.526,4.263,3.567,9.493s.187,20.885.187,20.885-1.515-1.044-2.641-5.931A8.16,8.16,0,0,1,62.893,351.7c-5.221-1.7-5.4-3.953-5.731-6.456.255-1.964,2.1-6.671,4.124-10.486C58.451,327.222,58.339,323.34,59.211,320.966Z" fill="#27debf"/><path d="M74.487,308.18a4.693,4.693,0,0,0-.4-4.521c-1.795-2.819-5.256-3.3-9.357-2.2a7.275,7.275,0,0,0-5.13,6.6c-.2,3.006,8.191,5.225,8,7.285Z" fill="#263238"/><path d="M74.667,309.322s1.138,1.826.979,2.011a2.835,2.835,0,0,1-.92.367Z" fill="#f28f8f"/><path d="M75.747,308.965a1.3,1.3,0,1,1-1.3-1.3A1.3,1.3,0,0,1,75.747,308.965Z" fill="none" stroke="#263238" stroke-miterlimit="10" stroke-width="0.192"/><path d="M71.2,303.542c1.137.627,3.1,1.782,3.5,6.043.408,4.375-.6,5.864-1.213,6.419-.412.375-2.486.459-3.557.1a11.241,11.241,0,0,1-5.54-4.269c-1.544-2.691-1.782-6.229.119-7.562A6.968,6.968,0,0,1,71.2,303.542Z" fill="#ffa8a7"/><path d="M70.666,315.349l-.192.882a6.278,6.278,0,0,0,2.816-.12,4.9,4.9,0,0,1-1.022-.125A6.53,6.53,0,0,1,70.666,315.349Z" fill="#f28f8f"/><path d="M71.14,308.691a4.334,4.334,0,0,0,2.775-3.5c.43-2.775-3.038-3.95-3.038-3.95Z" fill="#263238"/><path d="M71.531,303.733s.9,4.005-.374,6.487c0,0-.663-1.571-2.009-1.162a1.817,1.817,0,0,0-.388,3.153,1.367,1.367,0,0,0,1.754.024A9.033,9.033,0,0,1,68.5,315.44s-3.514,2.064-6.966-1.831c-3.131-3.535-2.233-9.836,2.247-11.155A8.274,8.274,0,0,1,71.531,303.733Z" fill="#263238"/><path d="M85.737,329.954c.776-.887.9-2.845,1.94-4.192,1.009-1.317.845-2.706,1.494-2.1.694.647.164,2.814.164,2.814a13.15,13.15,0,0,1,1.307,3.378c.1,1.143-2.924,4.014-2.924,4.014Z" fill="#ffa8a7"/><path d="M89.171,326.321s1.225,1.713,6.745-.525c1.524-.618.5,2.659-1.374,4.017-1.731,1.256-3.9,1.645-5.628,2.818C88.91,332.464,89.171,326.321,89.171,326.321Z" fill="#ffa8a7"/><path d="M71.736,320.159c2.381.433,3.587.683,4.9,3.8,1.563,3.7,4.824,10.621,4.824,10.621l4.272-4.626s.622-.876,1.778,1.035.646,2.439.646,2.439-4.971,6.658-5.884,7.506-2.411.188-3.388-1.144-6.208-9.718-6.208-9.718S69.515,323.509,71.736,320.159Z" fill="#ffa8a7"/><path d="M60.024,305.958c-.949,2.435-1.831,12.694-.08,16.03s6.7,5.51,9.9,4.363c1.966-.705,4.6-2.364,3-4.752a8.024,8.024,0,0,0-1.557-1.556,3.931,3.931,0,0,1-1.084-1.59c-.711-1.555.246-6.058.309-6.218,0,0-.528,1.932-4.154.9C64.7,312.656,60.024,305.958,60.024,305.958Z" fill="#263238"/></g></svg>