<svg xmlns="http://www.w3.org/2000/svg" xmlns:xlink="http://www.w3.org/1999/xlink" width="923.413" height="192" viewBox="0 0 923.413 192"><defs><filter id="a" x="122.553" y="0" width="192" height="192" filterUnits="userSpaceOnUse"><feOffset input="SourceAlpha"/><feGaussianBlur stdDeviation="7.5" result="b"/><feFlood flood-opacity="0.11"/><feComposite operator="in" in2="b"/><feComposite in="SourceGraphic"/></filter></defs><g transform="translate(797.053 -5915.5)"><path d="M121.89-125.12v14.45H48.11v-14.45Zm4.93,32.3v14.11H104.55L72.76.68H48.96L41.31-13.6H62.56L88.4-78.71H43.18V-92.82Z" transform="translate(-90 6082)" fill="#fff46e"/><path d="M120.36-111.01v23.97L96.22-77.35V.68H81.94V-71.57L55.42-61.03,48.79-73.44l57.12-22.95v-14.62Z" transform="translate(6 6082)" fill="#fff46e"/><path d="M-32.779,1.353q-13.53,0-21.4-7.565t-7.872-20.6V-59.286q0-12.792,7.872-20.3t21.4-7.5q13.53,0,21.463,7.5t7.934,20.3v32.472q0,13.038-7.934,20.6T-32.779,1.353Zm0-14.883a11.644,11.644,0,0,0,8.794-3.383,12.479,12.479,0,0,0,3.259-9.04V-59.778a12.479,12.479,0,0,0-3.259-9.04A11.644,11.644,0,0,0-32.779-72.2a11.487,11.487,0,0,0-8.672,3.383,12.479,12.479,0,0,0-3.259,9.04v33.825a12.479,12.479,0,0,0,3.259,9.04A11.487,11.487,0,0,0-32.779-13.53ZM60.331-70.479a31.4,31.4,0,0,1,2.091,12.054V-21.4A20.5,20.5,0,0,1,58.979-9.656a22.173,22.173,0,0,1-9.717,7.872A35.338,35.338,0,0,1,34.87.984,34.15,34.15,0,0,1,20.725-1.783a22.628,22.628,0,0,1-9.594-7.749,19.726,19.726,0,0,1-3.444-11.5v-3.444a1.423,1.423,0,0,1,.43-1.045,1.423,1.423,0,0,1,1.045-.431H23.554a1.423,1.423,0,0,1,1.045.431,1.423,1.423,0,0,1,.431,1.045v1.107A9.073,9.073,0,0,0,27.8-16.605,9.7,9.7,0,0,0,34.87-13.9a10.1,10.1,0,0,0,7.38-2.767,9.467,9.467,0,0,0,2.829-7.073V-35.178a.5.5,0,0,0-.246-.492.4.4,0,0,0-.492.123q-5.043,4.3-13.284,4.305a25.9,25.9,0,0,1-13.222-3.382A23.5,23.5,0,0,1,8.671-44.4,29.808,29.808,0,0,1,5.6-58.548,31.23,31.23,0,0,1,8.056-71.34a24.208,24.208,0,0,1,9.9-11.439,30.115,30.115,0,0,1,16.052-4.182,29.988,29.988,0,0,1,16.3,4.366A24.69,24.69,0,0,1,60.331-70.479ZM34.009-45.756q6.4,0,9.225-5.043a16.351,16.351,0,0,0,1.845-8.241,17.6,17.6,0,0,0-1.6-7.5q-2.706-5.412-9.348-5.412a9.9,9.9,0,0,0-9.348,5.412,16.148,16.148,0,0,0-1.845,7.749,15.338,15.338,0,0,0,2.091,8.118A9.946,9.946,0,0,0,34.009-45.756Z" transform="translate(-735 6083)" fill="#fff"/><path d="M-33.348-22.722v8.652A37.21,37.21,0,0,1-40.4-12.18l1.05,4.788c.462-.21.966-.42,3.192-1.218.882-.294,1.806-.63,2.814-1.008V-1.26a34.9,34.9,0,0,1-.294,4.872h4.956a41.74,41.74,0,0,1-.252-4.872v-10c1.092-.462,1.848-.8,3.024-1.344v1.932A24.005,24.005,0,0,1-21.8-10.92h11v8.484c0,1.05-.252,1.26-1.6,1.26A36.1,36.1,0,0,1-17.3-1.638a12.459,12.459,0,0,1,1.092,4.62c1.3.084,2.856.126,3.57.126,4.872,0,6.216-.84,6.216-3.99V-10.92h.378a29.614,29.614,0,0,1,4.116.252v-4.62a25.344,25.344,0,0,1-4.116.21h-.378v-3.528h.252a35.689,35.689,0,0,1,4.41.252V-22.89a43.069,43.069,0,0,1-4.746.21h-5.67v-4.074h4.536a42.464,42.464,0,0,1,4.41.21v-4.578a31.619,31.619,0,0,1-4.41.252H-12.18v-1.344a17.213,17.213,0,0,1,.21-3.108h-4.872a18.414,18.414,0,0,1,.252,3.15v1.3h-3.528a29.911,29.911,0,0,1-4.326-.252v4.578a41.943,41.943,0,0,1,4.326-.21h3.528v4.074h-4.788c-1.512,0-2.562-.042-3.864-.126v-4.41a17.642,17.642,0,0,1-3.36.252h-.336V-31.92a20.988,20.988,0,0,1,.252-3.444h-4.956a18.137,18.137,0,0,1,.294,3.444v4.956H-35.28l.126-1.722.084-.63a10.2,10.2,0,0,1,.252-2.142l-4.116-.5c.042.5.084.8.084,1.05a38.067,38.067,0,0,1-2.142,12.474,11.632,11.632,0,0,1,3.654,1.89,38.952,38.952,0,0,0,1.512-6.174Zm4.41,0h.672c.672,0,1.218,0,2.142.042v4.326a28.254,28.254,0,0,1,4.746-.252h10.584v3.528H-21.252c-1.848,0-3.066-.042-4.032-.126l-.042-1.848c-1.428.63-1.974.84-3.612,1.47ZM-24.108-8.4a31.629,31.629,0,0,1,5.334,6.888l3.654-2.772a34.348,34.348,0,0,0-5.5-6.426Zm64.89-20.454a19.467,19.467,0,0,1-3.486.21H33.054c.462-1.386.714-2.31,1.05-3.7a17.652,17.652,0,0,1,.546-2.016l-4.536-.966a34.428,34.428,0,0,1-3.486,11.97v-6.384a22.961,22.961,0,0,1,.126-2.814H22.932a24.857,24.857,0,0,1,.126,2.73v4.368H21.126v-6.426a29.486,29.486,0,0,1,.126-2.982H17.22a20.073,20.073,0,0,1,.168,2.982v6.426H15.414V-29.82a23.371,23.371,0,0,1,.084-2.73H12.222l.21-.252-3.78-2.73c-1.3,2.94-4.158,6.006-7.77,8.4a17.359,17.359,0,0,1,2.226,4.074,42.88,42.88,0,0,0,8.148-8.19,2.8,2.8,0,0,0,.5-.714,17.288,17.288,0,0,1,.126,2.142v5.712L8.9-25.7A26,26,0,0,1,.5-15.288,18.25,18.25,0,0,1,2.226-10.71,20.308,20.308,0,0,0,4.914-13.4C4.83-12.1,4.83-11.214,4.83-9.87v8.526A37.712,37.712,0,0,1,4.578,3.57H9.324a34.148,34.148,0,0,1-.21-4.788V-17.892A41.692,41.692,0,0,0,11.8-21.924a1.723,1.723,0,0,1-.042.462c.756-.042,1.89-.084,2.31-.084H25.452c-.462.588-.63.8-1.176,1.428.462.462.588.588.966,1.008-.63.042-1.344.042-2.394.042h-8.9a18.192,18.192,0,0,1-2.9-.168v4.2A22.353,22.353,0,0,1,14.28-15.2h2.478v3.066H14.7a19.783,19.783,0,0,1-3.108-.168V-8.19a21.683,21.683,0,0,1,3.066-.168h2.1v3.99a43.085,43.085,0,0,1-5.88.63h-.42L10.962.8C11.676.63,12.306.5,13.356.336c6.51-1.218,8.652-1.68,11.382-2.436-.84.588-1.3.924-2.646,1.764A20.461,20.461,0,0,1,24.78,3.4a30.556,30.556,0,0,0,7.686-7.77,34.275,34.275,0,0,0,6.342,7.56,27.423,27.423,0,0,1,2.478-4.578,26.631,26.631,0,0,1-6.426-7.14c2.31-5,3.234-9.072,3.57-15.96,1.134.042,1.47.084,2.352.168ZM26.166-6.174c-2.394.546-3.192.714-5.082,1.092V-8.358H22.47c1.428,0,2.394.042,3.4.126v-4.074a25.786,25.786,0,0,1-3.4.168H21.084V-15.2H23.6a16.371,16.371,0,0,1,2.688.168V-17.85c.252.378.336.546.672,1.05.378-.378.462-.5.756-.84a40.119,40.119,0,0,0,2.646,9.156,27.74,27.74,0,0,1-4.2,5.166ZM34.44-24.486a37,37,0,0,1-1.806,11.172,42.992,42.992,0,0,1-2.016-9.072c.336-.672.5-1.092.924-2.1Z" transform="translate(-731 5975)" fill="#fff"/><g transform="translate(-630.803 5982.559)"><g transform="translate(63.737 45.285)"><path d="M357.144,396a1.144,1.144,0,1,0,1.144,1.144A1.144,1.144,0,0,0,357.144,396Z" transform="translate(-356 -396)" fill="#3cbebe"/></g><g transform="translate(26)"><path d="M67.7,41.587l-5.435-1.811-1.951-3.9a12.525,12.525,0,0,0,3.39-6.626l.243-1.459h2.081a3.435,3.435,0,0,0,3.431-3.431v-7.2a17.153,17.153,0,1,0-34.307,0v7.2a3.436,3.436,0,0,0,2.287,3.234v1.34a3.435,3.435,0,0,0,3.431,3.431h1a12.406,12.406,0,0,0,1.918,2.97c.162.186.331.367.5.542l-1.95,3.9-5.435,1.812C30.587,43.694,26,50.347,26,57.406a1.144,1.144,0,0,0,1.144,1.144H77.46A1.144,1.144,0,0,0,78.6,57.406C78.6,50.347,74.017,43.694,67.7,41.587Zm-.529-17.229A1.145,1.145,0,0,1,66.024,25.5H64.279c.291-2.252.484-4.648.562-7.008,0-.067,0-.131.006-.2h2.32ZM38.579,25.5a1.145,1.145,0,0,1-1.144-1.144V18.3h2.321q.006.179.012.36s0,.008,0,.012h0c.08,2.3.271,4.629.555,6.831H38.579Zm2.287,4.574a1.145,1.145,0,0,1-1.144-1.144V27.788h.937l.243,1.459c.046.277.1.554.169.828ZM39.725,16.01H37.479a14.867,14.867,0,0,1,29.645,0H64.879A11.582,11.582,0,0,0,53.325,4.574H51.278A11.582,11.582,0,0,0,39.725,16.01ZM51.278,6.861h2.047a9.3,9.3,0,0,1,9.268,9.31c0,.36,0,.673-.009.958,0,0,0,.007,0,.011l-1.43-.2A18.375,18.375,0,0,1,50.823,11.77a1.144,1.144,0,0,0-.809-.335A10.346,10.346,0,0,0,42.06,15.2,9.3,9.3,0,0,1,51.278,6.861ZM43.444,30.075a65.364,65.364,0,0,1-1.372-11.1l1.539-2.052a8.049,8.049,0,0,1,5.952-3.189A20.684,20.684,0,0,0,60.831,19.2l1.684.241c-.113,2.388-.342,4.785-.672,6.989v0c-.1.709-.187,1.165-.4,2.439a9.713,9.713,0,0,1-6.894,7.812,9,9,0,0,1-10.1-4.32h2.331a3.436,3.436,0,0,0,3.234,2.287H52.3a3.431,3.431,0,1,0,0-6.861H50.015a3.432,3.432,0,0,0-3.236,2.287ZM49.918,39a11.47,11.47,0,0,0,4.253.1L52.151,41.23Zm.661,3.9-3.627,3.836a43.571,43.571,0,0,1-2.56-5.937l1.362-2.724Zm8.077-5.213,1.556,3.111a43.56,43.56,0,0,1-2.561,5.939l-3.882-3.882Zm-9.785-6.46a1.144,1.144,0,0,1,1.144-1.144H52.3a1.144,1.144,0,1,1,0,2.287H50.015A1.145,1.145,0,0,1,48.871,31.219ZM28.333,56.263c.453-5.665,4.223-10.814,9.3-12.506l4.814-1.6a45.841,45.841,0,0,0,3.255,7.06l.006.012h0A45.853,45.853,0,0,0,48.835,54l1.407,2.258ZM52.3,55.243l-1.551-2.49q-.026-.042-.056-.081a43.6,43.6,0,0,1-2.577-3.849L52.2,44.51l4.3,4.3a43.553,43.553,0,0,1-2.586,3.865C53.852,52.747,53.932,52.629,52.3,55.243Zm2.06,1.019L55.768,54a45.837,45.837,0,0,0,3.152-4.818l.017-.03,0,0a45.8,45.8,0,0,0,3.221-7l4.814,1.6c5.074,1.692,8.844,6.841,9.3,12.506H54.361Z" transform="translate(-26)" fill="#3cbebe"/></g><g transform="translate(67.756 47.468)"><path d="M396.217,419.256a11.433,11.433,0,0,0-3.237-3.93,1.144,1.144,0,0,0-1.395,1.813,9.132,9.132,0,0,1,2.586,3.139,1.144,1.144,0,0,0,2.046-1.022Z" transform="translate(-391.139 -415.088)" fill="#3cbebe"/></g></g><g transform="translate(-3799 2022)"><g transform="matrix(1, 0, 0, 1, 3001.95, 3893.5)" filter="url(#a)"><circle cx="73.5" cy="73.5" r="73.5" transform="translate(145.05 22.5)" fill="#fff46e"/></g><g transform="translate(3194 3959)"><path d="M52.293,16.68l0-.048c-.027-.591-.045-1.215-.055-1.91A6.516,6.516,0,0,0,46.1,8.338c-7.069-.394-12.537-2.7-17.209-7.253l-.04-.038a3.934,3.934,0,0,0-5.347,0l-.04.038C18.792,5.639,13.324,7.944,6.255,8.339A6.516,6.516,0,0,0,.12,14.722c-.01.69-.029,1.315-.055,1.91l0,.111c-.137,7.208-.308,16.179,2.693,24.321a30.959,30.959,0,0,0,7.427,11.569,38.855,38.855,0,0,0,14.535,8.6,4.5,4.5,0,0,0,.6.162,4.4,4.4,0,0,0,1.73,0,4.5,4.5,0,0,0,.6-.163,38.879,38.879,0,0,0,14.52-8.6,31,31,0,0,0,7.427-11.572C52.6,32.889,52.43,23.9,52.293,16.68ZM46.2,39.808C43.038,48.39,36.577,54.283,26.45,57.825a.928.928,0,0,1-.114.031.811.811,0,0,1-.317,0,.913.913,0,0,1-.114-.03C15.768,54.29,9.3,48.4,6.14,39.817c-2.766-7.505-2.609-15.74-2.471-23v-.04c.028-.624.047-1.278.057-2a2.9,2.9,0,0,1,2.729-2.834A31.652,31.652,0,0,0,17.2,9.578,28.106,28.106,0,0,0,25.954,3.7a.333.333,0,0,1,.447,0,28.117,28.117,0,0,0,8.755,5.882A31.653,31.653,0,0,0,45.9,11.941a2.9,2.9,0,0,1,2.729,2.835c.011.722.03,1.376.058,2C48.824,24.045,48.977,32.287,46.2,39.808Zm0,0" transform="translate(0 0.001)" fill="#3cbebe"/><path d="M105.72,128.41a15.322,15.322,0,1,0,15.322,15.322A15.339,15.339,0,0,0,105.72,128.41Zm0,27.036a11.714,11.714,0,1,1,11.714-11.714A11.727,11.727,0,0,1,105.72,155.446Zm0,0" transform="translate(-79.544 -112.991)" fill="#3cbebe"/><path d="M165.8,212.52l-7.117,7.117-1.932-1.932a1.8,1.8,0,0,0-2.551,2.551l3.207,3.207a1.8,1.8,0,0,0,2.551,0l8.392-8.392a1.8,1.8,0,0,0-2.551-2.551Zm0,0" transform="translate(-135.22 -186.536)" fill="#3cbebe"/></g></g><path d="M73.95-101.83v88.57h53.21L119.68.68H58.99V-101.83H44.2v-14.11H58.99v-17H73.95v17h56.27l-27.2,63.41-13.6-7.31,18.02-41.99Z" transform="translate(-495 6082)" fill="#fff46e"/><path d="M129.03-5.61,115.43,1.7,88.91-65.11H44.2V-80.07H82.96l-8.33-20.74H44.2v-14.96H68.68L64.6-125.8l13.6-7.31,6.97,17.34H125.8v14.96H91.12l8.16,20.74H125.8v14.96H105.4Z" transform="translate(-387 6082)" fill="#fff46e"/><path d="M108.97-13.09h11.22V.68H49.81V-13.09H94.69V-90.44H54.91v-13.77h54.06Z" transform="translate(-288 6082)" fill="#fff46e"/><path d="M116.79-128.52l13.09,7.14L77.52.68H49.3L41.82-13.6H67.49Zm-42.33.34,12.75,6.8L55.08-46.58,42.5-53.38Z" transform="translate(-190 6082)" fill="#fff46e"/></g></svg>