<svg xmlns="http://www.w3.org/2000/svg" xmlns:xlink="http://www.w3.org/1999/xlink" width="461.365" height="377.023" viewBox="0 0 461.365 377.023"><defs><clipPath id="a"><rect width="112.752" height="65.096" transform="translate(146.37 285.7)" fill="none"/></clipPath><clipPath id="b"><rect width="58.75" height="36.489" transform="translate(146.37 316.876)" fill="none"/></clipPath><clipPath id="c"><rect width="69.834" height="243.334" transform="translate(50.975 158.156)" fill="none"/></clipPath><clipPath id="d"><rect width="142.456" height="82.248" transform="translate(52.255 115.372)" fill="none"/></clipPath><clipPath id="e"><rect width="2.176" height="2.832" transform="translate(177.363 302.315)" fill="none"/></clipPath><clipPath id="f"><rect width="3.068" height="1.462" transform="translate(175.309 304.742)" fill="none"/></clipPath><clipPath id="g"><rect width="2.826" height="2.051" transform="translate(174.114 306.685)" fill="none"/></clipPath><clipPath id="h"><rect width="2.822" height="2.511" transform="translate(174.109 312.654)" fill="none"/></clipPath><clipPath id="i"><rect width="1.544" height="1.517" transform="translate(178 313.955)" fill="none"/></clipPath><clipPath id="j"><rect width="2.929" height="2.794" transform="translate(180.715 301.11)" fill="none"/></clipPath><clipPath id="k"><rect width="3.394" height="2.213" transform="translate(173.142 308.888)" fill="none"/></clipPath><clipPath id="l"><rect width="0.893" height="0.718" transform="translate(174.392 327.003)" fill="none"/></clipPath><clipPath id="m"><rect width="1.612" height="1.685" transform="translate(170.982 327.272)" fill="none"/></clipPath><clipPath id="n"><rect width="2.624" height="2.159" transform="translate(168.831 325.006)" fill="none"/></clipPath><clipPath id="o"><rect width="1.737" height="1.472" transform="translate(169.741 324.522)" fill="none"/></clipPath><clipPath id="p"><rect width="2.77" height="1.336" transform="translate(169.247 322.149)" fill="none"/></clipPath><clipPath id="q"><rect width="1.989" height="2.063" transform="translate(170.603 320.135)" fill="none"/></clipPath><clipPath id="r"><rect width="2.305" height="2.402" transform="translate(173.014 317.888)" fill="none"/></clipPath><clipPath id="s"><rect width="14.157" height="26.298" transform="translate(170.892 334.513)" fill="none"/></clipPath><clipPath id="t"><rect width="25.83" height="13.562" transform="translate(183.955 342.648)" fill="none"/></clipPath><clipPath id="u"><rect width="8.217" height="111.57" transform="translate(106.432 200.537)" fill="none"/></clipPath><clipPath id="v"><rect width="8.217" height="111.569" transform="translate(94.107 193.422)" fill="none"/></clipPath><clipPath id="w"><rect width="8.217" height="111.569" transform="translate(81.782 186.307)" fill="none"/></clipPath><clipPath id="x"><rect width="8.217" height="111.57" transform="translate(69.457 179.191)" fill="none"/></clipPath><clipPath id="y"><rect width="8.217" height="111.57" transform="translate(57.133 172.076)" fill="none"/></clipPath><clipPath id="z"><rect width="4.519" height="5.655" transform="translate(58.954 320.478)" fill="none"/></clipPath><clipPath id="aa"><rect width="4.519" height="5.656" transform="translate(58.954 297.81)" fill="none"/></clipPath><clipPath id="ab"><rect width="4.044" height="5.222" transform="translate(137.66 306.147)" fill="none"/></clipPath><clipPath id="ac"><rect width="4.045" height="5.222" transform="translate(128.881 311.213)" fill="none"/></clipPath><clipPath id="ae"><rect width="4.519" height="5.655" transform="translate(58.954 343.275)" fill="none"/></clipPath><clipPath id="ag"><rect width="110.01" height="62.456" transform="translate(67.846 126.917)" fill="none"/></clipPath><clipPath id="ah"><rect width="106.812" height="65.523" transform="translate(69.444 122.159)" fill="none"/></clipPath><clipPath id="aj"><rect width="105.273" height="59.767" transform="translate(70.214 123.171)" fill="none"/></clipPath><clipPath id="ak"><rect width="53.41" height="35.721" transform="translate(122.848 151.958)" fill="none"/></clipPath><clipPath id="al"><rect width="45.825" height="19.332" transform="translate(132.394 412.601)" fill="none"/></clipPath><clipPath id="am"><rect width="3.64" height="5.517" transform="translate(136.851 403.821)" fill="none"/></clipPath><clipPath id="an"><rect width="19.792" height="9.226" transform="translate(145.416 405.963)" fill="none"/></clipPath><clipPath id="ao"><rect width="3.641" height="5.528" transform="translate(170.135 403.81)" fill="none"/></clipPath><clipPath id="ap"><rect width="6.263" height="7.831" transform="translate(171.956 413.216)" fill="none"/></clipPath><clipPath id="aq"><rect width="5.053" height="9.138" transform="translate(164.008 420.234)" fill="none"/></clipPath><clipPath id="ar"><rect width="0.686" height="10.141" transform="translate(158.892 421.416)" fill="none"/></clipPath><clipPath id="as"><rect width="0.686" height="10.202" transform="translate(151.047 421.418)" fill="none"/></clipPath><clipPath id="at"><rect width="5.053" height="9.136" transform="translate(141.565 420.234)" fill="none"/></clipPath><clipPath id="au"><rect width="6.277" height="8.443" transform="translate(132.394 412.601)" fill="none"/></clipPath><clipPath id="av"><rect width="33.945" height="25.789" transform="translate(179.222 378.697)" fill="none"/></clipPath><clipPath id="aw"><rect width="1.126" height="3.194" transform="translate(187.175 380.025)" fill="none"/></clipPath><clipPath id="ax"><rect width="4.186" height="6.267" transform="translate(179.224 385.964)" fill="none"/></clipPath><clipPath id="ay"><rect width="4.406" height="6.873" transform="translate(181.317 393.038)" fill="none"/></clipPath><clipPath id="az"><rect width="2.593" height="6.913" transform="translate(185.723 393.04)" fill="none"/></clipPath><clipPath id="ba"><rect width="2.574" height="8.533" transform="translate(191.892 395.941)" fill="none"/></clipPath><clipPath id="bb"><rect width="3.335" height="6.245" transform="translate(194.466 395.876)" fill="none"/></clipPath><clipPath id="bc"><rect width="2.619" height="8.536" transform="translate(197.801 395.916)" fill="none"/></clipPath><clipPath id="bd"><rect width="4.795" height="7.439" transform="translate(200.42 397.046)" fill="none"/></clipPath><clipPath id="be"><rect width="2.499" height="6.914" transform="translate(204.095 393.048)" fill="none"/></clipPath><clipPath id="bf"><rect width="2.039" height="8.824" transform="translate(211.127 391.056)" fill="none"/></clipPath><clipPath id="bg"><rect width="13.763" height="14.941" transform="translate(254.747 402.603)" fill="none"/></clipPath><clipPath id="bh"><rect width="6.416" height="9.786" transform="translate(254.747 407.757)" fill="none"/></clipPath><clipPath id="bi"><rect width="10.835" height="13.991" transform="translate(247.524 408.463)" fill="none"/></clipPath><clipPath id="bj"><rect width="2.614" height="4.742" transform="translate(250.83 416.459)" fill="none"/></clipPath><clipPath id="bk"><rect width="21.438" height="13.64" transform="translate(268.831 393.272)" fill="none"/></clipPath><clipPath id="bl"><rect width="21.874" height="13.045" transform="translate(265.284 389.601)" fill="none"/></clipPath><clipPath id="bm"><rect width="21.089" height="13.856" transform="translate(270.777 398.03)" fill="none"/></clipPath><clipPath id="bn"><rect width="36.975" height="17.125" transform="translate(384.477 140.333)" fill="none"/></clipPath><clipPath id="bo"><rect width="36.981" height="15.785" transform="translate(384.477 141.673)" fill="none"/></clipPath><clipPath id="bp"><rect width="2.356" height="4.182" transform="translate(405.939 139.621)" fill="none"/></clipPath><clipPath id="bq"><rect width="26.825" height="31.806" transform="translate(397.272 389.05)" fill="none"/></clipPath><clipPath id="br"><rect width="39.732" height="26.231" transform="translate(343.447 379.815)" fill="none"/></clipPath></defs><g transform="translate(-19.317 -113.87)"><path d="M86.883,458.056C-3.2,414.273-3.2,343.289,86.882,299.507s236.147-43.782,326.235,0,90.088,114.766,0,158.549-236.147,43.781-326.234,0" fill="#f5f5f5"/><path d="M152.141,433.484a2.04,2.04,0,0,1-1.976-1.636l-.459-2.414a27.529,27.529,0,0,1-3.063-.751c-.006,0-.064,0-.077,0l-4.256,1.972a2.367,2.367,0,0,1-.993.208,2.439,2.439,0,0,1-1.208-.307l-4.242-2.449a1.685,1.685,0,0,1-.145-2.878l2.566-1.845a9.594,9.594,0,0,1-.639-.966l-5.4-.342a1.938,1.938,0,0,1-1.815-1.932v-3.153a1.94,1.94,0,0,1,1.816-1.933l5.4-.343a9.413,9.413,0,0,1,.639-.965l-2.566-1.847a1.684,1.684,0,0,1,.145-2.877l4.241-2.448a2.448,2.448,0,0,1,1.209-.308,2.382,2.382,0,0,1,.993.208l4.258,1.973a.365.365,0,0,0,.054,0c.013,0,0,.006-.017.01a26.5,26.5,0,0,1,3.1-.763l.459-2.413a2.041,2.041,0,0,1,1.977-1.638h6.236a2.039,2.039,0,0,1,1.977,1.637l.458,2.414a26.705,26.705,0,0,1,3.065.751l.075,0,4.257-1.973a2.379,2.379,0,0,1,.993-.208,2.451,2.451,0,0,1,1.209.308l4.242,2.448a1.684,1.684,0,0,1,.144,2.877l-2.566,1.846a9.535,9.535,0,0,1,.639.966l5.4.343a1.942,1.942,0,0,1,1.815,1.93v3.156a1.938,1.938,0,0,1-1.815,1.932l-5.4.343a9.522,9.522,0,0,1-.639.965l2.565,1.846a1.683,1.683,0,0,1-.143,2.876l-4.242,2.45a2.446,2.446,0,0,1-1.209.307,2.363,2.363,0,0,1-.993-.208l-4.256-1.972a.412.412,0,0,0-.057,0c-.014,0,0-.006.016-.01a27.051,27.051,0,0,1-3.1.763l-.458,2.414a2.04,2.04,0,0,1-1.977,1.636Zm3.119-19.393a13.178,13.178,0,0,0-6.479,1.53c-1.45.837-2.282,1.911-2.282,2.947s.832,2.112,2.282,2.949a14.483,14.483,0,0,0,12.958,0c1.45-.837,2.282-1.912,2.282-2.949s-.832-2.11-2.282-2.948a13.192,13.192,0,0,0-6.479-1.529" fill="#e6e6e6"/><path d="M200.636,405.594a2.283,2.283,0,0,1-1.6-.7l-1.693-1.781c-.417.021-.837.033-1.25.033s-.825-.012-1.232-.032l-1.8,1.893a2.006,2.006,0,0,1-1.461.577,2.246,2.246,0,0,1-.539-.064l-4.2-1a1.818,1.818,0,0,1-1.24-.98,1.579,1.579,0,0,1,.021-1.37l.668-1.321c-.358-.2-.7-.411-1.024-.634l-3.969.668a1.808,1.808,0,0,1-.3.026,2.159,2.159,0,0,1-1.7-.887l-1.587-2.209a1.852,1.852,0,0,1-.347-1.023,1.626,1.626,0,0,1,1.144-1.574l3.05-.966v-.14l-2.956-.938a1.723,1.723,0,0,1-1.26-1.505l0-.052v-.051a1.563,1.563,0,0,1,.3-.924l1.734-2.416a1.976,1.976,0,0,1,1.621-.769,2.235,2.235,0,0,1,.358.029l3.907.657c.281-.192.587-.383.9-.564l.121-.068-.617-1.224a1.73,1.73,0,0,1-.192-.7l-.016-.205.026-.111a1.648,1.648,0,0,1,1.25-1.407l4.4-1.049a1.774,1.774,0,0,1,.424-.049,2.275,2.275,0,0,1,1.6.7l1.691,1.779c.426-.023.856-.035,1.279-.035.4,0,.807.011,1.2.031l1.8-1.888a2.006,2.006,0,0,1,1.465-.58,2.243,2.243,0,0,1,.534.063l4.206,1.005a1.721,1.721,0,0,1,1.384,1.626,1.55,1.55,0,0,1-.151.69l-.682,1.352.138.078q.474.274.883.554l3.975-.665a1.7,1.7,0,0,1,.3-.026,2.164,2.164,0,0,1,1.692.877l1.594,2.222a1.762,1.762,0,0,1,.344.992l.013.176-.031.127a1.606,1.606,0,0,1-1.1,1.293l-3.073.973v.139l2.956.936a1.712,1.712,0,0,1,.961,2.526c-.509.784-1.1,1.531-1.642,2.292l-.092.129a1.988,1.988,0,0,1-1.621.77,2.261,2.261,0,0,1-.369-.031l-3.9-.655q-.489.334-1.029.633l.619,1.226a1.72,1.72,0,0,1,.035,1.516,1.642,1.642,0,0,1-1.13.908l-4.369,1.046a1.829,1.829,0,0,1-.419.049m-10.6-10.62a3.22,3.22,0,0,0,.823.841,4.765,4.765,0,0,0,.508.33,8.009,8.009,0,0,0,2.112.806,11.374,11.374,0,0,0,2.624.3,9.886,9.886,0,0,0,4.733-1.1,4.652,4.652,0,0,0,.51-.332,3.367,3.367,0,0,0,.758-.74,1.36,1.36,0,0,0,.13-1.6s-.059-.1-.077-.126c-.033-.049-.065-.1-.1-.145s-.074-.092-.108-.132l-.036-.033-.029-.036-.034-.036a6.5,6.5,0,0,0-3.115-1.566,11.251,11.251,0,0,0-2.623-.3c-2.616,0-5.083.893-6,2.173a1.335,1.335,0,0,0-.233,1.378l.048.116.111.191Z" fill="#e6e6e6"/><path d="M257.816,424.327,293.7,403.613a1.172,1.172,0,0,0,0-2.222l-8.791-5.076a4.246,4.246,0,0,0-3.849,0l-35.881,20.714a1.173,1.173,0,0,0,0,2.223l4.4,2.538-45.027,26c-1.063.614-.618.823-.119,1.111s.863.545,1.926-.069l45.026-25.995,2.59,1.494a4.254,4.254,0,0,0,3.85,0" fill="#e6e6e6"/><path d="M244.288,384.573a16.137,16.137,0,0,1-8.039-1.952c-.251-.147-.484-.3-.715-.46l-1.328-.933,11.29-1.654,1.021-2.135-3.045-1.786-10.764,1.572.356-1.008a6.957,6.957,0,0,1,3.306-3.553,16.241,16.241,0,0,1,7.9-1.879,18.8,18.8,0,0,1,3.617.344l36.81-21.253a4.382,4.382,0,0,1-.3-2.962,6.616,6.616,0,0,1,3.418-3.951,17.557,17.557,0,0,1,15.95.072c.256.15.489.3.716.46l1.328.933-11.289,1.654-1.023,2.136L296.54,350l10.764-1.572-.357,1.009a6.958,6.958,0,0,1-3.3,3.553,16.26,16.26,0,0,1-7.9,1.879,18.775,18.775,0,0,1-3.614-.345l-36.812,21.252a4.385,4.385,0,0,1,.3,2.963,6.607,6.607,0,0,1-3.418,3.951,16.267,16.267,0,0,1-7.911,1.88" fill="#e6e6e6"/><path d="M427.355,377.664c22.274,12.86,22.274,33.709,0,46.569s-58.385,12.86-80.66,0-22.273-33.709,0-46.569,58.386-12.86,80.66,0" fill="#e6e6e6"/><path d="M143.069,320.2l62.057,35.828L263.013,322.5l-62.06-35.827Z" fill="#e6e6e6"/><path d="M119.513,407l83.674-48.309-73.215-42.271L46.3,364.731Z" fill="#e6e6e6"/><path d="M205.12,353.365l-58.75-33.92v-2.57l54-31.175,58.753,33.918v2.569Z" fill="#27debf"/><path d="M146.37,316.876l58.75,33.92,54-31.179L200.369,285.7Z" fill="#27debf"/><g opacity="0.15"><g clip-path="url(#a)"><path d="M146.37,316.876l58.75,33.92,54-31.179L200.369,285.7Z"/></g></g><path d="M219.682,331.032a4.343,4.343,0,0,0,3.934,0,1.2,1.2,0,0,0,0-2.27,4.349,4.349,0,0,0-3.934,0,1.2,1.2,0,0,0,0,2.27" fill="#37474f"/><g opacity="0.3"><g clip-path="url(#b)"><path d="M205.12,350.795v2.57l-58.75-33.92v-2.57Z"/></g></g><path d="M128.344,115.9l65.46,37.793a4.84,4.84,0,0,1,2.19,3.792V356.293a4.839,4.839,0,0,1-2.19,3.792L123,400.964a4.834,4.834,0,0,1-4.379,0L53.162,363.171a4.84,4.84,0,0,1-2.19-3.792V160.567a4.84,4.84,0,0,1,2.19-3.792l70.8-40.879a4.84,4.84,0,0,1,4.379,0" fill="#27debf"/><path d="M50.975,160.564V359.378a4.849,4.849,0,0,0,2.185,3.792l65.464,37.795a4.4,4.4,0,0,0,2.185.525V197.62a4.526,4.526,0,0,1-2.185-.526L53.16,159.3l-.6-.495-.779-.647a4.528,4.528,0,0,0-.809,2.407" fill="#27debf"/><g opacity="0.3"><g clip-path="url(#c)"><path d="M50.975,160.564V359.378a4.849,4.849,0,0,0,2.185,3.792l65.464,37.795a4.4,4.4,0,0,0,2.185.525V197.62a4.526,4.526,0,0,1-2.185-.526L53.16,159.3l-.6-.495-.779-.647a4.528,4.528,0,0,0-.809,2.407"/></g></g><path d="M53.162,156.775l70.8-40.879a4.843,4.843,0,0,1,4.38,0L193.8,153.689a1.334,1.334,0,0,1,0,2.528L123,197.1a4.834,4.834,0,0,1-4.379,0L53.162,159.3a1.334,1.334,0,0,1,0-2.528" fill="#27debf"/><g opacity="0.15"><g clip-path="url(#d)"><path d="M53.162,156.775l70.8-40.879a4.843,4.843,0,0,1,4.38,0L193.8,153.689a1.334,1.334,0,0,1,0,2.528L123,197.1a4.834,4.834,0,0,1-4.379,0L53.162,159.3a1.334,1.334,0,0,1,0-2.528"/></g></g><path d="M188.126,291.615l-58.751,33.92v62.355l58.751-33.924Z" fill="#455a64"/><path d="M159.256,336.162a.6.6,0,0,0-.606.062l-23.9,13.748a1.756,1.756,0,0,0-.6.636l-1.607-.925a1.776,1.776,0,0,1,.607-.64l23.4-13.457a1.9,1.9,0,0,1,1.715,0Z" fill="#263238"/><path d="M133.89,351.458l0,26.776c0,.547.385.769.859.495l23.9-13.746a1.9,1.9,0,0,0,.858-1.485v-26.78c0-.547-.384-.768-.858-.495l-23.9,13.75a1.892,1.892,0,0,0-.857,1.485" fill="#37474f"/><path d="M134.121,378.776l-.978-.564a1.891,1.891,0,0,1-.857-1.484v-26.2a1.756,1.756,0,0,1,.251-.845l1.606.927a1.732,1.732,0,0,0-.253.849l0,26.776a.623.623,0,0,0,.227.542" fill="#263238"/><path d="M135.8,376.321a.408.408,0,0,1-.2-.052.5.5,0,0,1-.222-.46l-.005-23.786a1.319,1.319,0,0,1,.606-1.048l21.313-12.257a.453.453,0,0,1,.73.423v23.791a1.321,1.321,0,0,1-.606,1.049l-21.307,12.25a.621.621,0,0,1-.3.09M157.6,338.877a.383.383,0,0,0-.181.058L136.1,351.191a1.086,1.086,0,0,0-.481.832l.006,23.786a.272.272,0,0,0,.1.243.279.279,0,0,0,.259-.038h0l21.307-12.25a1.081,1.081,0,0,0,.48-.832V339.141a.271.271,0,0,0-.1-.244.157.157,0,0,0-.079-.02" fill="#27debf"/><path d="M137.478,373.2a.231.231,0,0,1-.122-.033.281.281,0,0,1-.129-.256V352.724a.721.721,0,0,1,.292-.506l18.212-10.491a.282.282,0,0,1,.287-.017.285.285,0,0,1,.129.257l-.027,20.226a.623.623,0,0,1-.291.5l-18.185,10.451a.348.348,0,0,1-.165.047m.007-.247h0Zm18.4-31.021s-.016.005-.035.016l-18.213,10.493a.51.51,0,0,0-.165.288v20.182a.111.111,0,0,0,.006.04.342.342,0,0,0,.036-.016L155.7,362.481a.386.386,0,0,0,.166-.288h0l.026-20.225a.121.121,0,0,0-.005-.04" fill="#27debf"/><path d="M138.71,346.886a.241.241,0,0,1-.242-.241v-5.7a.242.242,0,1,1,.484,0v5.7a.242.242,0,0,1-.242.241" fill="#27debf"/><path d="M142.7,344.6a.243.243,0,0,1-.242-.243v-5.7a.242.242,0,0,1,.484,0v5.7a.243.243,0,0,1-.242.243" fill="#27debf"/><path d="M146.686,342.315a.243.243,0,0,1-.242-.242v-5.7a.242.242,0,1,1,.484,0v5.7a.243.243,0,0,1-.242.242" fill="#27debf"/><path d="M150.674,340.029a.243.243,0,0,1-.242-.242v-5.7a.242.242,0,0,1,.484,0v5.7a.242.242,0,0,1-.242.242" fill="#27debf"/><path d="M154.662,337.744a.242.242,0,0,1-.242-.241v-5.7a.242.242,0,0,1,.484,0v5.7a.242.242,0,0,1-.242.241" fill="#27debf"/><path d="M159.256,315.1a.6.6,0,0,0-.606.06l-23.9,13.748a1.762,1.762,0,0,0-.6.638l-1.607-.927a1.773,1.773,0,0,1,.607-.639l23.4-13.457a1.9,1.9,0,0,1,1.715,0Z" fill="#263238"/><path d="M133.89,330.394l0,13.5c0,.547.385.769.859.5l23.9-13.746a1.9,1.9,0,0,0,.858-1.486v-13.5c0-.547-.384-.768-.858-.495l-23.9,13.749a1.9,1.9,0,0,0-.857,1.486" fill="#37474f"/><path d="M134.121,344.436l-.978-.564a1.89,1.89,0,0,1-.857-1.484V329.463a1.756,1.756,0,0,1,.251-.845l1.606.927a1.735,1.735,0,0,0-.253.849l0,13.5a.621.621,0,0,0,.227.541" fill="#263238"/><path d="M135.8,341.981a.4.4,0,0,1-.2-.052.5.5,0,0,1-.222-.46l-.005-10.509a1.322,1.322,0,0,1,.606-1.05l21.313-12.257a.453.453,0,0,1,.73.423v10.516a1.324,1.324,0,0,1-.606,1.05l-21.307,12.249a.621.621,0,0,1-.3.09M157.6,317.814a.378.378,0,0,0-.181.056L136.1,330.128a1.08,1.08,0,0,0-.481.832l.006,10.509a.27.27,0,0,0,.1.243.276.276,0,0,0,.259-.038h0l21.307-12.25a1.078,1.078,0,0,0,.48-.832V318.076a.271.271,0,0,0-.1-.244.156.156,0,0,0-.079-.018" fill="#27debf"/><path d="M137.478,338.856a.232.232,0,0,1-.122-.034.281.281,0,0,1-.129-.256v-6.907a.719.719,0,0,1,.292-.505l18.212-10.492a.286.286,0,0,1,.287-.015.281.281,0,0,1,.129.256l-.027,6.952a.624.624,0,0,1-.291.5l-18.185,10.45a.339.339,0,0,1-.165.048m.007-.247h0Zm18.4-17.746a.207.207,0,0,0-.035.016l-18.213,10.492a.513.513,0,0,0-.165.288v6.907a.1.1,0,0,0,.006.04.14.14,0,0,0,.036-.016L155.7,328.141a.384.384,0,0,0,.166-.287l.026-6.952a.113.113,0,0,0-.005-.039" fill="#27debf"/><path d="M164.085,312.354a3.122,3.122,0,0,0-1.411,2.443c0,.9.633,1.264,1.411.814a3.119,3.119,0,0,0,1.412-2.443c0-.9-.633-1.264-1.412-.814" fill="#27debf"/><path d="M164.085,336.353a3.122,3.122,0,0,0-1.411,2.443c0,.9.633,1.265,1.411.813a3.117,3.117,0,0,0,1.412-2.443c0-.9-.633-1.264-1.412-.813" fill="#27debf"/><path d="M164.085,342.808a3.12,3.12,0,0,0-1.411,2.443c0,.9.633,1.264,1.411.814a3.12,3.12,0,0,0,1.412-2.443c0-.9-.633-1.265-1.412-.814" fill="#27debf"/><path d="M164.085,349.262a3.122,3.122,0,0,0-1.411,2.443c0,.9.633,1.264,1.411.815a3.119,3.119,0,0,0,1.412-2.444c0-.9-.633-1.263-1.412-.814" fill="#27debf"/><path d="M164.085,355.717a3.12,3.12,0,0,0-1.411,2.443c0,.9.633,1.264,1.411.814a3.119,3.119,0,0,0,1.412-2.443c0-.9-.633-1.264-1.412-.814" fill="#27debf"/><path d="M164.085,318.185a3.119,3.119,0,0,0-1.411,2.442c0,.9.633,1.264,1.411.814A3.117,3.117,0,0,0,165.5,319c0-.9-.633-1.264-1.412-.813" fill="#27debf"/><path d="M164.085,324.015a3.119,3.119,0,0,0-1.411,2.442c0,.9.633,1.265,1.411.815a3.119,3.119,0,0,0,1.412-2.444c0-.9-.633-1.263-1.412-.813" fill="#27debf"/><path d="M179.516,315.4l-.135-1.311a.14.14,0,0,0-.181-.125,2.829,2.829,0,0,1-.646.064.334.334,0,0,0-.266.13l-.288.434,1.544.883a.121.121,0,0,1-.028-.075m1.116-9.177c.009.1.013.2.013.311a5.033,5.033,0,0,1-2.278,3.951,2.762,2.762,0,0,1-.278.145c.139,1.223,1.1,1.674,2.263,1a5.027,5.027,0,0,0,2.279-3.947c0-1.348-.87-1.953-2-1.46m4.942-1.158-1.558-.9-.228.465a.343.343,0,0,0,.019.293,2.641,2.641,0,0,1,.269.6.144.144,0,0,0,.2.092l1.2-.534a.146.146,0,0,1,.1-.01Zm-3.041-3.426-.87-.5v-.005a.135.135,0,0,0-.06,0,.214.214,0,0,0-.056-.011h-.014a.313.313,0,0,0-.042.02c-.013.009-.022.022-.037.032s-.018.01-.027.024l-.712,1.069-.9-.522-.019-.008-.646-.377h-.005a.1.1,0,0,0-.041-.009.405.405,0,0,0-.066.018l-.929.539-.419.243a.215.215,0,0,0-.056.041l-.041.055a.088.088,0,0,0-.019.034.149.149,0,0,0-.023.037l0,.005a.321.321,0,0,0-.027.079l-.135,1.5a.185.185,0,0,1-.014.051.127.127,0,0,1-.014.052.5.5,0,0,1-.112.181,7.7,7.7,0,0,0-.753.8.234.234,0,0,1-.112.07.3.3,0,0,1-.153.005l-.865-.3c-.018-.01-.042,0-.065,0l-.018-.01a.07.07,0,0,0-.033.01.032.032,0,0,1-.018.005c-.005,0-.01.005-.015.009a.332.332,0,0,0-.05.028.122.122,0,0,0-.042.046l-.41.707-.432.749-.153.265a.21.21,0,0,0-.023.13.232.232,0,0,0,.065.125l.7.6a.227.227,0,0,1,.051.074.2.2,0,0,1,.028.1.184.184,0,0,1-.009.088,8.121,8.121,0,0,0-.317,1.046.481.481,0,0,1-.078.167.414.414,0,0,1-.094.1l-1.232.866a.306.306,0,0,0-.083.1.322.322,0,0,0-.056.162v1.563a.115.115,0,0,0,.047.1l1.566.907-.572,1.149a.179.179,0,0,0,.07.232l1.9,1.1.084.052a.189.189,0,0,1-.069-.075.18.18,0,0,1,0-.163l.8-1.614a.158.158,0,0,0,.019-.069.333.333,0,0,0-.038-.224,2.776,2.776,0,0,1-.264-.594.144.144,0,0,0-.2-.093l-.609.274-.6.27a.1.1,0,0,1-.1,0,.114.114,0,0,1-.051-.1v-1.557a.317.317,0,0,1,.051-.162.281.281,0,0,1,.089-.1l1.232-.869a.385.385,0,0,0,.092-.1.423.423,0,0,0,.08-.162,8.91,8.91,0,0,1,.311-1.047.284.284,0,0,0,.014-.088.251.251,0,0,0-.079-.18l-.7-.6a.2.2,0,0,1-.065-.121.23.23,0,0,1,.024-.136l.284-.487.348-.609.358-.623a.21.21,0,0,1,.153-.093.165.165,0,0,1,.094.005l.864.3a.232.232,0,0,0,.154,0,.241.241,0,0,0,.111-.073,8.144,8.144,0,0,1,.753-.8.409.409,0,0,0,.107-.176.334.334,0,0,0,.033-.1l.135-1.5a.257.257,0,0,1,.023-.084.34.34,0,0,1,.14-.172l.255-.149.539-.311.554-.316a.117.117,0,0,1,.1-.014l.01.005a.1.1,0,0,1,.055.093l.07.687.061.623a.142.142,0,0,0,.181.125,2.757,2.757,0,0,1,.651-.064.286.286,0,0,0,.186-.061.224.224,0,0,0,.074-.069l1-1.5a.172.172,0,0,1,.232-.056Z" fill="#263238"/><g opacity="0.1"><g clip-path="url(#e)"><path d="M179.539,303.458a.263.263,0,0,0-.023.084l-.135,1.5a.37.37,0,0,1-.032.1L177.368,304h0c0-.019.014-.033.019-.052a.185.185,0,0,0,.014-.051l.135-1.5a.278.278,0,0,1,.028-.079Z"/></g></g><g opacity="0.15"><g clip-path="url(#f)"><path d="M178.377,306.191a.23.23,0,0,1-.153,0l-.865-.3a.154.154,0,0,0-.093-.005l-1.957-1.139c.023,0,.046-.009.065,0l.864.3a.289.289,0,0,0,.154,0Z"/></g></g><g opacity="0.15"><g clip-path="url(#g)"><path d="M176.94,308.735l-1.984-1.148-.011-.005a.639.639,0,0,0-.018-.1.208.208,0,0,0-.051-.075l-.7-.6a.239.239,0,0,1-.065-.125l1.986,1.148a.189.189,0,0,0,.065.121l.7.6a.248.248,0,0,1,.079.181"/></g></g><g opacity="0.15"><g clip-path="url(#h)"><path d="M176.931,313.291a.166.166,0,0,1-.019.07l-.8,1.613a.18.18,0,0,0,0,.163l-.015.023,0,.005-1.9-1.1a.181.181,0,0,1-.07-.233l.572-1.149.419.242h0a.1.1,0,0,0,.1,0l.6-.27Z"/></g></g><g opacity="0.15"><g clip-path="url(#i)"><path d="M179.516,315.4a.121.121,0,0,0,.028.074L178,314.588l.288-.432a.335.335,0,0,1,.266-.131,2.832,2.832,0,0,0,.646-.065.141.141,0,0,1,.181.126Z"/></g></g><g opacity="0.1"><g clip-path="url(#j)"><path d="M183.644,302.277a.171.171,0,0,0-.231.056l-1,1.5a.206.206,0,0,1-.076.07l-.557-.321-.521-.3-.07-.687a.1.1,0,0,0-.056-.094l-.009-.005c-.027-.009-.409-.237-.409-.237l.711-1.068c.01-.014.019-.024.029-.024s.022-.023.037-.033a.158.158,0,0,1,.042-.019h.013a.179.179,0,0,1,.117.015l.87.507Z"/></g></g><g opacity="0.15"><g clip-path="url(#k)"><path d="M176.536,310.032a.369.369,0,0,1-.094.1L175.21,311a.276.276,0,0,0-.087.1l-1.981-1.149a.286.286,0,0,1,.084-.1l1.231-.865a.483.483,0,0,0,.094-.1Z"/></g></g><path d="M185.477,305.067l-1.2.544a.143.143,0,0,1-.2-.093,2.664,2.664,0,0,0-.269-.6.336.336,0,0,1-.019-.293l.8-1.613a.182.182,0,0,0-.069-.238l-.871-.5a.175.175,0,0,0-.235.056l-1,1.5a.32.32,0,0,1-.262.13,2.658,2.658,0,0,0-.651.065.145.145,0,0,1-.181-.126l-.13-1.311a.1.1,0,0,0-.163-.083l-1.347.776a.364.364,0,0,0-.162.256l-.136,1.5a.512.512,0,0,1-.139.278,8.393,8.393,0,0,0-.754.8.253.253,0,0,1-.264.074l-.866-.3a.213.213,0,0,0-.246.088l-.989,1.72a.212.212,0,0,0,.041.256l.7.6a.259.259,0,0,1,.065.269,8.717,8.717,0,0,0-.312,1.046.477.477,0,0,1-.172.261L175.21,311a.35.35,0,0,0-.139.265v1.558a.1.1,0,0,0,.154.1l1.2-.544a.142.142,0,0,1,.2.093,2.81,2.81,0,0,0,.266.6.329.329,0,0,1,.019.293l-.8,1.613a.184.184,0,0,0,.071.237l.868.5a.187.187,0,0,0,.242-.055l1-1.5a.331.331,0,0,1,.265-.131,2.827,2.827,0,0,0,.646-.065.141.141,0,0,1,.181.126l.136,1.312a.1.1,0,0,0,.162.083l1.347-.781a.369.369,0,0,0,.163-.251l.136-1.5a.465.465,0,0,1,.138-.279,8.338,8.338,0,0,0,.749-.8.257.257,0,0,1,.265-.074l.87.3a.209.209,0,0,0,.241-.093l.992-1.715a.216.216,0,0,0-.042-.256l-.693-.6a.257.257,0,0,1-.071-.27,8.031,8.031,0,0,0,.311-1.047.535.535,0,0,1,.173-.26l1.237-.87a.361.361,0,0,0,.134-.264v-1.558a.1.1,0,0,0-.152-.1m-5.125,6.56c-1.26.729-2.283.139-2.283-1.316a5.049,5.049,0,0,1,2.283-3.952c1.26-.725,2.278-.134,2.278,1.321a5.029,5.029,0,0,1-2.278,3.947" fill="#37474f"/><path d="M176.193,318.622c-.015-.011-.036-.02-.064-.037l-.043-.026c-.009,0-.015-.005-.026-.011-.09-.054-.2-.112-.315-.177-.331-.192-.711-.412-.914-.533-.011,0-.017-.007-.027-.018-.033-.015-.058-.032-.08-.043l-.012-.009H174.7l-.012-.011s-.009-.006-.009-.006a.188.188,0,0,0-.086-.016l-.85.085a.153.153,0,0,0-.048.011.108.108,0,0,1-.028.011.342.342,0,0,1-.031.021l-.033.028c-.01.005-.015.015-.022.02a.3.3,0,0,0-.021.037l-.46,1.236a.291.291,0,0,1-.073.1.384.384,0,0,1-.114.08c-.089.042-.182.091-.272.145l-.887-.514a.062.062,0,0,0-.043-.01.144.144,0,0,0-.1.047l-.658.7-.273.283a.193.193,0,0,0-.037.053c-.01.022-.022.042-.031.065a.19.19,0,0,0-.012.053.063.063,0,0,0,.006.032l.261.882a.2.2,0,0,1,0,.112.364.364,0,0,1-.043.1,6.4,6.4,0,0,0-.429.743.277.277,0,0,1-.1.1.285.285,0,0,1-.107.054l-.8.193a.143.143,0,0,0-.058.021.228.228,0,0,0-.053.037.139.139,0,0,0-.039.037.121.121,0,0,0-.031.055l-.294.982-.108.365a.092.092,0,0,0,.033.1.018.018,0,0,1,.01.005l.53.311a.723.723,0,0,1,.074.043l.285.16,0,.006a3.5,3.5,0,0,0,.012.357.254.254,0,0,1-.027.129.234.234,0,0,1-.05.085l-.812.983a.317.317,0,0,0-.047.108v.005a.155.155,0,0,0,0,.108l.381.838a.062.062,0,0,0,.021.026l.007.006,1.609.931.085.048c-.005-.006-.005-.017-.012-.023l-.036-.085-.187-.4-.16-.358a.166.166,0,0,1,0-.108.192.192,0,0,1,.047-.1l.812-.983a.351.351,0,0,0,.055-.091.227.227,0,0,0,.025-.123,3.885,3.885,0,0,1,0-.7.12.12,0,0,0-.123-.124l-.727-.037a.159.159,0,0,1-.057-.017c-.007,0-.011-.01-.016-.01a.1.1,0,0,1-.022-.1l.181-.605.012-.043.208-.7a.216.216,0,0,1,.026-.053.3.3,0,0,1,.149-.1l.8-.193a.222.222,0,0,0,.1-.047.243.243,0,0,0,.095-.1,7.825,7.825,0,0,1,.433-.742.294.294,0,0,0,.039-.1.2.2,0,0,0,0-.112l-.255-.876a.216.216,0,0,1,0-.1l.006-.005a.255.255,0,0,1,.059-.1l.632-.663.3-.321c.043-.047.1-.064.129-.042h.006a.043.043,0,0,1,.021.021l.432.662c.034.049.114.043.182-.005a3.386,3.386,0,0,1,.53-.3.461.461,0,0,0,.1-.065.281.281,0,0,0,.086-.111l.46-1.236a.224.224,0,0,1,.049-.063l.3-.081.685-.069a.129.129,0,0,1,.064,0c-.026-.016-.09-.059-.182-.113m-3.6,9.034a.137.137,0,0,0-.086-.149,1.383,1.383,0,0,1-.368-.214.157.157,0,0,0-.194.032l-.864.791a.166.166,0,0,1-.1.043c.246.14.579.331.85.492s.5.289.529.3a.072.072,0,0,1-.036-.08Zm3.8-8.916a.1.1,0,0,1,.038.085l-.268,1.219a.132.132,0,0,0,.086.15,1.481,1.481,0,0,1,.369.213.151.151,0,0,0,.192-.031l.866-.791c.043-.037.091-.054.122-.037-.07-.043-.935-.54-1.4-.808m-1.128,8.959-.433-.663c-.032-.048-.112-.043-.183.006s-.171.112-.255.16l.893.519a.037.037,0,0,1-.022-.022m.69-5.51a.867.867,0,0,0-.668-.531h-.034a.066.066,0,0,0-.031,0h-.037a1.392,1.392,0,0,0-.6.123,2.034,2.034,0,0,1,.009.236,3.759,3.759,0,0,1-1.7,2.951c-.07.037-.135.074-.2.106a1.384,1.384,0,0,0,.119.445.837.837,0,0,0,.8.534h.08c.025,0,.059-.006.086-.006l.074-.016c.015,0,.027,0,.036,0a.15.15,0,0,1,.05-.011,2.426,2.426,0,0,0,1.1-.717,3.251,3.251,0,0,0,.925-3.105m1.336,0a3.153,3.153,0,0,1-.017.337.121.121,0,0,0,.123.123l.727.037a.1.1,0,0,1,.054.016c-.054-.031-.475-.277-.887-.513" fill="#263238"/><g opacity="0.15"><g clip-path="url(#l)"><path d="M175.264,327.7a.041.041,0,0,0,.021.022l-.892-.519c.084-.048.17-.1.256-.16.07-.048.15-.054.182-.005Z"/></g></g><g opacity="0.1"><g clip-path="url(#m)"><path d="M172.324,328.876a.07.07,0,0,0,.037.079c-.028-.015-.251-.143-.53-.3s-.6-.351-.85-.491a.159.159,0,0,0,.1-.043l.866-.791a.154.154,0,0,1,.193-.031,1.4,1.4,0,0,0,.369.213.137.137,0,0,1,.085.149Z"/></g></g><g opacity="0.1"><g clip-path="url(#n)"><path d="M171.455,325.993a.26.26,0,0,1-.058.087l-.814.988a.3.3,0,0,0-.048.1l-1.705-.977a.517.517,0,0,1,.049-.117l.814-.978a.752.752,0,0,0,.048-.087Z"/></g></g><g opacity="0.05"><g clip-path="url(#o)"><path d="M171.475,325.17a4.053,4.053,0,0,0,0,.7.2.2,0,0,1-.02.126l-1.713-.987a.219.219,0,0,0,.019-.126c-.011-.116-.011-.242-.011-.358l.8.464c.008,0,.008,0,.019.01s.028.02.058.02l.726.028c.069.011.126.059.117.126"/></g></g><g opacity="0.1"><g clip-path="url(#p)"><path d="M172.017,323.147a.31.31,0,0,1-.106.047l-.8.2a.225.225,0,0,0-.145.1l-1.714-.988a.076.076,0,0,1,.04-.037.112.112,0,0,1,.058-.04.1.1,0,0,1,.057-.02l.8-.193a.23.23,0,0,0,.106-.059Z"/></g></g><g opacity="0.1"><g clip-path="url(#q)"><path d="M172.588,322.091a.216.216,0,0,1-.009.106l-1.705-.987a.231.231,0,0,0,0-.117l-.261-.88a.038.038,0,0,1-.01-.03c0-.019.01-.029.019-.048l1.715.978a.35.35,0,0,0-.01.1Z"/></g></g><g opacity="0.1"><g clip-path="url(#r)"><path d="M175.319,318.876a.265.265,0,0,0-.048.068l-.455,1.229a.31.31,0,0,1-.088.117l-1.714-.988c0-.01.02-.019.02-.019a.472.472,0,0,0,.068-.1l.465-1.24c0-.008.009-.019.019-.039.009,0,.009-.009.019-.019Z"/></g></g><path d="M178.177,322.706a.112.112,0,0,0-.054-.016l-.727-.037a.121.121,0,0,1-.123-.123c.011-.112.016-.224.016-.337s-.005-.245-.016-.363a.329.329,0,0,1,.081-.214l.812-.984a.227.227,0,0,0,.048-.2l-.385-.851c0-.015-.016-.02-.032-.032a.121.121,0,0,0-.123.038l-.866.791a.151.151,0,0,1-.192.031,1.413,1.413,0,0,0-.369-.213.134.134,0,0,1-.086-.15l.268-1.219a.093.093,0,0,0-.038-.085.136.136,0,0,0-.08-.01l-.684.069-.166.016a.233.233,0,0,0-.139.064.207.207,0,0,0-.048.064l-.46,1.236a.309.309,0,0,1-.085.111.543.543,0,0,1-.1.065,3.341,3.341,0,0,0-.53.3c-.069.048-.149.053-.181.005l-.433-.662a.038.038,0,0,0-.027-.021c-.032-.022-.086,0-.128.042l-.3.321-.631.663a.288.288,0,0,0-.064.107.189.189,0,0,0-.005.1l.256.876a.2.2,0,0,1-.005.112.338.338,0,0,1-.037.1,7.232,7.232,0,0,0-.433.742.256.256,0,0,1-.1.1.219.219,0,0,1-.1.047l-.8.193a.29.29,0,0,0-.15.1.265.265,0,0,0-.027.053l-.208.7-.011.043-.182.605a.1.1,0,0,0,.022.1.029.029,0,0,1,.016.01.17.17,0,0,0,.059.017l.727.037a.122.122,0,0,1,.123.123,3.719,3.719,0,0,0,0,.7.241.241,0,0,1-.027.123.319.319,0,0,1-.053.091l-.813.984a.229.229,0,0,0-.048.2l.16.357c.007.017.015.031.022.048l.053.114c.021.047.042.1.064.142s.037.082.056.123c.01.02.019.043.029.063l.011.024a.07.07,0,0,0,.049.015.162.162,0,0,0,.1-.043l.866-.791a.154.154,0,0,1,.192-.032,1.389,1.389,0,0,0,.369.214.134.134,0,0,1,.086.149l-.268,1.219a.084.084,0,0,0,.038.086.121.121,0,0,0,.08.011l.85-.08a.252.252,0,0,0,.187-.134l.46-1.23a.4.4,0,0,1,.181-.181c.091-.043.182-.091.273-.145s.171-.1.257-.16c.069-.049.15-.054.181-.006l.433.663a.047.047,0,0,0,.022.022.113.113,0,0,0,.133-.042l.936-.985a.254.254,0,0,0,.07-.2l-.263-.877a.326.326,0,0,1,.049-.213,6.537,6.537,0,0,0,.427-.744.33.33,0,0,1,.2-.149l.8-.193a.252.252,0,0,0,.182-.149l.4-1.352a.089.089,0,0,0-.042-.108m-4.25,3.3a.139.139,0,0,0-.048.011c-.011,0-.021,0-.037,0l-.075.016c-.027,0-.059.006-.086.006h-.08a.841.841,0,0,1-.8-.534,1.34,1.34,0,0,1-.117-.445,1.836,1.836,0,0,1-.016-.246,3.814,3.814,0,0,1,1.053-2.416,2.945,2.945,0,0,1,.641-.518c.075-.043.145-.08.214-.113a1.4,1.4,0,0,1,.6-.123h.037a.076.076,0,0,1,.033,0h.032a.865.865,0,0,1,.668.531,3.244,3.244,0,0,1-.925,3.105,2.421,2.421,0,0,1-1.1.717" fill="#37474f"/><path d="M175.337,341.7a6.472,6.472,0,0,0-3.621,2.991,5.95,5.95,0,0,0,.194,5.646,6.49,6.49,0,0,0-1.017,3.488,7.719,7.719,0,0,0,5.1,6.893c.094.036.192.064.286.1l.875-.505a8.263,8.263,0,0,1-4.681-4.3,5.86,5.86,0,0,1,.145-4.587,7.071,7.071,0,0,0,1.684,1.568c1.742,1.142,5.134,2,6.721.17a2.836,2.836,0,0,0-.133-3.7,5.545,5.545,0,0,0-4.014-1.869,5.628,5.628,0,0,0-4.166,1.744,5.488,5.488,0,0,1-.411-2.574,4.937,4.937,0,0,1,3.527-4.134c1.437,2.237,4.611,4.28,7.062,2.365,2.43-1.9-1.461-3.633-3.1-3.79a11.01,11.01,0,0,0-3.393.192,3.665,3.665,0,0,1-.222-2.029,4.409,4.409,0,0,1,1.672-2.6,5.606,5.606,0,0,1,6.6-.407.36.36,0,1,0,.46-.553c-3.874-3.561-11.626.847-9.568,5.891m-.613,7.421a4.205,4.205,0,0,1,3.691-.171c1.026.451,2.2,1.408,2.036,2.661-.284,2.2-3.229,1.582-4.615,1a5.862,5.862,0,0,1-2.585-2.241,4.752,4.752,0,0,1,1.473-1.246m2.966-6.91a7.357,7.357,0,0,1,3.08.221c.467.157,1.811.6,1.736,1.283-.045.42-.645.739-.988.883a2.511,2.511,0,0,1-1.606.076,5.477,5.477,0,0,1-2.78-2.009c-.084-.106-.162-.217-.237-.329a7.727,7.727,0,0,1,.795-.125" fill="#27debf"/><g opacity="0.7"><g clip-path="url(#s)"><path d="M175.337,341.7a6.472,6.472,0,0,0-3.621,2.991,5.95,5.95,0,0,0,.194,5.646,6.49,6.49,0,0,0-1.017,3.488,7.719,7.719,0,0,0,5.1,6.893c.094.036.192.064.286.1l.875-.505a8.263,8.263,0,0,1-4.681-4.3,5.86,5.86,0,0,1,.145-4.587,7.071,7.071,0,0,0,1.684,1.568c1.742,1.142,5.134,2,6.721.17a2.836,2.836,0,0,0-.133-3.7,5.545,5.545,0,0,0-4.014-1.869,5.628,5.628,0,0,0-4.166,1.744,5.488,5.488,0,0,1-.411-2.574,4.937,4.937,0,0,1,3.527-4.134c1.437,2.237,4.611,4.28,7.062,2.365,2.43-1.9-1.461-3.633-3.1-3.79a11.01,11.01,0,0,0-3.393.192,3.665,3.665,0,0,1-.222-2.029,4.409,4.409,0,0,1,1.672-2.6,5.606,5.606,0,0,1,6.6-.407.36.36,0,1,0,.46-.553c-3.874-3.561-11.626.847-9.568,5.891m-.613,7.421a4.205,4.205,0,0,1,3.691-.171c1.026.451,2.2,1.408,2.036,2.661-.284,2.2-3.229,1.582-4.615,1a5.862,5.862,0,0,1-2.585-2.241,4.752,4.752,0,0,1,1.473-1.246m2.966-6.91a7.357,7.357,0,0,1,3.08.221c.467.157,1.811.6,1.736,1.283-.045.42-.645.739-.988.883a2.511,2.511,0,0,1-1.606.076,5.477,5.477,0,0,1-2.78-2.009c-.084-.106-.162-.217-.237-.329a7.727,7.727,0,0,1,.795-.125" fill="#fff"/></g></g><path d="M172.271,352.4a5.842,5.842,0,0,1,.346-.977,4,4,0,0,1-.706-1.088,6.372,6.372,0,0,0-.545,1.058,8.657,8.657,0,0,0,.9,1.007" fill="#27debf"/><path d="M174.6,343.211a6.638,6.638,0,0,1,1.224-.589,5.907,5.907,0,0,1-.486-.926,7.383,7.383,0,0,0-1.354.638,6.591,6.591,0,0,0,.616.877" fill="#27debf"/><path d="M176.277,360.811l.875-.505a10.191,10.191,0,0,1-1.081-.519l-.929.537a8.649,8.649,0,0,0,.849.388c.094.037.191.065.286.1" fill="#27debf"/><path d="M199.463,344.668a6.441,6.441,0,0,0-4.522-1.288,5.968,5.968,0,0,0-4.542,3.359,6.453,6.453,0,0,0-2.275.5,6.907,6.907,0,0,0-1.172.64,7.561,7.561,0,0,0-2.934,7.194c.039.311.087.611.155.91.019.078.038.146.058.224l.765-.437c-.01-.086-.019-.165-.029-.242a7.86,7.86,0,0,1,1.085-5.112,5.621,5.621,0,0,1,2.072-1.859,5.813,5.813,0,0,1,1.782-.621,7.083,7.083,0,0,0-.33,2.276c.049,2.082,1.259,5.365,3.671,5.637a2.848,2.848,0,0,0,2.973-2.218,5.52,5.52,0,0,0-.737-4.367,5.665,5.665,0,0,0-3.8-2.442,5.586,5.586,0,0,1,1.879-1.8,4.944,4.944,0,0,1,5.4.563c-1.027,2.459-.9,6.226,2.062,7.155,2.944.931,2.16-3.263,1.365-4.7a11.034,11.034,0,0,0-2.081-2.683,3.693,3.693,0,0,1,1.539-1.336,4.407,4.407,0,0,1,3.09-.1,5.62,5.62,0,0,1,4.076,5.21.36.36,0,1,0,.717.057c.736-5.21-7.292-9.093-10.275-4.531m-6.459,3.7a4.2,4.2,0,0,1,2.228,2.945c.213,1.1.1,2.614-1.027,3.185-1.976,1.018-3.137-1.763-3.447-3.234a5.955,5.955,0,0,1,.378-3.4,4.813,4.813,0,0,1,1.868.5m7.37-1.471a7.371,7.371,0,0,1,1.568,2.653c.136.475.533,1.84-.077,2.159-.368.2-.969-.106-1.288-.309a2.494,2.494,0,0,1-.968-1.279,5.466,5.466,0,0,1,.077-3.429c.039-.134.087-.26.136-.386.194.193.377.386.552.591" fill="#27debf"/><g opacity="0.7"><g clip-path="url(#t)"><path d="M199.463,344.668a6.441,6.441,0,0,0-4.522-1.288,5.968,5.968,0,0,0-4.542,3.359,6.453,6.453,0,0,0-2.275.5,6.907,6.907,0,0,0-1.172.64,7.561,7.561,0,0,0-2.934,7.194c.039.311.087.611.155.91.019.078.038.146.058.224l.765-.437c-.01-.086-.019-.165-.029-.242a7.86,7.86,0,0,1,1.085-5.112,5.621,5.621,0,0,1,2.072-1.859,5.813,5.813,0,0,1,1.782-.621,7.083,7.083,0,0,0-.33,2.276c.049,2.082,1.259,5.365,3.671,5.637a2.848,2.848,0,0,0,2.973-2.218,5.52,5.52,0,0,0-.737-4.367,5.665,5.665,0,0,0-3.8-2.442,5.586,5.586,0,0,1,1.879-1.8,4.944,4.944,0,0,1,5.4.563c-1.027,2.459-.9,6.226,2.062,7.155,2.944.931,2.16-3.263,1.365-4.7a11.034,11.034,0,0,0-2.081-2.683,3.693,3.693,0,0,1,1.539-1.336,4.407,4.407,0,0,1,3.09-.1,5.62,5.62,0,0,1,4.076,5.21.36.36,0,1,0,.717.057c.736-5.21-7.292-9.093-10.275-4.531m-6.459,3.7a4.2,4.2,0,0,1,2.228,2.945c.213,1.1.1,2.614-1.027,3.185-1.976,1.018-3.137-1.763-3.447-3.234a5.955,5.955,0,0,1,.378-3.4,4.813,4.813,0,0,1,1.868.5m7.37-1.471a7.371,7.371,0,0,1,1.568,2.653c.136.475.533,1.84-.077,2.159-.368.2-.969-.106-1.288-.309a2.494,2.494,0,0,1-.968-1.279,5.466,5.466,0,0,1,.077-3.429c.039-.134.087-.26.136-.386.194.193.377.386.552.591" fill="#fff"/></g></g><path d="M188.909,348.21a5.733,5.733,0,0,1,1-.27,4.012,4.012,0,0,1,.5-1.2,6.519,6.519,0,0,0-1.183.166,8.271,8.271,0,0,0-.312,1.3" fill="#27debf"/><path d="M197.794,344.917a6.63,6.63,0,0,1,1.181.673,5.687,5.687,0,0,1,.486-.925,7.562,7.562,0,0,0-1.314-.74,6.34,6.34,0,0,0-.353.992" fill="#27debf"/><path d="M184.231,356.21c-.02-.077-.039-.145-.058-.223-.068-.3-.116-.6-.155-.91l.949.455s.019.165.029.242Z" fill="#27debf"/><path d="M185.936,245.009,131.564,276.4a4.844,4.844,0,0,0-2.189,3.793v18.663c0,1.4.98,1.962,2.189,1.264l54.371-31.391a4.84,4.84,0,0,0,2.189-3.793V246.273c0-1.4-.981-1.962-2.19-1.264" fill="#455a64"/><path d="M184.018,253.232a4.7,4.7,0,0,1-2.189,3.636l-46.155,26.649c-1.21.7-2.191.2-2.191-1.109a4.694,4.694,0,0,1,2.191-3.635l46.155-26.649c1.209-.7,2.189-.2,2.189,1.108" fill="#27debf"/><path d="M184.018,262.72a4.7,4.7,0,0,1-2.189,3.636L135.674,293c-1.21.7-2.191.2-2.191-1.108a4.7,4.7,0,0,1,2.191-3.636l46.155-26.648c1.209-.7,2.189-.2,2.189,1.108" fill="#263238"/><path d="M181.828,261.612l-19.587,11.309v4.743l19.587-11.308a4.7,4.7,0,0,0,2.189-3.636c0-1.311-.98-1.806-2.189-1.108" fill="#27debf"/><path d="M110.54,201.071c-2.269-1.315-4.107-.117-4.107,2.675V304.134a9.411,9.411,0,0,0,4.108,7.438c2.269,1.316,4.107.118,4.107-2.674V208.509a9.414,9.414,0,0,0-4.108-7.438" fill="#27debf"/><g opacity="0.5"><g clip-path="url(#u)"><path d="M110.54,201.071c-2.269-1.315-4.107-.117-4.107,2.675V304.134a9.411,9.411,0,0,0,4.108,7.438c2.269,1.316,4.107.118,4.107-2.674V208.509a9.414,9.414,0,0,0-4.108-7.438"/></g></g><path d="M110.54,309.172a4.7,4.7,0,0,1-2.055-3.715l0-100.691c0-1.4.919-2,2.053-1.343a4.694,4.694,0,0,1,2.055,3.714V307.829c0,1.4-.919,2-2.054,1.343" fill="#37474f"/><path d="M110.54,309.172a4.7,4.7,0,0,1-2.055-3.715l0-49.2,4.108,2.371v49.2c0,1.4-.919,2-2.054,1.343" fill="#27debf"/><path d="M98.216,193.956c-2.269-1.315-4.108-.117-4.108,2.675V297.019a9.412,9.412,0,0,0,4.109,7.438c2.268,1.316,4.107.117,4.107-2.675V201.394a9.417,9.417,0,0,0-4.108-7.438" fill="#27debf"/><g opacity="0.5"><g clip-path="url(#v)"><path d="M98.216,193.956c-2.269-1.315-4.108-.117-4.108,2.675V297.019a9.412,9.412,0,0,0,4.109,7.438c2.268,1.316,4.107.117,4.107-2.675V201.394a9.417,9.417,0,0,0-4.108-7.438"/></g></g><path d="M98.215,302.057a4.7,4.7,0,0,1-2.054-3.715V197.65c0-1.4.92-2,2.054-1.342a4.7,4.7,0,0,1,2.055,3.715v100.69c0,1.4-.92,2-2.054,1.344" fill="#27debf"/><path d="M85.891,186.841c-2.269-1.315-4.108-.118-4.108,2.675V289.9a9.418,9.418,0,0,0,4.109,7.439c2.268,1.315,4.107.118,4.107-2.675V194.279a9.415,9.415,0,0,0-4.108-7.438" fill="#27debf"/><g opacity="0.5"><g clip-path="url(#w)"><path d="M85.891,186.841c-2.269-1.315-4.108-.118-4.108,2.675V289.9a9.418,9.418,0,0,0,4.109,7.439c2.268,1.315,4.107.118,4.107-2.675V194.279a9.415,9.415,0,0,0-4.108-7.438"/></g></g><path d="M85.891,294.94a4.689,4.689,0,0,1-2.055-3.713V190.535c0-1.4.921-2,2.055-1.342a4.7,4.7,0,0,1,2.055,3.714V293.6c0,1.4-.921,2-2.054,1.342" fill="#37474f"/><path d="M85.891,294.94a4.689,4.689,0,0,1-2.055-3.713V218.114l4.11,2.371V293.6c0,1.4-.921,2-2.054,1.342" fill="#27debf"/><path d="M73.566,179.726c-2.269-1.315-4.108-.119-4.108,2.674V282.789a9.415,9.415,0,0,0,4.108,7.438c2.268,1.315,4.107.118,4.107-2.675V187.164a9.417,9.417,0,0,0-4.108-7.438" fill="#27debf"/><g opacity="0.5"><g clip-path="url(#x)"><path d="M73.566,179.726c-2.269-1.315-4.108-.119-4.108,2.674V282.789a9.415,9.415,0,0,0,4.108,7.438c2.268,1.315,4.107.118,4.107-2.675V187.164a9.417,9.417,0,0,0-4.108-7.438"/></g></g><path d="M73.566,287.826a4.694,4.694,0,0,1-2.054-3.715V183.42c0-1.4.92-2,2.055-1.342a4.7,4.7,0,0,1,2.054,3.714v100.69c0,1.4-.92,2-2.054,1.344" fill="#37474f"/><path d="M73.566,287.826a4.694,4.694,0,0,1-2.054-3.715V265.75l4.109,2.371v18.361c0,1.4-.92,2-2.054,1.344" fill="#27debf"/><path d="M61.242,172.61c-2.269-1.315-4.108-.117-4.108,2.675V275.673a9.412,9.412,0,0,0,4.109,7.438c2.268,1.316,4.107.118,4.107-2.674V180.048a9.417,9.417,0,0,0-4.108-7.438" fill="#27debf"/><g opacity="0.5"><g clip-path="url(#y)"><path d="M61.242,172.61c-2.269-1.315-4.108-.117-4.108,2.675V275.673a9.412,9.412,0,0,0,4.109,7.438c2.268,1.316,4.107.118,4.107-2.674V180.048a9.417,9.417,0,0,0-4.108-7.438"/></g></g><path d="M61.241,280.71A4.693,4.693,0,0,1,59.187,277V176.3c0-1.4.919-2,2.053-1.342a4.7,4.7,0,0,1,2.055,3.714V279.368c0,1.4-.92,2-2.054,1.342" fill="#37474f"/><path d="M61.241,280.71A4.693,4.693,0,0,1,59.187,277V223.054l4.108,2.371v53.943c0,1.4-.92,2-2.054,1.342" fill="#27debf"/><path d="M185.936,169.315l-54.372,31.393a4.838,4.838,0,0,0-2.189,3.792v62.538c0,1.4.98,1.962,2.189,1.265l54.371-31.391a4.843,4.843,0,0,0,2.189-3.794V170.581c0-1.4-.981-1.964-2.19-1.266" fill="#37474f"/><path d="M129.97,202.433a4.432,4.432,0,0,0-.6,2.067v62.539c0,1.4.98,1.962,2.189,1.264l54.37-31.391a4.527,4.527,0,0,0,1.592-1.721Z" fill="#263238"/><path d="M131.564,200.707a4.839,4.839,0,0,0-2.189,3.792v62.539l54.37-31.392a4.839,4.839,0,0,0,2.189-3.792V169.316Z" fill="#455a64"/><line x2="7.227" y2="6.954" transform="translate(142.241 209.059)" fill="none" stroke="#27debf" stroke-linecap="round" stroke-miterlimit="10" stroke-width="2.257"/><line y1="15.298" x2="7.227" transform="translate(142.241 204.887)" fill="none" stroke="#27debf" stroke-linecap="round" stroke-miterlimit="10" stroke-width="2.257"/><line x2="7.227" y2="6.954" transform="translate(165.843 195.433)" fill="none" stroke="#27debf" stroke-linecap="round" stroke-miterlimit="10" stroke-width="2.257"/><line y1="15.298" x2="7.227" transform="translate(165.843 191.26)" fill="none" stroke="#27debf" stroke-linecap="round" stroke-miterlimit="10" stroke-width="2.257"/><line y1="18.168" x2="31.469" transform="translate(141.921 219.349)" fill="none" stroke="#27debf" stroke-linecap="round" stroke-miterlimit="10" stroke-width="2.257"/><path d="M161.589,226.162v8.785c0,2.673,1.762,3.825,3.933,2.57a8.989,8.989,0,0,0,3.934-7.113V221.62" fill="none" stroke="#27debf" stroke-linecap="round" stroke-miterlimit="10" stroke-width="2.257"/><line y2="8.481" transform="translate(165.523 223.891)" fill="none" stroke="#27debf" stroke-linecap="round" stroke-miterlimit="10" stroke-width="2.257"/><path d="M66.163,363.4a2.14,2.14,0,0,1,.969,1.677c0,.618-.434.869-.969.56a2.141,2.141,0,0,1-.97-1.678c0-.619.434-.869.97-.559" fill="#37474f"/><path d="M74.236,368.065a2.139,2.139,0,0,1,.966,1.673c0,.616-.433.866-.966.558a2.136,2.136,0,0,1-.966-1.673c0-.616.432-.865.966-.558" fill="#37474f"/><path d="M82.173,372.648a2.122,2.122,0,0,1,.962,1.667c0,.612-.43.861-.962.554a2.125,2.125,0,0,1-.962-1.666c0-.614.431-.863.962-.555" fill="#37474f"/><path d="M90.179,377.273a2.117,2.117,0,0,1,.958,1.661c0,.611-.428.859-.958.552a2.113,2.113,0,0,1-.959-1.66c0-.611.429-.859.959-.553" fill="#37474f"/><path d="M56.741,315.919l8.206,4.714a5.145,5.145,0,0,1,2.326,4.03v4.708c0,1.484-1.041,2.085-2.326,1.343L56.741,326a5.146,5.146,0,0,1-2.327-4.031v-4.707c0-1.484,1.042-2.085,2.327-1.343" fill="#37474f"/><path d="M58.953,321.228l1.067-.617h0l.008-.005h0a1.43,1.43,0,0,1,1.422.146,4.472,4.472,0,0,1,2.022,3.5,1.423,1.423,0,0,1-.591,1.308h0l-.992.569-.179-.3a2.046,2.046,0,0,1-.58-.226,4.47,4.47,0,0,1-2.023-3.5,2.136,2.136,0,0,1,.064-.516Z" fill="#27debf"/><g opacity="0.2"><g clip-path="url(#z)"><path d="M58.953,321.228l1.067-.617h0l.008-.005h0a1.43,1.43,0,0,1,1.422.146,4.472,4.472,0,0,1,2.022,3.5,1.423,1.423,0,0,1-.591,1.308h0l-.992.569-.179-.3a2.046,2.046,0,0,1-.58-.226,4.47,4.47,0,0,1-2.023-3.5,2.136,2.136,0,0,1,.064-.516Z"/></g></g><path d="M60.425,321.343a4.469,4.469,0,0,1,2.022,3.5c0,1.29-.9,1.812-2.022,1.168a4.47,4.47,0,0,1-2.022-3.5c0-1.29.9-1.812,2.022-1.167" fill="#27debf"/><path d="M56.741,293.252l8.206,4.715A5.142,5.142,0,0,1,67.273,302V306.7c0,1.485-1.041,2.085-2.326,1.344l-8.206-4.715a5.143,5.143,0,0,1-2.327-4.029V294.6c0-1.485,1.042-2.085,2.327-1.343" fill="#455a64"/><path d="M58.953,298.561l1.067-.617h0l.008,0h0a1.427,1.427,0,0,1,1.422.145,4.472,4.472,0,0,1,2.022,3.5,1.423,1.423,0,0,1-.591,1.309h0l-.992.568-.179-.3a2.012,2.012,0,0,1-.58-.225,4.471,4.471,0,0,1-2.023-3.5,2.159,2.159,0,0,1,.064-.518Z" fill="#27debf"/><g opacity="0.2"><g clip-path="url(#aa)"><path d="M58.953,298.561l1.067-.617h0l.008,0h0a1.427,1.427,0,0,1,1.422.145,4.472,4.472,0,0,1,2.022,3.5,1.423,1.423,0,0,1-.591,1.309h0l-.992.568-.179-.3a2.012,2.012,0,0,1-.58-.225,4.471,4.471,0,0,1-2.023-3.5,2.159,2.159,0,0,1,.064-.518Z"/></g></g><path d="M60.425,298.676a4.468,4.468,0,0,1,2.022,3.5c0,1.29-.9,1.812-2.022,1.168a4.473,4.473,0,0,1-2.022-3.5c0-1.289.9-1.813,2.022-1.167" fill="#27debf"/><path d="M185.571,276.07,147.55,298.023a5.644,5.644,0,0,0-2.555,4.424v5.169c0,1.629,1.143,2.289,2.554,1.475l38.022-21.953a5.645,5.645,0,0,0,2.555-4.424v-5.168c0-1.629-1.144-2.289-2.555-1.476" fill="#455a64"/><path d="M185.431,280.448v2.507a1.13,1.13,0,0,1-.511.885l-.574.332c-.283.163-.511.031-.511-.295V281.37a1.131,1.131,0,0,1,.511-.886l.574-.332c.282-.162.511-.03.511.3" fill="#27debf"/><path d="M182.85,281.936v2.507a1.128,1.128,0,0,1-.512.885l-.574.332c-.283.163-.512.031-.512-.3v-2.507a1.127,1.127,0,0,1,.513-.885l.573-.332c.283-.163.512-.031.512.3" fill="#27debf"/><path d="M180.268,283.424v2.508a1.13,1.13,0,0,1-.511.884l-.574.332c-.284.164-.512.032-.512-.294v-2.507a1.127,1.127,0,0,1,.512-.886l.574-.332c.282-.162.511-.03.511.3" fill="#27debf"/><path d="M177.686,284.912v2.508a1.13,1.13,0,0,1-.511.885l-.575.332c-.282.163-.511.031-.511-.295v-2.507a1.132,1.132,0,0,1,.511-.886l.575-.332c.282-.162.511-.03.511.295" fill="#27debf"/><path d="M175.1,286.4v2.507a1.13,1.13,0,0,1-.511.885l-.574.332c-.283.163-.512.031-.512-.3v-2.507a1.128,1.128,0,0,1,.512-.885l.574-.332c.282-.163.511-.031.511.3" fill="#37474f"/><path d="M172.522,287.89V290.4a1.13,1.13,0,0,1-.51.884l-.576.332c-.282.163-.511.032-.511-.3v-2.506a1.13,1.13,0,0,1,.511-.886l.576-.332c.281-.162.51-.03.51.3" fill="#37474f"/><path d="M169.94,289.377v2.508a1.136,1.136,0,0,1-.511.886l-.574.331c-.283.163-.511.031-.511-.295V290.3a1.129,1.129,0,0,1,.511-.886l.574-.332c.282-.163.511-.03.511.3" fill="#27debf"/><path d="M167.359,290.866v2.507a1.13,1.13,0,0,1-.511.885l-.574.332c-.283.163-.512.03-.512-.295v-2.508a1.128,1.128,0,0,1,.512-.884l.574-.332c.282-.163.511-.031.511.295" fill="#27debf"/><path d="M164.777,292.355v2.506a1.127,1.127,0,0,1-.511.885l-.574.332c-.283.163-.511.03-.511-.3v-2.507a1.125,1.125,0,0,1,.511-.884l.574-.332c.282-.163.511-.032.511.3" fill="#27debf"/><path d="M162.2,293.843v2.507a1.127,1.127,0,0,1-.511.884l-.575.332c-.282.164-.511.031-.511-.294v-2.507a1.13,1.13,0,0,1,.511-.885l.575-.332c.282-.163.511-.031.511.295" fill="#37474f"/><path d="M159.613,295.331v2.507a1.128,1.128,0,0,1-.511.885l-.574.332c-.283.163-.511.03-.511-.295v-2.507a1.127,1.127,0,0,1,.511-.885l.574-.332c.282-.163.511-.031.511.295" fill="#27debf"/><path d="M157.032,296.819v2.507a1.128,1.128,0,0,1-.512.885l-.574.332c-.282.163-.511.031-.511-.3v-2.507a1.131,1.131,0,0,1,.511-.885l.574-.332c.283-.163.512-.031.512.3" fill="#27debf"/><path d="M154.45,298.308v2.507a1.126,1.126,0,0,1-.512.884l-.573.332c-.284.163-.512.032-.512-.3V299.23a1.124,1.124,0,0,1,.512-.885l.573-.332c.283-.163.512-.032.512.3" fill="#37474f"/><path d="M151.868,299.8V302.3a1.13,1.13,0,0,1-.511.885l-.575.332c-.282.163-.511.031-.511-.295v-2.507a1.13,1.13,0,0,1,.511-.885l.575-.332c.282-.163.511-.031.511.295" fill="#27debf"/><path d="M149.286,301.284v2.507a1.128,1.128,0,0,1-.511.885l-.574.332c-.283.163-.511.031-.511-.295v-2.507a1.127,1.127,0,0,1,.511-.885l.574-.332c.282-.163.511-.031.511.295" fill="#37474f"/><path d="M141.153,306.309l-1.066-.617h0l-.008,0v0a1.421,1.421,0,0,0-1.421.143,4.471,4.471,0,0,0-2.022,3.5,1.426,1.426,0,0,0,.59,1.309h0l.993.568.179-.3a2.066,2.066,0,0,0,.58-.224,4.474,4.474,0,0,0,2.022-3.5,2.2,2.2,0,0,0-.063-.517Z" fill="#455a64"/><path d="M139.682,306.423a4.471,4.471,0,0,0-2.022,3.5c0,1.289.9,1.811,2.022,1.168a4.473,4.473,0,0,0,2.022-3.5c0-1.288-.9-1.812-2.022-1.167" fill="#27debf"/><g opacity="0.8"><g clip-path="url(#ab)"><path d="M139.682,306.423a4.471,4.471,0,0,0-2.022,3.5c0,1.289.9,1.811,2.022,1.168a4.473,4.473,0,0,0,2.022-3.5c0-1.288-.9-1.812-2.022-1.167" fill="#fff"/></g></g><path d="M132.375,311.374l-1.066-.616h0l-.008-.005v0a1.422,1.422,0,0,0-1.421.145,4.468,4.468,0,0,0-2.022,3.5,1.424,1.424,0,0,0,.59,1.308h0l.993.569.179-.3a2.056,2.056,0,0,0,.58-.226,4.472,4.472,0,0,0,2.022-3.5,2.209,2.209,0,0,0-.063-.516Z" fill="#455a64"/><path d="M130.9,311.489a4.471,4.471,0,0,0-2.022,3.5c0,1.29.9,1.814,2.022,1.168a4.468,4.468,0,0,0,2.022-3.5c0-1.289-.9-1.811-2.022-1.167" fill="#27debf"/><g opacity="0.8"><g clip-path="url(#ac)"><path d="M130.9,311.489a4.471,4.471,0,0,0-2.022,3.5c0,1.29.9,1.814,2.022,1.168a4.468,4.468,0,0,0,2.022-3.5c0-1.289-.9-1.811-2.022-1.167" fill="#fff"/></g></g><path d="M73.866,301.3l39.794,22.955a2.85,2.85,0,0,1,1.289,2.233v10.989c0,.823-.577,1.156-1.29.745L73.866,315.267a2.85,2.85,0,0,1-1.289-2.233V302.045c0-.822.578-1.155,1.29-.744" fill="#455a64"/><path d="M75,306.144a2.765,2.765,0,0,0,1.289,2.14l34.956,20.162c.712.411,1.289.119,1.289-.653a2.766,2.766,0,0,0-1.289-2.14L76.285,305.491c-.712-.411-1.289-.119-1.289.653" fill="#27debf"/><path d="M75,311.73a2.762,2.762,0,0,0,1.289,2.14l34.956,20.162c.712.411,1.289.119,1.289-.651a2.763,2.763,0,0,0-1.289-2.142L76.285,311.077c-.712-.41-1.289-.118-1.289.653" fill="#263238"/><path d="M76.285,311.077,95.6,322.207V325L76.285,313.87A2.763,2.763,0,0,1,75,311.73c0-.772.577-1.064,1.289-.653" fill="#27debf"/><path d="M56.741,293.252l8.206,4.715A5.142,5.142,0,0,1,67.273,302V306.7c0,1.485-1.041,2.085-2.326,1.344l-8.206-4.715a5.143,5.143,0,0,1-2.327-4.029V294.6c0-1.485,1.042-2.085,2.327-1.343" fill="#37474f"/><path d="M58.953,298.561l1.067-.617h0l.008,0h0a1.427,1.427,0,0,1,1.422.145,4.472,4.472,0,0,1,2.022,3.5,1.423,1.423,0,0,1-.591,1.309h0l-.992.568-.179-.3a2.012,2.012,0,0,1-.58-.225,4.471,4.471,0,0,1-2.023-3.5,2.159,2.159,0,0,1,.064-.518Z" fill="#27debf"/><g opacity="0.2"><g clip-path="url(#aa)"><path d="M58.953,298.561l1.067-.617h0l.008,0h0a1.427,1.427,0,0,1,1.422.145,4.472,4.472,0,0,1,2.022,3.5,1.423,1.423,0,0,1-.591,1.309h0l-.992.568-.179-.3a2.012,2.012,0,0,1-.58-.225,4.471,4.471,0,0,1-2.023-3.5,2.159,2.159,0,0,1,.064-.518Z"/></g></g><path d="M60.425,298.676a4.468,4.468,0,0,1,2.022,3.5c0,1.29-.9,1.812-2.022,1.168a4.473,4.473,0,0,1-2.022-3.5c0-1.289.9-1.813,2.022-1.167" fill="#27debf"/><path d="M73.866,301.3l39.794,22.955a2.85,2.85,0,0,1,1.289,2.233v10.989c0,.823-.577,1.156-1.29.745L73.866,315.267a2.85,2.85,0,0,1-1.289-2.233V302.045c0-.822.578-1.155,1.29-.744" fill="#37474f"/><path d="M75,306.144a2.765,2.765,0,0,0,1.289,2.14l34.956,20.162c.712.411,1.289.119,1.289-.653a2.766,2.766,0,0,0-1.289-2.14L76.285,305.491c-.712-.411-1.289-.119-1.289.653" fill="#27debf"/><path d="M75,311.73a2.762,2.762,0,0,0,1.289,2.14l34.956,20.162c.712.411,1.289.119,1.289-.651a2.763,2.763,0,0,0-1.289-2.142L76.285,311.077c-.712-.41-1.289-.118-1.289.653" fill="#263238"/><path d="M76.285,311.077,95.6,322.207V325L76.285,313.87A2.763,2.763,0,0,1,75,311.73c0-.772.577-1.064,1.289-.653" fill="#27debf"/><path d="M73.866,324.03l39.794,22.954a2.853,2.853,0,0,1,1.289,2.234v10.989c0,.823-.577,1.156-1.29.745L73.866,338a2.85,2.85,0,0,1-1.289-2.233v-10.99c0-.821.578-1.155,1.29-.743" fill="#37474f"/><path d="M75,328.872a2.765,2.765,0,0,0,1.289,2.141l34.956,20.162c.712.411,1.289.119,1.289-.652a2.763,2.763,0,0,0-1.289-2.141L76.285,328.22c-.712-.411-1.289-.119-1.289.652" fill="#27debf"/><path d="M75,334.459a2.765,2.765,0,0,0,1.289,2.141l34.956,20.162c.712.411,1.289.119,1.289-.653a2.763,2.763,0,0,0-1.289-2.14L76.285,333.807c-.712-.411-1.289-.119-1.289.652" fill="#263238"/><path d="M76.285,333.807l24.15,13.923v2.793L76.285,336.6A2.765,2.765,0,0,1,75,334.458c0-.77.577-1.062,1.289-.651" fill="#27debf"/><path d="M56.741,338.716l8.206,4.716a5.14,5.14,0,0,1,2.326,4.029v4.707c0,1.484-1.041,2.085-2.326,1.344L56.741,348.8a5.141,5.141,0,0,1-2.327-4.029V340.06c0-1.485,1.042-2.085,2.327-1.344" fill="#455a64"/><path d="M58.953,344.025l1.067-.616h0l.008,0h0a1.427,1.427,0,0,1,1.422.145,4.471,4.471,0,0,1,2.022,3.5,1.421,1.421,0,0,1-.591,1.308h0l-.992.569-.179-.3a2.041,2.041,0,0,1-.58-.225,4.473,4.473,0,0,1-2.023-3.5,2.157,2.157,0,0,1,.064-.517Z" fill="#27debf"/><g opacity="0.2"><g clip-path="url(#ae)"><path d="M58.953,344.025l1.067-.616h0l.008,0h0a1.427,1.427,0,0,1,1.422.145,4.471,4.471,0,0,1,2.022,3.5,1.421,1.421,0,0,1-.591,1.308h0l-.992.569-.179-.3a2.041,2.041,0,0,1-.58-.225,4.473,4.473,0,0,1-2.023-3.5,2.157,2.157,0,0,1,.064-.517Z"/></g></g><path d="M60.425,344.14a4.471,4.471,0,0,1,2.022,3.5c0,1.289-.9,1.812-2.022,1.168a4.473,4.473,0,0,1-2.022-3.5c0-1.288.9-1.812,2.022-1.167" fill="#27debf"/><path d="M56.741,338.716l8.206,4.716a5.14,5.14,0,0,1,2.326,4.029v4.707c0,1.484-1.041,2.085-2.326,1.344L56.741,348.8a5.141,5.141,0,0,1-2.327-4.029V340.06c0-1.485,1.042-2.085,2.327-1.344" fill="#37474f"/><path d="M58.953,344.025l1.067-.616h0l.008,0h0a1.427,1.427,0,0,1,1.422.145,4.471,4.471,0,0,1,2.022,3.5,1.421,1.421,0,0,1-.591,1.308h0l-.992.569-.179-.3a2.041,2.041,0,0,1-.58-.225,4.473,4.473,0,0,1-2.023-3.5,2.157,2.157,0,0,1,.064-.517Z" fill="#27debf"/><g opacity="0.2"><g clip-path="url(#ae)"><path d="M58.953,344.025l1.067-.616h0l.008,0h0a1.427,1.427,0,0,1,1.422.145,4.471,4.471,0,0,1,2.022,3.5,1.421,1.421,0,0,1-.591,1.308h0l-.992.569-.179-.3a2.041,2.041,0,0,1-.58-.225,4.473,4.473,0,0,1-2.023-3.5,2.157,2.157,0,0,1,.064-.517Z"/></g></g><path d="M60.425,344.14a4.471,4.471,0,0,1,2.022,3.5c0,1.289-.9,1.812-2.022,1.168a4.473,4.473,0,0,1-2.022-3.5c0-1.288.9-1.812,2.022-1.167" fill="#27debf"/><path d="M73.866,346.766l39.794,22.955a2.849,2.849,0,0,1,1.289,2.232v10.989c0,.824-.577,1.157-1.29.746L73.866,360.731a2.848,2.848,0,0,1-1.289-2.232V347.51c0-.822.578-1.155,1.29-.744" fill="#37474f"/><path d="M75,351.607a2.765,2.765,0,0,0,1.289,2.142l34.956,20.162c.712.411,1.289.119,1.289-.653a2.763,2.763,0,0,0-1.289-2.14L76.285,350.956c-.712-.411-1.289-.119-1.289.651" fill="#27debf"/><path d="M75,357.194a2.765,2.765,0,0,0,1.289,2.141L111.241,379.5c.712.411,1.289.119,1.289-.651a2.763,2.763,0,0,0-1.289-2.142L76.285,356.542c-.712-.411-1.289-.119-1.289.652" fill="#263238"/><path d="M76.285,356.542,95.6,367.672v2.793l-19.312-11.13A2.763,2.763,0,0,1,75,357.194c0-.771.577-1.063,1.289-.652" fill="#27debf"/><g opacity="0.1"><g clip-path="url(#ag)"><path d="M177.287,158.409l-53.064,30.636a3.034,3.034,0,0,1-2.746,0L68.414,158.409a.837.837,0,0,1,0-1.585l53.064-29.579a3.034,3.034,0,0,1,2.746,0l53.063,29.579a.837.837,0,0,1,0,1.585"/></g></g><path d="M124.165,187.368l50.777-29.317a2.9,2.9,0,0,0,1.315-2.276v-1.709a2.9,2.9,0,0,0-1.315-2.276l-50.777-29.317a2.9,2.9,0,0,0-2.627,0L70.759,151.79a2.9,2.9,0,0,0-1.314,2.276v1.71a2.9,2.9,0,0,0,1.314,2.275l50.778,29.317a2.9,2.9,0,0,0,2.628,0" fill="#27debf"/><g opacity="0.5"><g clip-path="url(#ah)"><path d="M124.165,187.368l50.777-29.317a2.9,2.9,0,0,0,1.315-2.276v-1.709a2.9,2.9,0,0,0-1.315-2.276l-50.777-29.317a2.9,2.9,0,0,0-2.627,0L70.759,151.79a2.9,2.9,0,0,0-1.314,2.276v1.71a2.9,2.9,0,0,0,1.314,2.275l50.778,29.317a2.9,2.9,0,0,0,2.628,0" fill="#fff"/></g></g><g opacity="0.05"><g clip-path="url(#ah)"><path d="M124.165,187.368l50.777-29.317a2.9,2.9,0,0,0,1.315-2.276v-1.709a2.9,2.9,0,0,0-1.315-2.276l-50.777-29.317a2.9,2.9,0,0,0-2.627,0L70.759,151.79a2.9,2.9,0,0,0-1.314,2.276v1.71a2.9,2.9,0,0,0,1.314,2.275l50.778,29.317a2.9,2.9,0,0,0,2.628,0"/></g></g><path d="M174.943,153.307l-50.778,29.317a2.9,2.9,0,0,1-2.628,0L70.758,153.307a.8.8,0,0,1,0-1.517l50.779-28.306a2.9,2.9,0,0,1,2.628,0l50.778,28.306a.8.8,0,0,1,0,1.517" fill="#27debf"/><g opacity="0.7"><g clip-path="url(#aj)"><path d="M174.943,153.307l-50.778,29.317a2.9,2.9,0,0,1-2.628,0L70.758,153.307a.8.8,0,0,1,0-1.517l50.779-28.306a2.9,2.9,0,0,1,2.628,0l50.778,28.306a.8.8,0,0,1,0,1.517" fill="#fff"/></g></g><path d="M122.848,182.936v4.744a2.654,2.654,0,0,0,1.315-.314l50.78-29.319a2.89,2.89,0,0,0,1.315-2.276v-1.709a2.922,2.922,0,0,0-1.072-2.1c.475.415.394.981-.243,1.346l-50.78,29.319a2.664,2.664,0,0,1-1.315.313" fill="#27debf"/><g opacity="0.6"><g clip-path="url(#ak)"><path d="M122.848,182.936v4.744a2.654,2.654,0,0,0,1.315-.314l50.78-29.319a2.89,2.89,0,0,0,1.315-2.276v-1.709a2.922,2.922,0,0,0-1.072-2.1c.475.415.394.981-.243,1.346l-50.78,29.319a2.664,2.664,0,0,1-1.315.313" fill="#fff"/></g></g><path d="M124.165,173.137l34.346-19.83a2.909,2.909,0,0,0,1.314-2.275v-1.71a2.906,2.906,0,0,0-1.314-2.275L136.49,134.333a8.706,8.706,0,0,1-2.219-1.977l-10.518-14.167a1.74,1.74,0,0,0-2.216-.46L87.19,137.558a2.9,2.9,0,0,0-1.314,2.276v11.2a2.908,2.908,0,0,0,1.313,2.275l34.347,19.83a2.9,2.9,0,0,0,2.628,0" fill="#263238"/><path d="M121.537,168.393,99.516,155.679a7.556,7.556,0,0,1-1.149-.854A7.91,7.91,0,0,1,97.3,153.7L86.781,139.535a1.321,1.321,0,0,1,.409-1.977l34.347-19.829a1.741,1.741,0,0,1,2.216.459l10.518,14.168a8.262,8.262,0,0,0,2.037,2.057l22.2,12.633a.8.8,0,0,1,0,1.517l-34.346,19.83a2.91,2.91,0,0,1-2.628,0" fill="#455a64"/><path d="M87.19,137.558l34.346-19.829a1.744,1.744,0,0,1,2.218.459l10.518,14.168a7.726,7.726,0,0,0,1.074,1.119S98.38,154.832,98.369,154.822A7.867,7.867,0,0,1,97.3,153.7L86.78,139.535a1.321,1.321,0,0,1,.41-1.977" fill="#37474f"/><path d="M150.177,147.394a3.406,3.406,0,0,0-3.081,0,.939.939,0,0,0,0,1.779,3.4,3.4,0,0,0,3.081,0,.939.939,0,0,0,0-1.779" fill="#27debf"/><path d="M144.015,150.952a3.406,3.406,0,0,0-3.081,0,.939.939,0,0,0,0,1.779,3.406,3.406,0,0,0,3.081,0,.939.939,0,0,0,0-1.779" fill="#27debf"/><path d="M137.853,154.509a3.415,3.415,0,0,0-3.082,0,.939.939,0,0,0,0,1.779,3.4,3.4,0,0,0,3.082,0,.939.939,0,0,0,0-1.779" fill="#263238"/><path d="M131.691,158.067a3.4,3.4,0,0,0-3.081,0,.94.94,0,0,0,0,1.78,3.412,3.412,0,0,0,3.081,0,.94.94,0,0,0,0-1.78" fill="#263238"/><path d="M145.556,144.726a3.406,3.406,0,0,0-3.081,0,.939.939,0,0,0,0,1.779,3.406,3.406,0,0,0,3.081,0,.939.939,0,0,0,0-1.779" fill="#27debf"/><path d="M139.394,148.283a3.408,3.408,0,0,0-3.082,0,.939.939,0,0,0,0,1.779,3.4,3.4,0,0,0,3.082,0,.939.939,0,0,0,0-1.779" fill="#263238"/><path d="M133.231,151.841a3.406,3.406,0,0,0-3.081,0,.939.939,0,0,0,0,1.779,3.406,3.406,0,0,0,3.081,0,.939.939,0,0,0,0-1.779" fill="#27debf"/><path d="M127.069,155.4a3.406,3.406,0,0,0-3.081,0,.939.939,0,0,0,0,1.779,3.406,3.406,0,0,0,3.081,0,.939.939,0,0,0,0-1.779" fill="#263238"/><path d="M140.934,142.058a3.4,3.4,0,0,0-3.081,0,.938.938,0,0,0,0,1.778,3.4,3.4,0,0,0,3.081,0,.938.938,0,0,0,0-1.778" fill="#263238"/><path d="M134.772,145.615a3.406,3.406,0,0,0-3.081,0,.939.939,0,0,0,0,1.779,3.406,3.406,0,0,0,3.081,0,.939.939,0,0,0,0-1.779" fill="#27debf"/><path d="M128.61,149.173a3.408,3.408,0,0,0-3.082,0,.939.939,0,0,0,0,1.779,3.408,3.408,0,0,0,3.082,0,.939.939,0,0,0,0-1.779" fill="#263238"/><path d="M125.494,161.554a3.406,3.406,0,0,0-3.081,0,.939.939,0,0,0,0,1.779,3.406,3.406,0,0,0,3.081,0,.939.939,0,0,0,0-1.779" fill="#27debf"/><path d="M120.873,158.885a3.415,3.415,0,0,0-3.082,0,.94.94,0,0,0,0,1.78,3.408,3.408,0,0,0,3.082,0,.94.94,0,0,0,0-1.78" fill="#263238"/><path d="M122.448,152.733a3.406,3.406,0,0,0-3.081,0,.939.939,0,0,0,0,1.779,3.406,3.406,0,0,0,3.081,0,.939.939,0,0,0,0-1.779" fill="#263238"/><path d="M136.313,139.392a3.408,3.408,0,0,0-3.082,0,.939.939,0,0,0,0,1.779,3.408,3.408,0,0,0,3.082,0,.939.939,0,0,0,0-1.779" fill="#27debf"/><path d="M130.151,142.95a3.406,3.406,0,0,0-3.081,0,.939.939,0,0,0,0,1.779,3.406,3.406,0,0,0,3.081,0,.939.939,0,0,0,0-1.779" fill="#263238"/><path d="M123.989,146.507a3.406,3.406,0,0,0-3.081,0,.939.939,0,0,0,0,1.779,3.406,3.406,0,0,0,3.081,0,.939.939,0,0,0,0-1.779" fill="#27debf"/><path d="M117.827,150.065a3.406,3.406,0,0,0-3.081,0,.939.939,0,0,0,0,1.779,3.406,3.406,0,0,0,3.081,0,.939.939,0,0,0,0-1.779" fill="#263238"/><path d="M116.251,156.22a3.408,3.408,0,0,0-3.082,0,.939.939,0,0,0,0,1.779,3.408,3.408,0,0,0,3.082,0,.939.939,0,0,0,0-1.779" fill="#27debf"/><path d="M111.63,153.551a3.413,3.413,0,0,0-3.081,0,.939.939,0,0,0,0,1.779,3.4,3.4,0,0,0,3.081,0,.939.939,0,0,0,0-1.779" fill="#263238"/><path d="M122.777,168.707v4.733a2.735,2.735,0,0,0,1.386-.3L158.508,153.3a2.891,2.891,0,0,0,1.315-2.277v-1.709a2.922,2.922,0,0,0-1.072-2.1c.475.414.395.981-.243,1.346l-34.345,19.833a2.739,2.739,0,0,1-1.386.313" fill="#37474f"/><path d="M129.729,131.764l-.03-.042a1.161,1.161,0,0,0-1.477-.307L98.333,148.672a.878.878,0,0,0-.271,1.317l.03.041a1.165,1.165,0,0,0,1.481.305l29.881-17.252a.882.882,0,0,0,.275-1.319" fill="#263238"/><path d="M129.729,131.764l-.03-.042a1.161,1.161,0,0,0-1.477-.307L106,144.244l1.24,1.664,22.214-12.825a.882.882,0,0,0,.275-1.319" fill="#27debf"/><path d="M127.258,128.447l-.03-.041a1.161,1.161,0,0,0-1.477-.308L95.862,145.356a.877.877,0,0,0-.271,1.316l.031.042a1.167,1.167,0,0,0,1.48.306l29.882-17.254a.883.883,0,0,0,.274-1.319" fill="#263238"/><path d="M127.258,128.447l-.03-.041a1.161,1.161,0,0,0-1.477-.308l-7.43,4.287,1.241,1.664,7.422-4.283a.883.883,0,0,0,.274-1.319" fill="#27debf"/><path d="M124.787,125.131l-.03-.042a1.159,1.159,0,0,0-1.477-.307L93.391,142.039a.878.878,0,0,0-.271,1.317l.031.042a1.164,1.164,0,0,0,1.48.3l29.881-17.252a.882.882,0,0,0,.275-1.319" fill="#263238"/><path d="M124.787,125.131l-.03-.042a1.161,1.161,0,0,0-1.478-.308l-15.568,8.96,1.241,1.663,15.56-8.956a.881.881,0,0,0,.275-1.317" fill="#27debf"/><path d="M122.316,121.815l-.031-.042a1.158,1.158,0,0,0-1.475-.307L90.92,138.723a.878.878,0,0,0-.271,1.317l.03.041a1.165,1.165,0,0,0,1.481.305l29.881-17.252a.882.882,0,0,0,.275-1.319" fill="#263238"/><path d="M122.316,121.815l-.031-.042a1.158,1.158,0,0,0-1.475-.307L93.677,137.13l1.24,1.663,27.124-15.659a.883.883,0,0,0,.275-1.319" fill="#27debf"/><path d="M132.4,412.712l.011,7.534a.558.558,0,0,0,.515.55l3.929.249v5.536h0a.338.338,0,0,0,.192.281l4.142,2.392a1.046,1.046,0,0,0,.525.106v.009a.993.993,0,0,0,.392-.074l4.2-1.945a1.539,1.539,0,0,1,.96-.059,24.556,24.556,0,0,0,3.26.775.8.8,0,0,1,.606.59l.526,2.768a.623.623,0,0,0,.227.361v0a.623.623,0,0,0,.386.145h6.09a.6.6,0,0,0,.348-.132.658.658,0,0,0,.079-.071.624.624,0,0,0,.085-.077v-.062c.033-.058.089-.1.1-.166l.525-2.768a.793.793,0,0,1,.606-.589,25.03,25.03,0,0,0,3.26-.774,1.528,1.528,0,0,1,.961.057l4.2,1.945a1.021,1.021,0,0,0,.253.043v.027a1.2,1.2,0,0,0,.147,0c.04,0,.07,0,.11,0a.98.98,0,0,0,.4-.1l.01,0,4.142-2.392a.423.423,0,0,0,.147-.14l.008-.007a.258.258,0,0,0,.033-.111.085.085,0,0,0,0-.017h0v-1.319l0-.982v-.061l0-3.179h0l3.857-.245.072-.005c.039,0,.063-.037.1-.048a.552.552,0,0,0,.263-.126.57.57,0,0,0,.081-.194c.024-.06.071-.108.072-.174v-3.088h0l0-3.946v-3.082a.558.558,0,0,0-.516-.55l-3.931-.248,0-5.53,0,.006a.333.333,0,0,0-.192-.294l-4.142-2.391a1.11,1.11,0,0,0-.916-.041l-4.2,1.944a1.542,1.542,0,0,1-.961.058,25.062,25.062,0,0,0-3.259-.776.789.789,0,0,1-.607-.588l-.526-2.767a.647.647,0,0,0-.613-.509h-6.09a.649.649,0,0,0-.613.509l-.526,2.767a.789.789,0,0,1-.606.588,25.038,25.038,0,0,0-3.26.776,1.539,1.539,0,0,1-.96-.058l-4.2-1.944a1.112,1.112,0,0,0-.917.041l-4.142,2.391a.326.326,0,0,0-.19.3h0v5.519l-3.928.249a.557.557,0,0,0-.516.549V412.6a.567.567,0,0,0-.011.109m15.919,1.954a15.468,15.468,0,0,1,13.995,0c.293.17.562.342.813.518a8.847,8.847,0,0,1-.812.533,15.477,15.477,0,0,1-14,0,8.85,8.85,0,0,1-.809-.531c.247-.176.515-.35.809-.52" fill="#27debf"/><g opacity="0.3"><g clip-path="url(#al)"><path d="M132.394,412.712l.011,7.535a.558.558,0,0,0,.518.548l3.928.249v5.537a.342.342,0,0,0,.193.282l4.143,2.39a1.027,1.027,0,0,0,.524.109v.008a.974.974,0,0,0,.391-.075l4.2-1.945a1.287,1.287,0,0,1,.394-.1v0a1.48,1.48,0,0,1,.565.039,24.666,24.666,0,0,0,3.26.774.756.756,0,0,1,.257.107v.031a.744.744,0,0,1,.35.454l.526,2.766a.632.632,0,0,0,.226.362v0a.616.616,0,0,0,.387.143l6.09,0a.793.793,0,0,0,.112-.017.663.663,0,0,0,.4-.263v-.064c.034-.056.09-.1.1-.166l.526-2.766a.725.725,0,0,1,.246-.4v-.008a.782.782,0,0,1,.361-.186,24.614,24.614,0,0,0,3.259-.774,1.557,1.557,0,0,1,.641-.03v.016a1.323,1.323,0,0,1,.319.073l4.2,1.945a.931.931,0,0,0,.255.042v.027h0a1.105,1.105,0,0,0,.655-.109l0,0,4.141-2.39a.625.625,0,0,0,.089-.067.4.4,0,0,0,.067-.081.29.29,0,0,0,.037-.123v-.005l0-1.318v-1.044l0-3.178.719-.048,3.139-.2.07,0h0a.561.561,0,0,0,.515-.54v-7.039a.555.555,0,0,1-.515.548l-5.52.35a1.028,1.028,0,0,0-.747.495,8.2,8.2,0,0,1-1.172,1.628.435.435,0,0,0,.061.672l3.282,2.361a.31.31,0,0,1-.028.563l-4.141,2.392a1.122,1.122,0,0,1-.918.039l-4.2-1.945a1.541,1.541,0,0,0-.963-.056,25.309,25.309,0,0,1-3.259.776.787.787,0,0,0-.607.587l-.526,2.767a.649.649,0,0,1-.613.509h-6.09a.649.649,0,0,1-.613-.509l-.526-2.767a.789.789,0,0,0-.605-.587,25.1,25.1,0,0,1-3.262-.778,1.545,1.545,0,0,0-.959.058l-4.2,1.945a1.116,1.116,0,0,1-.915-.039l-4.143-2.392a.31.31,0,0,1-.028-.561l3.285-2.363a.439.439,0,0,0,.058-.675,8.347,8.347,0,0,1-1.172-1.625,1.019,1.019,0,0,0-.744-.495l-5.52-.347a.559.559,0,0,1-.515-.551V412.6a.519.519,0,0,0-.014.112"/></g></g><g opacity="0.3"><g clip-path="url(#am)"><path d="M136.851,403.82v5.519l1.592-.1a1.007,1.007,0,0,0,.744-.5,8.377,8.377,0,0,1,1.172-1.625.438.438,0,0,0-.058-.675l-3.285-2.361a.355.355,0,0,1-.162-.257Z"/></g></g><g opacity="0.4"><g clip-path="url(#an)"><path d="M147.508,415.189c.115-.083.232-.164.355-.245l.042-.026c.132-.084.266-.169.409-.25a15.458,15.458,0,0,1,14,0c.127.072.25.146.367.221.154.1.3.2.442.3,3.033-2.245,2.764-5.49-.809-7.551a15.446,15.446,0,0,0-13.993,0c-3.576,2.061-3.845,5.309-.809,7.551"/></g></g><g opacity="0.3"><g clip-path="url(#ao)"><path d="M170.265,407.117a8.17,8.17,0,0,1,1.171,1.625,1.015,1.015,0,0,0,.748.495l1.585.1.006-5.529a.357.357,0,0,1-.168.271l-3.28,2.361a.44.44,0,0,0-.062.675"/></g></g><path d="M168.522,401.088l-4.2,1.945a1.539,1.539,0,0,1-.96.058,24.836,24.836,0,0,0-3.26-.775.79.79,0,0,1-.606-.589l-.525-2.768a.649.649,0,0,0-.614-.508h-6.089a.651.651,0,0,0-.615.508l-.525,2.768a.791.791,0,0,1-.607.589,24.882,24.882,0,0,0-3.258.775,1.542,1.542,0,0,1-.961-.058l-4.2-1.945a1.118,1.118,0,0,0-.916.041l-4.143,2.392a.308.308,0,0,0-.026.56l3.281,2.362a.436.436,0,0,1,.061.673,8.388,8.388,0,0,0-1.172,1.626,1.02,1.02,0,0,1-.746.5l-5.519.349a.559.559,0,0,0-.515.55v3.079a.557.557,0,0,0,.514.55l5.52.349a1.016,1.016,0,0,1,.745.495,8.322,8.322,0,0,0,1.173,1.626.436.436,0,0,1-.061.673l-3.281,2.363a.308.308,0,0,0,.026.56l4.142,2.392a1.124,1.124,0,0,0,.917.041l4.2-1.946a1.546,1.546,0,0,1,.96-.058,24.7,24.7,0,0,0,3.259.776.791.791,0,0,1,.606.589l.526,2.768a.648.648,0,0,0,.614.507h6.089a.651.651,0,0,0,.615-.507l.525-2.768a.792.792,0,0,1,.605-.589,24.836,24.836,0,0,0,3.26-.775,1.542,1.542,0,0,1,.961.057l4.2,1.946a1.122,1.122,0,0,0,.916-.041l4.143-2.393a.307.307,0,0,0,.027-.559l-3.281-2.363a.436.436,0,0,1-.061-.673,8.186,8.186,0,0,0,1.171-1.626,1.018,1.018,0,0,1,.747-.495l5.52-.349a.559.559,0,0,0,.514-.55v-3.08a.558.558,0,0,0-.514-.549l-5.52-.349a1.026,1.026,0,0,1-.747-.5,8.245,8.245,0,0,0-1.171-1.626.436.436,0,0,1,.061-.673l3.282-2.362a.308.308,0,0,0-.028-.56l-4.143-2.392a1.114,1.114,0,0,0-.916-.041m-6.212,6.548c3.865,2.231,3.864,5.849,0,8.08a15.462,15.462,0,0,1-13.995,0c-3.864-2.231-3.864-5.849,0-8.08a15.468,15.468,0,0,1,13.995,0" fill="#27debf"/><path d="M173.774,419.548a.35.35,0,0,0-.167-.277l-1.651-1.19v-3.912a.818.818,0,0,1,.228-.056l5.52-.348a.556.556,0,0,0,.514-.549v7.04a.56.56,0,0,1-.514.539h0l-.07.006-3.14.2-.718.049s0-1.395,0-1.5" fill="#27debf"/><g opacity="0.2"><g clip-path="url(#ap)"><path d="M173.774,419.548a.35.35,0,0,0-.167-.277l-1.651-1.19v-3.912a.818.818,0,0,1,.228-.056l5.52-.348a.556.556,0,0,0,.514-.549v7.04a.56.56,0,0,1-.514.539h0l-.07.006-3.14.2-.718.049s0-1.395,0-1.5"/></g></g><path d="M164.008,420.235a1.234,1.234,0,0,1,.317.084l4.2,1.945a1.068,1.068,0,0,0,.538.068v7.032a1.2,1.2,0,0,1-.281,0h0v-.027a.924.924,0,0,1-.254-.042l-4.2-1.945a1.281,1.281,0,0,0-.314-.072Z" fill="#27debf"/><g opacity="0.2"><g clip-path="url(#aq)"><path d="M164.008,420.235a1.234,1.234,0,0,1,.317.084l4.2,1.945a1.068,1.068,0,0,0,.538.068v7.032a1.2,1.2,0,0,1-.281,0h0v-.027a.924.924,0,0,1-.254-.042l-4.2-1.945a1.281,1.281,0,0,0-.314-.072Z"/></g></g><path d="M158.892,424.59a.589.589,0,0,0,.078-.2l.526-2.767a.684.684,0,0,1,.082-.211v7.037a.588.588,0,0,0-.082.2l-.526,2.767a.32.32,0,0,1-.078.134Z" fill="#27debf"/><g opacity="0.2"><g clip-path="url(#ar)"><path d="M158.892,424.59a.589.589,0,0,0,.078-.2l.526-2.767a.684.684,0,0,1,.082-.211v7.037a.588.588,0,0,0-.082.2l-.526,2.767a.32.32,0,0,1-.078.134Z"/></g></g><g opacity="0.15"><g clip-path="url(#as)"><path d="M151.047,421.418a.657.657,0,0,1,.081.208l.525,2.767a.6.6,0,0,0,.08.2v7.029a.59.59,0,0,1-.08-.2l-.525-2.766a.529.529,0,0,0-.081-.189Z"/></g></g><g opacity="0.15"><g clip-path="url(#at)"><path d="M141.565,422.331a1.044,1.044,0,0,0,.538-.067l4.2-1.945a1.224,1.224,0,0,1,.316-.085v7.034a1.159,1.159,0,0,0-.316.083l-4.2,1.944a.979.979,0,0,1-.392.075v-.009a1.413,1.413,0,0,1-.146-.005Z"/></g></g><g opacity="0.15"><g clip-path="url(#au)"><path d="M132.923,413.768l5.52.346a.765.765,0,0,1,.228.055v3.913l-1.655,1.191a.347.347,0,0,0-.164.276c0,.106,0,1.495,0,1.495l-3.928-.249a.558.558,0,0,1-.518-.549l-.011-7.534a.519.519,0,0,1,.014-.112v.616a.562.562,0,0,0,.515.552"/></g></g><path d="M213.167,391.055v-.007l0,0a.2.2,0,0,0-.028-.1v0c0-1.746,0-4.773,0-4.963,0,0,0,0,0-.009a.4.4,0,0,0-.086-.238l-1.55-2.162a.736.736,0,0,0-.639-.3l-4.051.679a1.24,1.24,0,0,1-.775-.22c-.252-.174-.523-.345-.8-.506l.005-3.224,0,0c0-.129-.123-.253-.323-.3l-4.113-.982a.764.764,0,0,0-.663.125l-1.967,2.069a.934.934,0,0,1-.646.2,21.568,21.568,0,0,0-2.679.005,1.055,1.055,0,0,1-.723-.314l-1.761-1.853a.815.815,0,0,0-.687-.253l-4.276,1.021a.279.279,0,0,0-.221.281v.016c0,.177,0,1.706,0,3.194a10.535,10.535,0,0,0-.953.607,1.1,1.1,0,0,1-.705.12l-3.925-.661a.691.691,0,0,0-.623.182l-1.7,2.374a.176.176,0,0,0-.036.106v.017c0,.36-.01,6.132-.01,6.167a.219.219,0,0,0,.033.1c0,1.775,0,4.888-.007,4.963a.43.43,0,0,0,.088.251l1.55,2.162a.738.738,0,0,0,.639.3l4.05-.681a1.264,1.264,0,0,1,.775.22c.253.177.522.345.805.509l0,3.21c-.008.132.12.26.324.309l4.11.982a.766.766,0,0,0,.666-.124l1.968-2.07a.921.921,0,0,1,.646-.2,22.15,22.15,0,0,0,2.678,0,1.058,1.058,0,0,1,.722.312l1.763,1.855a.821.821,0,0,0,.687.253l4.274-1.024a.271.271,0,0,0,.218-.234c.012-.07.007-3.257.007-3.257a11.039,11.039,0,0,0,.953-.605,1.087,1.087,0,0,1,.7-.122l3.926.664a.689.689,0,0,0,.622-.185l1.7-2.374a.187.187,0,0,0,.037-.108c0-.114.007-5.958.006-6.175Zm-22.886.126q.28-.2.61-.39a11.753,11.753,0,0,1,10.636,0c.213.124.415.253.6.381a5.728,5.728,0,0,1-.645.421,11.853,11.853,0,0,1-8.158.919,9.13,9.13,0,0,1-2.412-.924,6.119,6.119,0,0,1-.628-.407" fill="#27debf"/><g opacity="0.3"><g clip-path="url(#av)"><path d="M213.167,391.055v-.007l0,0a.2.2,0,0,0-.028-.1v0c0-1.746,0-4.773,0-4.963,0,0,0,0,0-.009a.4.4,0,0,0-.086-.238l-1.55-2.162a.736.736,0,0,0-.639-.3l-4.051.679a1.24,1.24,0,0,1-.775-.22c-.252-.174-.523-.345-.8-.506l.005-3.224,0,0c0-.129-.123-.253-.323-.3l-4.113-.982a.764.764,0,0,0-.663.125l-1.967,2.069a.934.934,0,0,1-.646.2,21.568,21.568,0,0,0-2.679.005,1.055,1.055,0,0,1-.723-.314l-1.761-1.853a.815.815,0,0,0-.687-.253l-4.276,1.021a.279.279,0,0,0-.221.281v.016c0,.177,0,1.706,0,3.194a10.535,10.535,0,0,0-.953.607,1.1,1.1,0,0,1-.705.12l-3.925-.661a.691.691,0,0,0-.623.182l-1.7,2.374a.176.176,0,0,0-.036.106v.017c0,.36-.01,6.132-.01,6.167a.219.219,0,0,0,.033.1c0,1.775,0,4.888-.007,4.963a.43.43,0,0,0,.088.251l1.55,2.162a.738.738,0,0,0,.639.3l4.05-.681a1.264,1.264,0,0,1,.775.22c.253.177.522.345.805.509l0,3.21c-.008.132.12.26.324.309l4.11.982a.766.766,0,0,0,.666-.124l1.968-2.07a.921.921,0,0,1,.646-.2,22.15,22.15,0,0,0,2.678,0,1.058,1.058,0,0,1,.722.312l1.763,1.855a.821.821,0,0,0,.687.253l4.274-1.024a.271.271,0,0,0,.218-.234c.012-.07.007-3.257.007-3.257a11.039,11.039,0,0,0,.953-.605,1.087,1.087,0,0,1,.7-.122l3.926.664a.689.689,0,0,0,.622-.185l1.7-2.374a.187.187,0,0,0,.037-.108c0-.114.007-5.958.006-6.175Zm-22.886.126q.28-.2.61-.39a11.753,11.753,0,0,1,10.636,0c.213.124.415.253.6.381a5.728,5.728,0,0,1-.645.421,11.853,11.853,0,0,1-8.158.919,9.13,9.13,0,0,1-2.412-.924,6.119,6.119,0,0,1-.628-.407"/></g></g><path d="M179.229,385.948l0,.011v-.015a.217.217,0,0,1,.005-.042.153.153,0,0,0-.008.046" fill="#27debf"/><g opacity="0.3"><g clip-path="url(#aw)"><path d="M188.121,382.735q-.492.228-.946.485c0-1.489,0-3.016,0-3.2a.407.407,0,0,0,.047.166l1.024,2.028a.372.372,0,0,1-.128.517"/></g></g><g opacity="0.15"><g clip-path="url(#ax)"><path d="M183.406,387.811a4.212,4.212,0,0,0-.005,1.34.431.431,0,0,1-.275.472l-3.7,1.17a.239.239,0,0,0-.174.235c0,.076,0,1.2,0,1.2a.231.231,0,0,1-.031-.089c0-2.1.009-5.613.009-5.92v-.258c.006.112.117.222.3.277l3.494,1.108a.48.48,0,0,1,.383.462"/></g></g><g opacity="0.15"><g clip-path="url(#ay)"><path d="M185.723,393.04v6.183a.6.6,0,0,0-.148,0l-4.052.68a.516.516,0,0,1-.207-.017v-6.175a.519.519,0,0,0,.216.014l4.051-.683a.579.579,0,0,1,.14-.005"/></g></g><g opacity="0.25"><g clip-path="url(#az)"><path d="M187.153,399.953c-.28-.163-.551-.33-.8-.506a1.435,1.435,0,0,0-.627-.224V393.04a1.379,1.379,0,0,1,.632.23,12.448,12.448,0,0,0,1.643.942c.24.117.375.327.3.487l-1.113,2.2a.212.212,0,0,0-.023.092c0,.128-.005,2.958-.005,2.958"/></g></g><g opacity="0.15"><g clip-path="url(#ba)"><path d="M194.466,395.94v6.181a.638.638,0,0,0-.249.14l-1.967,2.071a.607.607,0,0,1-.358.142v-6.18a.581.581,0,0,0,.366-.14l1.97-2.073a.641.641,0,0,1,.238-.141"/></g></g><g opacity="0.25"><g clip-path="url(#bb)"><path d="M197.8,395.916v6.18a.8.8,0,0,0-.257-.039,22.621,22.621,0,0,1-2.681,0,1.03,1.03,0,0,0-.4.061v-6.18a1.085,1.085,0,0,1,.406-.062,21.753,21.753,0,0,0,2.678,0,.688.688,0,0,1,.251.039"/></g></g><g opacity="0.15"><g clip-path="url(#bc)"><path d="M200.419,398.274v6.178a.893.893,0,0,1-.392-.229l-1.761-1.856a1.115,1.115,0,0,0-.466-.27v-6.181a1.115,1.115,0,0,1,.473.274l1.764,1.852a.9.9,0,0,0,.382.232"/></g></g><path d="M205.215,397.047v2.914h0s0,.526,0,1.155v.549c0,.77,0,1.52-.008,1.554a.275.275,0,0,1-.219.234l-4.274,1.022a.6.6,0,0,1-.294-.023v-6.178a.593.593,0,0,0,.3.023L205,397.273a.267.267,0,0,0,.218-.226" fill="#27debf"/><g opacity="0.2"><g clip-path="url(#bd)"><path d="M205.215,397.047v2.914h0s0,.526,0,1.155v.549c0,.77,0,1.52-.008,1.554a.275.275,0,0,1-.219.234l-4.274,1.022a.6.6,0,0,1-.294-.023v-6.178a.593.593,0,0,0,.3.023L205,397.273a.267.267,0,0,0,.218-.226"/></g></g><g opacity="0.15"><g clip-path="url(#be)"><path d="M206.594,393.048v6.181a.91.91,0,0,0-.428.128,10.988,10.988,0,0,1-.954.6s.006-2.832,0-2.968a.412.412,0,0,0-.044-.176l-1.027-2.035a.366.366,0,0,1,.129-.513,12.09,12.09,0,0,0,1.9-1.089.868.868,0,0,1,.42-.132"/></g></g><path d="M213.166,391.057c0,.215-.005,6.059-.005,6.174a.222.222,0,0,1-.039.109l-1.7,2.372a.493.493,0,0,1-.291.168V393.7a.529.529,0,0,0,.3-.17l1.7-2.375a.162.162,0,0,0,.036-.1" fill="#27debf"/><path d="M213.166,391.057c0,.215-.005,6.059-.005,6.174a.222.222,0,0,1-.039.109l-1.7,2.372a.493.493,0,0,1-.291.168V393.7a.529.529,0,0,0,.3-.17l1.7-2.375a.162.162,0,0,0,.036-.1" fill="#27debf"/><g opacity="0.2"><g clip-path="url(#bf)"><path d="M213.166,391.057c0,.215-.005,6.059-.005,6.174a.222.222,0,0,1-.039.109l-1.7,2.372a.493.493,0,0,1-.291.168V393.7a.529.529,0,0,0,.3-.17l1.7-2.375a.162.162,0,0,0,.036-.1"/></g></g><path d="M187.18,380.011v.014a.374.374,0,0,0,.047.165l1.023,2.03a.368.368,0,0,1-.128.514q-.492.231-.946.486a10.5,10.5,0,0,0-.951.607,1.091,1.091,0,0,1-.705.119l-3.926-.66a.686.686,0,0,0-.622.183l-1.7,2.374a.172.172,0,0,0-.037.1v.019c.007.11.119.219.3.274l3.494,1.11a.476.476,0,0,1,.382.463,4.194,4.194,0,0,0,0,1.337.43.43,0,0,1-.274.473l-3.7,1.171a.235.235,0,0,0-.175.233.45.45,0,0,0,.088.241l1.552,2.16a.73.73,0,0,0,.64.3l4.049-.683a1.232,1.232,0,0,1,.772.224,12.127,12.127,0,0,0,1.643.942c.241.119.375.329.295.486L187.18,396.9c-.078.159.056.33.3.392l4.113.981a.766.766,0,0,0,.664-.123l1.97-2.071a.932.932,0,0,1,.645-.2,21.736,21.736,0,0,0,2.677,0,1.057,1.057,0,0,1,.724.313l1.764,1.853a.821.821,0,0,0,.685.255L205,397.273a.3.3,0,0,0,.173-.457l-1.025-2.032a.369.369,0,0,1,.129-.515,12.163,12.163,0,0,0,1.9-1.09,1.072,1.072,0,0,1,.7-.122l3.928.659a.69.69,0,0,0,.624-.182l1.7-2.373a.161.161,0,0,0,.037-.105h0l0-.008a.22.22,0,0,0-.027-.1v0a.48.48,0,0,0-.268-.186l-3.5-1.106c-.246-.079-.412-.283-.381-.463a4.344,4.344,0,0,0,0-1.337.427.427,0,0,1,.273-.473l3.7-1.173a.235.235,0,0,0,.17-.225s0,0,0-.009a.407.407,0,0,0-.086-.238l-1.551-2.162a.741.741,0,0,0-.638-.3l-4.053.68a1.244,1.244,0,0,1-.773-.221c-.252-.173-.523-.344-.8-.5-.265-.153-.547-.3-.838-.44-.24-.114-.376-.326-.295-.481l1.115-2.21a.188.188,0,0,0,.019-.087c.005-.129-.121-.253-.322-.3l-4.114-.982a.76.76,0,0,0-.661.125l-1.968,2.07a.932.932,0,0,1-.647.2,21.531,21.531,0,0,0-2.677,0,1.056,1.056,0,0,1-.724-.313l-1.762-1.853a.81.81,0,0,0-.687-.253l-4.275,1.021a.28.28,0,0,0-.22.282m15.55,6.345c.037.038.071.072.105.11s.049.053.074.078c.052.061.1.122.151.185s.109.148.16.223c.031.047.061.1.09.144.013.022.026.046.04.068a2.66,2.66,0,0,1-.206,3,4.55,4.55,0,0,1-1.02,1.01,5.821,5.821,0,0,1-.645.421,11.865,11.865,0,0,1-8.159.92,9.163,9.163,0,0,1-2.41-.925,6.31,6.31,0,0,1-.629-.407A4.245,4.245,0,0,1,189,389.753c0-.007-.006-.012-.009-.02-.014-.027-.029-.054-.042-.084a.944.944,0,0,1-.039-.088.7.7,0,0,1-.039-.1,2.651,2.651,0,0,1,.382-2.625c1.59-2.216,5.99-3.268,9.824-2.35a7.566,7.566,0,0,1,3.655,1.865" fill="#27debf"/><path d="M236.846,372.185c-.847.48-2.435.462-2.939,1.042v2.084l9.682-1.414,3.66,2.145-1.391,2.908-9.775-.653v2.085c.206.145.423.284.656.421a16.491,16.491,0,0,0,14.922.066c2.1-1.192,3.141-2.761,3.142-4.332h0V374.46l-.577.092c-.023-.038-.041-.077-.065-.114l36.634-21.152a16.571,16.571,0,0,0,11.029-1.379,6.16,6.16,0,0,0,2.941-3.127V346.7l-9.683,3.5-3.661-2.147,1.391-2.907,9.776-1.433v-2.084s-11.426-.763-15.578,1.6a6.787,6.787,0,0,0-2.588,2.392l-.553-.2v2.069l0,0a3.87,3.87,0,0,0,.637,2.176L247.874,370.8a16.563,16.563,0,0,0-11.028,1.38" fill="#37474f"/><path d="M290.794,353.286V351.2l-36.635,21.15v2.085Z" fill="#37474f"/><path d="M284.51,347.569l-36.635,21.152a16.568,16.568,0,0,0-11.028,1.379,6.148,6.148,0,0,0-2.94,3.126l9.682-1.414,3.66,2.145-1.391,2.908-9.776,1.432c.206.146.423.284.656.421a16.488,16.488,0,0,0,14.922.066c3.044-1.73,3.873-4.26,2.5-6.431L290.8,351.2a16.568,16.568,0,0,0,11.028-1.379,6.142,6.142,0,0,0,2.94-3.127l-9.682,1.415-3.66-2.146,1.391-2.907,9.776-1.433c-.206-.144-.423-.284-.655-.421a16.5,16.5,0,0,0-14.923-.065c-3.044,1.73-3.873,4.26-2.5,6.431" fill="#455a64"/><path d="M292.2,346.42l-.778-.456,1.392-2.907,9.775-1.433v2.084l-9.775,1.433Z" fill="#263238"/><path d="M246.47,375.586l.779-1.628-3.661-2.147-9.681,1.414v2.085l9.682-1.415Z" fill="#263238"/><path d="M259.263,402.962l7.654,13.259,25.831-14.913c1.061-.53,1.729-1.767,1.729-3.576a11.976,11.976,0,0,0-5.418-9.382,3.8,3.8,0,0,0-3.834-.377Z" fill="#27debf"/><path d="M257.723,405.711l0-.006c-.113,2.02-2.972,2.455-2.972,2.455l5.418,9.384s1.806-2.227,3.611-1.347l0-.007c2.67,1.156,4.738-.277,4.738-3.465a11.977,11.977,0,0,0-5.418-9.384c-2.761-1.593-5.035-.52-5.37,2.37" fill="#27debf"/><g opacity="0.05"><g clip-path="url(#bg)"><path d="M257.723,405.711l0-.006c-.113,2.02-2.972,2.455-2.972,2.455l5.418,9.384s1.806-2.227,3.611-1.347l0-.007c2.67,1.156,4.738-.277,4.738-3.465a11.977,11.977,0,0,0-5.418-9.384c-2.761-1.593-5.035-.52-5.37,2.37"/></g></g><g opacity="0.05"><g clip-path="url(#bh)"><path d="M256.045,407.757a5.61,5.61,0,0,1-1.3.4l5.418,9.384a5.62,5.62,0,0,1,1-.912,12.112,12.112,0,0,0-5.118-8.875"/></g></g><path d="M249.111,408.823l.453.783a5.7,5.7,0,0,0-.234,1.682,11.974,11.974,0,0,0,5.417,9.383,5.752,5.752,0,0,0,1.571.638l.454.785,1.806-1.043a3.807,3.807,0,0,0,1.587-3.507,11.978,11.978,0,0,0-5.418-9.384,3.8,3.8,0,0,0-3.83-.379Z" fill="#27debf"/><path d="M258.359,418.586a11.974,11.974,0,0,0-5.418-9.384c-2.992-1.727-5.417-.326-5.417,3.128a11.976,11.976,0,0,0,5.417,9.384c2.993,1.726,5.418.327,5.418-3.128" fill="#27debf"/><g opacity="0.15"><g clip-path="url(#bi)"><path d="M258.359,418.586a11.974,11.974,0,0,0-5.418-9.384c-2.992-1.727-5.417-.326-5.417,3.128a11.976,11.976,0,0,0,5.417,9.384c2.993,1.726,5.418.327,5.418-3.128"/></g></g><g opacity="0.15"><g clip-path="url(#bj)"><path d="M250.83,420a10.024,10.024,0,0,0,1.345,1.2l1.268-3.616-1.529-1.126Z"/></g></g><g opacity="0.2"><g clip-path="url(#bk)"><path d="M290.069,394.019h0a1.493,1.493,0,0,1-.547,2.039L271.071,406.71a1.493,1.493,0,1,1-1.493-2.586l18.451-10.653a1.5,1.5,0,0,1,2.04.548"/></g></g><g opacity="0.2"><g clip-path="url(#bl)"><path d="M286.739,390.05h0a.874.874,0,0,1-.065,1.531l-18.8,10.853a2.043,2.043,0,0,1-2.174-.239.874.874,0,0,1,.066-1.53l18.8-10.853a2.047,2.047,0,0,1,2.174.238"/></g></g><g opacity="0.2"><g clip-path="url(#bm)"><path d="M291.841,398.886h0a.875.875,0,0,0-1.36-.709l-18.8,10.852a2.045,2.045,0,0,0-.881,2,.874.874,0,0,0,1.359.708l18.8-10.851a2.047,2.047,0,0,0,.881-2"/></g></g><path d="M205.434,440.469v3.612l9.028-2.935s1.807-3.321,3.613-4.364l34.311-19.808,1.057-3-1.057-.613-34.311,19.81a3.606,3.606,0,0,1-3.613-.192Z" fill="#455a64"/><path d="M206.491,441.081v3.612l9.029-2.935s1.806-3.32,3.612-4.363l34.311-19.809v-3.612l-34.311,19.809a3.608,3.608,0,0,1-3.612-.191Z" fill="#37474f"/><path d="M206.491,444.693l-1.058-.611v-3.613l1.058.613Z" fill="#263238"/><path d="M205.434,440.469l1.058.612,9.029-7.49-1.058-.611Z" fill="#455a64"/><path d="M357.558,210c5.842-6.017,16.415-19.636,16.415-19.636l5.977-20.706c.146.058-3.049.068-4.01.01-6.458.432-8.363.981-12.38,5.38-3.191,3.492-15.365,20.119-19.6,25.709l-11.231-14.305c-2.69-4.073-2.254-8.625-3.651-11.948s-3.654-4.79-5.463-7.795-2.237-4.961-3.722-3.43.228,5.677.452,6.62,2.484,3.75-1.3,2.292-9.625-8.377-11.134-9.789-2.3.777-1.959,2.5-1.284,5.635-.7,8.5c.624,3.037,1.073,4.425,4,7.374,2.726,2.748,9.4,6.117,12.012,9.718s8.183,14.81,11.588,21.563c4.327,8.584,8.015,11.413,12.882,8.523s9.643-8.35,11.809-10.58" fill="#ffa8a7"/><path d="M378.045,169.465a21.532,21.532,0,0,0-9.738,1.324c-3.507,1.585-5.887,4.968-9.309,9.562s-12.011,15.631-12.011,15.631a25.775,25.775,0,0,1,10.427,14.653l20.9-23.1Z" fill="#e0e0e0"/><path d="M343.964,200.759a13.674,13.674,0,0,1,4.078,7.538s1.261-4.142-3.11-8.816Z" fill="#f28f8f"/><path d="M398.156,169.391c2.272.547,8.378,1.327,12.4,2.478,2.964.849,5.957,4.534,6.575,7.254,1.978,8.711.226,14.192-.523,21.819s-.783,45.7-.783,45.7c-4.231,8.265-36.284,9.938-51.793-1.387,0,0,1.9-50.68,1.9-58.568s4.383-17.367,16.485-18.069Z" fill="#f5f5f5"/><path d="M384.462,144.434a1.673,1.673,0,1,0,1.672-1.742,1.7,1.7,0,0,0-1.672,1.742" fill="#263238"/><path d="M386.134,138.77l3.459,1.91a2.075,2.075,0,0,0-.806-2.755,1.927,1.927,0,0,0-2.653.845" fill="#263238"/><path d="M384.88,154.654l-3.866,1.451a2.029,2.029,0,0,0,2.626,1.281,2.163,2.163,0,0,0,1.24-2.732" fill="#f28f8f"/><path d="M371.1,140.163l3.155-2.431a1.914,1.914,0,0,0-2.743-.42,2.092,2.092,0,0,0-.412,2.851" fill="#263238"/><path d="M371.809,144.434a1.619,1.619,0,1,0,1.618-1.685,1.645,1.645,0,0,0-1.618,1.685" fill="#263238"/><path d="M380.585,141.636l-.557,10.184-5.317-1.812Z" fill="#f28f8f"/><path d="M384.477,142.09l23.817-1.757c4.6,3.486,13.166,10.824,13.157,12.858V154.6a.449.449,0,0,1-.047.175c-.843,1.605-3.879,2.59-8.611,2.671-5.611.1-14.318-.417-16.608-2.383-3.449-2.961-11.707-11.635-11.707-11.635l1.2-.088c-.742-.77-1.2-1.252-1.2-1.252" fill="#27debf"/><g opacity="0.2"><g clip-path="url(#bn)"><path d="M384.477,142.09l23.817-1.757c4.6,3.486,13.166,10.824,13.157,12.858V154.6a.449.449,0,0,1-.047.175c-.843,1.605-3.879,2.59-8.611,2.671-5.611.1-14.318-.417-16.608-2.383-3.449-2.961-11.707-11.635-11.707-11.635l1.2-.088c-.742-.77-1.2-1.252-1.2-1.252"/></g></g><path d="M408.294,141.673c4.808,3.643,13.953,11.5,13.109,13.1s-3.88,2.59-8.611,2.67c-5.611.1-14.318-.417-16.608-2.382-3.449-2.96-11.707-11.635-11.707-11.635Z" fill="#27debf"/><g opacity="0.4"><g clip-path="url(#bo)"><path d="M408.294,141.673c4.808,3.643,13.953,11.5,13.109,13.1s-3.88,2.59-8.611,2.67c-5.611.1-14.318-.417-16.608-2.382-3.449-2.96-11.707-11.635-11.707-11.635Z"/></g></g><path d="M408.294,141.673c.076.691-2.356,2.129-2.356,2.129l.681-4.181Z" fill="#27debf"/><g opacity="0.3"><g clip-path="url(#bp)"><path d="M408.294,141.673c.076.691-2.356,2.129-2.356,2.129l.681-4.181Z"/></g></g><path d="M402.034,127.763s3.721.518,5.084,3.322c1.188,2.438.757,8.325-.824,14.74a59.256,59.256,0,0,1-4,12.057,4.9,4.9,0,0,1-2.84,2.274l.186-7.613.275-5.3s-3.4-4.649-3.779-8.46c-.482-4.905.55-6.912.55-6.912Z" fill="#263238"/><path d="M396.027,135.128a14.213,14.213,0,0,1-14.26,14.169c-7.851-.024-13.737-6.464-13.711-14.316s5.951-14.14,13.8-14.114a14.215,14.215,0,0,1,14.169,14.261" fill="#263238"/><path d="M399.715,146.392c1.279,1.109,2.32-1.762,3.395-2.881s4.585-2.642,6.322,1.045c1.767,3.758-1.532,9.042-4.23,10.079a3.847,3.847,0,0,1-4.581-1.4V170.1c-4.045,7.288-11.186,7.064-15,6.654s-4.65-4.376-1.863-7.574l.03-5.218a29.984,29.984,0,0,1-6.407.309c-3.493-.552-5.32-3.187-6.367-6.974-1.684-6.081-2.36-16.3-.021-28.111,3.912-3.026,17.481-2.525,25.69,2.68-.6,10.472,1.749,13.415,3.029,14.525" fill="#ffa8a7"/><path d="M372.464,124.024a16.72,16.72,0,0,1,5.763-3.976,14.7,14.7,0,0,1,5.557-1.182c2.479.013,4.944-.365,7.425-.286,4.3.136,9.5,1.888,11.439,6.073.89,1.914,1.042,3.932-.714,5.256a12.106,12.106,0,0,1-5.248,1.957c-3.186.555-6.346,1.258-9.555,1.682a28.517,28.517,0,0,1-10.356-.148,13.785,13.785,0,0,1-4.5-1.919,12.2,12.2,0,0,1-1.94-1.622c-.228-.233-.832-.712-.9-1.033-.08-.35.342-.947.506-1.261a15.869,15.869,0,0,1,2.526-3.541" fill="#263238"/><path d="M383.791,163.963s7.807-1.545,10.539-2.986a8.985,8.985,0,0,0,3.782-3.719,12.281,12.281,0,0,1-2.156,4.393c-2,2.543-12.172,4.389-12.172,4.389Z" fill="#f28f8f"/><path d="M385.9,143.759a1.648,1.648,0,1,0,1.652-1.71,1.673,1.673,0,0,0-1.652,1.71" fill="#263238"/><path d="M382.139,156.421a1.648,1.648,0,1,0,1.652-1.71,1.673,1.673,0,0,0-1.652,1.71" fill="#f28f8f"/><path d="M388.153,137.386l3.165,2.484a2.111,2.111,0,0,0-.36-2.9,1.963,1.963,0,0,0-2.8.416" fill="#263238"/><path d="M371.307,139.916l3.06-2.66a1.946,1.946,0,0,0-2.812-.262,2.129,2.129,0,0,0-.248,2.922" fill="#263238"/><path d="M372.35,143.268a1.648,1.648,0,1,0,1.652-1.71,1.673,1.673,0,0,0-1.652,1.71" fill="#263238"/><path d="M381.394,140.446l-.623,11.688-5.543-1.468Z" fill="#f28f8f"/><path d="M409.313,135.879a20.847,20.847,0,0,1-1.013,5.916,7.385,7.385,0,0,0-1.456-1.658,35.28,35.28,0,0,0-10.711-6.13h-.017c-9-3.473-19.5-4.015-27.882-1.057a18.858,18.858,0,0,1,1.118-5.034c3.063-7.975,9.246-12.155,19.125-11.128,11.586,1.2,21.142,7.635,20.836,19.092" fill="#27debf"/><path d="M388.1,128.826c-2.69-.905-9.55-1.437-11.556-.807a12.333,12.333,0,0,1-2.409-2.657c-.941-1.49-.619-3.366.261-3.747s.939.773,4.353,2.463a5.621,5.621,0,0,1-.28-3.445c.554-1.385,1.727,1.1,4.264,2.7s5.043,2.419,5.367,5.49" fill="#263238"/><path d="M423.2,162.72c2.238-1.844,15.818,14.254,10.14,18.881s-12.618-7.043-11.683-12.741,1.543-6.14,1.543-6.14" fill="#37474f"/><path d="M434.122,153.678c-3.4-4.173-12.436-14.192-14.435-15.991-1.937-1.742-3.2-1.568-4.442-1.976a10.326,10.326,0,0,1-3.7-2.319,22.624,22.624,0,0,1-1.793-2.1A32.43,32.43,0,0,0,402.961,125c-2.678-1.847-5.623-3.217-8.365-4.968-1.635-1.046-3.416-2.82-1.555-4.626a4.515,4.515,0,0,1,2.024-1.073c4.65-1.223,8.814.224,13.454,1.205a38.056,38.056,0,0,1,5.927,1.73,10.113,10.113,0,0,1,2.652,1.376,37.2,37.2,0,0,1,4.352,4.4c3.194,3.913,5.886,5.125,9.015,7.829,3.67,3.173,20.111,14.806,23.587,18.267,2.875,2.864,1.972,5.237,1.615,6.058-2.048,4.7-4.487,6.461-7.365,9.443q-1.428,1.479-2.873,2.942c-3.738,3.8-7.495,7.362-11.395,10.993-4.166,3.88-5.868,5.745-9.572,9.476a29.515,29.515,0,0,0-5.6,8.276c-6.71,1.528-11.283-12.667-8.893-20.9a10.719,10.719,0,0,1,3.9-5.128c6.844-5.447,20.253-16.624,20.253-16.624" fill="#ffa8a7"/><path d="M434.122,153.678a17.88,17.88,0,0,0,8.5,5.342s-4.267,1.282-10.394-3.77Z" fill="#f28f8f"/><path d="M410.554,171.869c1.524-1.2,5.242-3.76,12.644-9.149,0,0-1.04,2.565,1.209,8.7s6.425,9.873,8.931,10.178c0,0-4.107,3.66-7.851,7.741s-6.85,7.006-8.882,11.6c0,0-5.763-1.122-7.62-10.661-1.3-6.7-1.235-14.653,1.569-18.413" fill="#e0e0e0"/><path d="M397.624,415.782c-.359.375-.138,3.138.312,3.77.487.678,2.988,2.724,7.647,2.806,4.45.08,8.378-.732,10.893-2.525s3.676-3.684,3.785-6.223-.3-4.961.8-6.969c1.015-1.856,2.406-3.685,2.739-4.679a12.723,12.723,0,0,0,.025-5.436Z" fill="#263238"/><path d="M408.421,394.36a12,12,0,0,1-.391,2.838,25.707,25.707,0,0,1-2.417,5.7,22.618,22.618,0,0,1-1.708,2.708c-1.256,1.669-2.85,3.069-4.188,4.675a9.088,9.088,0,0,0-2.446,5.591c0,3.488,3.838,4.467,6.771,4.827a21.347,21.347,0,0,0,9.419-.981,8.687,8.687,0,0,0,5.988-7.273c.109-.973,0-1.959.058-2.935a13.661,13.661,0,0,1,2.378-6.232,18.321,18.321,0,0,0,1.9-3.423c.791-2.2-.066-4.584-.762-6.7-.6-1.826-1.078-4.025-1.72-3.815.016.373.016,1.189.016,1.189-.191.415-.656.712-.765,1.19a8.571,8.571,0,0,1-.451,1.461,3.8,3.8,0,0,1-1.452,1.786l-.342-3.933a1.378,1.378,0,0,0-1.5-1.562,24.682,24.682,0,0,0-7.473-.216,1.373,1.373,0,0,0-.976.49,1.451,1.451,0,0,0-.118.9,33.424,33.424,0,0,1,.185,3.712" fill="#27debf"/><g opacity="0.2"><g clip-path="url(#bq)"><path d="M408.421,394.36a12,12,0,0,1-.391,2.838,25.707,25.707,0,0,1-2.417,5.7,22.618,22.618,0,0,1-1.708,2.708c-1.256,1.669-2.85,3.069-4.188,4.675a9.088,9.088,0,0,0-2.446,5.591c0,3.488,3.838,4.467,6.771,4.827a21.347,21.347,0,0,0,9.419-.981,8.687,8.687,0,0,0,5.988-7.273c.109-.973,0-1.959.058-2.935a13.661,13.661,0,0,1,2.378-6.232,18.321,18.321,0,0,0,1.9-3.423c.791-2.2-.066-4.584-.762-6.7-.6-1.826-1.078-4.025-1.72-3.815.016.373.016,1.189.016,1.189-.191.415-.656.712-.765,1.19a8.571,8.571,0,0,1-.451,1.461,3.8,3.8,0,0,1-1.452,1.786l-.342-3.933a1.378,1.378,0,0,0-1.5-1.562,24.682,24.682,0,0,0-7.473-.216,1.373,1.373,0,0,0-.976.49,1.451,1.451,0,0,0-.118.9,33.424,33.424,0,0,1,.185,3.712"/></g></g><path d="M405.185,403.655c1.243-1.04,4.143-1.209,5.739-1.125a9.654,9.654,0,0,1,4.6,1.341,1.031,1.031,0,0,0,1.323-.176.969.969,0,0,0-.178-1.472,9.81,9.81,0,0,0-5.177-1.609c-3.919-.063-5.028.666-5.028.666s-1.72,1.243-1.274,2.375" fill="#455a64"/><path d="M402.4,407.379c1.578-1.05,4.777-1.083,6.372-1a9.035,9.035,0,0,1,4.476,1.433,1.031,1.031,0,0,0,1.322-.177.969.969,0,0,0-.176-1.472,10.172,10.172,0,0,0-5.294-1.752c-3.92-.064-4.895.788-4.895.788a3.237,3.237,0,0,0-1.8,2.179" fill="#455a64"/><path d="M412.841,396.794a9.689,9.689,0,0,0-4.886.676c-.667.422-1.062,1.534-.6,1.785a9.03,9.03,0,0,1,4.319-.831,12.935,12.935,0,0,1,4.285.932c.342.131.748.318,1.105.49a.927.927,0,0,0,1.263-.468.868.868,0,0,0-.4-1.1,12.531,12.531,0,0,0-5.084-1.487" fill="#455a64"/><path d="M343.7,401.815a4.219,4.219,0,0,0,.341,3.087c.48.882,5.355,3.295,11.713,2.523A26.634,26.634,0,0,0,368.7,402.1c2.346-1.743,4.862-2.18,8.013-2.531s5.524-1.449,6.137-2.964-.321-4.017-.321-4.017Z" fill="#263238"/><path d="M368.471,381.6a14.1,14.1,0,0,1-1.7-.478,1.376,1.376,0,0,0-.949-.058c-.4.175-.533.665-.619,1.092a15.832,15.832,0,0,1-.547,2.811,6.953,6.953,0,0,1-1.689,1.976,29.371,29.371,0,0,1-4.93,3.568c-2.024,1.232-4.021,2.212-6.121,3.3-2.142,1.1-5.024,1.865-6.68,3.116-2.413,1.821-2.509,6.08.435,7.6,2.539,1.313,9.1,2.531,15.788.241,3.642-1.247,7.537-5.421,12.373-6.063,3.076-.408,7.178-.888,9.04-3.341.679-1.08.089-4.093-.462-7.665-.493-3.2-.945-8.194-1.96-7.865,0,0-.381,1.184-.457,1.311a9.385,9.385,0,0,1-.852,1.142,10.54,10.54,0,0,1-.863.817,15.145,15.145,0,0,1-1.089,1.12,3.119,3.119,0,0,1-1.779.742,1.66,1.66,0,0,1-.9-.194c-.526-.3-.594-.99-1.019-1.418a5.018,5.018,0,0,0-1.717-1.116,9.653,9.653,0,0,0-2.79-.567c-.184-.016-.356-.038-.521-.067" fill="#27debf"/><g opacity="0.2"><g clip-path="url(#br)"><path d="M368.471,381.6a14.1,14.1,0,0,1-1.7-.478,1.376,1.376,0,0,0-.949-.058c-.4.175-.533.665-.619,1.092a15.832,15.832,0,0,1-.547,2.811,6.953,6.953,0,0,1-1.689,1.976,29.371,29.371,0,0,1-4.93,3.568c-2.024,1.232-4.021,2.212-6.121,3.3-2.142,1.1-5.024,1.865-6.68,3.116-2.413,1.821-2.509,6.08.435,7.6,2.539,1.313,9.1,2.531,15.788.241,3.642-1.247,7.537-5.421,12.373-6.063,3.076-.408,7.178-.888,9.04-3.341.679-1.08.089-4.093-.462-7.665-.493-3.2-.945-8.194-1.96-7.865,0,0-.381,1.184-.457,1.311a9.385,9.385,0,0,1-.852,1.142,10.54,10.54,0,0,1-.863.817,15.145,15.145,0,0,1-1.089,1.12,3.119,3.119,0,0,1-1.779.742,1.66,1.66,0,0,1-.9-.194c-.526-.3-.594-.99-1.019-1.418a5.018,5.018,0,0,0-1.717-1.116,9.653,9.653,0,0,0-2.79-.567c-.184-.016-.356-.038-.521-.067"/></g></g><path d="M360.835,388.676a2.87,2.87,0,0,1,2.2-1.65c1.391-.337,3.929.566,5.54,1.754a1.151,1.151,0,1,1-1.388,1.837,8.819,8.819,0,0,0-6.35-1.941" fill="#455a64"/><path d="M356.61,391.349a3.3,3.3,0,0,1,2.628-1.537s3.675-.092,6.061,1.9a1.13,1.13,0,0,1-.057,1.85,1.1,1.1,0,0,1-1.275-.08,8.846,8.846,0,0,0-7.357-2.135" fill="#455a64"/><path d="M351.92,393.807a3.7,3.7,0,0,1,2.739-1.409,9.885,9.885,0,0,1,5.811,1.938,1.13,1.13,0,0,1-.056,1.85,1.1,1.1,0,0,1-1.275-.08,8.448,8.448,0,0,0-7.219-2.3" fill="#455a64"/><path d="M362.173,243.545c-.175,14.61.768,63.893,1.087,71.241.278,6.447,1.4,69.82,1.4,69.82,7.375,2.3,17.478-.08,17.478-.08s5.141-39.519,5.472-46.561a120.06,120.06,0,0,0-1.019-19.287l3.772-40.328s4.131,30.2,6.121,43.421c2.282,15.151,10.817,73.168,10.817,73.168,6.784,2.636,16.294-1.11,16.294-1.11s-.486-45.137-1.172-60.482c-.475-10.582-3.43-15.741-3.749-18.674,0,0-1.471-55.009-1.624-68.939-.1-9.34-1.117-19.607-1.117-19.607s-10.2.821-11.1-2.144-.052-31.526.38-37.077c0,0-21.436-4.763-39.972-1.247,0,0-2.9,43.277-3.074,57.886" fill="#455a64"/><path d="M405.309,232c-.113,9.71,1.605,15.741,4.177,17.839s7.663,1.941,7.663,1.941v-1.445s-4.8.712-6.946-1.546S406.088,243.3,405.309,232" fill="#37474f"/><path d="M372.306,195.982s11.137-.042,21.663.719c0,0,.07,8.125-.838,11.093s-7.917,7.392-10.827,7.377c-2.524-.012-9.535-5.023-10.08-7.625s.082-11.564.082-11.564" fill="#37474f"/><path d="M390.367,278.35l-.986-6.237c-3.038-.451-10.731-5.257-15.288-9.455a36.223,36.223,0,0,0,12.786,11.783l.319,39.8Z" fill="#37474f"/><path d="M410.554,171.869c-2-.508-3.131-.084-4.141,2.44s-2.174,10.756-2.562,18.444c0,0-4.629.839-7.843-.526,0,0,.387-10.093,1.475-15.306a18.8,18.8,0,0,1,1.494-4.442,4.644,4.644,0,0,1,5.01-2.532l7.325,1.345Z" fill="#37474f"/><path d="M401.788,189.354a1.821,1.821,0,1,1-1.821-1.821,1.82,1.82,0,0,1,1.821,1.821" fill="#27debf"/><path d="M383.761,169.181a8.423,8.423,0,0,0-7.438,5.127c-1.517,3.84-1.525,12.36-1.612,16.592a10.086,10.086,0,0,1-7.192,0s.013-13.409,2.295-17.847,6.693-4.714,9.02-4.886a40.95,40.95,0,0,1,4.927,0Z" fill="#37474f"/><path d="M373.128,187.931a1.82,1.82,0,1,1-1.82-1.821,1.821,1.821,0,0,1,1.82,1.821" fill="#27debf"/></g></svg>