<svg xmlns="http://www.w3.org/2000/svg" xmlns:xlink="http://www.w3.org/1999/xlink" width="947.127" height="192" viewBox="0 0 947.127 192"><defs><filter id="a" x="123.107" y="0" width="192" height="192" filterUnits="userSpaceOnUse"><feOffset input="SourceAlpha"/><feGaussianBlur stdDeviation="7.5" result="b"/><feFlood flood-opacity="0.11"/><feComposite operator="in" in2="b"/><feComposite in="SourceGraphic"/></filter></defs><g transform="translate(674.607 -3172.5)"><path d="M130.39-139.4a20.46,20.46,0,0,1,20.4,20.4,20.5,20.5,0,0,1-20.4,20.57,20.878,20.878,0,0,1-12.07-3.91H92.31V0H77.69V-56.44L54.06-1.53H43.01L35.53-15.47h9.01L67.32-68.68l10.37,5.44v-39.1H44.2v-14.45H77.69v-16.15H92.31v16.15h17.68c0-.68-.17-1.36-.17-2.21A20.5,20.5,0,0,1,130.39-139.4Zm0,30.6A10.2,10.2,0,0,0,140.42-119a10.16,10.16,0,0,0-10.03-10.03A10.048,10.048,0,0,0,120.36-119,10.086,10.086,0,0,0,130.39-108.8ZM112.2-86.19V-17h14.79V-2.72H97.92V-86.19Z" transform="translate(-52 3339)" fill="#fff46e"/><path d="M131.75-57.12H38.25V-71.91h93.5Z" transform="translate(57 3339)" fill="#fff46e"/><path d="M128.52-64.6l-7.31,13.77L75.31-70.55V.68H60.18V-132.94H75.31v45.56Z" transform="translate(144 3339)" fill="#fff46e"/><path d="M-33.333,1.353q-13.53,0-21.4-7.565t-7.872-20.6V-59.286q0-12.792,7.872-20.3t21.4-7.5q13.53,0,21.463,7.5t7.934,20.3v32.472q0,13.038-7.934,20.6T-33.333,1.353Zm0-14.883a11.644,11.644,0,0,0,8.794-3.383,12.479,12.479,0,0,0,3.259-9.04V-59.778a12.479,12.479,0,0,0-3.259-9.04A11.644,11.644,0,0,0-33.333-72.2,11.487,11.487,0,0,0-42-68.818a12.479,12.479,0,0,0-3.259,9.04v33.825A12.479,12.479,0,0,0-42-16.913,11.487,11.487,0,0,0-33.333-13.53ZM60.516-41.082a32.438,32.438,0,0,1,2.46,13.038,33.462,33.462,0,0,1-2.214,12.3,24.3,24.3,0,0,1-9.9,12.3A29.9,29.9,0,0,1,34.44.984,29.094,29.094,0,0,1,18.02-3.69,26,26,0,0,1,7.872-16.359,35.013,35.013,0,0,1,5.9-26.691,1.3,1.3,0,0,1,7.38-28.167H21.894a1.3,1.3,0,0,1,1.476,1.476,22.842,22.842,0,0,0,1.353,6.027,9.851,9.851,0,0,0,3.628,4.981A10.063,10.063,0,0,0,34.317-13.9q6.888,0,9.471-6.027a20.169,20.169,0,0,0,1.722-8.61,21.174,21.174,0,0,0-1.845-9.471,9.759,9.759,0,0,0-9.471-5.781,5.945,5.945,0,0,0-2.829.8A36.986,36.986,0,0,0,27.8-40.713a1.636,1.636,0,0,1-.984.369,1.182,1.182,0,0,1-1.107-.738L18.45-51.291a1.516,1.516,0,0,1-.246-.861,1.669,1.669,0,0,1,.492-1.23l19.557-17.1a.511.511,0,0,0,.185-.492q-.062-.246-.431-.246H9.1a1.423,1.423,0,0,1-1.045-.43,1.423,1.423,0,0,1-.431-1.046V-84.624a1.423,1.423,0,0,1,.431-1.046A1.423,1.423,0,0,1,9.1-86.1H60.393a1.423,1.423,0,0,1,1.045.43,1.423,1.423,0,0,1,.431,1.046v13.53a2.586,2.586,0,0,1-.861,1.845L44.9-54.489a.511.511,0,0,0-.184.492q.062.246.553.246Q55.965-51.66,60.516-41.082Z" transform="translate(-612 3340)" fill="#fff"/><path d="M-33.348-22.722v8.652A37.21,37.21,0,0,1-40.4-12.18l1.05,4.788c.462-.21.966-.42,3.192-1.218.882-.294,1.806-.63,2.814-1.008V-1.26a34.9,34.9,0,0,1-.294,4.872h4.956a41.74,41.74,0,0,1-.252-4.872v-10c1.092-.462,1.848-.8,3.024-1.344v1.932A24.005,24.005,0,0,1-21.8-10.92h11v8.484c0,1.05-.252,1.26-1.6,1.26A36.1,36.1,0,0,1-17.3-1.638a12.459,12.459,0,0,1,1.092,4.62c1.3.084,2.856.126,3.57.126,4.872,0,6.216-.84,6.216-3.99V-10.92h.378a29.614,29.614,0,0,1,4.116.252v-4.62a25.344,25.344,0,0,1-4.116.21h-.378v-3.528h.252a35.689,35.689,0,0,1,4.41.252V-22.89a43.069,43.069,0,0,1-4.746.21h-5.67v-4.074h4.536a42.464,42.464,0,0,1,4.41.21v-4.578a31.619,31.619,0,0,1-4.41.252H-12.18v-1.344a17.213,17.213,0,0,1,.21-3.108h-4.872a18.414,18.414,0,0,1,.252,3.15v1.3h-3.528a29.911,29.911,0,0,1-4.326-.252v4.578a41.943,41.943,0,0,1,4.326-.21h3.528v4.074h-4.788c-1.512,0-2.562-.042-3.864-.126v-4.41a17.642,17.642,0,0,1-3.36.252h-.336V-31.92a20.988,20.988,0,0,1,.252-3.444h-4.956a18.137,18.137,0,0,1,.294,3.444v4.956H-35.28l.126-1.722.084-.63a10.2,10.2,0,0,1,.252-2.142l-4.116-.5c.042.5.084.8.084,1.05a38.067,38.067,0,0,1-2.142,12.474,11.632,11.632,0,0,1,3.654,1.89,38.952,38.952,0,0,0,1.512-6.174Zm4.41,0h.672c.672,0,1.218,0,2.142.042v4.326a28.254,28.254,0,0,1,4.746-.252h10.584v3.528H-21.252c-1.848,0-3.066-.042-4.032-.126l-.042-1.848c-1.428.63-1.974.84-3.612,1.47ZM-24.108-8.4a31.629,31.629,0,0,1,5.334,6.888l3.654-2.772a34.348,34.348,0,0,0-5.5-6.426Zm64.89-20.454a19.467,19.467,0,0,1-3.486.21H33.054c.462-1.386.714-2.31,1.05-3.7a17.652,17.652,0,0,1,.546-2.016l-4.536-.966a34.428,34.428,0,0,1-3.486,11.97v-6.384a22.961,22.961,0,0,1,.126-2.814H22.932a24.857,24.857,0,0,1,.126,2.73v4.368H21.126v-6.426a29.486,29.486,0,0,1,.126-2.982H17.22a20.073,20.073,0,0,1,.168,2.982v6.426H15.414V-29.82a23.371,23.371,0,0,1,.084-2.73H12.222l.21-.252-3.78-2.73c-1.3,2.94-4.158,6.006-7.77,8.4a17.359,17.359,0,0,1,2.226,4.074,42.88,42.88,0,0,0,8.148-8.19,2.8,2.8,0,0,0,.5-.714,17.288,17.288,0,0,1,.126,2.142v5.712L8.9-25.7A26,26,0,0,1,.5-15.288,18.25,18.25,0,0,1,2.226-10.71,20.308,20.308,0,0,0,4.914-13.4C4.83-12.1,4.83-11.214,4.83-9.87v8.526A37.712,37.712,0,0,1,4.578,3.57H9.324a34.148,34.148,0,0,1-.21-4.788V-17.892A41.692,41.692,0,0,0,11.8-21.924a1.723,1.723,0,0,1-.042.462c.756-.042,1.89-.084,2.31-.084H25.452c-.462.588-.63.8-1.176,1.428.462.462.588.588.966,1.008-.63.042-1.344.042-2.394.042h-8.9a18.192,18.192,0,0,1-2.9-.168v4.2A22.353,22.353,0,0,1,14.28-15.2h2.478v3.066H14.7a19.783,19.783,0,0,1-3.108-.168V-8.19a21.683,21.683,0,0,1,3.066-.168h2.1v3.99a43.085,43.085,0,0,1-5.88.63h-.42L10.962.8C11.676.63,12.306.5,13.356.336c6.51-1.218,8.652-1.68,11.382-2.436-.84.588-1.3.924-2.646,1.764A20.461,20.461,0,0,1,24.78,3.4a30.556,30.556,0,0,0,7.686-7.77,34.275,34.275,0,0,0,6.342,7.56,27.423,27.423,0,0,1,2.478-4.578,26.631,26.631,0,0,1-6.426-7.14c2.31-5,3.234-9.072,3.57-15.96,1.134.042,1.47.084,2.352.168ZM26.166-6.174c-2.394.546-3.192.714-5.082,1.092V-8.358H22.47c1.428,0,2.394.042,3.4.126v-4.074a25.786,25.786,0,0,1-3.4.168H21.084V-15.2H23.6a16.371,16.371,0,0,1,2.688.168V-17.85c.252.378.336.546.672,1.05.378-.378.462-.5.756-.84a40.119,40.119,0,0,0,2.646,9.156,27.74,27.74,0,0,1-4.2,5.166ZM34.44-24.486a37,37,0,0,1-1.806,11.172,42.992,42.992,0,0,1-2.016-9.072c.336-.672.5-1.092.924-2.1Z" transform="translate(-608 3232)" fill="#fff"/><g transform="matrix(1, 0, 0, 1, -674.61, 3172.5)" filter="url(#a)"><path d="M73.5,0A73.5,73.5,0,1,1,0,73.5,73.5,73.5,0,0,1,73.5,0Z" transform="translate(145.61 22.5)" fill="#fff46e"/></g><g transform="translate(-507.803 3239.559)"><g transform="translate(63.737 45.285)"><path d="M357.144,396a1.144,1.144,0,1,0,1.144,1.144A1.144,1.144,0,0,0,357.144,396Z" transform="translate(-356 -396)" fill="#3cbebe"/></g><g transform="translate(26)"><path d="M67.7,41.587l-5.435-1.811-1.951-3.9a12.525,12.525,0,0,0,3.39-6.626l.243-1.459h2.081a3.435,3.435,0,0,0,3.431-3.431v-7.2a17.153,17.153,0,1,0-34.307,0v7.2a3.436,3.436,0,0,0,2.287,3.234v1.34a3.435,3.435,0,0,0,3.431,3.431h1a12.406,12.406,0,0,0,1.918,2.97c.162.186.331.367.5.542l-1.95,3.9-5.435,1.812C30.587,43.694,26,50.347,26,57.406a1.144,1.144,0,0,0,1.144,1.144H77.46A1.144,1.144,0,0,0,78.6,57.406C78.6,50.347,74.017,43.694,67.7,41.587Zm-.529-17.229A1.145,1.145,0,0,1,66.024,25.5H64.279c.291-2.252.484-4.648.562-7.008,0-.067,0-.131.006-.2h2.32ZM38.579,25.5a1.145,1.145,0,0,1-1.144-1.144V18.3h2.321q.006.179.012.36s0,.008,0,.012h0c.08,2.3.271,4.629.555,6.831H38.579Zm2.287,4.574a1.145,1.145,0,0,1-1.144-1.144V27.788h.937l.243,1.459c.046.277.1.554.169.828ZM39.725,16.01H37.479a14.867,14.867,0,0,1,29.645,0H64.879A11.582,11.582,0,0,0,53.325,4.574H51.278A11.582,11.582,0,0,0,39.725,16.01ZM51.278,6.861h2.047a9.3,9.3,0,0,1,9.268,9.31c0,.36,0,.673-.009.958,0,0,0,.007,0,.011l-1.43-.2A18.375,18.375,0,0,1,50.823,11.77a1.144,1.144,0,0,0-.809-.335A10.346,10.346,0,0,0,42.06,15.2,9.3,9.3,0,0,1,51.278,6.861ZM43.444,30.075a65.364,65.364,0,0,1-1.372-11.1l1.539-2.052a8.049,8.049,0,0,1,5.952-3.189A20.684,20.684,0,0,0,60.831,19.2l1.684.241c-.113,2.388-.342,4.785-.672,6.989v0c-.1.709-.187,1.165-.4,2.439a9.713,9.713,0,0,1-6.894,7.812,9,9,0,0,1-10.1-4.32h2.331a3.436,3.436,0,0,0,3.234,2.287H52.3a3.431,3.431,0,1,0,0-6.861H50.015a3.432,3.432,0,0,0-3.236,2.287ZM49.918,39a11.47,11.47,0,0,0,4.253.1L52.151,41.23Zm.661,3.9-3.627,3.836a43.571,43.571,0,0,1-2.56-5.937l1.362-2.724Zm8.077-5.213,1.556,3.111a43.56,43.56,0,0,1-2.561,5.939l-3.882-3.882Zm-9.785-6.46a1.144,1.144,0,0,1,1.144-1.144H52.3a1.144,1.144,0,1,1,0,2.287H50.015A1.145,1.145,0,0,1,48.871,31.219ZM28.333,56.263c.453-5.665,4.223-10.814,9.3-12.506l4.814-1.6a45.841,45.841,0,0,0,3.255,7.06l.006.012h0A45.853,45.853,0,0,0,48.835,54l1.407,2.258ZM52.3,55.243l-1.551-2.49q-.026-.042-.056-.081a43.6,43.6,0,0,1-2.577-3.849L52.2,44.51l4.3,4.3a43.553,43.553,0,0,1-2.586,3.865C53.852,52.747,53.932,52.629,52.3,55.243Zm2.06,1.019L55.768,54a45.837,45.837,0,0,0,3.152-4.818l.017-.03,0,0a45.8,45.8,0,0,0,3.221-7l4.814,1.6c5.074,1.692,8.844,6.841,9.3,12.506H54.361Z" transform="translate(-26)" fill="#3cbebe"/></g><g transform="translate(67.756 47.468)"><path d="M396.217,419.256a11.433,11.433,0,0,0-3.237-3.93,1.144,1.144,0,0,0-1.395,1.813,9.132,9.132,0,0,1,2.586,3.139,1.144,1.144,0,0,0,2.046-1.022Z" transform="translate(-391.139 -415.088)" fill="#3cbebe"/></g></g><path d="M123.08-86.36h16.49v12.92H123.08v23.63h10.54v12.75H36.38V-49.81H47.6V-73.44H30.43V-86.36H47.6V-98.94L40.46-87.89l-7.31-13.94,20.06-31.11H69.53l-6.46,10.2h68.34v12.75h-8.33Zm-12.07,0v-23.63H102v23.63Zm-30.09,0h9.01v-23.63H80.92Zm9.01,12.92H80.92v23.63h9.01ZM59.67-109.99v23.63h9.18v-23.63Zm0,36.55v23.63h9.18V-73.44Zm51.34,23.63V-73.44H102v23.63ZM33.49-9.01,51.17-36.55l7.48,13.94L40.97,4.76ZM105.23-34h16.32L137.7-8.84,130.39,4.93ZM82.11-31.28H97.75L112.88-7.99,105.74,5.27ZM59.16-28.73h15.3L87.55-8.5,80.75,4.59ZM199.24-43.01l-11.73,6.12-4.08-7.31V3.74H169.49V-33.83L161.5-19.21l-12.24-6.46,20.23-36.72V-72.93H152.15V-85h17.34v-6.97l-5.61,3.06-15.98-28.9h12.92l8.67,15.64v-30.77h13.94v31.96l9.35-16.83h13.26L190.06-88.57l-6.63-3.57V-85h16.66v12.07H183.43v1.19Zm31.11-61.54L219.3-98.6l-14.28-26.01H219.3ZM204.34-85.68h14.11l9.69,17.51-11.05,5.95ZM258.91-39.1l-13.77,3.91V3.74H231.71V-31.28l-26.35,7.65-6.12-11.56,32.47-9.52v-88.23h13.43v84.32l7.48-2.21Zm109.82-73.61v13.94H352.58L309.74,1.02H285.26l-7.31-13.6h21.42l36.89-86.19H314.33L292.74-48.45l-13.09-6.97,18.7-43.35h-20.4v-13.94H304.3l8.84-20.91,13.09,6.97-5.95,13.94h22.1l8.67-20.4,13.26,6.97-5.78,13.43Z" transform="translate(-388 3339)" fill="#fff46e"/></g></svg>