<svg xmlns="http://www.w3.org/2000/svg" xmlns:xlink="http://www.w3.org/1999/xlink" width="784.591" height="216.144" viewBox="0 0 784.591 216.144"><defs><filter id="a" x="120.401" y="24.144" width="192" height="192" filterUnits="userSpaceOnUse"><feOffset input="SourceAlpha"/><feGaussianBlur stdDeviation="7.5" result="b"/><feFlood flood-opacity="0.11"/><feComposite operator="in" in2="b"/><feComposite in="SourceGraphic"/></filter></defs><g transform="translate(644.901 -5012.356)"><path d="M13.09-122.4H75.48V-5.27H10.03V-18.53H61.71V-43.69H23.29L13.09-68.17ZM31.96-56.44H61.71v-52.7H26.69v40.29ZM100.3-122.4h62.39V-5.27H97.24V-18.53h51.68V-43.69H110.5L100.3-68.17Zm18.87,65.96h29.75v-52.7H113.9v40.29ZM181.05-5.27V-22.61h15.81V-5.27L190.91,8.67h-8.67l5.95-13.94ZM223.21-122.4H285.6V-5.27H220.15V-18.53h51.68V-43.69H233.41l-10.2-24.48Zm18.87,65.96h29.75v-52.7H236.81v40.29Zm68.34-65.96h62.39V-5.27H307.36V-18.53h51.68V-43.69H320.62l-10.2-24.48Zm18.87,65.96h29.75v-52.7H324.02v40.29Z" transform="translate(-345 5203)" fill="#fff46e"/><path d="M39.61-127.16H76.84v55.42H39.61Zm12.24,42.5H64.26v-29.75H51.85ZM91.29-62.39h37.4V-6.97H91.29Zm12.58,42.67h12.58V-49.47H103.87Zm5.95-111.35,11.22,6.63L57.8-1.7,46.75-8.33Z" transform="translate(11 5203)" fill="#fff46e"/><path d="M31.815-41.706v3.654H27.531v-7.875H37.3v-3.654H42.21v3.654h9.324v7.875H47v-3.654ZM26.649-19.971l-2.268,4.347-1.953-2.835V1.386h-5.04V-15.75l-2.772,4.032-2.646-5.04,5.418-7.875v-7.056H12.033v-4.662h5.355v-6.237l-3.717.693-2.394-4.41L24.444-48.7l2.331,4.41-4.347.819v7.119H26.9v4.662H22.428v5.607ZM50.148-6.8,34.9-28.917l-.63.819L43.6-14.616v16H35.721L33.642-2.52H39v-10.9l-.441-.567L29.358-.63,27.279-4.536l8.946-12.915-1.2-1.7L26.964-7.434l-2.079-3.843,7.749-11.34-1.071-1.575-3.528,5.229L25.7-23.31l6.867-9.954H27.594V-37.3H51.66v4.032h-13.8l-.378.5,5.733,8.316,3.591-5.229h5.418l-6.3,9.135,6.489,9.45ZM65.709-49.266l-3.024,9.261V1.386H58.149V-26.4l-.63,2.079L54.5-29.988l6.363-19.278ZM91.035-37.674h5.607V1.386H89.019l-2.457-4.6h5.544V-30.87L81.27,2.079,77.238-.063l1.827-5.544L65.9,1.071,63.567-3.276l7.623-3.78v-4.095H65.205V-15.5H71.19V-17.64H64.26V-34.461h6.93v-1.323H63.252v-4.347h4.221L65.646-43.6l11.97-6.048,2.016,3.78-4.1,2.079v3.654h7.308v4.347H75.537v1.323h6.237V-17.64H75.537V-15.5h5.355v4.347H75.537v1.89l1.323-.693,2.205,4.221,9.009-27.279h-5.1v-4.662h3.591L90.4-49.266h4.473ZM68.292-40.131h2.9V-41.58ZM75.537-21.42H77.3v-2.646H75.537ZM77.3-30.681H75.537v2.709H77.3Zm-6.111,0H68.67v2.709h2.52ZM68.67-21.42h2.52v-2.646H68.67Zm40.95.189-5.544,6.8-4.158-2.2,8.127-10.08,4.158,2.268-1.764,2.205h1.323l4.032-4.977-5.1-6.3,5.544-6.8h5.733l-5.481,6.8,2.142,2.709,5.481-6.741h5.733L120.9-26.46h4.032l6.552,8.127-3.906,2.079-1.7-2.079H109.62Zm10.521-4.284-2.583,3.276h5.166Zm19.593,8.5-4.158,2.2-7.56-9.324,4.158-2.205Zm-4.788-23,4.1,2.142-7.749,9.576-4.1-2.142Zm-23.121,9.324-4.1,2.142-7.308-9.072,4.1-2.142Zm10.521,12.6v5.292h16.947v4.6H122.346V1.386h-5.04V-8.19H100.359v-4.6h16.947v-5.292Zm16.947-27.153v4.6H100.359v-4.6h16.947v-4.032h5.04v4.032Z" transform="translate(-345 5062)" fill="#fff46e"/><path d="M-30.627,1.353q-13.53,0-21.4-7.565t-7.872-20.6V-59.286q0-12.792,7.872-20.3t21.4-7.5q13.53,0,21.463,7.5t7.934,20.3v32.472q0,13.038-7.934,20.6T-30.627,1.353Zm0-14.883a11.644,11.644,0,0,0,8.794-3.383,12.479,12.479,0,0,0,3.259-9.04V-59.778a12.479,12.479,0,0,0-3.259-9.04A11.644,11.644,0,0,0-30.627-72.2,11.487,11.487,0,0,0-39.3-68.818a12.479,12.479,0,0,0-3.259,9.04v33.825a12.479,12.479,0,0,0,3.259,9.04A11.487,11.487,0,0,0-30.627-13.53ZM19.8,0q-1.845,0-1.23-1.722L45.264-70.479q.246-.738-.492-.738h-23a.544.544,0,0,0-.615.615v5.658a1.423,1.423,0,0,1-.431,1.045,1.423,1.423,0,0,1-1.045.431H8.487A1.423,1.423,0,0,1,7.442-63.9a1.423,1.423,0,0,1-.431-1.045l.123-19.68a1.423,1.423,0,0,1,.431-1.046A1.423,1.423,0,0,1,8.61-86.1H62.361a1.423,1.423,0,0,1,1.045.43,1.423,1.423,0,0,1,.431,1.046V-72.2a6.071,6.071,0,0,1-.369,1.845L36.9-1.107A1.611,1.611,0,0,1,35.178,0Z" transform="translate(-585 5204)" fill="#fff"/><path d="M-33.348-22.722v8.652A37.21,37.21,0,0,1-40.4-12.18l1.05,4.788c.462-.21.966-.42,3.192-1.218.882-.294,1.806-.63,2.814-1.008V-1.26a34.9,34.9,0,0,1-.294,4.872h4.956a41.74,41.74,0,0,1-.252-4.872v-10c1.092-.462,1.848-.8,3.024-1.344v1.932A24.005,24.005,0,0,1-21.8-10.92h11v8.484c0,1.05-.252,1.26-1.6,1.26A36.1,36.1,0,0,1-17.3-1.638a12.459,12.459,0,0,1,1.092,4.62c1.3.084,2.856.126,3.57.126,4.872,0,6.216-.84,6.216-3.99V-10.92h.378a29.614,29.614,0,0,1,4.116.252v-4.62a25.344,25.344,0,0,1-4.116.21h-.378v-3.528h.252a35.689,35.689,0,0,1,4.41.252V-22.89a43.069,43.069,0,0,1-4.746.21h-5.67v-4.074h4.536a42.464,42.464,0,0,1,4.41.21v-4.578a31.619,31.619,0,0,1-4.41.252H-12.18v-1.344a17.213,17.213,0,0,1,.21-3.108h-4.872a18.414,18.414,0,0,1,.252,3.15v1.3h-3.528a29.911,29.911,0,0,1-4.326-.252v4.578a41.943,41.943,0,0,1,4.326-.21h3.528v4.074h-4.788c-1.512,0-2.562-.042-3.864-.126v-4.41a17.642,17.642,0,0,1-3.36.252h-.336V-31.92a20.988,20.988,0,0,1,.252-3.444h-4.956a18.137,18.137,0,0,1,.294,3.444v4.956H-35.28l.126-1.722.084-.63a10.2,10.2,0,0,1,.252-2.142l-4.116-.5c.042.5.084.8.084,1.05a38.067,38.067,0,0,1-2.142,12.474,11.632,11.632,0,0,1,3.654,1.89,38.952,38.952,0,0,0,1.512-6.174Zm4.41,0h.672c.672,0,1.218,0,2.142.042v4.326a28.254,28.254,0,0,1,4.746-.252h10.584v3.528H-21.252c-1.848,0-3.066-.042-4.032-.126l-.042-1.848c-1.428.63-1.974.84-3.612,1.47ZM-24.108-8.4a31.629,31.629,0,0,1,5.334,6.888l3.654-2.772a34.348,34.348,0,0,0-5.5-6.426Zm64.89-20.454a19.467,19.467,0,0,1-3.486.21H33.054c.462-1.386.714-2.31,1.05-3.7a17.652,17.652,0,0,1,.546-2.016l-4.536-.966a34.428,34.428,0,0,1-3.486,11.97v-6.384a22.961,22.961,0,0,1,.126-2.814H22.932a24.857,24.857,0,0,1,.126,2.73v4.368H21.126v-6.426a29.486,29.486,0,0,1,.126-2.982H17.22a20.073,20.073,0,0,1,.168,2.982v6.426H15.414V-29.82a23.371,23.371,0,0,1,.084-2.73H12.222l.21-.252-3.78-2.73c-1.3,2.94-4.158,6.006-7.77,8.4a17.359,17.359,0,0,1,2.226,4.074,42.88,42.88,0,0,0,8.148-8.19,2.8,2.8,0,0,0,.5-.714,17.288,17.288,0,0,1,.126,2.142v5.712L8.9-25.7A26,26,0,0,1,.5-15.288,18.25,18.25,0,0,1,2.226-10.71,20.308,20.308,0,0,0,4.914-13.4C4.83-12.1,4.83-11.214,4.83-9.87v8.526A37.712,37.712,0,0,1,4.578,3.57H9.324a34.148,34.148,0,0,1-.21-4.788V-17.892A41.692,41.692,0,0,0,11.8-21.924a1.723,1.723,0,0,1-.042.462c.756-.042,1.89-.084,2.31-.084H25.452c-.462.588-.63.8-1.176,1.428.462.462.588.588.966,1.008-.63.042-1.344.042-2.394.042h-8.9a18.192,18.192,0,0,1-2.9-.168v4.2A22.353,22.353,0,0,1,14.28-15.2h2.478v3.066H14.7a19.783,19.783,0,0,1-3.108-.168V-8.19a21.683,21.683,0,0,1,3.066-.168h2.1v3.99a43.085,43.085,0,0,1-5.88.63h-.42L10.962.8C11.676.63,12.306.5,13.356.336c6.51-1.218,8.652-1.68,11.382-2.436-.84.588-1.3.924-2.646,1.764A20.461,20.461,0,0,1,24.78,3.4a30.556,30.556,0,0,0,7.686-7.77,34.275,34.275,0,0,0,6.342,7.56,27.423,27.423,0,0,1,2.478-4.578,26.631,26.631,0,0,1-6.426-7.14c2.31-5,3.234-9.072,3.57-15.96,1.134.042,1.47.084,2.352.168ZM26.166-6.174c-2.394.546-3.192.714-5.082,1.092V-8.358H22.47c1.428,0,2.394.042,3.4.126v-4.074a25.786,25.786,0,0,1-3.4.168H21.084V-15.2H23.6a16.371,16.371,0,0,1,2.688.168V-17.85c.252.378.336.546.672,1.05.378-.378.462-.5.756-.84a40.119,40.119,0,0,0,2.646,9.156,27.74,27.74,0,0,1-4.2,5.166ZM34.44-24.486a37,37,0,0,1-1.806,11.172,42.992,42.992,0,0,1-2.016-9.072c.336-.672.5-1.092.924-2.1Z" transform="translate(-581 5096)" fill="#fff"/><g transform="translate(-480.803 5103.559)"><g transform="translate(63.737 45.285)"><path d="M357.144,396a1.144,1.144,0,1,0,1.144,1.144A1.144,1.144,0,0,0,357.144,396Z" transform="translate(-356 -396)" fill="#3cbebe"/></g><g transform="translate(26)"><path d="M67.7,41.587l-5.435-1.811-1.951-3.9a12.525,12.525,0,0,0,3.39-6.626l.243-1.459h2.081a3.435,3.435,0,0,0,3.431-3.431v-7.2a17.153,17.153,0,1,0-34.307,0v7.2a3.436,3.436,0,0,0,2.287,3.234v1.34a3.435,3.435,0,0,0,3.431,3.431h1a12.406,12.406,0,0,0,1.918,2.97c.162.186.331.367.5.542l-1.95,3.9-5.435,1.812C30.587,43.694,26,50.347,26,57.406a1.144,1.144,0,0,0,1.144,1.144H77.46A1.144,1.144,0,0,0,78.6,57.406C78.6,50.347,74.017,43.694,67.7,41.587Zm-.529-17.229A1.145,1.145,0,0,1,66.024,25.5H64.279c.291-2.252.484-4.648.562-7.008,0-.067,0-.131.006-.2h2.32ZM38.579,25.5a1.145,1.145,0,0,1-1.144-1.144V18.3h2.321q.006.179.012.36s0,.008,0,.012h0c.08,2.3.271,4.629.555,6.831H38.579Zm2.287,4.574a1.145,1.145,0,0,1-1.144-1.144V27.788h.937l.243,1.459c.046.277.1.554.169.828ZM39.725,16.01H37.479a14.867,14.867,0,0,1,29.645,0H64.879A11.582,11.582,0,0,0,53.325,4.574H51.278A11.582,11.582,0,0,0,39.725,16.01ZM51.278,6.861h2.047a9.3,9.3,0,0,1,9.268,9.31c0,.36,0,.673-.009.958,0,0,0,.007,0,.011l-1.43-.2A18.375,18.375,0,0,1,50.823,11.77a1.144,1.144,0,0,0-.809-.335A10.346,10.346,0,0,0,42.06,15.2,9.3,9.3,0,0,1,51.278,6.861ZM43.444,30.075a65.364,65.364,0,0,1-1.372-11.1l1.539-2.052a8.049,8.049,0,0,1,5.952-3.189A20.684,20.684,0,0,0,60.831,19.2l1.684.241c-.113,2.388-.342,4.785-.672,6.989v0c-.1.709-.187,1.165-.4,2.439a9.713,9.713,0,0,1-6.894,7.812,9,9,0,0,1-10.1-4.32h2.331a3.436,3.436,0,0,0,3.234,2.287H52.3a3.431,3.431,0,1,0,0-6.861H50.015a3.432,3.432,0,0,0-3.236,2.287ZM49.918,39a11.47,11.47,0,0,0,4.253.1L52.151,41.23Zm.661,3.9-3.627,3.836a43.571,43.571,0,0,1-2.56-5.937l1.362-2.724Zm8.077-5.213,1.556,3.111a43.56,43.56,0,0,1-2.561,5.939l-3.882-3.882Zm-9.785-6.46a1.144,1.144,0,0,1,1.144-1.144H52.3a1.144,1.144,0,1,1,0,2.287H50.015A1.145,1.145,0,0,1,48.871,31.219ZM28.333,56.263c.453-5.665,4.223-10.814,9.3-12.506l4.814-1.6a45.841,45.841,0,0,0,3.255,7.06l.006.012h0A45.853,45.853,0,0,0,48.835,54l1.407,2.258ZM52.3,55.243l-1.551-2.49q-.026-.042-.056-.081a43.6,43.6,0,0,1-2.577-3.849L52.2,44.51l4.3,4.3a43.553,43.553,0,0,1-2.586,3.865C53.852,52.747,53.932,52.629,52.3,55.243Zm2.06,1.019L55.768,54a45.837,45.837,0,0,0,3.152-4.818l.017-.03,0,0a45.8,45.8,0,0,0,3.221-7l4.814,1.6c5.074,1.692,8.844,6.841,9.3,12.506H54.361Z" transform="translate(-26)" fill="#3cbebe"/></g><g transform="translate(67.756 47.468)"><path d="M396.217,419.256a11.433,11.433,0,0,0-3.237-3.93,1.144,1.144,0,0,0-1.395,1.813,9.132,9.132,0,0,1,2.586,3.139,1.144,1.144,0,0,0,2.046-1.022Z" transform="translate(-391.139 -415.088)" fill="#3cbebe"/></g></g><g transform="translate(-2801 1143)"><g transform="matrix(1, 0, 0, 1, 2156.1, 3869.36)" filter="url(#a)"><circle cx="73.5" cy="73.5" r="73.5" transform="translate(142.9 46.64)" fill="#fff46e"/></g><g transform="translate(2342 3960)"><path d="M61.734,128.788a5.265,5.265,0,0,0-6.33-4.061L48.957,126.2v-2.635a25.464,25.464,0,0,0,3.6-4.261,24.981,24.981,0,0,0,3.531-8.316,25.481,25.481,0,0,0,.049-10.817,1.208,1.208,0,0,0-2.363.506,23.036,23.036,0,0,1-.044,9.783,22.575,22.575,0,0,1-3.191,7.515,21.505,21.505,0,0,1-1.579,2.083V106.672a1.208,1.208,0,0,0-1.208-1.208H38.194v-12.9a1.208,1.208,0,0,0-1.2-1.208L26.227,91.32h0a1.208,1.208,0,0,0-1.208,1.208v6.71H15.459a1.208,1.208,0,0,0-1.208,1.208v11.962H11.559v-1.641a1.208,1.208,0,0,0-1.208-1.207H9.112A22.862,22.862,0,0,1,10.1,97.713c.225-.621.481-1.24.76-1.839a1.208,1.208,0,1,0-2.19-1.02c-.309.663-.592,1.349-.841,2.036a25.242,25.242,0,0,0-1.166,12.67H1.208A1.208,1.208,0,0,0,0,110.768V132a1.208,1.208,0,0,0,1.208,1.208h9.143A1.208,1.208,0,0,0,11.559,132v-1.148H16.1l18.406,7.219a14.539,14.539,0,0,0,8.94.559l14.427-3.667A5.255,5.255,0,0,0,61.734,128.788ZM46.542,107.88v18.877l-3.229.739c-.347.079-.7.142-1.051.191a12.263,12.263,0,0,1-4.05-.117l-.017,0v-1.832a5.594,5.594,0,0,0,.744-4.706,5.424,5.424,0,0,0-.569-1.266q-.083-.134-.173-.263l0,0V107.879h8.348ZM27.431,93.74l8.347.028v23.807l-4.665-1.931-3.682-1.525Zm-10.765,7.914h8.347v11.465l-1.5-.62a1.206,1.206,0,0,0-.462-.092H16.666ZM9.143,130.792H2.416V111.975H9.143Zm48.137,1.83-14.427,3.667a12.14,12.14,0,0,1-7.463-.467l-18.618-7.3a1.206,1.206,0,0,0-.441-.083H11.559V114.824H22.813l7.816,3.235,4.277,1.77a3.021,3.021,0,0,1,1.617,3.914,3.454,3.454,0,0,1-.484.849,3.114,3.114,0,0,1-3.166,1.092l-.028-.007c-.07-.017-.139-.038-.208-.06l-8.127-3.125-.1-.039a1.208,1.208,0,1,0-.867,2.255s4.583,1.762,8.077,3.109c.07.027.14.053.21.076l2.683,1.032a22.184,22.184,0,0,0,2.463.838,14.654,14.654,0,0,0,6.878.086l4.167-.954.013,0,7.911-1.811a2.85,2.85,0,0,1,1.338,5.539Zm0,0" transform="translate(0 -80.29)" fill="#3cbebe"/><path d="M119.085,8.591a1.2,1.2,0,0,0,.809-.311,22.7,22.7,0,0,1,16.772-5.815A22.656,22.656,0,0,1,143.251,3.9a1.208,1.208,0,0,0,.86-2.257A25.066,25.066,0,0,0,136.824.054a25.116,25.116,0,0,0-18.549,6.433,1.208,1.208,0,0,0,.81,2.1Zm0,0" transform="translate(-103.638 0)" fill="#3cbebe"/><path d="M351.861,43.8a1.209,1.209,0,0,0,1.7-.119L363.5,32.24a1.208,1.208,0,0,0-1.823-1.584L351.742,42.1A1.207,1.207,0,0,0,351.861,43.8Zm0,0" transform="translate(-308.994 -26.587)" fill="#3cbebe"/><path d="M406.544,99.738a3.033,3.033,0,1,0,3.033,3.033A3.036,3.036,0,0,0,406.544,99.738Zm0,3.649a.617.617,0,1,1,.617-.617A.617.617,0,0,1,406.544,103.388Zm0,0" transform="translate(-354.771 -87.691)" fill="#3cbebe"/><path d="M351.013,33.331A3.033,3.033,0,1,0,347.98,30.3,3.036,3.036,0,0,0,351.013,33.331Zm0-3.65a.617.617,0,1,1-.617.617A.618.618,0,0,1,351.013,29.681Zm0,0" transform="translate(-305.947 -23.972)" fill="#3cbebe"/><path d="M91.671,82.493a1.207,1.207,0,1,0,.444-1.466A1.218,1.218,0,0,0,91.671,82.493Zm0,0" transform="translate(-80.519 -71.063)" fill="#3cbebe"/></g></g></g></svg>