<svg xmlns="http://www.w3.org/2000/svg" xmlns:xlink="http://www.w3.org/1999/xlink" width="994.273" height="192" viewBox="0 0 994.273 192"><defs><filter id="a" x="122.922" y="0" width="192" height="192" filterUnits="userSpaceOnUse"><feOffset input="SourceAlpha"/><feGaussianBlur stdDeviation="7.5" result="b"/><feFlood flood-opacity="0.11"/><feComposite operator="in" in2="b"/><feComposite in="SourceGraphic"/></filter></defs><g transform="translate(-1721.578 -4583.5)"><path d="M-33.148,1.353q-13.53,0-21.4-7.565t-7.872-20.6V-59.286q0-12.792,7.872-20.3t21.4-7.5q13.53,0,21.463,7.5t7.934,20.3v32.472q0,13.038-7.934,20.6T-33.148,1.353Zm0-14.883a11.644,11.644,0,0,0,8.794-3.383,12.479,12.479,0,0,0,3.259-9.04V-59.778a12.479,12.479,0,0,0-3.259-9.04A11.644,11.644,0,0,0-33.148-72.2a11.487,11.487,0,0,0-8.672,3.383,12.479,12.479,0,0,0-3.259,9.04v33.825a12.479,12.479,0,0,0,3.259,9.04A11.487,11.487,0,0,0-33.148-13.53ZM61.069-41.7q2.952,5.535,2.952,14.145A33.242,33.242,0,0,1,61.685-14.76,25.02,25.02,0,0,1,51.722-3.321,29.8,29.8,0,0,1,35.732.861,29.908,29.908,0,0,1,19.373-3.506,24.789,24.789,0,0,1,9.41-15.621,31.561,31.561,0,0,1,7.2-27.675V-64.7A20.246,20.246,0,0,1,10.7-76.445a22.587,22.587,0,0,1,9.779-7.872,35.338,35.338,0,0,1,14.391-2.767,34.15,34.15,0,0,1,14.145,2.767,22.2,22.2,0,0,1,9.533,7.749,19.982,19.982,0,0,1,3.382,11.5v3.444a1.423,1.423,0,0,1-.43,1.045,1.423,1.423,0,0,1-1.046.431H46.064a1.423,1.423,0,0,1-1.046-.431,1.423,1.423,0,0,1-.431-1.045V-62.73A9.179,9.179,0,0,0,41.882-69.5,9.486,9.486,0,0,0,34.871-72.2a10.318,10.318,0,0,0-7.441,2.768,9.364,9.364,0,0,0-2.891,7.072V-50.8q0,.369.246.431a.511.511,0,0,0,.492-.185q5.043-4.3,13.407-4.305a25.9,25.9,0,0,1,13.222,3.382A23.5,23.5,0,0,1,61.069-41.7ZM44.833-19.557a15.267,15.267,0,0,0,1.845-7.749,15.263,15.263,0,0,0-1.968-8.118,9.946,9.946,0,0,0-8.979-4.92q-6.642,0-9.225,5.043a16.351,16.351,0,0,0-1.845,8.241,16.108,16.108,0,0,0,1.6,7.5q2.706,5.412,9.348,5.412A9.643,9.643,0,0,0,44.833-19.557Z" transform="translate(1784 4756)" fill="#fff"/><path d="M-33.348-22.722v8.652A37.21,37.21,0,0,1-40.4-12.18l1.05,4.788c.462-.21.966-.42,3.192-1.218.882-.294,1.806-.63,2.814-1.008V-1.26a34.9,34.9,0,0,1-.294,4.872h4.956a41.74,41.74,0,0,1-.252-4.872v-10c1.092-.462,1.848-.8,3.024-1.344v1.932A24.005,24.005,0,0,1-21.8-10.92h11v8.484c0,1.05-.252,1.26-1.6,1.26A36.1,36.1,0,0,1-17.3-1.638a12.459,12.459,0,0,1,1.092,4.62c1.3.084,2.856.126,3.57.126,4.872,0,6.216-.84,6.216-3.99V-10.92h.378a29.614,29.614,0,0,1,4.116.252v-4.62a25.344,25.344,0,0,1-4.116.21h-.378v-3.528h.252a35.689,35.689,0,0,1,4.41.252V-22.89a43.069,43.069,0,0,1-4.746.21h-5.67v-4.074h4.536a42.464,42.464,0,0,1,4.41.21v-4.578a31.619,31.619,0,0,1-4.41.252H-12.18v-1.344a17.213,17.213,0,0,1,.21-3.108h-4.872a18.414,18.414,0,0,1,.252,3.15v1.3h-3.528a29.911,29.911,0,0,1-4.326-.252v4.578a41.943,41.943,0,0,1,4.326-.21h3.528v4.074h-4.788c-1.512,0-2.562-.042-3.864-.126v-4.41a17.642,17.642,0,0,1-3.36.252h-.336V-31.92a20.988,20.988,0,0,1,.252-3.444h-4.956a18.137,18.137,0,0,1,.294,3.444v4.956H-35.28l.126-1.722.084-.63a10.2,10.2,0,0,1,.252-2.142l-4.116-.5c.042.5.084.8.084,1.05a38.067,38.067,0,0,1-2.142,12.474,11.632,11.632,0,0,1,3.654,1.89,38.952,38.952,0,0,0,1.512-6.174Zm4.41,0h.672c.672,0,1.218,0,2.142.042v4.326a28.254,28.254,0,0,1,4.746-.252h10.584v3.528H-21.252c-1.848,0-3.066-.042-4.032-.126l-.042-1.848c-1.428.63-1.974.84-3.612,1.47ZM-24.108-8.4a31.629,31.629,0,0,1,5.334,6.888l3.654-2.772a34.348,34.348,0,0,0-5.5-6.426Zm64.89-20.454a19.467,19.467,0,0,1-3.486.21H33.054c.462-1.386.714-2.31,1.05-3.7a17.652,17.652,0,0,1,.546-2.016l-4.536-.966a34.428,34.428,0,0,1-3.486,11.97v-6.384a22.961,22.961,0,0,1,.126-2.814H22.932a24.857,24.857,0,0,1,.126,2.73v4.368H21.126v-6.426a29.486,29.486,0,0,1,.126-2.982H17.22a20.073,20.073,0,0,1,.168,2.982v6.426H15.414V-29.82a23.371,23.371,0,0,1,.084-2.73H12.222l.21-.252-3.78-2.73c-1.3,2.94-4.158,6.006-7.77,8.4a17.359,17.359,0,0,1,2.226,4.074,42.88,42.88,0,0,0,8.148-8.19,2.8,2.8,0,0,0,.5-.714,17.288,17.288,0,0,1,.126,2.142v5.712L8.9-25.7A26,26,0,0,1,.5-15.288,18.25,18.25,0,0,1,2.226-10.71,20.308,20.308,0,0,0,4.914-13.4C4.83-12.1,4.83-11.214,4.83-9.87v8.526A37.712,37.712,0,0,1,4.578,3.57H9.324a34.148,34.148,0,0,1-.21-4.788V-17.892A41.692,41.692,0,0,0,11.8-21.924a1.723,1.723,0,0,1-.042.462c.756-.042,1.89-.084,2.31-.084H25.452c-.462.588-.63.8-1.176,1.428.462.462.588.588.966,1.008-.63.042-1.344.042-2.394.042h-8.9a18.192,18.192,0,0,1-2.9-.168v4.2A22.353,22.353,0,0,1,14.28-15.2h2.478v3.066H14.7a19.783,19.783,0,0,1-3.108-.168V-8.19a21.683,21.683,0,0,1,3.066-.168h2.1v3.99a43.085,43.085,0,0,1-5.88.63h-.42L10.962.8C11.676.63,12.306.5,13.356.336c6.51-1.218,8.652-1.68,11.382-2.436-.84.588-1.3.924-2.646,1.764A20.461,20.461,0,0,1,24.78,3.4a30.556,30.556,0,0,0,7.686-7.77,34.275,34.275,0,0,0,6.342,7.56,27.423,27.423,0,0,1,2.478-4.578,26.631,26.631,0,0,1-6.426-7.14c2.31-5,3.234-9.072,3.57-15.96,1.134.042,1.47.084,2.352.168ZM26.166-6.174c-2.394.546-3.192.714-5.082,1.092V-8.358H22.47c1.428,0,2.394.042,3.4.126v-4.074a25.786,25.786,0,0,1-3.4.168H21.084V-15.2H23.6a16.371,16.371,0,0,1,2.688.168V-17.85c.252.378.336.546.672,1.05.378-.378.462-.5.756-.84a40.119,40.119,0,0,0,2.646,9.156,27.74,27.74,0,0,1-4.2,5.166ZM34.44-24.486a37,37,0,0,1-1.806,11.172,42.992,42.992,0,0,1-2.016-9.072c.336-.672.5-1.092.924-2.1Z" transform="translate(1788 4647)" fill="#fff"/><g transform="translate(-1280 1274)"><g transform="matrix(1, 0, 0, 1, 3001.58, 3309.5)" filter="url(#a)"><circle cx="73.5" cy="73.5" r="73.5" transform="translate(145.42 22.5)" fill="#fff46e"/></g><g transform="translate(3197.999 3382.999)"><path d="M41.019,32.815H12.049V3.846H21.8V0H8.2V8.2H0v36.66H36.661v-8.2h8.2v-13.6H41.019v9.753Zm-8.2,8.2H3.846V12.05H8.2V36.661H32.816Z" fill="#3cbebe"/><path d="M101.181,0V3.846H110.9L97.771,16.971l2.719,2.719L113.615,6.564V16.28h3.845V0Z" transform="translate(-72.596)" fill="#3cbebe"/></g></g><path d="M129.37.68H113.05L91.29-49.98,69.53.68H47.94L40.8-12.92H59.16l41.82-97.24H44.2v-14.45h79.22L99.45-68.85Z" transform="translate(2000 4749)" fill="#fff46e"/><path d="M125.8-114.92v14.45H115.77L75.48.68H48.96L41.31-13.6h23.8l34.68-86.87H68.51L52.53-60.69l-12.92-6.8,26.18-65.62,12.92,6.8-4.42,11.39Z" transform="translate(2094 4749)" fill="#fff46e"/><path d="M131.75-57.12H38.25V-71.91h93.5Z" transform="translate(2179 4749)" fill="#fff46e"/><path d="M73.95-96.39l12.92,6.8L50.66,1.02,37.74-5.78Zm28.73,82.45h24.31L119.34.34H88.06V-127.33h14.62Z" transform="translate(2264 4749)" fill="#fff46e"/><path d="M40.8-125.63h96.56L111.69-65.96,97.92-73.44l15.98-37.4H40.8ZM87.04-95.71l13.09,7.14L61.88.68H40.63L32.81-13.94H51.85Z" transform="translate(2375 4749)" fill="#fff46e"/><path d="M82.79-106.25v45.73H69.53v-45.73Zm-20.06,0v45.73H49.64v-45.73Zm48.45,5.95,12.75,6.8L83.47.68H55.42l-7.31-13.6H73.78Z" transform="translate(2471 4749)" fill="#fff46e"/><path d="M133.45-135.83a20.5,20.5,0,0,1,20.4,20.57,20.46,20.46,0,0,1-20.4,20.4,19.973,19.973,0,0,1-13.43-5.1L79.73.68H49.3L41.65-13.77H69.19l38.25-96.05H43.18v-14.62h71.91A20.516,20.516,0,0,1,133.45-135.83Zm0,30.6a10.048,10.048,0,0,0,10.03-10.03,10.086,10.086,0,0,0-10.03-10.2,10.086,10.086,0,0,0-10.03,10.2A10.048,10.048,0,0,0,133.45-105.23Z" transform="translate(2562 4749)" fill="#fff46e"/></g></svg>