<svg xmlns="http://www.w3.org/2000/svg" width="479.304" height="443.001" viewBox="0 0 479.304 443.001"><g transform="translate(-10.348 -36.268)"><path d="M419.46,243.069c93.59,54.033,93.589,141.64,0,195.675s-245.33,54.034-338.919,0-93.589-141.64,0-195.675S325.87,189.035,419.46,243.069Z" fill="#f5f5f5"/><path d="M238.425,430.839l-9.8-5.66a.792.792,0,0,1,0-1.5l183.4-105.885a2.873,2.873,0,0,1,2.6,0l9.8,5.659a.792.792,0,0,1,0,1.5l-183.4,105.887A2.872,2.872,0,0,1,238.425,430.839Z" fill="#e0e0e0"/><path d="M212.486,331.129,138.185,374a7.128,7.128,0,0,1-6.452,0L57.528,331.13c-1.781-1.029-1.781-2.7,0-3.725l74.3-42.869a7.128,7.128,0,0,1,6.452,0l74.2,42.868C214.268,328.433,214.268,330.1,212.486,331.129Z" fill="#e0e0e0"/><path d="M417.936,265.32s-2.065-17.02,3.114-31.845,14.591-25.552,24.96-28.906,21.221,4.335,11.505,13.706-28.182,20.973-31.476,48.149Z" fill="#27debf"/><g opacity="0.3"><path d="M417.936,265.32s-2.065-17.02,3.114-31.845,14.591-25.552,24.96-28.906,21.221,4.335,11.505,13.706-28.182,20.973-31.476,48.149Z"/></g><path d="M420.01,260.278a.538.538,0,0,1-.12-.005.579.579,0,0,1-.486-.662c4.607-30.123,23.105-46.651,32.243-51.182a.58.58,0,1,1,.515,1.04c-8.95,4.438-27.076,20.667-31.611,50.318A.579.579,0,0,1,420.01,260.278Z" fill="#fff"/><path d="M472.019,252.757c-1.855,4.633-10.016,4.146-10.069,9.874-.014,1.534.668,2.99.822,4.517.472,4.7-3.409,7.77-7.574,8.445-4.282.7-9.2-1.8-13.164.668-2.908,1.809-3.691,5.589-5.187,8.67a17.7,17.7,0,0,1-16.207,9.721c-2.011-.076-3.732-.83-3.383-2.964a4.777,4.777,0,0,0,.236-2.317c-.232-1.107-.739-2.158-1.067-3.238-1.451-4.778-2.8-9.743-5.529-13.983-2.713-4.21-.658-10.618,2.99-13.618,3.414-2.807,8.356-3.614,11.107-7.073,1.362-1.712,2.01-3.88,3.161-5.741a12.407,12.407,0,0,1,11.148-5.726c3.212.217,6.152,1.648,9.24,2.417a26.227,26.227,0,0,0,8.152.3c4.928-.316,11.043-.27,14.241,4.176A6.338,6.338,0,0,1,472.019,252.757Z" fill="#27debf"/><g opacity="0.1"><path d="M472.019,252.757c-1.855,4.633-10.016,4.146-10.069,9.874-.014,1.534.668,2.99.822,4.517.472,4.7-3.409,7.77-7.574,8.445-4.282.7-9.2-1.8-13.164.668-2.908,1.809-3.691,5.589-5.187,8.67a17.7,17.7,0,0,1-16.207,9.721c-2.011-.076-3.732-.83-3.383-2.964a4.777,4.777,0,0,0,.236-2.317c-.232-1.107-.739-2.158-1.067-3.238-1.451-4.778-2.8-9.743-5.529-13.983-2.713-4.21-.658-10.618,2.99-13.618,3.414-2.807,8.356-3.614,11.107-7.073,1.362-1.712,2.01-3.88,3.161-5.741a12.407,12.407,0,0,1,11.148-5.726c3.212.217,6.152,1.648,9.24,2.417a26.227,26.227,0,0,0,8.152.3c4.928-.316,11.043-.27,14.241,4.176A6.338,6.338,0,0,1,472.019,252.757Z"/></g><path d="M418.855,284.6l-.04-.008a.514.514,0,0,1-.388-.616c7.18-31.582,39.964-37.319,47.694-37.047a.515.515,0,0,1-.036,1.03c-7.562-.267-39.629,5.346-46.654,36.246A.516.516,0,0,1,418.855,284.6Z" fill="#fff"/><path d="M454.881,267.4a.51.51,0,0,1-.277-.133,27.4,27.4,0,0,0-22.658-5.489.515.515,0,0,1-.188-1.013,28.462,28.462,0,0,1,23.551,5.75.515.515,0,0,1-.428.885Z" fill="#fff"/><path d="M207.165,299.354l-72.12,41.639L62.926,299.354l72.12-41.638Z" fill="#27debf"/><path d="M207.165,299.354l-72.12,41.639L62.926,299.354l72.12-41.638Z" opacity="0.1"/><path d="M135.05,340.987l0-5.2L67.435,296.752l-4.512,2.6Z" opacity="0.1"/><path d="M135.05,340.987v28.5a9.858,9.858,0,0,0,4.8-1.143h0L171.1,350.3l33.179-19.163a6.357,6.357,0,0,0,2.885-4.994V299.353Z" fill="#27debf"/><path d="M135.05,340.987v28.5a9.858,9.858,0,0,0,4.8-1.143h0L171.1,350.3l33.179-19.163a6.357,6.357,0,0,0,2.885-4.994V299.353Z" fill="#fff" opacity="0.65"/><path d="M62.923,299.353v26.788a6.387,6.387,0,0,0,2.885,4.994l28.673,16.556,35.765,20.65a9.82,9.82,0,0,0,4.8,1.143v-28.5Z" fill="#27debf"/><path d="M62.923,299.353v26.788a6.387,6.387,0,0,0,2.885,4.994l28.673,16.556,35.765,20.65a9.82,9.82,0,0,0,4.8,1.143v-28.5Z" fill="#fff" opacity="0.5"/><path d="M207.165,268.126l-72.12,41.638L62.926,268.126l72.12-41.638Z" fill="#27debf"/><path d="M207.165,268.126l-72.12,41.638L62.926,268.126l72.12-41.638Z" opacity="0.1"/><path d="M135.045,309.764v-5.205L67.435,265.523l-4.508,2.6Z" opacity="0.1"/><path d="M207.165,288.945l-72.12,41.638V309.764l72.12-41.638Z" fill="#27debf"/><path d="M207.165,288.945l-72.12,41.638V309.764l72.12-41.638Z" fill="#fff" opacity="0.65"/><path d="M135.045,330.583,62.926,288.945V268.126l72.119,41.638Z" fill="#27debf"/><path d="M135.045,330.583,62.926,288.945V268.126l72.119,41.638Z" fill="#fff" opacity="0.5"/><path d="M198.15,299.354v-5.205l-63.1,36.434v5.2Z" fill="#455a64"/><path d="M67.433,291.547l0,5.205,67.611,39.036v-5.2Z" fill="#27debf"/><path d="M67.433,291.547l0,5.205,67.611,39.036v-5.2Z" fill="#37474f"/><path d="M207.165,236.9l-72.12,41.638L62.926,236.9l72.12-41.638Z" fill="#27debf"/><path d="M207.165,236.9l-72.12,41.638L62.926,236.9l72.12-41.638Z" opacity="0.1"/><path d="M135.045,278.536v-5.205L67.435,234.294l-4.508,2.6Z" opacity="0.1"/><path d="M207.165,257.716l-72.12,41.639V278.536l72.12-41.638Z" fill="#27debf"/><path d="M207.165,257.716l-72.12,41.639V278.536l72.12-41.638Z" fill="#fff" opacity="0.65"/><path d="M135.045,299.355,62.926,257.717V236.9l72.119,41.638Z" fill="#27debf"/><path d="M135.045,299.355,62.926,257.717V236.9l72.119,41.638Z" fill="#fff" opacity="0.5"/><path d="M198.15,268.126V262.92l-63.1,36.435v5.2Z" fill="#455a64"/><path d="M67.433,260.318l0,5.205,67.611,39.036v-5.2Z" fill="#37474f"/><path d="M198.15,236.9v-5.205l-63.1,36.434v5.2Z" fill="#455a64"/><path d="M67.433,229.09l0,5.2,67.611,39.036v-5.2Z" fill="#37474f"/><path d="M207.165,205.669l-72.12,41.638L62.926,205.669l72.12-41.638Z" fill="#27debf"/><path d="M207.165,205.669l-72.12,41.638L62.926,205.669l72.12-41.638Z" fill="#fff" opacity="0.15"/><path d="M207.165,205.669l-72.12,41.638L62.926,205.669l72.12-41.638Z" opacity="0.1"/><path d="M135.045,242.111v5.2L62.926,205.669l4.508-2.594Z" opacity="0.1"/><path d="M207.165,226.488l-72.12,41.638V247.307l72.12-41.638Z" fill="#27debf"/><path d="M207.165,226.488l-72.12,41.638V247.307l72.12-41.638Z" fill="#fff" opacity="0.65"/><path d="M135.045,268.126,62.926,226.488V205.669l72.119,41.638Z" fill="#27debf"/><path d="M135.045,268.126,62.926,226.488V205.669l72.119,41.638Z" fill="#fff" opacity="0.5"/><path d="M198.15,205.677v-5.205l-63.1,36.434v5.2Z" fill="#455a64"/><path d="M67.433,197.87l0,5.2,67.611,39.036v-5.2Z" fill="#37474f"/><path d="M207.165,174.382l-72.12,41.638L62.926,174.382l72.12-41.638Z" fill="#27debf"/><path d="M207.165,174.382l-72.12,41.638L62.926,174.382l72.12-41.638Z" fill="#fff" opacity="0.15"/><path d="M207.165,174.382l-72.12,41.638L62.926,174.382l72.12-41.638Z" opacity="0.1"/><path d="M135.045,210.824v5.2L62.926,174.382l4.508-2.594Z" opacity="0.1"/><path d="M207.165,195.2l-72.12,41.639V216.02l72.12-41.638Z" fill="#27debf"/><path d="M207.165,195.2l-72.12,41.639V216.02l72.12-41.638Z" fill="#fff" opacity="0.65"/><path d="M135.045,236.84,62.926,195.2V174.382l72.119,41.638Z" fill="#27debf"/><path d="M135.045,236.84,62.926,195.2V174.382l72.119,41.638Z" fill="#fff" opacity="0.5"/><path d="M65.806,141.5l66.4-38.31a6.4,6.4,0,0,1,5.766,0L204.284,141.5a6.4,6.4,0,0,1,2.883,4.994v17.49L135,205.62h0L62.923,163.981v-17.49A6.393,6.393,0,0,1,65.806,141.5Z" fill="#27debf"/><path d="M65.806,141.5l66.4-38.31a6.4,6.4,0,0,1,5.766,0L204.284,141.5a6.4,6.4,0,0,1,2.883,4.994v17.49L135,205.62h0L62.923,163.981v-17.49A6.393,6.393,0,0,1,65.806,141.5Z" fill="#fff" opacity="0.5"/><path d="M135.007,183.823v21.795l72.157-41.637V146.492a6.442,6.442,0,0,0-2.363-4.627c1.054.921.877,2.153-.522,2.963l-66.4,38.307A5.885,5.885,0,0,1,135.007,183.823Z" fill="#27debf"/><path d="M135.007,183.823v21.795l72.157-41.637V146.492a6.442,6.442,0,0,0-2.363-4.627c1.054.921.877,2.153-.522,2.963l-66.4,38.307A5.885,5.885,0,0,1,135.007,183.823Z" fill="#fff" opacity="0.65"/><path d="M204.284,144.826l-66.4,38.311a6.374,6.374,0,0,1-5.766,0l-66.313-38.31c-1.592-.92-1.592-2.41,0-3.329l66.4-38.31a6.374,6.374,0,0,1,5.766,0L204.284,141.5C205.876,142.417,205.876,143.907,204.284,144.826Z" fill="#27debf"/><path d="M204.284,144.826l-66.4,38.311a6.374,6.374,0,0,1-5.766,0l-66.313-38.31c-1.592-.92-1.592-2.41,0-3.329l66.4-38.31a6.374,6.374,0,0,1,5.766,0L204.284,141.5C205.876,142.417,205.876,143.907,204.284,144.826Z" fill="#fff" opacity="0.85"/><path d="M198.15,174.391v-5.205l-63.1,36.435v5.2Z" fill="#455a64"/><path d="M67.433,166.583l0,5.2,67.611,39.036v-5.2Z" fill="#37474f"/><path d="M78.615,332.545a2.213,2.213,0,0,1,1,1.733c0,.639-.448.9-1,.578a2.211,2.211,0,0,1-1-1.733C77.614,332.485,78.062,332.226,78.615,332.545Z" fill="#455a64"/><path d="M86.951,337.367a2.2,2.2,0,0,1,1,1.728c0,.635-.447.893-1,.575a2.2,2.2,0,0,1-1-1.727C85.954,337.307,86.4,337.049,86.951,337.367Z" fill="#455a64"/><path d="M95.148,342.1a2.2,2.2,0,0,1,.994,1.721c0,.634-.445.891-.994.574a2.2,2.2,0,0,1-.993-1.721C94.155,342.039,94.6,341.781,95.148,342.1Z" fill="#455a64"/><path d="M103.416,346.875a2.188,2.188,0,0,1,.989,1.715c0,.631-.443.887-.989.571a2.187,2.187,0,0,1-.991-1.714C102.425,346.815,102.869,346.559,103.416,346.875Z" fill="#455a64"/><path d="M68.886,307.967l8.473,4.868a5.314,5.314,0,0,1,2.4,4.162v4.861c0,1.532-1.076,2.153-2.4,1.387l-8.473-4.868a5.314,5.314,0,0,1-2.4-4.162v-4.861C66.483,307.822,67.559,307.2,68.886,307.967Z" fill="#fff" opacity="0.75"/><path d="M71.17,313.449l1.1-.636h0l.007,0h0a1.471,1.471,0,0,1,1.468.15,4.616,4.616,0,0,1,2.088,3.617,1.467,1.467,0,0,1-.61,1.35h0l-1.026.587-.184-.309a2.117,2.117,0,0,1-.6-.233,4.62,4.62,0,0,1-2.089-3.617,2.242,2.242,0,0,1,.066-.534Z" fill="#27debf"/><path d="M71.17,313.449l1.1-.636h0l.007,0h0a1.471,1.471,0,0,1,1.468.15,4.616,4.616,0,0,1,2.088,3.617,1.467,1.467,0,0,1-.61,1.35h0l-1.026.587-.184-.309a2.117,2.117,0,0,1-.6-.233,4.62,4.62,0,0,1-2.089-3.617,2.242,2.242,0,0,1,.066-.534Z" opacity="0.2"/><path d="M72.69,313.567a4.618,4.618,0,0,1,2.088,3.618c0,1.331-.935,1.871-2.088,1.205a4.616,4.616,0,0,1-2.088-3.617C70.6,313.441,71.536,312.9,72.69,313.567Z" fill="#27debf"/><path d="M68.886,276.715l8.473,4.868a5.314,5.314,0,0,1,2.4,4.162v4.861c0,1.532-1.076,2.153-2.4,1.387l-8.473-4.869a5.31,5.31,0,0,1-2.4-4.161V278.1C66.483,276.57,67.559,275.949,68.886,276.715Z" fill="#fff" opacity="0.75"/><path d="M71.17,282.2l1.1-.636h0l.007,0v0a1.472,1.472,0,0,1,1.468.149,4.616,4.616,0,0,1,2.088,3.617,1.466,1.466,0,0,1-.61,1.35h0l-1.026.587-.184-.309a2.117,2.117,0,0,1-.6-.233,4.621,4.621,0,0,1-2.089-3.617,2.227,2.227,0,0,1,.066-.533Z" fill="#27debf"/><path d="M71.17,282.2l1.1-.636h0l.007,0v0a1.472,1.472,0,0,1,1.468.149,4.616,4.616,0,0,1,2.088,3.617,1.466,1.466,0,0,1-.61,1.35h0l-1.026.587-.184-.309a2.117,2.117,0,0,1-.6-.233,4.621,4.621,0,0,1-2.089-3.617,2.227,2.227,0,0,1,.066-.533Z" opacity="0.2"/><path d="M72.69,282.316a4.615,4.615,0,0,1,2.088,3.617c0,1.332-.935,1.871-2.088,1.2a4.616,4.616,0,0,1-2.088-3.617C70.6,282.19,71.536,281.65,72.69,282.316Z" fill="#27debf"/><path d="M68.886,245.482l8.473,4.869a5.309,5.309,0,0,1,2.4,4.161v4.861c0,1.532-1.076,2.153-2.4,1.387l-8.473-4.869a5.31,5.31,0,0,1-2.4-4.161v-4.861C66.483,245.336,67.559,244.716,68.886,245.482Z" fill="#fff" opacity="0.75"/><path d="M71.17,250.964l1.1-.636h0l.007,0h0a1.473,1.473,0,0,1,1.468.15,4.616,4.616,0,0,1,2.088,3.617,1.467,1.467,0,0,1-.61,1.35h0l-1.026.587-.184-.309a2.117,2.117,0,0,1-.6-.233,4.62,4.62,0,0,1-2.089-3.617,2.242,2.242,0,0,1,.066-.534Z" fill="#27debf"/><path d="M71.17,250.964l1.1-.636h0l.007,0h0a1.473,1.473,0,0,1,1.468.15,4.616,4.616,0,0,1,2.088,3.617,1.467,1.467,0,0,1-.61,1.35h0l-1.026.587-.184-.309a2.117,2.117,0,0,1-.6-.233,4.62,4.62,0,0,1-2.089-3.617,2.242,2.242,0,0,1,.066-.534Z" opacity="0.2"/><path d="M72.69,251.083a4.614,4.614,0,0,1,2.088,3.616c0,1.332-.935,1.872-2.088,1.206a4.616,4.616,0,0,1-2.088-3.617C70.6,250.957,71.536,250.417,72.69,251.083Z" fill="#27debf"/><path d="M68.886,214.288l8.473,4.869a5.31,5.31,0,0,1,2.4,4.161v4.861c0,1.532-1.076,2.154-2.4,1.387L68.886,224.7a5.312,5.312,0,0,1-2.4-4.161v-4.862C66.483,214.143,67.559,213.522,68.886,214.288Z" fill="#fff" opacity="0.75"/><path d="M71.17,219.77l1.1-.636h0l.007-.005v0a1.47,1.47,0,0,1,1.468.149,4.616,4.616,0,0,1,2.088,3.617,1.469,1.469,0,0,1-.61,1.351h0l-1.026.587-.184-.309a2.117,2.117,0,0,1-.6-.233,4.62,4.62,0,0,1-2.089-3.617,2.234,2.234,0,0,1,.066-.533Z" fill="#27debf"/><path d="M71.17,219.77l1.1-.636h0l.007-.005v0a1.47,1.47,0,0,1,1.468.149,4.616,4.616,0,0,1,2.088,3.617,1.469,1.469,0,0,1-.61,1.351h0l-1.026.587-.184-.309a2.117,2.117,0,0,1-.6-.233,4.62,4.62,0,0,1-2.089-3.617,2.234,2.234,0,0,1,.066-.533Z" opacity="0.2"/><path d="M72.69,219.889a4.616,4.616,0,0,1,2.088,3.617c0,1.331-.935,1.871-2.088,1.205A4.614,4.614,0,0,1,70.6,221.1C70.6,219.763,71.536,219.223,72.69,219.889Z" fill="#27debf"/><path d="M68.886,183l8.473,4.868a5.31,5.31,0,0,1,2.4,4.161v4.862c0,1.532-1.076,2.153-2.4,1.387l-8.473-4.869a5.31,5.31,0,0,1-2.4-4.161v-4.861C66.483,182.856,67.559,182.235,68.886,183Z" fill="#fff" opacity="0.75"/><path d="M71.17,188.483l1.1-.635h0l.007,0h0a1.471,1.471,0,0,1,1.468.15,4.616,4.616,0,0,1,2.088,3.616,1.468,1.468,0,0,1-.61,1.351h0l-1.026.587-.184-.308a2.147,2.147,0,0,1-.6-.233,4.62,4.62,0,0,1-2.089-3.617,2.242,2.242,0,0,1,.066-.534Z" fill="#27debf"/><path d="M71.17,188.483l1.1-.635h0l.007,0h0a1.471,1.471,0,0,1,1.468.15,4.616,4.616,0,0,1,2.088,3.616,1.468,1.468,0,0,1-.61,1.351h0l-1.026.587-.184-.308a2.147,2.147,0,0,1-.6-.233,4.62,4.62,0,0,1-2.089-3.617,2.242,2.242,0,0,1,.066-.534Z" opacity="0.2"/><path d="M72.69,188.6a4.619,4.619,0,0,1,2.088,3.617c0,1.332-.935,1.872-2.088,1.206a4.616,4.616,0,0,1-2.088-3.617C70.6,188.476,71.536,187.936,72.69,188.6Z" fill="#27debf"/><path d="M68.886,151.746l8.473,4.869a5.31,5.31,0,0,1,2.4,4.161v4.861c0,1.532-1.076,2.154-2.4,1.387l-8.473-4.868a5.312,5.312,0,0,1-2.4-4.161v-4.862C66.483,151.6,67.559,150.98,68.886,151.746Z" fill="#fff" opacity="0.75"/><path d="M71.17,157.228l1.1-.636h0l.007,0h0a1.476,1.476,0,0,1,1.468.15,4.616,4.616,0,0,1,2.088,3.617,1.469,1.469,0,0,1-.61,1.351h0l-1.026.587-.184-.309a2.117,2.117,0,0,1-.6-.233,4.62,4.62,0,0,1-2.089-3.617,2.234,2.234,0,0,1,.066-.533Z" fill="#27debf"/><path d="M71.17,157.228l1.1-.636h0l.007,0h0a1.476,1.476,0,0,1,1.468.15,4.616,4.616,0,0,1,2.088,3.617,1.469,1.469,0,0,1-.61,1.351h0l-1.026.587-.184-.309a2.117,2.117,0,0,1-.6-.233,4.62,4.62,0,0,1-2.089-3.617,2.234,2.234,0,0,1,.066-.533Z" opacity="0.2"/><path d="M72.69,157.347a4.616,4.616,0,0,1,2.088,3.617c0,1.331-.935,1.871-2.088,1.205a4.616,4.616,0,0,1-2.088-3.616C70.6,157.221,71.536,156.681,72.69,157.347Z" fill="#27debf"/><path d="M200.254,308.557,164.492,329.2a5.312,5.312,0,0,0-2.4,4.161v4.861c0,1.532,1.075,2.153,2.4,1.387l35.762-20.647a5.308,5.308,0,0,0,2.4-4.161v-4.862C202.657,308.412,201.581,307.791,200.254,308.557Z" fill="#455a64"/><path d="M200.123,312.674v2.358a1.065,1.065,0,0,1-.481.833l-.54.312c-.266.153-.481.029-.481-.278v-2.358a1.061,1.061,0,0,1,.481-.832l.54-.312C199.907,312.244,200.123,312.368,200.123,312.674Z" fill="#27debf"/><path d="M197.694,314.074v2.358a1.064,1.064,0,0,1-.48.833l-.541.312c-.265.153-.481.028-.481-.278v-2.358a1.063,1.063,0,0,1,.481-.832l.541-.312C197.479,313.644,197.694,313.768,197.694,314.074Z" fill="#27debf"/><path d="M195.266,315.474v2.358a1.059,1.059,0,0,1-.481.832l-.54.313c-.265.152-.481.028-.481-.278v-2.358a1.062,1.062,0,0,1,.481-.832l.54-.313C195.051,315.043,195.266,315.167,195.266,315.474Z" fill="#27debf"/><path d="M192.837,316.874v2.358a1.061,1.061,0,0,1-.48.832l-.541.313c-.265.152-.48.028-.48-.278v-2.358a1.059,1.059,0,0,1,.48-.832l.541-.313C192.622,316.443,192.837,316.567,192.837,316.874Z" fill="#37474f"/><path d="M190.409,318.273v2.359a1.064,1.064,0,0,1-.48.832l-.541.312c-.265.153-.481.029-.481-.278v-2.357a1.064,1.064,0,0,1,.481-.833l.541-.312C190.194,317.843,190.409,317.967,190.409,318.273Z" fill="#37474f"/><path d="M187.98,319.673v2.359a1.06,1.06,0,0,1-.48.832l-.54.312c-.266.153-.48.029-.48-.278v-2.357a1.06,1.06,0,0,1,.48-.833l.541-.312C187.766,319.243,187.98,319.367,187.98,319.673Z" fill="#27debf"/><path d="M185.553,321.073v2.359a1.065,1.065,0,0,1-.481.832l-.541.312c-.265.153-.48.029-.48-.278V321.94a1.062,1.062,0,0,1,.48-.832l.541-.312C185.337,320.643,185.553,320.767,185.553,321.073Z" fill="#27debf"/><path d="M183.124,322.473v2.359a1.064,1.064,0,0,1-.48.832l-.541.312c-.265.153-.48.029-.48-.278V323.34a1.062,1.062,0,0,1,.48-.832l.541-.312C182.909,322.042,183.124,322.167,183.124,322.473Z" fill="#27debf"/><path d="M180.7,323.873v2.358a1.065,1.065,0,0,1-.481.833l-.54.312c-.266.153-.481.029-.481-.278V324.74a1.061,1.061,0,0,1,.481-.832l.54-.312C180.48,323.442,180.7,323.566,180.7,323.873Z" fill="#27debf"/><path d="M178.268,325.273v2.358a1.062,1.062,0,0,1-.481.832l-.541.312c-.265.154-.48.029-.48-.277V326.14a1.061,1.061,0,0,1,.48-.832l.541-.312C178.052,324.842,178.268,324.967,178.268,325.273Z" fill="#27debf"/><path d="M175.839,326.673v2.358a1.061,1.061,0,0,1-.481.832l-.54.312c-.265.154-.481.029-.481-.277V327.54a1.062,1.062,0,0,1,.481-.832l.54-.312C175.624,326.242,175.839,326.366,175.839,326.673Z" fill="#27debf"/><path d="M173.411,328.073v2.358a1.061,1.061,0,0,1-.481.832l-.54.312c-.266.154-.481.029-.481-.277V328.94a1.063,1.063,0,0,1,.481-.833l.541-.312C173.2,327.642,173.411,327.766,173.411,328.073Z" fill="#27debf"/><path d="M170.982,329.473v2.358a1.062,1.062,0,0,1-.48.832l-.541.312c-.265.153-.48.029-.48-.277v-2.359a1.062,1.062,0,0,1,.48-.832l.541-.312C170.768,329.042,170.982,329.166,170.982,329.473Z" fill="#37474f"/><path d="M168.554,330.873v2.357a1.063,1.063,0,0,1-.48.833l-.541.312c-.265.153-.48.029-.48-.277v-2.359a1.062,1.062,0,0,1,.48-.832l.541-.312C168.339,330.441,168.554,330.566,168.554,330.873Z" fill="#27debf"/><path d="M166.126,332.272v2.358a1.064,1.064,0,0,1-.48.833l-.541.311c-.266.154-.481.03-.481-.277v-2.358a1.061,1.061,0,0,1,.481-.832l.541-.312C165.911,331.842,166.126,331.966,166.126,332.272Z" fill="#27debf"/><path d="M200.254,277.335l-35.762,20.647a5.314,5.314,0,0,0-2.4,4.162v4.861c0,1.532,1.075,2.153,2.4,1.387l35.762-20.647a5.308,5.308,0,0,0,2.4-4.162v-4.861C202.657,277.19,201.581,276.569,200.254,277.335Z" fill="#455a64"/><path d="M200.123,281.452v2.358a1.063,1.063,0,0,1-.481.832l-.54.313c-.266.152-.481.028-.481-.278v-2.358a1.059,1.059,0,0,1,.481-.832l.54-.313C199.907,281.021,200.123,281.146,200.123,281.452Z" fill="#27debf"/><path d="M197.694,282.852v2.358a1.061,1.061,0,0,1-.48.832l-.541.313c-.265.152-.481.028-.481-.278v-2.358a1.062,1.062,0,0,1,.481-.832l.541-.313C197.479,282.421,197.694,282.545,197.694,282.852Z" fill="#37474f"/><path d="M195.266,284.252v2.358a1.061,1.061,0,0,1-.481.832l-.54.312c-.265.153-.481.029-.481-.277v-2.358a1.065,1.065,0,0,1,.481-.833l.54-.312C195.051,283.821,195.266,283.945,195.266,284.252Z" fill="#27debf"/><path d="M192.837,285.651v2.359a1.062,1.062,0,0,1-.48.832l-.541.312c-.265.153-.48.029-.48-.277v-2.358a1.063,1.063,0,0,1,.48-.833l.541-.312C192.622,285.221,192.837,285.345,192.837,285.651Z" fill="#37474f"/><path d="M190.409,287.051v2.359a1.064,1.064,0,0,1-.48.832l-.541.312c-.265.153-.481.029-.481-.278v-2.358a1.063,1.063,0,0,1,.481-.832l.541-.312C190.194,286.621,190.409,286.745,190.409,287.051Z" fill="#37474f"/><path d="M187.98,288.451v2.359a1.061,1.061,0,0,1-.48.832l-.54.312c-.266.153-.48.029-.48-.278v-2.358a1.06,1.06,0,0,1,.48-.832l.541-.312C187.766,288.021,187.98,288.145,187.98,288.451Z" fill="#27debf"/><path d="M185.553,289.851v2.358a1.065,1.065,0,0,1-.481.833l-.541.312c-.265.153-.48.029-.48-.278v-2.358a1.062,1.062,0,0,1,.48-.832l.541-.312C185.337,289.42,185.553,289.545,185.553,289.851Z" fill="#27debf"/><path d="M183.124,291.251v2.358a1.061,1.061,0,0,1-.48.832l-.541.312c-.265.154-.48.029-.48-.277v-2.358a1.061,1.061,0,0,1,.48-.832l.541-.312C182.909,290.82,183.124,290.944,183.124,291.251Z" fill="#27debf"/><path d="M180.7,292.651v2.358a1.063,1.063,0,0,1-.481.832l-.54.312c-.266.154-.481.03-.481-.277v-2.358a1.063,1.063,0,0,1,.481-.833l.54-.312C180.48,292.22,180.7,292.344,180.7,292.651Z" fill="#37474f"/><path d="M178.268,294.051v2.358a1.063,1.063,0,0,1-.481.832l-.541.312c-.265.154-.48.029-.48-.277v-2.359a1.064,1.064,0,0,1,.48-.832l.541-.312C178.052,293.62,178.268,293.744,178.268,294.051Z" fill="#27debf"/><path d="M175.839,295.451v2.358a1.061,1.061,0,0,1-.481.832l-.54.312c-.265.153-.481.029-.481-.277v-2.359a1.063,1.063,0,0,1,.481-.832l.54-.312C175.624,295.02,175.839,295.144,175.839,295.451Z" fill="#37474f"/><path d="M173.411,296.851v2.357a1.061,1.061,0,0,1-.481.833l-.54.312c-.266.153-.481.029-.481-.277v-2.359a1.062,1.062,0,0,1,.481-.832l.541-.312C173.2,296.42,173.411,296.544,173.411,296.851Z" fill="#27debf"/><path d="M170.982,298.251v2.357a1.061,1.061,0,0,1-.48.832l-.541.313c-.265.153-.48.029-.48-.278v-2.358a1.061,1.061,0,0,1,.48-.832l.541-.312C170.768,297.82,170.982,297.944,170.982,298.251Z" fill="#37474f"/><path d="M168.554,299.65v2.358a1.059,1.059,0,0,1-.48.832l-.541.313c-.265.153-.48.029-.48-.278v-2.358a1.061,1.061,0,0,1,.48-.832l.541-.312C168.339,299.22,168.554,299.344,168.554,299.65Z" fill="#27debf"/><path d="M166.126,301.05v2.358a1.061,1.061,0,0,1-.48.832l-.541.313c-.266.153-.481.029-.481-.278v-2.358a1.063,1.063,0,0,1,.481-.833l.541-.311C165.911,300.619,166.126,300.744,166.126,301.05Z" fill="#27debf"/><path d="M200.254,246.077l-35.762,20.648a5.31,5.31,0,0,0-2.4,4.161v4.861c0,1.532,1.075,2.153,2.4,1.387l35.762-20.648a5.306,5.306,0,0,0,2.4-4.161v-4.861C202.657,245.932,201.581,245.31,200.254,246.077Z" fill="#455a64"/><path d="M200.123,250.194v2.358a1.063,1.063,0,0,1-.481.832l-.54.312c-.266.154-.481.029-.481-.277V251.06a1.059,1.059,0,0,1,.481-.831l.54-.313C199.907,249.763,200.123,249.887,200.123,250.194Z" fill="#27debf"/><path d="M197.694,251.594v2.358a1.062,1.062,0,0,1-.48.832l-.541.312c-.265.153-.481.029-.481-.277V252.46a1.063,1.063,0,0,1,.481-.832l.541-.312C197.479,251.163,197.694,251.287,197.694,251.594Z" fill="#27debf"/><path d="M195.266,252.993v2.359a1.061,1.061,0,0,1-.481.832l-.54.312c-.265.153-.481.029-.481-.277V253.86a1.065,1.065,0,0,1,.481-.832l.54-.312C195.051,252.563,195.266,252.687,195.266,252.993Z" fill="#27debf"/><path d="M192.837,254.394v2.358a1.059,1.059,0,0,1-.48.831l-.541.313c-.265.153-.48.029-.48-.278V255.26a1.062,1.062,0,0,1,.48-.832l.541-.312C192.622,253.963,192.837,254.087,192.837,254.394Z" fill="#27debf"/><path d="M190.409,255.793v2.358a1.061,1.061,0,0,1-.48.832l-.541.313c-.265.153-.481.029-.481-.277V256.66a1.063,1.063,0,0,1,.481-.832l.541-.312C190.194,255.362,190.409,255.487,190.409,255.793Z" fill="#37474f"/><path d="M187.98,257.193v2.358a1.06,1.06,0,0,1-.48.832l-.54.312c-.266.154-.48.03-.48-.277V258.06a1.062,1.062,0,0,1,.48-.833l.541-.311C187.766,256.762,187.98,256.887,187.98,257.193Z" fill="#37474f"/><path d="M185.553,258.593v2.358a1.063,1.063,0,0,1-.481.832l-.541.312c-.265.153-.48.029-.48-.277V259.46a1.064,1.064,0,0,1,.48-.833l.541-.312C185.337,258.162,185.553,258.286,185.553,258.593Z" fill="#27debf"/><path d="M183.124,259.993v2.358a1.062,1.062,0,0,1-.48.832l-.541.312c-.265.153-.48.029-.48-.277v-2.359a1.064,1.064,0,0,1,.48-.832l.541-.312C182.909,259.562,183.124,259.686,183.124,259.993Z" fill="#27debf"/><path d="M180.7,261.393v2.358a1.063,1.063,0,0,1-.481.832l-.54.312c-.266.153-.481.029-.481-.277V262.26a1.063,1.063,0,0,1,.481-.833l.54-.312C180.48,260.962,180.7,261.086,180.7,261.393Z" fill="#27debf"/><path d="M178.268,262.792v2.358a1.064,1.064,0,0,1-.481.833l-.541.312c-.265.153-.48.029-.48-.277v-2.359a1.062,1.062,0,0,1,.48-.832l.541-.312C178.052,262.362,178.268,262.486,178.268,262.792Z" fill="#37474f"/><path d="M175.839,264.192v2.358a1.061,1.061,0,0,1-.481.833l-.54.312c-.265.153-.481.029-.481-.278v-2.358a1.063,1.063,0,0,1,.481-.832l.54-.312C175.624,263.762,175.839,263.886,175.839,264.192Z" fill="#27debf"/><path d="M173.411,265.592v2.358a1.063,1.063,0,0,1-.481.833l-.54.312c-.266.153-.481.028-.481-.278v-2.358a1.061,1.061,0,0,1,.481-.832l.541-.312C173.2,265.162,173.411,265.286,173.411,265.592Z" fill="#27debf"/><path d="M170.982,266.992v2.358a1.064,1.064,0,0,1-.48.833l-.541.312c-.265.153-.48.028-.48-.278v-2.358a1.062,1.062,0,0,1,.48-.832l.541-.312C170.768,266.561,170.982,266.685,170.982,266.992Z" fill="#37474f"/><path d="M168.554,268.392v2.358a1.061,1.061,0,0,1-.48.832l-.541.313c-.265.153-.48.028-.48-.278v-2.358a1.061,1.061,0,0,1,.48-.832l.541-.313C168.339,267.961,168.554,268.085,168.554,268.392Z" fill="#27debf"/><path d="M166.126,269.792v2.358a1.062,1.062,0,0,1-.48.832l-.541.312c-.266.153-.481.029-.481-.277v-2.358a1.063,1.063,0,0,1,.481-.833l.541-.311C165.911,269.361,166.126,269.485,166.126,269.792Z" fill="#37474f"/><path d="M200.254,214.872,164.492,235.52a5.312,5.312,0,0,0-2.4,4.161v4.861c0,1.532,1.075,2.153,2.4,1.387l35.762-20.647a5.307,5.307,0,0,0,2.4-4.161v-4.862C202.657,214.727,201.581,214.106,200.254,214.872Z" fill="#455a64"/><path d="M200.123,218.989v2.359a1.065,1.065,0,0,1-.481.832l-.54.312c-.266.153-.481.029-.481-.278v-2.358a1.061,1.061,0,0,1,.481-.832l.54-.312C199.907,218.559,200.123,218.683,200.123,218.989Z" fill="#27debf"/><path d="M197.694,220.389v2.358a1.064,1.064,0,0,1-.48.833l-.541.312c-.265.153-.481.029-.481-.278v-2.358a1.063,1.063,0,0,1,.481-.832l.541-.312C197.479,219.958,197.694,220.083,197.694,220.389Z" fill="#37474f"/><path d="M195.266,221.789v2.359a1.062,1.062,0,0,1-.481.832l-.54.312c-.265.153-.481.028-.481-.278v-2.358a1.063,1.063,0,0,1,.481-.832l.54-.312C195.051,221.358,195.266,221.482,195.266,221.789Z" fill="#27debf"/><path d="M192.837,223.189v2.358a1.061,1.061,0,0,1-.48.832l-.541.312c-.265.154-.48.029-.48-.277v-2.358a1.061,1.061,0,0,1,.48-.832l.541-.312C192.622,222.758,192.837,222.882,192.837,223.189Z" fill="#27debf"/><path d="M190.409,224.589v2.358a1.062,1.062,0,0,1-.48.832l-.541.312c-.265.153-.481.029-.481-.277v-2.358a1.065,1.065,0,0,1,.481-.833l.541-.312C190.194,224.158,190.409,224.282,190.409,224.589Z" fill="#27debf"/><path d="M187.98,225.989v2.358a1.06,1.06,0,0,1-.48.832l-.54.312c-.266.154-.48.029-.48-.277v-2.359a1.061,1.061,0,0,1,.48-.832l.541-.312C187.766,225.558,187.98,225.682,187.98,225.989Z" fill="#37474f"/><path d="M185.553,227.389v2.358a1.063,1.063,0,0,1-.481.832l-.541.312c-.265.153-.48.029-.48-.278v-2.358a1.062,1.062,0,0,1,.48-.832l.541-.312C185.337,226.958,185.553,227.082,185.553,227.389Z" fill="#37474f"/><path d="M183.124,228.789v2.357a1.063,1.063,0,0,1-.48.833l-.541.312c-.265.153-.48.029-.48-.277v-2.359a1.062,1.062,0,0,1,.48-.832l.541-.312C182.909,228.357,183.124,228.482,183.124,228.789Z" fill="#27debf"/><path d="M180.7,230.188v2.358a1.062,1.062,0,0,1-.481.832l-.54.312c-.266.154-.481.03-.481-.277v-2.358a1.059,1.059,0,0,1,.481-.832l.54-.312C180.48,229.758,180.7,229.882,180.7,230.188Z" fill="#37474f"/><path d="M178.268,231.588v2.358a1.06,1.06,0,0,1-.481.832l-.541.313c-.265.153-.48.029-.48-.278v-2.358a1.061,1.061,0,0,1,.48-.832l.541-.313C178.052,231.157,178.268,231.282,178.268,231.588Z" fill="#27debf"/><path d="M175.839,232.988v2.358a1.061,1.061,0,0,1-.481.832l-.54.312c-.265.154-.481.03-.481-.277v-2.358a1.062,1.062,0,0,1,.481-.832l.54-.313C175.624,232.557,175.839,232.682,175.839,232.988Z" fill="#27debf"/><path d="M173.411,234.388v2.358a1.061,1.061,0,0,1-.481.832l-.54.312c-.266.153-.481.029-.481-.277v-2.358a1.063,1.063,0,0,1,.481-.833l.541-.312C173.2,233.957,173.411,234.081,173.411,234.388Z" fill="#27debf"/><path d="M170.982,235.788v2.358a1.062,1.062,0,0,1-.48.832l-.541.312c-.265.153-.48.029-.48-.277v-2.358a1.064,1.064,0,0,1,.48-.833l.541-.312C170.768,235.357,170.982,235.481,170.982,235.788Z" fill="#37474f"/><path d="M168.554,237.188v2.358a1.062,1.062,0,0,1-.48.832l-.541.312c-.265.153-.48.029-.48-.277v-2.359a1.064,1.064,0,0,1,.48-.832l.541-.312C168.339,236.757,168.554,236.881,168.554,237.188Z" fill="#27debf"/><path d="M166.126,238.587v2.358a1.064,1.064,0,0,1-.48.833l-.541.312c-.266.153-.481.029-.481-.277v-2.359a1.061,1.061,0,0,1,.481-.832l.541-.312C165.911,238.157,166.126,238.281,166.126,238.587Z" fill="#27debf"/><path d="M200.254,183.586l-35.762,20.647a5.312,5.312,0,0,0-2.4,4.162v4.861c0,1.532,1.075,2.153,2.4,1.387L200.254,194a5.309,5.309,0,0,0,2.4-4.162v-4.861C202.657,183.44,201.581,182.82,200.254,183.586Z" fill="#455a64"/><path d="M200.123,187.7v2.358a1.063,1.063,0,0,1-.481.832l-.54.312c-.266.153-.481.029-.481-.277V188.57a1.063,1.063,0,0,1,.481-.833l.54-.312C199.907,187.272,200.123,187.4,200.123,187.7Z" fill="#27debf"/><path d="M197.694,189.1v2.359a1.062,1.062,0,0,1-.48.832l-.541.312c-.265.153-.481.029-.481-.277V189.97a1.065,1.065,0,0,1,.481-.833l.541-.312C197.479,188.672,197.694,188.8,197.694,189.1Z" fill="#37474f"/><path d="M195.266,190.5v2.359a1.061,1.061,0,0,1-.481.832l-.54.312c-.265.153-.481.029-.481-.278v-2.358a1.063,1.063,0,0,1,.481-.832l.54-.312C195.051,190.072,195.266,190.2,195.266,190.5Z" fill="#27debf"/><path d="M192.837,191.9v2.359a1.062,1.062,0,0,1-.48.832l-.541.312c-.265.153-.48.029-.48-.278V192.77a1.063,1.063,0,0,1,.48-.833l.541-.312C192.622,191.472,192.837,191.6,192.837,191.9Z" fill="#27debf"/><path d="M190.409,193.3v2.358a1.064,1.064,0,0,1-.48.833l-.541.312c-.265.153-.481.028-.481-.278v-2.358a1.063,1.063,0,0,1,.481-.832l.541-.312C190.194,192.872,190.409,193,190.409,193.3Z" fill="#27debf"/><path d="M187.98,194.7v2.358a1.062,1.062,0,0,1-.48.833l-.54.312c-.266.153-.48.028-.48-.278v-2.358a1.06,1.06,0,0,1,.48-.832l.541-.312C187.766,194.271,187.98,194.4,187.98,194.7Z" fill="#37474f"/><path d="M185.553,196.1v2.358a1.062,1.062,0,0,1-.481.832l-.541.313c-.265.153-.48.028-.48-.278v-2.358a1.062,1.062,0,0,1,.48-.832l.541-.313C185.337,195.671,185.553,195.795,185.553,196.1Z" fill="#37474f"/><path d="M183.124,197.5v2.358a1.062,1.062,0,0,1-.48.832L182.1,201c-.265.153-.48.029-.48-.277v-2.358a1.066,1.066,0,0,1,.48-.833l.541-.311C182.909,197.071,183.124,197.2,183.124,197.5Z" fill="#27debf"/><path d="M180.7,198.9v2.359a1.063,1.063,0,0,1-.481.832l-.54.312c-.266.154-.481.029-.481-.277v-2.358a1.061,1.061,0,0,1,.481-.833l.54-.312C180.48,198.471,180.7,198.6,180.7,198.9Z" fill="#37474f"/><path d="M178.268,200.3v2.359a1.063,1.063,0,0,1-.481.832l-.541.312c-.265.153-.48.029-.48-.278v-2.358a1.062,1.062,0,0,1,.48-.832l.541-.312C178.052,199.871,178.268,199.995,178.268,200.3Z" fill="#27debf"/><path d="M175.839,201.7v2.359a1.062,1.062,0,0,1-.481.832l-.54.312c-.265.153-.481.029-.481-.278v-2.358a1.063,1.063,0,0,1,.481-.832l.54-.312C175.624,201.271,175.839,201.4,175.839,201.7Z" fill="#27debf"/><path d="M173.411,203.1v2.358a1.063,1.063,0,0,1-.481.833l-.54.312c-.266.153-.481.029-.481-.278v-2.358a1.061,1.061,0,0,1,.481-.832l.541-.312C173.2,202.67,173.411,202.795,173.411,203.1Z" fill="#27debf"/><path d="M170.982,204.5v2.358a1.061,1.061,0,0,1-.48.832l-.541.312c-.265.154-.48.029-.48-.277v-2.358a1.061,1.061,0,0,1,.48-.832l.541-.312C170.768,204.07,170.982,204.2,170.982,204.5Z" fill="#37474f"/><path d="M168.554,205.9v2.358a1.062,1.062,0,0,1-.48.832l-.541.312c-.265.154-.48.03-.48-.277v-2.358a1.064,1.064,0,0,1,.48-.833l.541-.312C168.339,205.47,168.554,205.6,168.554,205.9Z" fill="#27debf"/><path d="M166.126,207.3v2.358a1.062,1.062,0,0,1-.48.832l-.541.312c-.266.154-.481.029-.481-.277v-2.359a1.062,1.062,0,0,1,.481-.832l.541-.312C165.911,206.87,166.126,206.994,166.126,207.3Z" fill="#27debf"/><path d="M200.254,152.355,164.492,173a5.314,5.314,0,0,0-2.4,4.162v4.86c0,1.533,1.075,2.154,2.4,1.388l35.762-20.647a5.311,5.311,0,0,0,2.4-4.161v-4.862C202.657,152.209,201.581,151.588,200.254,152.355Z" fill="#455a64"/><path d="M200.123,156.472v2.358a1.063,1.063,0,0,1-.481.832l-.54.312c-.266.153-.481.029-.481-.277v-2.359a1.062,1.062,0,0,1,.481-.832l.54-.312C199.907,156.041,200.123,156.165,200.123,156.472Z" fill="#37474f"/><path d="M197.694,157.872v2.358a1.062,1.062,0,0,1-.48.832l-.541.312c-.265.153-.481.029-.481-.277v-2.359a1.065,1.065,0,0,1,.481-.832l.541-.312C197.479,157.441,197.694,157.565,197.694,157.872Z" fill="#27debf"/><path d="M195.266,159.271v2.358a1.061,1.061,0,0,1-.481.833l-.54.312c-.265.153-.481.029-.481-.277v-2.359a1.063,1.063,0,0,1,.481-.832l.54-.312C195.051,158.841,195.266,158.965,195.266,159.271Z" fill="#37474f"/><path d="M192.837,160.671v2.358a1.061,1.061,0,0,1-.48.832l-.541.313c-.265.153-.48.029-.48-.278v-2.358a1.062,1.062,0,0,1,.48-.832l.541-.312C192.622,160.241,192.837,160.365,192.837,160.671Z" fill="#37474f"/><path d="M190.409,162.071v2.358a1.064,1.064,0,0,1-.48.833l-.541.312c-.265.153-.481.028-.481-.278v-2.358a1.063,1.063,0,0,1,.481-.832l.541-.312C190.194,161.641,190.409,161.765,190.409,162.071Z" fill="#37474f"/><path d="M187.98,163.471v2.358a1.058,1.058,0,0,1-.48.832l-.54.313c-.266.153-.48.028-.48-.278v-2.358a1.058,1.058,0,0,1,.48-.832l.541-.313C187.766,163.041,187.98,163.165,187.98,163.471Z" fill="#27debf"/><path d="M185.553,164.871v2.358a1.063,1.063,0,0,1-.481.832l-.541.312c-.265.153-.48.029-.48-.277v-2.358a1.066,1.066,0,0,1,.48-.833l.541-.311C185.337,164.44,185.553,164.565,185.553,164.871Z" fill="#27debf"/><path d="M183.124,166.271v2.358a1.062,1.062,0,0,1-.48.832l-.541.312c-.265.153-.48.029-.48-.277v-2.358a1.063,1.063,0,0,1,.48-.833l.541-.312C182.909,165.84,183.124,165.964,183.124,166.271Z" fill="#37474f"/><path d="M180.7,167.67v2.359a1.063,1.063,0,0,1-.481.832l-.54.312c-.266.153-.481.029-.481-.277v-2.358a1.061,1.061,0,0,1,.481-.833l.54-.312C180.48,167.24,180.7,167.364,180.7,167.67Z" fill="#27debf"/><path d="M178.268,169.07v2.359a1.065,1.065,0,0,1-.481.832l-.541.312c-.265.153-.48.029-.48-.278v-2.357a1.063,1.063,0,0,1,.48-.833l.541-.312C178.052,168.64,178.268,168.764,178.268,169.07Z" fill="#37474f"/><path d="M175.839,170.47v2.358a1.063,1.063,0,0,1-.481.833l-.54.312c-.265.153-.481.029-.481-.278v-2.358a1.063,1.063,0,0,1,.481-.832l.54-.312C175.624,170.04,175.839,170.164,175.839,170.47Z" fill="#37474f"/><path d="M173.411,171.87v2.359a1.059,1.059,0,0,1-.481.831l-.54.313c-.266.153-.481.028-.481-.278v-2.358a1.061,1.061,0,0,1,.481-.832l.541-.312C173.2,171.44,173.411,171.564,173.411,171.87Z" fill="#37474f"/><path d="M170.982,173.27v2.358a1.061,1.061,0,0,1-.48.832l-.541.313c-.265.153-.48.028-.48-.278v-2.358a1.062,1.062,0,0,1,.48-.832l.541-.312C170.768,172.839,170.982,172.963,170.982,173.27Z" fill="#27debf"/><path d="M168.554,174.67v2.358a1.062,1.062,0,0,1-.48.832l-.541.312c-.265.154-.48.029-.48-.277v-2.358a1.061,1.061,0,0,1,.48-.832l.541-.312C168.339,174.239,168.554,174.363,168.554,174.67Z" fill="#37474f"/><path d="M166.126,176.07v2.358a1.062,1.062,0,0,1-.48.832l-.541.312c-.266.154-.481.029-.481-.277v-2.359a1.059,1.059,0,0,1,.481-.831l.541-.313C165.911,175.639,166.126,175.763,166.126,176.07Z" fill="#37474f"/><path d="M155.694,338.1l-1.1-.636h0l-.008,0v0a1.471,1.471,0,0,0-1.467.149,4.616,4.616,0,0,0-2.089,3.617,1.471,1.471,0,0,0,.61,1.351h0l1.025.587.185-.309a2.1,2.1,0,0,0,.6-.233,4.616,4.616,0,0,0,2.088-3.617,2.235,2.235,0,0,0-.065-.533Z" fill="#27debf"/><path d="M155.694,338.1l-1.1-.636h0l-.008,0v0a1.471,1.471,0,0,0-1.467.149,4.616,4.616,0,0,0-2.089,3.617,1.471,1.471,0,0,0,.61,1.351h0l1.025.587.185-.309a2.1,2.1,0,0,0,.6-.233,4.616,4.616,0,0,0,2.088-3.617,2.235,2.235,0,0,0-.065-.533Z" opacity="0.4"/><path d="M154.175,338.219a4.615,4.615,0,0,0-2.089,3.617c0,1.331.935,1.872,2.089,1.206a4.618,4.618,0,0,0,2.088-3.617C156.263,338.093,155.328,337.553,154.175,338.219Z" fill="#27debf"/><path d="M154.175,338.219a4.615,4.615,0,0,0-2.089,3.617c0,1.331.935,1.872,2.089,1.206a4.618,4.618,0,0,0,2.088-3.617C156.263,338.093,155.328,337.553,154.175,338.219Z" opacity="0.2"/><path d="M146.629,343.332l-1.1-.636h0l-.008,0h0a1.473,1.473,0,0,0-1.468.15,4.617,4.617,0,0,0-2.089,3.616,1.468,1.468,0,0,0,.61,1.351h0l1.025.588.185-.309a2.128,2.128,0,0,0,.6-.233,4.618,4.618,0,0,0,2.088-3.617,2.229,2.229,0,0,0-.065-.533Z" fill="#27debf"/><path d="M146.629,343.332l-1.1-.636h0l-.008,0h0a1.473,1.473,0,0,0-1.468.15,4.617,4.617,0,0,0-2.089,3.616,1.468,1.468,0,0,0,.61,1.351h0l1.025.588.185-.309a2.128,2.128,0,0,0,.6-.233,4.618,4.618,0,0,0,2.088-3.617,2.229,2.229,0,0,0-.065-.533Z" opacity="0.4"/><path d="M145.11,343.451a4.615,4.615,0,0,0-2.089,3.616c0,1.332.936,1.872,2.088,1.206a4.615,4.615,0,0,0,2.089-3.617C147.2,343.324,146.263,342.785,145.11,343.451Z" fill="#27debf"/><path d="M145.11,343.451a4.615,4.615,0,0,0-2.089,3.616c0,1.332.936,1.872,2.088,1.206a4.615,4.615,0,0,0,2.089-3.617C147.2,343.324,146.263,342.785,145.11,343.451Z" opacity="0.2"/><path d="M155.694,306.873l-1.1-.636h0l-.008,0h0a1.469,1.469,0,0,0-1.467.15A4.614,4.614,0,0,0,151.027,310a1.47,1.47,0,0,0,.61,1.351h0l1.025.587.185-.31a2.069,2.069,0,0,0,.6-.233,4.614,4.614,0,0,0,2.088-3.616,2.228,2.228,0,0,0-.065-.533Z" fill="#27debf"/><path d="M155.694,306.873l-1.1-.636h0l-.008,0h0a1.469,1.469,0,0,0-1.467.15A4.614,4.614,0,0,0,151.027,310a1.47,1.47,0,0,0,.61,1.351h0l1.025.587.185-.31a2.069,2.069,0,0,0,.6-.233,4.614,4.614,0,0,0,2.088-3.616,2.228,2.228,0,0,0-.065-.533Z" opacity="0.4"/><path d="M154.175,306.991a4.616,4.616,0,0,0-2.089,3.617c0,1.332.935,1.872,2.089,1.206a4.616,4.616,0,0,0,2.088-3.617C156.263,306.865,155.328,306.326,154.175,306.991Z" fill="#27debf"/><path d="M154.175,306.991a4.616,4.616,0,0,0-2.089,3.617c0,1.332.935,1.872,2.089,1.206a4.616,4.616,0,0,0,2.088-3.617C156.263,306.865,155.328,306.326,154.175,306.991Z" opacity="0.2"/><path d="M146.629,312.1l-1.1-.636h0l-.008,0v0a1.472,1.472,0,0,0-1.468.149,4.617,4.617,0,0,0-2.089,3.617,1.469,1.469,0,0,0,.61,1.351h0l1.025.587.185-.309a2.129,2.129,0,0,0,.6-.233,4.616,4.616,0,0,0,2.088-3.617,2.242,2.242,0,0,0-.065-.533Z" fill="#27debf"/><path d="M146.629,312.1l-1.1-.636h0l-.008,0v0a1.472,1.472,0,0,0-1.468.149,4.617,4.617,0,0,0-2.089,3.617,1.469,1.469,0,0,0,.61,1.351h0l1.025.587.185-.309a2.129,2.129,0,0,0,.6-.233,4.616,4.616,0,0,0,2.088-3.617,2.242,2.242,0,0,0-.065-.533Z" opacity="0.4"/><path d="M145.11,312.223a4.617,4.617,0,0,0-2.089,3.617c0,1.331.936,1.871,2.088,1.205a4.614,4.614,0,0,0,2.089-3.616C147.2,312.1,146.263,311.557,145.11,312.223Z" fill="#27debf"/><path d="M145.11,312.223a4.617,4.617,0,0,0-2.089,3.617c0,1.331.936,1.871,2.088,1.205a4.614,4.614,0,0,0,2.089-3.616C147.2,312.1,146.263,311.557,145.11,312.223Z" opacity="0.2"/><path d="M155.694,275.644l-1.1-.636h0l-.008-.005h0a1.474,1.474,0,0,0-1.467.15,4.616,4.616,0,0,0-2.089,3.617,1.472,1.472,0,0,0,.61,1.351h0l1.025.587.185-.309a2.129,2.129,0,0,0,.6-.233,4.616,4.616,0,0,0,2.088-3.617,2.235,2.235,0,0,0-.065-.533Z" fill="#27debf"/><path d="M155.694,275.644l-1.1-.636h0l-.008-.005h0a1.474,1.474,0,0,0-1.467.15,4.616,4.616,0,0,0-2.089,3.617,1.472,1.472,0,0,0,.61,1.351h0l1.025.587.185-.309a2.129,2.129,0,0,0,.6-.233,4.616,4.616,0,0,0,2.088-3.617,2.235,2.235,0,0,0-.065-.533Z" opacity="0.4"/><path d="M154.175,275.763a4.615,4.615,0,0,0-2.089,3.617c0,1.331.935,1.871,2.089,1.2a4.616,4.616,0,0,0,2.088-3.616C156.263,275.637,155.328,275.1,154.175,275.763Z" fill="#27debf"/><path d="M154.175,275.763a4.615,4.615,0,0,0-2.089,3.617c0,1.331.935,1.871,2.089,1.2a4.616,4.616,0,0,0,2.088-3.616C156.263,275.637,155.328,275.1,154.175,275.763Z" opacity="0.2"/><path d="M146.629,280.876l-1.1-.636h0l-.008,0h0a1.471,1.471,0,0,0-1.468.15A4.615,4.615,0,0,0,141.962,284a1.469,1.469,0,0,0,.61,1.351h0l1.025.586.185-.308a2.1,2.1,0,0,0,.6-.234,4.614,4.614,0,0,0,2.088-3.616,2.244,2.244,0,0,0-.065-.534Z" fill="#27debf"/><path d="M146.629,280.876l-1.1-.636h0l-.008,0h0a1.471,1.471,0,0,0-1.468.15A4.615,4.615,0,0,0,141.962,284a1.469,1.469,0,0,0,.61,1.351h0l1.025.586.185-.308a2.1,2.1,0,0,0,.6-.234,4.614,4.614,0,0,0,2.088-3.616,2.244,2.244,0,0,0-.065-.534Z" opacity="0.4"/><path d="M145.11,280.994a4.617,4.617,0,0,0-2.089,3.617c0,1.332.936,1.872,2.088,1.206A4.614,4.614,0,0,0,147.2,282.2C147.2,280.868,146.263,280.329,145.11,280.994Z" fill="#27debf"/><path d="M145.11,280.994a4.617,4.617,0,0,0-2.089,3.617c0,1.332.936,1.872,2.088,1.206A4.614,4.614,0,0,0,147.2,282.2C147.2,280.868,146.263,280.329,145.11,280.994Z" opacity="0.2"/><path d="M155.694,244.416l-1.1-.636h0l-.008-.005v0a1.471,1.471,0,0,0-1.467.149,4.616,4.616,0,0,0-2.089,3.617,1.471,1.471,0,0,0,.61,1.351h0l1.025.586.185-.309a2.155,2.155,0,0,0,.6-.232,4.619,4.619,0,0,0,2.088-3.617,2.244,2.244,0,0,0-.065-.534Z" fill="#27debf"/><path d="M155.694,244.416l-1.1-.636h0l-.008-.005v0a1.471,1.471,0,0,0-1.467.149,4.616,4.616,0,0,0-2.089,3.617,1.471,1.471,0,0,0,.61,1.351h0l1.025.586.185-.309a2.155,2.155,0,0,0,.6-.232,4.619,4.619,0,0,0,2.088-3.617,2.244,2.244,0,0,0-.065-.534Z" opacity="0.4"/><path d="M154.175,244.534a4.615,4.615,0,0,0-2.089,3.617c0,1.332.935,1.872,2.089,1.205a4.613,4.613,0,0,0,2.088-3.616C156.263,244.408,155.328,243.868,154.175,244.534Z" fill="#27debf"/><path d="M154.175,244.534a4.615,4.615,0,0,0-2.089,3.617c0,1.332.935,1.872,2.089,1.205a4.613,4.613,0,0,0,2.088-3.616C156.263,244.408,155.328,243.868,154.175,244.534Z" opacity="0.2"/><path d="M146.629,249.647l-1.1-.636h0l-.008-.005h0a1.473,1.473,0,0,0-1.468.15,4.617,4.617,0,0,0-2.089,3.617,1.466,1.466,0,0,0,.61,1.35h0l0,0h0l1.025.587.185-.309a2.129,2.129,0,0,0,.6-.233,4.616,4.616,0,0,0,2.088-3.617,2.229,2.229,0,0,0-.065-.533Z" fill="#27debf"/><path d="M146.629,249.647l-1.1-.636h0l-.008-.005h0a1.473,1.473,0,0,0-1.468.15,4.617,4.617,0,0,0-2.089,3.617,1.466,1.466,0,0,0,.61,1.35h0l0,0h0l1.025.587.185-.309a2.129,2.129,0,0,0,.6-.233,4.616,4.616,0,0,0,2.088-3.617,2.229,2.229,0,0,0-.065-.533Z" opacity="0.4"/><path d="M145.11,249.766a4.617,4.617,0,0,0-2.089,3.617c0,1.331.936,1.871,2.088,1.205a4.615,4.615,0,0,0,2.089-3.617C147.2,249.64,146.263,249.1,145.11,249.766Z" fill="#27debf"/><path d="M145.11,249.766a4.617,4.617,0,0,0-2.089,3.617c0,1.331.936,1.871,2.088,1.205a4.615,4.615,0,0,0,2.089-3.617C147.2,249.64,146.263,249.1,145.11,249.766Z" opacity="0.2"/><path d="M155.694,213.129l-1.1-.636h0l-.008,0h0a1.471,1.471,0,0,0-1.467.15,4.615,4.615,0,0,0-2.089,3.617,1.469,1.469,0,0,0,.61,1.35h0l1.025.587.185-.309a2.129,2.129,0,0,0,.6-.233,4.616,4.616,0,0,0,2.088-3.617,2.244,2.244,0,0,0-.065-.534Z" fill="#27debf"/><path d="M155.694,213.129l-1.1-.636h0l-.008,0h0a1.471,1.471,0,0,0-1.467.15,4.615,4.615,0,0,0-2.089,3.617,1.469,1.469,0,0,0,.61,1.35h0l1.025.587.185-.309a2.129,2.129,0,0,0,.6-.233,4.616,4.616,0,0,0,2.088-3.617,2.244,2.244,0,0,0-.065-.534Z" opacity="0.4"/><path d="M154.175,213.248a4.615,4.615,0,0,0-2.089,3.617c0,1.331.935,1.871,2.089,1.205a4.616,4.616,0,0,0,2.088-3.617C156.263,213.122,155.328,212.582,154.175,213.248Z" fill="#27debf"/><path d="M154.175,213.248a4.615,4.615,0,0,0-2.089,3.617c0,1.331.935,1.871,2.089,1.205a4.616,4.616,0,0,0,2.088-3.617C156.263,213.122,155.328,212.582,154.175,213.248Z" opacity="0.2"/><path d="M146.629,218.36l-1.1-.635h0l-.008,0h0a1.472,1.472,0,0,0-1.468.149,4.619,4.619,0,0,0-2.089,3.617,1.469,1.469,0,0,0,.61,1.351h0l1.025.587.185-.309a2.129,2.129,0,0,0,.6-.233,4.614,4.614,0,0,0,2.088-3.616,2.244,2.244,0,0,0-.065-.534Z" fill="#27debf"/><path d="M146.629,218.36l-1.1-.635h0l-.008,0h0a1.472,1.472,0,0,0-1.468.149,4.619,4.619,0,0,0-2.089,3.617,1.469,1.469,0,0,0,.61,1.351h0l1.025.587.185-.309a2.129,2.129,0,0,0,.6-.233,4.614,4.614,0,0,0,2.088-3.616,2.244,2.244,0,0,0-.065-.534Z" opacity="0.4"/><path d="M145.11,218.479a4.619,4.619,0,0,0-2.089,3.617c0,1.332.936,1.871,2.088,1.206a4.615,4.615,0,0,0,2.089-3.617C147.2,218.353,146.263,217.814,145.11,218.479Z" fill="#27debf"/><path d="M145.11,218.479a4.619,4.619,0,0,0-2.089,3.617c0,1.332.936,1.871,2.088,1.206a4.615,4.615,0,0,0,2.089-3.617C147.2,218.353,146.263,217.814,145.11,218.479Z" opacity="0.2"/><path d="M155.694,181.909l-1.1-.636h0l-.008,0h0a1.471,1.471,0,0,0-1.467.149,4.616,4.616,0,0,0-2.089,3.617,1.471,1.471,0,0,0,.61,1.351h0l1.025.587.185-.309a2.129,2.129,0,0,0,.6-.233,4.616,4.616,0,0,0,2.088-3.617,2.235,2.235,0,0,0-.065-.533Z" fill="#27debf"/><path d="M155.694,181.909l-1.1-.636h0l-.008,0h0a1.471,1.471,0,0,0-1.467.149,4.616,4.616,0,0,0-2.089,3.617,1.471,1.471,0,0,0,.61,1.351h0l1.025.587.185-.309a2.129,2.129,0,0,0,.6-.233,4.616,4.616,0,0,0,2.088-3.617,2.235,2.235,0,0,0-.065-.533Z" opacity="0.4"/><path d="M154.175,182.028a4.615,4.615,0,0,0-2.089,3.617c0,1.332.935,1.872,2.089,1.206a4.618,4.618,0,0,0,2.088-3.617C156.263,181.9,155.328,181.362,154.175,182.028Z" fill="#27debf"/><path d="M154.175,182.028a4.615,4.615,0,0,0-2.089,3.617c0,1.332.935,1.872,2.089,1.206a4.618,4.618,0,0,0,2.088-3.617C156.263,181.9,155.328,181.362,154.175,182.028Z" opacity="0.2"/><path d="M146.629,187.141l-1.1-.636h0l-.008,0h0a1.47,1.47,0,0,0-1.468.15,4.616,4.616,0,0,0-2.089,3.617,1.468,1.468,0,0,0,.61,1.35h0l1.025.587.185-.309a2.128,2.128,0,0,0,.6-.233,4.618,4.618,0,0,0,2.088-3.617,2.229,2.229,0,0,0-.065-.533Z" fill="#27debf"/><path d="M146.629,187.141l-1.1-.636h0l-.008,0h0a1.47,1.47,0,0,0-1.468.15,4.616,4.616,0,0,0-2.089,3.617,1.468,1.468,0,0,0,.61,1.35h0l1.025.587.185-.309a2.128,2.128,0,0,0,.6-.233,4.618,4.618,0,0,0,2.088-3.617,2.229,2.229,0,0,0-.065-.533Z" opacity="0.4"/><path d="M145.11,187.259a4.619,4.619,0,0,0-2.089,3.618c0,1.331.936,1.871,2.088,1.205a4.615,4.615,0,0,0,2.089-3.617C147.2,187.133,146.263,186.594,145.11,187.259Z" fill="#27debf"/><path d="M145.11,187.259a4.619,4.619,0,0,0-2.089,3.618c0,1.331.936,1.871,2.088,1.205a4.615,4.615,0,0,0,2.089-3.617C147.2,187.133,146.263,186.594,145.11,187.259Z" opacity="0.2"/><path d="M86.57,253.794l41.093,23.7a2.947,2.947,0,0,1,1.332,2.307v11.347c0,.85-.6,1.194-1.331.769l-41.093-23.7a2.944,2.944,0,0,1-1.332-2.306V254.563C85.238,253.713,85.834,253.369,86.57,253.794Z" fill="#455a64"/><path d="M87.736,258.794a2.855,2.855,0,0,0,1.332,2.211l36.1,20.82c.735.425,1.332.123,1.331-.673a2.854,2.854,0,0,0-1.331-2.211l-36.1-20.82C88.333,257.7,87.736,258,87.736,258.794Z" fill="#27debf"/><path d="M87.736,264.563a2.855,2.855,0,0,0,1.332,2.211l36.1,20.821c.735.424,1.332.122,1.331-.674a2.856,2.856,0,0,0-1.331-2.211l-36.1-20.82C88.333,263.465,87.736,263.767,87.736,264.563Z" fill="#263238"/><path d="M89.068,263.89l19.942,11.493v2.884L89.068,266.774a2.855,2.855,0,0,1-1.332-2.211C87.736,263.767,88.333,263.465,89.068,263.89Z" fill="#27debf"/><path d="M86.57,285.091l41.093,23.7a2.945,2.945,0,0,1,1.332,2.307v11.347c0,.849-.6,1.194-1.331.769l-41.093-23.7a2.945,2.945,0,0,1-1.332-2.306V285.859C85.238,285.01,85.834,284.666,86.57,285.091Z" fill="#455a64"/><path d="M87.736,290.091a2.857,2.857,0,0,0,1.332,2.211l36.1,20.82c.735.425,1.332.123,1.331-.673a2.854,2.854,0,0,0-1.331-2.211l-36.1-20.821C88.333,288.993,87.736,289.294,87.736,290.091Z" fill="#27debf"/><path d="M87.736,295.86a2.858,2.858,0,0,0,1.332,2.211l36.1,20.82c.735.425,1.332.123,1.331-.673a2.856,2.856,0,0,0-1.331-2.211l-36.1-20.821C88.333,294.762,87.736,295.064,87.736,295.86Z" fill="#263238"/><path d="M89.068,295.186l24.938,14.379v2.884L89.068,298.071a2.858,2.858,0,0,1-1.332-2.211C87.736,295.064,88.333,294.762,89.068,295.186Z" fill="#27debf"/><path d="M86.57,316.161l41.093,23.7a2.945,2.945,0,0,1,1.332,2.306V353.52c0,.849-.6,1.193-1.331.768l-41.093-23.7a2.942,2.942,0,0,1-1.332-2.306V316.929C85.238,316.08,85.834,315.736,86.57,316.161Z" fill="#455a64"/><path d="M87.736,321.161a2.855,2.855,0,0,0,1.332,2.211l36.1,20.82c.735.425,1.332.123,1.331-.673a2.854,2.854,0,0,0-1.331-2.211l-36.1-20.821C88.333,320.063,87.736,320.365,87.736,321.161Z" fill="#27debf"/><path d="M87.736,326.93a2.855,2.855,0,0,0,1.332,2.211l36.1,20.82c.735.425,1.332.123,1.331-.673a2.856,2.856,0,0,0-1.331-2.211l-36.1-20.82C88.333,325.832,87.736,326.134,87.736,326.93Z" fill="#263238"/><path d="M89.068,326.257,119,343.519V346.4L89.068,329.141a2.855,2.855,0,0,1-1.332-2.211C87.736,326.134,88.333,325.832,89.068,326.257Z" fill="#27debf"/><path d="M86.57,222.8l41.093,23.7a2.945,2.945,0,0,1,1.332,2.307v11.347c0,.849-.6,1.194-1.331.769L86.57,237.221a2.945,2.945,0,0,1-1.332-2.306V223.567C85.238,222.718,85.834,222.374,86.57,222.8Z" fill="#455a64"/><path d="M87.736,227.8a2.857,2.857,0,0,0,1.332,2.211l36.1,20.82c.735.425,1.332.123,1.331-.673a2.854,2.854,0,0,0-1.331-2.211l-36.1-20.82C88.333,226.7,87.736,227,87.736,227.8Z" fill="#27debf"/><path d="M87.736,233.568a2.857,2.857,0,0,0,1.332,2.211l36.1,20.82c.735.425,1.332.123,1.331-.673a2.856,2.856,0,0,0-1.331-2.211l-36.1-20.82C88.333,232.47,87.736,232.771,87.736,233.568Z" fill="#263238"/><path d="M89.068,232.9,121.5,251.6v2.884l-32.433-18.7a2.857,2.857,0,0,1-1.332-2.211C87.736,232.771,88.333,232.47,89.068,232.9Z" fill="#27debf"/><path d="M86.57,160.271l41.093,23.7a2.944,2.944,0,0,1,1.332,2.306v11.348c0,.85-.6,1.193-1.331.769L86.57,174.693a2.943,2.943,0,0,1-1.332-2.306V161.039C85.238,160.19,85.834,159.846,86.57,160.271Z" fill="#455a64"/><path d="M87.736,165.271a2.855,2.855,0,0,0,1.332,2.21l36.1,20.821c.735.425,1.332.123,1.331-.674a2.857,2.857,0,0,0-1.331-2.211l-36.1-20.82C88.333,164.173,87.736,164.474,87.736,165.271Z" fill="#27debf"/><path d="M87.736,171.04a2.858,2.858,0,0,0,1.332,2.211l36.1,20.82c.735.425,1.332.123,1.331-.673a2.857,2.857,0,0,0-1.331-2.212l-36.1-20.82C88.333,169.942,87.736,170.243,87.736,171.04Z" fill="#263238"/><path d="M89.068,170.366l24.938,14.378v2.884L89.068,173.251a2.858,2.858,0,0,1-1.332-2.211C87.736,170.243,88.333,169.942,89.068,170.366Z" fill="#27debf"/><path d="M86.57,191.512l41.093,23.705a2.945,2.945,0,0,1,1.332,2.306v11.348c0,.849-.6,1.193-1.331.769L86.57,205.935a2.947,2.947,0,0,1-1.332-2.307V192.281C85.238,191.432,85.834,191.087,86.57,191.512Z" fill="#455a64"/><path d="M87.736,196.512a2.855,2.855,0,0,0,1.332,2.211l36.1,20.82c.735.425,1.332.124,1.331-.673a2.856,2.856,0,0,0-1.331-2.211l-36.1-20.82C88.333,195.414,87.736,195.716,87.736,196.512Z" fill="#27debf"/><path d="M87.736,202.281a2.855,2.855,0,0,0,1.332,2.211l36.1,20.821c.735.424,1.332.122,1.331-.674a2.856,2.856,0,0,0-1.331-2.211l-36.1-20.82C88.333,201.184,87.736,201.485,87.736,202.281Z" fill="#263238"/><path d="M89.068,201.608,121.5,220.313V223.2L89.068,204.492a2.855,2.855,0,0,1-1.332-2.211C87.736,201.485,88.333,201.184,89.068,201.608Z" fill="#27debf"/><path d="M136.736,171.272,185.02,143.4a2.763,2.763,0,0,0,1.249-2.164v-1.626a2.763,2.763,0,0,0-1.249-2.164l-48.284-27.876a2.756,2.756,0,0,0-2.5,0L85.954,137.442a2.766,2.766,0,0,0-1.249,2.164v1.626a2.763,2.763,0,0,0,1.249,2.164l48.284,27.876A2.762,2.762,0,0,0,136.736,171.272Z" fill="#27debf"/><path d="M136.736,171.272,185.02,143.4a2.763,2.763,0,0,0,1.249-2.164v-1.626a2.763,2.763,0,0,0-1.249-2.164l-48.284-27.876a2.756,2.756,0,0,0-2.5,0L85.954,137.442a2.766,2.766,0,0,0-1.249,2.164v1.626a2.763,2.763,0,0,0,1.249,2.164l48.284,27.876A2.762,2.762,0,0,0,136.736,171.272Z" opacity="0.35"/><path d="M185.02,138.885l-48.284,27.877a2.762,2.762,0,0,1-2.5,0L85.954,138.885a.762.762,0,0,1,0-1.443l48.284-27.876a2.756,2.756,0,0,1,2.5,0l48.284,27.876A.762.762,0,0,1,185.02,138.885Z" fill="#27debf"/><path d="M135.485,167.059v4.509a2.528,2.528,0,0,0,1.25-.3l48.285-27.879a2.749,2.749,0,0,0,1.251-2.164V139.6a2.784,2.784,0,0,0-1.02-2c.452.395.375.934-.231,1.28L136.735,166.76A2.529,2.529,0,0,1,135.485,167.059Z" fill="#27debf"/><path d="M135.485,167.059v4.509a2.528,2.528,0,0,0,1.25-.3l48.285-27.879a2.749,2.749,0,0,0,1.251-2.164V139.6a2.784,2.784,0,0,0-1.02-2c.452.395.375.934-.231,1.28L136.735,166.76A2.529,2.529,0,0,1,135.485,167.059Z" opacity="0.2"/><path d="M136.736,157.74,169.4,138.885a2.762,2.762,0,0,0,1.249-2.164V135.1a2.76,2.76,0,0,0-1.249-2.164l-20.939-12.089a8.26,8.26,0,0,1-2.109-1.879l-10-13.472a1.657,1.657,0,0,0-2.109-.437L101.579,123.91a2.763,2.763,0,0,0-1.25,2.164v10.647a2.763,2.763,0,0,0,1.25,2.164l32.658,18.855A2.756,2.756,0,0,0,136.736,157.74Z" fill="#263238"/><path d="M134.238,153.23,113.3,141.14a7.2,7.2,0,0,1-1.092-.811,7.4,7.4,0,0,1-1.016-1.068l-10-13.471a1.255,1.255,0,0,1,.389-1.88l32.658-18.855a1.657,1.657,0,0,1,2.109.437l10,13.472a7.868,7.868,0,0,0,1.935,1.955L169.4,132.932a.761.761,0,0,1,0,1.442L136.736,153.23A2.762,2.762,0,0,1,134.238,153.23Z" fill="#455a64"/><path d="M101.579,123.91l32.658-18.855a1.657,1.657,0,0,1,2.109.437l10,13.471a7.355,7.355,0,0,0,1.022,1.065s-35.15,20.307-35.161,20.3a7.417,7.417,0,0,1-1.018-1.065l-10-13.471A1.255,1.255,0,0,1,101.579,123.91Z" fill="#37474f"/><ellipse cx="2.072" cy="1.196" rx="2.072" ry="1.196" transform="translate(157.934 132.912)" fill="#27debf"/><ellipse cx="2.072" cy="1.196" rx="2.072" ry="1.196" transform="translate(152.075 136.295)" fill="#27debf"/><ellipse cx="2.072" cy="1.196" rx="2.072" ry="1.196" transform="translate(146.215 139.678)" fill="#263238"/><path d="M143.893,143.411a3.239,3.239,0,0,0-2.93,0,.892.892,0,0,0,0,1.691,3.233,3.233,0,0,0,2.93,0A.892.892,0,0,0,143.893,143.411Z" fill="#263238"/><path d="M157.076,130.726a3.233,3.233,0,0,0-2.93,0,.893.893,0,0,0,0,1.691,3.239,3.239,0,0,0,2.93,0A.892.892,0,0,0,157.076,130.726Z" fill="#27debf"/><path d="M151.217,134.108a3.237,3.237,0,0,0-2.929,0,.893.893,0,0,0,0,1.692,3.237,3.237,0,0,0,2.929,0A.893.893,0,0,0,151.217,134.108Z" fill="#263238"/><path d="M145.358,137.491a3.239,3.239,0,0,0-2.93,0,.893.893,0,0,0,0,1.692,3.245,3.245,0,0,0,2.93,0A.893.893,0,0,0,145.358,137.491Z" fill="#27debf"/><path d="M139.5,140.874a3.237,3.237,0,0,0-2.929,0,.892.892,0,0,0,0,1.691,3.237,3.237,0,0,0,2.929,0A.892.892,0,0,0,139.5,140.874Z" fill="#263238"/><path d="M152.682,128.189a3.233,3.233,0,0,0-2.93,0,.892.892,0,0,0,0,1.691,3.239,3.239,0,0,0,2.93,0A.892.892,0,0,0,152.682,128.189Z" fill="#263238"/><ellipse cx="2.072" cy="1.196" rx="2.072" ry="1.196" transform="translate(143.286 131.221)" fill="#27debf"/><ellipse cx="2.072" cy="1.196" rx="2.072" ry="1.196" transform="translate(137.427 134.604)" fill="#263238"/><path d="M138,146.727a3.233,3.233,0,0,0-2.93,0,.892.892,0,0,0,0,1.691,3.239,3.239,0,0,0,2.93,0A.892.892,0,0,0,138,146.727Z" fill="#27debf"/><ellipse cx="2.072" cy="1.196" rx="2.072" ry="1.196" transform="translate(130.07 143.839)" fill="#263238"/><ellipse cx="2.072" cy="1.196" rx="2.072" ry="1.196" transform="translate(131.568 137.989)" fill="#263238"/><path d="M148.288,125.654a3.233,3.233,0,0,0-2.93,0,.892.892,0,0,0,0,1.691,3.233,3.233,0,0,0,2.93,0A.892.892,0,0,0,148.288,125.654Z" fill="#27debf"/><path d="M142.429,129.037a3.233,3.233,0,0,0-2.93,0,.892.892,0,0,0,0,1.691,3.239,3.239,0,0,0,2.93,0A.893.893,0,0,0,142.429,129.037Z" fill="#263238"/><path d="M136.569,132.419a3.237,3.237,0,0,0-2.929,0,.893.893,0,0,0,0,1.692,3.237,3.237,0,0,0,2.929,0A.893.893,0,0,0,136.569,132.419Z" fill="#27debf"/><path d="M130.71,135.8a3.239,3.239,0,0,0-2.93,0,.893.893,0,0,0,0,1.692,3.239,3.239,0,0,0,2.93,0A.893.893,0,0,0,130.71,135.8Z" fill="#263238"/><path d="M129.212,141.655a3.239,3.239,0,0,0-2.93,0,.892.892,0,0,0,0,1.691,3.233,3.233,0,0,0,2.93,0A.892.892,0,0,0,129.212,141.655Z" fill="#27debf"/><ellipse cx="2.072" cy="1.196" rx="2.072" ry="1.196" transform="translate(121.281 138.767)" fill="#263238"/><path d="M135.417,153.528v4.5a2.583,2.583,0,0,0,1.318-.288l32.658-18.858a2.751,2.751,0,0,0,1.251-2.164v-1.625a2.778,2.778,0,0,0-1.02-2c.452.394.375.932-.231,1.279L136.735,153.23A2.588,2.588,0,0,1,135.417,153.528Z" fill="#37474f"/><path d="M142.027,118.4l-.029-.039a1.1,1.1,0,0,0-1.4-.293l-28.42,16.409a.836.836,0,0,0-.258,1.253l.029.039a1.108,1.108,0,0,0,1.408.29l28.413-16.405A.838.838,0,0,0,142.027,118.4Z" fill="#263238"/><path d="M142.027,118.4l-.029-.039a1.1,1.1,0,0,0-1.4-.293l-21.129,12.2,1.179,1.581,21.122-12.195A.838.838,0,0,0,142.027,118.4Z" fill="#27debf"/><path d="M139.678,115.247l-.029-.039a1.1,1.1,0,0,0-1.4-.293l-28.421,16.409a.836.836,0,0,0-.258,1.252l.03.04a1.107,1.107,0,0,0,1.407.29L139.417,116.5A.839.839,0,0,0,139.678,115.247Z" fill="#263238"/><path d="M139.678,115.247l-.029-.039a1.1,1.1,0,0,0-1.4-.293l-7.064,4.077,1.178,1.581,7.058-4.072A.839.839,0,0,0,139.678,115.247Z" fill="#27debf"/><path d="M137.329,112.094l-.029-.04a1.1,1.1,0,0,0-1.4-.292l-28.421,16.409a.835.835,0,0,0-.258,1.252l.03.039a1.106,1.106,0,0,0,1.407.29l28.413-16.4A.84.84,0,0,0,137.329,112.094Z" fill="#263238"/><path d="M137.329,112.094l-.029-.04a1.1,1.1,0,0,0-1.4-.293l-14.8,8.519,1.179,1.582,14.795-8.515A.838.838,0,0,0,137.329,112.094Z" fill="#27debf"/><path d="M134.979,108.94l-.029-.039a1.1,1.1,0,0,0-1.4-.293l-28.42,16.41a.835.835,0,0,0-.258,1.252l.03.039a1.106,1.106,0,0,0,1.407.29l28.413-16.4A.839.839,0,0,0,134.979,108.94Z" fill="#263238"/><path d="M134.979,108.94l-.029-.039a1.1,1.1,0,0,0-1.4-.293l-25.8,14.895,1.179,1.581,25.791-14.89A.839.839,0,0,0,134.979,108.94Z" fill="#27debf"/><path d="M256.7,365.021a.5.5,0,0,1-.691.193l-39.135-22.6a4.444,4.444,0,0,0-3.9,0L134.713,387.8a4.968,4.968,0,0,1-2.452.59,5.035,5.035,0,0,1-2.463-.59l-45.189-26.09a1.841,1.841,0,0,1,0-3.429l18.568-10.714a.254.254,0,0,1,.234.031.791.791,0,0,1,.366.621.273.273,0,0,1-.061.193.185.185,0,0,1-.071.051c-.021.01-.04.031-.061.041L85.118,359.17c-.418.234-.662.539-.662.824s.244.59.662.835l45.189,26.089a4.372,4.372,0,0,0,3.9,0l78.259-45.178a5.369,5.369,0,0,1,4.915,0l39.135,22.589A.5.5,0,0,1,256.7,365.021Z" fill="#27debf"/><path d="M248.433,369.793a.513.513,0,0,1-.692.193l-30.872-17.827a4.443,4.443,0,0,0-3.9,0l-78.259,45.19a4.983,4.983,0,0,1-2.452.6,5.051,5.051,0,0,1-2.463-.6L68.074,361.714a1.841,1.841,0,0,1,0-3.429L94.895,342.8H94.9a.274.274,0,0,1,.244.031.776.776,0,0,1,.356.62.3.3,0,0,1-.091.235.036.036,0,0,0-.02.009L68.583,359.17c-.417.234-.662.539-.662.824s.245.59.662.835l61.724,35.634a4.372,4.372,0,0,0,3.9,0l78.259-45.179a5.375,5.375,0,0,1,4.915,0L248.25,369.1A.5.5,0,0,1,248.433,369.793Z" fill="#27debf"/><path d="M240.161,374.565a.5.5,0,0,1-.692.194l-22.6-13.045a4.378,4.378,0,0,0-3.9,0l-78.259,45.179a4.973,4.973,0,0,1-2.452.6,5.04,5.04,0,0,1-2.463-.6L51.539,361.714a1.844,1.844,0,0,1,.01-3.429l35.093-20.166a.172.172,0,0,1,.091-.061.245.245,0,0,1,.214.04.81.81,0,0,1,.367.631.239.239,0,0,1-.1.224c-.01.01-.01.01-.021.01L52.047,359.17c-.417.245-.651.539-.651.824s.234.59.651.835l78.26,45.179a4.378,4.378,0,0,0,3.9,0l78.259-45.179a5.369,5.369,0,0,1,4.915,0l22.6,13.044A.5.5,0,0,1,240.161,374.565Z" fill="#27debf"/><path d="M231.9,379.338a.505.505,0,0,1-.692.193l-14.337-8.272a4.372,4.372,0,0,0-3.9,0l-78.259,45.179a4.983,4.983,0,0,1-2.452.6,5.051,5.051,0,0,1-2.463-.6L35,361.714a1.847,1.847,0,0,1,0-3.429L78.3,333.3a.126.126,0,0,1,.081-.04.25.25,0,0,1,.234.03.789.789,0,0,1,.367.621.367.367,0,0,1-.051.193.348.348,0,0,1-.081.051c-.021.01-.031.02-.051.031L35.513,359.17a1.069,1.069,0,0,0-.652.824c0,.285.234.59.652.835l94.794,54.734a4.443,4.443,0,0,0,3.9,0l78.259-45.19a5.375,5.375,0,0,1,4.915,0l14.337,8.273A.5.5,0,0,1,231.9,379.338Z" fill="#27debf"/><g opacity="0.2"><path d="M256.7,365.021a.5.5,0,0,1-.691.193l-39.135-22.6a4.444,4.444,0,0,0-3.9,0L134.713,387.8a4.968,4.968,0,0,1-2.452.59,5.035,5.035,0,0,1-2.463-.59l-45.189-26.09a1.841,1.841,0,0,1,0-3.429l18.568-10.714a.254.254,0,0,1,.234.031.791.791,0,0,1,.366.621.273.273,0,0,1-.061.193.185.185,0,0,1-.071.051c-.021.01-.04.031-.061.041L85.118,359.17c-.418.234-.662.539-.662.824s.244.59.662.835l45.189,26.089a4.372,4.372,0,0,0,3.9,0l78.259-45.178a5.369,5.369,0,0,1,4.915,0l39.135,22.589A.5.5,0,0,1,256.7,365.021Z"/><path d="M248.433,369.793a.513.513,0,0,1-.692.193l-30.872-17.827a4.443,4.443,0,0,0-3.9,0l-78.259,45.19a4.983,4.983,0,0,1-2.452.6,5.051,5.051,0,0,1-2.463-.6L68.074,361.714a1.841,1.841,0,0,1,0-3.429L94.895,342.8H94.9a.274.274,0,0,1,.244.031.776.776,0,0,1,.356.62.3.3,0,0,1-.091.235.036.036,0,0,0-.02.009L68.583,359.17c-.417.234-.662.539-.662.824s.245.59.662.835l61.724,35.634a4.372,4.372,0,0,0,3.9,0l78.259-45.179a5.375,5.375,0,0,1,4.915,0L248.25,369.1A.5.5,0,0,1,248.433,369.793Z"/><path d="M240.161,374.565a.5.5,0,0,1-.692.194l-22.6-13.045a4.378,4.378,0,0,0-3.9,0l-78.259,45.179a4.973,4.973,0,0,1-2.452.6,5.04,5.04,0,0,1-2.463-.6L51.539,361.714a1.844,1.844,0,0,1,.01-3.429l35.093-20.166a.172.172,0,0,1,.091-.061.245.245,0,0,1,.214.04.81.81,0,0,1,.367.631.239.239,0,0,1-.1.224c-.01.01-.01.01-.021.01L52.047,359.17c-.417.245-.651.539-.651.824s.234.59.651.835l78.26,45.179a4.378,4.378,0,0,0,3.9,0l78.259-45.179a5.369,5.369,0,0,1,4.915,0l22.6,13.044A.5.5,0,0,1,240.161,374.565Z"/><path d="M231.9,379.338a.505.505,0,0,1-.692.193l-14.337-8.272a4.372,4.372,0,0,0-3.9,0l-78.259,45.179a4.983,4.983,0,0,1-2.452.6,5.051,5.051,0,0,1-2.463-.6L35,361.714a1.847,1.847,0,0,1,0-3.429L78.3,333.3a.126.126,0,0,1,.081-.04.25.25,0,0,1,.234.03.789.789,0,0,1,.367.621.367.367,0,0,1-.051.193.348.348,0,0,1-.081.051c-.021.01-.031.02-.051.031L35.513,359.17a1.069,1.069,0,0,0-.652.824c0,.285.234.59.652.835l94.794,54.734a4.443,4.443,0,0,0,3.9,0l78.259-45.19a5.375,5.375,0,0,1,4.915,0l14.337,8.273A.5.5,0,0,1,231.9,379.338Z"/></g><path d="M347.712,390.357l26.283-15.2c2.709-1.564,4.064-3.614,4.065-5.664s.01-3.656.01-3.656L353.339,351.8a5.782,5.782,0,0,1-2.616-4.532v-32.4l-45.908,26.528v32.4a5.782,5.782,0,0,0,2.616,4.532l20.659,12.027C333.508,393.486,342.293,393.486,347.712,390.357Z" fill="#263238"/><path d="M315.836,379.537v3.64l-8.414-4.849a5.785,5.785,0,0,1-2.613-4.531V341.4l8.746-5.046c.181,2.22.378,4.517.558,6.752l-6.132,3.55v25.317A5.75,5.75,0,0,0,310.6,376.5Z" opacity="0.15"/><path d="M307.979,371.975a5.783,5.783,0,0,0,2.618,4.532l17.489,10.2c5.418,3.129,14.2,3.13,19.624,0l26.3-15.2c5.42-3.127,5.42-8.2,0-11.327l-17.5-10.205a5.782,5.782,0,0,1-2.616-4.532v-25.32l-45.91,26.527Z" fill="#37474f"/><path d="M361.834,353.059v0l-5.329-3.077a5.782,5.782,0,0,1-2.616-4.532v-25.32l-45.91,26.527v25.322a5.783,5.783,0,0,0,2.618,4.532l5.236,3.023Z" opacity="0.15"/><path d="M378.065,365.843V369.5c0,2.054-1.359,4.093-4.063,5.665l-26.287,15.188a19.68,19.68,0,0,1-9.365,2.326v-3.64a19.68,19.68,0,0,0,9.365-2.327L374,371.508C376.706,369.952,378.065,367.9,378.065,365.843Z" opacity="0.15"/><path d="M234.269,406.934a7.012,7.012,0,0,0,6.338-.118l177.54-102.5a7.229,7.229,0,0,0,3.27-5.664v-155.4a6.144,6.144,0,0,0-9.406-5.43l-177.537,102.5a7.226,7.226,0,0,0-3.271,5.664l0,155.4A7.014,7.014,0,0,0,234.269,406.934Z" fill="#455a64"/><path d="M240.608,406.813l177.539-102.5a7.229,7.229,0,0,0,3.271-5.665v-155.4c0-2.085-1.464-2.931-3.271-1.888L240.61,243.862a7.228,7.228,0,0,0-3.27,5.664l0,155.4C237.338,407.01,238.8,407.855,240.608,406.813Z" fill="#27debf"/><path d="M240.608,406.813l177.539-102.5a7.229,7.229,0,0,0,3.271-5.665v-155.4c0-2.085-1.464-2.931-3.271-1.888L240.61,243.862a7.228,7.228,0,0,0-3.27,5.664l0,155.4C237.338,407.01,238.8,407.855,240.608,406.813Z" fill="#37474f"/><path d="M240.127,407.461a6.113,6.113,0,0,1-8.927-5.68V384.3l6.133,3.55v17.478C237.333,407.234,238.541,408.1,240.127,407.461Z"/><path d="M237.333,399.461l.005,5.865c0,2.086,1.464,2.931,3.27,1.888l177.539-102.5a7.227,7.227,0,0,0,3.271-5.664v-5.871Z" fill="#263238"/><path d="M243.472,386.322l0-134.759a4.338,4.338,0,0,1,1.961-3.4l167.88-96.926c1.084-.625,1.963-.118,1.963,1.133l0,134.762a4.335,4.335,0,0,1-1.962,3.4L245.435,387.455C244.351,388.081,243.472,387.573,243.472,386.322Z" fill="#27debf"/><path d="M329.375,349.333a3.693,3.693,0,0,0-1.669,2.893c0,1.065.747,1.5,1.67.964a3.69,3.69,0,0,0,1.669-2.893C331.045,349.232,330.3,348.8,329.375,349.333Z" fill="#27debf"/><path d="M238.3,246.291a6.94,6.94,0,0,0-.966,3.232V399.461l-6.133-3.55V245.989a6.77,6.77,0,0,1,.966-3.233Z" fill="#263238"/><path d="M315.907,313.5a22.574,22.574,0,0,1-8.577-1.669c-8.086-3.3-14.3-11.406-17.491-22.832a3.69,3.69,0,1,1,7.106-1.989c2.569,9.182,7.245,15.57,13.174,17.989,5.063,2.07,11.087,1.23,17.413-2.422,15.125-8.735,28.878-31.6,34.221-56.9a3.69,3.69,0,0,1,7.222,1.523c-5.84,27.654-20.66,51.9-37.753,61.769A30.758,30.758,0,0,1,315.907,313.5Z" fill="#fafafa"/><path d="M314.592,252.493c0,4.914-2.588,10.392-5.781,12.235s-5.779-.647-5.779-5.561,2.588-10.393,5.779-12.236S314.592,247.578,314.592,252.493Z" fill="#fafafa"/><path d="M351.188,231.364c0,4.914-2.588,10.392-5.781,12.236s-5.779-.648-5.779-5.562,2.588-10.392,5.779-12.235S351.188,226.45,351.188,231.364Z" fill="#fafafa"/><path d="M258.036,203.859l-3.856-10.971,3.1-8.956V178.45l-9.495,5.482v5.483l4.081,10.79a.6.6,0,0,0,.278.246l0,0Z" fill="#27debf"/><path d="M258.036,203.859l-3.856-10.971,3.1-8.956V178.45l-9.495,5.482v5.483l4.081,10.79a.6.6,0,0,0,.278.246l0,0Z" opacity="0.3"/><path d="M280.711,119.774a6.289,6.289,0,0,0-2.847-4.931l-2.317-1.338a6.29,6.29,0,0,0-5.693,0L234.3,134.065A6.293,6.293,0,0,0,231.458,139V193.2a6.293,6.293,0,0,0,2.847,4.931l2.318,1.338a6.292,6.292,0,0,0,5.694,0l11.433-6.605,4.073,10.776a.609.609,0,0,0,1.1-.1l4.305-16.148,14.635-8.478a6.289,6.289,0,0,0,2.846-4.931Z" fill="#27debf"/><path d="M231.458,193.2a6.293,6.293,0,0,0,2.847,4.931l2.318,1.338a6.365,6.365,0,0,0,5.208.229c-1.34.507-2.361-.249-2.361-1.872V143.622a5.82,5.82,0,0,1,.834-2.806l-8.012-4.626a5.823,5.823,0,0,0-.834,2.806Z" opacity="0.2"/><path d="M280.618,118.965c-.332-1.209-1.434-1.593-2.749-.837l-35.554,20.565a5.65,5.65,0,0,0-2.005,2.125L232.3,136.2a5.741,5.741,0,0,1,2.006-2.126l35.541-20.565a6.335,6.335,0,0,1,5.7,0l2.324,1.342A6.277,6.277,0,0,1,280.618,118.965Z" fill="#fff" opacity="0.3"/><path d="M244.958,178l30.863-17.819c.609-.352,1.1-.1,1.1.557a2.36,2.36,0,0,1-1.1,1.829l-30.863,17.819c-.608.351-1.1.1-1.1-.557A2.36,2.36,0,0,1,244.958,178Z" fill="#fafafa"/><path d="M244.958,182.8l30.863-17.819c.609-.351,1.1-.1,1.1.557a2.36,2.36,0,0,1-1.1,1.829l-30.863,17.819c-.608.351-1.1.1-1.1-.557A2.362,2.362,0,0,1,244.958,182.8Z" fill="#fafafa"/><path d="M244.958,187.606l30.863-17.819c.609-.351,1.1-.1,1.1.557a2.364,2.364,0,0,1-1.1,1.83l-30.863,17.818c-.608.352-1.1.1-1.1-.557A2.362,2.362,0,0,1,244.958,187.606Z" fill="#fafafa"/><path d="M269.01,133.029a2.5,2.5,0,0,0-3.268,1.332l-9.433,22.446-2.248-2.185a2.495,2.495,0,0,0-3.477,3.579l4.869,4.734a2.482,2.482,0,0,0,1.739.705,2.579,2.579,0,0,0,.5-.049,2.493,2.493,0,0,0,1.8-1.478l10.85-25.816A2.5,2.5,0,0,0,269.01,133.029Z" fill="#fafafa"/><path d="M324.352,165.543l-3.857-10.971,3.1-8.956v-5.482l-9.495,5.482V151.1l4.082,10.79a.594.594,0,0,0,.277.246l0,0Z" fill="#27debf"/><path d="M324.352,165.543l-3.857-10.971,3.1-8.956v-5.482l-9.495,5.482V151.1l4.082,10.79a.594.594,0,0,0,.277.246l0,0Z" opacity="0.3"/><path d="M347.026,81.458a6.294,6.294,0,0,0-2.846-4.931l-2.319-1.338a6.289,6.289,0,0,0-5.693,0L300.62,95.749a6.293,6.293,0,0,0-2.847,4.931v54.208a6.293,6.293,0,0,0,2.847,4.93l2.319,1.339a6.289,6.289,0,0,0,5.693,0l11.433-6.6,4.074,10.776a.607.607,0,0,0,1.1-.1l4.306-16.149L344.18,140.6a6.292,6.292,0,0,0,2.846-4.931Z" fill="#27debf"/><path d="M297.773,154.888a6.3,6.3,0,0,0,2.847,4.931l2.319,1.338a6.362,6.362,0,0,0,5.207.229c-1.34.507-2.361-.249-2.361-1.873V105.306a5.821,5.821,0,0,1,.834-2.806l-8.012-4.626a5.824,5.824,0,0,0-.834,2.806Z" opacity="0.2"/><path d="M346.934,80.649c-.332-1.209-1.435-1.594-2.749-.836L308.63,100.377a5.649,5.649,0,0,0-2.005,2.125l-8.009-4.622a5.76,5.76,0,0,1,2.005-2.125L336.162,75.19a6.337,6.337,0,0,1,5.7,0l2.325,1.342A6.287,6.287,0,0,1,346.934,80.649Z" fill="#fff" opacity="0.3"/><path d="M311.091,139.784l30.862-17.819c.61-.351,1.1-.1,1.1.557a2.362,2.362,0,0,1-1.1,1.83L311.091,142.17c-.609.351-1.1.1-1.1-.557A2.36,2.36,0,0,1,311.091,139.784Z" fill="#fafafa"/><path d="M311.091,144.588l30.862-17.818c.61-.352,1.1-.1,1.1.557a2.36,2.36,0,0,1-1.1,1.829l-30.862,17.819c-.609.351-1.1.1-1.1-.558A2.362,2.362,0,0,1,311.091,144.588Z" fill="#fafafa"/><path d="M311.091,149.393l30.862-17.819c.61-.351,1.1-.1,1.1.557a2.359,2.359,0,0,1-1.1,1.829l-30.862,17.819c-.609.351-1.1.1-1.1-.557A2.36,2.36,0,0,1,311.091,149.393Z" fill="#fafafa"/><path d="M335.143,94.815a2.5,2.5,0,0,0-3.269,1.333l-9.434,22.445-2.247-2.185a2.5,2.5,0,0,0-3.477,3.58l4.87,4.734a2.5,2.5,0,0,0,4.039-.823l10.85-25.816A2.5,2.5,0,0,0,335.143,94.815Z" fill="#fafafa"/><path d="M390.647,127.3l-3.857-10.97,3.1-8.956v-5.482l-9.5,5.482v5.482l4.082,10.79a.591.591,0,0,0,.279.247l0,0Z" fill="#27debf"/><path d="M390.647,127.3l-3.857-10.97,3.1-8.956v-5.482l-9.5,5.482v5.482l4.082,10.79a.591.591,0,0,0,.279.247l0,0Z" opacity="0.3"/><path d="M413.321,43.218a6.292,6.292,0,0,0-2.846-4.931l-2.318-1.338a6.29,6.29,0,0,0-5.693,0l-35.548,20.56a6.294,6.294,0,0,0-2.848,4.931v54.207a6.294,6.294,0,0,0,2.848,4.931l2.317,1.339a6.3,6.3,0,0,0,5.7,0l11.432-6.606,4.074,10.776a.608.608,0,0,0,1.1-.1l4.306-16.148,14.634-8.478a6.289,6.289,0,0,0,2.847-4.93Z" fill="#27debf"/><path d="M364.068,116.648a6.294,6.294,0,0,0,2.848,4.93l2.317,1.339a6.362,6.362,0,0,0,5.207.229c-1.339.506-2.359-.25-2.359-1.873V67.065a5.82,5.82,0,0,1,.834-2.806L364.9,59.634a5.82,5.82,0,0,0-.834,2.806Z" opacity="0.2"/><path d="M413.229,42.409c-.332-1.209-1.435-1.594-2.75-.837L374.926,62.137a5.637,5.637,0,0,0-2.006,2.125l-8.008-4.622a5.751,5.751,0,0,1,2.005-2.125L402.458,36.95a6.329,6.329,0,0,1,5.7,0l2.324,1.342A6.279,6.279,0,0,1,413.229,42.409Z" fill="#fff" opacity="0.3"/><path d="M377.223,101.57l30.863-17.818c.608-.352,1.1-.1,1.1.557a2.363,2.363,0,0,1-1.1,1.829l-30.862,17.819c-.609.351-1.1.1-1.1-.558A2.362,2.362,0,0,1,377.223,101.57Z" fill="#fafafa"/><path d="M377.223,106.374l30.863-17.818c.608-.351,1.1-.1,1.1.557a2.363,2.363,0,0,1-1.1,1.829l-30.862,17.819c-.609.351-1.1.1-1.1-.557A2.365,2.365,0,0,1,377.223,106.374Z" fill="#fafafa"/><path d="M377.223,111.179,408.086,93.36c.608-.351,1.1-.1,1.1.557a2.365,2.365,0,0,1-1.1,1.83l-30.862,17.818c-.609.352-1.1.1-1.1-.557A2.362,2.362,0,0,1,377.223,111.179Z" fill="#fafafa"/><path d="M401.274,56.6a2.5,2.5,0,0,0-3.267,1.333l-9.434,22.444-2.247-2.185a2.5,2.5,0,0,0-3.477,3.58l4.869,4.734a2.484,2.484,0,0,0,1.739.7,2.568,2.568,0,0,0,.5-.049,2.491,2.491,0,0,0,1.8-1.479l10.85-25.815A2.5,2.5,0,0,0,401.274,56.6Z" fill="#fafafa"/></g></svg>