<svg xmlns="http://www.w3.org/2000/svg" xmlns:xlink="http://www.w3.org/1999/xlink" width="812.366" height="192" viewBox="0 0 812.366 192"><defs><filter id="a" x="123.046" y="0" width="192" height="192" filterUnits="userSpaceOnUse"><feOffset input="SourceAlpha"/><feGaussianBlur stdDeviation="7.5" result="b"/><feFlood flood-opacity="0.11"/><feComposite operator="in" in2="b"/><feComposite in="SourceGraphic"/></filter></defs><g transform="translate(611.546 -4173.5)"><path d="M78.88-74.97h48.45v11.73H78.88ZM64.94-64.94l5.61,10.71L58.82-48.45V3.74H44.71V-40.97l-8.16,4.08L30.43-48.62l14.28-6.97v-42.5H33.66v-13.26H44.71v-21.59H58.82v21.59h8.33v13.26H58.82v36.21Zm19.55-40.12v-8.33H68.17v-12.07H84.49v-8.33H97.75v8.33h9.18v-8.33h13.26v8.33h16.32v12.07H120.19v8.33H106.93v-8.33H97.75v8.33ZM75.31,3.4V-56.27h55.08V3.4ZM88.57-43.86V-9.01h28.22V-43.86Zm14.62-60.18,37.57,18.36-6.29,11.9L102.85-89.25,71.57-73.95,65.28-85.51Z" transform="translate(-64 4340)" fill="#fff46e"/><path d="M93.33-12.92H69.19V3.74H56.61V-12.92H33.66v-9.69H56.61V-27.2H36.72V-66.47H56.61v-4.59H33.66v-9.86H56.61v-7.14H69.19v7.14H93.33v9.86H69.19v4.59H90.27V-27.2H69.19v4.59H93.33ZM69.19-36.38H78.2v-6.29H69.19ZM78.2-57.46H69.19V-51H78.2Zm-21.59,0H48.45V-51h8.16ZM48.45-36.38h8.16v-6.29H48.45Zm82.28-71.23-11.39,5.95-13.26-29.75h14.11ZM143.82-3.23,132.26,3.06,116.62-32.13,101.15,3.06,89.76-3.06l19.89-44.88L91.12-89.93H33.66v-10.88H56.44v-9.18H40.46v-10.88H56.44v-12.07H69.36v12.07h15.3v10.88H69.36v9.18H94.18L80.07-132.94H94.52l14.11,32.13h27.71v10.88H105.57l11.39,25.5,6.8-15.64h14.11L123.93-48.45Z" transform="translate(57 4340)" fill="#fff46e"/><path d="M-33.271,1.353q-13.53,0-21.4-7.565t-7.872-20.6V-59.286q0-12.792,7.872-20.3t21.4-7.5q13.53,0,21.463,7.5t7.934,20.3v32.472q0,13.038-7.934,20.6T-33.271,1.353Zm0-14.883a11.644,11.644,0,0,0,8.794-3.383,12.479,12.479,0,0,0,3.259-9.04V-59.778a12.479,12.479,0,0,0-3.259-9.04A11.644,11.644,0,0,0-33.271-72.2a11.487,11.487,0,0,0-8.672,3.383,12.479,12.479,0,0,0-3.259,9.04v33.825a12.479,12.479,0,0,0,3.259,9.04A11.487,11.487,0,0,0-33.271-13.53ZM62.3-39.237a39.838,39.838,0,0,1,1.845,11.685,30.91,30.91,0,0,1-1.968,11.316A24.306,24.306,0,0,1,52.214-3.752,30.124,30.124,0,0,1,35.486.861a29.978,29.978,0,0,1-16.42-4.489A24.478,24.478,0,0,1,9.041-15.867,35.688,35.688,0,0,1,7.2-22.632v-.246q0-1.353,1.476-1.353H23.555a1.576,1.576,0,0,1,1.6,1.353,4.371,4.371,0,0,0,.369,1.23,6.749,6.749,0,0,1,.369.861,10.336,10.336,0,0,0,3.69,4.92,9.825,9.825,0,0,0,5.781,1.722A10.1,10.1,0,0,0,41.39-15.99,10.726,10.726,0,0,0,45.2-21.156a14.333,14.333,0,0,0,1.23-6.4,17.439,17.439,0,0,0-1.107-6.4,8.269,8.269,0,0,0-3.444-4.92,10.61,10.61,0,0,0-6.027-1.722,13.217,13.217,0,0,0-6.4,1.6,8.066,8.066,0,0,0-3.936,4.182,1.544,1.544,0,0,1-1.6,1.23H8.795a1.423,1.423,0,0,1-1.046-.431,1.423,1.423,0,0,1-.43-1.046V-84.624a1.423,1.423,0,0,1,.43-1.046,1.423,1.423,0,0,1,1.046-.43h50.8a1.423,1.423,0,0,1,1.045.43,1.423,1.423,0,0,1,.431,1.046v11.931a1.423,1.423,0,0,1-.431,1.046,1.423,1.423,0,0,1-1.045.43H25.277a.544.544,0,0,0-.615.615l-.123,18.2q0,.861.738.369A23.091,23.091,0,0,1,38.069-55.6a26.253,26.253,0,0,1,15.068,4.367A23.581,23.581,0,0,1,62.3-39.237Z" transform="translate(-549 4341)" fill="#fff"/><path d="M-33.348-22.722v8.652A37.21,37.21,0,0,1-40.4-12.18l1.05,4.788c.462-.21.966-.42,3.192-1.218.882-.294,1.806-.63,2.814-1.008V-1.26a34.9,34.9,0,0,1-.294,4.872h4.956a41.74,41.74,0,0,1-.252-4.872v-10c1.092-.462,1.848-.8,3.024-1.344v1.932A24.005,24.005,0,0,1-21.8-10.92h11v8.484c0,1.05-.252,1.26-1.6,1.26A36.1,36.1,0,0,1-17.3-1.638a12.459,12.459,0,0,1,1.092,4.62c1.3.084,2.856.126,3.57.126,4.872,0,6.216-.84,6.216-3.99V-10.92h.378a29.614,29.614,0,0,1,4.116.252v-4.62a25.344,25.344,0,0,1-4.116.21h-.378v-3.528h.252a35.689,35.689,0,0,1,4.41.252V-22.89a43.069,43.069,0,0,1-4.746.21h-5.67v-4.074h4.536a42.464,42.464,0,0,1,4.41.21v-4.578a31.619,31.619,0,0,1-4.41.252H-12.18v-1.344a17.213,17.213,0,0,1,.21-3.108h-4.872a18.414,18.414,0,0,1,.252,3.15v1.3h-3.528a29.911,29.911,0,0,1-4.326-.252v4.578a41.943,41.943,0,0,1,4.326-.21h3.528v4.074h-4.788c-1.512,0-2.562-.042-3.864-.126v-4.41a17.642,17.642,0,0,1-3.36.252h-.336V-31.92a20.988,20.988,0,0,1,.252-3.444h-4.956a18.137,18.137,0,0,1,.294,3.444v4.956H-35.28l.126-1.722.084-.63a10.2,10.2,0,0,1,.252-2.142l-4.116-.5c.042.5.084.8.084,1.05a38.067,38.067,0,0,1-2.142,12.474,11.632,11.632,0,0,1,3.654,1.89,38.952,38.952,0,0,0,1.512-6.174Zm4.41,0h.672c.672,0,1.218,0,2.142.042v4.326a28.254,28.254,0,0,1,4.746-.252h10.584v3.528H-21.252c-1.848,0-3.066-.042-4.032-.126l-.042-1.848c-1.428.63-1.974.84-3.612,1.47ZM-24.108-8.4a31.629,31.629,0,0,1,5.334,6.888l3.654-2.772a34.348,34.348,0,0,0-5.5-6.426Zm64.89-20.454a19.467,19.467,0,0,1-3.486.21H33.054c.462-1.386.714-2.31,1.05-3.7a17.652,17.652,0,0,1,.546-2.016l-4.536-.966a34.428,34.428,0,0,1-3.486,11.97v-6.384a22.961,22.961,0,0,1,.126-2.814H22.932a24.857,24.857,0,0,1,.126,2.73v4.368H21.126v-6.426a29.486,29.486,0,0,1,.126-2.982H17.22a20.073,20.073,0,0,1,.168,2.982v6.426H15.414V-29.82a23.371,23.371,0,0,1,.084-2.73H12.222l.21-.252-3.78-2.73c-1.3,2.94-4.158,6.006-7.77,8.4a17.359,17.359,0,0,1,2.226,4.074,42.88,42.88,0,0,0,8.148-8.19,2.8,2.8,0,0,0,.5-.714,17.288,17.288,0,0,1,.126,2.142v5.712L8.9-25.7A26,26,0,0,1,.5-15.288,18.25,18.25,0,0,1,2.226-10.71,20.308,20.308,0,0,0,4.914-13.4C4.83-12.1,4.83-11.214,4.83-9.87v8.526A37.712,37.712,0,0,1,4.578,3.57H9.324a34.148,34.148,0,0,1-.21-4.788V-17.892A41.692,41.692,0,0,0,11.8-21.924a1.723,1.723,0,0,1-.042.462c.756-.042,1.89-.084,2.31-.084H25.452c-.462.588-.63.8-1.176,1.428.462.462.588.588.966,1.008-.63.042-1.344.042-2.394.042h-8.9a18.192,18.192,0,0,1-2.9-.168v4.2A22.353,22.353,0,0,1,14.28-15.2h2.478v3.066H14.7a19.783,19.783,0,0,1-3.108-.168V-8.19a21.683,21.683,0,0,1,3.066-.168h2.1v3.99a43.085,43.085,0,0,1-5.88.63h-.42L10.962.8C11.676.63,12.306.5,13.356.336c6.51-1.218,8.652-1.68,11.382-2.436-.84.588-1.3.924-2.646,1.764A20.461,20.461,0,0,1,24.78,3.4a30.556,30.556,0,0,0,7.686-7.77,34.275,34.275,0,0,0,6.342,7.56,27.423,27.423,0,0,1,2.478-4.578,26.631,26.631,0,0,1-6.426-7.14c2.31-5,3.234-9.072,3.57-15.96,1.134.042,1.47.084,2.352.168ZM26.166-6.174c-2.394.546-3.192.714-5.082,1.092V-8.358H22.47c1.428,0,2.394.042,3.4.126v-4.074a25.786,25.786,0,0,1-3.4.168H21.084V-15.2H23.6a16.371,16.371,0,0,1,2.688.168V-17.85c.252.378.336.546.672,1.05.378-.378.462-.5.756-.84a40.119,40.119,0,0,0,2.646,9.156,27.74,27.74,0,0,1-4.2,5.166ZM34.44-24.486a37,37,0,0,1-1.806,11.172,42.992,42.992,0,0,1-2.016-9.072c.336-.672.5-1.092.924-2.1Z" transform="translate(-545 4233)" fill="#fff"/><g transform="translate(-3189 864)"><g transform="matrix(1, 0, 0, 1, 2577.45, 3309.5)" filter="url(#a)"><circle cx="73.5" cy="73.5" r="73.5" transform="translate(145.55 22.5)" fill="#fff46e"/></g><g transform="translate(2775.499 3376.953)"><path d="M37.97,56.956H3.8a3.8,3.8,0,0,1-3.8-3.8V3.8A3.8,3.8,0,0,1,3.8,0H37.97a3.8,3.8,0,0,1,3.8,3.8V53.159A3.8,3.8,0,0,1,37.97,56.956ZM3.8,1.9A1.9,1.9,0,0,0,1.9,3.8V53.159a1.9,1.9,0,0,0,1.9,1.9H37.97a1.9,1.9,0,0,0,1.9-1.9V3.8a1.9,1.9,0,0,0-1.9-1.9Z" fill="#3cbebe"/><path d="M27.985,7.594H10.9A1.9,1.9,0,0,1,9,5.7V.949A.949.949,0,0,1,9.949,0H28.934a.949.949,0,0,1,.949.949V5.7A1.9,1.9,0,0,1,27.985,7.594ZM10.9,1.9V5.7H27.985V1.9Z" transform="translate(-0.457)" fill="#3cbebe"/><circle cx="0.5" cy="0.5" r="0.5" transform="translate(4.501 4.047)" fill="#3cbebe"/><ellipse cx="1" cy="0.5" rx="1" ry="0.5" transform="translate(35.501 4.047)" fill="#3cbebe"/><circle cx="0.5" cy="0.5" r="0.5" transform="translate(4.501 52.047)" fill="#3cbebe"/><ellipse cx="1" cy="0.5" rx="1" ry="0.5" transform="translate(35.501 52.047)" fill="#3cbebe"/><path d="M22.949,7.594A.949.949,0,0,1,22,6.645V.949a.949.949,0,0,1,1.9,0v5.7A.949.949,0,0,1,22.949,7.594Z" transform="translate(-1.116)" fill="#3cbebe"/><path d="M33.427,51.072H8.746A4.752,4.752,0,0,1,4,46.326V19.746A4.752,4.752,0,0,1,8.746,15H33.427a4.752,4.752,0,0,1,4.746,4.746V46.326A4.752,4.752,0,0,1,33.427,51.072ZM8.746,16.9A2.851,2.851,0,0,0,5.9,19.746V46.326a2.851,2.851,0,0,0,2.848,2.848H33.427a2.851,2.851,0,0,0,2.848-2.848V19.746A2.851,2.851,0,0,0,33.427,16.9Z" transform="translate(-0.203 -0.761)" fill="#3cbebe"/><path d="M11.8,34.6a3.8,3.8,0,0,1-2.684-6.481,3.882,3.882,0,0,1,5.367,0A3.771,3.771,0,0,1,15.594,30.8a.949.949,0,1,1-1.9,0,1.886,1.886,0,0,0-.557-1.341,1.939,1.939,0,0,0-2.683,0A1.9,1.9,0,0,0,11.8,32.7a.949.949,0,1,1,0,1.9Z" transform="translate(-0.406 -1.372)" fill="#3cbebe"/><path d="M11.8,40.594A3.8,3.8,0,0,1,8,36.8a.949.949,0,1,1,1.9,0,1.9,1.9,0,1,0,1.9-1.9.949.949,0,0,1,0-1.9,3.8,3.8,0,0,1,0,7.594Z" transform="translate(-0.406 -1.674)" fill="#3cbebe"/><path d="M21.8,34.6a3.8,3.8,0,0,1-2.684-6.481,3.882,3.882,0,0,1,5.367,0A3.771,3.771,0,0,1,25.594,30.8a.949.949,0,1,1-1.9,0,1.886,1.886,0,0,0-.557-1.341,1.939,1.939,0,0,0-2.683,0A1.9,1.9,0,0,0,21.8,32.7a.949.949,0,1,1,0,1.9Z" transform="translate(-0.913 -1.372)" fill="#3cbebe"/><path d="M21.8,40.594A3.8,3.8,0,0,1,18,36.8a.949.949,0,1,1,1.9,0,1.9,1.9,0,1,0,1.9-1.9.949.949,0,0,1,0-1.9,3.8,3.8,0,0,1,0,7.594Z" transform="translate(-0.913 -1.674)" fill="#3cbebe"/><path d="M31.8,40.29H28.949A.949.949,0,0,1,28,39.34V27.949A.949.949,0,0,1,28.949,27H31.8a3.8,3.8,0,0,1,3.8,3.8v5.7A3.8,3.8,0,0,1,31.8,40.29Zm-1.9-1.9h1.9a1.9,1.9,0,0,0,1.9-1.9V30.8a1.9,1.9,0,0,0-1.9-1.9H29.9Z" transform="translate(-1.421 -1.37)" fill="#3cbebe"/></g></g><path d="M81.09-5.27H12.75V-25.5H26.69v6.97H59.84L46.92-49.13H40.8L10.03-122.4H77.52v20.23H63.58v-6.97H31.11L50.83-62.56h6.29Zm91.12,0H103.87V-25.5h13.94v6.97h33.15l-12.92-30.6h-6.12L101.15-122.4h67.49v20.23H154.7v-6.97H122.23l19.72,46.58h6.29ZM239.7-122.4l20.57,61.2v33.83l-7.48,22.1H193.97V-122.4ZM207.74-18.53h35.53l3.23-9.18V-60.69l-16.32-48.45H207.74Z" transform="translate(-313 4340)" fill="#fff46e"/></g></svg>