<svg xmlns="http://www.w3.org/2000/svg" width="174.714" height="275.938" viewBox="0 0 174.714 275.938"><g transform="translate(-391 -6527.541)"><g transform="translate(-498.576 6349.527)"><path d="M1349.522,391.541l-.928-6.815h-5.423l-.927,6.815h-2.012v1.111h11.3v-1.111Z" transform="translate(-297.602 -136.508)" fill="#381a3f"/><g transform="translate(925.772 204.797)"><path d="M1000.883,424.3l.026-.086-2.171-3.528-1.567-3.81q-.089,2.058-.177,4.116l-.841,4.056.067.07,1.4-1.232a57.125,57.125,0,0,0,9.155,22.347l3.6-2.805a54.063,54.063,0,0,1-11.222-19.8Z" transform="translate(-996.153 -362.534)" fill="#3cbebe"/><path d="M1305.169,422.207l-3.86-.57a54.136,54.136,0,0,1-5.9,20.17l-.781-1.731-.079.043-.923,4.037-1.552,3.817,3.011-2.813,3.442-2.3,0-.1-1.941-.11A56.819,56.819,0,0,0,1305.169,422.207Z" transform="translate(-1191.575 -365.68)" fill="#3cbebe"/><path d="M1264.676,271.44l-1.774-5.985-.911,1.743a57.067,57.067,0,0,0-10.736-10.321l-1.617,2.481a54.952,54.952,0,0,1,11.388,8.625l-1.875.551Z" transform="translate(-1163.548 -256.877)" fill="#3cbebe"/><path d="M1036.427,265.732a57.239,57.239,0,0,0-9.87,8.832l2.946,2.21a54.635,54.635,0,0,1,7.818-9.824l.435,1.732,3.121-5.407-6.051,1.538Z" transform="translate(-1016.231 -261.102)" fill="#3cbebe"/></g><path d="M1130.715,431.76l16.128,18.271-6.727,11.592-7.955-14.013Z" transform="translate(-159.242 -167.568)" fill="#5975d1"/><path d="M1130.261,541.994l-20.354-2.918,47.5,1.1,2.2,3.021Z" transform="translate(-145.501 -238.437)" fill="#374a4f"/><path d="M1022.456,435.955s-22.97,29.393-22.146,35.022,7.963,3.982,10.572,1.373,13.592-22.791,13.592-22.791Z" transform="translate(-73.111 -170.338)" fill="#e5c7a1"/><path d="M889.576,972.735c0,2.006,18.363,3.632,41.015,3.632s41.014-1.626,41.014-3.632-18.363-3.632-41.014-3.632S889.576,970.729,889.576,972.735Z" transform="translate(0 -522.416)" fill="#d1d1d1"/><g transform="translate(928.372 224.534)"><path d="M1084.057,648.888l-13.511,92.636,6.411-1.049,11.014-50.215s7.258-46.6,7.258-63.429Z" transform="translate(-1047.88 -520.922)" fill="#432c47"/><path d="M1008.049,964.439h12.072l-7.817-4.721.851-3.746c-1.785,0-2.216,1.181-4.018,1.181C1008.627,959.909,1008.049,964.439,1008.049,964.439Z" transform="translate(-1006.608 -738.279)" fill="#432c47"/><path d="M1072.855,962.038l12.22.474-7.817-4.721.851-3.746c-1.785,0-2.215,1.181-4.018,1.181C1073.582,957.983,1072.855,962.038,1072.855,962.038Z" transform="translate(-1049.405 -737.006)" fill="#432c47"/><path d="M1050.708,586.65c-13.292.285-18.855,7.757-31.2,11.179l.486,3.518-.853,59.3s-12.766,41.791-15.33,55.67c0,0,7.3-.435,6.876-.435L1032.15,666.3l9.692-45.294,7.939-17.608Z" transform="translate(-1003.807 -494.387)" fill="#2a417f"/><path d="M1055.213,687.809l-11.61,44.649-19.549,50.225,21.467-49.58Z" transform="translate(-1017.177 -561.19)" fill="#35518e"/><path d="M1058.114,424.745a22.439,22.439,0,0,1,17.188,2.481c7.939,4.7,10.11,50.5,8.817,68.388-12.986,2-26.1,4.421-38.876,2.178l.23-.813,4.846-28.95-1.162-16.813S1042.989,428.525,1058.114,424.745Z" transform="translate(-1031.17 -386.995)" fill="#5994b3"/><path d="M1103.118,388.176s-.214,7.678-.889,9.525-6.139,3.135-8.5.454-.162-20.674-.162-20.674Z" transform="translate(-1062.471 -356.258)" fill="#ffddb3"/><path d="M1094.068,381.828c.226-2.546.445-4.346.445-4.346l9.547,10.694s-.045,1.605-.158,3.524a7.438,7.438,0,0,1-4.792-1.458C1096.646,388.682,1095.027,385,1094.068,381.828Z" transform="translate(-1063.413 -356.258)" fill="#e5c7a1"/><path d="M1106.675,342.28s2.361,1.347,3.41,6.017-.3,12.663-2.54,16.194c-1.329,2.1-3.834,2.517-7.518.185s-5.73-9.018-6.364-11.843S1096.4,339.137,1106.675,342.28Z" transform="translate(-1063.097 -332.639)" fill="#ffddb3"/><path d="M1104.266,335.169s1.112,2.979,3.893,2.96,2.283-2.512,3.4-4.276,7.783-7.137.3-11.875-10.934,5.241-13.57,4.561-7.374-3.506-8.934.365.844,4.6-.946,6.336,2.121,8.135,2.582,9.362,2.814,2.264,2.089-.964-1.889-5.45-1.018-6.827,2.969-2.821,3.307-1.318c.155.692,2.223,2.892,3.675,1.536s2.565.636,3.732.979A1.168,1.168,0,0,0,1104.266,335.169Z" transform="translate(-1059.368 -318.758)" fill="#5c2c55"/><path d="M1090.953,374.932c-.076-.5,1.012-4.8-1.587-4.406s-2.307,4.893-.291,5.459S1090.953,374.932,1090.953,374.932Z" transform="translate(-1059.069 -351.648)" fill="#ffddb3"/><path d="M1092.8,375.682s-.216-1.985-1.277-1.5-.625,3.149.445,3.5S1092.8,375.682,1092.8,375.682Z" transform="translate(-1061.327 -354.029)" fill="#e5c7a1"/><g transform="translate(38.496 17.809)"><path d="M1123.387,376.09c-.107.583.135,1.116.54,1.19s.821-.338.927-.921-.135-1.116-.54-1.19S1123.493,375.507,1123.387,376.09Z" transform="translate(-1121.254 -372.533)" fill="#2846a6"/><path d="M1135.973,378.4c-.107.583.135,1.116.54,1.19s.82-.338.927-.921-.135-1.116-.54-1.191S1136.08,377.814,1135.973,378.4Z" transform="translate(-1129.566 -374.057)" fill="#2846a6"/><g transform="translate(0 9.976)"><path d="M1118.574,398.526a3.4,3.4,0,0,1-1.059-1.6.183.183,0,1,0-.341.133,3.592,3.592,0,0,0,1.274,1.633,3.694,3.694,0,0,0,1.918.718.024.024,0,0,0-.018-.026A4.084,4.084,0,0,1,1118.574,398.526Z" transform="translate(-1117.157 -396.801)" fill="#2846a6"/></g><path d="M1124,367.479l.1.715a1.712,1.712,0,0,0-1.929.227S1123.141,367.158,1124,367.479Z" transform="translate(-1120.47 -367.427)" fill="#2846a6"/><path d="M1139.121,372.238a3.227,3.227,0,0,0-1.226-.782l.382-.458S1139.228,371.654,1139.121,372.238Z" transform="translate(-1130.852 -369.785)" fill="#2846a6"/><g transform="translate(3.158 2.502)"><path d="M1128.144,382.624a14.725,14.725,0,0,0,1.142-7.663.183.183,0,0,0-.364.029c0,.043.323,4.3-.96,7.163-1.024-.361-1.364-.713-1.486-.418S1126.84,382.016,1128.144,382.624Z" transform="translate(-1126.457 -374.794)" fill="#2846a6"/></g></g><g transform="translate(55.736 0)"><path d="M1174.5,326.22l-.034,0a.257.257,0,0,1-.22-.289c1.234-9.223-5.809-10.382-6.109-10.428a.257.257,0,0,1,.075-.508c.079.011,7.847,1.268,6.543,11A.257.257,0,0,1,1174.5,326.22Z" transform="translate(-1167.918 -314.99)" fill="#1b2b80"/></g><path d="M1126.55,543.6l-16.644-.525v3.208s5.87,4.053,7.068,4.053c.894,0,6.222-.76,9.942.235C1126.821,548.271,1126.7,545.935,1126.55,543.6Z" transform="translate(-1073.872 -465.611)" fill="#5994b3"/></g><path d="M1157.411,540.175l-47.5-1.1v2.746l14.142,1.373h35.56Z" transform="translate(-145.501 -238.437)" fill="#381a3f"/><path d="M1151.545,494.208l3.844-29.313,35.938.618-3.707,29.141Z" transform="translate(-172.998 -189.449)" fill="#6f4d77"/><path d="M1155.389,464.895l-3.844,29.313,36.075.446.311-2.437c-3.785.324-20.89,1.453-22.426-4.4-1.339-5.1,5.415-17.344,8.526-22.6Z" transform="translate(-172.998 -189.45)" fill="#653870"/><path d="M1155.389,464.9l-3.844,29.313,36.074.446-34.47-2.308Z" transform="translate(-172.998 -189.45)" fill="#381a3f"/><path d="M1140.924,542.205a13.294,13.294,0,0,1-6.9,2.831c-3.964.309-6.848-1.339-7.98-1.339s-4.583-.206-6.333.309-7.773-2.9-7.773-2.9-2.647-3.606-1.9-3.818,4.218,4.243,5.093,4.243-3.3-3.868-2.42-4.251,3.037,3.993,5.2,4.251,3.27-.181,2.42-1.03-3.192-1.905-2.369-2.214S1140.328,541.61,1140.924,542.205Z" transform="translate(-145.5 -237.238)" fill="#ffddb3"/><path d="M1041.655,512.419a13.376,13.376,0,0,0-4.531-1.235c-1.922,0-4.943,1.235-10.434,1.235s-24.364.221-25.446,3.2-3.491,6.859,1.435,8.559,28.953-7.087,31.425-7.636c0,0,1.51,2.2,3.02,2.2s2.746-.069,2.746-.069,2.643.377,3.089-.069,1.922-.412,1.922-.412,3.021,3.089,4.187,3.089-1.682-4.7-2.677-5.7A37.914,37.914,0,0,0,1041.655,512.419Z" transform="translate(-72.719 -220.017)" fill="#ffddb3"/><path d="M1033.475,430.262s4.251,8.623,1.01,14.847-7.649,13.484-7.649,13.484l-13.613-4.668S1026.608,430.935,1033.475,430.262Z" transform="translate(-81.653 -166.579)" fill="#59d5b3"/><path d="M1059.945,430.262c2.46,4.38,3.751,10.364,1.437,15.149a121.048,121.048,0,0,1-8.076,13.182C1059.814,445.2,1064.492,442.82,1059.945,430.262Z" transform="translate(-108.123 -166.579)" fill="#59f6d1"/><rect width="14.789" height="25.809" rx="7.395" transform="translate(920.977 225.546)" fill="#653870"/><rect width="12.034" height="19.646" transform="translate(922.572 228.953)" fill="#6269a0"/><path d="M1003.284,387.055a1.207,1.207,0,1,1-1.207-1.206A1.207,1.207,0,0,1,1003.284,387.055Z" transform="translate(-73.496 -137.25)" fill="#363a68"/><path d="M1114.594,178.014a11.513,11.513,0,0,1,11.486,9.609,9.8,9.8,0,0,1-1.344,19.485l-31.189.4a8.214,8.214,0,0,1-.209-16.428h.167A9.239,9.239,0,0,1,1105,183.407,11.467,11.467,0,0,1,1114.594,178.014Z" transform="translate(-129.204 0)" fill="#3cbebe"/><rect width="32.984" height="23.139" transform="translate(1031.306 225.963)" fill="#653870"/><rect width="30.375" height="18.848" transform="translate(1032.568 226.972)" fill="#65c8d0"/><path d="M1388.269,382.821a.39.39,0,1,1-.39-.39A.39.39,0,0,1,1388.269,382.821Z" transform="translate(-328.81 -134.992)" fill="lime"/></g></g></svg>