<svg xmlns="http://www.w3.org/2000/svg" width="95" height="238.745" viewBox="0 0 95 238.745"><g transform="translate(-424 -11320.541)"><g transform="translate(187.564 10491.329)"><path d="M345.579,936.557s18.975,24.623,19.546,33.491-8.508,27.918-8.508,27.918l-5.377-.652s6.569-18.388,6.569-24.779-8.4-12.65-8.4-12.65C349.41,953.494,340.888,935.487,345.579,936.557Z" transform="translate(-70.255 -69.972)" fill="#ffddb3"/><path d="M339.678,932s11.716,10,18.267,21.935l6.552,11.931-12.409,2.589-6.848-11.513-7.465-21.338Z" transform="translate(-66.085 -67.032)" fill="#5975d1"/><path d="M236.436,1475.125c0,4.7,21.266,8.5,47.5,8.5s47.5-3.806,47.5-8.5-21.266-8.5-47.5-8.5S236.436,1470.43,236.436,1475.125Z" transform="translate(0 -415.669)" fill="#32a2a2"/><g transform="translate(247.263 829.212)"><path d="M313.735,1146.77s10.934,82.972,13.488,91.807l.085,5.6,18.554-.281a4.053,4.053,0,0,0-3.246-1.819c-2.1.032-7.428-1.912-8.9-3.291s-.846-116.286-.846-116.286l-23.045.349Z" transform="translate(-295.121 -1020.473)" fill="#0f1d5b"/><path d="M296.7,1130.056l-2.474,13.487s-20.314,73.158-18.992,98.6c0,0,1.849,2.989,8.238,4.679.344.091.689,1.271.689,1.271l-16.6.251.859-5.136s2.2-85.99,2.044-96.074.281-24.291.281-24.291h26.915Z" transform="translate(-267.559 -1020.69)" fill="#2a417f"/><path d="M308.64,977.979c-.357-23.563-6.661-45.295-11.854-48.2A57.03,57.03,0,0,0,288.5,928.6c-4.6-.085-11.628,2.342-15.245,15.4-2.28,8.23-.845,27.989-.327,45.219.23,7.639-.824,14.8-.578,20.206l37.455-.567C309.936,1004.735,308.752,985.385,308.64,977.979Z" transform="translate(-270.456 -894.021)" fill="#5994b3"/><path d="M317.368,883.432s-3.11,11.325-2.595,16.864c0,0,7.075,6.891,9.818,4.876l.144-14.086Z" transform="translate(-298.311 -864.57)" fill="#ffddb3"/><path d="M321.945,883.432l7.367,7.654-.073,7.147c-3.361-.1-6.576-5.127-7.031-11.145a16.682,16.682,0,0,0-.473-2.86C321.866,883.72,321.945,883.432,321.945,883.432Z" transform="translate(-302.888 -864.57)" fill="#e5c7a1"/><path d="M332.364,849.524a2.04,2.04,0,0,1,.35.608,13.873,13.873,0,0,1,.219,7.7c-.973,4.175-2.652,12.982-5.846,13.031s-7.532-4.231-7.955-9.4-2.664-7.725-.825-11.728S332.364,849.524,332.364,849.524Z" transform="translate(-300.186 -841.399)" fill="#ffddb3"/><path d="M318.307,849.737c1.839-4,14.057-.213,14.057-.213a2.04,2.04,0,0,1,.35.608,15.429,15.429,0,0,1,.137,8.056c-.129.557-2.9-1.475-3.863-3.832-.161-.2-.258-1.764-3.058-2.859-.557,1.365-1.566.5-3.038,3.566-.009,6.174-3.716,6.953-3.761,6.4C318.707,856.294,316.467,853.74,318.307,849.737Z" transform="translate(-300.186 -841.399)" fill="#e5c7a1"/><path d="M320.061,843.32a17.46,17.46,0,0,1,2.189-3.639,2.333,2.333,0,0,0,.743-2.229s4.041.678,5.265,3.618,2.684,7.262,7.092,5.254,3.539-8.189,2.5-8.173a3.377,3.377,0,0,1-2-.894s-3.8-5.582-5.782-5.552-.288-1.937-3.663-2.441-6,2.772-6,2.772-1.494-1.734-4.057.062-1.262,8.616-.314,11.005a23.434,23.434,0,0,1,1.069,6.316S320.163,850.067,320.061,843.32Z" transform="translate(-298.4 -829.212)" fill="#5c2c55"/><path d="M324.262,864.6a1.332,1.332,0,0,1,2.5-.293,2.472,2.472,0,0,1,.022,2.97c-1.614,1.781-3.11-.138-2.624-2.271C324.191,864.866,324.226,864.731,324.262,864.6Z" transform="translate(-304.408 -851.612)" fill="#ffddb3"/><path d="M328.791,867.711c-.047-.508-.591-1.978-1.339-1.458s-1.328,2.354-.08,2.7S328.836,868.2,328.791,867.711Z" transform="translate(-306.09 -853.295)" fill="#e5c7a1"/><g transform="translate(28.182 18.143)"><path d="M348.747,886.318l1.812-.028-.072-4.744a.173.173,0,1,0-.345,0l.066,4.375-1.467.022a.185.185,0,0,0,.006.37Z" transform="translate(-348.571 -881.365)" fill="#18287d"/></g><path d="M345.2,878.456a.77.77,0,1,0,.729-.982A.881.881,0,0,0,345.2,878.456Z" transform="translate(-318.193 -860.684)" fill="#18287d"/><path d="M356.146,880.076c.008.493.3.889.646.884s.627-.41.62-.9-.3-.89-.647-.884S356.138,879.583,356.146,880.076Z" transform="translate(-325.328 -861.792)" fill="#18287d"/><g transform="translate(24.427 24.856)"><path d="M340.532,902.451a2.28,2.28,0,0,0,.6-.083.177.177,0,0,0,.105-.217.166.166,0,0,0-.2-.115,2.728,2.728,0,0,1-2.974-1.31.157.157,0,0,0-.228-.029.183.183,0,0,0-.026.244A3.281,3.281,0,0,0,340.532,902.451Z" transform="translate(-337.775 -900.66)" fill="#18287d"/></g><path d="M344.127,871.662a2.971,2.971,0,0,0-1.9-.9c-1.036.015-1.819,1.322-1.819,1.322s.761-1.059,1.654-.887a6.5,6.5,0,0,1,2.073,1.077Z" transform="translate(-315.067 -856.31)" fill="#18287d"/><path d="M297.23,1015.664l-.02-.021C297.385,1015.627,297.374,1015.637,297.23,1015.664Z" transform="translate(-286.895 -950.782)" fill="#ffddb3"/></g><path d="M382.647,1138.282v48.775H338.488v-48.775h-4.576v121.806h4.576v-69.641h44.159v69.641h4.576V1138.282Z" transform="translate(-63.566 -201.551)" fill="#6a6a6a"/><g transform="translate(270.346 936.731)"><rect width="4.576" height="8.498" transform="translate(0)" fill="#565454"/><rect width="4.576" height="8.498" transform="translate(48.735)" fill="#565454"/></g><path d="M266.215,965.211s-1.741,21.114.2,23.331,22.88,11.085,22.88,11.085l8.58,2.347,8.153-1.1s-4.709-5.286-6.78-5.286c-1.822,0-2.974,1.043-5.377.26s-17.617-9.259-17.617-12,.457-25.692.457-31.951,1.36-13.3-2.04-11.57C269.34,943.043,267.053,954.441,266.215,965.211Z" transform="translate(-18.952 -72.285)" fill="#ffddb3"/><rect width="60.403" height="9.651" transform="translate(266.457 930.471)" fill="#6a6a6a"/><path d="M298.91,979.194c-.137-31.121.055-40.2-1.7-41.148,1.038.4,1.564,3.588,1.766,4.8C300.424,952.617,299.91,969.641,298.91,979.194Z" transform="translate(-39.632 -70.973)" fill="#59f6d1"/><path d="M364.5,1060.831h6.029s7.781-16.407,9.644-25.916c-2.214-1.105-5.942-1.962-9.105,1.2C371.022,1042.562,364.5,1060.831,364.5,1060.831Z" transform="translate(-83.51 -133.489)" fill="#ffddb3"/><path d="M383.163,1020.57l-4.076,31.56h38.282l7.093-31.56Z" transform="translate(-93.025 -124.789)" fill="#4e5389"/><path d="M383.163,1020.57l-4.076,31.56h38.282l-36.788-1.878Z" transform="translate(-93.025 -124.789)" fill="#363a68"/><path d="M313,1068.884c-2.373-1.12-16.379-8.65-16.77-11.208,0-.142-.069-1.992-.065-1.883q-.036-1.256-.107-2.513c-.126,1.534-.15,2.141-.25,3.768.031.785-.77,1.425,3.78,4.967a77.246,77.246,0,0,0,13,7.785c2.978,1.389,4.531.065,6.344-.009,1.771.028,5.554,3.691,6.843,4.914C318.023,1064.91,318.015,1071.394,313,1068.884Z" transform="translate(-38.691 -146.119)" fill="#ffa6a6"/><rect width="57.315" height="3.655" transform="translate(267.029 927.342)" fill="#464a7f"/><path d="M275.211,978.956s1.734-39.976-1.7-41.148-6.845,6-8.77,11.8-3.873,32.691-3.873,32.691Z" transform="translate(-15.933 -70.735)" fill="#59d5b3"/><rect width="2.225" height="2.225" transform="translate(312.401 928.451)"/><rect width="2.225" height="2.225" transform="translate(316.606 928.451)"/><rect width="2.225" height="2.225" transform="translate(319.661 928.451)"/></g></g></svg>