<svg xmlns="http://www.w3.org/2000/svg" width="119.27" height="229.873" viewBox="0 0 119.27 229.873"><g transform="translate(-1394.578 -10328.184)"><g transform="translate(1041.42 9166.467)"><g transform="translate(353.158 1385.312)"><ellipse cx="59.635" cy="3.139" rx="59.635" ry="3.139" transform="translate(0 0)" fill="#e2e2e2"/></g><path d="M539.182,1281.792s-5.686,11.3-.237,16.745c5.062,5.061,15.759,21.5,15.759,21.5l-3.232,19.468s-2.323,8.7,0,8.7,10.127-25.91,11.133-30.4S547.7,1280.649,539.182,1281.792Z" transform="translate(-121.424 -79.468)" fill="#ffddb3"/><path d="M586.282,1359.67l-9.569,5.15c1.553,2.262,2.866,4.23,3.678,5.457l8.636-2.855A45.1,45.1,0,0,0,586.282,1359.67Z" transform="translate(-147.989 -131.041)" fill="#e5c7a1"/><path d="M536.115,1284.116a11.868,11.868,0,0,0,0,9.7c2.279,5.524,13.818,22.871,13.818,22.871l11.737-6.745s-13.845-30.67-24.788-30.67Z" transform="translate(-120.443 -77.821)" fill="#5975d1"/><g transform="translate(383.734 1190.363)"><path d="M450.172,1805.461c-6.723,0-6.559,2.705-6.559,2.705l19.738.561s-1.041-8.876-1.189-10.843h-4.62C457.031,1800.29,455.335,1805.461,450.172,1805.461Z" transform="translate(-443.613 -1611.494)" fill="#260101"/><path d="M534.627,1806.453c-6.121,0-7.372-7.264-7.547-8.568h-4.42c0,.355,0,.579,0,.632,0,.9-1.148,10.641-1.148,10.641h19.676S541.349,1806.453,534.627,1806.453Z" transform="translate(-495.179 -1611.494)" fill="#260101"/><path d="M488.65,1536.5l6.283-52.008-1.775-15.392H458.581l-.246,13.563-3.63,52.845s9.02,44,8.866,44.728H470.1c-.012-.16-1.845-48.245-1.845-48.245l7.46-42.835,2.918,44.961s-1.325,40.529-1.346,46.119h6.145C483.414,1580.109,488.65,1536.5,488.65,1536.5Z" transform="translate(-450.956 -1393.846)" fill="#2a417f"/><path d="M479.746,1277.635l-5.456,2.388c-5.349,2.341-4.681,6.055-5.019,11.884l-2.925,18.1-2.208,47.887,39.376.539s-1.985-56.47-10.379-77.472C490.833,1275.2,481.812,1277.217,479.746,1277.635Z" transform="translate(-457.201 -1266.647)" fill="#5994b3"/><path d="M614.391,1284.4a.333.333,0,0,1-.165-.38c4.157-15.443-9.122-36.832-9.257-37.046a.332.332,0,0,1,.563-.354c.136.217,13.568,21.848,9.337,37.571a.333.333,0,0,1-.407.235A.353.353,0,0,1,614.391,1284.4Z" transform="translate(-550.393 -1246.465)" fill="#111f59"/></g><path d="M498.609,1236.692s.341,7.935,1.068,9.834,6.4,3.145,8.792.337-.157-21.378-.157-21.378Z" transform="translate(-96.285 -42.213)" fill="#ffddb3"/><path d="M508.842,1229.971c-.273-2.629-.529-4.486-.529-4.486l-9.7,11.207s.071,1.659.219,3.641a7.694,7.694,0,0,0,4.932-1.583C506.283,1237.1,507.9,1233.261,508.842,1229.971Z" transform="translate(-96.285 -42.213)" fill="#e5c7a1"/><path d="M481.273,1189.379s-2.421,1.429-3.432,6.274.512,13.087,2.88,16.7c1.408,2.149,4,2.543,7.776.073s5.783-9.414,6.4-12.345S491.846,1185.969,481.273,1189.379Z" transform="translate(-82.327 -17.889)" fill="#ffddb3"/><path d="M462.174,1182.207s-1.1,3.1-3.98,3.122-2.4-2.561-3.582-4.368-8.159-7.258-.5-12.274,11.387,5.248,14.1,4.5,7.569-3.74,9.243.237-.8,4.77,1.077,6.536-2.065,8.444-2.524,9.72-2.874,2.385-2.175-.965,1.869-5.665.946-7.074-3.114-2.87-3.44-1.311c-.15.718-2.254,3.025-3.776,1.646s-2.642.7-3.844,1.071A1.208,1.208,0,0,1,462.174,1182.207Z" transform="translate(-64.487 -3.696)" fill="#5c2c55"/><path d="M524.621,1222.81c.071-.513-1.122-4.952,1.571-4.581s2.462,5.023.386,5.641S524.621,1222.81,524.621,1222.81Z" transform="translate(-113.37 -37.396)" fill="#ffddb3"/><path d="M526.18,1223.594s.192-2.057,1.3-1.569.7,3.246-.4,3.63S526.18,1223.594,526.18,1223.594Z" transform="translate(-114.526 -39.874)" fill="#e5c7a1"/><g transform="translate(395.805 1179.906)"><path d="M495.156,1224.5c.119.6-.122,1.156-.539,1.239s-.853-.337-.973-.938.122-1.156.54-1.239S495.036,1223.9,495.156,1224.5Z" transform="translate(-488.783 -1220.84)" fill="#2846a6"/><path d="M482.117,1227.1c.12.6-.122,1.156-.539,1.239s-.853-.337-.973-.938.122-1.156.54-1.239S482,1226.494,482.117,1227.1Z" transform="translate(-480.152 -1222.558)" fill="#2846a6"/><g transform="translate(5.399 10.267)"><path d="M497.139,1247.708a3.519,3.519,0,0,0,1.07-1.674.189.189,0,1,1,.354.132,3.718,3.718,0,0,1-1.292,1.709,3.825,3.825,0,0,1-1.972.772.025.025,0,0,1,.019-.028A4.214,4.214,0,0,0,497.139,1247.708Z" transform="translate(-495.299 -1245.904)" fill="#2846a6"/></g><path d="M493.551,1215.588l-.092.741a1.767,1.767,0,0,1,2,.2S494.438,1215.243,493.551,1215.588Z" transform="translate(-488.682 -1215.53)" fill="#2846a6"/><path d="M479.336,1220.73a3.336,3.336,0,0,1,1.255-.828l-.4-.467S479.216,1220.128,479.336,1220.73Z" transform="translate(-479.326 -1218.115)" fill="#2846a6"/><g transform="translate(2.33 2.628)"><path d="M487.561,1231.383a15.224,15.224,0,0,1-1.3-7.9.189.189,0,0,1,.377.025c0,.045-.267,4.446,1.105,7.391,1.053-.39,1.4-.758,1.53-.455S488.9,1230.735,487.561,1231.383Z" transform="translate(-486.217 -1223.303)" fill="#2846a6"/></g></g><g transform="translate(379.139 1161.716)"><path d="M430.47,1173.426a.266.266,0,0,1-.263-.226c-1.5-10.046,6.512-11.467,6.593-11.48a.266.266,0,0,1,.086.524c-.31.051-7.574,1.36-6.153,10.877a.266.266,0,0,1-.224.3Z" transform="translate(-430.02 -1161.716)" fill="#1b2b80"/></g><g transform="translate(365.134 1281.741)"><path d="M400.287,1552c-6.452,0-11.7-7.9-11.7-17.6s5.249-17.6,11.7-17.6,11.7,7.9,11.7,17.6S406.739,1552,400.287,1552Zm0-34.5c-6.017,0-10.913,7.582-10.913,16.9s4.9,16.9,10.913,16.9,10.912-7.582,10.912-16.9S406.3,1517.5,400.287,1517.5Z" transform="translate(-388.586 -1516.798)" fill="#a5a7db"/></g><g transform="translate(363.24 1280.856)"><path d="M394.673,1547.407c-6.446,0-11.69-7.453-11.69-16.615s5.244-16.615,11.69-16.615,11.69,7.454,11.69,16.615S401.119,1547.407,394.673,1547.407Zm0-32.548c-6.024,0-10.924,7.148-10.924,15.933s4.9,15.933,10.924,15.933,10.924-7.148,10.924-15.933S400.7,1514.859,394.673,1514.859Z" transform="translate(-382.983 -1514.177)" fill="#868ab7"/></g><g transform="translate(362.311 1282.725)"><path d="M391.938,1554.914c-6.452,0-11.7-7.9-11.7-17.6s5.249-17.6,11.7-17.6,11.7,7.9,11.7,17.6S398.389,1554.914,391.938,1554.914Zm0-34.5c-6.017,0-10.913,7.582-10.913,16.9s4.9,16.9,10.913,16.9,10.912-7.582,10.912-16.9S397.954,1520.409,391.938,1520.409Z" transform="translate(-380.236 -1519.708)" fill="#c5c6fe"/></g><g transform="translate(366.076 1280.747)"><path d="M403.1,1553.072c-6.464,0-11.723-8.8-11.723-19.608s5.259-19.608,11.723-19.608,11.723,8.8,11.723,19.608S409.563,1553.072,403.1,1553.072Zm0-38.476c-6.005,0-10.89,8.464-10.89,18.867s4.885,18.868,10.89,18.868,10.89-8.464,10.89-18.868S409.1,1514.6,403.1,1514.6Z" transform="translate(-391.375 -1513.855)" fill="#afb1e8"/></g><g transform="translate(363.735 1281.919)"><path d="M384.822,1574.773c-.009-.244-.835-24.619,0-35.661.84-11.105,7.816-21.685,7.886-21.79l.659.347c-.07.1-6.953,10.549-7.781,21.489-.833,11.009-.008,35.35,0,35.595Z" transform="translate(-384.45 -1517.322)" fill="#868ab7"/></g><g transform="translate(374.002 1281.245)"><path d="M419,1541.349l-.766-.025c.008-.2.827-20.343.242-22.974-.531-2.391-3.507-2.341-3.635-2.341l-.022-.682c.04,0,3.754-.058,4.409,2.89C419.833,1520.927,419.037,1540.517,419,1541.349Z" transform="translate(-414.822 -1515.328)" fill="#868ab7"/></g><rect width="2.309" height="2.588" transform="translate(376.688 1306.376)" fill="#63667c"/><rect width="0.284" height="0.976" transform="translate(377.057 1307.823)" fill="#474a5b"/><rect width="0.284" height="0.976" transform="translate(377.516 1307.823)" fill="#474a5b"/><rect width="0.283" height="0.976" transform="translate(377.968 1307.823)" fill="#474a5b"/><rect width="0.284" height="0.976" transform="translate(378.412 1307.823)" fill="#474a5b"/><path d="M416.738,1517.249a.464.464,0,0,1-.03.169c-.187.723-1.18,3.118-1.6,3.118-.469,0-1.258-.889-1.258-.889l.483-1.719S416.311,1515.611,416.738,1517.249Z" transform="translate(-40.174 -234.967)" fill="#e5c7a1"/><path d="M406.529,1508.188a13.806,13.806,0,0,0-1.676,2.413c-.23.686,1.249,3.668,1.841,3.932s1.052-.906,1.052-.906Z" transform="translate(-34.205 -229.357)" fill="#e5c7a1"/><g transform="translate(374.198 1280.747)"><path d="M419,1514.6l.014-.741H419a7.519,7.519,0,0,0-3.6.951v.855A6.881,6.881,0,0,1,419,1514.6Z" transform="translate(-415.401 -1513.855)" fill="#afb1e8"/></g><g transform="translate(424.559 1221.925)"><rect width="5.982" height="44.307" transform="translate(0)" fill="#4e5389"/><rect width="0.986" height="3.682" transform="translate(1.249 12.359)" fill="#363a68"/><rect width="0.986" height="3.681" transform="translate(1.249 16.944)" fill="#363a68"/><rect width="0.986" height="3.681" transform="translate(1.249 21.702)" fill="#363a68"/><rect width="3.287" height="15.58" transform="translate(1.249 28.136)" fill="#363a68"/><rect width="0.986" height="17.684" transform="translate(3.944 1.643)" fill="#363a68"/></g><path d="M568.716,1457.149s-1.858.641-2.957,0-3.071-2.219-3.526-1.183,2.237,1.035,2.237,1.923a5.152,5.152,0,0,1-1.289,2.465c-.341.444-1.365-3.8-2.047-3.55s.4,4.561.872,5.177,3.526,1.035,5.269,1.331,3.539-5.723,3.539-5.723Z" transform="translate(-137.53 -194.56)" fill="#ffddb3"/><path d="M433.513,1292.74c-.7.619-19.678,22.54-22.645,32.716s-2.276,38.13-2.276,38.13-.691,1.871-1.085,3.275,1.258,5.088,2.7,5.439,1.082-1.577.164-2.339-.033-1.411-.033-1.916,2.565-.253,2.565-.253a5.071,5.071,0,0,0,.84-3.154c0-2.164,4.485-31.161,6.654-34.319s8.442-13.68,9.3-17.833S435.02,1291.4,433.513,1292.74Z" transform="translate(-35.938 -86.685)" fill="#ffddb3"/><path d="M419.011,1372.79a29.371,29.371,0,0,0-2.56,5.707c-.208.712-.4,1.511-.57,2.381l9.091,5.1a10.69,10.69,0,0,1,1-2.612c.643-.936,1.646-2.519,2.762-4.391Z" transform="translate(-41.52 -139.726)" fill="#e5c7a1"/><rect width="3.065" height="0.464" transform="translate(376.319 1308.964)" fill="#474a5b"/><rect width="2.357" height="3.218" transform="translate(363.24 1338.499)" fill="#474a5b"/><rect width="2.949" height="0.693" transform="translate(362.865 1341.716)" fill="#595d70"/><path d="M384.007,1685.65H385.7v2.731l-.134-2.547Z" transform="translate(-20.421 -346.833)" fill="#595d70"/><path d="M409.143,1323.609l13.88,7.379s9.205-13.945,12.173-23.419,0-16.477,0-16.477a49.659,49.659,0,0,0-15.452,14.331A173.477,173.477,0,0,0,409.143,1323.609Z" transform="translate(-37.061 -85.644)" fill="#59d5b3"/><path d="M435.2,1291.092c-12.622,8.444-17.737,18.339-26.053,32.517a119.57,119.57,0,0,1,10.209-18.558A44.333,44.333,0,0,1,435.2,1291.092Z" transform="translate(-37.061 -85.644)" fill="#59f6d1"/></g></g></svg>