<svg xmlns="http://www.w3.org/2000/svg" width="1187.1" height="772.679" viewBox="0 0 1187.1 772.679"><g transform="translate(-794 -10359)"><g transform="translate(49 7210)" opacity="0.069"><g transform="translate(672.101 3147.912)"><path d="M494.972,101.752H440.754a56.021,56.021,0,0,0-56.021,56.022h0a56.02,56.02,0,0,0,56.021,56.02h54.218a56.021,56.021,0,0,0,56.021-56.02h0A56.022,56.022,0,0,0,494.972,101.752Z" fill="#3cbebe"/><path d="M183.138,548.823H128.92A56.021,56.021,0,0,0,72.9,604.845h0a56.02,56.02,0,0,0,56.021,56.02h54.218a56.02,56.02,0,0,0,56.021-56.02h0A56.021,56.021,0,0,0,183.138,548.823Z" fill="#3cbebe"/><path d="M1069.962,46.539h0a56.025,56.025,0,0,1-46.574,55.213H871.343a56.021,56.021,0,0,0-56.021,56.022h0a56.033,56.033,0,0,0,40.62,53.859v2.4H611.46a56.021,56.021,0,0,0-56.021,56.022h0a56.02,56.02,0,0,0,56.021,56.02H718.934c26.676,4.453,47.056,28.384,47.056,56.272h0c0,27.935-20.45,51.9-47.2,56.3H424.4a56.022,56.022,0,0,0-56.021,56.021h0A56.021,56.021,0,0,0,424.4,550.682h93.463A56.022,56.022,0,0,1,573.884,606.7h0a56.022,56.022,0,0,1-56.021,56.022h-206.1a56.02,56.02,0,0,0-56.021,56.02h0a56.029,56.029,0,0,0,45.5,55.022H1260V1.088H1046.672A55.933,55.933,0,0,1,1069.962,46.539Z" fill="#3cbebe"/></g></g></g></svg>