<svg xmlns="http://www.w3.org/2000/svg" width="100" height="100" viewBox="0 0 100 100"><g transform="translate(-1606 -10658)"><path d="M50,0A50,50,0,1,1,0,50,50,50,0,0,1,50,0Z" transform="translate(1606 10658)" fill="#3cbebe"/><path d="M-16.3.638q-6.38,0-10.092-3.567T-30.1-12.644V-27.956a12.6,12.6,0,0,1,3.712-9.57q3.712-3.538,10.092-3.538t10.121,3.538a12.544,12.544,0,0,1,3.741,9.57v15.312q0,6.148-3.741,9.715T-16.3.638Zm0-7.018a5.491,5.491,0,0,0,4.147-1.6,5.884,5.884,0,0,0,1.537-4.263v-15.95a5.884,5.884,0,0,0-1.537-4.263,5.491,5.491,0,0,0-4.147-1.6,5.417,5.417,0,0,0-4.089,1.6,5.884,5.884,0,0,0-1.537,4.263v15.95a5.884,5.884,0,0,0,1.537,4.263A5.417,5.417,0,0,0-16.3-6.38Zm30.1-.986a.189.189,0,0,0-.058.232.234.234,0,0,0,.232.116H29.7a.671.671,0,0,1,.493.2.671.671,0,0,1,.2.493V-.7a.671.671,0,0,1-.2.493A.671.671,0,0,1,29.7,0H3.6A.671.671,0,0,1,3.1-.2.671.671,0,0,1,2.9-.7V-6.032a1.18,1.18,0,0,1,.348-.87q2.842-2.784,5.8-6.061t3.712-4.089q1.624-1.914,3.306-3.654,5.278-5.858,5.278-8.7a4.286,4.286,0,0,0-1.45-3.335,5.421,5.421,0,0,0-3.77-1.305,5.421,5.421,0,0,0-3.77,1.305A4.419,4.419,0,0,0,10.9-29.29v1.45a.671.671,0,0,1-.2.493.671.671,0,0,1-.493.2H3.364a.671.671,0,0,1-.493-.2.671.671,0,0,1-.2-.493v-2.726A9.969,9.969,0,0,1,4.64-36.1a11.441,11.441,0,0,1,4.785-3.683,16.893,16.893,0,0,1,6.7-1.276,15.709,15.709,0,0,1,7.163,1.537,11.586,11.586,0,0,1,4.7,4.147,10.618,10.618,0,0,1,1.653,5.8,11.533,11.533,0,0,1-1.218,4.988,27.58,27.58,0,0,1-3.654,5.51q-1.8,2.262-3.886,4.466t-6.206,6.38Z" transform="translate(1656 10736)" fill="#fff"/><path d="M-26.676.1A4.625,4.625,0,0,1-28.5-.228a2.684,2.684,0,0,1-1.2-.949,2.482,2.482,0,0,1-.422-1.437V-2.9a.15.15,0,0,1,.045-.11.15.15,0,0,1,.111-.046h1.482a.15.15,0,0,1,.11.046.15.15,0,0,1,.045.11v.2a1.062,1.062,0,0,0,.481.878,2.132,2.132,0,0,0,1.3.357,1.537,1.537,0,0,0,1.027-.293.917.917,0,0,0,.338-.722.727.727,0,0,0-.208-.526,1.837,1.837,0,0,0-.566-.377q-.357-.163-1.138-.448a11.139,11.139,0,0,1-1.476-.611A2.963,2.963,0,0,1-29.581-5.3a2.14,2.14,0,0,1-.41-1.332,2.347,2.347,0,0,1,.4-1.365,2.566,2.566,0,0,1,1.118-.9A4.1,4.1,0,0,1-26.819-9.2a4.219,4.219,0,0,1,1.761.351,2.871,2.871,0,0,1,1.209.981,2.51,2.51,0,0,1,.436,1.463v.2a.15.15,0,0,1-.046.11.15.15,0,0,1-.11.045h-1.5a.15.15,0,0,1-.111-.045.15.15,0,0,1-.045-.11v-.1a1.181,1.181,0,0,0-.448-.93A1.829,1.829,0,0,0-26.9-7.631a1.555,1.555,0,0,0-.955.26.847.847,0,0,0-.344.715.78.78,0,0,0,.2.546,1.769,1.769,0,0,0,.6.4q.4.176,1.229.475a15.3,15.3,0,0,1,1.45.6,2.888,2.888,0,0,1,.949.773,2.029,2.029,0,0,1,.422,1.333,2.328,2.328,0,0,1-.9,1.93A3.818,3.818,0,0,1-26.676.1Zm10.79-9.2a.15.15,0,0,1,.11.045.15.15,0,0,1,.045.11V-7.67a.15.15,0,0,1-.045.11.15.15,0,0,1-.11.045h-2.327a.057.057,0,0,0-.065.065V-.156a.15.15,0,0,1-.045.111A.15.15,0,0,1-18.434,0h-1.521a.15.15,0,0,1-.111-.046.15.15,0,0,1-.045-.111V-7.449a.057.057,0,0,0-.065-.065h-2.262a.15.15,0,0,1-.111-.045.15.15,0,0,1-.045-.11V-8.944a.15.15,0,0,1,.045-.11.15.15,0,0,1,.111-.045Zm7.644,1.417a.15.15,0,0,1-.045.111.15.15,0,0,1-.111.045h-4.264a.057.057,0,0,0-.065.065v2.015a.057.057,0,0,0,.065.065h2.8a.15.15,0,0,1,.111.046.15.15,0,0,1,.045.11v1.261a.15.15,0,0,1-.045.111.15.15,0,0,1-.111.045h-2.8a.057.057,0,0,0-.065.065v2.106a.057.057,0,0,0,.065.065H-8.4a.15.15,0,0,1,.111.045.15.15,0,0,1,.045.111V-.156a.15.15,0,0,1-.045.111A.15.15,0,0,1-8.4,0H-14.4a.15.15,0,0,1-.111-.046.15.15,0,0,1-.045-.111V-8.944a.15.15,0,0,1,.045-.11A.15.15,0,0,1-14.4-9.1H-8.4a.15.15,0,0,1,.111.045.15.15,0,0,1,.045.11Zm5.031-1.43A3.125,3.125,0,0,1-1.7-8.762,2.474,2.474,0,0,1-.7-7.768,2.987,2.987,0,0,1-.338-6.292a2.772,2.772,0,0,1-.37,1.443,2.524,2.524,0,0,1-1.04.968,3.32,3.32,0,0,1-1.541.344H-5.135a.057.057,0,0,0-.065.065V-.156a.15.15,0,0,1-.045.111A.15.15,0,0,1-5.356,0H-6.877a.15.15,0,0,1-.11-.046.15.15,0,0,1-.045-.111v-8.8a.15.15,0,0,1,.045-.111.15.15,0,0,1,.11-.045Zm-.273,4.108a1.342,1.342,0,0,0,.962-.345,1.187,1.187,0,0,0,.364-.9,1.224,1.224,0,0,0-.364-.923,1.327,1.327,0,0,0-.962-.351H-5.135a.057.057,0,0,0-.065.065V-5.07a.057.057,0,0,0,.065.065Z" transform="translate(1672 10686)" fill="#fff46e"/></g></svg>