<svg xmlns="http://www.w3.org/2000/svg" width="328.795" height="118.705" viewBox="0 0 328.795 118.705"><g transform="translate(-2375.525 -357)"><path d="M-170.5-88.815a39.566,39.566,0,0,1,2.635,15.19V-26.97a25.84,25.84,0,0,1-4.34,14.8,27.941,27.941,0,0,1-12.245,9.92A44.532,44.532,0,0,1-202.585,1.24,43.034,43.034,0,0,1-220.41-2.247a28.515,28.515,0,0,1-12.09-9.765,24.858,24.858,0,0,1-4.34-14.493v-4.34a1.794,1.794,0,0,1,.543-1.317,1.794,1.794,0,0,1,1.317-.542h18.135a1.794,1.794,0,0,1,1.318.542,1.794,1.794,0,0,1,.542,1.317v1.4a11.434,11.434,0,0,0,3.488,8.525,12.217,12.217,0,0,0,8.912,3.41,12.733,12.733,0,0,0,9.3-3.488,11.93,11.93,0,0,0,3.565-8.913V-44.33a.625.625,0,0,0-.31-.62.506.506,0,0,0-.62.155q-6.355,5.425-16.74,5.425a32.644,32.644,0,0,1-16.662-4.263A29.616,29.616,0,0,1-235.6-55.955q-3.875-7.285-3.875-17.825a39.355,39.355,0,0,1,3.1-16.12A30.506,30.506,0,0,1-223.9-104.315a37.949,37.949,0,0,1,20.227-5.27,37.79,37.79,0,0,1,20.538,5.5A31.113,31.113,0,0,1-170.5-88.815ZM-203.67-57.66q8.06,0,11.625-6.355A20.605,20.605,0,0,0-189.72-74.4a22.175,22.175,0,0,0-2.015-9.455q-3.41-6.82-11.78-6.82-8.06,0-11.78,6.82a20.348,20.348,0,0,0-2.325,9.765,19.328,19.328,0,0,0,2.635,10.23A12.534,12.534,0,0,0-203.67-57.66Zm78.74,59.365q-17.05,0-26.97-9.533t-9.92-25.963V-74.71q0-16.12,9.92-25.575t26.97-9.455q17.05,0,27.047,9.455t10,25.575v40.92q0,16.43-10,25.963T-124.93,1.705Zm0-18.755q6.975,0,11.082-4.263T-109.74-32.7V-75.33q0-7.13-4.107-11.392t-11.082-4.263q-6.82,0-10.928,4.263t-4.107,11.392V-32.7q0,7.13,4.107,11.392T-124.93-17.05Zm80.6,18.755q-17.05,0-26.97-9.533T-81.22-33.79V-74.71q0-16.12,9.92-25.575t26.97-9.455q17.05,0,27.047,9.455t10,25.575v40.92q0,16.43-10,25.963T-44.33,1.705Zm0-18.755q6.975,0,11.083-4.263T-29.14-32.7V-75.33q0-7.13-4.107-11.392T-44.33-90.985q-6.82,0-10.928,4.263T-59.365-75.33V-32.7q0,7.13,4.107,11.392T-44.33-17.05Z" transform="translate(2615 474)" fill="#fff"/><path d="M-20.688-20.208V-31.2h10.512v10.992ZM-37.44-31.2h9.792v10.992H-37.44Zm34.32-6.912H-44.448V4.512h7.008V-13.3h27.264v9.888c0,.864-.336,1.152-1.248,1.152S-15.5-2.208-18-2.4a24.68,24.68,0,0,1,2.5,6.96c4.272,0,7.248-.144,9.456-1.3S-3.12.24-3.12-3.312ZM33.024-10.368c5.184,0,9.984-2.928,13.3-9.12l-6.288-3.456c-1.728,3.216-4.128,5.376-6.864,5.376-3.168,0-4.752-1.1-6.528-3.12a14.673,14.673,0,0,0-11.664-5.424c-5.184,0-9.984,2.928-13.3,9.12l6.288,3.456c1.728-3.216,4.128-5.376,6.864-5.376,3.216,0,4.752,1.152,6.528,3.12A14.673,14.673,0,0,0,33.024-10.368Z" transform="translate(2658 470)" fill="#fff"/><path d="M34,0C52.778,0,68,15.446,68,34.5S52.778,69,34,69,0,53.554,0,34.5,15.222,0,34,0Z" transform="translate(2628 357)" fill="#fff"/><path d="M-15.29-7.194c.088-.924.132-1.848.154-2.684h8.822v2.684Zm8.976-7.854v2.684h-8.822v-2.684ZM-3.542-17.6h-14.3v7.238c0,3.344-.308,7.546-3.63,10.384a10.333,10.333,0,0,1,2.024,1.892A11.834,11.834,0,0,0-15.73-4.664h9.416v3.19c0,.462-.176.638-.7.638C-7.5-.836-9.35-.814-10.89-.9a11.231,11.231,0,0,1,1.1,2.75c2.266,0,3.806-.044,4.862-.506C-3.916.9-3.542.154-3.542-1.43ZM18-10.758H13.64V-12.1H18Zm0,3.146H13.64V-8.954H18ZM18-4.4H13.64V-5.764H18Zm-6.71-9.658V-2.464H20.46V-14.058H16.566c.176-.462.352-.968.528-1.5H20.9v-2.222H10.626v2.222h3.7c-.088.484-.176,1.012-.264,1.5Zm-8.162-.726H8.382v1.518H10.56v-3.542H6.974V-18.59H4.532v1.782H1.012v3.542H3.124Zm3.96,13.4H4.422V-3.41H7.084ZM4.466-5.434a12.948,12.948,0,0,0,1.848-1.43c.66.506,1.32.99,1.87,1.43Zm2.64-5.852A9.4,9.4,0,0,1,6.028-9.724l-1.518-.99c.154-.2.308-.374.462-.572Zm2.2,6.776.044.044,1.474-1.826c-.726-.616-1.8-1.408-2.97-2.2a13.222,13.222,0,0,0,2.156-3.96l-1.474-.682-.4.11H6.094A8.684,8.684,0,0,0,6.6-14.036l-2.134-.528A10.58,10.58,0,0,1,.44-9.966,9.869,9.869,0,0,1,2.09-8.448,10.075,10.075,0,0,0,3.036-9.2L4.488-8.184A13.048,13.048,0,0,1,.44-5.874,7.552,7.552,0,0,1,1.76-4l.462-.2V1.5h2.2V.616H9.306a15.518,15.518,0,0,1,1.21,1.254A15.644,15.644,0,0,0,15.2-1.056L13.09-2.376A12.468,12.468,0,0,1,9.306.044ZM16.17-1.078A24.242,24.242,0,0,1,19.6,1.936L21.626.594a27.7,27.7,0,0,0-3.564-2.86Z" transform="translate(2660 406)" fill="#3cbebe"/><path d="M-7.41-5.46A17.819,17.819,0,0,0-9.85-6.8l-.64.98A13.2,13.2,0,0,1-8.11-4.41Zm-3.73-1.52a10.46,10.46,0,0,1-1.33.31c.14-.53.26-1.03.34-1.35l-1.37-.14a8.432,8.432,0,0,1-.27,1.66c-.3.02-.6.03-.89.03a12.588,12.588,0,0,1-1.32-.07l.09,1.16c.43.02.83.03,1.24.03.17,0,.34,0,.51-.01a15.11,15.11,0,0,1-2.02,3.5l1.21.61a18.28,18.28,0,0,0,2.12-4.24,14.512,14.512,0,0,0,1.72-.34Zm.24,5.51c0,.53-.22.92-.89.92-.54,0-.85-.25-.85-.62,0-.35.37-.59.94-.59a3.5,3.5,0,0,1,.8.1Zm-.16-3.47c.03.6.08,1.47.11,2.21-.21-.02-.44-.04-.67-.04-1.38,0-2.19.75-2.19,1.72,0,1.09.97,1.64,2.2,1.64C-10.2.59-9.7-.13-9.7-1.05v-.09A8.816,8.816,0,0,1-8.36-.09l.66-1.06A6.6,6.6,0,0,0-9.75-2.42c-.03-.49-.05-.97-.06-1.25-.01-.44-.03-.85,0-1.27ZM-1.02-7.52l-1.41-.57c-.18.42-.36.74-.49,1.01-.52.94-2.61,5.1-3.34,7.08l1.4.47a19.113,19.113,0,0,1,.75-2.2c.35-.81.9-1.49,1.58-1.49a.533.533,0,0,1,.58.55c.03.4.02,1.21.06,1.74A1.472,1.472,0,0,0-.25.45C1.28.45,2.2-.67,2.71-2.38L1.64-3.25C1.36-2.02.82-.91-.03-.91a.559.559,0,0,1-.63-.54C-.72-1.86-.69-2.66-.71-3.1A1.2,1.2,0,0,0-1.94-4.4a2.254,2.254,0,0,0-1.13.3c.49-.87,1.24-2.25,1.73-2.96C-1.23-7.22-1.12-7.4-1.02-7.52Zm11.58.55a6.837,6.837,0,0,1-.91.6c-.47.26-1.33.7-2.14,1.17A23.218,23.218,0,0,1,6.27-7.94l-1.25.51c.45,1.05.93,2.1,1.39,2.95A3.3,3.3,0,0,0,4.77-1.87C4.77-.17,6.26.38,8.23.38A19.368,19.368,0,0,0,11.41.14l.02-1.43a16.563,16.563,0,0,1-3.24.36c-1.37,0-2.06-.38-2.06-1.09,0-.69.55-1.26,1.38-1.8a30.328,30.328,0,0,1,2.76-1.47c.36-.18.68-.35.98-.53Zm3.96,4.45h.96l.21-3.69.05-1.39H14.26l.05,1.39ZM15,.14a.927.927,0,0,0,.92-.96A.927.927,0,0,0,15-1.78a.919.919,0,0,0-.91.96A.919.919,0,0,0,15,.14Z" transform="translate(2662 382)" fill="#3cbebe"/></g></svg>