<svg xmlns="http://www.w3.org/2000/svg" width="636.955" height="137" viewBox="0 0 636.955 137"><g transform="translate(47 -609)"><g transform="translate(-47.159 558.402)"><path d="M-222-106.005a47.224,47.224,0,0,1,3.145,18.13V-32.19a30.841,30.841,0,0,1-5.18,17.667A33.349,33.349,0,0,1-238.65-2.682,53.151,53.151,0,0,1-260.3,1.48,51.363,51.363,0,0,1-281.57-2.682,34.035,34.035,0,0,1-296-14.338a29.669,29.669,0,0,1-5.18-17.3v-5.18a2.141,2.141,0,0,1,.648-1.573,2.141,2.141,0,0,1,1.572-.647h21.645a2.141,2.141,0,0,1,1.573.647,2.141,2.141,0,0,1,.647,1.573v1.665a13.647,13.647,0,0,0,4.163,10.175A14.582,14.582,0,0,0-260.3-20.9a15.2,15.2,0,0,0,11.1-4.163,14.24,14.24,0,0,0,4.255-10.638V-52.91a.746.746,0,0,0-.37-.74.6.6,0,0,0-.74.185q-7.585,6.475-19.98,6.475a38.962,38.962,0,0,1-19.888-5.088A35.348,35.348,0,0,1-299.7-66.785q-4.625-8.695-4.625-21.275a46.971,46.971,0,0,1,3.7-19.24A36.41,36.41,0,0,1-285.733-124.5q10.268-6.29,24.142-6.29,14.06,0,24.513,6.567A37.135,37.135,0,0,1-222-106.005ZM-261.59-68.82q9.62,0,13.875-7.585,2.775-4.81,2.775-12.395a26.467,26.467,0,0,0-2.405-11.285q-4.07-8.14-14.06-8.14-9.62,0-14.06,8.14A24.287,24.287,0,0,0-278.24-88.43,23.069,23.069,0,0,0-275.1-76.22,14.96,14.96,0,0,0-261.59-68.82ZM-158.36,2.035q-20.35,0-32.19-11.378T-202.39-40.33V-89.17q0-19.24,11.84-30.525t32.19-11.285q20.35,0,32.283,11.285t11.932,30.525v48.84q0,19.61-11.932,30.987T-158.36,2.035Zm0-22.385q8.325,0,13.228-5.087t4.9-13.6V-89.91q0-8.51-4.9-13.6T-158.36-108.6q-8.14,0-13.042,5.088t-4.9,13.6v50.875q0,8.51,4.9,13.6T-158.36-20.35ZM-52.91,2.035q-20.35,0-32.19-11.378T-96.94-40.33V-89.17q0-19.24,11.84-30.525t32.19-11.285q20.35,0,32.283,11.285T-8.7-89.17v48.84q0,19.61-11.932,30.987T-52.91,2.035Zm0-22.385q8.325,0,13.228-5.087t4.9-13.6V-89.91q0-8.51-4.9-13.6T-52.91-108.6q-8.14,0-13.043,5.088t-4.9,13.6v50.875q0,8.51,4.9,13.6T-52.91-20.35Z" transform="translate(461.159 184.598)" fill="#fff"/><path d="M-37.5-36.627V-56.55h19.053v19.923ZM-67.86-56.55h17.748v19.923H-67.86ZM-5.655-69.078H-80.562V8.178h12.7V-24.1h49.416V-6.177c0,1.566-.609,2.088-2.262,2.088S-28.1-4-32.625-4.35A44.733,44.733,0,0,1-28.1,8.265c7.743,0,13.137-.261,17.139-2.349S-5.655.435-5.655-6ZM59.856-18.792c9.4,0,18.1-5.307,24.1-16.53l-11.4-6.264c-3.132,5.829-7.482,9.744-12.441,9.744-5.742,0-8.613-2-11.832-5.655-5.916-6.7-12.615-9.831-21.141-9.831-9.4,0-18.1,5.307-24.1,16.53l11.4,6.264c3.132-5.829,7.482-9.744,12.441-9.744,5.829,0,8.613,2.088,11.832,5.655C44.631-21.924,51.33-18.792,59.856-18.792Z" transform="translate(553.159 175.598)" fill="#fff"/><ellipse cx="68" cy="68.5" rx="68" ry="68.5" transform="translate(0.159 50.598)" fill="#fff"/><path d="M-31.275-14.715c.18-1.89.27-3.78.315-5.49h18.045v5.49Zm18.36-16.065v5.49H-30.96v-5.49ZM-7.245-36h-29.25v14.805c0,6.84-.63,15.435-7.425,21.24a21.135,21.135,0,0,1,4.14,3.87C-35.6.4-33.345-4.5-32.175-9.54h19.26v6.525c0,.945-.36,1.305-1.44,1.305-.99,0-4.77.045-7.92-.135a22.972,22.972,0,0,1,2.25,5.625c4.635,0,7.785-.09,9.945-1.035,2.07-.9,2.835-2.43,2.835-5.67ZM36.81-22H27.9V-24.75h8.91Zm0,6.435H27.9v-2.745h8.91Zm0,6.57H27.9v-2.79h8.91ZM23.085-28.755V-5.04H41.85V-28.755H33.885c.36-.945.72-1.98,1.08-3.06H42.75V-36.36H21.735v4.545H29.3c-.18.99-.36,2.07-.54,3.06ZM6.39-30.24H17.145v3.1H21.6V-34.38H14.265v-3.645H9.27v3.645H2.07v7.245H6.39Zm8.1,27.4H9.045v-4.14H14.49Zm-5.355-8.28a26.484,26.484,0,0,0,3.78-2.925c1.35,1.035,2.7,2.025,3.825,2.925Zm5.4-11.97a19.232,19.232,0,0,1-2.205,3.2l-3.1-2.025c.315-.405.63-.765.945-1.17Zm4.5,13.86.09.09L22.14-12.87c-1.485-1.26-3.69-2.88-6.075-4.5a27.045,27.045,0,0,0,4.41-8.1l-3.015-1.4-.81.225H12.465A17.762,17.762,0,0,0,13.5-28.71L9.135-29.79A21.64,21.64,0,0,1,.9-20.385a20.187,20.187,0,0,1,3.375,3.1A20.608,20.608,0,0,0,6.21-18.81l2.97,2.07A26.689,26.689,0,0,1,.9-12.015,15.446,15.446,0,0,1,3.6-8.19L4.545-8.6V3.06h4.5V1.26h9.99A31.741,31.741,0,0,1,21.51,3.825,32,32,0,0,0,31.095-2.16l-4.32-2.7A25.5,25.5,0,0,1,19.035.09ZM33.075-2.2a49.586,49.586,0,0,1,7.02,6.165l4.14-2.745a56.649,56.649,0,0,0-7.29-5.85Z" transform="translate(64.159 147.598)" fill="#3cbebe"/><path d="M-15.561-11.466a37.42,37.42,0,0,0-5.124-2.814l-1.344,2.058a27.728,27.728,0,0,1,5,2.961Zm-7.833-3.192a21.966,21.966,0,0,1-2.793.651c.294-1.113.546-2.163.714-2.835l-2.877-.294a17.707,17.707,0,0,1-.567,3.486c-.63.042-1.26.063-1.869.063a26.435,26.435,0,0,1-2.772-.147l.189,2.436c.9.042,1.743.063,2.6.063.357,0,.714,0,1.071-.021a31.73,31.73,0,0,1-4.242,7.35l2.541,1.281a38.388,38.388,0,0,0,4.452-8.9,30.476,30.476,0,0,0,3.612-.714Zm.5,11.571c0,1.113-.462,1.932-1.869,1.932-1.134,0-1.785-.525-1.785-1.3,0-.735.777-1.239,1.974-1.239a7.36,7.36,0,0,1,1.68.21Zm-.336-7.287c.063,1.26.168,3.087.231,4.641-.441-.042-.924-.084-1.407-.084-2.9,0-4.6,1.575-4.6,3.612,0,2.289,2.037,3.444,4.62,3.444,2.961,0,4.011-1.512,4.011-3.444v-.189A18.514,18.514,0,0,1-17.556-.189l1.386-2.226a13.854,13.854,0,0,0-4.305-2.667c-.063-1.029-.1-2.037-.126-2.625-.021-.924-.063-1.785,0-2.667Zm21.084-5.418-2.961-1.2c-.378.882-.756,1.554-1.029,2.121C-7.224-12.894-11.613-4.158-13.146,0l2.94.987a40.136,40.136,0,0,1,1.575-4.62c.735-1.7,1.89-3.129,3.318-3.129A1.119,1.119,0,0,1-4.095-5.607c.063.84.042,2.541.126,3.654C-3.885-.441-2.793.945-.525.945,2.688.945,4.62-1.407,5.691-5L3.444-6.825C2.856-4.242,1.722-1.911-.063-1.911A1.174,1.174,0,0,1-1.386-3.045c-.126-.861-.063-2.541-.105-3.465C-1.575-8.232-2.52-9.24-4.074-9.24a4.733,4.733,0,0,0-2.373.63c1.029-1.827,2.6-4.725,3.633-6.216C-2.583-15.162-2.352-15.54-2.142-15.792Zm24.318,1.155a14.359,14.359,0,0,1-1.911,1.26c-.987.546-2.793,1.47-4.494,2.457a48.757,48.757,0,0,1-2.6-5.754L10.542-15.6c.945,2.2,1.953,4.41,2.919,6.195-2,1.47-3.444,3.171-3.444,5.481C10.017-.357,13.146.8,17.283.8a40.673,40.673,0,0,0,6.678-.5l.042-3a34.783,34.783,0,0,1-6.8.756c-2.877,0-4.326-.8-4.326-2.289,0-1.449,1.155-2.646,2.9-3.78a63.689,63.689,0,0,1,5.8-3.087c.756-.378,1.428-.735,2.058-1.113Zm8.316,9.345h2.016l.441-7.749.1-2.919H29.946l.105,2.919ZM31.5.294a1.947,1.947,0,0,0,1.932-2.016A1.947,1.947,0,0,0,31.5-3.738a1.93,1.93,0,0,0-1.911,2.016A1.93,1.93,0,0,0,31.5.294Z" transform="translate(68.159 100.598)" fill="#3cbebe"/></g></g></svg>