<svg xmlns="http://www.w3.org/2000/svg" xmlns:xlink="http://www.w3.org/1999/xlink" width="345.528" height="91.027" viewBox="0 0 345.528 91.027">
  <defs>
    <linearGradient id="linear-gradient" x1="-3.027" y1="-8.331" x2="2.224" y2="4.815" gradientUnits="objectBoundingBox">
      <stop offset="0" stop-color="#b67239"/>
      <stop offset="0.227" stop-color="#fceeae"/>
      <stop offset="0.522" stop-color="#d8a35b"/>
      <stop offset="0.753" stop-color="#fce9a4"/>
      <stop offset="0.827" stop-color="#f1d693"/>
      <stop offset="0.922" stop-color="#e1bd7c"/>
      <stop offset="1" stop-color="#c38a4f"/>
    </linearGradient>
    <linearGradient id="linear-gradient-2" x1="-8.47" y1="-3.904" x2="5.466" y2="2.938" xlink:href="#linear-gradient"/>
    <linearGradient id="linear-gradient-3" x1="-2.462" y1="-6.854" x2="2.799" y2="6.208" xlink:href="#linear-gradient"/>
    <linearGradient id="linear-gradient-4" x1="-8.435" y1="-2.995" x2="7.944" y2="3.411" xlink:href="#linear-gradient"/>
    <linearGradient id="linear-gradient-5" x1="-2.03" y1="-4.297" x2="3.619" y2="6.412" xlink:href="#linear-gradient"/>
    <linearGradient id="linear-gradient-6" x1="-7.809" y1="-2.276" x2="10.616" y2="3.88" xlink:href="#linear-gradient"/>
    <linearGradient id="linear-gradient-7" x1="-1.793" y1="-2.019" x2="5.027" y2="5.473" xlink:href="#linear-gradient"/>
    <linearGradient id="linear-gradient-8" x1="-5.636" y1="-1.808" x2="11.22" y2="4.532" xlink:href="#linear-gradient"/>
    <linearGradient id="linear-gradient-9" x1="-1.828" y1="-0.875" x2="7.757" y2="4.785" xlink:href="#linear-gradient"/>
    <linearGradient id="linear-gradient-10" x1="-3.106" y1="-1.63" x2="9.207" y2="5.641" xlink:href="#linear-gradient"/>
    <linearGradient id="linear-gradient-11" x1="-2.059" y1="-0.347" x2="12.381" y2="4.434" xlink:href="#linear-gradient"/>
    <linearGradient id="linear-gradient-12" x1="-1.642" y1="-1.853" x2="7.119" y2="7.772" xlink:href="#linear-gradient"/>
    <linearGradient id="linear-gradient-13" x1="-1.588" y1="-0.197" x2="12.755" y2="4.594" xlink:href="#linear-gradient"/>
    <linearGradient id="linear-gradient-14" x1="-1.122" y1="-2.574" x2="6.135" y2="11.182" xlink:href="#linear-gradient"/>
    <linearGradient id="linear-gradient-15" x1="-1.276" y1="-0.277" x2="10.481" y2="4.868" xlink:href="#linear-gradient"/>
    <linearGradient id="linear-gradient-16" x1="-1.068" y1="-3.393" x2="5.691" y2="13.389" xlink:href="#linear-gradient"/>
    <linearGradient id="linear-gradient-17" x1="-0.767" y1="-1.517" x2="5.192" y2="7.968" xlink:href="#linear-gradient"/>
    <linearGradient id="linear-gradient-18" x1="-0.224" y1="0.068" x2="1.553" y2="0.876" xlink:href="#linear-gradient"/>
    <linearGradient id="linear-gradient-19" x1="4.027" y1="-8.331" x2="-1.224" y2="4.815" xlink:href="#linear-gradient"/>
    <linearGradient id="linear-gradient-20" x1="9.47" y1="-3.904" x2="-4.466" y2="2.938" xlink:href="#linear-gradient"/>
    <linearGradient id="linear-gradient-21" x1="3.462" y1="-6.854" x2="-1.799" y2="6.208" xlink:href="#linear-gradient"/>
    <linearGradient id="linear-gradient-22" x1="9.435" y1="-2.995" x2="-6.944" y2="3.411" xlink:href="#linear-gradient"/>
    <linearGradient id="linear-gradient-23" x1="3.03" y1="-4.297" x2="-2.619" y2="6.412" xlink:href="#linear-gradient"/>
    <linearGradient id="linear-gradient-24" x1="8.809" y1="-2.276" x2="-9.616" y2="3.88" xlink:href="#linear-gradient"/>
    <linearGradient id="linear-gradient-25" x1="2.793" y1="-2.019" x2="-4.027" y2="5.473" xlink:href="#linear-gradient"/>
    <linearGradient id="linear-gradient-26" x1="6.636" y1="-1.808" x2="-10.22" y2="4.532" xlink:href="#linear-gradient"/>
    <linearGradient id="linear-gradient-27" x1="2.828" y1="-0.875" x2="-6.757" y2="4.785" xlink:href="#linear-gradient"/>
    <linearGradient id="linear-gradient-28" x1="4.106" y1="-1.63" x2="-8.207" y2="5.641" xlink:href="#linear-gradient"/>
    <linearGradient id="linear-gradient-29" x1="-2.059" y1="1.347" x2="12.381" y2="-3.434" xlink:href="#linear-gradient"/>
    <linearGradient id="linear-gradient-30" x1="2.642" y1="-1.853" x2="-6.119" y2="7.772" xlink:href="#linear-gradient"/>
    <linearGradient id="linear-gradient-31" x1="2.588" y1="-0.197" x2="-11.755" y2="4.594" xlink:href="#linear-gradient"/>
    <linearGradient id="linear-gradient-32" x1="2.122" y1="-2.574" x2="-5.135" y2="11.182" xlink:href="#linear-gradient"/>
    <linearGradient id="linear-gradient-33" x1="2.276" y1="-0.277" x2="-9.481" y2="4.868" xlink:href="#linear-gradient"/>
    <linearGradient id="linear-gradient-34" x1="2.068" y1="-3.393" x2="-4.691" y2="13.389" xlink:href="#linear-gradient"/>
    <linearGradient id="linear-gradient-35" x1="1.767" y1="-1.517" x2="-4.192" y2="7.968" xlink:href="#linear-gradient"/>
    <linearGradient id="linear-gradient-36" x1="1.224" y1="0.068" x2="-0.553" y2="0.876" xlink:href="#linear-gradient"/>
  </defs>
  <g id="グループ_2487" data-name="グループ 2487" transform="translate(-2352.144 -193.576)">
    <g id="グループ_2480" data-name="グループ 2480" transform="translate(-14 -50)">
      <g id="グループ_2478" data-name="グループ 2478" transform="translate(2366.144 243.576)">
        <path id="パス_600" data-name="パス 600" d="M256.268,210.628a11.805,11.805,0,0,0,7.429-2.819,11.626,11.626,0,0,0-14.933.208A11.807,11.807,0,0,0,256.268,210.628Z" transform="translate(-226.316 -129.008)" fill="url(#linear-gradient)"/>
        <path id="パス_601" data-name="パス 601" d="M261.909,198.278a9.19,9.19,0,0,1,.66,6.149,9.05,9.05,0,0,1-5.117-10.439A9.192,9.192,0,0,1,261.909,198.278Z" transform="translate(-226.876 -128.263)" fill="url(#linear-gradient-2)"/>
        <path id="パス_602" data-name="パス 602" d="M245.191,204.2a11.815,11.815,0,0,0,7.626-2.233,11.624,11.624,0,0,0-14.9-.953A11.811,11.811,0,0,0,245.191,204.2Z" transform="translate(-225.594 -128.58)" fill="url(#linear-gradient-3)"/>
        <path id="パス_603" data-name="パス 603" d="M253.17,191.793a9.2,9.2,0,0,1-.377,6.173,9.05,9.05,0,0,1-3.3-11.148A9.2,9.2,0,0,1,253.17,191.793Z" transform="translate(-226.315 -127.786)" fill="url(#linear-gradient-4)"/>
        <path id="パス_604" data-name="パス 604" d="M235.9,193.889a11.812,11.812,0,0,0,7.942.231,11.627,11.627,0,0,0-13.881-5.511A11.817,11.817,0,0,0,235.9,193.889Z" transform="translate(-225.065 -127.867)" fill="url(#linear-gradient-5)"/>
        <path id="パス_605" data-name="パス 605" d="M245.8,184.49a9.2,9.2,0,0,1-1.739,5.935,9.048,9.048,0,0,1-.741-11.6A9.2,9.2,0,0,1,245.8,184.49Z" transform="translate(-225.837 -127.255)" fill="url(#linear-gradient-6)"/>
        <path id="パス_606" data-name="パス 606" d="M229.087,181.267a11.811,11.811,0,0,0,7.481,2.675,11.626,11.626,0,0,0-11.5-9.532A11.813,11.813,0,0,0,229.087,181.267Z" transform="translate(-224.74 -126.961)" fill="url(#linear-gradient-7)"/>
        <path id="パス_607" data-name="パス 607" d="M241.269,175.387a9.193,9.193,0,0,1-3.488,5.108,9.052,9.052,0,0,1,2.88-11.264A9.2,9.2,0,0,1,241.269,175.387Z" transform="translate(-225.526 -126.617)" fill="url(#linear-gradient-8)"/>
        <path id="パス_608" data-name="パス 608" d="M226.513,167.117a11.813,11.813,0,0,0,6.289,4.857,11.625,11.625,0,0,0-7.99-12.618A11.809,11.809,0,0,0,226.513,167.117Z" transform="translate(-224.717 -125.961)" fill="url(#linear-gradient-9)"/>
        <path id="パス_609" data-name="パス 609" d="M239.729,165.374a9.185,9.185,0,0,1-4.9,3.78,9.05,9.05,0,0,1,6.22-9.821A9.2,9.2,0,0,1,239.729,165.374Z" transform="translate(-225.384 -125.959)" fill="url(#linear-gradient-10)"/>
        <ellipse id="楕円形_3" data-name="楕円形 3" cx="2.715" cy="7.467" rx="2.715" ry="7.467" transform="translate(1.584 20.63) rotate(-14.344)" fill="url(#linear-gradient-11)"/>
        <path id="パス_610" data-name="パス 610" d="M241.342,155.43a9.2,9.2,0,0,1-5.824,2.083,9.048,9.048,0,0,1,8.951-7.42A9.192,9.192,0,0,1,241.342,155.43Z" transform="translate(-225.435 -125.345)" fill="url(#linear-gradient-12)"/>
        <path id="パス_611" data-name="パス 611" d="M234.462,139.914a11.807,11.807,0,0,0,2.234,7.625,11.625,11.625,0,0,0,.952-14.9A11.812,11.812,0,0,0,234.462,139.914Z" transform="translate(-225.363 -124.184)" fill="url(#linear-gradient-13)"/>
        <path id="パス_612" data-name="パス 612" d="M246,146.5a9.194,9.194,0,0,1-6.183.181,9.049,9.049,0,0,1,10.805-4.29A9.2,9.2,0,0,1,246,146.5Z" transform="translate(-225.72 -124.802)" fill="url(#linear-gradient-14)"/>
        <path id="パス_613" data-name="パス 613" d="M244.2,129.52a11.814,11.814,0,0,0-.232,7.942,11.625,11.625,0,0,0,5.512-13.88A11.809,11.809,0,0,0,244.2,129.52Z" transform="translate(-225.958 -123.582)" fill="url(#linear-gradient-15)"/>
        <path id="パス_614" data-name="パス 614" d="M253.242,139.419a9.189,9.189,0,0,1-5.935-1.739,9.05,9.05,0,0,1,11.6-.741A9.194,9.194,0,0,1,253.242,139.419Z" transform="translate(-226.219 -124.353)" fill="url(#linear-gradient-16)"/>
        <path id="パス_615" data-name="パス 615" d="M257.338,125.415a11.813,11.813,0,0,0-5.3,5.924,11.625,11.625,0,0,0,13.16-7.064A11.816,11.816,0,0,0,257.338,125.415Z" transform="translate(-226.534 -123.613)" fill="url(#linear-gradient-17)"/>
        <path id="パス_616" data-name="パス 616" d="M275.178,214.8A27.846,27.846,0,0,0,265.1,204.785c-2.086-1.181-4.375-2.106-6.632-3.225a66.023,66.023,0,0,1-6.555-3.69,47.166,47.166,0,0,1-11.285-9.961c-.416-.474-.763-1.006-1.145-1.508s-.734-1.028-1.07-1.564a28.053,28.053,0,0,1-1.893-3.287,36.326,36.326,0,0,1-2.543-7.095,39.782,39.782,0,0,1,3.4-29.162,38.965,38.965,0,0,1,9.562-11.479,43.277,43.277,0,0,1,6.184-4.241,42.174,42.174,0,0,1,6.808-3.145l.311.873c-9.175,3.345-17.386,9.794-22.053,18.438a37.242,37.242,0,0,0-4.376,13.91,38.826,38.826,0,0,0-.148,7.327,31.518,31.518,0,0,0,1.3,7.2,37.35,37.35,0,0,0,6.832,12.776,45.548,45.548,0,0,0,11.048,9.446,64.321,64.321,0,0,0,6.439,3.494c2.184,1.074,4.5,2,6.735,3.253a28.855,28.855,0,0,1,10.752,10.7Z" transform="translate(-225.243 -123.771)" fill="url(#linear-gradient-18)"/>
      </g>
      <g id="グループ_2479" data-name="グループ 2479" transform="translate(2660.144 243.576)">
        <path id="パス_600-2" data-name="パス 600" d="M256.193,210.628a11.805,11.805,0,0,1-7.429-2.819,11.626,11.626,0,0,1,14.933.208A11.807,11.807,0,0,1,256.193,210.628Z" transform="translate(-234.618 -129.008)" fill="url(#linear-gradient-19)"/>
        <path id="パス_601-2" data-name="パス 601" d="M258.113,198.278a9.19,9.19,0,0,0-.66,6.149,9.05,9.05,0,0,0,5.117-10.439A9.192,9.192,0,0,0,258.113,198.278Z" transform="translate(-241.618 -128.263)" fill="url(#linear-gradient-20)"/>
        <path id="パス_602-2" data-name="パス 602" d="M245.538,204.2a11.815,11.815,0,0,1-7.626-2.233,11.624,11.624,0,0,1,14.9-.953A11.811,11.811,0,0,1,245.538,204.2Z" transform="translate(-213.606 -128.58)" fill="url(#linear-gradient-21)"/>
        <path id="パス_603-2" data-name="パス 603" d="M249.116,191.793a9.2,9.2,0,0,0,.377,6.173,9.05,9.05,0,0,0,3.3-11.148A9.2,9.2,0,0,0,249.116,191.793Z" transform="translate(-224.444 -127.786)" fill="url(#linear-gradient-22)"/>
        <path id="パス_604-2" data-name="パス 604" d="M237.9,193.889a11.812,11.812,0,0,1-7.942.231,11.627,11.627,0,0,1,13.881-5.511A11.817,11.817,0,0,1,237.9,193.889Z" transform="translate(-197.21 -127.867)" fill="url(#linear-gradient-23)"/>
        <path id="パス_605-2" data-name="パス 605" d="M241.58,184.49a9.2,9.2,0,0,0,1.739,5.935,9.048,9.048,0,0,0,.741-11.6A9.2,9.2,0,0,0,241.58,184.49Z" transform="translate(-210.014 -127.255)" fill="url(#linear-gradient-24)"/>
        <path id="パス_606-2" data-name="パス 606" d="M232.551,181.267a11.811,11.811,0,0,1-7.481,2.675,11.626,11.626,0,0,1,11.5-9.532A11.813,11.813,0,0,1,232.551,181.267Z" transform="translate(-185.37 -126.961)" fill="url(#linear-gradient-25)"/>
        <path id="パス_607-2" data-name="パス 607" d="M237.173,175.387a9.193,9.193,0,0,0,3.488,5.108,9.052,9.052,0,0,0-2.88-11.264A9.2,9.2,0,0,0,237.173,175.387Z" transform="translate(-201.387 -126.617)" fill="url(#linear-gradient-26)"/>
        <path id="パス_608-2" data-name="パス 608" d="M231.1,167.117a11.813,11.813,0,0,1-6.289,4.857,11.625,11.625,0,0,1,7.99-12.618A11.809,11.809,0,0,1,231.1,167.117Z" transform="translate(-181.37 -125.961)" fill="url(#linear-gradient-27)"/>
        <path id="パス_609-2" data-name="パス 609" d="M236.158,165.374a9.185,9.185,0,0,0,4.9,3.78,9.05,9.05,0,0,0-6.22-9.821A9.2,9.2,0,0,0,236.158,165.374Z" transform="translate(-198.975 -125.959)" fill="url(#linear-gradient-28)"/>
        <ellipse id="楕円形_3-2" data-name="楕円形 3" cx="2.715" cy="7.467" rx="2.715" ry="7.467" transform="translate(46.244 35.1) rotate(-165.656)" fill="url(#linear-gradient-29)"/>
        <path id="パス_610-2" data-name="パス 610" d="M238.644,155.43a9.2,9.2,0,0,0,5.824,2.083,9.048,9.048,0,0,0-8.951-7.42A9.192,9.192,0,0,0,238.644,155.43Z" transform="translate(-203.023 -125.345)" fill="url(#linear-gradient-30)"/>
        <path id="パス_611-2" data-name="パス 611" d="M239.882,139.914a11.807,11.807,0,0,1-2.234,7.625,11.625,11.625,0,0,1-.952-14.9A11.812,11.812,0,0,1,239.882,139.914Z" transform="translate(-197.453 -124.184)" fill="url(#linear-gradient-31)"/>
        <path id="パス_612-2" data-name="パス 612" d="M244.437,146.5a9.194,9.194,0,0,0,6.183.181,9.049,9.049,0,0,0-10.805-4.29A9.2,9.2,0,0,0,244.437,146.5Z" transform="translate(-213.185 -124.802)" fill="url(#linear-gradient-32)"/>
        <path id="パス_613-2" data-name="パス 613" d="M249.243,129.52a11.814,11.814,0,0,1,.232,7.942,11.625,11.625,0,0,1-5.512-13.88A11.809,11.809,0,0,1,249.243,129.52Z" transform="translate(-215.952 -123.582)" fill="url(#linear-gradient-33)"/>
        <path id="パス_614-2" data-name="パス 614" d="M252.973,139.419a9.189,9.189,0,0,0,5.935-1.739,9.05,9.05,0,0,0-11.6-.741A9.194,9.194,0,0,0,252.973,139.419Z" transform="translate(-228.468 -124.353)" fill="url(#linear-gradient-34)"/>
        <path id="パス_615-2" data-name="パス 615" d="M259.906,125.415a11.814,11.814,0,0,1,5.3,5.924,11.625,11.625,0,0,1-13.16-7.064A11.816,11.816,0,0,1,259.906,125.415Z" transform="translate(-239.182 -123.613)" fill="url(#linear-gradient-35)"/>
        <path id="パス_616-2" data-name="パス 616" d="M234.226,214.8A27.846,27.846,0,0,1,244.3,204.785c2.086-1.181,4.375-2.106,6.632-3.225a66.021,66.021,0,0,0,6.555-3.69,47.166,47.166,0,0,0,11.285-9.961c.416-.474.763-1.006,1.145-1.508s.734-1.028,1.07-1.564a28.053,28.053,0,0,0,1.893-3.287,36.326,36.326,0,0,0,2.543-7.095,39.781,39.781,0,0,0-3.4-29.162,38.965,38.965,0,0,0-9.562-11.479,43.276,43.276,0,0,0-6.185-4.241,42.173,42.173,0,0,0-6.808-3.145l-.311.873c9.175,3.345,17.386,9.794,22.053,18.438a37.242,37.242,0,0,1,4.376,13.91,38.827,38.827,0,0,1,.148,7.327,31.518,31.518,0,0,1-1.3,7.2,37.35,37.35,0,0,1-6.832,12.776A45.549,45.549,0,0,1,256.56,196.4a64.321,64.321,0,0,1-6.439,3.494c-2.184,1.074-4.5,2-6.735,3.253a28.855,28.855,0,0,0-10.752,10.7Z" transform="translate(-232.633 -123.771)" fill="url(#linear-gradient-36)"/>
      </g>
      <path id="パス_4856" data-name="パス 4856" d="M-87.84-11.64a12.519,12.519,0,0,1-.5,1.3h-3.4l.24-.04a8.474,8.474,0,0,0-.52-1.26Zm6.9,9.08V-4.92h-7.64v-.56h5.88V-7.54h-5.88V-8.1h6.78v-2.24h-3.6c.24-.4.5-.84.78-1.3H-81V-14h-2.3c.44-.64.94-1.44,1.46-2.3L-84.9-17a16.235,16.235,0,0,1-1.12,2.82l.6.18h-1.32v-3.12h-2.74V-14h-.96v-3.12h-2.7V-14h-1.44l.9-.32a15.126,15.126,0,0,0-1.42-2.76l-2.5.84A20.891,20.891,0,0,1-96.52-14h-2.4v2.36h3.84a12.466,12.466,0,0,1,.48,1.3h-3.5V-8.1h6.64v.56h-5.66v2.06h5.66v.56h-7.5v2.36h5.12A20.857,20.857,0,0,1-99.62-.7a13.235,13.235,0,0,1,1.86,2.42,19.1,19.1,0,0,0,6.3-2.9V1.9h2.88V-1.28a15.849,15.849,0,0,0,6.26,3A12.745,12.745,0,0,1-80.36-.92a19.453,19.453,0,0,1-5.7-1.64Zm6.6-8.36h2.88v1.04h-2.88Zm0-3.16h2.88v1.02h-2.88Zm8.72,1.02h-2.9v-1.02h2.9Zm-2.9,3.18v-1.04h2.9v1.04Zm5.94,2.32V-16.4H-77.24v8.84h2.68a14.542,14.542,0,0,1-4.92,2.44,13.535,13.535,0,0,1,1.92,2.38,14.946,14.946,0,0,0,3.24-1.64v.36c0,1.18-.44,2.74-3.68,3.7a10.529,10.529,0,0,1,1.98,2.36c4.08-1.4,4.7-4.02,4.7-5.94V-5.36H-73a13.764,13.764,0,0,0,2.12-2.2h1.94A13.29,13.29,0,0,0-66.82-5.3h-1.56V1.82h3.04V-4.22a12.92,12.92,0,0,0,3,1.42A11.682,11.682,0,0,1-60.4-5.28a13.635,13.635,0,0,1-5.02-2.28Zm16.32-6.6H-53.9v-.48h7.64Zm0,2.2H-53.9v-.5h7.64Zm2.92-4.5H-56.68v6.32h13.34ZM-45.02-4.72a8.05,8.05,0,0,1-.92,1.4,7.359,7.359,0,0,1-.98-1.4ZM-54.9-1.78v-.64h2.06v.52Zm0-3.14h2.06v.54H-54.9Zm2.06-2.44v.48H-54.9v-.48Zm9.5.38-.48.08H-49.7v2.18h1.86l-1.52.42a12.438,12.438,0,0,0,1.62,2.64A9.5,9.5,0,0,1-50.06-.44V-7.36H-41V-9.64H-59.02v2.28h1.48v5.72c-.6.04-1.16.06-1.66.08l.18,2.48c1.74-.14,3.96-.3,6.18-.46V1.9h2.78V.08a10.4,10.4,0,0,1,1.2,1.86A13.289,13.289,0,0,0-45.76.22a11.219,11.219,0,0,0,3.48,1.66,9.852,9.852,0,0,1,1.7-2.26,11.3,11.3,0,0,1-3.26-1.26,12.359,12.359,0,0,0,2.3-4.68Zm14.62,5.44h-2.66v-.84h2.66Zm6.98-5.82H-38.1V1.92h2.84v-6.9h10.6V-1.1c0,.22-.1.28-.36.28a10.741,10.741,0,0,1-1.16,0V-4.28h-7.7v5.5h2.5V.36h4.98a8.431,8.431,0,0,1,.38,1.52,6.927,6.927,0,0,0,3.2-.48c.84-.42,1.08-1.18,1.08-2.44Zm-5.66-2.5h-5.42v-.8h5.42Zm2.94-2.68H-35.58v4.58h11.12Zm-4.18-3.04v-1.56h-3v1.56h-7.2v2.46h17.66v-2.46Zm16.22,8.02c-.7,2.3-1.3,3.5-2.1,3.5-.68,0-1.28-.9-1.28-2.62a5.9,5.9,0,0,1,4.4-5.36A28.881,28.881,0,0,1-12.42-7.56ZM-8.94,1C-3.78.14-1.32-2.92-1.32-7.08c0-4.5-3.2-7.98-8.24-7.98-5.3,0-9.36,4-9.36,8.7,0,3.38,1.88,6.04,4.32,6.04,2.34,0,4.12-2.66,5.3-6.62A41.431,41.431,0,0,0-8.14-12.1c2.28.54,3.52,2.36,3.52,4.92A5.017,5.017,0,0,1-8.82-2.2a14.221,14.221,0,0,1-1.94.36ZM17.74.6c-.06-.78-.1-1.92-.1-2.6V-12.38c0-.66.04-1.54.06-2.02-.3.02-1.26.06-1.9.06H5.6c-.72,0-1.84-.06-2.64-.14v3.36c.62-.04,1.74-.08,2.64-.08h8.66v7.6H5.36c-.94,0-1.86-.06-2.64-.12V-.26C3.44-.34,4.7-.4,5.46-.4h8.78l-.02,1ZM35.08-15.12a8.462,8.462,0,0,1-2.4.3H26a23.74,23.74,0,0,1-2.56-.16v3.44c.56-.04,1.66-.16,2.56-.16h6.22a14.666,14.666,0,0,1-2.8,4.52,22.3,22.3,0,0,1-8.18,5.62l2.52,2.62A26.8,26.8,0,0,0,31.1-4.4a39.708,39.708,0,0,1,4.78,5.48l2.78-2.42a53.284,53.284,0,0,0-5.44-5.58,31,31,0,0,0,3.02-5.28,11.206,11.206,0,0,1,.82-1.46ZM57.62-7.66a66.124,66.124,0,0,0-8.26-3.02v-2.74a23.779,23.779,0,0,1,.2-2.6H45.78a13.972,13.972,0,0,1,.24,2.6V-2a22.453,22.453,0,0,1-.24,3.02h3.8c-.1-.9-.22-2.48-.22-3.02V-7.14a62.374,62.374,0,0,1,6.88,2.86Zm6.62-4.1v-1.18H75.62v1.18H71.34v-.84H68.4v.84Zm14.6,8.9v-2.5h-7.6a6.837,6.837,0,0,0,.08-.9H76.5V-8.58H71.34v-.86h5.64v-1.48h1.66v-4.54H71.48v-1.6h-3v1.6H61.36v4.54H63.2v1.48h5.2v.86H63.52v2.32h4.86a4.632,4.632,0,0,1-.12.9H61.28v2.5H66.8c-1.12.98-2.98,1.82-6,2.42A10.956,10.956,0,0,1,62.6,1.9c3.8-.96,6.04-2.36,7.3-4.02C71.48.14,73.74,1.4,77.44,1.96a10.451,10.451,0,0,1,1.7-2.54c-2.94-.26-5.02-1-6.42-2.28Zm9.1-2.56c-.72.2-1.46.4-2.18.58v-2.8h1.88V-10.3H85.76v-3.06h2.1v-2.68H80.74v2.68h2.22v3.06H80.88v2.66h2.08V-4.1c-1.02.24-1.98.48-2.76.64l.72,2.74c2.14-.62,4.88-1.4,7.4-2.16Zm3.32-2.7h4.52v.78H91.26Zm0-2.98h4.52v.8H91.26Zm0-2.96h4.52v.8H91.26Zm5.3,13.4c-.24,0-.28-.06-.28-.7V-4.98h2.34V-16.4H88.56V-4.98h1.3c-.24,2.24-.72,3.74-4.42,4.62a8.192,8.192,0,0,1,1.58,2.4C91.54.7,92.4-1.68,92.7-4.98h.8v3.64c0,2.34.44,3.16,2.52,3.16H97.3c1.6,0,2.26-.82,2.5-3.72a7.552,7.552,0,0,1-2.42-1.06c-.04,1.98-.12,2.3-.4,2.3Z" transform="translate(2539 326)" fill="#fff"/>
      <path id="パス_4854" data-name="パス 4854" d="M-85.5-13.38h-1.46v-.54h1.46Zm0,2.3h-1.46v-.56h1.46Zm-9.36-.56h1.48v.56h-1.48Zm0-2.28h1.48v.54h-1.48Zm5.44,2.28v.56h-1.52v-.56Zm0-2.28v.54h-1.52v-.54Zm6.72-1.86h-4.26V-17.1h-2.46v1.32h-1.52V-17.1h-2.44v1.32h-4.14v6.56H-82.7Zm1.5,7.04H-98.76v2H-81.2Zm-6.7,6.82a14.634,14.634,0,0,1-.78,1.4l.18.06h-3.36l.36-.12a7.984,7.984,0,0,0-.64-1.34Zm-5.9-2.54h7.4v.74h-7.4Zm7.92,4c.26-.4.54-.86.84-1.36l-.3-.1h1.94V-6.26H-96.62v4.34h2l-.42.12a9.345,9.345,0,0,1,.68,1.34h-4.56V1.68h17.84V-.46ZM-71.52-3.6v.62h-3.04V-3.6Zm6,.62h-3.16V-3.6h3.16ZM-68.68-.54v-.68h3.16v.68Zm-5.88,0v-.68h3.04v.68Zm-2.74,2.4h2.74V1.52h9.04v.34h2.88V-5.66H-77.3ZM-73.26-8.7h6.38v.68h-6.38ZM-75.9-6.2h11.84v-4.34H-75.9Zm.6-6.78v1.9h10.54v-1.9Zm6.74-3.06V-17.1h-3v1.06h-7.08v4.72h2.76v-2.3H-64.2v2.3h2.9v-4.72Zm27.64,4.88a39.537,39.537,0,0,0-5.04-2.72L-47.5-11.5a28.343,28.343,0,0,1,4.88,2.86Zm-7.64-3.08c-.66.2-1.5.4-2.42.58.28-1,.5-1.9.64-2.52l-3.28-.32a15.745,15.745,0,0,1-.5,3.24c-.52.04-1.02.06-1.54.06-.66,0-1.84-.04-2.76-.14l.22,2.76c.92.06,1.72.08,2.56.08.2,0,.42,0,.64-.02a30.907,30.907,0,0,1-3.94,6.78l2.9,1.46a36.733,36.733,0,0,0,4.2-8.52,31.546,31.546,0,0,0,3.36-.68Zm.16,11.02c0,1.1-.36,1.8-1.54,1.8-.84,0-1.38-.44-1.38-1.08,0-.56.6-.96,1.58-.96a7.24,7.24,0,0,1,1.34.14Zm-.32-6.76c.06,1.12.14,2.74.22,4.16a8.811,8.811,0,0,0-1.04-.06c-3.06,0-4.62,1.7-4.62,3.68,0,2.3,2.04,3.52,4.66,3.52,2.92,0,3.96-1.42,4.02-3.32A21.01,21.01,0,0,1-43.08.02l1.58-2.58a12.78,12.78,0,0,0-4.1-2.58c-.04-.82-.08-1.6-.1-2.06-.02-.98-.06-1.92,0-2.78Zm25.82-3.8a1.067,1.067,0,0,1-1.06-1.06A1.067,1.067,0,0,1-22.9-15.9a1.067,1.067,0,0,1,1.06,1.06A1.067,1.067,0,0,1-22.9-13.78Zm-12.72-.7c-.66,0-1.98-.1-2.6-.18v3.42c.52-.04,1.62-.1,2.6-.1h8.8a11.235,11.235,0,0,1-2.2,5.16,13.088,13.088,0,0,1-7.86,4.62l2.64,2.9A16.4,16.4,0,0,0-26.1-4.28a21.073,21.073,0,0,0,3.02-7.24c.06-.24.14-.54.24-.84a2.508,2.508,0,0,0,2.42-2.48,2.492,2.492,0,0,0-2.48-2.48,2.492,2.492,0,0,0-2.48,2.48,1.14,1.14,0,0,0,.02.26,10.424,10.424,0,0,1-1.44.1Zm31.86,3.66a4.659,4.659,0,0,1-1.68.24h-9.52c-.68,0-1.62-.06-2.54-.14V-7.6c.9-.08,2.04-.1,2.54-.1h9.1A7.853,7.853,0,0,1-7.72-4.8,13.71,13.71,0,0,1-14.6-1.38l2.42,2.74A15.316,15.316,0,0,0-5.04-3.06,15.428,15.428,0,0,0-2.06-8.52a7.768,7.768,0,0,1,.44-.96Zm-11.86-1.66c.6-.06,1.56-.08,2.24-.08h7.54c.76,0,1.84.04,2.4.08V-15.6a22.45,22.45,0,0,1-2.36.12h-7.58a19.174,19.174,0,0,1-2.24-.12Zm20.6-3.04-2.3,2.46A41.685,41.685,0,0,1,7.7-8.68l2.48-2.54A40.353,40.353,0,0,0,4.98-15.52ZM2.02-2.24,4.08.96a21.342,21.342,0,0,0,7.16-2.64,21.628,21.628,0,0,0,7.78-7.58l-1.88-3.42a19.326,19.326,0,0,1-7.64,8A20.581,20.581,0,0,1,2.02-2.24ZM32.8-2.98c-.02-.88-.06-2.22-.08-3.3,1.04-.46,2-.84,2.76-1.12.76-.3,2-.76,2.7-.96L37-11.12c-.84.4-1.66.78-2.52,1.16-.7.32-1.34.58-2.14.96a2.881,2.881,0,0,0-2.64-1.4,9.536,9.536,0,0,0-1.96.2,11.3,11.3,0,0,0,.76-1.4c2.12-.08,4.54-.26,6.4-.5l.02-2.78a45.483,45.483,0,0,1-5.34.56,17.381,17.381,0,0,0,.44-1.8l-3.16-.26a11.548,11.548,0,0,1-.34,2.16h-.78a25.742,25.742,0,0,1-3.56-.24v2.78c1.04.1,2.48.14,3.3.14a18.21,18.21,0,0,1-4.24,5.1L23.8-4.52a24.073,24.073,0,0,1,1.84-2.24,4.755,4.755,0,0,1,2.92-1.32,1.488,1.488,0,0,1,1.08.4c-2.2,1.16-4.56,2.82-4.56,5.4,0,2.64,2.34,3.48,5.6,3.48A53.3,53.3,0,0,0,36.4.86l.1-3.1a29.515,29.515,0,0,1-5.76.62c-1.86,0-2.48-.34-2.48-1.18,0-.8.54-1.44,1.78-2.16-.02.74-.06,1.48-.1,1.98Zm9.94-3.26a14.042,14.042,0,0,0-.38,2.92c0,2.84,2.24,4.48,7.06,4.48A32.474,32.474,0,0,0,56.38.5l-.02-3.4a30.068,30.068,0,0,1-7.06.78c-2.68,0-3.7-.84-3.7-1.96a7.987,7.987,0,0,1,.3-1.88Zm11.12-9.6a10.82,10.82,0,0,1,.76,1.28c-1.54.12-3.64.22-5.4.22a52.756,52.756,0,0,1-5.48-.24v3.2c1.64.12,3.38.22,5.5.22,1.92,0,4.54-.12,5.94-.24v-2.1l.22.44,1.9-.8c-.36-.7-1.06-2-1.56-2.74Zm2.46-.96a22.309,22.309,0,0,1,1.58,2.76l1.88-.8a28.545,28.545,0,0,0-1.58-2.72ZM71.74-6.54V-8.52H75.3v1.98Zm-6.22,0q.06-1.05.06-1.98H68.8v1.98Zm3.28-6.5v1.82H65.58v-1.82Zm6.5,1.82H71.74v-1.82H75.3Zm2.9-4.58H62.7v7.14c0,2.82-.16,6.42-2.34,8.8a11.66,11.66,0,0,1,2.3,1.88A11.357,11.357,0,0,0,65.2-3.8h3.6V1.62h2.94V-3.8H75.3v2.4c0,.34-.14.46-.5.46S73.14-.92,72.16-1a10.318,10.318,0,0,1,.92,2.78,8.909,8.909,0,0,0,3.94-.5C77.9.84,78.2.08,78.2-1.36Zm13.92,1.84c-.12.3-.26.64-.36.92l.1.02H88.2a9.839,9.839,0,0,0-.3-.94Zm6.64.94h-4.1c.2-.26.42-.58.66-.94h2.36v-2.22H91.44v-.92H88.52v.92H82.28v2.22h2.74c.1.28.2.62.3.94H81.28v2.22H98.76ZM82.64,1.54a7.9,7.9,0,0,0,2.7-4.04L82.9-3.38A6.559,6.559,0,0,1,80.38,0Zm3.4-7.72h8.04v.62H86.04Zm0-2.22h8.04v.6H86.04ZM89.42-.62c-.86,0-1.02-.06-1.02-.62V-2.6a12.529,12.529,0,0,1,2.3,1.42l1.76-1.78a11.566,11.566,0,0,0-1.48-.88h5.98v-6.28H83.3v6.28h5.1l-.82.8h-2V-1.2c0,2.18.66,2.88,3.48,2.88H92c2.02,0,2.76-.58,3.06-2.84a7.892,7.892,0,0,1-2.44-.9c-.1,1.24-.22,1.44-.9,1.44Zm4.78-1.8a16.675,16.675,0,0,1,2.96,3.84L99.58.04a16.333,16.333,0,0,0-3.12-3.7Z" transform="translate(2539 262)" fill="#fff"/>
      <path id="パス_4855" data-name="パス 4855" d="M-118.57-1.54h-2.66v-.84h2.66Zm6.98-5.82h-16.36V1.92h2.84v-6.9h10.6V-1.1c0,.22-.1.28-.36.28a10.742,10.742,0,0,1-1.16,0V-4.28h-7.7v5.5h2.5V.36h4.98a8.431,8.431,0,0,1,.38,1.52,6.928,6.928,0,0,0,3.2-.48c.84-.42,1.08-1.18,1.08-2.44Zm-5.66-2.5h-5.42v-.8h5.42Zm2.94-2.68h-11.12v4.58h11.12Zm-4.18-3.04v-1.56h-3v1.56h-7.2v2.46h17.66v-2.46Zm24.24,5.38v1.28h-1.62V-10.2Zm-5.96,0h1.52v1.28h-1.52Zm1.52-2.18h-4.18v5.62h2.9a10.8,10.8,0,0,1-4.08,2.7,11.318,11.318,0,0,1,1.84,2.2A11.606,11.606,0,0,0-98.69-4.7v3.02h2.82V-4.54A14.5,14.5,0,0,0-92.43-1.9a11.82,11.82,0,0,1,1.96-2.28,15.04,15.04,0,0,1-4.44-2.58h3.48v-5.62h-4.44v-.78h5v-2.4h-5v-1.52h-2.82v1.52h-4.7v2.4h4.7Zm-4.98-1.28a17.113,17.113,0,0,0-3.28-2.98l-2.16,1.74a15.946,15.946,0,0,1,3.12,3.16Zm-.46,4.3h-4.9v2.68h2.06v3.72a28.668,28.668,0,0,1-2.58,1.62l1.4,3.04c1.08-.86,1.92-1.58,2.74-2.3,1.32,1.54,2.9,2.04,5.28,2.14,2.5.12,6.48.08,9.02-.06a14.632,14.632,0,0,1,.92-2.96,92.94,92.94,0,0,1-9.88.22c-1.96-.08-3.32-.58-4.06-1.82Zm27.38-3.98h1.08v7.88c0,2.12.4,2.82,2.16,2.82h1.02c1.4,0,1.98-.78,2.16-3a7.064,7.064,0,0,1-2.1-.92c-.04,1.52-.1,1.92-.3,1.92h-.22c-.16,0-.18-.08-.18-.82v-10.3h-6.28v3.6c0,2.4-.12,5.9-1.7,8.32a11.222,11.222,0,0,1,2.34,1.46c1.72-2.68,2.02-6.92,2.02-9.76Zm-6.58,1.82a26.926,26.926,0,0,1-.82,4.62,19.048,19.048,0,0,1-1.14-3.38c.1-.4.2-.82.3-1.24Zm1.1-2.48-.5.06h-1.82c.14-.9.26-1.82.36-2.74l-2.88-.36c-.32,3.92-1.04,7.78-2.56,10.08a17.176,17.176,0,0,1,2.16,2.2,12.1,12.1,0,0,0,.92-1.76,16.793,16.793,0,0,0,1.2,2.68,8.256,8.256,0,0,1-3.5,3.52,11.564,11.564,0,0,1,1.74,2.38,11.472,11.472,0,0,0,3.58-3.42c2.28,2.3,5.16,2.94,8.48,2.94h3.8a10.469,10.469,0,0,1,1.04-2.8c-1.08.04-3.76.04-4.7.04-2.82-.02-5.34-.56-7.32-2.7a30.2,30.2,0,0,0,1.74-9.86Zm19.62,9.22c-.6.2-1.22.38-1.82.58V-7.66h1.68v-2.66h-1.68v-3.06h2.04v-2.68h-6.86v2.68h2.06v3.06h-1.88v2.66h1.88v4.28c-.86.24-1.64.46-2.3.62L-68.85.2c2-.64,4.48-1.44,6.74-2.22Zm3.46-5.62h1.5v1.22h-1.5Zm0-3.46h1.5v1.2h-1.5Zm5.28,1.2h-1.36v-1.2h1.36Zm0,3.48h-1.36V-10.4h1.36Zm-1.08,7.84V-2.78h4.02v-2.6h-4.02V-6.74h3.84V-16.3H-61.77v9.56h3.84v1.36h-3.9v2.6h3.9v1.44h-5.22V1.28h12.88V-1.34Zm24.78-13.48a28.546,28.546,0,0,0-1.58-2.72l-1.88.76a22.309,22.309,0,0,1,1.58,2.76Zm-13.8-1.22a19.884,19.884,0,0,1-.38,4.14c-.88.06-1.7.12-2.28.14a22.056,22.056,0,0,1-2.3,0l.26,3.22c.66-.12,1.8-.28,2.44-.36.28-.04.72-.1,1.24-.18a28.79,28.79,0,0,1-3.9,8.94l3.14,1.26c1.68-2.72,3.16-7.48,3.96-10.56.36-.02.7-.04.92-.04,1.24,0,1.84.18,1.84,1.62a14.133,14.133,0,0,1-.74,5.08,1.343,1.343,0,0,1-1.34.76,12.569,12.569,0,0,1-2.42-.42l.52,3.16a11.762,11.762,0,0,0,2.4.28A3.391,3.391,0,0,0-37.15-.92c.84-1.76,1.1-4.94,1.1-7.26,0-2.96-1.5-4.04-3.78-4.04-.36,0-.82.02-1.34.06.12-.52.24-1.06.34-1.6.12-.56.28-1.3.42-1.9Zm11.32,2.2c-.36-.7-1.06-2-1.56-2.74l-1.88.76a25.741,25.741,0,0,1,1.36,2.44l-1.74.72A21.883,21.883,0,0,1-33.23-5l3.06-1.42a36.4,36.4,0,0,0-3.2-7.12Zm11.26,5.58v2.44h-3.02V-8.26Zm2.88,5.2v-7.96h-8.72v9.46h2.82v-1.5Zm7.82-12.74H-28.97v2.94h12.98V-1.68c0,.42-.18.56-.66.56s-2.3.02-3.64-.08a11.92,11.92,0,0,1,1.22,3.08,12,12,0,0,0,4.7-.56c1.06-.46,1.44-1.3,1.44-2.94V-12.86h2.24ZM1.07-11.02c.06,2.32.72,3.08,3.22,3.08H6.65c2,0,2.76-.76,3.06-3.44a7.694,7.694,0,0,1-2.56-1.06c-.08,1.64-.2,1.92-.78,1.92H4.73c-.66,0-.76-.08-.76-.82v-.72a32.587,32.587,0,0,0,4.84-1.82l-1.82-2.1a24.893,24.893,0,0,1-3.02,1.52V-17H1.07v5.9a20.061,20.061,0,0,0-2.26-4.7l-2.48.92c.26.44.5.92.74,1.4l-1.88.08c.46-1,.92-2.12,1.34-3.22l-3.04-.62a26.015,26.015,0,0,1-1.28,3.96q-.84.03-1.56.06l.22,2.74,7.26-.5a8.624,8.624,0,0,1,.28,1ZM-5.49-3.88v-.78h2.28v.78Zm2.28-3.58v.68H-5.49v-.68ZM-.33-9.82H-8.17V1.88h2.68V-1.76h2.28v.78c0,.24-.08.3-.32.3A14.564,14.564,0,0,1-5.11-.7a10.581,10.581,0,0,1,.92,2.56,5.7,5.7,0,0,0,2.88-.48C-.55.96-.33.26-.33-.92ZM4.75-.74c-.68,0-.8-.08-.8-.84V-2.76A34.1,34.1,0,0,0,8.99-4.82L7.09-6.94a21.53,21.53,0,0,1-3.14,1.7V-7.62H1.07v6.06c0,2.52.64,3.34,3.22,3.34H6.73c2.06,0,2.8-.84,3.1-3.74A8.22,8.22,0,0,1,7.29-3.02C7.19-1.1,7.07-.74,6.45-.74ZM29.23-11.16a39.537,39.537,0,0,0-5.04-2.72L22.65-11.5a28.343,28.343,0,0,1,4.88,2.86Zm-7.64-3.08c-.66.2-1.5.4-2.42.58.28-1,.5-1.9.64-2.52l-3.28-.32a15.745,15.745,0,0,1-.5,3.24c-.52.04-1.02.06-1.54.06-.66,0-1.84-.04-2.76-.14l.22,2.76c.92.06,1.72.08,2.56.08.2,0,.42,0,.64-.02a30.907,30.907,0,0,1-3.94,6.78l2.9,1.46a36.733,36.733,0,0,0,4.2-8.52,31.546,31.546,0,0,0,3.36-.68Zm.16,11.02c0,1.1-.36,1.8-1.54,1.8-.84,0-1.38-.44-1.38-1.08,0-.56.6-.96,1.58-.96a7.24,7.24,0,0,1,1.34.14Zm-.32-6.76c.06,1.12.14,2.74.22,4.16a8.811,8.811,0,0,0-1.04-.06c-3.06,0-4.62,1.7-4.62,3.68,0,2.3,2.04,3.52,4.66,3.52,2.92,0,3.96-1.42,4.02-3.32A21.01,21.01,0,0,1,27.07.02l1.58-2.58a12.78,12.78,0,0,0-4.1-2.58c-.04-.82-.08-1.6-.1-2.06-.02-.98-.06-1.92,0-2.78ZM36.49.28c3.6,0,5.68-2.18,5.68-4.66a4.114,4.114,0,0,0-2.94-4.08L37.37-9.2c-1.32-.52-2.26-.84-2.26-1.66,0-.8.68-1.24,1.78-1.24a4.84,4.84,0,0,1,3.06,1.14l1.78-2.24a6.925,6.925,0,0,0-4.84-1.96c-3.16,0-5.4,2-5.4,4.5a4.358,4.358,0,0,0,3.02,4.08l1.9.8c1.28.54,2.1.82,2.1,1.68,0,.8-.62,1.3-1.94,1.3a6.017,6.017,0,0,1-3.62-1.52L30.93-1.86A8.328,8.328,0,0,0,36.49.28Zm12.34,0c3.6,0,5.68-2.18,5.68-4.66a4.114,4.114,0,0,0-2.94-4.08L49.71-9.2c-1.32-.52-2.26-.84-2.26-1.66,0-.8.68-1.24,1.78-1.24a4.84,4.84,0,0,1,3.06,1.14l1.78-2.24a6.925,6.925,0,0,0-4.84-1.96c-3.16,0-5.4,2-5.4,4.5a4.358,4.358,0,0,0,3.02,4.08l1.9.8c1.28.54,2.1.82,2.1,1.68,0,.8-.62,1.3-1.94,1.3a6.017,6.017,0,0,1-3.62-1.52L43.27-1.86A8.328,8.328,0,0,0,48.83.28ZM56.99,0h4.48c4.34,0,7.34-2.34,7.34-7.52s-3-7.36-7.54-7.36H56.99Zm3.58-2.88v-9.16h.48c2.4,0,4.1.98,4.1,4.52s-1.7,4.64-4.1,4.64Zm22.08-.1c-.02-.88-.06-2.22-.08-3.3,1.04-.46,2-.84,2.76-1.12.76-.3,2-.76,2.7-.96l-1.18-2.76c-.84.4-1.66.78-2.52,1.16-.7.32-1.34.58-2.14.96a2.881,2.881,0,0,0-2.64-1.4,9.536,9.536,0,0,0-1.96.2,11.3,11.3,0,0,0,.76-1.4c2.12-.08,4.54-.26,6.4-.5l.02-2.78a45.483,45.483,0,0,1-5.34.56,17.379,17.379,0,0,0,.44-1.8l-3.16-.26a11.548,11.548,0,0,1-.34,2.16h-.78a25.742,25.742,0,0,1-3.56-.24v2.78c1.04.1,2.48.14,3.3.14a18.21,18.21,0,0,1-4.24,5.1l2.56,1.92a24.073,24.073,0,0,1,1.84-2.24,4.755,4.755,0,0,1,2.92-1.32,1.488,1.488,0,0,1,1.08.4c-2.2,1.16-4.56,2.82-4.56,5.4,0,2.64,2.34,3.48,5.6,3.48A53.3,53.3,0,0,0,86.25.86l.1-3.1a29.515,29.515,0,0,1-5.76.62c-1.86,0-2.48-.34-2.48-1.18,0-.8.54-1.44,1.78-2.16-.02.74-.06,1.48-.1,1.98Zm22.26.72V-.98h-4.26V-2.26ZM98.05,1.9h2.6V1.28h4.26v.56h2.72V-4.52H98.05Zm3.06-9.66a11.322,11.322,0,0,0,1.62-1.92,13.387,13.387,0,0,0,1.72,1.92Zm3.06-5.22v1.12l-.22-.3h-2.36v-.82Zm2.74,1.56v-1.56h2.12v-2.44h-2.12V-17.1h-2.74v1.68h-2.58V-17.1H98.91v1.68H96.87v2.44h2.04v1.46h2a13.556,13.556,0,0,1-3.98,3.66L96.75-9.1l-1.2.32v-2h1.3v-2.66h-1.3v-3.64H92.77v3.64H90.63v2.66h2.14v2.7c-.96.22-1.86.44-2.58.58l.6,2.82,1.98-.56V-1.3c0,.28-.1.38-.36.38s-1.06,0-1.78-.04a11.031,11.031,0,0,1,.8,2.84,5.911,5.911,0,0,0,3.18-.58c.74-.46.94-1.22.94-2.58V-6.06l.92-.28a11.385,11.385,0,0,1,.7,1.4,13.688,13.688,0,0,0,2.56-1.6V-5.5h6.14V-6.6a13.428,13.428,0,0,0,2.22,1.38,13.918,13.918,0,0,1,1.5-2.54,12.107,12.107,0,0,1-5.06-3.66Zm13.7,9.62h-3.38v-.58h3.28v-5h-3.24v-.58h3.42v-2h-3.42v-.62h4.06a43.245,43.245,0,0,0,.98,7.56,15.72,15.72,0,0,1-1.7,1.56Zm-7.08-2.44h1.4v.52h-1.4Zm0-1.8h1.4v.52h-1.4Zm3.48.52v-.52h1.4v.52Zm0,1.8v-.52h1.4v.52Zm9.02-6.12a18.808,18.808,0,0,1-1.46,3.6c-.18-1.3-.32-2.78-.4-4.34h4.88v-2.36h-2.22l2.08-1.42a20.467,20.467,0,0,0-2.38-2.76l-2.14,1.4a19.454,19.454,0,0,1,2.16,2.78h-2.46c-.04-1.36-.02-2.76.02-4.14h-2.92c0,1.38.02,2.78.04,4.14h-3.86v-.76h2.96v-2.18h-2.96v-1.2h-2.76v1.2h-3.02v2.18h3.02v.76h-3.94v2.36h4v.62h-3.44v2h3.44v.58h-3.14v5h3.18v.58h-3.74V.26h3.74V1.92h2.52V.26h2.12a8.443,8.443,0,0,1,1.36,1.7,19.64,19.64,0,0,0,2.66-2.12,3.263,3.263,0,0,0,2.84,2.06c1.94,0,2.8-.84,3.18-4.48a7.035,7.035,0,0,1-2.28-1.56c-.1,2.24-.28,3.22-.64,3.22-.4,0-.78-.56-1.12-1.54a22.579,22.579,0,0,0,3.24-6.6Z" transform="translate(2538 295)" fill="#fff"/>
    </g>
  </g>
</svg>
