<svg xmlns="http://www.w3.org/2000/svg" xmlns:xlink="http://www.w3.org/1999/xlink" width="543.153" height="176.773" viewBox="0 0 543.153 176.773"><defs><linearGradient id="a" x1="-4.145" y1="-11.128" x2="1.106" y2="2.017" gradientUnits="objectBoundingBox"><stop offset="0" stop-color="#b67239"/><stop offset="0.227" stop-color="#fceeae"/><stop offset="0.522" stop-color="#d8a35b"/><stop offset="0.753" stop-color="#fce9a4"/><stop offset="0.827" stop-color="#f1d693"/><stop offset="0.922" stop-color="#e1bd7c"/><stop offset="1" stop-color="#c38a4f"/></linearGradient><linearGradient id="b" x1="-10.812" y1="-5.052" x2="3.126" y2="1.789" xlink:href="#a"/><linearGradient id="c" x1="-4.326" y1="-11.482" x2="0.935" y2="1.581" xlink:href="#a"/><linearGradient id="d" x1="-13.083" y1="-4.813" x2="3.296" y2="1.594" xlink:href="#a"/><linearGradient id="e" x1="-4.657" y1="-9.275" x2="0.993" y2="1.434" xlink:href="#a"/><linearGradient id="f" x1="-14.832" y1="-4.621" x2="3.596" y2="1.534" xlink:href="#a"/><linearGradient id="g" x1="-5.511" y1="-6.103" x2="1.31" y2="1.389" xlink:href="#a"/><linearGradient id="h" x1="-13.036" y1="-4.592" x2="3.82" y2="1.749" xlink:href="#a"/><linearGradient id="i" x1="-7.319" y1="-4.117" x2="2.266" y2="1.543" xlink:href="#a"/><linearGradient id="j" x1="-8.707" y1="-4.936" x2="3.607" y2="2.334" xlink:href="#a"/><linearGradient id="k" x1="-8.98" y1="-3.066" x2="4.14" y2="1.869" xlink:href="#a"/><linearGradient id="l" x1="-5.382" y1="-5.963" x2="3.379" y2="3.663" xlink:href="#a"/><linearGradient id="m" x1="-8.262" y1="-2.427" x2="6.082" y2="2.365" xlink:href="#a"/><linearGradient id="n" x1="-3.721" y1="-7.5" x2="3.537" y2="6.256" xlink:href="#a"/><linearGradient id="o" x1="-5.28" y1="-2.029" x2="6.478" y2="3.116" xlink:href="#a"/><linearGradient id="p" x1="-2.792" y1="-7.672" x2="3.967" y2="9.108" xlink:href="#a"/><linearGradient id="q" x1="-1.855" y1="-3.248" x2="4.104" y2="6.237" xlink:href="#a"/><linearGradient id="r" x1="-0.825" y1="0.007" x2="0.952" y2="0.815" xlink:href="#a"/><linearGradient id="s" x1="-3.027" y1="-8.331" x2="2.224" y2="4.815" xlink:href="#a"/><linearGradient id="t" x1="-8.47" y1="-3.904" x2="5.466" y2="2.938" xlink:href="#a"/><linearGradient id="u" x1="-2.462" y1="-6.854" x2="2.799" y2="6.208" xlink:href="#a"/><linearGradient id="v" x1="-8.435" y1="-2.995" x2="7.944" y2="3.411" xlink:href="#a"/><linearGradient id="w" x1="-2.03" y1="-4.297" x2="3.619" y2="6.412" xlink:href="#a"/><linearGradient id="x" x1="-7.809" y1="-2.276" x2="10.616" y2="3.88" xlink:href="#a"/><linearGradient id="y" x1="-1.793" y1="-2.019" x2="5.027" y2="5.473" xlink:href="#a"/><linearGradient id="z" x1="-5.636" y1="-1.808" x2="11.22" y2="4.532" xlink:href="#a"/><linearGradient id="aa" x1="-1.828" y1="-0.875" x2="7.757" y2="4.785" xlink:href="#a"/><linearGradient id="ab" x1="-3.106" y1="-1.63" x2="9.207" y2="5.641" xlink:href="#a"/><linearGradient id="ac" x1="-2.059" y1="-0.347" x2="12.381" y2="4.434" xlink:href="#a"/><linearGradient id="ad" x1="-1.642" y1="-1.853" x2="7.119" y2="7.772" xlink:href="#a"/><linearGradient id="ae" x1="-1.588" y1="-0.197" x2="12.755" y2="4.594" xlink:href="#a"/><linearGradient id="af" x1="-1.122" y1="-2.574" x2="6.135" y2="11.182" xlink:href="#a"/><linearGradient id="ag" x1="-1.276" y1="-0.277" x2="10.481" y2="4.868" xlink:href="#a"/><linearGradient id="ah" x1="-1.068" y1="-3.393" x2="5.691" y2="13.389" xlink:href="#a"/><linearGradient id="ai" x1="-0.767" y1="-1.517" x2="5.192" y2="7.968" xlink:href="#a"/><linearGradient id="aj" x1="-0.224" y1="0.068" x2="1.553" y2="0.876" xlink:href="#a"/></defs><g transform="translate(-227.144 182.594)"><g transform="translate(670.711 -181.743)"><path d="M295.4,216.166a22.816,22.816,0,0,1-14.357-5.449,22.468,22.468,0,0,1,28.861.4A22.829,22.829,0,0,1,295.4,216.166Z" transform="translate(-253.701 -58.425)" fill="url(#a)"/><path d="M284.347,202.749a17.771,17.771,0,0,0-1.277,11.886,17.494,17.494,0,0,0,9.888-20.176A17.774,17.774,0,0,0,284.347,202.749Z" transform="translate(-252.466 -67.439)" fill="url(#b)"/><path d="M306.66,209.752a22.818,22.818,0,0,1-14.736-4.317,22.467,22.467,0,0,1,28.8-1.84A22.827,22.827,0,0,1,306.66,209.752Z" transform="translate(-244.95 -63.601)" fill="url(#c)"/><path d="M292.633,196.9a17.753,17.753,0,0,0,.731,11.931,17.485,17.485,0,0,0,6.374-21.543A17.758,17.758,0,0,0,292.633,196.9Z" transform="translate(-244.95 -73.203)" fill="url(#d)"/><path d="M316.321,199.823a22.821,22.821,0,0,1-15.35.449A22.47,22.47,0,0,1,327.8,189.62,22.813,22.813,0,0,1,316.321,199.823Z" transform="translate(-237.675 -72.229)" fill="url(#e)"/><path d="M299.718,190.247a17.776,17.776,0,0,0,3.359,11.472A17.489,17.489,0,0,0,304.51,179.3,17.772,17.772,0,0,0,299.718,190.247Z" transform="translate(-238.711 -79.632)" fill="url(#f)"/><path d="M322.875,188.133a22.823,22.823,0,0,1-14.46,5.169,22.469,22.469,0,0,1,22.22-18.42A22.817,22.817,0,0,1,322.875,188.133Z" transform="translate(-231.689 -83.182)" fill="url(#g)"/><path d="M304.462,181.6a17.775,17.775,0,0,0,6.74,9.872,17.489,17.489,0,0,0-5.566-21.767A17.762,17.762,0,0,0,304.462,181.6Z" transform="translate(-235.3 -87.345)" fill="url(#h)"/><path d="M324.661,174.829a22.822,22.822,0,0,1-12.154,9.385,22.468,22.468,0,0,1,15.442-24.386A22.817,22.817,0,0,1,324.661,174.829Z" transform="translate(-228.547 -95.287)" fill="url(#i)"/><path d="M306.924,171.479a17.769,17.769,0,0,0,9.461,7.307A17.491,17.491,0,0,0,304.364,159.8,17.757,17.757,0,0,0,306.924,171.479Z" transform="translate(-235.062 -95.307)" fill="url(#j)"/><path d="M322.248,160.714a22.835,22.835,0,0,1-8.66,12.683,22.465,22.465,0,0,1,7.15-27.964A22.832,22.832,0,0,1,322.248,160.714Z" transform="translate(-229.299 -106.862)" fill="url(#k)"/><path d="M306.738,160.879a17.765,17.765,0,0,0,11.256,4.023,17.487,17.487,0,0,0-17.3-14.337A17.782,17.782,0,0,0,306.738,160.879Z" transform="translate(-237.896 -102.736)" fill="url(#l)"/><path d="M316.027,147.173a22.82,22.82,0,0,1-4.317,14.738,22.467,22.467,0,0,1-1.84-28.8A22.826,22.826,0,0,1,316.027,147.173Z" transform="translate(-234.027 -116.775)" fill="url(#m)"/><path d="M303.346,151.222a17.767,17.767,0,0,0,11.949.35,17.484,17.484,0,0,0-20.881-8.292A17.767,17.767,0,0,0,303.346,151.222Z" transform="translate(-242.948 -109.294)" fill="url(#n)"/><path d="M306.6,135.53a22.832,22.832,0,0,1,.449,15.35,22.464,22.464,0,0,1-10.652-26.826A22.83,22.83,0,0,1,306.6,135.53Z" transform="translate(-242.256 -124.054)" fill="url(#o)"/><path d="M297.018,143.843a17.778,17.778,0,0,0,11.473-3.359,17.486,17.486,0,0,0-22.424-1.434A17.772,17.772,0,0,0,297.018,143.843Z" transform="translate(-249.66 -114.726)" fill="url(#p)"/><path d="M294.86,127.167A22.831,22.831,0,0,1,305.1,138.616a22.471,22.471,0,0,1-25.431-13.65A22.815,22.815,0,0,1,294.86,127.167Z" transform="translate(-254.808 -123.683)" fill="url(#q)"/><path d="M265.887,295.854a55.766,55.766,0,0,1,20.78-20.679c4.315-2.416,8.8-4.211,13.017-6.287a124.342,124.342,0,0,0,12.447-6.753,88.089,88.089,0,0,0,21.35-18.256,72.157,72.157,0,0,0,13.2-24.691,60.81,60.81,0,0,0,2.515-13.924,74.872,74.872,0,0,0-.287-14.159,71.977,71.977,0,0,0-8.458-26.883c-9.021-16.7-24.888-29.169-42.621-35.633l.6-1.687a81.5,81.5,0,0,1,13.158,6.078,83.754,83.754,0,0,1,11.954,8.2,75.343,75.343,0,0,1,18.478,22.184c9.4,17.015,11.532,37.627,6.567,56.359a70.176,70.176,0,0,1-4.914,13.713,54.111,54.111,0,0,1-3.659,6.352c-.649,1.036-1.322,2.055-2.068,3.022s-1.409,2-2.214,2.914a91.165,91.165,0,0,1-21.81,19.25,127.62,127.62,0,0,1-12.669,7.132c-4.361,2.163-8.784,3.951-12.817,6.233a53.815,53.815,0,0,0-19.476,19.351Z" transform="translate(-265.887 -121.765)" fill="url(#r)"/></g><g transform="translate(227.144 -182.594)"><path d="M263.267,215.694a22.815,22.815,0,0,0,14.357-5.448,22.468,22.468,0,0,0-28.861.4A22.818,22.818,0,0,0,263.267,215.694Z" transform="translate(-205.379 -57.953)" fill="url(#s)"/><path d="M266.3,202.278a17.761,17.761,0,0,1,1.276,11.884,17.49,17.49,0,0,1-9.888-20.174A17.764,17.764,0,0,1,266.3,202.278Z" transform="translate(-198.598 -66.966)" fill="url(#t)"/><path d="M251.979,209.28a22.834,22.834,0,0,0,14.738-4.315,22.464,22.464,0,0,0-28.8-1.842A22.826,22.826,0,0,0,251.979,209.28Z" transform="translate(-214.106 -63.129)" fill="url(#u)"/><path d="M257.293,196.432a17.77,17.77,0,0,1-.729,11.931,17.49,17.49,0,0,1-6.376-21.545A17.772,17.772,0,0,1,257.293,196.432Z" transform="translate(-205.391 -72.732)" fill="url(#v)"/><path d="M241.439,199.353a22.828,22.828,0,0,0,15.35.447,22.471,22.471,0,0,0-26.827-10.652A22.838,22.838,0,0,0,241.439,199.353Z" transform="translate(-220.5 -71.757)" fill="url(#w)"/><path d="M249.751,189.775a17.769,17.769,0,0,1-3.361,11.471,17.486,17.486,0,0,1-1.432-22.422A17.776,17.776,0,0,1,249.751,189.775Z" transform="translate(-211.171 -79.16)" fill="url(#x)"/><path d="M232.833,187.661a22.826,22.826,0,0,0,14.458,5.171A22.468,22.468,0,0,0,225.07,174.41,22.83,22.83,0,0,0,232.833,187.661Z" transform="translate(-224.433 -82.71)" fill="url(#y)"/><path d="M245.348,181.127a17.766,17.766,0,0,1-6.74,9.872,17.493,17.493,0,0,1,5.566-21.769A17.77,17.77,0,0,1,245.348,181.127Z" transform="translate(-214.924 -86.874)" fill="url(#z)"/><path d="M228.188,174.356a22.831,22.831,0,0,0,12.154,9.387A22.468,22.468,0,0,0,224.9,159.356,22.823,22.823,0,0,0,228.188,174.356Z" transform="translate(-224.717 -94.815)" fill="url(#aa)"/><path d="M244.364,171.008a17.752,17.752,0,0,1-9.461,7.3,17.491,17.491,0,0,1,12.021-18.981A17.773,17.773,0,0,1,244.364,171.008Z" transform="translate(-216.641 -94.834)" fill="url(#ab)"/><ellipse cx="5.248" cy="14.432" rx="5.248" ry="14.432" transform="translate(3.062 39.871) rotate(-14.344)" fill="url(#ac)"/><path d="M246.774,160.407a17.78,17.78,0,0,1-11.256,4.025,17.487,17.487,0,0,1,17.3-14.339A17.765,17.765,0,0,1,246.774,160.407Z" transform="translate(-216.031 -102.264)" fill="url(#ad)"/><path d="M234.484,146.7a22.818,22.818,0,0,0,4.317,14.736,22.467,22.467,0,0,0,1.84-28.8A22.827,22.827,0,0,0,234.484,146.7Z" transform="translate(-216.899 -116.303)" fill="url(#ae)"/><path d="M251.763,150.75a17.768,17.768,0,0,1-11.949.35,17.488,17.488,0,0,1,20.883-8.292A17.775,17.775,0,0,1,251.763,150.75Z" transform="translate(-212.576 -108.822)" fill="url(#af)"/><path d="M244.952,135.058a22.832,22.832,0,0,0-.449,15.35,22.468,22.468,0,0,0,10.653-26.826A22.822,22.822,0,0,0,244.952,135.058Z" transform="translate(-209.705 -123.582)" fill="url(#ag)"/><path d="M258.778,143.371a17.759,17.759,0,0,1-11.471-3.361,17.49,17.49,0,0,1,22.42-1.433A17.769,17.769,0,0,1,258.778,143.371Z" transform="translate(-206.551 -114.254)" fill="url(#ah)"/><path d="M262.277,126.7a22.831,22.831,0,0,0-10.235,11.449,22.468,22.468,0,0,0,25.433-13.652A22.835,22.835,0,0,0,262.277,126.7Z" transform="translate(-202.743 -123.211)" fill="url(#ai)"/><path d="M314.856,297.214a53.816,53.816,0,0,0-19.476-19.351c-4.032-2.282-8.456-4.07-12.817-6.233A127.6,127.6,0,0,1,269.9,264.5a91.156,91.156,0,0,1-21.81-19.25c-.8-.916-1.474-1.945-2.214-2.914s-1.418-1.986-2.068-3.022a54.218,54.218,0,0,1-3.659-6.352,70.205,70.205,0,0,1-4.914-13.711c-4.965-18.734-2.834-39.346,6.567-56.359a75.305,75.305,0,0,1,18.48-22.185,83.636,83.636,0,0,1,11.952-8.2,81.5,81.5,0,0,1,13.158-6.078l.6,1.687c-17.733,6.464-33.6,18.929-42.621,35.633a71.975,71.975,0,0,0-8.458,26.883,75.036,75.036,0,0,0-.287,14.161,60.914,60.914,0,0,0,2.515,13.923,72.185,72.185,0,0,0,13.2,24.691,88.028,88.028,0,0,0,21.352,18.256,124.3,124.3,0,0,0,12.445,6.753c4.22,2.077,8.7,3.872,13.017,6.287a55.766,55.766,0,0,1,20.78,20.679Z" transform="translate(-218.351 -121.293)" fill="url(#aj)"/></g><path d="M-118.584-15.714a16.9,16.9,0,0,1-.675,1.755h-4.59l.324-.054a11.441,11.441,0,0,0-.7-1.7Zm9.315,12.258V-6.642h-10.314V-7.4h7.938v-2.781h-7.938v-.756h9.153v-3.024h-4.86c.324-.54.675-1.134,1.053-1.755h4.887V-18.9h-3.105c.594-.864,1.269-1.944,1.971-3.1l-4.131-.945a21.919,21.919,0,0,1-1.512,3.807l.81.243H-117.1v-4.212h-3.7V-18.9h-1.3v-4.212h-3.645V-18.9h-1.944l1.215-.432a20.42,20.42,0,0,0-1.917-3.726l-3.375,1.134A28.2,28.2,0,0,1-130.3-18.9h-3.24v3.186h5.184a16.83,16.83,0,0,1,.648,1.755h-4.725v3.024h8.964v.756h-7.641V-7.4h7.641v.756H-133.6v3.186h6.912a28.157,28.157,0,0,1-7.8,2.511,17.868,17.868,0,0,1,2.511,3.267,25.784,25.784,0,0,0,8.5-3.915V2.565h3.888V-1.728a21.4,21.4,0,0,0,8.451,4.05,17.206,17.206,0,0,1,2.646-3.564,26.261,26.261,0,0,1-7.695-2.214Zm8.91-11.286h3.888v1.4h-3.888Zm0-4.266h3.888v1.377h-3.888Zm11.772,1.377H-92.5v-1.377h3.915ZM-92.5-13.338v-1.4h3.915v1.4Zm8.019,3.132V-22.14h-19.791v11.934h3.618A19.632,19.632,0,0,1-107.3-6.912,18.273,18.273,0,0,1-104.706-3.7a20.177,20.177,0,0,0,4.374-2.214v.486c0,1.593-.594,3.7-4.968,5a14.214,14.214,0,0,1,2.673,3.186c5.508-1.89,6.345-5.427,6.345-8.019V-7.236H-98.55a18.581,18.581,0,0,0,2.862-2.97h2.619a17.941,17.941,0,0,0,2.862,3.051h-2.106V2.457h4.1V-5.7a17.442,17.442,0,0,0,4.05,1.917A15.77,15.77,0,0,1-81.54-7.128a18.407,18.407,0,0,1-6.777-3.078Zm22.032-8.91H-72.765v-.648h10.314Zm0,2.97H-72.765v-.675h10.314Zm3.942-6.075H-76.518v8.532h18.009ZM-60.777-6.372a10.867,10.867,0,0,1-1.242,1.89,9.935,9.935,0,0,1-1.323-1.89ZM-74.115-2.4v-.864h2.781v.7Zm0-4.239h2.781v.729h-2.781Zm2.781-3.294v.648h-2.781v-.648Zm12.825.513-.648.108H-67.1v2.943h2.511l-2.052.567a16.792,16.792,0,0,0,2.187,3.564A12.827,12.827,0,0,1-67.581-.594V-9.936H-55.35v-3.078H-79.677v3.078h2v7.722c-.81.054-1.566.081-2.241.108l.243,3.348c2.349-.189,5.346-.4,8.343-.621V2.565h3.753V.108a14.039,14.039,0,0,1,1.62,2.511A17.94,17.94,0,0,0-61.776.3a15.146,15.146,0,0,0,4.7,2.241,13.3,13.3,0,0,1,2.3-3.051,15.254,15.254,0,0,1-4.4-1.7,16.684,16.684,0,0,0,3.1-6.318Zm19.737,7.344h-3.591V-3.213h3.591Zm9.423-7.857H-51.435V2.592H-47.6V-6.723h14.31v5.238c0,.3-.135.378-.486.378a14.5,14.5,0,0,1-1.566,0V-5.778H-45.738V1.647h3.375V.486h6.723a11.382,11.382,0,0,1,.513,2.052,9.352,9.352,0,0,0,4.32-.648C-29.673,1.323-29.349.3-29.349-1.4Zm-7.641-3.375h-7.317v-1.08h7.317Zm3.969-3.618H-48.033v6.183h15.012Zm-5.643-4.1v-2.106h-4.05v2.106h-9.72v3.321h23.841v-3.321Zm21.9,10.827c-.945,3.1-1.755,4.725-2.835,4.725-.918,0-1.728-1.215-1.728-3.537a7.966,7.966,0,0,1,5.94-7.236A38.99,38.99,0,0,1-16.767-10.206Zm4.7,11.556C-5.1.189-1.782-3.942-1.782-9.558c0-6.075-4.32-10.773-11.124-10.773-7.155,0-12.636,5.4-12.636,11.745,0,4.563,2.538,8.154,5.832,8.154,3.159,0,5.562-3.591,7.155-8.937a55.931,55.931,0,0,0,1.566-6.966c3.078.729,4.752,3.186,4.752,6.642,0,3.51-2.268,5.886-5.67,6.723a19.2,19.2,0,0,1-2.619.486ZM23.949.81c-.081-1.053-.135-2.592-.135-3.51V-16.713c0-.891.054-2.079.081-2.727-.405.027-1.7.081-2.565.081H7.56c-.972,0-2.484-.081-3.564-.189v4.536c.837-.054,2.349-.108,3.564-.108H19.251V-4.86H7.236c-1.269,0-2.511-.081-3.564-.162V-.351c.972-.108,2.673-.189,3.7-.189H19.224L19.2.81ZM47.358-20.412a11.423,11.423,0,0,1-3.24.4H35.1a32.05,32.05,0,0,1-3.456-.216v4.644c.756-.054,2.241-.216,3.456-.216h8.4a19.8,19.8,0,0,1-3.78,6.1A30.107,30.107,0,0,1,28.674-2.106l3.4,3.537A36.178,36.178,0,0,0,41.985-5.94a53.606,53.606,0,0,1,6.453,7.4l3.753-3.267a71.933,71.933,0,0,0-7.344-7.533,41.848,41.848,0,0,0,4.077-7.128,15.128,15.128,0,0,1,1.107-1.971Zm28.566.648A1.44,1.44,0,0,1,77.355-21.2a1.44,1.44,0,0,1,1.431,1.431,1.44,1.44,0,0,1-1.431,1.431A1.44,1.44,0,0,1,75.924-19.764Zm-1.917,0a3.365,3.365,0,0,0,3.348,3.348A3.365,3.365,0,0,0,80.7-19.764a3.365,3.365,0,0,0-3.348-3.348A3.365,3.365,0,0,0,74.007-19.764Zm-15.2,11.2A32.919,32.919,0,0,1,54.567-.972L59.184.972a37.078,37.078,0,0,0,3.969-7.884,65.036,65.036,0,0,0,2.214-7.938c.108-.621.486-2.241.729-3.1l-4.779-1A39.061,39.061,0,0,1,58.806-8.559Zm13.338-.3A84.446,84.446,0,0,1,74.817.81L79.7-.783c-.756-2.808-2.187-7.209-3.078-9.531-.945-2.457-2.862-6.858-4.023-9.018l-4.374,1.4A74.84,74.84,0,0,1,72.144-8.856Zm14.58-7.02v-1.593h15.363v1.593H96.309V-17.01H92.34v1.134Zm19.71,12.015V-7.236H96.174a9.231,9.231,0,0,0,.108-1.215h6.993v-3.132H96.309v-1.161h7.614v-2h2.241v-6.129H96.5v-2.16h-4.05v2.16H82.836v6.129H85.32v2h7.02v1.161H85.752v3.132h6.561a6.252,6.252,0,0,1-.162,1.215H82.728v3.375H90.18C88.668-2.538,86.157-1.4,82.08-.594a14.791,14.791,0,0,1,2.43,3.159c5.13-1.3,8.154-3.186,9.855-5.427C96.5.189,99.549,1.89,104.544,2.646a14.108,14.108,0,0,1,2.3-3.429c-3.969-.351-6.777-1.35-8.667-3.078Zm12.285-3.456c-.972.27-1.971.54-2.943.783v-3.78h2.538V-13.9h-2.538v-4.131h2.835v-3.618H109v3.618h3V-13.9h-2.808v3.591H112v4.779c-1.377.324-2.673.648-3.726.864l.972,3.7c2.889-.837,6.588-1.89,9.99-2.916Zm4.482-3.645h6.1v1.053h-6.1Zm0-4.023h6.1v1.08h-6.1Zm0-4h6.1v1.08h-6.1Zm7.155,18.09c-.324,0-.378-.081-.378-.945V-6.723h3.159V-22.14H119.556V-6.723h1.755c-.324,3.024-.972,5.049-5.967,6.237a11.059,11.059,0,0,1,2.133,3.24c6.1-1.809,7.263-5.022,7.668-9.477h1.08v4.914c0,3.159.594,4.266,3.4,4.266h1.728c2.16,0,3.051-1.107,3.375-5.022A10.2,10.2,0,0,1,131.463-4c-.054,2.673-.162,3.105-.54,3.105Z" transform="translate(490 -45)" fill="#fff"/><path d="M-115.425-18.063H-117.4v-.729h1.971Zm0,3.105H-117.4v-.756h1.971Zm-12.636-.756h2v.756h-2Zm0-3.078h2v.729h-2Zm7.344,3.078v.756h-2.052v-.756Zm0-3.078v.729h-2.052v-.729Zm9.072-2.511H-117.4v-1.782h-3.321V-21.3h-2.052v-1.782h-3.294V-21.3h-5.589v8.856h20.007Zm2.025,9.5h-23.706v2.7h23.706Zm-9.045,9.207A19.755,19.755,0,0,1-119.718-.7l.243.081h-4.536l.486-.162a10.778,10.778,0,0,0-.864-1.809Zm-7.965-3.429h9.99v1h-9.99Zm10.692,5.4c.351-.54.729-1.161,1.134-1.836l-.4-.135h2.619V-8.451h-17.847v5.859h2.7l-.567.162a12.616,12.616,0,0,1,.918,1.809h-6.156V2.268h24.084V-.621ZM-96.552-4.86v.837h-4.1V-4.86Zm8.1.837h-4.266V-4.86h4.266ZM-92.718-.729v-.918h4.266v.918Zm-7.938,0v-.918h4.1v.918Zm-3.7,3.24h3.7V2.052h12.2v.459h3.888V-7.641h-19.791ZM-98.9-11.745h8.613v.918H-98.9Zm-3.564,3.375h15.984v-5.859h-15.984Zm.81-9.153v2.565h14.229v-2.565Zm9.1-4.131v-1.431h-4.05v1.431h-9.558v6.372h3.726v-3.1H-86.67v3.1h3.915v-6.372Zm37.314,6.588a53.375,53.375,0,0,0-6.8-3.672l-2.079,3.213a38.264,38.264,0,0,1,6.588,3.861Zm-10.314-4.158c-.891.27-2.025.54-3.267.783.378-1.35.675-2.565.864-3.4l-4.428-.432a21.256,21.256,0,0,1-.675,4.374c-.7.054-1.377.081-2.079.081-.891,0-2.484-.054-3.726-.189l.3,3.726c1.242.081,2.322.108,3.456.108.27,0,.567,0,.864-.027a41.724,41.724,0,0,1-5.319,9.153l3.915,1.971a49.59,49.59,0,0,0,5.67-11.5,42.588,42.588,0,0,0,4.536-.918Zm.216,14.877c0,1.485-.486,2.43-2.079,2.43-1.134,0-1.863-.594-1.863-1.458,0-.756.81-1.3,2.133-1.3a9.775,9.775,0,0,1,1.809.189Zm-.432-9.126c.081,1.512.189,3.7.3,5.616a11.894,11.894,0,0,0-1.4-.081c-4.131,0-6.237,2.3-6.237,4.968,0,3.105,2.754,4.752,6.291,4.752,3.942,0,5.346-1.917,5.427-4.482A28.364,28.364,0,0,1-58.158.027l2.133-3.483A17.253,17.253,0,0,0-61.56-6.939c-.054-1.107-.108-2.16-.135-2.781-.027-1.323-.081-2.592,0-3.753Zm34.857-5.13a1.44,1.44,0,0,1-1.431-1.431,1.44,1.44,0,0,1,1.431-1.431,1.44,1.44,0,0,1,1.431,1.431A1.44,1.44,0,0,1-30.915-18.6Zm-17.172-.945c-.891,0-2.673-.135-3.51-.243v4.617c.7-.054,2.187-.135,3.51-.135h11.88a15.168,15.168,0,0,1-2.97,6.966C-41.31-5.7-44.361-3.321-49.788-2.106l3.564,3.915A22.141,22.141,0,0,0-35.235-5.778c2.322-3.132,3.429-7.236,4.077-9.774.081-.324.189-.729.324-1.134a3.385,3.385,0,0,0,3.267-3.348,3.365,3.365,0,0,0-3.348-3.348,3.365,3.365,0,0,0-3.348,3.348,1.54,1.54,0,0,0,.027.351,14.073,14.073,0,0,1-1.944.135Zm43.011,4.941a6.29,6.29,0,0,1-2.268.324H-20.2c-.918,0-2.187-.081-3.429-.189v4.212c1.215-.108,2.754-.135,3.429-.135H-7.911A10.6,10.6,0,0,1-10.422-6.48,18.508,18.508,0,0,1-19.71-1.863l3.267,3.7A20.676,20.676,0,0,0-6.8-4.131,20.827,20.827,0,0,0-2.781-11.5a10.486,10.486,0,0,1,.594-1.3Zm-16.011-2.241c.81-.081,2.106-.108,3.024-.108H-7.884c1.026,0,2.484.054,3.24.108V-21.06A30.307,30.307,0,0,1-7.83-20.9H-18.063a25.885,25.885,0,0,1-3.024-.162Zm27.81-4.1L3.618-17.631a56.275,56.275,0,0,1,6.777,5.913l3.348-3.429A54.477,54.477,0,0,0,6.723-20.952Zm-4,17.928L5.508,1.3a28.812,28.812,0,0,0,9.666-3.564A29.2,29.2,0,0,0,25.677-12.5l-2.538-4.617a26.09,26.09,0,0,1-10.314,10.8A27.785,27.785,0,0,1,2.727-3.024Zm41.553-1c-.027-1.188-.081-3-.108-4.455,1.4-.621,2.7-1.134,3.726-1.512,1.026-.4,2.7-1.026,3.645-1.3L49.95-15.012c-1.134.54-2.241,1.053-3.4,1.566-.945.432-1.809.783-2.889,1.3A3.89,3.89,0,0,0,40.1-14.04a12.874,12.874,0,0,0-2.646.27,15.248,15.248,0,0,0,1.026-1.89c2.862-.108,6.129-.351,8.64-.675l.027-3.753a61.4,61.4,0,0,1-7.209.756,23.465,23.465,0,0,0,.594-2.43l-4.266-.351A15.59,15.59,0,0,1,35.8-19.2H34.749a34.752,34.752,0,0,1-4.806-.324v3.753c1.4.135,3.348.189,4.455.189a24.584,24.584,0,0,1-5.724,6.885L32.13-6.1a32.5,32.5,0,0,1,2.484-3.024,6.419,6.419,0,0,1,3.942-1.782,2.009,2.009,0,0,1,1.458.54c-2.97,1.566-6.156,3.807-6.156,7.29,0,3.564,3.159,4.7,7.56,4.7a71.952,71.952,0,0,0,7.722-.459l.135-4.185a39.845,39.845,0,0,1-7.776.837c-2.511,0-3.348-.459-3.348-1.593,0-1.08.729-1.944,2.4-2.916-.027,1-.081,2-.135,2.673ZM57.7-8.424a18.956,18.956,0,0,0-.513,3.942c0,3.834,3.024,6.048,9.531,6.048a43.84,43.84,0,0,0,9.4-.891l-.027-4.59a40.592,40.592,0,0,1-9.531,1.053C62.937-2.862,61.56-4,61.56-5.508a10.783,10.783,0,0,1,.4-2.538Zm15.012-12.96a14.607,14.607,0,0,1,1.026,1.728c-2.079.162-4.914.3-7.29.3a71.221,71.221,0,0,1-7.4-.324v4.32c2.214.162,4.563.3,7.425.3,2.592,0,6.129-.162,8.019-.324v-2.835l.3.594,2.565-1.08c-.486-.945-1.431-2.7-2.106-3.7Zm3.321-1.3a30.117,30.117,0,0,1,2.133,3.726l2.538-1.08a38.537,38.537,0,0,0-2.133-3.672ZM96.849-8.829V-11.5h4.806v2.673Zm-8.4,0q.081-1.418.081-2.673H92.88v2.673ZM92.88-17.6v2.457H88.533V-17.6Zm8.775,2.457H96.849V-17.6h4.806Zm3.915-6.183H84.645v9.639c0,3.807-.216,8.667-3.159,11.88a15.742,15.742,0,0,1,3.105,2.538A15.332,15.332,0,0,0,88.02-5.13h4.86V2.187h3.969V-5.13h4.806v3.24c0,.459-.189.621-.675.621s-2.241.027-3.564-.081A13.929,13.929,0,0,1,98.658,2.4c2.4.027,4.077-.054,5.319-.675,1.188-.594,1.593-1.62,1.593-3.564Zm18.792,2.484c-.162.405-.351.864-.486,1.242l.135.027H119.07a13.284,13.284,0,0,0-.4-1.269Zm8.964,1.269h-5.535c.27-.351.567-.783.891-1.269h3.186v-3h-8.424v-1.242H119.5v1.242h-8.424v3h3.7c.135.378.27.837.4,1.269h-5.454v3h23.6ZM111.564,2.079a10.668,10.668,0,0,0,3.645-5.454l-3.294-1.188A8.854,8.854,0,0,1,108.513,0Zm4.59-10.422h10.854v.837H116.154Zm0-3h10.854v.81H116.154Zm4.563,10.5c-1.161,0-1.377-.081-1.377-.837V-3.51a16.914,16.914,0,0,1,3.105,1.917L124.821-4a15.614,15.614,0,0,0-2-1.188H130.9v-8.478H112.455v8.478h6.885L118.233-4.1h-2.7V-1.62c0,2.943.891,3.888,4.7,3.888H124.2c2.727,0,3.726-.783,4.131-3.834a10.654,10.654,0,0,1-3.294-1.215c-.135,1.674-.3,1.944-1.215,1.944Zm6.453-2.43a22.511,22.511,0,0,1,4,5.184L134.433.054a22.049,22.049,0,0,0-4.212-4.995Z" transform="translate(491 -139)" fill="#fff"/><path d="M-160.07-2.079h-3.591V-3.213h3.591Zm9.423-7.857h-22.086V2.592h3.834V-6.723h14.31v5.238c0,.3-.135.378-.486.378a14.5,14.5,0,0,1-1.566,0V-5.778h-10.4V1.647h3.375V.486h6.723a11.381,11.381,0,0,1,.513,2.052,9.352,9.352,0,0,0,4.32-.648c1.134-.567,1.458-1.593,1.458-3.294Zm-7.641-3.375H-165.6v-1.08h7.317Zm3.969-3.618h-15.012v6.183h15.012Zm-5.643-4.1v-2.106h-4.05v2.106h-9.72v3.321h23.841v-3.321Zm32.724,7.263v1.728h-2.187V-13.77Zm-8.046,0h2.052v1.728h-2.052Zm2.052-2.943h-5.643v7.587h3.915a14.576,14.576,0,0,1-5.508,3.645,15.279,15.279,0,0,1,2.484,2.97,15.667,15.667,0,0,0,4.752-3.834v4.077h3.807V-6.129a19.579,19.579,0,0,0,4.644,3.564,15.957,15.957,0,0,1,2.646-3.078,20.3,20.3,0,0,1-5.994-3.483h4.7v-7.587h-5.994v-1.053h6.75v-3.24h-6.75v-2.052h-3.807v2.052h-6.345v3.24h6.345Zm-6.723-1.728a23.1,23.1,0,0,0-4.428-4.023l-2.916,2.349a21.528,21.528,0,0,1,4.212,4.266Zm-.621,5.805h-6.615v3.618h2.781V-4a38.7,38.7,0,0,1-3.483,2.187L-146,2.3c1.458-1.161,2.592-2.133,3.7-3.105,1.782,2.079,3.915,2.754,7.128,2.889,3.375.162,8.748.108,12.177-.081a19.753,19.753,0,0,1,1.242-4,125.469,125.469,0,0,1-13.338.3c-2.646-.108-4.482-.783-5.481-2.457Zm36.963-5.373h1.458V-7.371c0,2.862.54,3.807,2.916,3.807h1.377c1.89,0,2.673-1.053,2.916-4.05a9.537,9.537,0,0,1-2.835-1.242c-.054,2.052-.135,2.592-.4,2.592h-.3c-.216,0-.243-.108-.243-1.107v-13.9H-107.2v4.86c0,3.24-.162,7.965-2.3,11.232a15.149,15.149,0,0,1,3.159,1.971c2.322-3.618,2.727-9.342,2.727-13.176Zm-8.883,2.457A36.352,36.352,0,0,1-113.6-9.315a25.714,25.714,0,0,1-1.539-4.563c.135-.54.27-1.107.4-1.674Zm1.485-3.348-.675.081h-2.457c.189-1.215.351-2.457.486-3.7L-117.545-23c-.432,5.292-1.4,10.5-3.456,13.608a23.187,23.187,0,0,1,2.916,2.97A16.332,16.332,0,0,0-116.842-8.8a22.671,22.671,0,0,0,1.62,3.618,11.145,11.145,0,0,1-4.725,4.752A15.612,15.612,0,0,1-117.6,2.781a15.487,15.487,0,0,0,4.833-4.617c3.078,3.105,6.966,3.969,11.448,3.969h5.13a14.133,14.133,0,0,1,1.4-3.78c-1.458.054-5.076.054-6.345.054-3.807-.027-7.209-.756-9.882-3.645,1.377-3.4,2.106-7.776,2.349-13.311ZM-84.523-6.453c-.81.27-1.647.513-2.457.783v-4.671h2.268v-3.591H-86.98v-4.131h2.754v-3.618h-9.261v3.618h2.781v4.131h-2.538v3.591h2.538v5.778c-1.161.324-2.214.621-3.105.837l.864,4c2.7-.864,6.048-1.944,9.1-3Zm4.671-7.587h2.025v1.647h-2.025Zm0-4.671h2.025v1.62h-2.025Zm7.128,1.62h-1.836v-1.62h1.836Zm0,4.7h-1.836V-14.04h1.836ZM-74.183-1.809V-3.753h5.427v-3.51h-5.427V-9.1H-69V-22H-83.39V-9.1h5.184v1.836h-5.265v3.51h5.265v1.944h-7.047V1.728h17.388V-1.809Zm33.453-18.2a38.536,38.536,0,0,0-2.133-3.672L-45.4-22.653a30.117,30.117,0,0,1,2.133,3.726Zm-18.63-1.647a26.842,26.842,0,0,1-.513,5.589c-1.188.081-2.295.162-3.078.189a29.775,29.775,0,0,1-3.105,0l.351,4.347c.891-.162,2.43-.378,3.294-.486.378-.054.972-.135,1.674-.243-1,3.645-2.727,8.64-5.265,12.069l4.239,1.7c2.268-3.672,4.266-10.1,5.346-14.256.486-.027.945-.054,1.242-.054,1.674,0,2.484.243,2.484,2.187,0,2.484-.324,5.535-1,6.858A1.813,1.813,0,0,1-55.5-2.727a16.968,16.968,0,0,1-3.267-.567l.7,4.266a15.878,15.878,0,0,0,3.24.378c2.187,0,3.753-.675,4.671-2.592,1.134-2.376,1.485-6.669,1.485-9.8,0-4-2.025-5.454-5.1-5.454-.486,0-1.107.027-1.809.081.162-.7.324-1.431.459-2.16.162-.756.378-1.755.567-2.565Zm15.282,2.97c-.486-.945-1.431-2.7-2.106-3.7l-2.538,1.026a34.751,34.751,0,0,1,1.836,3.294l-2.349.972c1.944,2.484,3.726,7.236,4.374,10.341l4.131-1.917a49.135,49.135,0,0,0-4.32-9.612Zm15.2,7.533v3.294h-4.077v-3.294Zm3.888,7.02V-14.877H-36.761V-2.106h3.807V-4.131Zm10.557-17.2H-39.11v3.969h17.523V-2.268c0,.567-.243.756-.891.756s-3.105.027-4.914-.108a16.092,16.092,0,0,1,1.647,4.158c2.835,0,4.86-.081,6.345-.756,1.431-.621,1.944-1.755,1.944-3.969V-17.361h3.024ZM1.444-14.877c.081,3.132.972,4.158,4.347,4.158H8.977c2.7,0,3.726-1.026,4.131-4.644a10.387,10.387,0,0,1-3.456-1.431C9.545-14.58,9.382-14.2,8.6-14.2H6.385c-.891,0-1.026-.108-1.026-1.107v-.972a43.993,43.993,0,0,0,6.534-2.457L9.437-21.573a33.6,33.6,0,0,1-4.077,2.052V-22.95H1.444v7.965A27.083,27.083,0,0,0-1.607-21.33l-3.348,1.242c.351.594.675,1.242,1,1.89l-2.538.108c.621-1.35,1.242-2.862,1.809-4.347l-4.1-.837a35.121,35.121,0,0,1-1.728,5.346q-1.134.041-2.106.081l.3,3.7c2.754-.189,6.291-.432,9.8-.675a11.643,11.643,0,0,1,.378,1.35ZM-7.412-5.238V-6.291h3.078v1.053Zm3.078-4.833v.918H-7.412v-.918Zm3.888-3.186H-11.03V2.538h3.618V-2.376h3.078v1.053c0,.324-.108.4-.432.4A19.662,19.662,0,0,1-6.9-.945,14.284,14.284,0,0,1-5.657,2.511a7.7,7.7,0,0,0,3.888-.648C-.743,1.3-.446.351-.446-1.242ZM6.413-1c-.918,0-1.08-.108-1.08-1.134V-3.726a46.028,46.028,0,0,0,6.8-2.781L9.571-9.369a29.065,29.065,0,0,1-4.239,2.3v-3.213H1.444v8.181c0,3.4.864,4.509,4.347,4.509H9.085c2.781,0,3.78-1.134,4.185-5.049A11.1,11.1,0,0,1,9.841-4.077C9.706-1.485,9.545-1,8.707-1ZM39.46-15.066a53.375,53.375,0,0,0-6.8-3.672l-2.079,3.213a38.264,38.264,0,0,1,6.588,3.861ZM29.146-19.224c-.891.27-2.025.54-3.267.783.378-1.35.675-2.565.864-3.4l-4.428-.432A21.256,21.256,0,0,1,21.64-17.9c-.7.054-1.377.081-2.079.081-.891,0-2.484-.054-3.726-.189l.3,3.726c1.242.081,2.322.108,3.456.108.27,0,.567,0,.864-.027a41.724,41.724,0,0,1-5.319,9.153l3.915,1.971a49.59,49.59,0,0,0,5.67-11.5,42.587,42.587,0,0,0,4.536-.918Zm.216,14.877c0,1.485-.486,2.43-2.079,2.43-1.134,0-1.863-.594-1.863-1.458,0-.756.81-1.3,2.133-1.3a9.775,9.775,0,0,1,1.809.189Zm-.432-9.126c.081,1.512.189,3.7.3,5.616a11.894,11.894,0,0,0-1.4-.081c-4.131,0-6.237,2.3-6.237,4.968,0,3.105,2.754,4.752,6.291,4.752,3.942,0,5.346-1.917,5.427-4.482A28.364,28.364,0,0,1,36.545.027l2.133-3.483a17.253,17.253,0,0,0-5.535-3.483c-.054-1.107-.108-2.16-.135-2.781-.027-1.323-.081-2.592,0-3.753ZM49.261.378c4.86,0,7.668-2.943,7.668-6.291,0-2.835-1.485-4.509-3.969-5.508l-2.511-1c-1.782-.7-3.051-1.134-3.051-2.241,0-1.08.918-1.674,2.4-1.674A6.534,6.534,0,0,1,53.932-14.8l2.4-3.024A9.348,9.348,0,0,0,49.8-20.466c-4.266,0-7.29,2.7-7.29,6.075a5.883,5.883,0,0,0,4.077,5.508L49.153-7.8c1.728.729,2.835,1.107,2.835,2.268,0,1.08-.837,1.755-2.619,1.755a8.122,8.122,0,0,1-4.887-2.052L41.756-2.511A11.242,11.242,0,0,0,49.261.378Zm16.659,0c4.86,0,7.668-2.943,7.668-6.291,0-2.835-1.485-4.509-3.969-5.508l-2.511-1c-1.782-.7-3.051-1.134-3.051-2.241,0-1.08.918-1.674,2.4-1.674A6.534,6.534,0,0,1,70.591-14.8l2.4-3.024a9.348,9.348,0,0,0-6.534-2.646c-4.266,0-7.29,2.7-7.29,6.075a5.883,5.883,0,0,0,4.077,5.508L65.813-7.8c1.728.729,2.835,1.107,2.835,2.268,0,1.08-.837,1.755-2.619,1.755a8.122,8.122,0,0,1-4.887-2.052L58.414-2.511A11.242,11.242,0,0,0,65.92.378ZM76.937,0h6.048c5.859,0,9.909-3.159,9.909-10.152s-4.05-9.936-10.179-9.936H76.937ZM81.77-3.888V-16.254h.648c3.24,0,5.535,1.323,5.535,6.1s-2.295,6.264-5.535,6.264Zm29.808-.135c-.027-1.188-.081-3-.108-4.455,1.4-.621,2.7-1.134,3.726-1.512,1.026-.4,2.7-1.026,3.645-1.3l-1.593-3.726c-1.134.54-2.241,1.053-3.4,1.566-.945.432-1.809.783-2.889,1.3a3.89,3.89,0,0,0-3.564-1.89,12.874,12.874,0,0,0-2.646.27,15.247,15.247,0,0,0,1.026-1.89c2.862-.108,6.129-.351,8.64-.675l.027-3.753a61.4,61.4,0,0,1-7.209.756,23.464,23.464,0,0,0,.594-2.43l-4.266-.351A15.59,15.59,0,0,1,103.1-19.2h-1.053a34.752,34.752,0,0,1-4.806-.324v3.753c1.4.135,3.348.189,4.455.189a24.584,24.584,0,0,1-5.724,6.885L99.427-6.1a32.5,32.5,0,0,1,2.484-3.024,6.419,6.419,0,0,1,3.942-1.782,2.009,2.009,0,0,1,1.458.54c-2.97,1.566-6.156,3.807-6.156,7.29,0,3.564,3.159,4.7,7.56,4.7a71.952,71.952,0,0,0,7.722-.459l.135-4.185a39.845,39.845,0,0,1-7.776.837c-2.511,0-3.348-.459-3.348-1.593,0-1.08.729-1.944,2.4-2.916-.027,1-.081,2-.135,2.673Zm30.051.972v1.728h-5.751V-3.051Zm-9.261,5.616h3.51V1.728h5.751v.756H145.3V-6.1H132.367ZM136.5-10.476a15.285,15.285,0,0,0,2.187-2.592,18.072,18.072,0,0,0,2.322,2.592Zm4.131-7.047v1.512l-.3-.405h-3.186v-1.107Zm3.7,2.106v-2.106h2.862v-3.294h-2.862v-2.268h-3.7v2.268h-3.483v-2.268h-3.618v2.268h-2.754v3.294h2.754v1.971h2.7a18.3,18.3,0,0,1-5.373,4.941l-.243-1.674-1.62.432v-2.7h1.755v-3.591h-1.755v-4.914H125.24v4.914h-2.889v3.591h2.889v3.645c-1.3.3-2.511.594-3.483.783l.81,3.807,2.673-.756v5.319c0,.378-.135.513-.486.513s-1.431,0-2.4-.054a14.892,14.892,0,0,1,1.08,3.834c1.89,0,3.294-.135,4.293-.783,1-.621,1.269-1.647,1.269-3.483V-8.181l1.242-.378a15.37,15.37,0,0,1,.945,1.89,18.48,18.48,0,0,0,3.456-2.16v1.4h8.289V-8.91a18.128,18.128,0,0,0,3,1.863,18.789,18.789,0,0,1,2.025-3.429,16.345,16.345,0,0,1-6.831-4.941ZM162.824-2.43H158.26v-.783h4.428v-6.75h-4.374v-.783h4.617v-2.7h-4.617v-.837H163.8a58.381,58.381,0,0,0,1.323,10.206,21.222,21.222,0,0,1-2.295,2.106Zm-9.558-3.294h1.89v.7h-1.89Zm0-2.43h1.89v.7h-1.89Zm4.7.7v-.7h1.89v.7Zm0,2.43v-.7h1.89v.7Zm12.177-8.262a25.391,25.391,0,0,1-1.971,4.86c-.243-1.755-.432-3.753-.54-5.859h6.588v-3.186h-3l2.808-1.917a27.631,27.631,0,0,0-3.213-3.726l-2.889,1.89a26.263,26.263,0,0,1,2.916,3.753h-3.321c-.054-1.836-.027-3.726.027-5.589h-3.942c0,1.863.027,3.753.054,5.589h-5.211V-18.5h4v-2.943h-4v-1.62h-3.726v1.62h-4.077V-18.5h4.077v1.026H149.4v3.186h5.4v.837h-4.644v2.7H154.8v.783h-4.239v6.75h4.293v.783h-5.049V.351h5.049V2.592h3.4V.351h2.862a11.4,11.4,0,0,1,1.836,2.295,26.513,26.513,0,0,0,3.591-2.862c.945,1.755,2.187,2.781,3.834,2.781,2.619,0,3.78-1.134,4.293-6.048A9.5,9.5,0,0,1,171.6-5.589c-.135,3.024-.378,4.347-.864,4.347-.54,0-1.053-.756-1.512-2.079a30.482,30.482,0,0,0,4.374-8.91Z" transform="translate(490 -90)" fill="#fff"/></g></svg>