<svg xmlns="http://www.w3.org/2000/svg" width="126.613" height="223.488" viewBox="0 0 126.613 223.488"><g transform="translate(-360 -8573.368)"><g transform="translate(360 8573.368)"><path d="M1804.025,1776.918c0,3.6-28.343,6.51-63.307,6.51s-63.307-2.915-63.307-6.51,28.343-6.51,63.307-6.51S1804.025,1773.323,1804.025,1776.918Z" transform="translate(-1677.412 -1559.939)" fill="#e2e2e2"/><g transform="translate(32.393)"><path d="M498.287,500.862s22.391,7.909,23.422,18.578l-4.578,1.62-17.384-8.394Z" transform="translate(-463.393 -444.636)" fill="#3b5293"/><path d="M521.875,647.935S531.1,727.2,533.41,735.662v5.344H551.1a3.864,3.864,0,0,0-3.068-1.781c-2,0-7.054-1.93-8.438-3.265s.871-110.883.871-110.883H518.492Z" transform="translate(-499.489 -527.647)" fill="#0f1d5b"/><path d="M602.029,631.945l-2.553,12.823s-20.424,69.458-19.531,93.729c0,0,1.72,2.877,7.787,4.58.327.092.639,1.221.639,1.221H572.542l.894-4.884s3.335-81.953,3.335-91.57.193-22.767.193-22.767h26.086Z" transform="translate(-569.366 -527.647)" fill="#2a417f"/><path d="M581.506,477.7c0-22.47-5.7-43.281-10.606-46.124a54.365,54.365,0,0,0-7.886-1.249c-4.38-.147-11.119,2.065-14.757,14.459-2.293,7.813-1.21,26.673-.964,43.108.109,7.287-1,14.1-.843,19.256h35.718C582.356,503.226,581.506,484.76,581.506,477.7Z" transform="translate(-539.85 -397.493)" fill="#59d5b3"/><path d="M582.568,385.219s-3.129,10.753-2.717,16.041c0,0,6.646,6.672,9.29,4.79l.34-13.428Z" transform="translate(-558.208 -367.354)" fill="#ffddb3"/><path d="M580.025,385.219l6.913,7.4-.173,6.813c-3.2-.147-6.2-4.983-6.543-10.728a15.9,15.9,0,0,0-.41-2.734C579.945,385.493,580.025,385.219,580.025,385.219Z" transform="translate(-555.665 -367.354)" fill="#e5c7a1"/><path d="M573.954,351.535a1.926,1.926,0,0,1,.325.585,13.227,13.227,0,0,1,.1,7.348c-.988,3.966-2.716,12.339-5.762,12.339s-7.119-4.143-7.449-9.079-2.429-7.4-.618-11.193S573.954,351.535,573.954,351.535Z" transform="translate(-536.931 -343.718)" fill="#ffddb3"/><path d="M560.716,351.535c1.811-3.79,13.406,0,13.406,0a1.929,1.929,0,0,1,.325.585,14.7,14.7,0,0,1,.007,7.675c-.131.529-2.732-1.441-3.619-3.7-.151-.191-.221-1.685-2.875-2.77-.55,1.294-1.837.771-3.284,3.677-.1,5.887-3.307,6.255-3.342,5.728C561,357.793,558.905,355.325,560.716,351.535Z" transform="translate(-537.098 -343.718)" fill="#e5c7a1"/><path d="M544.163,344.732a16.648,16.648,0,0,1,2.14-3.438,2.225,2.225,0,0,0,.741-2.115s3.843.7,4.967,3.525,2.454,6.963,6.686,5.112,3.492-7.757,2.5-7.757a3.222,3.222,0,0,1-1.893-.881s-3.539-5.376-5.433-5.376-.247-1.851-3.457-2.38-5.762,2.556-5.762,2.556-1.4-1.675-3.868,0-1.328,8.2-.458,10.488a22.344,22.344,0,0,1,.928,6.037S544.163,351.166,544.163,344.732Z" transform="translate(-517.253 -331.362)" fill="#5c2c55"/><path d="M589.713,366.417a1.27,1.27,0,0,1,2.387-.244,2.357,2.357,0,0,1-.022,2.832c-1.564,1.674-2.963-.176-2.469-2.2Q589.659,366.6,589.713,366.417Z" transform="translate(-564.51 -354.136)" fill="#ffddb3"/><path d="M592.026,369.555c-.038-.486-.535-1.9-1.256-1.41s-1.3,2.225-.115,2.578S592.061,370.023,592.026,369.555Z" transform="translate(-564.128 -355.877)" fill="#e5c7a1"/><g transform="translate(33.001 17.336)"><path d="M569.061,388.325h1.729V383.8a.165.165,0,1,0-.329,0v4.171h-1.4a.177.177,0,0,0,0,.353Z" transform="translate(-568.896 -383.625)" fill="#18287d"/></g><path d="M573.468,380.565a.735.735,0,1,0,.709-.925A.839.839,0,0,0,573.468,380.565Z" transform="translate(-541.509 -363.625)" fill="#18287d"/><path d="M563.188,382.351c0,.471.27.852.6.852s.6-.381.6-.852-.27-.852-.6-.852S563.188,381.88,563.188,382.351Z" transform="translate(-527.607 -364.868)" fill="#18287d"/><g transform="translate(29.39 23.659)"><path d="M578.168,404.43a2.158,2.158,0,0,0,.578-.07.169.169,0,0,0,.1-.205.158.158,0,0,0-.192-.112,2.6,2.6,0,0,1-2.818-1.292.149.149,0,0,0-.217-.031.174.174,0,0,0-.029.233A3.126,3.126,0,0,0,578.168,404.43Z" transform="translate(-575.563 -402.685)" fill="#18287d"/></g><path d="M575.3,373.789a2.834,2.834,0,0,0-1.8-.881c-.988,0-1.753,1.234-1.753,1.234s.74-1,1.59-.823a6.2,6.2,0,0,1,1.96,1.058Z" transform="translate(-541.351 -359.127)" fill="#18287d"/><path d="M627.429,517.057c-.006-.006-.012-.015-.019-.02C627.578,517.025,627.566,517.034,627.429,517.057Z" transform="translate(-612.05 -455.442)" fill="#ffddb3"/><path d="M461.762,523.114l23.326-16.663-24.219-2.2-18.315,19.321Z" transform="translate(-408.285 -446.902)" fill="#0068b7"/><path d="M547.658,540.586s-2.485.556-3.4,1.539c-1.173,1.256-3.955,3.3-5.125,3.3s-6.149.487-6.149.487l-.836,5.479s18.58-4.255,19.455-5.192-4.357.7-4.357.278,6.3-.887,5.977-1.939-5.815,1.418-6.3.9,6.627-1.392,6.627-2.5-7.082,1.609-7.082,1.609-.13-.565,1.787-1.469,3.774-1.633,3.35-2.087-5.325,2.428-5.97,1.736Z" transform="translate(-506.46 -471.183)" fill="#ffddb3"/><path d="M594.28,445.267a23.456,23.456,0,0,1,2.161,12.055c-.539,7.115-1.459,18.025.053,21.583s12.587,0,12.587,0v8.42s-16.059,6.523-20.71,4.388-4.208-20.516-4.208-29.529S591.314,438.8,594.28,445.267Z" transform="translate(-579.249 -406.4)" fill="#3b5293"/><path d="M620.852,443.822a2.7,2.7,0,0,1,1.333,1.621l0,.009c4.153,10.019-.332,18.648,1.682,30.468-.229-12.413,3.344-22.417-1.434-30.6l0,.008A2.647,2.647,0,0,0,620.852,443.822Z" transform="translate(-607.281 -406.517)" fill="#5994b3"/><g transform="translate(0.169 70.808)"><path d="M626.878,587.259a60.612,60.612,0,0,0,6.067-16.407c5.156-22.5-1.5-33.835-9.578-19.993-7.852,13.457-11.1,40.667-3.779,42.346C622.5,593.874,625.38,589.826,626.878,587.259Zm5.262-16.592a59.762,59.762,0,0,1-5.976,16.176c-2.3,3.936-4.625,5.959-6.391,5.557-6.055-1.387-3.758-27.3,4.308-41.125C632.241,537.291,636.562,551.375,632.14,570.667Z" transform="translate(-615.492 -544.822)" fill="#b1beef"/></g><g transform="translate(0 70.853)"><path d="M608.721,606.219c5.145,0,11.855-12.124,15.607-28.5,6.772-29.546-1.557-42.128-11.117-25.064a81.347,81.347,0,0,0-7.506,20.8h0c-3.926,17.131-2.912,31.487,2.309,32.684A3.176,3.176,0,0,0,608.721,606.219Zm16.9-50.422c1.206,20.062-10.16,50.991-17.377,49.356-4.02-.922-5.6-13.787-1.548-31.47h0C612.266,549.372,624.387,535.33,625.618,555.8Z" transform="translate(-603.318 -544.959)" fill="#d9e0ff"/></g><g transform="translate(2.064 71.186)"><path d="M604.314,603.515c5.114,0,11.61-11.316,15.124-26.648,6.333-27.63-2.047-39.754-11.381-23.759C598.312,569.81,594.778,603.515,604.314,603.515Zm14.168-26.868c-3.447,15.036-10.189,26.872-14.7,25.827-7.2-1.65-4.465-32.446,5.12-48.872C618.552,537.068,623.777,553.545,618.482,576.648Z" transform="translate(-598.703 -545.962)" fill="#d9e0ff"/></g><g transform="translate(5.011 71.671)"><path d="M612.315,589.84c7.854-13.457,11.1-40.668,3.78-42.346-4.388-1.013-10.254,8.814-13.358,22.353s-2.1,24.933,2.288,25.939C607.939,596.45,610.809,592.422,612.315,589.84Zm3.12-41.594a2.138,2.138,0,0,1,.476.053c6.054,1.388,3.758,27.3-4.308,41.125-8.172,14.005-12.479-.111-8.059-19.392C606.324,557.9,611.648,548.246,615.434,548.246Z" transform="translate(-600.938 -547.423)" fill="#d9e0ff"/></g><path d="M504.418,543.2a12.18,12.18,0,0,1,1.405,2c.886,1.458-.538,2.9-.813,3.209a11.842,11.842,0,0,1-2.149,1.754,4.731,4.731,0,0,1-1.713.721c-.967.2-3.906-3.444-3.66-3.781.165-.225.384-.4.632-.323s3.141,2.1,3.141,2.1-2.8-2.875-2.7-3.711.6-.719.841-.5,3.617,2.935,3.617,2.935-2.579-3.419-2.515-3.963.775-.911,1.921.468a22.269,22.269,0,0,0,2.188,2.045s-1.573-2.571-1.477-3.388S504.418,543.2,504.418,543.2Z" transform="translate(-447.525 -472.452)" fill="#ffddb3"/><path d="M605.3,549.939v8.42s-16.059,6.523-20.71,4.388a2.562,2.562,0,0,1-.438-.262s5.888-8.924,8.384-11.443a7.57,7.57,0,0,1,.695-.519C596.037,552.479,605.3,549.939,605.3,549.939Z" transform="translate(-575.467 -477.434)" fill="#5975d1"/><g transform="translate(4.927 71.392)"><path d="M616.931,569c2.981-13,8.511-22.579,12.831-22.417l-.2.826c-3.783.109-9.06,9.71-11.826,21.776-2.73,11.91-2.127,21.839.656,24.4l-.212.878C614.694,591.984,614.091,581.394,616.931,569Z" transform="translate(-615.133 -546.582)" fill="#d9e0ff"/></g><g transform="translate(2.064 71.2)"><path d="M622.156,553.135c3.292-5.641,6.461-7.77,8.912-6.97l-.234.931c-2-.734-4.675,1.125-7.831,6.534-9.171,15.716-12.061,44.57-5.99,48.48l-.26,1.035C609.352,599.326,613.03,568.776,622.156,553.135Z" transform="translate(-612.803 -546.002)" fill="#d9e0ff"/></g><g transform="translate(11.332 72.916)"><path d="M612.44,559.912c2.006-6.215,4.645-8.975,7.211-8.719l-.029.9c-2.107-.289-4.325,2.163-6.248,8.124-5.588,17.316-2.224,46.119,4.544,48.636l-.032,1.067C609.839,607.774,606.881,577.147,612.44,559.912Z" transform="translate(-609.586 -551.177)" fill="#d9e0ff"/><path d="M612.693,722.567v2.344l-2.04-.175v-2.169Z" transform="translate(-602.982 -665.714)" fill="#d9e0ff"/><rect width="1.097" height="0.226" transform="translate(8.481 57.115)" fill="#838bc5"/><rect width="1.097" height="0.226" transform="translate(8.481 57.544)" fill="#838bc5"/><rect width="1.097" height="0.226" transform="translate(8.481 57.961)" fill="#838bc5"/><rect width="1.097" height="0.226" transform="translate(8.481 58.343)" fill="#838bc5"/><path d="M610.653,722.567v2.169l2.04.175-1.9-.306Z" transform="translate(-602.982 -665.714)" fill="#838bc5"/></g></g></g></g></svg>